<svg xmlns="http://www.w3.org/2000/svg" xmlns:xlink="http://www.w3.org/1999/xlink" viewBox="0 0 510 510">
  <defs/>
  <linearGradient id="c" x1="186.6" x2="297.7" y1="172.7" y2="414.8" gradientUnits="userSpaceOnUse">
    <stop offset="0" stop-color="#c5715a"/>
    <stop offset="1" stop-color="#883f2e"/>
  </linearGradient>
  <linearGradient id="a">
    <stop offset="0" stop-color="#883f2e" stop-opacity="0"/>
    <stop offset=".2" stop-color="#813c2c" stop-opacity=".2"/>
    <stop offset="1" stop-color="#6d3326"/>
  </linearGradient>
  <linearGradient id="d" x1="255" x2="255" y1="241.9" y2="339.2" gradientUnits="userSpaceOnUse" xlink:href="#a"/>
  <linearGradient id="e" x1="401.9" x2="292.9" y1="282.5" y2="177.5" gradientUnits="userSpaceOnUse" xlink:href="#a"/>
  <linearGradient id="f" x1="320.8" x2="245.9" y1="231.8" y2="159.7" gradientUnits="userSpaceOnUse" xlink:href="#a"/>
  <linearGradient id="g" x1="164.8" x2="89.9" y1="254.8" y2="182.7" gradientUnits="userSpaceOnUse" xlink:href="#a"/>
  <linearGradient id="h" x1="271.4" x2="175.4" y1="295.1" y2="202.6" gradientUnits="userSpaceOnUse" xlink:href="#a"/>
  <linearGradient id="i" x1="386.5" x2="186.5" y1="253.9" y2="81.9" gradientUnits="userSpaceOnUse" xlink:href="#a"/>
  <linearGradient id="j" x1="278.7" x2="352.5" y1="14.2" y2="88.1" gradientUnits="userSpaceOnUse">
    <stop offset="0" stop-color="#4f66d0"/>
    <stop offset=".2" stop-color="#485ec5"/>
    <stop offset=".6" stop-color="#3549a8"/>
    <stop offset="1" stop-color="#192a7d"/>
  </linearGradient>
  <linearGradient id="k" x1="289.3" x2="257.9" y1="44.4" y2="44.4" gradientUnits="userSpaceOnUse">
    <stop offset="0" stop-color="#1b1464" stop-opacity="0"/>
    <stop offset="1" stop-color="#1b1464"/>
  </linearGradient>
  <linearGradient id="l" x1="242.8" x2="268" y1="93.1" y2="93.1" gradientUnits="userSpaceOnUse">
    <stop offset="0" stop-color="#fee97d"/>
    <stop offset="1" stop-color="#fac600"/>
  </linearGradient>
  <linearGradient id="b">
    <stop offset="0" stop-color="#eaf6ff"/>
    <stop offset="1" stop-color="#b3dafe"/>
  </linearGradient>
  <linearGradient id="m" x1="118.7" x2="315.7" y1="290.3" y2="444.6" gradientUnits="userSpaceOnUse" xlink:href="#b"/>
  <linearGradient id="n" x1="359.9" x2="484.8" y1="408.3" y2="408.3" gradientUnits="userSpaceOnUse" xlink:href="#b"/>
  <linearGradient id="o" x1="29.6" x2="151.7" y1="408.3" y2="408.3" gradientUnits="userSpaceOnUse" xlink:href="#b"/>
  <linearGradient id="p" x1="197.1" x2="339.5" y1="408.3" y2="408.3" gradientUnits="userSpaceOnUse" xlink:href="#b"/>
  <linearGradient id="q" x1="255" x2="255" y1="472.1" y2="545.6" gradientUnits="userSpaceOnUse">
    <stop offset="0" stop-color="#8ac9fe" stop-opacity="0"/>
    <stop offset=".1" stop-color="#85c2f3" stop-opacity=".1"/>
    <stop offset=".4" stop-color="#70a3c3" stop-opacity=".4"/>
    <stop offset=".6" stop-color="#608ca0" stop-opacity=".6"/>
    <stop offset=".9" stop-color="#577e8b" stop-opacity=".9"/>
    <stop offset="1" stop-color="#537983"/>
  </linearGradient>
  <ellipse cx="255" cy="321.8" fill="url(#c)" rx="225" ry="175.3"/>
  <path fill="url(#d)" d="M30 321.8C30 418.5 130.7 497 255 497s225-78.5 225-175.2c0-40.6-17.7-78-47.4-107.6H77.4C47.7 243.9 30 281.2 30 321.8z"/>
  <circle cx="363.5" cy="245.5" r="26" fill="url(#e)"/>
  <circle cx="294.4" cy="206.4" r="17.9" fill="url(#f)"/>
  <circle cx="138.4" cy="229.4" r="17.9" fill="url(#g)"/>
  <circle cx="237.6" cy="262.4" r="22.9" fill="url(#h)"/>
  <path fill="url(#i)" d="M480 321.8a140.3 140.3 0 01-21.2 74.3L244 181.5v-34.8a280.5 280.5 0 0148.7 2.3C399 163 480 235 480 321.7z"/>
  <path fill="url(#j)" d="M254.9 0h109.8a2 2 0 011.6 3l-25.1 36.8c-2 2.8-2 6.4 0 9.2l25.1 36.7a2 2 0 01-1.6 3H255c-3.8 0-6.8-3-6.8-6.7V6.8c0-3.8 3-6.8 6.8-6.8z"/>
  <path fill="url(#k)" d="M325 0h-70.1C251 0 248 3 248 6.8V82c0 3.7 3 6.8 6.8 6.8H325z"/>
  <path fill="url(#l)" d="M255 186.3c-8.2 0-14.8-6.6-14.8-14.8V14.8a14.8 14.8 0 1129.6 0v156.7c0 8.2-6.7 14.8-14.8 14.8z"/>
  <g>
    <path fill="url(#m)" d="M509.2 355.1l-26.3 118.7c-4.7 21-26.2 36.2-51.2 36.2H78.3c-25 0-46.5-15.2-51.2-36.2L.8 355.1c-5.5-25.2 17.1-48.6 47.3-48.6h4c24.3 0 44.9 15.7 47.6 36.4l1.3 9.3c-3.3-24.4 19-45.7 47.7-45.7H159c25.8 0 47 17.5 48 39.5v1.5c0-22.5 21.5-41 48.1-41 27.2 0 49 19.3 48 42.4l.1-2.9c1-22 22.2-39.5 48-39.5h10.2c28.7 0 51 21.3 47.7 45.7l1.3-9.3c2.7-20.7 23.3-36.4 47.7-36.4h4c30 0 52.7 23.4 47.2 48.6z"/>
    <path fill="url(#n)" d="M509.2 355.1l-26.3 118.7c-4.7 21-26.2 36.2-51.2 36.2h-43.8L409 352.1l1.3-9.2c2.7-20.7 23.3-36.4 47.7-36.4h4c30 0 52.7 23.4 47.2 48.6z"/>
    <path fill="url(#o)" d="M122.1 510H78.3c-25 0-46.5-15.2-51.2-36.2L.8 355.1c-5.5-25.2 17.1-48.6 47.3-48.6h4c24.3 0 44.9 15.7 47.6 36.4l1.3 9.3z"/>
    <path fill="url(#p)" d="M303 349l-6.7 161h-82.6L207 349v-1.5c0-22.5 21.4-41 48-41 27.2 0 49 19.3 48 42.4z"/>
    <path fill="url(#q)" d="M4.1 370l23 103.8c4.7 21 26.2 36.2 51.2 36.2h353.4c25 0 46.5-15.2 51.2-36.2l23-103.8z"/>
  </g>
</svg>