<svg xmlns="http://www.w3.org/2000/svg" fill="none" viewBox="0 0 934 687">
  <defs/>
  <g id="dictation and rewrite 1">
    <g id="rewrite">
      <g id="Group_21">
        <path id="Vector_210" fill="url(#paint0_linear)" d="M809.2 639.4L426 581c-19.6-3-33.1-21-30.1-40.4l77.9-509.9a35.7 35.7 0 0140.8-29.5l383.3 58.5c19.6 3 33.1 21 30.2 40.4l-78 509.9a35.7 35.7 0 01-40.8 29.5z"/>
        <path id="Vector_310" fill="url(#paint1_linear)" d="M775.6 125l-76 497.7 109.6 16.7a35.7 35.7 0 0040.9-29.6l48.8-319.5L775.6 125z"/>
      </g>
      <g id="Group_31">
        <path id="Vector_410" fill="url(#paint2_linear)" d="M768.2 664l-386-36.7a35.6 35.6 0 01-32.5-38.7l49-513.4a35.7 35.7 0 0139-31.8l386 36.7a35.6 35.6 0 0132.5 38.6l-49 513.5a35.7 35.7 0 01-39 31.8z"/>
        <path id="Vector_51" fill="url(#paint3_linear)" d="M807.2 632.2l13.6-142.3-457.5-43.5-13.6 142.2a35.7 35.7 0 0032.4 38.7l386 36.7a35.6 35.6 0 0039.1-31.8z"/>
        <path id="Vector_61" fill="url(#paint4_linear)" d="M705.5 152.3l-47.8 501.2L768.1 664a35.7 35.7 0 0039.1-31.8L838 310.4 705.5 152.3z"/>
      </g>
      <g id="Group_41">
        <g id="Group_51">
          <path id="Vector_71" fill="url(#paint5_linear)" d="M707.2 686l-387-25.8a35.7 35.7 0 01-33.4-37.8l34.4-514.6a35.7 35.7 0 0138.2-33l387 26a35.6 35.6 0 0133.4 37.7l-34.5 514.6a35.6 35.6 0 01-38.1 33z"/>
          <path id="Vector_81" fill="url(#paint6_linear)" d="M745.3 653.1l9.6-142.6-458.6-30.7-9.5 142.6a35.7 35.7 0 0033.4 37.8l387 25.9a35.7 35.7 0 0038.1-33z"/>
        </g>
        <g id="Group_61">
          <path id="Vector_91" fill="url(#paint7_linear)" d="M687.8 483.2l-321.3-21.5c-5.1-.3-9-4.6-8.6-9.6l.8-12.4c.3-5 4.7-8.8 9.8-8.4l321.3 21.5c5.1.3 9 4.6 8.6 9.6l-.8 12.4c-.3 5-4.7 8.8-9.8 8.4z"/>
          <path id="Vector_101" fill="url(#paint8_linear)" d="M696.5 352.6l-321.3-21.5c-5-.3-8.9-4.7-8.6-9.7l.9-12.3c.3-5 4.7-8.8 9.8-8.5l321.3 21.5c5 .4 8.9 4.7 8.6 9.7l-.9 12.4c-.3 5-4.7 8.8-9.8 8.4z"/>
          <path id="Vector_111" fill="url(#paint9_linear)" d="M683.4 548.6L362.1 527c-5-.4-9-4.7-8.6-9.7l.8-12.4c.4-5 4.8-8.8 9.8-8.4L685.5 518c5 .3 8.9 4.6 8.5 9.6l-.8 12.4c-.3 5-4.7 8.8-9.8 8.5z"/>
          <path id="Vector_121" fill="url(#paint10_linear)" d="M701 287.3l-321.4-21.5c-5-.3-9-4.7-8.6-9.7l.8-12.4c.4-5 4.8-8.7 9.8-8.4L703 256.8c5 .3 8.9 4.7 8.5 9.7l-.8 12.3c-.3 5-4.7 8.8-9.8 8.5z"/>
          <path id="Vector_131" fill="#FF196B" d="M497.2 205.2c0 .5-.5.9-1 .8l-120.4-8a.9.9 0 01-.8-1l1.9-28.7c0-.5.5-.9 1-.8l120.4 8c.5 0 .9.5.8 1l-1.9 28.7z"/>
          <path id="Vector_141" fill="#00A5BB" d="M484 403.1c0 .5-.5.9-1 .8l-120.5-8a.9.9 0 01-.8-1l2-28.7c0-.5.4-.8.9-.8l120.4 8c.5 0 1 .5.9 1l-2 28.7z"/>
        </g>
      </g>
      <g id="Group_71">
        <path id="Vector_151" fill="url(#paint11_linear)" d="M517.3 414l.7 10.2c.2 4.7 88.2 116.4 98.1 114.6L761.7 407l9.8-145-53.4-55.4c-124 96.8-105.6 90.3-2.5-2.4L556.3 351c-26.3 23.6-40 45.7-39 62.9z"/>
        <path id="Vector_161" fill="url(#paint12_linear)" d="M927.2 74l-4.7-5.4a25 25 0 00-35.3-2.4l-80.1 70 37.6 43.1 80.2-70a25 25 0 002.3-35.3z"/>
        <path id="Vector_171" fill="url(#paint13_linear)" d="M825.9 157.8l18.8 21.5 64.6-56.4-18.8-21.5-64.6 56.4z"/>
        <g id="Group_81">
          <path id="Vector_181" fill="url(#paint14_linear)" d="M551.3 427l-17.9 3.7c-13.1 2.7-21.5-6.9-17-19.5l6-17.2a191.3 191.3 0 0154.8-78.8l9.6-8.3 240-199.1c8-7 18.7-8 23.8-2.2l29 34.6c5 5.8 2.6 16.2-5.4 23.2l-228 211.4-9.5 8.3a191.4 191.4 0 01-85.4 44z"/>
          <path id="Vector_191" fill="url(#paint15_linear)" d="M551.3 427l-17.9 3.7c-13.1 2.8-21.5-6.9-17-19.5l6-17.2a191.3 191.3 0 0154.8-78.7l9.6-8.4 34.5 24.2 24.9 43.7-9.5 8.4a191.4 191.4 0 01-85.4 43.8z"/>
          <path id="Vector_201" fill="url(#paint16_linear)" d="M890.8 139.2L853 96c-6-6.8-16.4-7.5-23.2-1.5l-243 212.4 59.4 68 243-212.5c6.9-6 7.5-16.4 1.6-23.2z"/>
          <path id="Vector_211" fill="url(#paint17_linear)" d="M892.4 141l-20.5-23.4-155.2 135.7 29.7 34 140.6-123c8-7 10.5-17.4 5.4-23.2z"/>
        </g>
        <path id="Vector_221" fill="url(#paint18_linear)" d="M865.3 99.7L718.4 228a17.9 17.9 0 1023.5 27l146.9-128.4a17.9 17.9 0 10-23.5-27z"/>
      </g>
    </g>
    <g id="dictation">
      <g id="Group_91">
        <path id="Vector_231" fill="url(#paint19_linear)" d="M259 278.9L160 297.5A196 196 0 00233 682.7l98.8-18.7c11.2-2.1 22-5.2 32.3-9l63.7 17.8a20.6 20.6 0 0025.2-26l-13.5-42.4A196 196 0 00259 278.9z"/>
        <path id="Vector_241" fill="url(#paint20_linear)" d="M488.1 507.5L30.3 594.1c41.6 66.4 121 104 202.7 88.6l98.8-18.7c11.2-2.1 22-5.2 32.3-9l63.7 17.8a20.6 20.6 0 0025.2-26l-13.5-42.4a196.5 196.5 0 0048.6-96.9z"/>
        <path id="Vector_251" fill="url(#paint21_linear)" d="M491.4 477l-257 48.7 19.5 103 57.4 39.2 20.5-3.9c11.2-2.1 22-5.2 32.3-9l63.7 17.8a20.6 20.6 0 0025.2-26l-13.5-42.4A196 196 0 00491.4 477z"/>
      </g>
      <path id="Vector_261" fill="url(#paint22_linear)" d="M439.5 604.3l13.5 42.4c2.4 7.6.3 15.1-4.5 20.2-3.2 3.6-7.7 6-12.6 6.6L168.2 491l-35.3-186.3a197.8 197.8 0 0127.2-7.2L259 279c53.2-10.1 105.5 2.4 147 30.6a195.6 195.6 0 0133.6 294.8z"/>
      <path id="Vector_271" fill="url(#paint23_linear)" d="M357.5 331.2a8 8 0 00-12.2 8.1l11.4 60.4a98 98 0 01-64.6 110.8s-189.7-129-190.7-130a8 8 0 00-13.2 7.4l11.4 60.4a113.6 113.6 0 0052 75.6l199 135.6A207 207 0 00364 655l63.7 17.8a20.6 20.6 0 0025.2-26l-13.5-42.4a195.6 195.6 0 0044.9-185.2 133320 133320 0 00-126.9-88z"/>
      <g id="Group_101">
        <g id="Group_111">
          <path id="Vector_281" fill="url(#paint24_linear)" d="M105.4 253.8L294 218.2l36.7 194L142.1 448l-36.7-194.1z"/>
          <path id="Vector_291" fill="url(#paint25_linear)" d="M105.4 253.8L294 218.2l36.7 194L142.1 448l-36.7-194.1z"/>
          <path id="Vector_301" fill="url(#paint26_linear)" d="M108.6 270.7L297.1 235l5.5 29L114 299.5l-5.5-29z"/>
          <path id="Vector_311" fill="url(#paint27_linear)" d="M119.4 327.7l188.5-35.6 5.4 28.9L125 356.6l-5.5-28.9z"/>
          <path id="Vector_321" fill="url(#paint28_linear)" d="M130.8 387.9l188.5-35.6 5.4 28.9-188.4 35.6-5.5-28.9z"/>
          <path id="Vector_331" fill="url(#paint29_linear)" d="M289 397c-9 1.8-17.8-4.3-19.2-13.5-1.3-8.8 4.8-17 13.5-18.6l35.5-6.7c5.3-1 8.8-6.2 7.8-11.5l-1.4-7.3a9.8 9.8 0 00-11.4-7.8l-35.9 6.8a16.4 16.4 0 01-6-32.2l35.8-6.8c5.3-1 8.8-6.1 7.8-11.4l-1.4-7.4a9.8 9.8 0 00-11.4-7.8l-35.9 6.8a16.4 16.4 0 11-6-32.1l35.8-6.8c5.3-1 8.8-6.1 7.8-11.5a82.4 82.4 0 00-96.3-65.6l-42.7 8A82.4 82.4 0 0099.7 268c1 5.4 6.1 8.8 11.4 7.8l36-6.7a16.4 16.4 0 116 32.1l-35.9 6.8a9.8 9.8 0 00-7.8 11.4l1.4 7.4c1 5.3 6.1 8.8 11.5 7.8l35.8-6.8a16.4 16.4 0 116.1 32.1l-35.9 6.8a9.8 9.8 0 00-7.8 11.5l1.4 7.3c1 5.3 6.1 8.8 11.5 7.8l35.4-6.7a16.6 16.6 0 0119.4 12.4c2 9-3.8 18-12.9 19.7l-35.8 6.8a9.8 9.8 0 00-7.9 11.4 82.4 82.4 0 0096.3 65.7l42.8-8.1a82.4 82.4 0 0065.6-96.3 9.8 9.8 0 00-11.4-7.8l-35.9 6.8z"/>
          <path id="Vector_461" fill="url(#paint30_linear)" d="M165.4 171.7c-9 1.7-17.4 4.8-25 9l5.3 28a19.8 19.8 0 0023.2 15.8 19.9 19.9 0 0015.9-23.2l-6.1-32.1-13.3 2.5z"/>
          <path id="Vector_471" fill="url(#paint31_linear)" d="M208 163.6l-13.2 2.5 6 32.1a19.8 19.8 0 0023.3 15.9 19.9 19.9 0 0015.8-23.2l-5.3-28c-8.6-1.2-17.5-1-26.5.7z"/>
          <path id="Vector_341" fill="url(#paint32_linear)" d="M228 502.5c-9 1.7-18 1.8-26.6.6l-5.3-27.9a19.9 19.9 0 1139.1-7.4l6 32.1-13.3 2.6z"/>
          <path id="Vector_351" fill="url(#paint33_linear)" d="M270.7 494.4l-13.4 2.5-6-32.1a19.8 19.8 0 0115.8-23.2c10.8-2 21.2 5 23.2 15.8l5.3 28c-7.5 4.2-16 7.3-25 9z"/>
        </g>
        <path id="Vector_361" fill="url(#paint34_linear)" d="M175.3 418.6l-35.8 6.8a9.8 9.8 0 00-7.9 11.4 82.4 82.4 0 0096.3 65.7l42.8-8.1a82.4 82.4 0 0065.6-96.3 9.8 9.8 0 00-11.4-7.8l-35.9 6.8c-4.4.8-8.7-.2-12.2-2.5l-91 17.2c-2.4 3.4-6 6-10.5 6.8z"/>
      </g>
      <path id="Vector_371" fill="url(#paint35_linear)" d="M214.7 415.8l-30-158.6a18.6 18.6 0 0136.6-7l30 158.7a18.6 18.6 0 01-36.6 7z"/>
      <path id="Vector_381" fill="url(#paint36_linear)" d="M298.6 597.4l-7.7-40.7-59 11.2 7.7 40.6a30 30 0 0059-11z"/>
      <path id="Vector_391" fill="url(#paint37_linear)" d="M298.6 597.4l-7.7-40.7-59 11.2 7.7 40.6a30 30 0 0059-11z"/>
      <path id="Vector_401" fill="url(#paint38_linear)" d="M298.6 597.4l-7.7-40.7-59 11.2 7.7 40.6a30 30 0 0059-11z"/>
      <path id="Vector_411" fill="url(#paint39_linear)" d="M292.5 560.7l-60.7 11.5a25.6 25.6 0 01-29.9-20.4l-3.6-19.3 111-21 3.6 19.3a25.6 25.6 0 01-20.4 30z"/>
      <path id="Vector_421" fill="url(#paint40_linear)" d="M292.5 560.7l-60.7 11.5a25.6 25.6 0 01-29.9-20.4l-3.6-19.3 111-21 3.6 19.3a25.6 25.6 0 01-20.4 30z"/>
      <path id="Vector_431" fill="url(#paint41_linear)" d="M112 450.6l-21.8 4.1a22.2 22.2 0 01-25.9-17.6l-1.3-7.2A22.2 22.2 0 0180.6 404l21.9-4.1 9.6 50.7z"/>
      <path id="Vector_441" fill="url(#paint42_linear)" d="M359.6 403.8l21.8-4c12-2.4 20-14 17.7-26l-1.4-7.2c-2.2-12-13.8-20-25.9-17.6l-21.8 4 9.6 50.8z"/>
      <path id="Vector_451" fill="url(#paint43_linear)" d="M280.4 529l-49 9.2a114 114 0 01-133-90.7L87 387a8 8 0 1115.7-3l11.4 60.4a98 98 0 00114.4 78l49-9.3a98 98 0 0078-114.3L344 338.5a8 8 0 1115.7-3l11.4 60.4a114 114 0 01-90.8 133z"/>
    </g>
  </g>
  <defs>
    <linearGradient id="paint0_linear" x1="491.3" x2="823.4" y1="91.5" y2="550.2" gradientUnits="userSpaceOnUse">
      <stop stop-color="#CB4DA2"/>
      <stop offset="1" stop-color="#8C296C"/>
    </linearGradient>
    <linearGradient id="paint1_linear" x1="879.8" x2="712.7" y1="395.5" y2="370" gradientUnits="userSpaceOnUse">
      <stop stop-color="#360226" stop-opacity="0"/>
      <stop offset="1" stop-color="#4F173D"/>
    </linearGradient>
    <linearGradient id="paint2_linear" x1="381.7" x2="769.4" y1="89.5" y2="565.9" gradientUnits="userSpaceOnUse">
      <stop stop-color="#F7E07D"/>
      <stop offset="1" stop-color="#E69642"/>
    </linearGradient>
    <linearGradient id="paint3_linear" x1="588.4" x2="575.1" y1="506.6" y2="645.8" gradientUnits="userSpaceOnUse">
      <stop stop-color="#D52C1C" stop-opacity="0"/>
      <stop offset=".3" stop-color="#D12C1E" stop-opacity=".3"/>
      <stop offset=".6" stop-color="#C42C23" stop-opacity=".6"/>
      <stop offset=".9" stop-color="#AF2B2C" stop-opacity=".9"/>
      <stop offset="1" stop-color="#A42B31"/>
    </linearGradient>
    <linearGradient id="paint4_linear" x1="824.8" x2="656.5" y1="416.5" y2="400.5" gradientUnits="userSpaceOnUse">
      <stop stop-color="#D52C1C" stop-opacity="0"/>
      <stop offset=".3" stop-color="#D12C1E" stop-opacity=".3"/>
      <stop offset=".6" stop-color="#C42C23" stop-opacity=".6"/>
      <stop offset=".9" stop-color="#AF2B2C" stop-opacity=".9"/>
      <stop offset="1" stop-color="#A42B31"/>
    </linearGradient>
    <linearGradient id="paint5_linear" x1="344" x2="713.7" y1="167" y2="596" gradientUnits="userSpaceOnUse">
      <stop stop-color="#EEF4FF"/>
      <stop offset="1" stop-color="#CFE7FD"/>
    </linearGradient>
    <linearGradient id="paint6_linear" x1="523" x2="513.7" y1="533.8" y2="673.3" gradientUnits="userSpaceOnUse">
      <stop stop-color="#8AAADC" stop-opacity="0"/>
      <stop offset="1" stop-color="#8AAADC"/>
    </linearGradient>
    <linearGradient id="paint7_linear" x1="358.3" x2="698" y1="445.9" y2="468.7" gradientUnits="userSpaceOnUse">
      <stop stop-color="#5A5A5A"/>
      <stop offset="1" stop-color="#464646"/>
    </linearGradient>
    <linearGradient id="paint8_linear" x1="367" x2="706.7" y1="315.3" y2="338" gradientUnits="userSpaceOnUse">
      <stop stop-color="#5A5A5A"/>
      <stop offset="1" stop-color="#464646"/>
    </linearGradient>
    <linearGradient id="paint9_linear" x1="353.9" x2="693.6" y1="511.2" y2="534" gradientUnits="userSpaceOnUse">
      <stop stop-color="#5A5A5A"/>
      <stop offset="1" stop-color="#464646"/>
    </linearGradient>
    <linearGradient id="paint10_linear" x1="371.4" x2="711.1" y1="249.9" y2="272.7" gradientUnits="userSpaceOnUse">
      <stop stop-color="#5A5A5A"/>
      <stop offset="1" stop-color="#464646"/>
    </linearGradient>
    <linearGradient id="paint11_linear" x1="739.7" x2="672.2" y1="444.4" y2="346.8" gradientUnits="userSpaceOnUse">
      <stop stop-color="#8AAADC" stop-opacity="0"/>
      <stop offset=".2" stop-color="#8AAADC" stop-opacity="0"/>
      <stop offset="1" stop-color="#3A414C" stop-opacity=".9"/>
    </linearGradient>
    <linearGradient id="paint12_linear" x1="871.2" x2="890.8" y1="110.4" y2="132.9" gradientUnits="userSpaceOnUse">
      <stop stop-color="#F7E07D"/>
      <stop offset="1" stop-color="#E69642"/>
    </linearGradient>
    <linearGradient id="paint13_linear" x1="889" x2="855.1" y1="164.8" y2="126" gradientUnits="userSpaceOnUse">
      <stop stop-color="#D52C1C" stop-opacity="0"/>
      <stop offset=".3" stop-color="#D12C1E" stop-opacity=".3"/>
      <stop offset=".6" stop-color="#C42C23" stop-opacity=".6"/>
      <stop offset=".9" stop-color="#AF2B2C" stop-opacity=".9"/>
      <stop offset="1" stop-color="#A42B31"/>
    </linearGradient>
    <linearGradient id="paint14_linear" x1="661.3" x2="720.6" y1="240.3" y2="308.2" gradientUnits="userSpaceOnUse">
      <stop stop-color="#EEF4FF"/>
      <stop offset="1" stop-color="#CFE7FD"/>
    </linearGradient>
    <linearGradient id="paint15_linear" x1="540.4" x2="599.8" y1="345.9" y2="413.9" gradientUnits="userSpaceOnUse">
      <stop stop-color="#8AAADC" stop-opacity="0"/>
      <stop offset="1" stop-color="#8AAADC"/>
    </linearGradient>
    <linearGradient id="paint16_linear" x1="714.7" x2="774.1" y1="193.5" y2="261.5" gradientUnits="userSpaceOnUse">
      <stop stop-color="#DC4955"/>
      <stop offset="1" stop-color="#C4237C"/>
    </linearGradient>
    <linearGradient id="paint17_linear" x1="837.9" x2="808.4" y1="235.3" y2="201.4" gradientUnits="userSpaceOnUse">
      <stop stop-color="#8A1958" stop-opacity="0"/>
      <stop offset="1" stop-color="#8A1958"/>
    </linearGradient>
    <linearGradient id="paint18_linear" x1="792.1" x2="809.4" y1="164.1" y2="184" gradientUnits="userSpaceOnUse">
      <stop stop-color="#EEF4FF"/>
      <stop offset="1" stop-color="#CFE7FD"/>
    </linearGradient>
    <linearGradient id="paint19_linear" x1="157" x2="349.5" y1="343.7" y2="640.9" gradientUnits="userSpaceOnUse">
      <stop stop-color="#DC4955"/>
      <stop offset="1" stop-color="#C4237C"/>
    </linearGradient>
    <linearGradient id="paint20_linear" x1="264" x2="282.9" y1="575.9" y2="676.4" gradientUnits="userSpaceOnUse">
      <stop stop-color="#8A1958" stop-opacity="0"/>
      <stop offset="1" stop-color="#8A1958"/>
    </linearGradient>
    <linearGradient id="paint21_linear" x1="383.3" x2="248.4" y1="590.5" y2="616" gradientUnits="userSpaceOnUse">
      <stop stop-color="#8A1958" stop-opacity="0"/>
      <stop offset="1" stop-color="#8A1958"/>
    </linearGradient>
    <linearGradient id="paint22_linear" x1="429.4" x2="207.2" y1="496.8" y2="357.2" gradientUnits="userSpaceOnUse">
      <stop stop-color="#8A1958" stop-opacity="0"/>
      <stop offset="1" stop-color="#8A1958"/>
    </linearGradient>
    <linearGradient id="paint23_linear" x1="512.5" x2="95.9" y1="603.4" y2="318.9" gradientUnits="userSpaceOnUse">
      <stop stop-color="#8A1958" stop-opacity="0"/>
      <stop offset="1" stop-color="#8A1958"/>
    </linearGradient>
    <linearGradient id="paint24_linear" x1="58.3" x2="348.4" y1="363.2" y2="308.3" gradientUnits="userSpaceOnUse">
      <stop stop-color="#EEF4FF"/>
      <stop offset="1" stop-color="#CFE7FD"/>
    </linearGradient>
    <linearGradient id="paint25_linear" x1="127.7" x2="312.3" y1="271.5" y2="397.5" gradientUnits="userSpaceOnUse">
      <stop stop-color="#8AAADC" stop-opacity="0"/>
      <stop offset="1" stop-color="#8AAADC"/>
    </linearGradient>
    <linearGradient id="paint26_linear" x1="208.4" x2="203.5" y1="282.1" y2="256.2" gradientUnits="userSpaceOnUse">
      <stop stop-color="#8AAADC" stop-opacity="0"/>
      <stop offset="1" stop-color="#8AAADC"/>
    </linearGradient>
    <linearGradient id="paint27_linear" x1="219" x2="213.8" y1="338.3" y2="310.4" gradientUnits="userSpaceOnUse">
      <stop stop-color="#8AAADC" stop-opacity="0"/>
      <stop offset="1" stop-color="#8AAADC"/>
    </linearGradient>
    <linearGradient id="paint28_linear" x1="230.2" x2="226.6" y1="397.6" y2="378.4" gradientUnits="userSpaceOnUse">
      <stop stop-color="#8AAADC" stop-opacity="0"/>
      <stop offset="1" stop-color="#8AAADC"/>
    </linearGradient>
    <linearGradient id="paint29_linear" x1="104.7" x2="302" y1="255.8" y2="390.5" gradientUnits="userSpaceOnUse">
      <stop stop-color="#EEF4FF"/>
      <stop offset="1" stop-color="#CFE7FD"/>
    </linearGradient>
    <linearGradient id="paint30_linear" x1="182.9" x2="141.3" y1="195.1" y2="203" gradientUnits="userSpaceOnUse">
      <stop stop-color="#EEF4FF"/>
      <stop offset="1" stop-color="#CFE7FD"/>
    </linearGradient>
    <linearGradient id="paint31_linear" x1="243.6" x2="196.5" y1="183.6" y2="192.6" gradientUnits="userSpaceOnUse">
      <stop stop-color="#EEF4FF"/>
      <stop offset="1" stop-color="#CFE7FD"/>
    </linearGradient>
    <linearGradient id="paint32_linear" x1="235.7" x2="194.1" y1="474.2" y2="482.1" gradientUnits="userSpaceOnUse">
      <stop stop-color="#8AAADC" stop-opacity="0"/>
      <stop offset="1" stop-color="#8AAADC"/>
    </linearGradient>
    <linearGradient id="paint33_linear" x1="296.4" x2="249.3" y1="462.8" y2="471.7" gradientUnits="userSpaceOnUse">
      <stop stop-color="#8AAADC" stop-opacity="0"/>
      <stop offset="1" stop-color="#8AAADC"/>
    </linearGradient>
    <linearGradient id="paint34_linear" x1="235.3" x2="245.7" y1="424.1" y2="479.6" gradientUnits="userSpaceOnUse">
      <stop stop-color="#8AAADC" stop-opacity="0"/>
      <stop offset="1" stop-color="#8AAADC"/>
    </linearGradient>
    <linearGradient id="paint35_linear" x1="241.6" x2="201.2" y1="328.6" y2="336.2" gradientUnits="userSpaceOnUse">
      <stop stop-color="#EEF4FF"/>
      <stop offset="1" stop-color="#CFE7FD"/>
    </linearGradient>
    <linearGradient id="paint36_linear" x1="209.9" x2="350.3" y1="608.4" y2="581.8" gradientUnits="userSpaceOnUse">
      <stop stop-color="#EEF4FF"/>
      <stop offset="1" stop-color="#CFE7FD"/>
    </linearGradient>
    <linearGradient id="paint37_linear" x1="271.3" x2="263.6" y1="614.7" y2="573.6" gradientUnits="userSpaceOnUse">
      <stop stop-color="#8AAADC" stop-opacity="0"/>
      <stop offset="1" stop-color="#8AAADC"/>
    </linearGradient>
    <linearGradient id="paint38_linear" x1="249.7" x2="299.5" y1="600.8" y2="591.4" gradientUnits="userSpaceOnUse">
      <stop stop-color="#8AAADC" stop-opacity="0"/>
      <stop offset="1" stop-color="#8AAADC"/>
    </linearGradient>
    <linearGradient id="paint39_linear" x1="223.5" x2="317.3" y1="550.8" y2="533" gradientUnits="userSpaceOnUse">
      <stop stop-color="#EEF4FF"/>
      <stop offset="1" stop-color="#CFE7FD"/>
    </linearGradient>
    <linearGradient id="paint40_linear" x1="259.9" x2="254.8" y1="554.4" y2="527.2" gradientUnits="userSpaceOnUse">
      <stop stop-color="#8AAADC" stop-opacity="0"/>
      <stop offset="1" stop-color="#8AAADC"/>
    </linearGradient>
    <linearGradient id="paint41_linear" x1="81.8" x2="88.2" y1="410" y2="443.8" gradientUnits="userSpaceOnUse">
      <stop stop-color="#EEF4FF"/>
      <stop offset="1" stop-color="#CFE7FD"/>
    </linearGradient>
    <linearGradient id="paint42_linear" x1="372.9" x2="379.3" y1="354.9" y2="388.8" gradientUnits="userSpaceOnUse">
      <stop stop-color="#EEF4FF"/>
      <stop offset="1" stop-color="#CFE7FD"/>
    </linearGradient>
    <linearGradient id="paint43_linear" x1="221.9" x2="255.9" y1="353.5" y2="533.6" gradientUnits="userSpaceOnUse">
      <stop stop-color="#EEF4FF"/>
      <stop offset="1" stop-color="#CFE7FD"/>
    </linearGradient>
  </defs>
</svg>
