<svg xmlns="http://www.w3.org/2000/svg" fill="none" viewBox="0 0 169 154">
  <defs/>
  <g id="grammar">
    <g id="Group 1326">
      <path id="Vector" fill="url(#paint0_linear)" d="M126.254 44.393c-20.788-4.597-41.506-1.736-60.524 8.4-20.804-5.677-41.658-3.871-60.924 5.233-2.458 1.162-3.898 3.801-3.59 6.543l8.932 79.663c.48 4.281 4.863 6.92 8.774 5.276 14.397-6.052 29.607-8.099 44.966-6.074.27 2.409 2.41 4.145 4.778 3.88l15.134-1.697c2.37-.266 4.07-2.433 3.8-4.842 14.53-5.376 29.815-6.749 45.195-4.036 4.179.738 7.868-2.806 7.388-7.087l-8.932-79.663c-.309-2.76-2.325-5.005-4.997-5.596z"/>
      <path id="Vector_2" fill="url(#paint1_linear)" d="M131.254 49.988l8.932 79.664a6.47 6.47 0 01-.765 3.881 6.36 6.36 0 00-3.391-1.995 91.127 91.127 0 00-8.188-1.426c-3.891-.495-6.945-3.645-7.389-7.604l-8.984-80.13c4.91.25 9.849.923 14.789 2.015 2.672.593 4.687 2.837 4.996 5.595z"/>
      <path id="Vector_3" fill="url(#paint2_linear)" d="M7.148 117.465l3.002 26.767c.48 4.281 4.863 6.921 8.774 5.276 14.397-6.052 29.607-8.099 44.966-6.074v.001c.27 2.408 2.41 4.145 4.779 3.879l15.133-1.696c2.37-.266 4.07-2.434 3.8-4.842 14.531-5.377 29.816-6.75 45.196-4.036 4.178.737 7.867-2.807 7.387-7.088l-3.001-26.768L7.148 117.465z"/>
      <path id="Vector_4" fill="url(#paint3_linear)" d="M132.795 136.74c4.178.737 7.867-2.807 7.387-7.088l-3.001-26.768-53.162 5.961 3.58 31.93c14.53-5.376 29.816-6.749 45.196-4.035z"/>
      <path id="Vector_5" fill="url(#paint4_linear)" d="M18.924 149.508c-3.911 1.644-8.294-.995-8.774-5.276l-3.002-26.767 53.162-5.961 3.58 31.93c-15.36-2.025-30.57.022-44.966 6.074z"/>
      <g id="Group">
        <path id="Vector_6" fill="url(#paint5_linear)" d="M121.001 45.717C102.04 41.52 83.143 44.124 65.8 53.365c-18.977-5.182-37.997-3.54-55.568 4.759-2.241 1.059-3.554 3.465-3.273 5.966l8.165 72.654c.438 3.905 4.437 6.312 8.004 4.814 13.13-5.517 25.983-7.266 39.992-5.416v.001c.247 2.196 2.198 3.781 4.359 3.539l15.843-1.772c2.16-.242 3.712-2.219 3.465-4.415 13.251-4.901 26.173-6.035 40.201-3.557 3.811.673 7.176-2.558 6.737-6.462l-8.165-72.655c-.283-2.517-2.122-4.564-4.559-5.104z"/>
        <path id="Vector_7" fill="url(#paint6_linear)" d="M121.001 45.717C102.04 41.52 83.143 44.124 65.8 53.365c-18.977-5.182-37.997-3.54-55.568 4.759-2.241 1.059-3.554 3.465-3.273 5.966l8.165 72.654c.438 3.905 4.437 6.312 8.004 4.814 13.13-5.517 25.983-7.266 39.992-5.416v.001c.247 2.196 2.198 3.781 4.359 3.539l15.843-1.772c2.16-.242 3.712-2.219 3.465-4.415 13.251-4.901 26.173-6.035 40.201-3.557 3.811.673 7.176-2.558 6.737-6.462l-8.165-72.655c-.283-2.517-2.122-4.564-4.559-5.104z"/>
        <path id="Vector_8" fill="url(#paint7_linear)" d="M71.586 104.991l3.789 33.793 7.921-.888c2.16-.243 3.713-2.22 3.466-4.416 13.252-4.904 26.173-6.042 40.2-3.567 3.811.672 7.176-2.56 6.738-6.464l-2.815-25.107-59.299 6.649z"/>
      </g>
      <g id="Group_2">
        <path id="Vector_9" fill="url(#paint8_linear)" d="M9.424 50.563c-2.257 1.065-3.596 3.468-3.313 5.985l8.165 72.654c.437 3.889 4.419 6.322 7.972 4.827 16.634-6.997 34.46-8.136 52.248-3.277l-9.544-84.93C45.99 40.645 26.983 42.28 9.424 50.564z"/>
        <g id="Group_3">
          <path id="Vector_10" fill="url(#paint9_linear)" d="M62.901 123.147c-12.95-.903-25.373.489-37.803 4.239-2.045.656-3.876-.473-4.116-2.616l-.69-6.158c-.24-2.143 1.2-4.488 3.245-5.144 12.43-3.749 24.854-5.142 37.804-4.239 2.14.187 4.064 2.155 4.305 4.298l.69 6.158c.24 2.143-1.295 3.649-3.434 3.462z"/>
          <path id="Vector_11" fill="url(#paint10_linear)" d="M60.45 101.267c-12.95-.903-25.374.49-37.804 4.239-2.044.656-3.876-.473-4.116-2.616l-4.98-44.423c-.241-2.142 1.2-4.487 3.245-5.144 12.43-3.75 24.854-5.142 37.804-4.239 2.139.188 4.064 2.155 4.305 4.298l4.98 44.423c.24 2.142-1.295 3.649-3.434 3.462z"/>
        </g>
        <path id="Vector_12" fill="url(#paint11_linear)" d="M120.147 38.147c-18.959-4.193-37.856-1.584-55.2 7.662l9.523 84.931c16.27-8.673 33.905-11.507 51.677-8.363 3.796.671 7.14-2.581 6.704-6.471l-8.146-72.656c-.283-2.517-2.121-4.564-4.558-5.103z"/>
      </g>
      <path id="Vector_13" fill="url(#paint12_linear)" d="M120.147 38.148c-15.763-3.486-31.482-2.269-46.302 3.554a3.57 3.57 0 00-2.229 3.727L75 75.603l55.917 45.404a5.928 5.928 0 001.934-5.1l-8.147-72.656c-.282-2.517-2.121-4.565-4.557-5.103z"/>
      <path id="Vector_14" fill="url(#paint13_linear)" d="M70.851 45.531l3.203 28.567c.198 1.769 2.4 2.418 3.49 1.03l5.618-7.157a4.684 4.684 0 016.66-.746l7.063 5.734c1.37 1.113 3.374-.008 3.176-1.777l-3.56-31.743c-.209-1.868-1.884-3.19-3.718-2.958-6.667.846-13.233 2.56-19.629 5.136-1.55.624-2.492 2.229-2.303 3.914z"/>
      <path id="Vector_15" fill="url(#paint14_linear)" d="M71.98 55.6l2.075 18.498c.198 1.769 2.4 2.418 3.49 1.03l5.618-7.157a4.684 4.684 0 016.66-.747l7.063 5.735c1.37 1.113 3.374-.009 3.176-1.777l-2.075-18.499-26.006 2.916z"/>
    </g>
    <g id="Group 1325">
      <path id="Vector_16" fill="url(#paint15_linear)" d="M163.776 20.07L148.93 8.29l4.074-5.199a2.046 2.046 0 012.513-.577 36.846 36.846 0 0112.306 9.763c.614.751.626 1.83.028 2.593l-4.075 5.199z"/>
      <path id="Vector_17" fill="url(#paint16_linear)" d="M163.775 20.07l4.075-5.2c.097-.123.176-.255.241-.393a2.086 2.086 0 00-.317-.538 36.846 36.846 0 00-12.306-9.763 2.046 2.046 0 00-2.513.577l-3.253 4.151 14.073 11.166z"/>
      <path id="Vector_18" fill="url(#paint17_linear)" d="M167.819 12.278a37.242 37.242 0 00-1.779-2.016 2.523 2.523 0 01-.459.934l-4.982 6.356 3.173 2.518 4.075-5.199a2.077 2.077 0 00-.028-2.593z"/>
      <path id="Vector_19" fill="url(#paint18_linear)" d="M158.021 29.011l6.882-8.78a.791.791 0 00-.131-1.108L149.611 7.094a.78.78 0 00-1.101.13l-6.882 8.781 16.393 13.006z"/>
      <path id="Vector_20" fill="url(#paint19_linear)" d="M145.091 11.573l3.486 29.486 12.93-16.485-16.405-13.015-.011.014z"/>
      <path id="Vector_21" fill="url(#paint20_linear)" d="M161 24.297l-15.509-12.305a1.808 1.808 0 01-.299-2.529 1.783 1.783 0 012.514-.297l15.509 12.304c.777.617.911 1.749.299 2.53a1.783 1.783 0 01-2.514.297z"/>
      <path id="Vector_22" fill="url(#paint21_linear)" d="M98.594 70.91L93.74 92.23c-.235 1.032.829 1.876 1.771 1.405l19.475-9.718c3.575-4.562-12.818-17.568-16.393-13.006z"/>
      <path id="Vector_23" fill="url(#paint22_linear)" d="M102.539 73.88l-8.575 19.252c-.013.031-.023.061-.034.092.331.476.98.71 1.58.411l19.475-9.718c.027-.035.05-.073.076-.11.643-4.912-8.935-13.584-12.522-9.926z"/>
      <path id="Vector_24" fill="url(#paint23_linear)" d="M159.111 27.619l-44.125 56.297a4.601 4.601 0 00-.836-.86 4.603 4.603 0 00-6.492.767c-.071.09.202-.28.202-.28a4.668 4.668 0 00-.976-6.252 4.601 4.601 0 00-6.27.504s-.294.353-.223.262a4.669 4.669 0 00-.772-6.53 4.58 4.58 0 00-1.027-.617l44.125-56.297 16.394 13.006z"/>
      <path id="Vector_25" fill="url(#paint24_linear)" d="M154.538 23.99l-46.677 59.553a4.668 4.668 0 00-.975-6.251 4.602 4.602 0 00-6.27.503l46.677-59.553 7.245 5.748z"/>
      <path id="Vector_26" fill="url(#paint25_linear)" d="M100.392 78.058c-.071.09.224-.263.224-.263a4.601 4.601 0 016.27-.503 4.67 4.67 0 01.975 6.252s-.273.37-.202.28a4.604 4.604 0 016.492-.768c.322.255.602.545.836.86l44.125-56.297-14.444-11.459-44.144 56.322a4.672 4.672 0 01-.132 5.576z"/>
      <path id="Vector_27" fill="url(#paint26_linear)" d="M97.55 89.207a10.277 10.277 0 00-2.761-1.567l-1.045 4.59c-.235 1.031.829 1.875 1.77 1.405l4.194-2.093a10.328 10.328 0 00-2.158-2.335z"/>
      <path id="Vector_28" fill="url(#paint27_linear)" d="M140.677 17.204l3.517 29.457 12.899-16.456-16.405-13.015-.011.014z"/>
      <path id="Vector_29" fill="url(#paint28_linear)" d="M156.582 29.93l-15.509-12.304a1.808 1.808 0 01-.299-2.53 1.782 1.782 0 012.514-.297l15.51 12.305a1.81 1.81 0 01.299 2.529 1.784 1.784 0 01-2.515.297z"/>
    </g>
  </g>
  <defs>
    <linearGradient id="paint0_linear" x1="20.832" x2="120.723" y1="56.628" y2="135.033" gradientUnits="userSpaceOnUse">
      <stop stop-color="#F7E07D"/>
      <stop offset="1" stop-color="#E69642"/>
    </linearGradient>
    <linearGradient id="paint1_linear" x1="136.271" x2="125.679" y1="87.898" y2="87.991" gradientUnits="userSpaceOnUse">
      <stop stop-color="#D52C1C" stop-opacity="0"/>
      <stop offset=".28" stop-color="#D12C1E" stop-opacity=".28"/>
      <stop offset=".574" stop-color="#C42C23" stop-opacity=".574"/>
      <stop offset=".872" stop-color="#AF2B2C" stop-opacity=".872"/>
      <stop offset="1" stop-color="#A42B31"/>
    </linearGradient>
    <linearGradient id="paint2_linear" x1="73.93" x2="76.507" y1="125.901" y2="148.891" gradientUnits="userSpaceOnUse">
      <stop stop-color="#D52C1C" stop-opacity="0"/>
      <stop offset=".28" stop-color="#D12C1E" stop-opacity=".28"/>
      <stop offset=".574" stop-color="#C42C23" stop-opacity=".574"/>
      <stop offset=".872" stop-color="#AF2B2C" stop-opacity=".872"/>
      <stop offset="1" stop-color="#A42B31"/>
    </linearGradient>
    <linearGradient id="paint3_linear" x1="111.912" x2="114.271" y1="117.566" y2="138.603" gradientUnits="userSpaceOnUse">
      <stop stop-color="#D52C1C" stop-opacity="0"/>
      <stop offset=".28" stop-color="#D12C1E" stop-opacity=".28"/>
      <stop offset=".574" stop-color="#C42C23" stop-opacity=".574"/>
      <stop offset=".872" stop-color="#AF2B2C" stop-opacity=".872"/>
      <stop offset="1" stop-color="#A42B31"/>
    </linearGradient>
    <linearGradient id="paint4_linear" x1="35.041" x2="37.4" y1="126.186" y2="147.222" gradientUnits="userSpaceOnUse">
      <stop stop-color="#D52C1C" stop-opacity="0"/>
      <stop offset=".28" stop-color="#D12C1E" stop-opacity=".28"/>
      <stop offset=".574" stop-color="#C42C23" stop-opacity=".574"/>
      <stop offset=".872" stop-color="#AF2B2C" stop-opacity=".872"/>
      <stop offset="1" stop-color="#A42B31"/>
    </linearGradient>
    <linearGradient id="paint5_linear" x1="72.224" x2="74.448" y1="110.533" y2="130.408" gradientUnits="userSpaceOnUse">
      <stop stop-color="#EEF4FF"/>
      <stop offset="1" stop-color="#CFE7FD"/>
    </linearGradient>
    <linearGradient id="paint6_linear" x1="72.826" x2="76.626" y1="115.891" y2="149.851" gradientUnits="userSpaceOnUse">
      <stop stop-color="#8AAADC" stop-opacity="0"/>
      <stop offset="1" stop-color="#8AAADC"/>
    </linearGradient>
    <linearGradient id="paint7_linear" x1="88.906" x2="70.675" y1="120.157" y2="122.202" gradientUnits="userSpaceOnUse">
      <stop stop-color="#8AAADC" stop-opacity="0"/>
      <stop offset="1" stop-color="#8AAADC"/>
    </linearGradient>
    <linearGradient id="paint8_linear" x1="-8.659" x2="78.964" y1="49.423" y2="118.199" gradientUnits="userSpaceOnUse">
      <stop stop-color="#EEF4FF"/>
      <stop offset="1" stop-color="#CFE7FD"/>
    </linearGradient>
    <linearGradient id="paint9_linear" x1="21.39" x2="85.485" y1="101.102" y2="151.411" gradientUnits="userSpaceOnUse">
      <stop stop-color="#EEF4FF"/>
      <stop offset="1" stop-color="#CFE7FD"/>
    </linearGradient>
    <linearGradient id="paint10_linear" x1="39.262" x2="103.357" y1="78.334" y2="128.643" gradientUnits="userSpaceOnUse">
      <stop stop-color="#EEF4FF"/>
      <stop offset="1" stop-color="#CFE7FD"/>
    </linearGradient>
    <linearGradient id="paint11_linear" x1="65.397" x2="129.543" y1="58.136" y2="108.485" gradientUnits="userSpaceOnUse">
      <stop stop-color="#EEF4FF"/>
      <stop offset="1" stop-color="#CFE7FD"/>
    </linearGradient>
    <linearGradient id="paint12_linear" x1="124.813" x2="70.134" y1="79.043" y2="49.88" gradientUnits="userSpaceOnUse">
      <stop stop-color="#8AAADC" stop-opacity="0"/>
      <stop offset="1" stop-color="#8AAADC"/>
    </linearGradient>
    <linearGradient id="paint13_linear" x1="71.508" x2="94.76" y1="45.338" y2="63.589" gradientUnits="userSpaceOnUse">
      <stop stop-color="#DC4955"/>
      <stop offset="1" stop-color="#C4237C"/>
    </linearGradient>
    <linearGradient id="paint14_linear" x1="85.217" x2="87.077" y1="56.215" y2="72.807" gradientUnits="userSpaceOnUse">
      <stop stop-color="#8A1958" stop-opacity="0"/>
      <stop offset="1" stop-color="#8A1958"/>
    </linearGradient>
    <linearGradient id="paint15_linear" x1="154.401" x2="165.412" y1="6.547" y2="15.178" gradientUnits="userSpaceOnUse">
      <stop stop-color="#FF7044"/>
      <stop offset="1" stop-color="#F92814"/>
    </linearGradient>
    <linearGradient id="paint16_linear" x1="158.963" x2="158.545" y1="13.333" y2="-1.194" gradientUnits="userSpaceOnUse">
      <stop stop-color="#FF7044" stop-opacity="0"/>
      <stop offset="1" stop-color="#FFA425"/>
    </linearGradient>
    <linearGradient id="paint17_linear" x1="167.798" x2="163.466" y1="7.677" y2="18.002" gradientUnits="userSpaceOnUse">
      <stop stop-color="#F92814" stop-opacity="0"/>
      <stop offset="1" stop-color="#C1272D"/>
    </linearGradient>
    <linearGradient id="paint18_linear" x1="148.128" x2="160.287" y1="13.495" y2="23.025" gradientUnits="userSpaceOnUse">
      <stop stop-color="#F9F7FC"/>
      <stop offset="1" stop-color="#F0DDFC"/>
    </linearGradient>
    <linearGradient id="paint19_linear" x1="150.822" x2="156.725" y1="23.015" y2="11.408" gradientUnits="userSpaceOnUse">
      <stop stop-color="#F0DDFC" stop-opacity="0"/>
      <stop offset=".289" stop-color="#C8B7E0" stop-opacity=".289"/>
      <stop offset=".592" stop-color="#A595C8" stop-opacity=".592"/>
      <stop offset=".84" stop-color="#8F81B8" stop-opacity=".84"/>
      <stop offset="1" stop-color="#8779B3"/>
    </linearGradient>
    <linearGradient id="paint20_linear" x1="155.115" x2="153.268" y1="15.664" y2="18.207" gradientUnits="userSpaceOnUse">
      <stop stop-color="#F9F7FC"/>
      <stop offset="1" stop-color="#F0DDFC"/>
    </linearGradient>
    <linearGradient id="paint21_linear" x1="93.658" x2="110.126" y1="77.202" y2="90.109" gradientUnits="userSpaceOnUse">
      <stop stop-color="#FFDAAA"/>
      <stop offset=".421" stop-color="#FFD8A8"/>
      <stop offset=".652" stop-color="#FED1A0"/>
      <stop offset=".836" stop-color="#FDC592"/>
      <stop offset=".995" stop-color="#FCB47F"/>
      <stop offset="1" stop-color="#FCB37E"/>
    </linearGradient>
    <linearGradient id="paint22_linear" x1="104.521" x2="93.226" y1="86.833" y2="74.692" gradientUnits="userSpaceOnUse">
      <stop stop-color="#FFDAAA" stop-opacity="0"/>
      <stop offset=".251" stop-color="#FFE7C8" stop-opacity=".251"/>
      <stop offset=".554" stop-color="#FFF4E6" stop-opacity=".554"/>
      <stop offset=".815" stop-color="#FFFCF8" stop-opacity=".815"/>
      <stop offset="1" stop-color="#fff"/>
    </linearGradient>
    <linearGradient id="paint23_linear" x1="119.29" x2="135.757" y1="44.498" y2="57.405" gradientUnits="userSpaceOnUse">
      <stop stop-color="#FFDA45"/>
      <stop offset="1" stop-color="#FFA425"/>
    </linearGradient>
    <linearGradient id="paint24_linear" x1="123.527" x2="136.612" y1="47.627" y2="57.883" gradientUnits="userSpaceOnUse">
      <stop stop-color="#FFDA45"/>
      <stop offset="1" stop-color="#FFA425"/>
    </linearGradient>
    <linearGradient id="paint25_linear" x1="131.453" x2="116.931" y1="55.093" y2="36.179" gradientUnits="userSpaceOnUse">
      <stop stop-color="#FFDA45" stop-opacity="0"/>
      <stop offset="1" stop-color="#FCEE21"/>
    </linearGradient>
    <linearGradient id="paint26_linear" x1="95.4" x2="99.602" y1="90.918" y2="94.211" gradientUnits="userSpaceOnUse">
      <stop stop-color="#7E8595"/>
      <stop offset="1" stop-color="#555A66"/>
    </linearGradient>
    <linearGradient id="paint27_linear" x1="145.281" x2="152.658" y1="39.235" y2="8.081" gradientUnits="userSpaceOnUse">
      <stop stop-color="#FFDA45" stop-opacity="0"/>
      <stop offset="1" stop-color="#B53759"/>
    </linearGradient>
    <linearGradient id="paint28_linear" x1="150.698" x2="148.851" y1="21.296" y2="23.839" gradientUnits="userSpaceOnUse">
      <stop stop-color="#F9F7FC"/>
      <stop offset="1" stop-color="#F0DDFC"/>
    </linearGradient>
  </defs>
</svg>
