<svg xmlns="http://www.w3.org/2000/svg" fill="none" viewBox="0 0 191 204">
  <defs/>
  <path fill="url(#paint0_linear)" d="M103.2 50.7l-32.5 5.8A64.2 64.2 0 1093 183l32.5-5.8c3.6-.7 7.2-1.6 10.6-2.8l20.7 6a6.8 6.8 0 008.4-8.4l-4.2-14a64.1 64.1 0 00-57.8-107.3z"/>
  <path fill="url(#paint1_linear)" d="M177.3 126.6L27 153a64.2 64.2 0 0066 29.8l32.5-5.7c3.6-.7 7.2-1.6 10.6-2.8l20.7 6a6.8 6.8 0 008.4-8.4l-4.2-14c8.2-8.6 13.9-19.5 16.3-31.4z"/>
  <path fill="url(#paint2_linear)" d="M178.5 116.6L94 131.5l6 33.8 18.6 13 6.8-1.1c3.6-.7 7.2-1.6 10.6-2.8l20.7 6a6.8 6.8 0 008.4-8.4l-4.2-14a64.2 64.2 0 0017.5-41.4z"/>
  <path fill="url(#paint3_linear)" d="M161 158l4.2 14a6.8 6.8 0 01-5.7 8.7l-87-60.8-10.7-61.2a64.7 64.7 0 019-2.2l32.4-5.8a64 64 0 0174.3 52.1c3.7 20.8-3 41-16.5 55.3z"/>
  <path fill="url(#paint4_linear)" d="M135.2 68.3a2.6 2.6 0 00-4 2.6l3.5 19.8a32.1 32.1 0 01-21.6 36L51 83.5a2.6 2.6 0 00-4.3 2.4l3.5 19.8a37.2 37.2 0 0016.7 25l64.6 45.2 4.5-1.4 20.7 6a6.8 6.8 0 008.4-8.4l-4.2-14a64.1 64.1 0 0015.4-60.4 43507 43507 0 00-41.2-29.3z"/>
  <path fill="url(#paint5_linear)" d="M53 42l61.9-11L126 94.7l-61.9 11L53 41.8z"/>
  <path fill="url(#paint6_linear)" d="M53 42l61.9-11L126 94.7l-61.9 11L53 41.8z"/>
  <path fill="url(#paint7_linear)" d="M54 47.4l61.8-10.9 1.7 9.5-61.8 11-1.7-9.6z"/>
  <path fill="url(#paint8_linear)" d="M57.3 66.2l61.8-11 1.7 9.6L59 75.7l-1.7-9.5z"/>
  <path fill="url(#paint9_linear)" d="M60.8 86l61.8-11 1.7 9.5-61.9 11-1.6-9.6z"/>
  <path fill="url(#paint10_linear)" d="M112.5 89.6c-3 .5-5.8-1.5-6.2-4.5a5.4 5.4 0 014.5-6l11.7-2.1c1.7-.3 2.9-2 2.6-3.8l-.5-2.4c-.3-1.7-2-2.9-3.7-2.6l-11.8 2.1a5.4 5.4 0 11-1.8-10.5l11.7-2.1c1.8-.3 3-2 2.7-3.7l-.5-2.5c-.3-1.7-2-2.9-3.7-2.6L105.7 51a5.4 5.4 0 11-1.8-10.5l11.7-2.1c1.8-.3 3-2 2.7-3.7a27 27 0 00-31.3-22l-14 2.6a27 27 0 00-22 31.2c.4 1.8 2 3 3.8 2.6l11.8-2a5.4 5.4 0 011.8 10.5l-11.7 2c-1.8.4-3 2-2.7 3.8l.5 2.4c.3 1.7 2 3 3.7 2.6l11.8-2a5.4 5.4 0 011.8 10.5l-11.7 2c-1.8.4-3 2-2.7 3.8L58 85c.3 1.7 2 2.9 3.7 2.6l11.6-2a5.4 5.4 0 016.3 4c.7 3-1.3 6-4.3 6.5l-11.7 2c-1.8.4-3 2-2.7 3.8a27 27 0 0031.3 21.9l14-2.5a27 27 0 0022-31.3c-.4-1.7-2-2.9-3.8-2.6l-11.8 2z"/>
  <path fill="url(#paint11_linear)" d="M92.1 123.9c-3 .5-5.9.5-8.7 0l-1.6-9.1a6.5 6.5 0 1112.8-2.3l1.9 10.6-4.4.8z"/>
  <path fill="url(#paint12_linear)" d="M106.1 121.4l-4.3.8-1.9-10.6a6.5 6.5 0 015.3-7.5c3.5-.7 6.9 1.7 7.5 5.2l1.6 9.2a27 27 0 01-8.2 2.9z"/>
  <path fill="url(#paint13_linear)" d="M75.2 96.2l-11.7 2c-1.8.4-3 2-2.6 3.8A27 27 0 0092 123.9l14-2.5a27 27 0 0022-31.3c-.4-1.7-2-2.9-3.8-2.6l-11.8 2c-1.4.3-2.8 0-4-.8L78.8 94c-.8 1-2 2-3.5 2.2z"/>
  <path fill="url(#paint14_linear)" d="M88.1 95.4l-9.2-52a6.1 6.1 0 0112-2.2l9.3 52.1a6.1 6.1 0 11-12 2.1z"/>
  <path fill="url(#paint15_linear)" d="M114.9 155.2l-2.4-13.3-19.4 3.4 2.4 13.4a9.8 9.8 0 1019.4-3.5z"/>
  <path fill="url(#paint16_linear)" d="M114.9 155.2l-2.4-13.3-19.4 3.4 2.4 13.4a9.8 9.8 0 1019.4-3.5z"/>
  <path fill="url(#paint17_linear)" d="M114.9 155.2l-2.4-13.3-19.4 3.4 2.4 13.4a9.8 9.8 0 1019.4-3.5z"/>
  <path fill="url(#paint18_linear)" d="M113 143.2l-19.9 3.5c-4.6.8-8.9-2.2-9.7-6.8l-1.1-6.3 36.4-6.4 1.1 6.3c.8 4.6-2.2 9-6.8 9.7z"/>
  <path fill="url(#paint19_linear)" d="M113 143.2l-19.9 3.5c-4.6.8-8.9-2.2-9.7-6.8l-1.1-6.3 36.4-6.4 1.1 6.3c.8 4.6-2.2 9-6.8 9.7z"/>
  <path fill="url(#paint20_linear)" d="M54.4 106.4l-7.2 1.3c-4 .7-7.7-2-8.4-6l-.4-2.3c-.7-4 2-7.7 5.9-8.4l7.1-1.2 3 16.6z"/>
  <path fill="url(#paint21_linear)" d="M135.6 92l7.2-1.2c4-.7 6.6-4.4 5.9-8.4l-.4-2.3c-.7-4-4.5-6.6-8.5-6l-7.1 1.3 3 16.7z"/>
  <path fill="url(#paint22_linear)" d="M109.2 132.7l-16 2.9a37.3 37.3 0 01-43.3-30.3l-3.5-19.8a2.6 2.6 0 115.2-1l3.5 20c3 17.3 19.7 29 37.1 26l16-3c17.5-3 29.2-19.7 26-37l-3.4-19.9a2.6 2.6 0 115.2-.9l3.4 19.8a37.3 37.3 0 01-30.2 43.2z"/>
  <path fill="url(#paint23_linear)" d="M73 15.3a27 27 0 00-8.2 2.8l1.6 9.2A6.5 6.5 0 1079.2 25l-1.9-10.5-4.3.8z"/>
  <path fill="url(#paint24_linear)" d="M87 12.8l-4.4.8L84.5 24a6.5 6.5 0 007.5 5.3c3.6-.6 6-4 5.3-7.6l-1.6-9.1a27 27 0 00-8.7 0z"/>
  <path fill="url(#paint25_linear)" d="M73 15.3a27 27 0 00-8.2 2.8l1.6 9.2A6.5 6.5 0 1079.2 25l-1.9-10.5-4.3.8z"/>
  <path fill="url(#paint26_linear)" d="M87 12.8l-4.4.8L84.5 24a6.5 6.5 0 007.5 5.3c3.6-.6 6-4 5.3-7.6l-1.6-9.1a27 27 0 00-8.7 0z"/>
  <defs>
    <linearGradient id="paint0_linear" x1="69.5" x2="131.4" y1="71.6" y2="169.6" gradientUnits="userSpaceOnUse">
      <stop stop-color="#DC4955"/>
      <stop offset="1" stop-color="#C4237C"/>
    </linearGradient>
    <linearGradient id="paint1_linear" x1="103.6" x2="109.4" y1="148.1" y2="181.1" gradientUnits="userSpaceOnUse">
      <stop stop-color="#8A1958" stop-opacity="0"/>
      <stop offset="1" stop-color="#8A1958"/>
    </linearGradient>
    <linearGradient id="paint2_linear" x1="142.6" x2="98.4" y1="153.3" y2="161.1" gradientUnits="userSpaceOnUse">
      <stop stop-color="#8A1958" stop-opacity="0"/>
      <stop offset="1" stop-color="#8A1958"/>
    </linearGradient>
    <linearGradient id="paint3_linear" x1="158.1" x2="85.9" y1="122.8" y2="76.2" gradientUnits="userSpaceOnUse">
      <stop stop-color="#8A1958" stop-opacity="0"/>
      <stop offset="1" stop-color="#8A1958"/>
    </linearGradient>
    <linearGradient id="paint4_linear" x1="184.9" x2="49.5" y1="158.1" y2="63.3" gradientUnits="userSpaceOnUse">
      <stop stop-color="#8A1958" stop-opacity="0"/>
      <stop offset="1" stop-color="#8A1958"/>
    </linearGradient>
    <linearGradient id="paint5_linear" x1="37.1" x2="132.3" y1="77.6" y2="60.8" gradientUnits="userSpaceOnUse">
      <stop stop-color="#EEF4FF"/>
      <stop offset="1" stop-color="#CFE7FD"/>
    </linearGradient>
    <linearGradient id="paint6_linear" x1="60.2" x2="120.2" y1="47.8" y2="89.8" gradientUnits="userSpaceOnUse">
      <stop stop-color="#8AAADC" stop-opacity="0"/>
      <stop offset="1" stop-color="#8AAADC"/>
    </linearGradient>
    <linearGradient id="paint7_linear" x1="86.6" x2="85.1" y1="51.6" y2="43.1" gradientUnits="userSpaceOnUse">
      <stop stop-color="#8AAADC" stop-opacity="0"/>
      <stop offset="1" stop-color="#8AAADC"/>
    </linearGradient>
    <linearGradient id="paint8_linear" x1="89.9" x2="88.2" y1="70" y2="60.9" gradientUnits="userSpaceOnUse">
      <stop stop-color="#8AAADC" stop-opacity="0"/>
      <stop offset="1" stop-color="#8AAADC"/>
    </linearGradient>
    <linearGradient id="paint9_linear" x1="93.3" x2="92.2" y1="89.5" y2="83.2" gradientUnits="userSpaceOnUse">
      <stop stop-color="#8AAADC" stop-opacity="0"/>
      <stop offset="1" stop-color="#8AAADC"/>
    </linearGradient>
    <linearGradient id="paint10_linear" x1="52.8" x2="116.8" y1="42.6" y2="87.4" gradientUnits="userSpaceOnUse">
      <stop stop-color="#EEF4FF"/>
      <stop offset="1" stop-color="#CFE7FD"/>
    </linearGradient>
    <linearGradient id="paint11_linear" x1="94.8" x2="81.1" y1="114.6" y2="117" gradientUnits="userSpaceOnUse">
      <stop stop-color="#8AAADC" stop-opacity="0"/>
      <stop offset="1" stop-color="#8AAADC"/>
    </linearGradient>
    <linearGradient id="paint12_linear" x1="114.7" x2="99.2" y1="111.1" y2="113.9" gradientUnits="userSpaceOnUse">
      <stop stop-color="#8AAADC" stop-opacity="0"/>
      <stop offset="1" stop-color="#8AAADC"/>
    </linearGradient>
    <linearGradient id="paint13_linear" x1="94.8" x2="98" y1="98.2" y2="116.5" gradientUnits="userSpaceOnUse">
      <stop stop-color="#8AAADC" stop-opacity="0"/>
      <stop offset="1" stop-color="#8AAADC"/>
    </linearGradient>
    <linearGradient id="paint14_linear" x1="97.3" x2="84" y1="67" y2="69.3" gradientUnits="userSpaceOnUse">
      <stop stop-color="#EEF4FF"/>
      <stop offset="1" stop-color="#CFE7FD"/>
    </linearGradient>
    <linearGradient id="paint15_linear" x1="85.8" x2="131.9" y1="158.5" y2="150.3" gradientUnits="userSpaceOnUse">
      <stop stop-color="#EEF4FF"/>
      <stop offset="1" stop-color="#CFE7FD"/>
    </linearGradient>
    <linearGradient id="paint16_linear" x1="105.9" x2="103.5" y1="160.8" y2="147.3" gradientUnits="userSpaceOnUse">
      <stop stop-color="#8AAADC" stop-opacity="0"/>
      <stop offset="1" stop-color="#8AAADC"/>
    </linearGradient>
    <linearGradient id="paint17_linear" x1="98.8" x2="115.2" y1="156.2" y2="153.3" gradientUnits="userSpaceOnUse">
      <stop stop-color="#8AAADC" stop-opacity="0"/>
      <stop offset="1" stop-color="#8AAADC"/>
    </linearGradient>
    <linearGradient id="paint18_linear" x1="90.5" x2="121.2" y1="139.7" y2="134.2" gradientUnits="userSpaceOnUse">
      <stop stop-color="#EEF4FF"/>
      <stop offset="1" stop-color="#CFE7FD"/>
    </linearGradient>
    <linearGradient id="paint19_linear" x1="102.4" x2="100.8" y1="141" y2="132.1" gradientUnits="userSpaceOnUse">
      <stop stop-color="#8AAADC" stop-opacity="0"/>
      <stop offset="1" stop-color="#8AAADC"/>
    </linearGradient>
    <linearGradient id="paint20_linear" x1="44.6" x2="46.6" y1="93" y2="104.1" gradientUnits="userSpaceOnUse">
      <stop stop-color="#EEF4FF"/>
      <stop offset="1" stop-color="#CFE7FD"/>
    </linearGradient>
    <linearGradient id="paint21_linear" x1="140.2" x2="142.1" y1="76.1" y2="87.2" gradientUnits="userSpaceOnUse">
      <stop stop-color="#EEF4FF"/>
      <stop offset="1" stop-color="#CFE7FD"/>
    </linearGradient>
    <linearGradient id="paint22_linear" x1="90.7" x2="101.2" y1="75" y2="134.2" gradientUnits="userSpaceOnUse">
      <stop stop-color="#EEF4FF"/>
      <stop offset="1" stop-color="#CFE7FD"/>
    </linearGradient>
    <linearGradient id="paint23_linear" x1="78.6" x2="65" y1="23" y2="25.4" gradientUnits="userSpaceOnUse">
      <stop stop-color="#EEF4FF"/>
      <stop offset="1" stop-color="#CFE7FD"/>
    </linearGradient>
    <linearGradient id="paint24_linear" x1="98.5" x2="83.1" y1="19.5" y2="22.2" gradientUnits="userSpaceOnUse">
      <stop stop-color="#EEF4FF"/>
      <stop offset="1" stop-color="#CFE7FD"/>
    </linearGradient>
    <linearGradient id="paint25_linear" x1="78.6" x2="65" y1="23" y2="25.4" gradientUnits="userSpaceOnUse">
      <stop stop-color="#8AAADC" stop-opacity="0"/>
      <stop offset="1" stop-color="#8AAADC"/>
    </linearGradient>
    <linearGradient id="paint26_linear" x1="98.5" x2="83.1" y1="19.5" y2="22.2" gradientUnits="userSpaceOnUse">
      <stop stop-color="#8AAADC" stop-opacity="0"/>
      <stop offset="1" stop-color="#8AAADC"/>
    </linearGradient>
  </defs>
</svg>
