<svg xmlns="http://www.w3.org/2000/svg" fill="none" viewBox="0 0 191 204">
  <defs/>
  <path fill="url(#paint0_linear)" d="M164.9 165.5l-102 9.1a9.4 9.4 0 01-10.3-8.4L40.4 30.4A9.4 9.4 0 0149 20.3L151 11a9.4 9.4 0 0110.3 8.5l12.2 135.7a9.4 9.4 0 01-8.6 10.2z"/>
  <path fill="url(#paint1_linear)" d="M155.9 174.4l-101.3 15c-5.2.7-10-2.9-10.8-8L24 46.6A9.4 9.4 0 0132 36l101.4-15c5.2-.7 10 2.8 10.7 7.9l20 134.8a9.4 9.4 0 01-8.1 10.7z"/>
  <path fill="url(#paint2_linear)" d="M164 163.7l-5.6-37.3-120 17.7 5.4 37.3a9.4 9.4 0 0010.8 8l101.3-15a9.4 9.4 0 008-10.7z"/>
  <path fill="url(#paint3_linear)" d="M107.5 47L127 178.6l29-4.2a9.4 9.4 0 008-10.7l-12.5-84.5L107.5 47z"/>
  <path fill="url(#paint4_linear)" d="M141.6 183.9L40.8 201.6c-5.2 1-10-2.4-11-7.5L6.2 59.9c-1-5.1 2.5-10 7.7-10.9l100.8-17.8c5.2-.9 10 2.5 11 7.6L149.4 173c.9 5-2.6 10-7.8 10.9z"/>
  <path fill="url(#paint5_linear)" d="M149.4 173l-6.6-37.2-119.5 21 6.5 37.3c1 5 5.8 8.5 11 7.5L141.6 184c5.2-1 8.7-5.8 7.8-10.9z"/>
  <path fill="url(#paint6_linear)" d="M123.9 133L40 147.8c-1.3.3-2.6-.6-2.8-2l-.6-3.1c-.2-1.4.7-2.6 2-2.8l83.8-14.8c1.3-.2 2.6.6 2.8 2l.5 3.2c.3 1.3-.6 2.5-2 2.7z"/>
  <path fill="url(#paint7_linear)" d="M117.9 99L34 113.7c-1.3.3-2.6-.6-2.8-1.9l-.6-3.2c-.2-1.3.7-2.6 2-2.8L116.5 91c1.3-.2 2.5.7 2.8 2l.5 3.2c.3 1.3-.6 2.5-2 2.8z"/>
  <path fill="url(#paint8_linear)" d="M126.9 150L43 165c-1.3.2-2.6-.7-2.8-2l-.6-3.2c-.2-1.3.7-2.6 2-2.8l83.8-14.8c1.3-.2 2.6.7 2.8 2l.6 3.2c.2 1.3-.7 2.6-2 2.8z"/>
  <path fill="url(#paint9_linear)" d="M114.9 82L31 96.6c-1.3.2-2.6-.6-2.8-2l-.6-3.2c-.2-1.3.7-2.5 2-2.7L113.5 74c1.3-.2 2.5.6 2.8 2l.5 3.2c.3 1.3-.6 2.5-2 2.7z"/>
  <path fill="#FF196B" d="M57.3 73c0 .5-.3 1-.8 1.1l-30 5.3a1 1 0 01-1-.8l-1.1-6a1 1 0 01.8-1.1L55 66.2a1 1 0 011.1.8l1.1 6z"/>
  <path fill="#00A5BB" d="M66.4 124.6c.1.6-.3 1-.8 1.2l-30 5.2a1 1 0 01-1-.8l-1.1-6a1 1 0 01.8-1.1l29.9-5.3a1 1 0 011.1.8l1.1 6z"/>
  <path fill="url(#paint10_linear)" d="M75.8 126l.8 2.6c.4 1.2 30 24.3 32.4 23.2l29-43-6.6-37.8-17.2-10.8c-25.7 32.6-21.4 29.8-.8-.5l-31.6 47.7c-5.2 7.8-7.4 14.3-6 18.6z"/>
  <path fill="url(#paint11_linear)" d="M159.4 13l-1.5-1.2c-3-2-7.1-1.3-9.2 1.7l-16.2 23 12.4 8.7 16.2-23c2-3 1.3-7.2-1.7-9.3z"/>
  <path fill="url(#paint12_linear)" d="M138.7 40.8l6.2 4.4 13-18.6-6.2-4.3-13 18.5z"/>
  <path fill="url(#paint13_linear)" d="M85.3 127.2l-4.3 2.1c-3.2 1.6-6-.4-5.7-4l.5-4.7c.8-8 4-16.4 9.1-23.7l2-2.7 49-66.3c1.5-2.3 4.2-3.2 5.9-2l9.6 7c1.7 1.2 1.7 4 0 6.3l-45 68.7-2 2.7a50.6 50.6 0 01-19 16.6z"/>
  <path fill="url(#paint14_linear)" d="M85.3 127.2l-4.3 2.1c-3.2 1.6-6-.4-5.7-4l.5-4.7c.8-8 4-16.4 9.1-23.7l2-2.7 10.3 4 9.1 9.7-1.9 2.7a50.6 50.6 0 01-19 16.6z"/>
  <path fill="url(#paint15_linear)" d="M154.2 32l-12.4-8.7c-2-1.4-4.7-1-6 1l-49 69.9 19.5 13.7 49-69.9c1.3-2 .9-4.7-1.1-6z"/>
  <path fill="url(#paint16_linear)" d="M154.7 32.3l-6.7-4.7-31.2 44.6 9.7 6.9 28.3-40.5c1.6-2.3 1.6-5 0-6.3z"/>
  <path fill="url(#paint17_linear)" d="M145.2 23.4l-29.6 42.2a4.7 4.7 0 007.7 5.5L153 28.8a4.7 4.7 0 00-7.7-5.4z"/>
  <defs>
    <linearGradient id="paint0_linear" x1="48.7" x2="163" y1="44.9" y2="141.6" gradientUnits="userSpaceOnUse">
      <stop stop-color="#B23489"/>
      <stop offset=".8" stop-color="#8C296C"/>
      <stop offset="1" stop-color="#631D4C"/>
    </linearGradient>
    <linearGradient id="paint1_linear" x1="20.5" x2="150.1" y1="51.4" y2="149" gradientUnits="userSpaceOnUse">
      <stop stop-color="#F7E07D"/>
      <stop offset="1" stop-color="#E69642"/>
    </linearGradient>
    <linearGradient id="paint2_linear" x1="99.8" x2="105.2" y1="145.3" y2="181.9" gradientUnits="userSpaceOnUse">
      <stop stop-color="#D52C1C" stop-opacity="0"/>
      <stop offset=".3" stop-color="#D12C1E" stop-opacity=".3"/>
      <stop offset=".6" stop-color="#C42C23" stop-opacity=".6"/>
      <stop offset=".9" stop-color="#AF2B2C" stop-opacity=".9"/>
      <stop offset="1" stop-color="#A42B31"/>
    </linearGradient>
    <linearGradient id="paint3_linear" x1="154.8" x2="110.6" y1="107.3" y2="113.8" gradientUnits="userSpaceOnUse">
      <stop stop-color="#D52C1C" stop-opacity="0"/>
      <stop offset=".3" stop-color="#D12C1E" stop-opacity=".3"/>
      <stop offset=".6" stop-color="#C42C23" stop-opacity=".6"/>
      <stop offset=".9" stop-color="#AF2B2C" stop-opacity=".9"/>
      <stop offset="1" stop-color="#A42B31"/>
    </linearGradient>
    <linearGradient id="paint4_linear" x1="15.7" x2="137.7" y1="73.6" y2="160.2" gradientUnits="userSpaceOnUse">
      <stop stop-color="#EEF4FF"/>
      <stop offset="1" stop-color="#CFE7FD"/>
    </linearGradient>
    <linearGradient id="paint5_linear" x1="84.8" x2="91.2" y1="156.4" y2="192.8" gradientUnits="userSpaceOnUse">
      <stop stop-color="#8AAADC" stop-opacity="0"/>
      <stop offset="1" stop-color="#8AAADC"/>
    </linearGradient>
    <linearGradient id="paint6_linear" x1="37" x2="125.6" y1="144.3" y2="128.7" gradientUnits="userSpaceOnUse">
      <stop stop-color="#5A5A5A"/>
      <stop offset="1" stop-color="#464646"/>
    </linearGradient>
    <linearGradient id="paint7_linear" x1="31" x2="119.6" y1="110.2" y2="94.6" gradientUnits="userSpaceOnUse">
      <stop stop-color="#5A5A5A"/>
      <stop offset="1" stop-color="#464646"/>
    </linearGradient>
    <linearGradient id="paint8_linear" x1="40" x2="128.6" y1="161.3" y2="145.7" gradientUnits="userSpaceOnUse">
      <stop stop-color="#5A5A5A"/>
      <stop offset="1" stop-color="#464646"/>
    </linearGradient>
    <linearGradient id="paint9_linear" x1="28" x2="116.6" y1="93.2" y2="77.5" gradientUnits="userSpaceOnUse">
      <stop stop-color="#5A5A5A"/>
      <stop offset="1" stop-color="#464646"/>
    </linearGradient>
    <linearGradient id="paint10_linear" x1="134.7" x2="111.2" y1="119.8" y2="99" gradientUnits="userSpaceOnUse">
      <stop offset=".2" stop-color="#8AAADC" stop-opacity="0"/>
      <stop offset="1" stop-color="#3A414C" stop-opacity=".9"/>
    </linearGradient>
    <linearGradient id="paint11_linear" x1="147.4" x2="153.8" y1="25.8" y2="30.3" gradientUnits="userSpaceOnUse">
      <stop stop-color="#F7E07D"/>
      <stop offset="1" stop-color="#E69642"/>
    </linearGradient>
    <linearGradient id="paint12_linear" x1="155.4" x2="144.2" y1="38.6" y2="30.8" gradientUnits="userSpaceOnUse">
      <stop stop-color="#D52C1C" stop-opacity="0"/>
      <stop offset=".3" stop-color="#D12C1E" stop-opacity=".3"/>
      <stop offset=".6" stop-color="#C42C23" stop-opacity=".6"/>
      <stop offset=".9" stop-color="#AF2B2C" stop-opacity=".9"/>
      <stop offset="1" stop-color="#A42B31"/>
    </linearGradient>
    <linearGradient id="paint13_linear" x1="101.7" x2="121.2" y1="72.4" y2="86.1" gradientUnits="userSpaceOnUse">
      <stop stop-color="#EEF4FF"/>
      <stop offset="1" stop-color="#CFE7FD"/>
    </linearGradient>
    <linearGradient id="paint14_linear" x1="77.4" x2="96.9" y1="107.1" y2="120.8" gradientUnits="userSpaceOnUse">
      <stop stop-color="#8AAADC" stop-opacity="0"/>
      <stop offset="1" stop-color="#8AAADC"/>
    </linearGradient>
    <linearGradient id="paint15_linear" x1="112.5" x2="132" y1="57" y2="70.7" gradientUnits="userSpaceOnUse">
      <stop stop-color="#DC4955"/>
      <stop offset="1" stop-color="#C4237C"/>
    </linearGradient>
    <linearGradient id="paint16_linear" x1="146.7" x2="137" y1="60" y2="53.1" gradientUnits="userSpaceOnUse">
      <stop stop-color="#8A1958" stop-opacity="0"/>
      <stop offset="1" stop-color="#8A1958"/>
    </linearGradient>
    <linearGradient id="paint17_linear" x1="130.5" x2="136.2" y1="44.6" y2="48.6" gradientUnits="userSpaceOnUse">
      <stop stop-color="#EEF4FF"/>
      <stop offset="1" stop-color="#CFE7FD"/>
    </linearGradient>
  </defs>
</svg>
