<svg xmlns="http://www.w3.org/2000/svg" fill="none" viewBox="0 0 197 57">
  <defs/>
  <path fill="#F4B72A" d="M.7 17c0-.7.5-1.3 1.2-1.3h1.3a1.2 1.2 0 110 2.5H1.9c-.7 0-1.2-.6-1.2-1.2zM.7 26.4c0-.7.5-1.2 1.2-1.2h1.3a1.2 1.2 0 110 2.5H1.9c-.7 0-1.2-.6-1.2-1.3z"/>
  <path fill="#F4B72A" fill-rule="evenodd" d="M12.4 1a9.5 9.5 0 00-9.5 9.5v4s.1.2.3.2a2.2 2.2 0 010 4.5c-.2 0-.3.1-.3.2V24c0 .2.1.3.3.3a2.2 2.2 0 010 4.5c-.2 0-.3 0-.3.2v4c0 5.3 4.3 9.5 9.5 9.5h5a5 5 0 014.1 2.1l3.4 4.9 4.7 7.2c.1.3.4.3.6 0l4.6-7.2 3.3-4.7c1-1.4 2.7-2.3 4.5-2.3h4.7c5.3 0 9.5-4.2 9.5-9.5V10.5c0-5.3-4.2-9.5-9.5-9.5H12.4zm-.3 5.5a4 4 0 00-4 4v22.8a4 4 0 004 4H22c1 0 2 .5 2.6 1.4l2.2 3 3 4.6c0 .2.3.2.4 0l3-4.6 2-3c.7-.9 1.7-1.4 2.9-1.4h9.6a4 4 0 004-4V10.5a4 4 0 00-4-4H12z" clip-rule="evenodd"/>
  <path fill="#F4B72A" d="M16.4 21.6c0-.7.5-1.2 1.1-1.2H42a1.1 1.1 0 110 2.3H17.5c-.6 0-1.1-.5-1.1-1.1zM16.4 16c0-.5.5-1 1.1-1H42a1.1 1.1 0 010 2.2H17.5c-.6 0-1.1-.5-1.1-1.1zM16.4 27.3c0-.6.5-1.1 1.1-1.1H42a1.1 1.1 0 110 2.2H17.5c-.6 0-1.1-.5-1.1-1.1z"/>
  <path fill="#fff" d="M78.4 27c1.6 0 2.7-.2 3.3-.7.6-.5 1-1 1-1.7s-.3-1.1-.8-1.5c-.5-.4-1.2-.7-2.1-1l-2-.7L74 20c-1.2-.5-2.1-1.1-3-1.8a7.7 7.7 0 01-1.9-2.5c-.4-1-.7-2.2-.7-3.5 0-2.7 1-4.9 3.1-6.5 2.1-1.6 5-2.4 8.7-2.4 1.4 0 2.7 0 3.8.3 1.2.2 2.2.5 3 .9A5 5 0 0189 6c.5.6.7 1.3.7 2.1a4 4 0 01-.5 2.2 6 6 0 01-1.4 1.4 13.4 13.4 0 00-6.6-1.7c-1.5 0-2.5.3-3.2.7-.7.4-1 .9-1 1.5 0 .4.2.8.6 1.1.4.3 1 .6 1.9.8l2.5.9c3 .9 5.2 2.1 6.8 3.6a7.8 7.8 0 012.4 6c0 1.4-.2 2.6-.8 3.8a8 8 0 01-2.4 2.9c-1 .7-2.3 1.4-4 1.8a20.8 20.8 0 01-12.7-.7c-.8-.5-1.6-1-2.1-1.7a4 4 0 01-.8-2.4c0-.9.3-1.7.8-2.3a6 6 0 011.8-1.5 11.5 11.5 0 007.4 2.6zM130.1 32.9a13.3 13.3 0 01-3.6.4c-1.5 0-2.7-.3-3.4-.8-.7-.5-1-1.5-1-3V18.2c0-1-.3-1.7-.8-2a3 3 0 00-2-.7c-.5 0-1 0-1.5.3-.5.1-1 .4-1.3.6V33a13.3 13.3 0 01-3.5.4c-1.6 0-2.7-.3-3.4-.8-.7-.5-1-1.5-1-3V18.2c0-1-.4-1.7-1-2a3 3 0 00-2-.7 4 4 0 00-1.5.3l-1 .4V33a13.4 13.4 0 01-3.7.4c-1.6 0-2.7-.3-3.4-.8-.7-.5-1-1.5-1-3V15.2c0-.8.1-1.5.5-2 .4-.6.9-1 1.5-1.5a17.4 17.4 0 019-2.5 13 13 0 017 2.1 13.4 13.4 0 017.5-2.1c1.3 0 2.4.1 3.6.4 1.2.4 2.2.9 3 1.6 1 .6 1.7 1.5 2.2 2.7.6 1 .8 2.4.8 4v15zM145 27.8l1.7-.1 1.5-.5v-3.8l-3.4.3c-.9 0-1.6.2-2.2.5-.6.4-.9.8-.9 1.5 0 .6.3 1.1.8 1.5.5.4 1.3.6 2.5.6zm-.4-18.6c1.7 0 3.2.1 4.6.5 1.5.3 2.7.9 3.6 1.6 1 .7 1.8 1.6 2.4 2.7.5 1 .8 2.4.8 3.8v10.7a3 3 0 01-.7 2c-.5.5-1 1-1.7 1.3a17 17 0 01-8.6 1.9c-1.7 0-3.2-.2-4.6-.5a11 11 0 01-3.4-1.4c-1-.7-1.7-1.5-2.3-2.4-.5-1-.7-2.2-.7-3.5 0-2.1.6-3.8 2-5 1.2-1.1 3.2-1.9 6-2.2l6.1-.6v-.4a2 2 0 00-1.2-1.9c-.8-.4-2-.6-3.4-.6a16.5 16.5 0 00-6.6 1.3c-.4-.3-.8-.7-1-1.3-.4-.6-.5-1.2-.5-1.8 0-.8.2-1.5.6-2 .4-.5 1-.9 1.8-1.2 1-.4 2-.6 3.2-.8 1.3-.2 2.5-.2 3.6-.2zM169 32.9a13.3 13.3 0 01-3.6.4c-1.6 0-2.8-.3-3.5-.8-.7-.5-1-1.5-1-3v-14c0-1 .2-1.8.7-2.4.5-.7 1.1-1.3 2-1.8 1-.7 2.3-1.2 3.8-1.6 1.5-.3 3-.5 4.6-.5 3.5 0 5.2 1.2 5.2 3.7a5.4 5.4 0 01-.8 2.8 13.5 13.5 0 00-5.2.1c-.8.2-1.6.5-2.2.9v16.2zM189.2 33.6c-2.8 0-5-.6-6.5-1.9-1.5-1.2-2.2-3.3-2.2-6.1v-21A13.5 13.5 0 01184 4c1.6 0 2.7.3 3.4.9.7.5 1 1.5 1 3v2.5h6.3l.5 1.3c.2.5.3 1.1.3 1.7 0 1.1-.3 2-.8 2.5-.5.4-1.1.7-2 .7h-4.3V25c0 .8.3 1.4.8 1.8a4 4 0 002.2.5l1.5-.1 1.3-.3.7 1.1c.3.4.4 1 .4 1.6 0 1.2-.5 2.1-1.4 2.9-.9.8-2.5 1.1-4.7 1.1zM70.8 50.6c.2.5.6.8 1 1 .5.3 1 .4 1.7.4.6 0 1.1-.1 1.7-.3l1.3-.5.6.6a1.6 1.6 0 010 1.8l-1 .6-1.2.4a10 10 0 01-4-.2c-.8-.3-1.4-.6-2-1.1a5 5 0 01-1.2-1.8c-.3-.7-.5-1.6-.5-2.6s.2-1.7.5-2.4a4.8 4.8 0 013-2.7 6.3 6.3 0 014 0l1.7 1c.4.4.8.9 1 1.5.3.5.4 1.1.4 1.8 0 .5-.1.9-.4 1.1a2 2 0 01-1.2.5l-5.4.9zm1.9-4.4a2 2 0 00-1.4.5c-.4.3-.6.8-.7 1.4l3.7-.6-.1-.4c0-.2-.2-.3-.3-.5l-.5-.3-.7-.1zM84.7 43.5c.6 0 1.2 0 1.6.2v-3.5A6.2 6.2 0 0188 40c.7 0 1.2.2 1.5.4.3.2.5.7.5 1.4V52c0 .6-.3 1.2-1 1.6a7.2 7.2 0 01-4 1c-1.8 0-3.2-.4-4.3-1.4-1-1-1.6-2.3-1.6-4.2 0-1 .2-1.7.5-2.5a5 5 0 011.1-1.7 5 5 0 011.8-1c.7-.3 1.4-.4 2.2-.4zm1.6 3.1a2.8 2.8 0 00-1-.2c-.8 0-1.4.2-1.8.7-.4.4-.6 1.1-.6 2 0 1 .2 1.6.5 2 .4.5 1 .7 1.7.7a2.8 2.8 0 001.2-.3v-4.9zM92.3 43.9a6.2 6.2 0 011.6-.2c.8 0 1.3.1 1.6.3.3.3.5.7.5 1.4v4.8c0 .6.1 1 .4 1.3.3.2.7.3 1.3.3a3 3 0 001.3-.2v-7.7a6.2 6.2 0 011.6-.2c.8 0 1.3.1 1.6.3.3.3.5.7.5 1.4v6.7c0 .7-.3 1.3-1 1.6-.4.4-1 .6-1.8.8a9.4 9.4 0 01-4.4 0c-.7-.2-1.2-.5-1.7-.8-.5-.4-.9-.9-1.1-1.4a5 5 0 01-.4-2.1v-6.3zM110.9 46.4c-.4 0-.7 0-1 .2l-1 .5-.5.9a3 3 0 00-.2 1.1c0 1 .3 1.6.8 2 .5.5 1.1.7 1.9.7a4 4 0 002-.5l.6.6.2.9c0 .6-.3 1-.9 1.4-.5.3-1.3.5-2.4.5-1 0-1.7-.1-2.5-.3a4.9 4.9 0 01-3-2.8c-.3-.7-.4-1.5-.4-2.5s.1-1.7.4-2.5a5 5 0 013.2-2.8c.7-.2 1.4-.3 2.2-.3 1 0 1.8.2 2.4.6.6.3.8.8.8 1.4l-.1.8-.5.6-.9-.3-1.1-.2zM120 44a6.2 6.2 0 011.6-.2c.8 0 1.3.1 1.6.4.3.2.5.6.5 1.3v8.9a6.1 6.1 0 01-1.7.1c-.7 0-1.2 0-1.5-.3-.4-.2-.5-.7-.5-1.4V44zm-.2-3.1c0-.6.2-1 .6-1.4a2 2 0 011.4-.6 2 2 0 012 2c0 .5-.1 1-.5 1.4a2 2 0 01-1.5.5 2 2 0 01-1.4-.5 2 2 0 01-.6-1.4zM131.1 43.5c.7 0 1.2 0 1.7.2v-3.5a6.1 6.1 0 011.6-.2c.7 0 1.2.2 1.6.4.3.2.4.7.4 1.4V52c0 .6-.3 1.2-1 1.6a7.2 7.2 0 01-4 1c-1.7 0-3.2-.4-4.2-1.4-1.1-1-1.6-2.3-1.6-4.2 0-1 .1-1.7.4-2.5a5 5 0 011.2-1.7 5 5 0 011.8-1c.6-.3 1.4-.4 2.1-.4zm1.7 3.1a2.8 2.8 0 00-1.1-.2c-.8 0-1.4.2-1.8.7-.4.4-.6 1.1-.6 2 0 1 .2 1.6.6 2 .4.5 1 .7 1.7.7a2.8 2.8 0 001.2-.3v-4.9zM138.8 44a6.2 6.2 0 011.7-.2c.7 0 1.2.1 1.5.4.4.2.5.6.5 1.3v8.9a6 6 0 01-1.6.1c-.8 0-1.3 0-1.6-.3-.3-.2-.5-.7-.5-1.4V44zm-.1-3.1c0-.6.1-1 .5-1.4a2 2 0 011.5-.6 2 2 0 012 2c0 .5-.2 1-.6 1.4a2 2 0 01-1.4.5 2 2 0 01-1.5-.5 2 2 0 01-.5-1.4zM155.8 49.1c0 .9-.2 1.7-.4 2.3a4.8 4.8 0 01-3 3c-.7.2-1.4.3-2.3.3a7 7 0 01-2.3-.3 5.2 5.2 0 01-3-2.9c-.3-.7-.4-1.5-.4-2.4 0-.9.2-1.6.4-2.3a5 5 0 013-3c.7-.2 1.4-.3 2.3-.3.9 0 1.6.1 2.3.4a5 5 0 011.8 1.1c.5.5.9 1.1 1.2 1.8.2.7.4 1.5.4 2.3zm-5.7-2.7c-.6 0-1 .2-1.4.7-.3.5-.5 1.1-.5 2 0 1 .2 1.6.5 2 .3.5.8.7 1.4.7.6 0 1-.2 1.4-.7.3-.4.5-1.1.5-2 0-.9-.2-1.5-.5-2s-.8-.7-1.4-.7zM173.7 54.4a6.1 6.1 0 01-1.7.1c-.7 0-1.2 0-1.5-.3-.3-.2-.5-.7-.5-1.4v-5.2c0-.4-.1-.7-.3-1l-1-.2a2 2 0 00-.7.1l-.5.3v7.6a6.1 6.1 0 01-1.7.1c-.7 0-1.2 0-1.5-.3-.3-.2-.5-.7-.5-1.4v-5.2c0-.4-.1-.7-.4-1l-1-.2-.6.1-.5.2v7.7a6.1 6.1 0 01-1.7.1c-.7 0-1.2 0-1.5-.3-.4-.2-.5-.7-.5-1.4v-6.5c0-.4 0-.7.2-1l.7-.6c.5-.4 1.1-.7 1.8-.9a8 8 0 012.3-.3 6 6 0 013.3 1l1.4-.7c.6-.2 1.2-.3 2-.3.6 0 1 0 1.6.2l1.4.7c.4.3.8.7 1 1.2.3.6.4 1.2.4 2v6.8zM180.5 52h.8c.3 0 .5-.2.7-.3V50l-1.6.1c-.4 0-.7.2-1 .3-.3.1-.4.4-.4.7 0 .2.1.5.3.7l1.2.2zm-.2-8.5c.8 0 1.5 0 2.1.2.7.2 1.2.4 1.7.8.4.3.8.7 1 1.2.3.5.4 1 .4 1.8v4.8c0 .4 0 .7-.3 1a3 3 0 01-.7.6c-1 .5-2.3.8-4 .8-.8 0-1.5 0-2.1-.2a5 5 0 01-1.6-.6c-.4-.3-.8-.7-1-1.2-.2-.4-.4-1-.4-1.5 0-1 .3-1.8 1-2.3.5-.6 1.4-.9 2.7-1l2.8-.3v-.2a1 1 0 00-.5-.9l-1.6-.2a7.6 7.6 0 00-3 .6l-.5-.6a2 2 0 01-.2-.9c0-.3 0-.6.3-.9.1-.2.4-.4.8-.5l1.5-.4 1.6-.1zM196.7 51.2a3 3 0 01-1.3 2.6c-.8.6-2 1-3.6 1l-1.7-.2c-.5 0-1-.2-1.4-.4l-.8-.7c-.2-.2-.3-.6-.3-1 0-.3 0-.6.2-.8.1-.3.3-.5.5-.6l1.4.6c.6.2 1.2.3 2 .3l1-.2c.2-.2.3-.3.3-.6 0-.2 0-.3-.2-.4l-.9-.3-.7-.1a6.3 6.3 0 01-2.8-1.2c-.6-.5-.9-1.3-.9-2.3a3 3 0 011.3-2.5l1.5-.7a7.5 7.5 0 013.5 0c.5 0 .9.1 1.2.3.4.1.6.3.8.6.2.2.4.5.4.9l-.2.8-.5.6-.5-.2-.8-.2a8 8 0 00-1.6-.2l-1 .1c-.4.1-.5.3-.5.5s0 .3.2.4l.9.3.6.2c1.4.3 2.4.7 3 1.3.6.5.9 1.2.9 2.1z"/>
</svg>
