<svg width="790" height="263" viewBox="0 0 790 263" fill="none" xmlns="http://www.w3.org/2000/svg">
<g id="logo">
<g id="Group 267">
<rect id="Rectangle 17" x="0.186157" y="83.4348" width="15" height="10" rx="5" fill="#F4B72A"/>
<rect id="Rectangle 21" x="0.186157" y="121.435" width="15" height="10" rx="5" fill="#F4B72A"/>
<path id="Subtract" fill-rule="evenodd" clip-rule="evenodd" d="M47.1862 24.4348C26.1993 24.4348 9.18616 41.448 9.18616 62.4348V78.4348C9.18616 78.9871 9.63387 79.4348 10.1862 79.4348C15.1567 79.4348 19.1862 83.4644 19.1862 88.4348C19.1862 93.4053 15.1567 97.4348 10.1862 97.4348C9.63387 97.4348 9.18616 97.8825 9.18616 98.4348V116.435C9.18616 116.987 9.63387 117.435 10.1862 117.435C15.1567 117.435 19.1862 121.464 19.1862 126.435C19.1862 131.405 15.1567 135.435 10.1862 135.435C9.63387 135.435 9.18616 135.883 9.18616 136.435V152.435C9.18616 173.422 26.1993 190.435 47.1862 190.435H67.1862C73.7701 190.435 79.9433 193.635 83.7383 199.015L97.4362 218.435L115.952 247.497C116.527 248.4 117.845 248.4 118.421 247.497L136.936 218.435L150.058 199.832C154.214 193.94 160.975 190.435 168.186 190.435H187.186C208.173 190.435 225.186 173.422 225.186 152.435V62.4348C225.186 41.448 208.173 24.4348 187.186 24.4348H47.1862ZM46.1862 46.4348C37.3496 46.4348 30.1862 53.5981 30.1862 62.4348V153.937C30.1862 162.774 37.3496 169.937 46.1862 169.937H85.2417C89.4496 169.937 93.3964 171.977 95.8302 175.409L104.568 187.733L116.398 206.203C116.766 206.779 117.606 206.779 117.975 206.203L129.804 187.733L138.173 175.93C140.838 172.171 145.161 169.937 149.77 169.937H188.186C197.023 169.937 204.186 162.774 204.186 153.937V62.4348C204.186 53.5981 197.023 46.4348 188.186 46.4348H46.1862Z" fill="#F3B72A"/>
<rect id="Rectangle 18" x="63.1862" y="102.435" width="107" height="9" rx="4.5" fill="#F4B72A"/>
<rect id="Rectangle 20" x="63.1862" y="80.4348" width="107" height="9" rx="4.5" fill="#F4B72A"/>
<rect id="Rectangle 19" x="63.1862" y="125.435" width="107" height="9" rx="4.5" fill="#F4B72A"/>
</g>
<path id="Smart" d="M311.876 128.875C318.083 128.875 322.453 127.861 324.986 125.835C327.519 123.808 328.786 121.528 328.786 118.995C328.786 116.461 327.773 114.498 325.746 113.105C323.719 111.585 320.869 110.191 317.196 108.925L309.216 106.265C303.643 104.365 298.576 102.465 294.016 100.565C289.456 98.5381 285.529 96.1315 282.236 93.3448C278.943 90.5581 276.346 87.2648 274.446 83.4648C272.673 79.5381 271.786 74.7881 271.786 69.2148C271.786 58.4481 275.903 49.8348 284.136 43.3748C292.496 36.9148 304.149 33.6848 319.096 33.6848C324.543 33.6848 329.609 34.0648 334.296 34.8248C338.983 35.5848 342.973 36.7881 346.266 38.4348C349.686 39.9548 352.346 41.9815 354.246 44.5148C356.146 46.9215 357.096 49.7715 357.096 53.0648C357.096 56.3581 356.336 59.2081 354.816 61.6148C353.296 63.8948 351.459 65.8581 349.306 67.5048C346.519 65.7315 342.783 64.2115 338.096 62.9448C333.409 61.5515 328.279 60.8548 322.706 60.8548C317.006 60.8548 312.826 61.6781 310.166 63.3248C307.506 64.8448 306.176 66.8081 306.176 69.2148C306.176 71.1148 306.999 72.6981 308.646 73.9648C310.293 75.1048 312.763 76.1815 316.056 77.1948L326.126 80.4248C338.033 84.2248 347.153 89.1648 353.486 95.2448C359.946 101.198 363.176 109.241 363.176 119.375C363.176 124.695 362.099 129.635 359.946 134.195C357.793 138.628 354.563 142.491 350.256 145.785C346.076 148.951 340.819 151.421 334.486 153.195C328.279 154.968 321.123 155.855 313.016 155.855C307.189 155.855 301.743 155.348 296.676 154.335C291.736 153.448 287.366 152.118 283.566 150.345C279.893 148.445 276.979 146.165 274.826 143.505C272.799 140.718 271.786 137.551 271.786 134.005C271.786 130.331 272.863 127.228 275.016 124.695C277.169 122.035 279.513 120.008 282.046 118.615C285.593 121.401 289.899 123.808 294.966 125.835C300.159 127.861 305.796 128.875 311.876 128.875ZM519.138 152.245C517.745 152.625 515.718 153.005 513.058 153.385C510.525 153.765 507.738 153.955 504.698 153.955C498.365 153.955 493.805 152.941 491.018 150.915C488.231 148.761 486.838 144.708 486.838 138.755V93.3448C486.838 89.5448 485.825 86.8215 483.798 85.1748C481.771 83.4015 479.111 82.5148 475.818 82.5148C473.665 82.5148 471.575 82.8948 469.548 83.6548C467.648 84.4148 466.001 85.3015 464.608 86.3148C464.608 86.8215 464.608 87.3281 464.608 87.8348C464.735 88.2148 464.798 88.5948 464.798 88.9748V152.245C463.405 152.625 461.378 153.005 458.718 153.385C456.185 153.765 453.398 153.955 450.358 153.955C444.025 153.955 439.465 152.941 436.678 150.915C433.891 148.761 432.498 144.708 432.498 138.755V93.3448C432.498 89.5448 431.358 86.8215 429.078 85.1748C426.925 83.4015 424.265 82.5148 421.098 82.5148C418.691 82.5148 416.601 82.8948 414.828 83.6548C413.055 84.2881 411.598 84.9215 410.458 85.5548V152.245C409.065 152.625 407.038 153.005 404.378 153.385C401.845 153.765 399.058 153.955 396.018 153.955C389.685 153.955 385.125 152.941 382.338 150.915C379.551 148.761 378.158 144.708 378.158 138.755V81.5648C378.158 78.1448 378.855 75.3581 380.248 73.2048C381.768 71.0515 383.795 69.0881 386.328 67.3148C390.635 64.2748 395.955 61.8681 402.288 60.0948C408.621 58.1948 415.335 57.2448 422.428 57.2448C427.621 57.2448 432.561 57.9415 437.248 59.3348C442.061 60.7281 446.558 62.8815 450.738 65.7948C454.538 63.3881 458.781 61.3615 463.468 59.7148C468.281 58.0681 474.045 57.2448 480.758 57.2448C485.571 57.2448 490.258 57.8781 494.818 59.1448C499.505 60.4115 503.621 62.4381 507.168 65.2248C510.841 67.8848 513.755 71.4948 515.908 76.0548C518.061 80.4881 519.138 85.9348 519.138 92.3948V152.245ZM578.547 131.915C580.7 131.915 583.044 131.725 585.577 131.345C588.237 130.838 590.2 130.205 591.467 129.445V114.245L577.787 115.385C574.24 115.638 571.327 116.398 569.047 117.665C566.767 118.931 565.627 120.831 565.627 123.365C565.627 125.898 566.577 127.988 568.477 129.635C570.504 131.155 573.86 131.915 578.547 131.915ZM577.027 57.2448C583.867 57.2448 590.074 57.9415 595.647 59.3348C601.347 60.7281 606.16 62.8815 610.087 65.7948C614.14 68.5815 617.244 72.1915 619.397 76.6248C621.55 80.9315 622.627 86.0615 622.627 92.0148V134.575C622.627 137.868 621.677 140.591 619.777 142.745C618.004 144.771 615.85 146.545 613.317 148.065C605.084 153.005 593.494 155.475 578.547 155.475C571.834 155.475 565.754 154.841 560.307 153.575C554.987 152.308 550.364 150.408 546.437 147.875C542.637 145.341 539.66 142.111 537.507 138.185C535.48 134.258 534.467 129.698 534.467 124.505C534.467 115.765 537.064 109.051 542.257 104.365C547.45 99.6781 555.494 96.7648 566.387 95.6248L591.277 92.9648V91.6348C591.277 87.9615 589.63 85.3648 586.337 83.8448C583.17 82.1981 578.547 81.3748 572.467 81.3748C567.78 81.3748 563.094 81.8815 558.407 82.8948C553.847 83.9081 549.73 85.1748 546.057 86.6948C544.41 85.5548 543.017 83.8448 541.877 81.5648C540.737 79.1581 540.167 76.6881 540.167 74.1548C540.167 70.8615 540.927 68.2648 542.447 66.3648C544.094 64.3381 546.564 62.6281 549.857 61.2348C553.53 59.8415 557.837 58.8281 562.777 58.1948C567.844 57.5615 572.594 57.2448 577.027 57.2448ZM674.677 152.245C673.283 152.625 671.257 153.005 668.597 153.385C666.063 153.765 663.277 153.955 660.237 153.955C653.903 153.955 649.343 152.941 646.557 150.915C643.77 148.761 642.377 144.708 642.377 138.755V82.3248C642.377 78.6515 643.327 75.4848 645.227 72.8248C647.127 70.0381 649.723 67.6315 653.017 65.6048C657.45 62.9448 662.58 60.9181 668.407 59.5248C674.36 58.1315 680.567 57.4348 687.027 57.4348C700.833 57.4348 707.737 62.3115 707.737 72.0648C707.737 74.3448 707.42 76.4981 706.787 78.5248C706.153 80.4248 705.393 82.0715 704.507 83.4648C702.1 82.9581 698.617 82.7048 694.057 82.7048C690.763 82.7048 687.343 83.0848 683.797 83.8448C680.377 84.6048 677.337 85.7448 674.677 87.2648V152.245ZM755.642 155.285C744.495 155.285 735.882 152.751 729.802 147.685C723.849 142.618 720.872 134.385 720.872 122.985V38.6248C722.265 38.2448 724.229 37.8648 726.762 37.4848C729.422 36.9781 732.209 36.7248 735.122 36.7248C741.329 36.7248 745.825 37.8015 748.612 39.9548C751.399 42.1081 752.792 46.0981 752.792 51.9248V62.1848H777.682C778.442 63.5781 779.139 65.3515 779.772 67.5048C780.532 69.5315 780.912 71.8115 780.912 74.3448C780.912 78.7781 779.899 82.0081 777.872 84.0348C775.972 85.9348 773.375 86.8848 770.082 86.8848H752.792V120.705C752.792 123.998 753.805 126.341 755.832 127.735C757.985 129.128 760.962 129.825 764.762 129.825C766.662 129.825 768.625 129.698 770.652 129.445C772.679 129.065 774.452 128.621 775.972 128.115C777.112 129.508 778.062 131.091 778.822 132.865C779.709 134.511 780.152 136.538 780.152 138.945C780.152 143.758 778.315 147.685 774.642 150.725C771.095 153.765 764.762 155.285 755.642 155.285Z" fill="#8C296C"/>
<path id="educ idiomas" d="M281.412 223.123C282.224 225.211 283.587 226.69 285.501 227.56C287.415 228.372 289.561 228.778 291.939 228.778C294.375 228.778 296.695 228.488 298.899 227.908C301.103 227.27 302.872 226.545 304.206 225.733C305.134 226.313 305.917 227.125 306.555 228.169C307.193 229.213 307.512 230.315 307.512 231.475C307.512 232.925 307.106 234.172 306.294 235.216C305.482 236.26 304.322 237.13 302.814 237.826C301.364 238.522 299.624 239.015 297.594 239.305C295.564 239.653 293.331 239.827 290.895 239.827C287.473 239.827 284.283 239.363 281.325 238.435C278.425 237.449 275.902 235.999 273.756 234.085C271.61 232.171 269.928 229.764 268.71 226.864C267.492 223.964 266.883 220.571 266.883 216.685C266.883 212.857 267.492 209.58 268.71 206.854C269.986 204.07 271.639 201.808 273.669 200.068C275.757 198.27 278.106 196.965 280.716 196.153C283.326 195.283 285.994 194.848 288.72 194.848C291.794 194.848 294.578 195.312 297.072 196.24C299.624 197.168 301.799 198.444 303.597 200.068C305.453 201.692 306.874 203.635 307.86 205.897C308.846 208.159 309.339 210.624 309.339 213.292C309.339 215.264 308.788 216.772 307.686 217.816C306.584 218.86 305.047 219.527 303.075 219.817L281.412 223.123ZM288.807 205.636C286.603 205.636 284.747 206.303 283.239 207.637C281.789 208.971 280.919 210.856 280.629 213.292L295.419 210.856C295.361 210.276 295.187 209.696 294.897 209.116C294.607 208.478 294.201 207.898 293.679 207.376C293.157 206.854 292.49 206.448 291.678 206.158C290.866 205.81 289.909 205.636 288.807 205.636ZM336.99 194.848C339.484 194.848 341.63 195.167 343.428 195.805V181.711C344.066 181.537 344.965 181.363 346.125 181.189C347.343 181.015 348.648 180.928 350.04 180.928C352.94 180.928 355.028 181.421 356.304 182.407C357.58 183.335 358.218 185.162 358.218 187.888V229.126C358.218 231.852 356.942 234.027 354.39 235.651C352.708 236.753 350.533 237.71 347.865 238.522C345.255 239.392 342.21 239.827 338.73 239.827C331.132 239.827 325.216 237.971 320.982 234.259C316.748 230.489 314.631 224.892 314.631 217.468C314.631 213.64 315.211 210.305 316.371 207.463C317.531 204.621 319.097 202.272 321.069 200.416C323.099 198.56 325.477 197.168 328.203 196.24C330.929 195.312 333.858 194.848 336.99 194.848ZM343.515 207.376C342.877 207.086 342.181 206.854 341.427 206.68C340.673 206.506 339.89 206.419 339.078 206.419C336.062 206.419 333.713 207.347 332.031 209.203C330.407 211.001 329.595 213.756 329.595 217.468C329.595 221.122 330.378 223.819 331.944 225.559C333.51 227.299 335.743 228.169 338.643 228.169C339.687 228.169 340.644 228.053 341.514 227.821C342.384 227.589 343.051 227.328 343.515 227.038V207.376ZM367.435 196.327C368.073 196.153 368.972 195.979 370.132 195.805C371.35 195.631 372.655 195.544 374.047 195.544C376.947 195.544 379.035 196.037 380.311 197.023C381.587 197.951 382.225 199.778 382.225 202.504V221.644C382.225 224.022 382.805 225.733 383.965 226.777C385.125 227.763 386.807 228.256 389.011 228.256C390.345 228.256 391.418 228.14 392.23 227.908C393.1 227.676 393.767 227.444 394.231 227.212V196.327C394.869 196.153 395.768 195.979 396.928 195.805C398.146 195.631 399.451 195.544 400.843 195.544C403.743 195.544 405.831 196.037 407.107 197.023C408.383 197.951 409.021 199.778 409.021 202.504V229.387C409.021 232.287 407.803 234.462 405.367 235.912C403.337 237.188 400.901 238.145 398.059 238.783C395.275 239.479 392.23 239.827 388.924 239.827C385.792 239.827 382.892 239.479 380.224 238.783C377.614 238.087 375.352 237.014 373.438 235.564C371.524 234.114 370.045 232.258 369.001 229.996C367.957 227.676 367.435 224.892 367.435 221.644V196.327ZM441.909 206.506C440.459 206.506 439.067 206.738 437.733 207.202C436.457 207.666 435.326 208.362 434.34 209.29C433.412 210.218 432.658 211.378 432.078 212.77C431.498 214.104 431.208 215.67 431.208 217.468C431.208 221.064 432.223 223.732 434.253 225.472C436.283 227.212 438.806 228.082 441.822 228.082C443.562 228.082 445.099 227.879 446.433 227.473C447.767 227.009 448.927 226.545 449.913 226.081C451.015 226.893 451.827 227.763 452.349 228.691C452.929 229.619 453.219 230.75 453.219 232.084C453.219 234.404 452.059 236.26 449.739 237.652C447.477 239.044 444.229 239.74 439.995 239.74C436.341 239.74 433.035 239.276 430.077 238.348C427.177 237.362 424.683 235.941 422.595 234.085C420.565 232.171 418.999 229.851 417.897 227.125C416.795 224.341 416.244 221.122 416.244 217.468C416.244 213.64 416.853 210.305 418.071 207.463C419.347 204.621 421.058 202.272 423.204 200.416C425.35 198.56 427.815 197.168 430.599 196.24C433.441 195.312 436.428 194.848 439.56 194.848C443.736 194.848 446.955 195.602 449.217 197.11C451.479 198.618 452.61 200.561 452.61 202.939C452.61 204.041 452.349 205.085 451.827 206.071C451.305 206.999 450.696 207.811 450 208.507C449.014 208.043 447.825 207.608 446.433 207.202C445.041 206.738 443.533 206.506 441.909 206.506ZM478.402 196.762C479.04 196.588 479.939 196.414 481.099 196.24C482.317 196.066 483.622 195.979 485.014 195.979C487.914 195.979 490.002 196.472 491.278 197.458C492.554 198.386 493.192 200.213 493.192 202.939V238.348C492.554 238.522 491.626 238.696 490.408 238.87C489.248 239.044 487.972 239.131 486.58 239.131C483.68 239.131 481.592 238.667 480.316 237.739C479.04 236.753 478.402 234.897 478.402 232.171V196.762ZM477.706 184.408C477.706 182.204 478.431 180.348 479.881 178.84C481.389 177.332 483.361 176.578 485.797 176.578C488.233 176.578 490.176 177.332 491.626 178.84C493.134 180.348 493.888 182.204 493.888 184.408C493.888 186.612 493.134 188.468 491.626 189.976C490.176 191.484 488.233 192.238 485.797 192.238C483.361 192.238 481.389 191.484 479.881 189.976C478.431 188.468 477.706 186.612 477.706 184.408ZM523.14 194.848C525.634 194.848 527.78 195.167 529.578 195.805V181.711C530.216 181.537 531.115 181.363 532.275 181.189C533.493 181.015 534.798 180.928 536.19 180.928C539.09 180.928 541.178 181.421 542.454 182.407C543.73 183.335 544.368 185.162 544.368 187.888V229.126C544.368 231.852 543.092 234.027 540.54 235.651C538.858 236.753 536.683 237.71 534.015 238.522C531.405 239.392 528.36 239.827 524.88 239.827C517.282 239.827 511.366 237.971 507.132 234.259C502.898 230.489 500.781 224.892 500.781 217.468C500.781 213.64 501.361 210.305 502.521 207.463C503.681 204.621 505.247 202.272 507.219 200.416C509.249 198.56 511.627 197.168 514.353 196.24C517.079 195.312 520.008 194.848 523.14 194.848ZM529.665 207.376C529.027 207.086 528.331 206.854 527.577 206.68C526.823 206.506 526.04 206.419 525.228 206.419C522.212 206.419 519.863 207.347 518.181 209.203C516.557 211.001 515.745 213.756 515.745 217.468C515.745 221.122 516.528 223.819 518.094 225.559C519.66 227.299 521.893 228.169 524.793 228.169C525.837 228.169 526.794 228.053 527.664 227.821C528.534 227.589 529.201 227.328 529.665 227.038V207.376ZM553.932 196.762C554.57 196.588 555.469 196.414 556.629 196.24C557.847 196.066 559.152 195.979 560.544 195.979C563.444 195.979 565.532 196.472 566.808 197.458C568.084 198.386 568.722 200.213 568.722 202.939V238.348C568.084 238.522 567.156 238.696 565.938 238.87C564.778 239.044 563.502 239.131 562.11 239.131C559.21 239.131 557.122 238.667 555.846 237.739C554.57 236.753 553.932 234.897 553.932 232.171V196.762ZM553.236 184.408C553.236 182.204 553.961 180.348 555.411 178.84C556.919 177.332 558.891 176.578 561.327 176.578C563.763 176.578 565.706 177.332 567.156 178.84C568.664 180.348 569.418 182.204 569.418 184.408C569.418 186.612 568.664 188.468 567.156 189.976C565.706 191.484 563.763 192.238 561.327 192.238C558.891 192.238 556.919 191.484 555.411 189.976C553.961 188.468 553.236 186.612 553.236 184.408ZM621.899 217.294C621.899 220.774 621.348 223.906 620.246 226.69C619.202 229.474 617.665 231.852 615.635 233.824C613.663 235.738 611.285 237.217 608.501 238.261C605.717 239.305 602.585 239.827 599.105 239.827C595.625 239.827 592.493 239.334 589.709 238.348C586.925 237.304 584.518 235.825 582.488 233.911C580.516 231.939 578.979 229.561 577.877 226.777C576.833 223.993 576.311 220.832 576.311 217.294C576.311 213.872 576.862 210.769 577.964 207.985C579.066 205.201 580.603 202.852 582.575 200.938C584.605 198.966 587.012 197.458 589.796 196.414C592.58 195.37 595.683 194.848 599.105 194.848C602.527 194.848 605.63 195.399 608.414 196.501C611.198 197.545 613.576 199.053 615.548 201.025C617.578 202.939 619.144 205.288 620.246 208.072C621.348 210.856 621.899 213.93 621.899 217.294ZM599.105 206.419C596.669 206.419 594.784 207.376 593.45 209.29C592.116 211.146 591.449 213.814 591.449 217.294C591.449 220.948 592.116 223.703 593.45 225.559C594.784 227.357 596.669 228.256 599.105 228.256C601.541 228.256 603.426 227.328 604.76 225.472C606.094 223.616 606.761 220.89 606.761 217.294C606.761 213.814 606.094 211.146 604.76 209.29C603.426 207.376 601.541 206.419 599.105 206.419ZM693.668 238.348C693.03 238.522 692.102 238.696 690.884 238.87C689.724 239.044 688.448 239.131 687.056 239.131C684.156 239.131 682.068 238.667 680.792 237.739C679.516 236.753 678.878 234.897 678.878 232.171V211.378C678.878 209.638 678.414 208.391 677.486 207.637C676.558 206.825 675.34 206.419 673.832 206.419C672.846 206.419 671.889 206.593 670.961 206.941C670.091 207.289 669.337 207.695 668.699 208.159C668.699 208.391 668.699 208.623 668.699 208.855C668.757 209.029 668.786 209.203 668.786 209.377V238.348C668.148 238.522 667.22 238.696 666.002 238.87C664.842 239.044 663.566 239.131 662.174 239.131C659.274 239.131 657.186 238.667 655.91 237.739C654.634 236.753 653.996 234.897 653.996 232.171V211.378C653.996 209.638 653.474 208.391 652.43 207.637C651.444 206.825 650.226 206.419 648.776 206.419C647.674 206.419 646.717 206.593 645.905 206.941C645.093 207.231 644.426 207.521 643.904 207.811V238.348C643.266 238.522 642.338 238.696 641.12 238.87C639.96 239.044 638.684 239.131 637.292 239.131C634.392 239.131 632.304 238.667 631.028 237.739C629.752 236.753 629.114 234.897 629.114 232.171V205.984C629.114 204.418 629.433 203.142 630.071 202.156C630.767 201.17 631.695 200.271 632.855 199.459C634.827 198.067 637.263 196.965 640.163 196.153C643.063 195.283 646.137 194.848 649.385 194.848C651.763 194.848 654.025 195.167 656.171 195.805C658.375 196.443 660.434 197.429 662.348 198.763C664.088 197.661 666.031 196.733 668.177 195.979C670.381 195.225 673.02 194.848 676.094 194.848C678.298 194.848 680.444 195.138 682.532 195.718C684.678 196.298 686.563 197.226 688.187 198.502C689.869 199.72 691.203 201.373 692.189 203.461C693.175 205.491 693.668 207.985 693.668 210.943V238.348ZM720.872 229.039C721.858 229.039 722.931 228.952 724.091 228.778C725.309 228.546 726.208 228.256 726.788 227.908V220.948L720.524 221.47C718.9 221.586 717.566 221.934 716.522 222.514C715.478 223.094 714.956 223.964 714.956 225.124C714.956 226.284 715.391 227.241 716.261 227.995C717.189 228.691 718.726 229.039 720.872 229.039ZM720.176 194.848C723.308 194.848 726.15 195.167 728.702 195.805C731.312 196.443 733.516 197.429 735.314 198.763C737.17 200.039 738.591 201.692 739.577 203.722C740.563 205.694 741.056 208.043 741.056 210.769V230.257C741.056 231.765 740.621 233.012 739.751 233.998C738.939 234.926 737.953 235.738 736.793 236.434C733.023 238.696 727.716 239.827 720.872 239.827C717.798 239.827 715.014 239.537 712.52 238.957C710.084 238.377 707.967 237.507 706.169 236.347C704.429 235.187 703.066 233.708 702.08 231.91C701.152 230.112 700.688 228.024 700.688 225.646C700.688 221.644 701.877 218.57 704.255 216.424C706.633 214.278 710.316 212.944 715.304 212.422L726.701 211.204V210.595C726.701 208.913 725.947 207.724 724.439 207.028C722.989 206.274 720.872 205.897 718.088 205.897C715.942 205.897 713.796 206.129 711.65 206.593C709.562 207.057 707.677 207.637 705.995 208.333C705.241 207.811 704.603 207.028 704.081 205.984C703.559 204.882 703.298 203.751 703.298 202.591C703.298 201.083 703.646 199.894 704.342 199.024C705.096 198.096 706.227 197.313 707.735 196.675C709.417 196.037 711.389 195.573 713.651 195.283C715.971 194.993 718.146 194.848 720.176 194.848ZM785.769 225.82C785.769 230.228 784.116 233.679 780.81 236.173C777.504 238.667 772.632 239.914 766.194 239.914C763.758 239.914 761.496 239.74 759.408 239.392C757.32 239.044 755.522 238.522 754.014 237.826C752.564 237.072 751.404 236.144 750.534 235.042C749.722 233.94 749.316 232.635 749.316 231.127C749.316 229.735 749.606 228.575 750.186 227.647C750.766 226.661 751.462 225.849 752.274 225.211C753.956 226.139 755.87 226.98 758.016 227.734C760.22 228.43 762.743 228.778 765.585 228.778C767.383 228.778 768.746 228.517 769.674 227.995C770.66 227.473 771.153 226.777 771.153 225.907C771.153 225.095 770.805 224.457 770.109 223.993C769.413 223.529 768.253 223.152 766.629 222.862L764.019 222.34C758.973 221.354 755.203 219.817 752.709 217.729C750.273 215.583 749.055 212.538 749.055 208.594C749.055 206.448 749.519 204.505 750.447 202.765C751.375 201.025 752.68 199.575 754.362 198.415C756.044 197.255 758.045 196.356 760.365 195.718C762.743 195.08 765.353 194.761 768.195 194.761C770.341 194.761 772.342 194.935 774.198 195.283C776.112 195.573 777.765 196.037 779.157 196.675C780.549 197.313 781.651 198.154 782.463 199.198C783.275 200.184 783.681 201.373 783.681 202.765C783.681 204.099 783.42 205.259 782.898 206.245C782.434 207.173 781.825 207.956 781.071 208.594C780.607 208.304 779.911 208.014 778.983 207.724C778.055 207.376 777.04 207.086 775.938 206.854C774.836 206.564 773.705 206.332 772.545 206.158C771.443 205.984 770.428 205.897 769.5 205.897C767.586 205.897 766.107 206.129 765.063 206.593C764.019 206.999 763.497 207.666 763.497 208.594C763.497 209.232 763.787 209.754 764.367 210.16C764.947 210.566 766.049 210.943 767.673 211.291L770.37 211.9C775.938 213.176 779.882 214.945 782.202 217.207C784.58 219.411 785.769 222.282 785.769 225.82Z" fill="#8C296C"/>
</g>
</svg>
