<svg xmlns="http://www.w3.org/2000/svg" fill="none" viewBox="0 0 209 207">
  <defs/>
  <g id="Group">
    <path id="Vector" fill="url(#paint0_linear)" d="M97.5 46c2.6 1.9 6 2 8.8.6a31.7 31.7 0 0134.3 3.2l-3.8 3.6a4.2 4.2 0 001.7 7.1l24.6 6.5c3 .8 5.8-1.8 5.3-4.9L164 37.3c-.6-3.2-5-4.4-7.4-2.2l-3.8 3.5A48.7 48.7 0 0098.3 32c-5.5 2.9-6 10.6-.8 14z"/>
    <path id="Vector_2" fill="url(#paint1_linear)" d="M97.5 46c2.6 1.9 6 2 8.8.6a31.7 31.7 0 0125.5-1.7L128.6 27a46.5 46.5 0 00-30.3 5c-5.5 2.9-6 10.5-.8 14z"/>
    <path id="Vector_3" fill="url(#paint2_linear)" d="M111.6 161.5c-2.6-1.8-6-2-8.8-.5a31.7 31.7 0 01-34.3-3.2l3.8-3.6a4.2 4.2 0 00-1.7-7L46 140.6c-3-.8-5.8 1.8-5.3 4.8l4.4 24.8c.6 3.2 5 4.4 7.4 2.2l3.8-3.5a48.7 48.7 0 0054.5 6.7c5.5-3 6-10.6.8-14.2z"/>
    <g id="Group_2">
      <mask id="mask0" width="127" height="126" x="82" y="69" mask-type="alpha" maskUnits="userSpaceOnUse">
        <path id="Vector_4" fill="url(#paint3_linear)" d="M186.2 179.6l-62.5 11a22.7 22.7 0 01-26.3-18.2l-11-61.8A22.7 22.7 0 01105 84.4l62.5-11c12.4-2.2 24.2 6 26.4 18.3l10.9 61.8c2.1 12.2-6.2 24-18.6 26.1z"/>
      </mask>
      <g mask="url(#mask0)">
        <g id="Group_3">
          <path id="Union" fill="url(#paint4_linear)" d="M138.4 78.5l74.4-13.2c2.9-.5 5.7 1.5 6.2 4.4l1.8 9.9-2.4 4.6 1.4 8.4 3.6 2.2 2.7 15.2-2.6 3.2 1.6 9.5 3.7 2.4 2.7 15.2-3 3.2 1.6 9.3 4 2.7 1.8 9.9c.5 3-1.5 5.7-4.4 6.2L77.4 198.8c-3 .5-5.8-1.4-6.3-4.4l-1.7-9.8 1.7-3.7-1.8-10-2.6-1.5-2.7-15.2 2.7-2-.5-2.4 72.2-71.3z"/>
          <path id="Vector_5" fill="#F2F2F6" d="M138.5 94.1l82.3-14.5 2.6 15.2-82.2 14.5-2.7-15.2z"/>
          <path id="Vector_6" fill="#F2F2F6" d="M143.7 124.5l5.4 14.7 79.7-14L226 110l-82.4 14.5z"/>
          <path id="Union_2" fill="url(#paint5_linear)" d="M54.3 98.8c-.6-3 1.4-5.8 4.3-6.3l79.8-14 10.7 60.7-85 15-9.8-55.4z"/>
          <path id="Vector_7" fill="#fff" d="M129.8 92.2c-1.4.2-2.8-.7-3.1-2.2-.3-1.5.7-2.9 2.2-3.1a2.7 2.7 0 111 5.3z"/>
          <path id="Vector_8" fill="#fff" d="M133.6 113.4c-1.5.3-2.9-.7-3.2-2.1-.2-1.5.8-3 2.2-3.2a2.7 2.7 0 111 5.3z"/>
          <path id="Vector_9" fill="#fff" d="M137.3 134.7c-1.4.3-2.8-.7-3.1-2.2-.3-1.5.7-2.9 2.2-3.1a2.7 2.7 0 111 5.3z"/>
          <g id="Group_4" fill="#F2F2F6">
            <path id="Vector_10" d="M131.7 102.8c-1.5.3-2.9-.7-3.1-2.2-.3-1.4.7-2.8 2.2-3.1a2.7 2.7 0 111 5.3z"/>
            <path id="Vector_11" d="M135.5 124c-1.5.3-3-.6-3.2-2.1-.2-1.5.7-2.9 2.2-3.1a2.7 2.7 0 111 5.3z"/>
            <path id="Vector_12" d="M82 100.6c-1.5.3-2.9-.7-3.1-2.2-.3-1.4.7-2.8 2.1-3v-.1a2.7 2.7 0 111 5.3z"/>
            <path id="Vector_13" d="M85.8 121.9c-1.5.2-3-.7-3.2-2.2-.2-1.5.7-2.9 2.2-3.1a2.7 2.7 0 111 5.3z"/>
            <path id="Vector_14" d="M89.5 143.1c-1.5.3-2.9-.7-3.1-2.2-.3-1.4.7-2.8 2.1-3a2.7 2.7 0 111 5.2z"/>
          </g>
          <path id="Vector_15" fill="#fff" d="M83.9 111.2c-1.5.3-2.9-.7-3.2-2.1-.2-1.5.7-3 2.2-3.2a2.7 2.7 0 111 5.3z"/>
          <path id="Vector_16" fill="#fff" d="M87.6 132.5c-1.4.3-2.9-.7-3.1-2.2-.3-1.5.7-2.8 2.2-3.1a2.7 2.7 0 111 5.3z"/>
          <path id="Vector_17" fill="#F2F2F6" d="M80.6 139.2c-1.5.3-2.9-.7-3.1-2.2-.3-1.4.7-2.8 2.1-3v-.1a2.7 2.7 0 111 5.3z"/>
          <path id="Vector_18" fill="#fff" d="M98 97.8c-1.5.3-3-.7-3.2-2.2-.2-1.4.7-2.8 2.2-3.1a2.7 2.7 0 111 5.3z"/>
          <path id="Vector_19" fill="#fff" d="M101.7 119c-1.5.3-2.9-.7-3.1-2.1-.3-1.5.7-2.9 2.1-3.1a2.7 2.7 0 111 5.3z"/>
          <path id="Vector_20" fill="#fff" d="M105.4 140.3c-1.4.3-2.8-.7-3-2.2-.4-1.4.6-2.8 2-3h.1a2.7 2.7 0 111 5.2z"/>
          <path id="Vector_21" fill="#F2F2F6" d="M99.8 108.4c-1.4.3-2.9-.7-3.1-2.2-.3-1.4.7-2.8 2.2-3a2.7 2.7 0 111 5.2z"/>
          <path id="Vector_22" fill="#F2F2F6" d="M103.6 129.7c-1.5.3-3-.7-3.2-2.2-.2-1.5.7-2.9 2.2-3.1a2.7 2.7 0 111 5.3z"/>
          <path id="Vector_23" fill="#F2F2F6" d="M91 104.5c-1.6.3-3-.7-3.2-2.2-.3-1.4.7-2.8 2.2-3v-.1a2.7 2.7 0 111 5.3z"/>
          <path id="Vector_24" fill="#F2F2F6" d="M94.7 125.8c-1.5.2-3-.7-3.2-2.2-.2-1.5.7-2.9 2.2-3.1a2.7 2.7 0 111 5.3z"/>
          <path id="Vector_25" fill="#fff" d="M92.8 115.1c-1.5.3-2.9-.7-3.2-2.1-.2-1.5.8-2.9 2.2-3.2a2.7 2.7 0 111 5.3z"/>
          <path id="Vector_26" fill="#fff" d="M96.5 136.4c-1.4.3-2.8-.7-3.1-2.2-.3-1.4.7-2.8 2.2-3.1a2.7 2.7 0 111 5.3z"/>
          <path id="Vector_27" fill="#F2F2F6" d="M113.9 95c-1.5.3-3-.7-3.2-2.2-.2-1.5.7-2.9 2.2-3.1a2.7 2.7 0 111 5.3z"/>
          <path id="Vector_28" fill="#F2F2F6" d="M117.6 116.3c-1.5.2-2.9-.8-3.1-2.2-.3-1.5.7-2.9 2.2-3.2a2.7 2.7 0 111 5.4z"/>
          <path id="Vector_29" fill="#F2F2F6" d="M121.4 137.5c-1.5.3-3-.7-3.2-2.2-.2-1.4.7-2.8 2.2-3v-.1a2.7 2.7 0 111 5.3z"/>
          <path id="Vector_30" fill="#fff" d="M115.7 105.6c-1.4.3-2.8-.7-3.1-2.2-.3-1.4.7-2.8 2.2-3a2.7 2.7 0 111 5.2z"/>
          <path id="Vector_31" fill="#fff" d="M119.5 126.9c-1.5.2-2.9-.7-3.1-2.2-.3-1.5.7-2.9 2.1-3.1a2.7 2.7 0 111 5.3z"/>
          <path id="Vector_32" fill="#fff" d="M106.8 101.7c-1.4.3-2.8-.7-3.1-2.2-.3-1.4.7-2.8 2.2-3.1a2.7 2.7 0 111 5.3z"/>
          <path id="Vector_33" fill="#fff" d="M110.6 123c-1.5.2-2.9-.7-3.2-2.2-.2-1.5.7-2.9 2.2-3.1a2.7 2.7 0 111 5.3z"/>
          <path id="Vector_34" fill="#F2F2F6" d="M108.7 112.3c-1.5.3-2.9-.7-3.1-2.1-.3-1.5.7-3 2.1-3.2a2.7 2.7 0 111 5.3z"/>
          <path id="Vector_35" fill="#F2F2F6" d="M112.5 133.6c-1.5.3-3-.7-3.2-2.2a2.7 2.7 0 113.1 2.2z"/>
          <path id="Vector_36" fill="#F2F2F6" d="M122.8 98.9c-1.5.3-2.9-.7-3.1-2.2-.3-1.5.7-2.9 2.1-3.1a2.7 2.7 0 111 5.3z"/>
          <path id="Vector_37" fill="#F2F2F6" d="M126.6 120.2c-1.5.2-3-.8-3.2-2.2-.2-1.5.7-2.9 2.2-3.2a2.7 2.7 0 111 5.4z"/>
          <path id="Vector_38" fill="#fff" d="M124.7 109.5c-1.5.3-2.9-.7-3.2-2.2-.2-1.4.7-2.8 2.2-3a2.7 2.7 0 111 5.2z"/>
          <path id="Vector_39" fill="#fff" d="M128.4 130.8c-1.4.2-2.9-.7-3.1-2.2-.3-1.5.7-2.9 2.2-3.1a2.7 2.7 0 111 5.3z"/>
          <path id="Union_3" fill="#F2F2F6" d="M69.4 184.6l-2.7-15.2 164.8-29 2.6 15.1-164.7 29z"/>
        </g>
      </g>
    </g>
    <g id="Mask Group">
      <mask id="mask1" width="127" height="126" x="0" y="13" mask-type="alpha" maskUnits="userSpaceOnUse">
        <path id="Vector_40" fill="url(#paint6_linear)" d="M104.1 123.2l-62.5 11A22.7 22.7 0 0115.2 116L4.3 54A22.7 22.7 0 0123 28l62.5-11c12.4-2.2 24.2 6 26.3 18.2l11 61.8c2.1 12.3-6.2 24-18.6 26.2z"/>
      </mask>
      <g mask="url(#mask1)">
        <g id="Group_5">
          <path id="Union_4" fill="url(#paint7_radial)" d="M-11.8 23.2c-2.4.5-4 2.8-3.6 5.2L5.5 147c.4 2.4 2.7 4 5.2 3.6l128-22.6c2.5-.4 4.1-2.7 3.7-5.2l-21-118.4c-.3-2.4-2.7-4-5.1-3.6l-128 22.5z"/>
          <g id="Group 516">
            <g id="Vector_41" filter="url(#filter0_d)">
              <path fill="url(#paint8_linear)" d="M112.6 66l-52-20.3a4.5 4.5 0 00-4.6.8L14 83.3c-.5.6-.4 1.6.4 1.9l52 20.3c1.6.6 3.3.3 4.6-.8l41.9-36.9c.6-.5.4-1.5-.3-1.9z"/>
            </g>
            <g id="Vector_42" filter="url(#filter1_d)">
              <path fill="url(#paint9_linear)" d="M60.4 58a18 18 0 00-13.8 11.5l-1 4.7a18 18 0 0035.7 3.5V73l-.1-.4a18 18 0 00-20.8-14.6z"/>
            </g>
            <path id="Vector_43" fill="#fff" d="M45.6 74.2c12.3-2 24.6-.9 35.7 3.5.2-1.6.2-3.2 0-4.8-11-4-22.8-5.1-34.7-3.4-.5 1.5-.9 3-1 4.7z"/>
          </g>
        </g>
      </g>
    </g>
  </g>
  <defs>
    <linearGradient id="paint0_linear" x1="163.4" x2="119.5" y1="63.6" y2="32.6" gradientUnits="userSpaceOnUse">
      <stop offset=".5" stop-color="#F4B82B"/>
      <stop offset="1" stop-color="#F99C0D"/>
    </linearGradient>
    <linearGradient id="paint1_linear" x1="126.5" x2="111" y1="35.2" y2="38" gradientUnits="userSpaceOnUse">
      <stop stop-color="#EDA71B" stop-opacity="0"/>
      <stop offset="1" stop-color="orange"/>
    </linearGradient>
    <linearGradient id="paint2_linear" x1="99.5" x2="44.5" y1="174.2" y2="142.3" gradientUnits="userSpaceOnUse">
      <stop stop-color="#631D4D"/>
      <stop offset=".4" stop-color="#8D2A6D"/>
    </linearGradient>
    <linearGradient id="paint3_linear" x1="99.2" x2="190.2" y1="99.9" y2="164.4" gradientUnits="userSpaceOnUse">
      <stop stop-color="#EEF4FF"/>
      <stop offset="1" stop-color="#CFE7FD"/>
    </linearGradient>
    <linearGradient id="paint4_linear" x1="90.9" x2="71.2" y1="132.4" y2="195" gradientUnits="userSpaceOnUse">
      <stop stop-color="#D80027"/>
      <stop offset="1" stop-color="#870019"/>
    </linearGradient>
    <linearGradient id="paint5_linear" x1="95.8" x2="62.5" y1="86" y2="130.4" gradientUnits="userSpaceOnUse">
      <stop stop-color="#0052B4"/>
      <stop offset="1" stop-color="#003677"/>
    </linearGradient>
    <linearGradient id="paint6_linear" x1="17.1" x2="108.1" y1="43.5" y2="107.9" gradientUnits="userSpaceOnUse">
      <stop stop-color="#76CCF8"/>
      <stop offset=".8" stop-color="#518EF8"/>
      <stop offset="1" stop-color="#4981F8"/>
    </linearGradient>
    <linearGradient id="paint8_linear" x1="52.2" x2="47.2" y1="55" y2="102.6" gradientUnits="userSpaceOnUse">
      <stop stop-color="#FFDA44"/>
      <stop offset="1" stop-color="#FFA70F"/>
    </linearGradient>
    <linearGradient id="paint9_linear" x1="64.9" x2="56.9" y1="59" y2="93" gradientUnits="userSpaceOnUse">
      <stop stop-color="#0069E6"/>
      <stop offset="1" stop-color="#003370"/>
    </linearGradient>
    <filter id="filter0_d" width="111.6" height="72.4" x="7.7" y="40.3" color-interpolation-filters="sRGB" filterUnits="userSpaceOnUse">
      <feFlood flood-opacity="0" result="BackgroundImageFix"/>
      <feColorMatrix in="SourceAlpha" result="hardAlpha" type="matrix" values="0 0 0 0 0 0 0 0 0 0 0 0 0 0 0 0 0 0 127 0"/>
      <feOffset dy="1"/>
      <feGaussianBlur stdDeviation="3"/>
      <feColorMatrix type="matrix" values="0 0 0 0 0 0 0 0 0 0 0 0 0 0 0 0 0 0 0.25 0"/>
      <feBlend in2="BackgroundImageFix" mode="normal" result="effect1_dropShadow"/>
      <feBlend in="SourceGraphic" in2="effect1_dropShadow" mode="normal" result="shape"/>
    </filter>
    <filter id="filter1_d" width="47.8" height="47.9" x="39.6" y="52.6" color-interpolation-filters="sRGB" filterUnits="userSpaceOnUse">
      <feFlood flood-opacity="0" result="BackgroundImageFix"/>
      <feColorMatrix in="SourceAlpha" result="hardAlpha" type="matrix" values="0 0 0 0 0 0 0 0 0 0 0 0 0 0 0 0 0 0 127 0"/>
      <feOffset dy="1"/>
      <feGaussianBlur stdDeviation="3"/>
      <feColorMatrix type="matrix" values="0 0 0 0 0 0 0 0 0 0 0 0 0 0 0 0 0 0 0.24 0"/>
      <feBlend in2="BackgroundImageFix" mode="normal" result="effect1_dropShadow"/>
      <feBlend in="SourceGraphic" in2="effect1_dropShadow" mode="normal" result="shape"/>
    </filter>
    <radialGradient id="paint7_radial" cx="0" cy="0" r="1" gradientTransform="matrix(-57.22257 100.06603 -155.10357 -88.69569 83.6 20.7)" gradientUnits="userSpaceOnUse">
      <stop offset=".5" stop-color="#62943D"/>
      <stop offset="1" stop-color="#3C6A1B"/>
    </radialGradient>
  </defs>
</svg>
