<svg width="772" height="752" viewBox="0 0 772 752" fill="none" xmlns="http://www.w3.org/2000/svg">
<g id="smartskills 1" clip-path="url(#clip0)">
<g id="Vector" filter="url(#filter0_i)">
<path d="M403.314 385.961L384.151 464.122L381.151 476.659C375.951 498.391 350.28 508.368 332.154 495.303C332.154 495.303 332.15 495.296 332.144 495.295C331.254 494.649 330.433 493.98 329.693 493.289C329.693 493.289 329.693 493.289 329.688 493.288C325.069 488.972 319.304 485.757 312.716 484.181C291.82 479.181 270.828 492.587 266.775 513.943C266.343 516.211 266.129 518.471 266.119 520.711C266.743 536.794 277.752 551.297 293.841 555.725C300.579 557.577 307.367 557.49 313.624 555.811C313.63 555.812 313.631 555.807 313.637 555.808C314.622 555.548 315.669 555.343 316.764 555.184C331.963 553.029 345.306 561.978 350.61 574.825C353.492 581.056 354.436 588.311 352.668 595.7L331.164 685.577L542.273 737.355C591.279 749.373 640.753 719.389 652.769 670.389L704.829 458.104L614.273 436.437C597.53 432.431 581.627 446.063 583.37 462.96C583.492 463.746 583.647 464.49 583.836 465.188C584.538 467.718 585.024 470.323 585.272 472.973C585.909 478.46 585.542 484.166 584.013 489.849C577.953 512.393 555.228 526.652 532.302 522.276C511.966 518.396 497.711 501.575 495.944 482.265C495.348 477.116 495.645 471.777 496.954 466.45C498.872 458.632 502.729 451.806 507.883 446.348C508.39 445.813 508.871 445.218 509.346 444.576C511.729 441.302 513.139 437.705 513.678 434.062C514.734 422.498 507.211 410.82 494.736 407.835L403.314 385.961Z" fill="url(#paint0_linear)"/>
</g>
<g id="Vector_2" filter="url(#filter1_i)">
<path d="M478.393 79.1898L455.756 171.091C454.391 176.628 454.959 182.084 456.949 186.848C461.474 195.899 471.322 201.959 482.406 200.265C483.199 200.145 483.955 199.988 484.656 199.789C492.531 197.553 501.14 197.439 509.663 199.96C528.354 205.491 541.017 222.527 541.732 241.353C542.064 245.381 541.853 249.507 541.035 253.635C536.037 278.939 511.004 294.67 486.243 288.57C478.425 286.643 471.596 282.776 466.147 277.611C466.147 277.61 466.147 277.61 466.147 277.61C465.614 277.107 465.028 276.626 464.387 276.158C464.387 276.158 464.387 276.158 464.382 276.156C450.403 265.937 430.493 273.625 426.348 290.438L420.259 315.153L405.095 378.53L496.393 400.924C512.922 404.978 522.565 420.872 520.399 436.196C519.895 441.374 518.055 446.527 514.705 451.185C514.058 452.08 513.382 452.905 512.69 453.65C512.69 453.652 512.689 453.653 512.683 453.653C508.368 458.269 505.154 464.037 503.578 470.625C502.599 474.716 502.326 478.811 502.683 482.783C504.526 498.579 516.305 512.233 533.026 515.507C551.944 519.211 570.832 507.837 576.408 489.388C577.865 484.546 578.319 479.668 577.886 474.963C577.666 473.1 577.305 471.266 576.811 469.475C576.544 468.495 576.333 467.45 576.169 466.352C576.169 466.351 576.17 466.35 576.164 466.348C576.101 465.928 576.05 465.509 576.009 465.095C572.84 442.955 593.522 424.744 615.272 430.079L706.202 452.379L757.064 239.807C768.806 190.735 738.541 141.435 689.469 129.694L478.393 79.1898Z" fill="url(#paint1_linear)"/>
</g>
<g id="Vector_3" filter="url(#filter2_i)">
<path d="M296.616 279.472C294.243 264.305 282.697 251.383 266.505 248.196C247.597 244.473 228.691 255.826 223.098 274.271C221.489 279.579 221.095 284.934 221.749 290.058C221.968 291.439 222.261 292.801 222.629 294.139C222.897 295.12 223.113 296.169 223.276 297.27L223.339 297.737C223.383 297.969 223.42 298.202 223.452 298.438C226.688 320.637 205.957 338.908 184.173 333.539L95.0252 311.576L93.2636 311.155L42.3809 523.814C30.6395 572.886 60.905 622.182 109.977 633.924L321.373 684.504L343.86 592.813C345.198 587.371 344.66 582.005 342.754 577.305C338.353 567.955 328.343 561.624 317.035 563.35C316.247 563.471 315.491 563.629 314.789 563.829C306.909 566.066 298.305 566.179 289.782 563.661C270.504 557.95 257.642 540.014 257.681 520.499C257.558 517.159 257.818 513.754 258.486 510.352C263.466 485.048 288.477 469.29 313.245 475.362C321.065 477.28 327.89 481.137 333.346 486.296C333.88 486.798 334.476 487.285 335.117 487.753C349.106 497.955 369.013 490.253 373.142 473.433L375.911 462.13L394.293 385.306L303.017 362.817C286.619 358.781 277.021 343.09 279.002 327.881C279.442 322.55 281.282 317.228 284.74 312.436C284.741 312.435 284.741 312.434 284.741 312.433C285.394 311.535 286.058 310.711 286.75 309.968C286.75 309.966 286.756 309.966 286.756 309.965C291.072 305.349 294.286 299.58 295.862 292.992C296.953 288.432 297.17 283.867 296.616 279.472Z" fill="url(#paint2_linear)"/>
</g>
<g id="Vector_4" filter="url(#filter3_i)">
<path fill-rule="evenodd" clip-rule="evenodd" d="M275.477 90.6217L247.059 83.8222C231.429 80.0824 215.705 89.7341 211.966 105.362C208.227 120.989 217.879 136.713 233.509 140.453L261.927 147.252L255.127 175.672C251.388 191.3 261.041 207.023 276.666 210.762C292.296 214.502 308.02 204.85 311.76 189.222L318.559 160.803L346.977 167.602C362.607 171.342 378.327 161.689 382.066 146.061C385.806 130.434 376.157 114.711 360.527 110.972L332.109 104.172L338.909 75.7523C342.649 60.1247 332.996 44.4011 317.366 40.6614C301.741 36.9227 286.016 46.5744 282.277 62.202L275.477 90.6217Z" fill="#862E74"/>
</g>
</g>
<defs>
<filter id="filter0_i" x="231.089" y="361.98" width="476.74" height="401.044" filterUnits="userSpaceOnUse" color-interpolation-filters="sRGB">
<feFlood flood-opacity="0" result="BackgroundImageFix"/>
<feBlend mode="normal" in="SourceGraphic" in2="BackgroundImageFix" result="shape"/>
<feColorMatrix in="SourceAlpha" type="matrix" values="0 0 0 0 0 0 0 0 0 0 0 0 0 0 0 0 0 0 127 0" result="hardAlpha"/>
<feOffset dx="3" dy="4"/>
<feGaussianBlur stdDeviation="4"/>
<feComposite in2="hardAlpha" operator="arithmetic" k2="-1" k3="1"/>
<feColorMatrix type="matrix" values="0 0 0 0 1 0 0 0 0 0.988235 0 0 0 0 0.917647 0 0 0 0.4 0"/>
<feBlend mode="normal" in2="shape" result="effect1_innerShadow"/>
</filter>
<filter id="filter1_i" x="381.015" y="78.8105" width="400.309" height="476.503" filterUnits="userSpaceOnUse" color-interpolation-filters="sRGB">
<feFlood flood-opacity="0" result="BackgroundImageFix"/>
<feBlend mode="normal" in="SourceGraphic" in2="BackgroundImageFix" result="shape"/>
<feColorMatrix in="SourceAlpha" type="matrix" values="0 0 0 0 0 0 0 0 0 0 0 0 0 0 0 0 0 0 127 0" result="hardAlpha"/>
<feOffset dx="3" dy="4"/>
<feGaussianBlur stdDeviation="4"/>
<feComposite in2="hardAlpha" operator="arithmetic" k2="-1" k3="1"/>
<feColorMatrix type="matrix" values="0 0 0 0 1 0 0 0 0 0.986818 0 0 0 0 0.917615 0 0 0 0.4 0"/>
<feBlend mode="normal" in2="shape" result="effect1_innerShadow"/>
</filter>
<filter id="filter2_i" x="21.1221" y="212.367" width="400.288" height="476.438" filterUnits="userSpaceOnUse" color-interpolation-filters="sRGB">
<feFlood flood-opacity="0" result="BackgroundImageFix"/>
<feBlend mode="normal" in="SourceGraphic" in2="BackgroundImageFix" result="shape"/>
<feColorMatrix in="SourceAlpha" type="matrix" values="0 0 0 0 0 0 0 0 0 0 0 0 0 0 0 0 0 0 127 0" result="hardAlpha"/>
<feOffset dx="3" dy="4"/>
<feGaussianBlur stdDeviation="4"/>
<feComposite in2="hardAlpha" operator="arithmetic" k2="-1" k3="1"/>
<feColorMatrix type="matrix" values="0 0 0 0 1 0 0 0 0 0.988235 0 0 0 0 0.917647 0 0 0 0.4 0"/>
<feBlend mode="normal" in2="shape" result="effect1_innerShadow"/>
</filter>
<filter id="filter3_i" x="191.616" y="20.3115" width="213.8" height="214.8" filterUnits="userSpaceOnUse" color-interpolation-filters="sRGB">
<feFlood flood-opacity="0" result="BackgroundImageFix"/>
<feBlend mode="normal" in="SourceGraphic" in2="BackgroundImageFix" result="shape"/>
<feColorMatrix in="SourceAlpha" type="matrix" values="0 0 0 0 0 0 0 0 0 0 0 0 0 0 0 0 0 0 127 0" result="hardAlpha"/>
<feOffset dx="3" dy="4"/>
<feGaussianBlur stdDeviation="4"/>
<feComposite in2="hardAlpha" operator="arithmetic" k2="-1" k3="1"/>
<feColorMatrix type="matrix" values="0 0 0 0 1 0 0 0 0 0.988235 0 0 0 0 0.917647 0 0 0 0.4 0"/>
<feBlend mode="normal" in2="shape" result="effect1_innerShadow"/>
</filter>
<linearGradient id="paint0_linear" x1="406.701" y1="310.188" x2="629.952" y2="830.686" gradientUnits="userSpaceOnUse">
<stop stop-color="#862E74"/>
<stop offset="1" stop-color="#510C43"/>
</linearGradient>
<linearGradient id="paint1_linear" x1="451.267" y1="3.71897" x2="753.206" y2="561.336" gradientUnits="userSpaceOnUse">
<stop stop-color="#FCB72E"/>
<stop offset="1" stop-color="#FF964D"/>
</linearGradient>
<linearGradient id="paint2_linear" x1="41.5254" y1="228.178" x2="396.879" y2="780.855" gradientUnits="userSpaceOnUse">
<stop stop-color="#FCB72E"/>
<stop offset="1" stop-color="#FF964D"/>
</linearGradient>
<clipPath id="clip0">
<rect width="772" height="752" fill="white"/>
</clipPath>
</defs>
</svg>
