<svg xmlns="http://www.w3.org/2000/svg" fill="none" viewBox="0 0 786 778">
  <defs/>
  <g id="Group">
    <path id="Vector" fill="url(#paint0_linear)" d="M398 626.2a34.7 34.7 0 00-35.5-5.7 129 129 0 01-137.8-27.3l17.1-12.7a17 17 0 00-4.3-29.6l-96.8-36.2a17.2 17.2 0 00-23.3 17.4l7.5 102.2c1.2 13.4 18.3 20.1 29 12l16.7-12.5c38.5 41 94.1 66.3 153 63.5 23-1 45-6 65.1-14.2a33.7 33.7 0 009.2-57z"/>
    <path id="Vector_2" fill="url(#paint1_linear)" d="M398 626.2a34.7 34.7 0 00-35.5-5.6 129 129 0 01-104-3.7l5.4 73.7c19.1 5.3 39.2 7.7 59.6 6.7 23.1-1 45-6 65.2-14.2a33.7 33.7 0 009.2-57z"/>
    <path id="Vector_3" fill="url(#paint2_linear)" d="M388 152.6a34.7 34.7 0 0035.5 5.6 129 129 0 01137.7 27.3l-17 12.8a17 17 0 004.3 29.6l96.8 36.2c12 4.5 24.4-5 23.3-17.5l-7.5-102.2c-1.2-13.3-18.3-20-29-12L615.3 145a198.4 198.4 0 00-153-63.5c-23 1-45 6-65.2 14.2a33.7 33.7 0 00-9.2 56.9z"/>
    <g id="Group_2">
      <g id="Mask Group">
        <mask id="mask0" width="477" height="472" x="309" y="285" mask-type="alpha" maskUnits="userSpaceOnUse">
          <path id="Vector_4" fill="url(#paint3_linear)" d="M692.6 730.7l-257.8 19a92.3 92.3 0 01-99.3-84.7l-18.8-255a92.3 92.3 0 0185.8-98.3l257.8-19a92.3 92.3 0 0199.3 84.7l18.8 255a92.3 92.3 0 01-85.8 98.3z"/>
        </mask>
        <g mask="url(#mask0)">
          <g id="Group_3">
            <path id="Union" fill="url(#paint4_radial)" d="M264.1 278.3c-10 .7-17.6 9.4-16.8 19.5l36 488.5c.7 10 9.5 17.6 19.6 16.8l528-39c10.1-.7 17.7-9.4 17-19.5l-36-488.5c-.8-10-9.6-17.6-19.6-16.8l-528.2 39z"/>
            <g id="Group 516">
              <g id="Vector_5" filter="url(#filter0_d)">
                <path fill="url(#paint5_linear)" d="M750.3 502.3L548 398.8c-6-3.1-13.3-2.6-18.9 1.4L344.2 532.3c-2.8 2-2.4 6.2.6 7.8l202.3 103.5c6 3.1 13.4 2.6 19-1.4l184.8-132c2.8-2 2.5-6.3-.6-7.9z"/>
              </g>
              <g id="Vector_6" filter="url(#filter1_d)">
                <path fill="url(#paint6_linear)" d="M542.2 448.4a73 73 0 00-60.6 41.3l-6 18.6A73.2 73.2 0 00553 594a73 73 0 0066-57l1.6-19.5-.1-1.8a73 73 0 00-78.2-67.4z"/>
              </g>
              <path id="Vector_7" fill="#fff" d="M475.6 508.3c50.7-3.4 100 6.6 143.3 28.8 1.4-6.2 2-12.8 1.6-19.5-42.4-20.4-90-30-138.9-27.9-2.8 5.8-4.8 12-6 18.6z"/>
            </g>
          </g>
        </g>
      </g>
      <path id="Vector_8" fill="url(#paint7_linear)" d="M773.9 570.8l4.5 61.5a92.3 92.3 0 01-85.8 98.4l-257.8 19a92.3 92.3 0 01-99.3-84.7l-18.8-255a92.3 92.3 0 0185.8-98.3l62.2-4.6L774 570.8z"/>
    </g>
    <g id="Group_4">
      <mask id="mask1" width="477" height="471" x="0" y="22" mask-type="alpha" maskUnits="userSpaceOnUse">
        <path id="Vector_9" fill="url(#paint8_linear)" d="M383.5 467l-257.8 19a92.3 92.3 0 01-99.3-84.6l-18.8-255A92.3 92.3 0 0193.4 48l257.8-19a92.3 92.3 0 0199.3 84.7l18.8 255a92.3 92.3 0 01-85.8 98.4z"/>
      </mask>
      <g mask="url(#mask1)">
        <g id="Group_5">
          <path id="Union_2" fill="url(#paint9_linear)" d="M231 37.5L537.9 15a22 22 0 0123.5 20.3l3 40.7-11.6 17.7 2.6 34.5 13.6 10.4 4.7 62.7-12 11.9 2.8 39.3 13.8 11.4 4.6 62.6-13.5 11.6 2.9 38.5 15.2 12.5 3 40.7a22 22 0 01-20.3 23.6l-635.6 46.9A22 22 0 01-89 479.9l-3-40.7 8.3-14.3-3-41.1-9.9-7.2-4.6-62.7 11.5-7-.8-10L231 37.6z"/>
          <path id="Vector_10" fill="#F2F2F6" d="M225.1 101l339.3-25 4.6 62.5-339.3 25-4.6-62.6z"/>
          <path id="Vector_11" fill="#F2F2F6" d="M234 226.2l15.5 61.8 328.8-24.2-4.6-62.7-339.8 25.1z"/>
          <path id="Union_3" fill="url(#paint10_linear)" d="M-118 85.3a22 22 0 0120.2-23.5L231 37.5 249.5 288l-350.7 26-16.9-228.7z"/>
          <path id="Vector_12" fill="#fff" d="M190.9 89.6A11 11 0 01179 79.5a11 11 0 0110-11.8h.2a11 11 0 111.6 22z"/>
          <path id="Vector_13" fill="#fff" d="M197.4 177.3a11 11 0 01-11.9-10.1 11 11 0 0110.1-11.8h.1a11 11 0 111.7 21.9z"/>
          <path id="Vector_14" fill="#fff" d="M203.8 265a11 11 0 01-11.8-10.2 11 11 0 0110.1-11.7h.1a11 11 0 111.6 21.9z"/>
          <g id="Group_6" fill="#F2F2F6">
            <path id="Vector_15" d="M194.1 133.5a11 11 0 01-11.8-10.2 11 11 0 0110-11.7h.2a11 11 0 111.6 21.9z"/>
            <path id="Vector_16" d="M200.6 221.2a11 11 0 01-11.8-10.2 11 11 0 0110-11.8h.2a11 11 0 111.6 22z"/>
            <path id="Vector_17" d="M-6.4 104.2A11 11 0 01-18.2 94a11 11 0 0110-11.7h.2a11 11 0 111.6 21.9z"/>
            <path id="Vector_18" d="M0 191.9a11 11 0 01-11.8-10.2A11 11 0 01-1.7 170h.2A11 11 0 110 191.8z"/>
            <path id="Vector_19" d="M6.5 279.5a11 11 0 01-11.8-10.1 11 11 0 0110.1-11.8H5a11 11 0 111.6 22z"/>
          </g>
          <path id="Vector_20" fill="#fff" d="M-3.2 148A11 11 0 01-15 138 11 11 0 01-4.9 126h.1a11 11 0 111.6 22z"/>
          <path id="Vector_21" fill="#fff" d="M3.3 235.7a11 11 0 01-11.8-10.1 11 11 0 0110-11.8h.2a11 11 0 111.6 21.9z"/>
          <path id="Vector_22" fill="#fff" d="M59.4 99.3a11 11 0 01-11.9-10.1 11 11 0 0110.1-11.8h.1a11 11 0 111.7 22z"/>
          <path id="Vector_23" fill="#fff" d="M65.8 187A11 11 0 0154 177 11 11 0 0164.1 165h.1a11 11 0 111.6 22z"/>
          <path id="Vector_24" fill="#fff" d="M72.3 274.7a11 11 0 01-11.8-10.2 11 11 0 0110-11.7h.2a11 11 0 111.6 21.9z"/>
          <path id="Vector_25" fill="#F2F2F6" d="M62.6 143.2A11 11 0 0150.8 133a11 11 0 0110-11.7h.2a11 11 0 111.6 21.9z"/>
          <path id="Vector_26" fill="#F2F2F6" d="M69 230.8a11 11 0 01-11.8-10.1 11 11 0 0110.1-11.8h.1a11 11 0 111.7 22z"/>
          <path id="Vector_27" fill="#F2F2F6" d="M28.1 123.7a11 11 0 01-11.8-10.2 11 11 0 0110-11.7h.2a11 11 0 111.6 21.9z"/>
          <path id="Vector_28" fill="#F2F2F6" d="M34.6 211.3a11 11 0 01-11.9-10.1 11 11 0 0110.1-11.8h.1a11 11 0 111.7 22z"/>
          <path id="Vector_29" fill="#fff" d="M31.3 167.5a11 11 0 01-11.8-10.1 11 11 0 0110.1-11.8h.1a11 11 0 111.6 22z"/>
          <path id="Vector_30" fill="#fff" d="M37.8 255.2A11 11 0 0126 245a11 11 0 0110-11.7h.2a11 11 0 111.6 21.9z"/>
          <path id="Vector_31" fill="#F2F2F6" d="M125 94.5a11 11 0 01-11.8-10.2 11 11 0 0110-11.7h.2a11 11 0 111.6 21.9z"/>
          <path id="Vector_32" fill="#F2F2F6" d="M131.5 182.2a11 11 0 01-11.8-10.2 11 11 0 0110-11.8h.2a11 11 0 111.6 22z"/>
          <path id="Vector_33" fill="#F2F2F6" d="M138 269.8a11 11 0 01-11.9-10.1 11 11 0 0110.1-11.8h.1a11 11 0 111.7 22z"/>
          <path id="Vector_34" fill="#fff" d="M128.2 138.3a11 11 0 01-11.8-10.1 11 11 0 0110.1-11.8h.1a11 11 0 111.6 22z"/>
          <path id="Vector_35" fill="#fff" d="M134.7 226a11 11 0 01-11.8-10.1 11 11 0 0110-11.8h.2a11 11 0 111.6 21.9z"/>
          <path id="Vector_36" fill="#fff" d="M93.8 118.8a11 11 0 01-11.9-10.1A11 11 0 0192 96.9h.1a11 11 0 111.7 22z"/>
          <path id="Vector_37" fill="#fff" d="M100.2 206.5a11 11 0 01-11.8-10.2 11 11 0 0110.1-11.7h.1a11 11 0 111.6 21.9z"/>
          <path id="Vector_38" fill="#F2F2F6" d="M97 162.7a11 11 0 01-11.8-10.2 11 11 0 0110-11.8h.2a11 11 0 111.6 22z"/>
          <path id="Vector_39" fill="#F2F2F6" d="M103.5 250.3a11 11 0 01-11.9-10.1 11 11 0 0110.1-11.8h.1a11 11 0 111.7 22z"/>
          <path id="Vector_40" fill="#F2F2F6" d="M159.6 114a11 11 0 01-11.8-10.2 11 11 0 0110-11.7h.2a11 11 0 111.6 21.9z"/>
          <path id="Vector_41" fill="#F2F2F6" d="M166 201.6a11 11 0 01-11.7-10.1 11 11 0 0110-11.8h.2a11 11 0 111.6 22z"/>
          <path id="Vector_42" fill="#fff" d="M162.8 157.8a11 11 0 01-11.8-10.1 11 11 0 0110.1-11.8h.1a11 11 0 111.7 21.9z"/>
          <path id="Vector_43" fill="#fff" d="M169.3 245.5a11 11 0 01-11.8-10.2 11 11 0 0110.1-11.7h.1a11 11 0 111.6 21.9z"/>
          <path id="Union_4" fill="#F2F2F6" d="M-92 439.2l-4.6-62.7 679.5-50 4.6 62.5L-92 439.2z"/>
        </g>
      </g>
    </g>
  </g>
  <defs>
    <linearGradient id="paint0_linear" x1="138" x2="303.1" y1="528" y2="672" gradientUnits="userSpaceOnUse">
      <stop offset=".6" stop-color="#F3B72A"/>
      <stop offset="1" stop-color="#F78318"/>
    </linearGradient>
    <linearGradient id="paint1_linear" x1="275.9" x2="339.8" y1="658.3" y2="653.6" gradientUnits="userSpaceOnUse">
      <stop stop-color="#EDA71B" stop-opacity="0"/>
      <stop offset="1" stop-color="orange"/>
    </linearGradient>
    <linearGradient id="paint2_linear" x1="476.5" x2="652" y1="104.5" y2="257.6" gradientUnits="userSpaceOnUse">
      <stop stop-color="#631D4C"/>
      <stop offset=".4" stop-color="#8C296C"/>
    </linearGradient>
    <linearGradient id="paint3_linear" x1="372.8" x2="715" y1="372.1" y2="670.7" gradientUnits="userSpaceOnUse">
      <stop stop-color="#76CCF8"/>
      <stop offset=".8" stop-color="#518EF8"/>
      <stop offset="1" stop-color="#4981F8"/>
    </linearGradient>
    <linearGradient id="paint5_linear" x1="510.4" x2="470.6" y1="433.3" y2="624.1" gradientUnits="userSpaceOnUse">
      <stop stop-color="#FFDA44"/>
      <stop offset="1" stop-color="#FFA70F"/>
    </linearGradient>
    <linearGradient id="paint6_linear" x1="560.3" x2="513.6" y1="454.5" y2="589.2" gradientUnits="userSpaceOnUse">
      <stop stop-color="#0069E6"/>
      <stop offset="1" stop-color="#003370"/>
    </linearGradient>
    <linearGradient id="paint7_linear" x1="570" x2="185.5" y1="648.7" y2="313.3" gradientUnits="userSpaceOnUse">
      <stop stop-opacity="0"/>
      <stop offset="1" stop-opacity=".2"/>
    </linearGradient>
    <linearGradient id="paint8_linear" x1="63.7" x2="405.9" y1="108.5" y2="407" gradientUnits="userSpaceOnUse">
      <stop stop-color="#EEF4FF"/>
      <stop offset="1" stop-color="#CFE7FD"/>
    </linearGradient>
    <linearGradient id="paint9_linear" x1="16.7" x2="-88.8" y1="236.5" y2="482" gradientUnits="userSpaceOnUse">
      <stop stop-color="#D92243"/>
      <stop offset="1" stop-color="#870019"/>
    </linearGradient>
    <linearGradient id="paint10_linear" x1="55.6" x2="-97.8" y1="50.5" y2="216.7" gradientUnits="userSpaceOnUse">
      <stop stop-color="#2165B7"/>
      <stop offset="1" stop-color="#003677"/>
    </linearGradient>
    <filter id="filter0_d" width="440.8" height="291" x="327.1" y="376.7" color-interpolation-filters="sRGB" filterUnits="userSpaceOnUse">
      <feFlood flood-opacity="0" result="BackgroundImageFix"/>
      <feColorMatrix in="SourceAlpha" result="hardAlpha" type="matrix" values="0 0 0 0 0 0 0 0 0 0 0 0 0 0 0 0 0 0 127 0"/>
      <feOffset dy="1"/>
      <feGaussianBlur stdDeviation="3"/>
      <feColorMatrix type="matrix" values="0 0 0 0 0 0 0 0 0 0 0 0 0 0 0 0 0 0 0.25 0"/>
      <feBlend in2="BackgroundImageFix" mode="normal" result="effect1_dropShadow"/>
      <feBlend in="SourceGraphic" in2="effect1_dropShadow" mode="normal" result="shape"/>
    </filter>
    <filter id="filter1_d" width="168.4" height="168.4" x="463.3" y="438" color-interpolation-filters="sRGB" filterUnits="userSpaceOnUse">
      <feFlood flood-opacity="0" result="BackgroundImageFix"/>
      <feColorMatrix in="SourceAlpha" result="hardAlpha" type="matrix" values="0 0 0 0 0 0 0 0 0 0 0 0 0 0 0 0 0 0 127 0"/>
      <feOffset dy="1"/>
      <feGaussianBlur stdDeviation="3"/>
      <feColorMatrix type="matrix" values="0 0 0 0 0 0 0 0 0 0 0 0 0 0 0 0 0 0 0.24 0"/>
      <feBlend in2="BackgroundImageFix" mode="normal" result="effect1_dropShadow"/>
      <feBlend in="SourceGraphic" in2="effect1_dropShadow" mode="normal" result="shape"/>
    </filter>
    <radialGradient id="paint4_radial" cx="0" cy="0" r="1" gradientTransform="matrix(-272.90531 381.9924 -592.09014 -423.0046 651.6 306.9)" gradientUnits="userSpaceOnUse">
      <stop offset=".5" stop-color="#6D9C4B"/>
      <stop offset="1" stop-color="#4C772C"/>
    </radialGradient>
  </defs>
</svg>
