<svg width="169" height="170" viewBox="0 0 169 170" fill="none" xmlns="http://www.w3.org/2000/svg">
<g id="belt" clip-path="url(#clip0)">
<path id="Vector" d="M169 64.7539C169 70.2995 165.831 85.3503 160.286 90.0049C157.216 92.5797 153.355 85.0537 148.799 87.2315C149.096 86.3405 149.195 85.4495 149.195 84.5586C149.195 70.8939 120.049 59.8028 84.4999 59.8028C48.9508 59.8028 19.8047 70.8939 19.8047 84.5586C19.8047 85.4495 19.9039 86.3405 20.2005 87.2315C16.5361 85.4495 13.2689 93.3714 10.4967 91.3909C3.76237 86.4398 0 70.7946 0 64.7539C0 61.2881 1.1888 58.0209 3.46582 54.8516C13.8633 40.5925 46.3759 30.0958 84.4999 30.0958C122.624 30.0958 155.137 40.5925 165.534 54.8516C167.811 58.0209 169 61.2881 169 64.7539Z" fill="url(#paint0_linear)" stroke="#DEAFA2" stroke-width="0.3"/>
<g id="Vector_2">
<mask id="path-2-outside-1" maskUnits="userSpaceOnUse" x="-0.999939" y="64.754" width="171" height="65" fill="black">
<rect fill="white" x="-0.999939" y="64.754" width="171" height="65"/>
<path d="M169 64.754V94.461C169 113.572 130.942 129.119 84.5 129.119C38.0583 129.119 6.10352e-05 113.572 6.10352e-05 94.461V64.754C6.10352e-05 83.865 38.0583 99.4121 84.5 99.4121C130.942 99.4121 169 83.865 169 64.754Z"/>
</mask>
<path d="M169 64.754V94.461C169 113.572 130.942 129.119 84.5 129.119C38.0583 129.119 6.10352e-05 113.572 6.10352e-05 94.461V64.754C6.10352e-05 83.865 38.0583 99.4121 84.5 99.4121C130.942 99.4121 169 83.865 169 64.754Z" fill="url(#paint1_linear)"/>
<path d="M169 64.754V94.461C169 113.572 130.942 129.119 84.5 129.119C38.0583 129.119 6.10352e-05 113.572 6.10352e-05 94.461V64.754C6.10352e-05 83.865 38.0583 99.4121 84.5 99.4121C130.942 99.4121 169 83.865 169 64.754Z" stroke="#DEAFA2" stroke-width="0.4" mask="url(#path-2-outside-1)"/>
</g>
<path id="Vector_3" d="M169 64.754V94.461C169 113.572 130.695 127.448 100.839 129.119V99.4121C135.46 95.4512 169 83.865 169 64.754Z" fill="url(#paint2_linear)"/>
<g id="Vector_4">
<mask id="path-4-inside-2" fill="white">
<path d="M146.609 137.331C137.605 132.902 122.253 129.122 112.21 129.122H100.839V99.4149H119.158C132.02 99.4149 150.008 104.215 161.181 110.578C166.007 113.319 169 118.445 169 123.953C169 129.184 166.38 133.936 161.985 136.663C157.522 139.445 151.83 139.897 146.609 137.331Z"/>
</mask>
<path d="M146.609 137.331C137.605 132.902 122.253 129.122 112.21 129.122H100.839V99.4149H119.158C132.02 99.4149 150.008 104.215 161.181 110.578C166.007 113.319 169 118.445 169 123.953C169 129.184 166.38 133.936 161.985 136.663C157.522 139.445 151.83 139.897 146.609 137.331Z" fill="url(#paint3_linear)" stroke="#DEAFA2" stroke-width="0.4" mask="url(#path-4-inside-2)"/>
</g>
<path id="Vector_5" d="M94.4025 89.5125H74.5978C66.3781 89.5125 59.7443 96.1463 59.7443 104.366V124.171C59.7443 132.389 66.3781 139.024 74.5978 139.024H94.4025C102.622 139.024 109.256 132.389 109.256 124.171V104.366C109.256 96.1463 102.622 89.5125 94.4025 89.5125ZM99.3537 124.171C99.3537 126.943 97.1759 129.122 94.4025 129.122H74.5978C71.8244 129.122 69.6467 126.943 69.6467 124.171V119.22H84.5002C87.2736 119.22 89.4513 117.04 89.4513 114.268C89.4513 111.495 87.2736 109.317 84.5002 109.317H69.6467V104.366C69.6467 101.593 71.8244 99.4148 74.5978 99.4148H94.4025C97.1759 99.4148 99.3537 101.593 99.3537 104.366V124.171Z" fill="url(#paint4_linear)"/>
<g id="Vector_6" filter="url(#filter0_i)">
<path d="M43.3838 113.324C41.6366 113.123 40.3984 111.408 40.6186 109.493L40.6726 109.023C40.8928 107.108 42.4877 105.718 44.2349 105.919C45.9825 106.12 47.2203 107.835 47.0001 109.75L46.9461 110.22C46.7259 112.136 45.131 113.525 43.3838 113.324Z" fill="url(#paint5_linear)"/>
</g>
<g id="Vector_7" filter="url(#filter1_i)">
<path d="M29.2311 109.135C27.484 108.934 26.2458 107.219 26.466 105.304L26.52 104.834C26.7401 102.918 28.3351 101.529 30.0823 101.73C31.8299 101.931 33.0676 103.646 32.8475 105.561L32.7935 106.031C32.5733 107.946 30.9783 109.335 29.2311 109.135Z" fill="url(#paint6_linear)"/>
</g>
<g id="Vector_8" filter="url(#filter2_i)">
<path d="M15.3469 102.602C13.5997 102.401 12.3616 100.686 12.5817 98.7706L12.6357 98.3008C12.8559 96.3854 14.4509 94.9962 16.198 95.197C17.9456 95.3979 19.1834 97.1128 18.9632 99.0281L18.9092 99.4979C18.6891 101.413 17.0941 102.802 15.3469 102.602Z" fill="url(#paint7_linear)"/>
</g>
</g>
<defs>
<filter id="filter0_i" x="40.22" y="105.556" width="7.17862" height="8.43194" filterUnits="userSpaceOnUse" color-interpolation-filters="sRGB">
<feFlood flood-opacity="0" result="BackgroundImageFix"/>
<feBlend mode="normal" in="SourceGraphic" in2="BackgroundImageFix" result="shape"/>
<feColorMatrix in="SourceAlpha" type="matrix" values="0 0 0 0 0 0 0 0 0 0 0 0 0 0 0 0 0 0 127 0" result="hardAlpha"/>
<feOffset dy="0.3"/>
<feGaussianBlur stdDeviation="0.3"/>
<feComposite in2="hardAlpha" operator="arithmetic" k2="-1" k3="1"/>
<feColorMatrix type="matrix" values="0 0 0 0 0 0 0 0 0 0 0 0 0 0 0 0 0 0 0.25 0"/>
<feBlend mode="normal" in2="shape" result="effect1_innerShadow"/>
</filter>
<filter id="filter1_i" x="26.0674" y="101.366" width="7.17862" height="8.43194" filterUnits="userSpaceOnUse" color-interpolation-filters="sRGB">
<feFlood flood-opacity="0" result="BackgroundImageFix"/>
<feBlend mode="normal" in="SourceGraphic" in2="BackgroundImageFix" result="shape"/>
<feColorMatrix in="SourceAlpha" type="matrix" values="0 0 0 0 0 0 0 0 0 0 0 0 0 0 0 0 0 0 127 0" result="hardAlpha"/>
<feOffset dy="0.3"/>
<feGaussianBlur stdDeviation="0.3"/>
<feComposite in2="hardAlpha" operator="arithmetic" k2="-1" k3="1"/>
<feColorMatrix type="matrix" values="0 0 0 0 0 0 0 0 0 0 0 0 0 0 0 0 0 0 0.25 0"/>
<feBlend mode="normal" in2="shape" result="effect1_innerShadow"/>
</filter>
<filter id="filter2_i" x="12.1832" y="94.8334" width="7.17862" height="8.43194" filterUnits="userSpaceOnUse" color-interpolation-filters="sRGB">
<feFlood flood-opacity="0" result="BackgroundImageFix"/>
<feBlend mode="normal" in="SourceGraphic" in2="BackgroundImageFix" result="shape"/>
<feColorMatrix in="SourceAlpha" type="matrix" values="0 0 0 0 0 0 0 0 0 0 0 0 0 0 0 0 0 0 127 0" result="hardAlpha"/>
<feOffset dy="0.3"/>
<feGaussianBlur stdDeviation="0.3"/>
<feComposite in2="hardAlpha" operator="arithmetic" k2="-1" k3="1"/>
<feColorMatrix type="matrix" values="0 0 0 0 0 0 0 0 0 0 0 0 0 0 0 0 0 0 0.25 0"/>
<feBlend mode="normal" in2="shape" result="effect1_innerShadow"/>
</filter>
<linearGradient id="paint0_linear" x1="84.4999" y1="30.0958" x2="84.4999" y2="91.7113" gradientUnits="userSpaceOnUse">
<stop stop-color="#946256"/>
<stop offset="1" stop-color="#420D00"/>
</linearGradient>
<linearGradient id="paint1_linear" x1="84.5" y1="64.754" x2="84.5" y2="129.119" gradientUnits="userSpaceOnUse">
<stop stop-color="#C8A094"/>
<stop offset="1" stop-color="#582010"/>
</linearGradient>
<linearGradient id="paint2_linear" x1="126.75" y1="64.754" x2="126.75" y2="129.119" gradientUnits="userSpaceOnUse">
<stop stop-color="#805348"/>
<stop offset="1" stop-color="#2B0F09"/>
</linearGradient>
<linearGradient id="paint3_linear" x1="126.75" y1="99.4149" x2="126.75" y2="139.024" gradientUnits="userSpaceOnUse">
<stop stop-color="#946256"/>
<stop offset="1" stop-color="#420D00"/>
</linearGradient>
<linearGradient id="paint4_linear" x1="84.5002" y1="90.5048" x2="84.5002" y2="139.862" gradientUnits="userSpaceOnUse">
<stop stop-color="#CDC6C5"/>
<stop offset="0.362069" stop-color="#B8B8B8"/>
<stop offset="0.4" stop-color="#767676"/>
<stop offset="0.6" stop-color="#8A8A8A"/>
<stop offset="1" stop-color="#C8C8C8"/>
</linearGradient>
<linearGradient id="paint5_linear" x1="44.2349" y1="105.919" x2="43.3838" y2="113.324" gradientUnits="userSpaceOnUse">
<stop stop-color="#9B4F37"/>
<stop offset="1" stop-color="#432F1C"/>
</linearGradient>
<linearGradient id="paint6_linear" x1="30.0823" y1="101.73" x2="29.2311" y2="109.135" gradientUnits="userSpaceOnUse">
<stop stop-color="#9B4F37"/>
<stop offset="1" stop-color="#432F1C"/>
</linearGradient>
<linearGradient id="paint7_linear" x1="16.1981" y1="95.197" x2="15.3469" y2="102.602" gradientUnits="userSpaceOnUse">
<stop stop-color="#9B4F37"/>
<stop offset="1" stop-color="#432F1C"/>
</linearGradient>
<clipPath id="clip0">
<rect width="169" height="169" fill="white" transform="translate(0 0.0600586)"/>
</clipPath>
</defs>
</svg>
