<svg width="169" height="170" viewBox="0 0 169 170" fill="none" xmlns="http://www.w3.org/2000/svg">
<g id="bikini" clip-path="url(#clip0)">
<path id="Vector" d="M20.8287 119.604C19.7687 119.604 15.363 119.429 13.0391 116.615C11.7197 115.017 11.3161 112.926 11.8395 110.399C12.265 108.347 13.1049 107.249 14.3366 107.136C15.9537 106.987 17.6127 108.705 19.7174 112.702C21.0653 115.261 22.0863 117.804 22.1289 117.911C22.2776 118.282 22.2385 118.704 22.025 119.041C21.8109 119.377 21.4491 119.587 21.0554 119.601C21.032 119.601 20.9536 119.604 20.8287 119.604ZM14.6246 109.632C14.5279 109.787 14.3568 110.146 14.1991 110.905C13.8319 112.677 14.0547 114.026 14.8805 115.029C15.9269 116.3 17.7472 116.811 19.1261 117.014C17.4644 113.27 15.5549 110.109 14.6246 109.632Z" fill="url(#paint0_linear)"/>
<path id="Vector_2" d="M21.0107 119.6C20.5386 119.6 20.1089 119.318 19.9132 118.88C19.8654 118.773 18.7379 116.233 17.8781 113.055C16.6782 108.62 16.6092 105.227 17.6731 102.968C18.3778 101.472 19.6012 100.461 21.2113 100.043C23.1535 99.5398 24.2525 100.247 24.8315 100.929C26.6908 103.12 25.5978 108.042 24.6135 111.554C23.5496 115.352 22.1812 118.704 22.1235 118.845C21.9388 119.296 21.5091 119.592 21.0296 119.6C21.0233 119.6 21.017 119.6 21.0107 119.6ZM22.4457 102.327C22.2836 102.327 22.0752 102.353 21.807 102.422C20.8732 102.665 20.2507 103.175 19.848 104.029C18.6192 106.635 19.8219 111.571 21.0047 115.016C23.3382 108.496 23.9105 103.599 23.0063 102.534C22.9553 102.474 22.8304 102.327 22.4457 102.327Z" fill="url(#paint1_linear)"/>
<path id="Vector_3" d="M15.2751 127.545C14.6202 127.545 14.083 127.011 14.0698 126.342C14.0145 123.549 15.1394 121.5 16.4708 120.06C14.8514 120.603 13.1107 121.677 11.8723 123.761C11.5279 124.341 10.7868 124.526 10.2163 124.175C9.64665 123.824 9.46408 123.069 9.8091 122.489C13.5899 116.128 20.8736 117.114 21.1823 117.161C21.7291 117.241 22.1525 117.689 22.2098 118.248C22.2672 118.808 21.9441 119.336 21.4249 119.529C21.2225 119.606 16.3856 121.499 16.4805 126.292C16.4937 126.971 15.9649 127.531 15.2994 127.545C15.2913 127.544 15.2832 127.545 15.2751 127.545Z" fill="url(#paint2_linear)"/>
<path id="Vector_4" d="M147.946 119.601C147.553 119.587 147.191 119.377 146.977 119.041C146.763 118.704 146.724 118.282 146.873 117.911C146.916 117.804 147.937 115.261 149.284 112.702C151.389 108.705 153.048 106.987 154.665 107.136C155.897 107.249 156.737 108.347 157.162 110.399C157.686 112.926 157.282 115.017 155.963 116.615C153.639 119.429 149.233 119.604 148.173 119.604C148.048 119.604 147.969 119.602 147.946 119.601ZM149.875 117.015C151.254 116.811 153.075 116.301 154.121 115.03C154.947 114.026 155.17 112.678 154.802 110.906C154.645 110.146 154.474 109.787 154.377 109.632C153.447 110.11 151.537 113.27 149.875 117.015Z" fill="url(#paint3_linear)"/>
<path id="Vector_5" d="M147.967 119.6C147.488 119.592 147.058 119.296 146.873 118.845C146.816 118.704 145.447 115.352 144.383 111.555C143.399 108.043 142.306 103.12 144.165 100.929C144.745 100.246 145.843 99.5396 147.785 100.043C149.396 100.461 150.619 101.473 151.324 102.968C152.388 105.227 152.319 108.62 151.119 113.055C150.259 116.233 149.131 118.773 149.084 118.88C148.888 119.319 148.458 119.6 147.986 119.6C147.98 119.6 147.973 119.6 147.967 119.6ZM145.99 102.534C145.086 103.6 145.659 108.497 147.992 115.017C149.175 111.571 150.378 106.635 149.149 104.029C148.746 103.175 148.124 102.665 147.189 102.422C146.921 102.353 146.713 102.327 146.551 102.327C146.166 102.327 146.041 102.474 145.99 102.534Z" fill="url(#paint4_linear)"/>
<path id="Vector_6" d="M153.725 127.545C154.38 127.545 154.917 127.011 154.93 126.342C154.985 123.549 153.861 121.5 152.529 120.06C154.149 120.603 155.889 121.677 157.128 123.761C157.472 124.341 158.213 124.526 158.784 124.175C159.353 123.824 159.536 123.069 159.191 122.489C155.41 116.128 148.126 117.114 147.818 117.161C147.271 117.241 146.848 117.689 146.79 118.248C146.733 118.808 147.056 119.336 147.575 119.529C147.778 119.606 152.614 121.499 152.52 126.292C152.506 126.971 153.035 127.531 153.701 127.545C153.708 127.544 153.716 127.545 153.725 127.545Z" fill="url(#paint5_linear)"/>
<path id="Vector_7" d="M149.723 0.315023C131.986 -1.16079 98.5072 2.41302 90.1969 48.0987C89.1228 54.0037 93.0082 59.6331 98.8357 60.5591C115.522 63.2102 148.306 61.7372 158.961 13.1928C160.335 6.93432 156.001 0.836923 149.723 0.315023Z" fill="url(#paint6_linear)"/>
<path id="Vector_8" d="M19.2765 0.314945C37.0136 -1.16056 70.4928 2.41294 78.8031 48.0989C79.8772 54.004 75.9919 59.6333 70.1643 60.5594C53.478 63.2102 20.6948 61.7371 10.0387 13.1928C8.66459 6.93454 12.9992 0.837151 19.2765 0.314945Z" fill="url(#paint7_linear)"/>
<g id="Group">
<path id="Vector_9" d="M17.3851 11.9517C17.3851 14.478 15.3765 16.5286 12.8899 16.5286C12.0794 16.5286 11.326 16.311 10.6729 15.9328V15.9269C10.4534 15.0333 10.2396 14.1225 10.0372 13.1942C9.67684 11.5448 9.71078 9.9118 10.0708 8.38829C10.8416 7.75235 11.8206 7.37415 12.8899 7.37415C15.3762 7.37445 17.3851 9.41955 17.3851 11.9517Z" fill="#D5ECF3"/>
<path id="Vector_10" d="M42.7749 11.9519C42.7749 14.4782 40.7606 16.5288 38.2797 16.5288C35.7931 16.5288 33.7845 14.4779 33.7845 11.9519C33.7845 9.41973 35.7931 7.37463 38.2797 7.37463C40.7606 7.37463 42.7749 9.41973 42.7749 11.9519Z" fill="#D5ECF3"/>
<path id="Vector_11" d="M64.803 16.3814C64.4427 16.4786 64.0601 16.5303 63.6665 16.5303C61.1852 16.5303 59.171 14.4794 59.171 11.9534C59.171 11.6381 59.1989 11.3345 59.261 11.0367C61.1852 12.6006 63.0422 14.3705 64.803 16.3814Z" fill="#D5ECF3"/>
<path id="Vector_12" d="M29.5919 24.3802C29.5919 26.9066 27.5776 28.9572 25.0907 28.9572C22.6094 28.9572 20.5955 26.9063 20.5955 24.3802C20.5955 21.8481 22.6097 19.803 25.0907 19.803C27.5776 19.803 29.5919 21.8481 29.5919 24.3802Z" fill="#D5ECF3"/>
<path id="Vector_13" d="M54.978 24.3802C54.978 26.9066 52.9637 28.9572 50.4828 28.9572C48.0016 28.9572 45.9876 26.9063 45.9876 24.3802C45.9876 21.8481 48.0019 19.803 50.4828 19.803C52.9637 19.803 54.978 21.8481 54.978 24.3802Z" fill="#D5ECF3"/>
<path id="Vector_14" d="M42.7749 37.0372C42.7749 39.5635 40.7606 41.6141 38.2797 41.6141C35.7931 41.6141 33.7845 39.5632 33.7845 37.0372C33.7845 34.5053 35.7931 32.4541 38.2797 32.4541C40.7606 32.4541 42.7749 34.505 42.7749 37.0372Z" fill="#D5ECF3"/>
<path id="Vector_15" d="M68.1617 37.0372C68.1617 39.5635 66.1477 41.6141 63.6665 41.6141C61.1853 41.6141 59.171 39.5632 59.171 37.0372C59.171 34.5053 61.1853 32.4541 63.6665 32.4541C66.1474 32.4541 68.1617 34.505 68.1617 37.0372Z" fill="#D5ECF3"/>
<path id="Vector_16" d="M29.5934 49.4599C29.5934 49.7694 29.5655 50.0671 29.509 50.3591C27.6971 48.7836 25.942 46.9908 24.2541 44.9628C24.5243 44.9111 24.8054 44.8827 25.0925 44.8827C27.5791 44.8827 29.5934 46.9278 29.5934 49.4599Z" fill="#D5ECF3"/>
<path id="Vector_17" d="M54.978 49.4596C54.978 51.986 52.9637 54.0366 50.4828 54.0366C48.0016 54.0366 45.9876 51.9857 45.9876 49.4596C45.9876 46.9278 48.0019 44.8827 50.4828 44.8827C52.9637 44.8824 54.978 46.9275 54.978 49.4596Z" fill="#D5ECF3"/>
<path id="Vector_18" d="M78.533 53.1429C77.7901 53.71 76.8677 54.0366 75.8716 54.0366C73.3904 54.0366 71.3764 51.9857 71.3764 49.4596C71.3764 46.9278 73.3904 44.8827 75.8716 44.8827C76.7719 44.8827 77.6102 45.1517 78.3135 45.6159C78.488 46.4291 78.651 47.2601 78.803 48.1021C79.1183 49.843 79.0054 51.5616 78.533 53.1429Z" fill="#D5ECF3"/>
</g>
<g id="Group_2">
<path id="Vector_19" d="M17.3851 11.9517C17.3851 14.478 15.3765 16.5286 12.8899 16.5286C12.0794 16.5286 11.326 16.311 10.6729 15.9328V15.9269C10.4534 15.0333 10.2396 14.1225 10.0372 13.1942C9.67684 11.5448 9.71078 9.9118 10.0708 8.38829C10.8416 7.75235 11.8206 7.37415 12.8899 7.37415C15.3762 7.37445 17.3851 9.41955 17.3851 11.9517Z" fill="url(#paint8_linear)"/>
<path id="Vector_20" d="M29.5919 24.3802C29.5919 26.9066 27.5776 28.9572 25.0907 28.9572C22.6094 28.9572 20.5955 26.9063 20.5955 24.3802C20.5955 21.8481 22.6097 19.803 25.0907 19.803C27.5776 19.803 29.5919 21.8481 29.5919 24.3802Z" fill="url(#paint9_linear)"/>
<path id="Vector_21" d="M29.5934 49.4599C29.5934 49.7694 29.5655 50.0671 29.509 50.3591C27.6971 48.7836 25.942 46.9908 24.2541 44.9628C24.5243 44.9111 24.8054 44.8827 25.0925 44.8827C27.5791 44.8827 29.5934 46.9278 29.5934 49.4599Z" fill="url(#paint10_linear)"/>
<path id="Vector_22" d="M42.7749 37.0372C42.7749 39.5635 40.7606 41.6141 38.2797 41.6141C35.7931 41.6141 33.7845 39.5632 33.7845 37.0372C33.7845 34.5053 35.7931 32.4541 38.2797 32.4541C40.7606 32.4541 42.7749 34.505 42.7749 37.0372Z" fill="url(#paint11_linear)"/>
<path id="Vector_23" d="M42.7749 11.9519C42.7749 14.4782 40.7606 16.5288 38.2797 16.5288C35.7931 16.5288 33.7845 14.4779 33.7845 11.9519C33.7845 9.41973 35.7931 7.37463 38.2797 7.37463C40.7606 7.37463 42.7749 9.41973 42.7749 11.9519Z" fill="url(#paint12_linear)"/>
<path id="Vector_24" d="M54.978 49.4596C54.978 51.986 52.9637 54.0366 50.4828 54.0366C48.0016 54.0366 45.9876 51.9857 45.9876 49.4596C45.9876 46.9278 48.0019 44.8827 50.4828 44.8827C52.9637 44.8824 54.978 46.9275 54.978 49.4596Z" fill="url(#paint13_linear)"/>
<path id="Vector_25" d="M54.978 24.3802C54.978 26.9066 52.9637 28.9572 50.4828 28.9572C48.0016 28.9572 45.9876 26.9063 45.9876 24.3802C45.9876 21.8481 48.0019 19.803 50.4828 19.803C52.9637 19.803 54.978 21.8481 54.978 24.3802Z" fill="url(#paint14_linear)"/>
<path id="Vector_26" d="M59.171 11.9534C59.171 11.6381 59.1989 11.3345 59.261 11.0367C61.1852 12.6006 63.0419 14.3708 64.803 16.3814C64.4427 16.4786 64.0601 16.5303 63.6665 16.5303C61.1852 16.5306 59.171 14.4797 59.171 11.9534Z" fill="url(#paint15_linear)"/>
<path id="Vector_27" d="M68.1617 37.0372C68.1617 39.5635 66.1477 41.6141 63.6665 41.6141C61.1853 41.6141 59.171 39.5632 59.171 37.0372C59.171 34.5053 61.1853 32.4541 63.6665 32.4541C66.1474 32.4541 68.1617 34.505 68.1617 37.0372Z" fill="url(#paint16_linear)"/>
</g>
<g id="Group_3">
<path id="Vector_28" d="M78.5298 53.1414C77.7869 53.7086 76.8644 54.0351 75.8684 54.0351C73.3872 54.0351 71.3732 51.9842 71.3732 49.4582C71.3732 46.9263 73.3872 44.8812 75.8684 44.8812C76.7687 44.8812 77.607 45.1503 78.3103 45.6144C78.4848 46.4277 78.6478 47.2587 78.7998 48.1007C79.1151 49.8416 79.0021 51.5601 78.5298 53.1414Z" fill="#D5ECF3"/>
<path id="Vector_29" d="M151.615 11.9527C151.615 14.4791 153.624 16.5297 156.11 16.5297C156.921 16.5297 157.674 16.312 158.327 15.9338V15.928C158.547 15.0343 158.761 14.1235 158.963 13.1953C159.323 11.5455 159.289 9.91283 158.929 8.38902C158.158 7.75308 157.18 7.37488 156.11 7.37488C153.624 7.37549 151.615 9.42059 151.615 11.9527Z" fill="#D5ECF3"/>
<path id="Vector_30" d="M126.224 11.9521C126.224 14.4785 128.239 16.5291 130.72 16.5291C133.206 16.5291 135.215 14.4782 135.215 11.9521C135.215 9.41998 133.206 7.37488 130.72 7.37488C128.239 7.37488 126.224 9.41998 126.224 11.9521Z" fill="#D5ECF3"/>
<path id="Vector_31" d="M104.197 16.3801C104.557 16.4773 104.94 16.529 105.334 16.529C107.815 16.529 109.829 14.478 109.829 11.952C109.829 11.6368 109.801 11.3332 109.739 11.0354C107.815 12.5993 105.958 14.3692 104.197 16.3801Z" fill="#D5ECF3"/>
<path id="Vector_32" d="M139.408 24.3806C139.408 26.9069 141.422 28.9575 143.909 28.9575C146.39 28.9575 148.404 26.9066 148.404 24.3806C148.404 21.8484 146.39 19.8033 143.909 19.8033C141.422 19.8033 139.408 21.8484 139.408 24.3806Z" fill="#D5ECF3"/>
<path id="Vector_33" d="M114.019 24.3806C114.019 26.9069 116.033 28.9575 118.514 28.9575C120.995 28.9575 123.009 26.9066 123.009 24.3806C123.009 21.8484 120.995 19.8033 118.514 19.8033C116.033 19.8033 114.019 21.8484 114.019 24.3806Z" fill="#D5ECF3"/>
<path id="Vector_34" d="M126.224 37.0358C126.224 39.5622 128.239 41.6128 130.72 41.6128C133.206 41.6128 135.215 39.5618 135.215 37.0358C135.215 34.504 133.206 32.4528 130.72 32.4528C128.239 32.4528 126.224 34.5037 126.224 37.0358Z" fill="#D5ECF3"/>
<path id="Vector_35" d="M100.836 37.0358C100.836 39.5622 102.85 41.6128 105.332 41.6128C107.813 41.6128 109.827 39.5618 109.827 37.0358C109.827 34.504 107.813 32.4528 105.332 32.4528C102.851 32.4528 100.836 34.5037 100.836 37.0358Z" fill="#D5ECF3"/>
<path id="Vector_36" d="M139.408 49.4585C139.408 49.7679 139.436 50.0657 139.492 50.3577C141.304 48.7822 143.059 46.9893 144.747 44.9613C144.477 44.9097 144.196 44.8812 143.909 44.8812C141.422 44.8812 139.408 46.9263 139.408 49.4585Z" fill="#D5ECF3"/>
<path id="Vector_37" d="M114.019 49.4582C114.019 51.9845 116.033 54.0351 118.514 54.0351C120.995 54.0351 123.009 51.9842 123.009 49.4582C123.009 46.9263 120.995 44.8812 118.514 44.8812C116.033 44.8809 114.019 46.926 114.019 49.4582Z" fill="#D5ECF3"/>
<path id="Vector_38" d="M90.4686 53.1414C91.2115 53.7086 92.134 54.0351 93.13 54.0351C95.6112 54.0351 97.6252 51.9842 97.6252 49.4582C97.6252 46.9263 95.6112 44.8812 93.13 44.8812C92.2297 44.8812 91.3914 45.1503 90.6881 45.6144C90.5136 46.4277 90.3506 47.2587 90.1986 48.1007C89.8836 49.8416 89.9963 51.5601 90.4686 53.1414Z" fill="#D5ECF3"/>
</g>
<g id="Group_4">
<path id="Vector_39" d="M151.614 11.9527C151.614 14.4791 153.623 16.5297 156.109 16.5297C156.92 16.5297 157.673 16.312 158.326 15.9338V15.928C158.546 15.0343 158.76 14.1235 158.962 13.1953C159.323 11.5455 159.289 9.91283 158.929 8.38902C158.158 7.75308 157.179 7.37488 156.109 7.37488C153.623 7.37549 151.614 9.42059 151.614 11.9527Z" fill="url(#paint17_linear)"/>
<path id="Vector_40" d="M139.405 24.3806C139.405 26.9069 141.419 28.9575 143.906 28.9575C146.387 28.9575 148.401 26.9066 148.401 24.3806C148.401 21.8484 146.387 19.8033 143.906 19.8033C141.419 19.8033 139.405 21.8484 139.405 24.3806Z" fill="url(#paint18_linear)"/>
<path id="Vector_41" d="M139.405 49.4585C139.405 49.7679 139.432 50.0657 139.489 50.3577C141.301 48.7822 143.056 46.9893 144.744 44.9613C144.474 44.9097 144.193 44.8812 143.905 44.8812C141.419 44.8812 139.405 46.9263 139.405 49.4585Z" fill="url(#paint19_linear)"/>
<path id="Vector_42" d="M126.221 37.0358C126.221 39.5622 128.235 41.6128 130.716 41.6128C133.203 41.6128 135.212 39.5618 135.212 37.0358C135.212 34.504 133.203 32.4528 130.716 32.4528C128.235 32.4528 126.221 34.5037 126.221 37.0358Z" fill="url(#paint20_linear)"/>
<path id="Vector_43" d="M126.221 11.9521C126.221 14.4785 128.235 16.5291 130.716 16.5291C133.203 16.5291 135.212 14.4782 135.212 11.9521C135.212 9.41998 133.203 7.37488 130.716 7.37488C128.235 7.37488 126.221 9.41998 126.221 11.9521Z" fill="url(#paint21_linear)"/>
<path id="Vector_44" d="M114.021 49.4582C114.021 51.9845 116.035 54.0351 118.516 54.0351C120.997 54.0351 123.011 51.9842 123.011 49.4582C123.011 46.9263 120.997 44.8812 118.516 44.8812C116.035 44.8809 114.021 46.926 114.021 49.4582Z" fill="url(#paint22_linear)"/>
<path id="Vector_45" d="M114.021 24.3806C114.021 26.9069 116.035 28.9575 118.516 28.9575C120.997 28.9575 123.011 26.9066 123.011 24.3806C123.011 21.8484 120.997 19.8033 118.516 19.8033C116.035 19.8033 114.021 21.8484 114.021 24.3806Z" fill="url(#paint23_linear)"/>
<path id="Vector_46" d="M109.828 11.952C109.828 11.6368 109.8 11.3332 109.738 11.0354C107.814 12.5993 105.957 14.3695 104.196 16.3801C104.557 16.4773 104.939 16.529 105.333 16.529C107.814 16.5293 109.828 14.4783 109.828 11.952Z" fill="url(#paint24_linear)"/>
<path id="Vector_47" d="M100.837 37.0358C100.837 39.5622 102.851 41.6128 105.332 41.6128C107.814 41.6128 109.828 39.5618 109.828 37.0358C109.828 34.504 107.814 32.4528 105.332 32.4528C102.851 32.4528 100.837 34.5037 100.837 37.0358Z" fill="url(#paint25_linear)"/>
</g>
<path id="Vector_48" d="M90.466 53.1422C91.2089 53.7093 92.1313 54.0358 93.1273 54.0358C95.6086 54.0358 97.6226 51.9849 97.6226 49.4589C97.6226 46.9271 95.6086 44.882 93.1273 44.882C92.2271 44.882 91.3887 45.151 90.6855 45.6151C90.511 46.4284 90.3479 47.2594 90.196 48.1014C89.881 49.8423 89.9936 51.5609 90.466 53.1422Z" fill="#D5ECF3"/>
<path id="Vector_49" d="M114.328 61.0463L92.0274 40.067L92.0271 40.0667C91.3266 42.5878 90.7131 45.2621 90.1969 48.0997C89.1228 54.0048 93.0084 59.6341 98.8357 60.5601C103.145 61.2444 108.529 61.6513 114.328 61.0463Z" fill="url(#paint26_linear)"/>
<path id="Vector_50" d="M106.355 64.2638C102.019 59.6786 106.197 54.5162 100.051 47.7926C96.1882 43.566 92.5347 43.7981 89.8475 45.0868C86.3633 46.7574 84.292 50.5244 84.5157 54.4391C85.0481 63.7605 97.0194 66.5474 104.9 67.3704C106.582 67.5462 107.528 65.5033 106.355 64.2638Z" fill="url(#paint27_linear)"/>
<path id="Vector_51" d="M84.5157 54.4391C84.292 50.5244 86.3636 46.7577 89.8475 45.0868C92.535 43.7981 96.1879 43.566 100.051 47.7926C106.197 54.5165 102.019 59.6789 106.355 64.2638C107.528 65.5036 106.582 67.5462 104.9 67.3707C97.0191 66.5474 85.0478 63.7605 84.5157 54.4391Z" fill="url(#paint28_linear)"/>
<path id="Vector_52" d="M84.4841 54.4391C84.7078 50.5244 82.6362 46.7577 79.1523 45.0868C76.4648 43.7981 72.8118 43.566 68.9484 47.7926C62.8029 54.5165 66.9807 59.6789 62.6446 64.2638C61.472 65.5036 62.4182 67.5462 64.1001 67.3707C71.9807 66.5474 83.952 63.7605 84.4841 54.4391Z" fill="url(#paint29_linear)"/>
<path id="Vector_53" d="M90.1999 44.9294V48.099C90.1999 48.099 94.9059 45.7604 97.9387 53.4403C100.971 61.1202 105.335 62.9375 105.335 62.9375L105.335 62.9369C102.723 58.6807 105.614 53.8748 100.053 47.7905C96.3541 43.7437 92.8502 43.7871 90.1999 44.9294Z" fill="url(#paint30_linear)"/>
<path id="Vector_54" d="M83.1394 39.181C83.1394 39.181 85.3002 36.1808 89.6221 38.3809C93.9441 40.581 94.3368 43.7815 92.8964 46.982C91.4557 50.1825 89.4104 60.1081 85.0963 57.3121L83.1394 39.181Z" fill="url(#paint31_linear)"/>
<path id="Vector_55" d="M92.5634 47.8101L83.6069 38.6908C83.6063 38.6914 83.6054 38.692 83.6048 38.6926L83.1748 39.4567L85.1011 57.3052C89.0891 59.89 91.1383 51.605 92.5634 47.8101Z" fill="url(#paint32_linear)"/>
<path id="Vector_56" d="M79.1486 45.0881C79.4846 45.2464 79.7999 45.4329 80.1065 45.6326C75.4046 45.7433 71.5073 49.1453 70.5512 53.6699C70.5512 53.6699 70.1686 54.7813 69.257 56.0932C68.3456 57.411 66.9052 58.9232 64.7954 59.7309C65.3692 56.2708 64.739 52.398 68.9477 47.792C72.8075 43.5639 76.4646 43.7988 79.1486 45.0881Z" fill="url(#paint33_linear)"/>
<path id="Vector_57" d="M76.2791 44.28C76.2791 44.28 83.3952 52.5735 83.9044 57.3049C83.9044 57.3049 84.3185 58.0151 85.099 57.3049C85.8794 56.5946 87.6009 48.0247 85.707 42.5513C82.776 34.082 76.2791 36.0027 76.2791 44.28Z" fill="url(#paint34_linear)"/>
<path id="Vector_58" d="M151.489 120.366C151.291 118.426 149.545 117.049 147.651 117.339C138.193 118.785 126.823 119.914 114.213 120.61C104.894 121.123 94.8963 121.402 84.4985 121.402C74.1006 121.402 64.1034 121.123 54.7841 120.61C42.1738 119.914 30.8043 118.786 21.346 117.339C19.4521 117.049 17.7057 118.427 17.5081 120.366C17.2619 122.784 17.3412 125.34 18.0522 127.74C18.8867 130.556 21.5151 132.428 24.4038 132.397C24.6551 132.394 24.907 132.393 25.159 132.393C34.7151 132.393 43.7044 134.39 51.5222 137.9C59.5661 141.504 66.3756 146.709 71.302 152.989C74.1739 156.649 76.408 160.672 77.8746 164.954C78.6769 167.298 80.7711 168.94 83.2064 169.035C83.6352 169.051 84.0658 169.06 84.4985 169.06C84.9309 169.06 85.3615 169.052 85.7903 169.035C88.2232 168.94 90.3185 167.303 91.1188 164.962C92.4067 161.195 94.2888 157.627 96.6791 154.333C101.665 147.452 108.864 141.757 117.475 137.899C125.293 134.389 134.282 132.393 143.838 132.393C144.09 132.393 144.342 132.394 144.593 132.397C147.482 132.428 150.11 130.556 150.945 127.739C151.656 125.34 151.735 122.784 151.489 120.366Z" fill="url(#paint35_linear)"/>
<path id="Vector_59" d="M23.6896 119.524C23.6896 121.377 22.2123 122.882 20.3916 122.882C19.1079 122.882 17.9978 122.134 17.4531 121.045C17.4654 120.819 17.4858 120.591 17.511 120.365C17.7092 118.427 19.4551 117.049 21.3498 117.339C21.9234 117.427 22.5056 117.515 23.096 117.599C23.4707 118.141 23.6896 118.805 23.6896 119.524Z" fill="url(#paint36_linear)"/>
<path id="Vector_60" d="M42.3056 119.749C42.1942 121.498 40.766 122.884 39.016 122.884C37.1957 122.884 35.718 121.38 35.718 119.526C35.718 119.396 35.7261 119.27 35.7384 119.144C37.8683 119.359 40.0604 119.56 42.3056 119.749Z" fill="url(#paint37_linear)"/>
<path id="Vector_61" d="M60.6517 120.903C60.1359 122.071 58.9801 122.887 57.6429 122.887C56.186 122.887 54.9518 121.925 54.5143 120.597C54.605 120.605 54.696 120.609 54.7869 120.613C56.7141 120.718 58.6708 120.815 60.6517 120.903Z" fill="url(#paint38_linear)"/>
<path id="Vector_62" d="M79.0134 121.375C78.423 122.283 77.412 122.88 76.2643 122.88C75.0839 122.88 74.0437 122.245 73.466 121.291C75.2989 121.329 77.1481 121.354 79.0134 121.375Z" fill="url(#paint39_linear)"/>
<path id="Vector_63" d="M29.3463 131.998C31.1679 131.998 32.6446 130.494 32.6446 128.639C32.6446 126.785 31.1679 125.281 29.3463 125.281C27.5247 125.281 26.048 126.785 26.048 128.639C26.048 130.494 27.5247 131.998 29.3463 131.998Z" fill="url(#paint40_linear)"/>
<path id="Vector_64" d="M47.9703 131.998C49.7919 131.998 51.2686 130.494 51.2686 128.639C51.2686 126.785 49.7919 125.281 47.9703 125.281C46.1487 125.281 44.672 126.785 44.672 128.639C44.672 130.494 46.1487 131.998 47.9703 131.998Z" fill="url(#paint41_linear)"/>
<path id="Vector_65" d="M66.5917 131.998C68.4133 131.998 69.89 130.494 69.89 128.639C69.89 126.785 68.4133 125.281 66.5917 125.281C64.7701 125.281 63.2934 126.785 63.2934 128.639C63.2934 130.494 64.7701 131.998 66.5917 131.998Z" fill="url(#paint42_linear)"/>
<path id="Vector_66" d="M85.2165 131.998C87.0381 131.998 88.5147 130.494 88.5147 128.639C88.5147 126.785 87.0381 125.281 85.2165 125.281C83.3949 125.281 81.9182 126.785 81.9182 128.639C81.9182 130.494 83.3949 131.998 85.2165 131.998Z" fill="url(#paint43_linear)"/>
<path id="Vector_67" d="M60.9411 137.918C60.9411 139.674 59.6163 141.116 57.9323 141.263C56.884 140.624 55.8108 140.015 54.7046 139.439H54.7004C54.4733 138.985 54.3451 138.464 54.3451 137.918C54.3451 136.065 55.8186 134.56 57.6431 134.56C59.4634 134.56 60.9411 136.064 60.9411 137.918Z" fill="url(#paint44_linear)"/>
<path id="Vector_68" d="M76.2666 141.277C78.0882 141.277 79.5649 139.773 79.5649 137.919C79.5649 136.064 78.0882 134.56 76.2666 134.56C74.445 134.56 72.9684 136.064 72.9684 137.919C72.9684 139.773 74.445 141.277 76.2666 141.277Z" fill="url(#paint45_linear)"/>
<path id="Vector_69" d="M69.8932 147.037C69.8932 148.163 69.3527 149.156 68.5188 149.769C67.0496 148.21 65.4521 146.735 63.7393 145.357C64.3089 144.352 65.3737 143.68 66.5955 143.68C68.4155 143.68 69.8932 145.184 69.8932 147.037Z" fill="url(#paint46_linear)"/>
<path id="Vector_70" d="M85.2165 150.397C87.0381 150.397 88.5147 148.893 88.5147 147.038C88.5147 145.184 87.0381 143.68 85.2165 143.68C83.3949 143.68 81.9182 145.184 81.9182 147.038C81.9182 148.893 83.3949 150.397 85.2165 150.397Z" fill="url(#paint47_linear)"/>
<path id="Vector_71" d="M79.5651 156.471C79.5651 158.328 78.0874 159.832 76.2671 159.832C76.0605 159.832 75.8626 159.812 75.6686 159.778C74.9131 158.303 74.063 156.866 73.1177 155.478C73.1177 155.474 73.1177 155.474 73.1177 155.474C73.5345 154.104 74.7894 153.112 76.2671 153.112C78.0874 153.113 79.5651 154.617 79.5651 156.471Z" fill="url(#paint48_linear)"/>
<path id="Vector_72" d="M85.2165 168.947C87.0381 168.947 88.5147 167.443 88.5147 165.588C88.5147 163.734 87.0381 162.23 85.2165 162.23C83.3949 162.23 81.9182 163.734 81.9182 165.588C81.9182 167.443 83.3949 168.947 85.2165 168.947Z" fill="url(#paint49_linear)"/>
<path id="Vector_73" d="M98.0145 121.239C97.441 122.222 96.3882 122.882 95.179 122.882C94.019 122.882 92.9998 122.273 92.4134 121.348C94.2995 121.323 96.1651 121.285 98.0145 121.239Z" fill="url(#paint50_linear)"/>
<path id="Vector_74" d="M116.976 120.45C116.584 121.854 115.312 122.884 113.806 122.884C112.419 122.884 111.239 122.014 110.752 120.787C111.915 120.732 113.071 120.673 114.214 120.61C115.143 120.56 116.064 120.505 116.976 120.45Z" fill="url(#paint51_linear)"/>
<path id="Vector_75" d="M135.728 119.526C135.728 121.379 134.251 122.884 132.43 122.884C130.614 122.884 129.141 121.388 129.132 119.538C131.37 119.336 133.553 119.118 135.67 118.891C135.707 119.097 135.728 119.307 135.728 119.526Z" fill="url(#paint52_linear)"/>
<path id="Vector_76" d="M151.618 122.833C151.436 122.866 151.246 122.883 151.052 122.883C149.232 122.883 147.754 121.379 147.754 119.525C147.754 118.685 148.055 117.92 148.555 117.332C150.074 117.512 151.324 118.744 151.489 120.366C151.572 121.177 151.618 122.001 151.618 122.833Z" fill="url(#paint53_linear)"/>
<path id="Vector_77" d="M104.132 131.998C105.954 131.998 107.43 130.494 107.43 128.639C107.43 126.785 105.954 125.281 104.132 125.281C102.31 125.281 100.834 126.785 100.834 128.639C100.834 130.494 102.31 131.998 104.132 131.998Z" fill="url(#paint54_linear)"/>
<path id="Vector_78" d="M122.759 131.998C124.581 131.998 126.057 130.494 126.057 128.639C126.057 126.785 124.581 125.281 122.759 125.281C120.938 125.281 119.461 126.785 119.461 128.639C119.461 130.494 120.938 131.998 122.759 131.998Z" fill="url(#paint55_linear)"/>
<path id="Vector_79" d="M141.385 131.998C143.206 131.998 144.683 130.494 144.683 128.639C144.683 126.785 143.206 125.281 141.385 125.281C139.563 125.281 138.087 126.785 138.087 128.639C138.087 130.494 139.563 131.998 141.385 131.998Z" fill="url(#paint56_linear)"/>
<path id="Vector_80" d="M95.1822 141.277C97.0038 141.277 98.4805 139.773 98.4805 137.919C98.4805 136.064 97.0038 134.56 95.1822 134.56C93.3606 134.56 91.8839 136.064 91.8839 137.919C91.8839 139.773 93.3606 141.277 95.1822 141.277Z" fill="url(#paint57_linear)"/>
<path id="Vector_81" d="M117.105 137.918C117.105 137.969 117.105 138.019 117.101 138.07C115.33 138.877 113.622 139.764 111.979 140.717C111.091 140.112 110.509 139.087 110.509 137.918C110.509 136.065 111.983 134.56 113.807 134.56C115.627 134.56 117.105 136.065 117.105 137.918Z" fill="url(#paint58_linear)"/>
<path id="Vector_82" d="M106.311 144.525C104.545 145.878 102.894 147.328 101.362 148.862C101.028 148.336 100.834 147.71 100.834 147.038C100.834 145.185 102.311 143.68 104.132 143.68C104.97 143.68 105.733 143.999 106.311 144.525Z" fill="url(#paint59_linear)"/>
<path id="Vector_83" d="M97.1137 153.751C96.965 153.945 96.8206 154.138 96.6801 154.335C95.5078 155.953 94.4553 157.638 93.5307 159.382C92.5443 158.803 91.8798 157.714 91.8798 156.47C91.8798 154.617 93.3574 153.112 95.1778 153.112C95.9041 153.113 96.5732 153.348 97.1137 153.751Z" fill="url(#paint60_linear)"/>
</g>
<defs>
<linearGradient id="paint0_linear" x1="11.6176" y1="113.367" x2="22.2182" y2="113.367" gradientUnits="userSpaceOnUse">
<stop stop-color="#74AEF8"/>
<stop offset="1" stop-color="#4E85FB"/>
</linearGradient>
<linearGradient id="paint1_linear" x1="16.9232" y1="109.737" x2="25.841" y2="109.737" gradientUnits="userSpaceOnUse">
<stop stop-color="#74AEF8"/>
<stop offset="1" stop-color="#4E85FB"/>
</linearGradient>
<linearGradient id="paint2_linear" x1="9.63497" y1="122.313" x2="22.2165" y2="122.313" gradientUnits="userSpaceOnUse">
<stop stop-color="#74AEF8"/>
<stop offset="1" stop-color="#4E85FB"/>
</linearGradient>
<linearGradient id="paint3_linear" x1="146.781" y1="113.367" x2="157.381" y2="113.367" gradientUnits="userSpaceOnUse">
<stop stop-color="#74AEF8"/>
<stop offset="1" stop-color="#4E85FB"/>
</linearGradient>
<linearGradient id="paint4_linear" x1="143.152" y1="109.738" x2="152.07" y2="109.738" gradientUnits="userSpaceOnUse">
<stop stop-color="#74AEF8"/>
<stop offset="1" stop-color="#4E85FB"/>
</linearGradient>
<linearGradient id="paint5_linear" x1="159.362" y1="122.313" x2="146.78" y2="122.313" gradientUnits="userSpaceOnUse">
<stop stop-color="#74AEF8"/>
<stop offset="1" stop-color="#4E85FB"/>
</linearGradient>
<linearGradient id="paint6_linear" x1="118.109" y1="17.7302" x2="135.43" y2="50.4455" gradientUnits="userSpaceOnUse">
<stop stop-color="#FF4C4A"/>
<stop offset="1" stop-color="#FF001C"/>
</linearGradient>
<linearGradient id="paint7_linear" x1="40.9685" y1="20.2041" x2="53.9226" y2="56.2081" gradientUnits="userSpaceOnUse">
<stop stop-color="#FF4C4A"/>
<stop offset="1" stop-color="#FF001C"/>
</linearGradient>
<linearGradient id="paint8_linear" x1="13.5839" y1="12.5541" x2="13.5839" y2="81.4112" gradientUnits="userSpaceOnUse">
<stop stop-color="#FFF2E8"/>
<stop offset="1" stop-color="#F9C6A0"/>
</linearGradient>
<linearGradient id="paint9_linear" x1="25.0934" y1="12.557" x2="25.0934" y2="81.4141" gradientUnits="userSpaceOnUse">
<stop stop-color="#FFF2E8"/>
<stop offset="1" stop-color="#F9C6A0"/>
</linearGradient>
<linearGradient id="paint10_linear" x1="26.9234" y1="12.5564" x2="26.9234" y2="81.4136" gradientUnits="userSpaceOnUse">
<stop stop-color="#FFF2E8"/>
<stop offset="1" stop-color="#F9C6A0"/>
</linearGradient>
<linearGradient id="paint11_linear" x1="38.2789" y1="12.5593" x2="38.2789" y2="81.4164" gradientUnits="userSpaceOnUse">
<stop stop-color="#FFF2E8"/>
<stop offset="1" stop-color="#F9C6A0"/>
</linearGradient>
<linearGradient id="paint12_linear" x1="38.2789" y1="12.5542" x2="38.2789" y2="81.4114" gradientUnits="userSpaceOnUse">
<stop stop-color="#FFF2E8"/>
<stop offset="1" stop-color="#F9C6A0"/>
</linearGradient>
<linearGradient id="paint13_linear" x1="50.4817" y1="12.5561" x2="50.4817" y2="81.4133" gradientUnits="userSpaceOnUse">
<stop stop-color="#FFF2E8"/>
<stop offset="1" stop-color="#F9C6A0"/>
</linearGradient>
<linearGradient id="paint14_linear" x1="50.4817" y1="12.557" x2="50.4817" y2="81.4141" gradientUnits="userSpaceOnUse">
<stop stop-color="#FFF2E8"/>
<stop offset="1" stop-color="#F9C6A0"/>
</linearGradient>
<linearGradient id="paint15_linear" x1="61.9859" y1="12.5557" x2="61.9859" y2="81.4128" gradientUnits="userSpaceOnUse">
<stop stop-color="#FFF2E8"/>
<stop offset="1" stop-color="#F9C6A0"/>
</linearGradient>
<linearGradient id="paint16_linear" x1="63.665" y1="12.5593" x2="63.665" y2="81.4164" gradientUnits="userSpaceOnUse">
<stop stop-color="#FFF2E8"/>
<stop offset="1" stop-color="#F9C6A0"/>
</linearGradient>
<linearGradient id="paint17_linear" x1="155.412" y1="12.5551" x2="155.412" y2="81.4122" gradientUnits="userSpaceOnUse">
<stop stop-color="#FFF2E8"/>
<stop offset="1" stop-color="#F9C6A0"/>
</linearGradient>
<linearGradient id="paint18_linear" x1="143.9" y1="12.5573" x2="143.9" y2="81.4145" gradientUnits="userSpaceOnUse">
<stop stop-color="#FFF2E8"/>
<stop offset="1" stop-color="#F9C6A0"/>
</linearGradient>
<linearGradient id="paint19_linear" x1="142.071" y1="12.555" x2="142.071" y2="81.4121" gradientUnits="userSpaceOnUse">
<stop stop-color="#FFF2E8"/>
<stop offset="1" stop-color="#F9C6A0"/>
</linearGradient>
<linearGradient id="paint20_linear" x1="130.714" y1="12.5579" x2="130.714" y2="81.4151" gradientUnits="userSpaceOnUse">
<stop stop-color="#FFF2E8"/>
<stop offset="1" stop-color="#F9C6A0"/>
</linearGradient>
<linearGradient id="paint21_linear" x1="130.714" y1="12.5545" x2="130.714" y2="81.4116" gradientUnits="userSpaceOnUse">
<stop stop-color="#FFF2E8"/>
<stop offset="1" stop-color="#F9C6A0"/>
</linearGradient>
<linearGradient id="paint22_linear" x1="118.513" y1="12.5547" x2="118.513" y2="81.4118" gradientUnits="userSpaceOnUse">
<stop stop-color="#FFF2E8"/>
<stop offset="1" stop-color="#F9C6A0"/>
</linearGradient>
<linearGradient id="paint23_linear" x1="118.513" y1="12.5573" x2="118.513" y2="81.4145" gradientUnits="userSpaceOnUse">
<stop stop-color="#FFF2E8"/>
<stop offset="1" stop-color="#F9C6A0"/>
</linearGradient>
<linearGradient id="paint24_linear" x1="107.01" y1="12.5544" x2="107.01" y2="81.4115" gradientUnits="userSpaceOnUse">
<stop stop-color="#FFF2E8"/>
<stop offset="1" stop-color="#F9C6A0"/>
</linearGradient>
<linearGradient id="paint25_linear" x1="105.331" y1="12.5579" x2="105.331" y2="81.4151" gradientUnits="userSpaceOnUse">
<stop stop-color="#FFF2E8"/>
<stop offset="1" stop-color="#F9C6A0"/>
</linearGradient>
<linearGradient id="paint26_linear" x1="115.284" y1="71.1127" x2="82.2691" y2="38.6877" gradientUnits="userSpaceOnUse">
<stop stop-color="#FF001C" stop-opacity="0"/>
<stop offset="1" stop-color="#C1001C"/>
</linearGradient>
<linearGradient id="paint27_linear" x1="93.9659" y1="54.7057" x2="101.655" y2="73.5478" gradientUnits="userSpaceOnUse">
<stop stop-color="#FF4C4A"/>
<stop offset="1" stop-color="#FF001C"/>
</linearGradient>
<linearGradient id="paint28_linear" x1="97.9658" y1="58.672" x2="86.1478" y2="47.065" gradientUnits="userSpaceOnUse">
<stop stop-color="#FF001C" stop-opacity="0"/>
<stop offset="1" stop-color="#C1001C"/>
</linearGradient>
<linearGradient id="paint29_linear" x1="70.2919" y1="53.524" x2="78.5912" y2="66.9208" gradientUnits="userSpaceOnUse">
<stop stop-color="#FF4C4A"/>
<stop offset="1" stop-color="#FF001C"/>
</linearGradient>
<linearGradient id="paint30_linear" x1="102.601" y1="54.1737" x2="81.2682" y2="50.1986" gradientUnits="userSpaceOnUse">
<stop stop-color="#FF001C" stop-opacity="0"/>
<stop offset="1" stop-color="#C1001C"/>
</linearGradient>
<linearGradient id="paint31_linear" x1="118.214" y1="42.5965" x2="7.63665" y2="59.718" gradientUnits="userSpaceOnUse">
<stop stop-color="#FF4C4A"/>
<stop offset="1" stop-color="#FF001C"/>
</linearGradient>
<linearGradient id="paint32_linear" x1="90.3497" y1="48.4176" x2="82.3368" y2="48.1659" gradientUnits="userSpaceOnUse">
<stop stop-color="#FF001C" stop-opacity="0"/>
<stop offset="1" stop-color="#C1001C"/>
</linearGradient>
<linearGradient id="paint33_linear" x1="69.3194" y1="51.6864" x2="80.707" y2="54.234" gradientUnits="userSpaceOnUse">
<stop stop-color="#FF001C" stop-opacity="0"/>
<stop offset="1" stop-color="#C1001C"/>
</linearGradient>
<linearGradient id="paint34_linear" x1="118.022" y1="42.9247" x2="7.48293" y2="56.1599" gradientUnits="userSpaceOnUse">
<stop stop-color="#FF4C4A"/>
<stop offset="1" stop-color="#FF001C"/>
</linearGradient>
<linearGradient id="paint35_linear" x1="110.696" y1="112.84" x2="-0.62748" y2="169.787" gradientUnits="userSpaceOnUse">
<stop stop-color="#FF4C4A"/>
<stop offset="1" stop-color="#FF001C"/>
</linearGradient>
<linearGradient id="paint36_linear" x1="20.571" y1="126.638" x2="20.571" y2="183.804" gradientUnits="userSpaceOnUse">
<stop stop-color="#FFF2E8"/>
<stop offset="1" stop-color="#F9C6A0"/>
</linearGradient>
<linearGradient id="paint37_linear" x1="39.0111" y1="126.641" x2="39.0111" y2="183.807" gradientUnits="userSpaceOnUse">
<stop stop-color="#FFF2E8"/>
<stop offset="1" stop-color="#F9C6A0"/>
</linearGradient>
<linearGradient id="paint38_linear" x1="57.5821" y1="126.643" x2="57.5821" y2="183.81" gradientUnits="userSpaceOnUse">
<stop stop-color="#FFF2E8"/>
<stop offset="1" stop-color="#F9C6A0"/>
</linearGradient>
<linearGradient id="paint39_linear" x1="76.2383" y1="126.636" x2="76.2383" y2="183.803" gradientUnits="userSpaceOnUse">
<stop stop-color="#FFF2E8"/>
<stop offset="1" stop-color="#F9C6A0"/>
</linearGradient>
<linearGradient id="paint40_linear" x1="29.3459" y1="126.639" x2="29.3459" y2="183.805" gradientUnits="userSpaceOnUse">
<stop stop-color="#FFF2E8"/>
<stop offset="1" stop-color="#F9C6A0"/>
</linearGradient>
<linearGradient id="paint41_linear" x1="47.9696" y1="126.639" x2="47.9696" y2="183.805" gradientUnits="userSpaceOnUse">
<stop stop-color="#FFF2E8"/>
<stop offset="1" stop-color="#F9C6A0"/>
</linearGradient>
<linearGradient id="paint42_linear" x1="66.5904" y1="126.639" x2="66.5904" y2="183.805" gradientUnits="userSpaceOnUse">
<stop stop-color="#FFF2E8"/>
<stop offset="1" stop-color="#F9C6A0"/>
</linearGradient>
<linearGradient id="paint43_linear" x1="85.2148" y1="126.639" x2="85.2148" y2="183.805" gradientUnits="userSpaceOnUse">
<stop stop-color="#FFF2E8"/>
<stop offset="1" stop-color="#F9C6A0"/>
</linearGradient>
<linearGradient id="paint44_linear" x1="57.6421" y1="126.637" x2="57.6421" y2="183.803" gradientUnits="userSpaceOnUse">
<stop stop-color="#FFF2E8"/>
<stop offset="1" stop-color="#F9C6A0"/>
</linearGradient>
<linearGradient id="paint45_linear" x1="76.2651" y1="126.636" x2="76.2651" y2="183.803" gradientUnits="userSpaceOnUse">
<stop stop-color="#FFF2E8"/>
<stop offset="1" stop-color="#F9C6A0"/>
</linearGradient>
<linearGradient id="paint46_linear" x1="66.8149" y1="126.642" x2="66.8149" y2="183.808" gradientUnits="userSpaceOnUse">
<stop stop-color="#FFF2E8"/>
<stop offset="1" stop-color="#F9C6A0"/>
</linearGradient>
<linearGradient id="paint47_linear" x1="85.2148" y1="126.64" x2="85.2148" y2="183.806" gradientUnits="userSpaceOnUse">
<stop stop-color="#FFF2E8"/>
<stop offset="1" stop-color="#F9C6A0"/>
</linearGradient>
<linearGradient id="paint48_linear" x1="76.3401" y1="126.64" x2="76.3401" y2="183.806" gradientUnits="userSpaceOnUse">
<stop stop-color="#FFF2E8"/>
<stop offset="1" stop-color="#F9C6A0"/>
</linearGradient>
<linearGradient id="paint49_linear" x1="85.2148" y1="126.638" x2="85.2148" y2="183.805" gradientUnits="userSpaceOnUse">
<stop stop-color="#FFF2E8"/>
<stop offset="1" stop-color="#F9C6A0"/>
</linearGradient>
<linearGradient id="paint50_linear" x1="95.212" y1="126.638" x2="95.212" y2="183.804" gradientUnits="userSpaceOnUse">
<stop stop-color="#FFF2E8"/>
<stop offset="1" stop-color="#F9C6A0"/>
</linearGradient>
<linearGradient id="paint51_linear" x1="113.861" y1="126.64" x2="113.861" y2="183.806" gradientUnits="userSpaceOnUse">
<stop stop-color="#FFF2E8"/>
<stop offset="1" stop-color="#F9C6A0"/>
</linearGradient>
<linearGradient id="paint52_linear" x1="132.428" y1="126.64" x2="132.428" y2="183.806" gradientUnits="userSpaceOnUse">
<stop stop-color="#FFF2E8"/>
<stop offset="1" stop-color="#F9C6A0"/>
</linearGradient>
<linearGradient id="paint53_linear" x1="149.683" y1="126.639" x2="149.683" y2="183.806" gradientUnits="userSpaceOnUse">
<stop stop-color="#FFF2E8"/>
<stop offset="1" stop-color="#F9C6A0"/>
</linearGradient>
<linearGradient id="paint54_linear" x1="104.13" y1="126.639" x2="104.13" y2="183.805" gradientUnits="userSpaceOnUse">
<stop stop-color="#FFF2E8"/>
<stop offset="1" stop-color="#F9C6A0"/>
</linearGradient>
<linearGradient id="paint55_linear" x1="122.757" y1="126.639" x2="122.757" y2="183.805" gradientUnits="userSpaceOnUse">
<stop stop-color="#FFF2E8"/>
<stop offset="1" stop-color="#F9C6A0"/>
</linearGradient>
<linearGradient id="paint56_linear" x1="141.382" y1="126.639" x2="141.382" y2="183.805" gradientUnits="userSpaceOnUse">
<stop stop-color="#FFF2E8"/>
<stop offset="1" stop-color="#F9C6A0"/>
</linearGradient>
<linearGradient id="paint57_linear" x1="95.1802" y1="126.636" x2="95.1802" y2="183.803" gradientUnits="userSpaceOnUse">
<stop stop-color="#FFF2E8"/>
<stop offset="1" stop-color="#F9C6A0"/>
</linearGradient>
<linearGradient id="paint58_linear" x1="113.805" y1="126.638" x2="113.805" y2="183.804" gradientUnits="userSpaceOnUse">
<stop stop-color="#FFF2E8"/>
<stop offset="1" stop-color="#F9C6A0"/>
</linearGradient>
<linearGradient id="paint59_linear" x1="103.57" y1="126.642" x2="103.57" y2="183.808" gradientUnits="userSpaceOnUse">
<stop stop-color="#FFF2E8"/>
<stop offset="1" stop-color="#F9C6A0"/>
</linearGradient>
<linearGradient id="paint60_linear" x1="94.4948" y1="126.64" x2="94.4948" y2="183.806" gradientUnits="userSpaceOnUse">
<stop stop-color="#FFF2E8"/>
<stop offset="1" stop-color="#F9C6A0"/>
</linearGradient>
<clipPath id="clip0">
<rect width="169" height="169" fill="white" transform="translate(0 0.0600586)"/>
</clipPath>
</defs>
</svg>
