<svg width="169" height="170" viewBox="0 0 169 170" fill="none" xmlns="http://www.w3.org/2000/svg">
<g id="blouse" clip-path="url(#clip0)">
<g id="Vector" filter="url(#filter0_i)">
<path d="M127.204 70.2758C140.099 69.5318 154.73 66.1707 166.311 60.3799L147.765 18.2285C145.491 13.0608 141.139 9.09493 135.783 7.30959L114.034 0.0599365C114.034 0.0599365 95.563 2.41859 83.6697 2.40614C71.9354 2.39385 53.7139 0.0599365 53.7139 0.0599365L31.965 7.30959C26.6089 9.09493 22.257 13.0608 19.9832 18.2285L1.43658 60.3799C13.0147 66.1707 27.6423 69.5285 40.534 70.2758C42.8228 80.1012 43.6606 87.2492 43.6606 96.5384C43.6606 113.927 40.4636 128.042 33.6072 155.468C49.7429 161.922 66.8067 164.935 83.8739 164.935C100.941 164.935 118.005 161.922 134.141 155.468C127.281 128.025 124.087 113.924 124.087 96.5384C124.087 87.0883 124.831 80.3124 127.204 70.2758Z" fill="url(#paint0_linear)"/>
</g>
<path id="Subtract" d="M32.3248 40.8844C30.8226 35.7284 25.2697 16.7686 23.4227 10.3644L1.43968 60.3624C10.5546 65.322 28.2483 69.3432 40.5948 70.2178C38.6869 62.7218 36.0004 53.5009 32.3248 40.8844Z" fill="url(#paint1_linear)"/>
<g id="Vector 1 (Stroke)" filter="url(#filter1_d)">
<path fill-rule="evenodd" clip-rule="evenodd" d="M19.788 68.7147C12.0034 66.3318 4.44101 63.311 0.81768 61.8516L2.39522 57.9349C6.01021 59.391 13.4271 62.3518 21.0239 64.6772C24.8242 65.8404 28.6232 66.8302 31.9849 67.3965C35.4096 67.9735 38.1327 68.0653 39.9071 67.6284L40.9166 71.7284C38.2676 72.3806 34.8331 72.1583 31.2834 71.5602C27.6706 70.9516 23.6785 69.9056 19.788 68.7147Z" fill="url(#paint2_linear)"/>
</g>
<g id="Vector 3 (Stroke)" filter="url(#filter2_d)">
<path fill-rule="evenodd" clip-rule="evenodd" d="M82.1463 169.029C61.9618 168.589 38.8283 161.333 32.1166 158.247L33.8804 154.411C40.1504 157.293 62.7166 164.382 82.2382 164.807C102.782 165.255 120.323 160.71 134.116 155.429L135.626 159.373C121.471 164.792 103.376 169.491 82.1463 169.029Z" fill="url(#paint3_linear)"/>
</g>
<g id="Vector 2 (Stroke)" filter="url(#filter3_d)">
<path fill-rule="evenodd" clip-rule="evenodd" d="M149.271 70.9346C154.995 69.5455 158.394 68.7204 168.182 64.1665L166.401 60.3381C156.98 64.7213 153.842 65.482 148.305 66.8242C147.774 66.9529 147.221 67.087 146.638 67.2302C146.639 67.2299 146.639 67.23 146.637 67.2304C146.632 67.2316 146.613 67.2359 146.576 67.2441C146.53 67.2541 146.469 67.2671 146.392 67.2832C146.239 67.3154 146.031 67.3581 145.775 67.4097C145.262 67.5129 144.564 67.65 143.734 67.8075C142.074 68.1227 139.897 68.5175 137.639 68.8832C135.376 69.2498 133.056 69.5829 131.103 69.779C130.125 69.8772 129.265 69.9384 128.562 69.9548C127.822 69.9721 127.39 69.9354 127.203 69.8958L126.329 74.0269C127.014 74.1716 127.848 74.1951 128.661 74.1761C129.511 74.1562 130.488 74.0844 131.525 73.9803C133.6 73.772 136.014 73.4238 138.314 73.0513C142.891 72.3101 147.181 71.4448 147.645 71.3308C148.211 71.1919 148.751 71.0609 149.271 70.9346Z" fill="url(#paint4_linear)"/>
</g>
<path id="Subtract_2" d="M135.426 40.8844C136.928 35.7284 142.481 16.7686 144.328 10.3644L166.311 60.3624C157.196 65.322 139.503 69.3432 127.156 70.2178C129.064 62.7218 131.751 53.5009 135.426 40.8844Z" fill="url(#paint5_linear)"/>
<path id="Subtract_3" d="M83.8756 164.877C78.5826 164.877 73.1108 164.227 68.8746 163.804C57.1772 162.637 45.0013 159.305 34.2697 155.561C41.1119 128.082 44.2826 116.163 45.0166 99.3631C45.0166 81.6526 42.0455 71.2244 31.6686 37.9139C29.5961 31.261 27.2374 23.6896 24.561 14.9571L48.8313 7.38928V7.76662C48.8313 17.9295 57.67 26.1977 68.5341 26.1977C75.4477 26.1977 83.8756 30.1637 83.8756 36.631C83.8756 41.3583 83.8756 66.3316 83.8756 66.3316C83.8756 66.3316 86.0306 92.0572 86.0203 111.427C86.0101 130.588 83.8756 164.877 83.8756 164.877Z" fill="url(#paint6_linear)"/>
<g id="Vector_2" filter="url(#filter4_i)">
<path d="M114.032 0.0599365V5.0866C114.032 13.4141 107.279 20.1666 98.9519 20.1666C90.6244 20.1666 83.8719 26.9191 83.8719 35.2466C83.8719 26.9191 77.1194 20.1666 68.7919 20.1666C60.4643 20.1666 53.7118 13.4141 53.7118 5.0866V0.0599365C53.7118 0.0599365 72.0613 2.29721 83.8719 2.29721C95.6824 2.29721 114.032 0.0599365 114.032 0.0599365Z" fill="url(#paint7_linear)"/>
</g>
<g id="Vector (Stroke)" filter="url(#filter5_d)">
<path fill-rule="evenodd" clip-rule="evenodd" d="M118.324 1.51556V5.0866C118.324 15.7831 109.651 24.456 98.9549 24.456C92.9963 24.456 88.1642 29.2881 88.1642 35.2466C88.1642 37.6156 86.2438 39.536 83.8749 39.536C81.5059 39.536 79.5855 37.6156 79.5855 35.2466C79.5855 29.2881 74.7534 24.456 68.7949 24.456C58.0984 24.456 49.4255 15.7831 49.4255 5.0866V1.51556L53.7149 0.0599365H114.035L118.324 1.51556ZM81.4231 27.002C82.9734 29.3716 83.8749 32.204 83.8749 35.2466C83.8749 32.204 84.7763 29.3716 86.3267 27.002C89.0195 22.8862 93.67 20.1666 98.9549 20.1666C107.282 20.1666 114.035 13.4141 114.035 5.0866V0.0599365H53.7149V5.0866C53.7149 13.4141 60.4673 20.1666 68.7949 20.1666C74.0797 20.1666 78.7302 22.8862 81.4231 27.002Z" fill="url(#paint8_linear)"/>
</g>
<g id="Vector_3" filter="url(#filter6_d)">
<path d="M83.5536 49.6717C84.9152 49.6717 86.019 48.5679 86.019 47.2063C86.019 45.8447 84.9152 44.7408 83.5536 44.7408C82.192 44.7408 81.0882 45.8447 81.0882 47.2063C81.0882 48.5679 82.192 49.6717 83.5536 49.6717Z" fill="url(#paint9_radial)"/>
</g>
<g id="Vector_4" filter="url(#filter7_i)">
<path d="M83.5539 49.0521C84.5783 49.0521 85.4088 48.2216 85.4088 47.1972C85.4088 46.1728 84.5783 45.3423 83.5539 45.3423C82.5295 45.3423 81.699 46.1728 81.699 47.1972C81.699 48.2216 82.5295 49.0521 83.5539 49.0521Z" fill="url(#paint10_radial)"/>
</g>
<g id="Vector_5" filter="url(#filter8_d)">
<path d="M83.5536 59.8869C84.9152 59.8869 86.019 58.7831 86.019 57.4215C86.019 56.0599 84.9152 54.9561 83.5536 54.9561C82.192 54.9561 81.0882 56.0599 81.0882 57.4215C81.0882 58.7831 82.192 59.8869 83.5536 59.8869Z" fill="url(#paint11_radial)"/>
</g>
<g id="Vector_6" filter="url(#filter9_i)">
<path d="M83.5539 59.2812C84.5783 59.2812 85.4088 58.4508 85.4088 57.4263C85.4088 56.4019 84.5783 55.5714 83.5539 55.5714C82.5295 55.5714 81.699 56.4019 81.699 57.4263C81.699 58.4508 82.5295 59.2812 83.5539 59.2812Z" fill="url(#paint12_radial)"/>
</g>
</g>
<defs>
<filter id="filter0_i" x="1.43658" y="-0.940063" width="164.875" height="165.875" filterUnits="userSpaceOnUse" color-interpolation-filters="sRGB">
<feFlood flood-opacity="0" result="BackgroundImageFix"/>
<feBlend mode="normal" in="SourceGraphic" in2="BackgroundImageFix" result="shape"/>
<feColorMatrix in="SourceAlpha" type="matrix" values="0 0 0 0 0 0 0 0 0 0 0 0 0 0 0 0 0 0 127 0" result="hardAlpha"/>
<feOffset dy="-1"/>
<feGaussianBlur stdDeviation="2"/>
<feComposite in2="hardAlpha" operator="arithmetic" k2="-1" k3="1"/>
<feColorMatrix type="matrix" values="0 0 0 0 0.317533 0 0 0 0 0 0 0 0 0 1.13559e-07 0 0 0 0.2 0"/>
<feBlend mode="normal" in2="shape" result="effect1_innerShadow"/>
</filter>
<filter id="filter1_d" x="0.61768" y="57.6349" width="40.4989" height="14.5894" filterUnits="userSpaceOnUse" color-interpolation-filters="sRGB">
<feFlood flood-opacity="0" result="BackgroundImageFix"/>
<feColorMatrix in="SourceAlpha" type="matrix" values="0 0 0 0 0 0 0 0 0 0 0 0 0 0 0 0 0 0 127 0"/>
<feOffset dy="-0.1"/>
<feGaussianBlur stdDeviation="0.1"/>
<feColorMatrix type="matrix" values="0 0 0 0 0 0 0 0 0 0 0 0 0 0 0 0 0 0 0.15 0"/>
<feBlend mode="normal" in2="BackgroundImageFix" result="effect1_dropShadow"/>
<feBlend mode="normal" in="SourceGraphic" in2="effect1_dropShadow" result="shape"/>
</filter>
<filter id="filter2_d" x="31.9166" y="154.111" width="103.909" height="15.0497" filterUnits="userSpaceOnUse" color-interpolation-filters="sRGB">
<feFlood flood-opacity="0" result="BackgroundImageFix"/>
<feColorMatrix in="SourceAlpha" type="matrix" values="0 0 0 0 0 0 0 0 0 0 0 0 0 0 0 0 0 0 127 0"/>
<feOffset dy="-0.1"/>
<feGaussianBlur stdDeviation="0.1"/>
<feColorMatrix type="matrix" values="0 0 0 0 0 0 0 0 0 0 0 0 0 0 0 0 0 0 0.15 0"/>
<feBlend mode="normal" in2="BackgroundImageFix" result="effect1_dropShadow"/>
<feBlend mode="normal" in="SourceGraphic" in2="effect1_dropShadow" result="shape"/>
</filter>
<filter id="filter3_d" x="126.129" y="60.0381" width="42.253" height="14.2437" filterUnits="userSpaceOnUse" color-interpolation-filters="sRGB">
<feFlood flood-opacity="0" result="BackgroundImageFix"/>
<feColorMatrix in="SourceAlpha" type="matrix" values="0 0 0 0 0 0 0 0 0 0 0 0 0 0 0 0 0 0 127 0"/>
<feOffset dy="-0.1"/>
<feGaussianBlur stdDeviation="0.1"/>
<feColorMatrix type="matrix" values="0 0 0 0 0 0 0 0 0 0 0 0 0 0 0 0 0 0 0.15 0"/>
<feBlend mode="normal" in2="BackgroundImageFix" result="effect1_dropShadow"/>
<feBlend mode="normal" in="SourceGraphic" in2="effect1_dropShadow" result="shape"/>
</filter>
<filter id="filter4_i" x="53.7118" y="-0.440063" width="60.32" height="35.6867" filterUnits="userSpaceOnUse" color-interpolation-filters="sRGB">
<feFlood flood-opacity="0" result="BackgroundImageFix"/>
<feBlend mode="normal" in="SourceGraphic" in2="BackgroundImageFix" result="shape"/>
<feColorMatrix in="SourceAlpha" type="matrix" values="0 0 0 0 0 0 0 0 0 0 0 0 0 0 0 0 0 0 127 0" result="hardAlpha"/>
<feOffset dy="-0.5"/>
<feGaussianBlur stdDeviation="0.5"/>
<feComposite in2="hardAlpha" operator="arithmetic" k2="-1" k3="1"/>
<feColorMatrix type="matrix" values="0 0 0 0 0 0 0 0 0 0 0 0 0 0 0 0 0 0 0.15 0"/>
<feBlend mode="normal" in2="shape" result="effect1_innerShadow"/>
</filter>
<filter id="filter5_d" x="49.1255" y="-0.0400635" width="69.4988" height="40.076" filterUnits="userSpaceOnUse" color-interpolation-filters="sRGB">
<feFlood flood-opacity="0" result="BackgroundImageFix"/>
<feColorMatrix in="SourceAlpha" type="matrix" values="0 0 0 0 0 0 0 0 0 0 0 0 0 0 0 0 0 0 127 0"/>
<feOffset dy="0.2"/>
<feGaussianBlur stdDeviation="0.15"/>
<feColorMatrix type="matrix" values="0 0 0 0 0 0 0 0 0 0 0 0 0 0 0 0 0 0 0.25 0"/>
<feBlend mode="normal" in2="BackgroundImageFix" result="effect1_dropShadow"/>
<feBlend mode="normal" in="SourceGraphic" in2="effect1_dropShadow" result="shape"/>
</filter>
<filter id="filter6_d" x="80.8882" y="44.7408" width="5.33087" height="5.33086" filterUnits="userSpaceOnUse" color-interpolation-filters="sRGB">
<feFlood flood-opacity="0" result="BackgroundImageFix"/>
<feColorMatrix in="SourceAlpha" type="matrix" values="0 0 0 0 0 0 0 0 0 0 0 0 0 0 0 0 0 0 127 0"/>
<feOffset dy="0.2"/>
<feGaussianBlur stdDeviation="0.1"/>
<feColorMatrix type="matrix" values="0 0 0 0 0 0 0 0 0 0 0 0 0 0 0 0 0 0 0.15 0"/>
<feBlend mode="normal" in2="BackgroundImageFix" result="effect1_dropShadow"/>
<feBlend mode="normal" in="SourceGraphic" in2="effect1_dropShadow" result="shape"/>
</filter>
<filter id="filter7_i" x="81.699" y="45.3423" width="3.70982" height="3.80981" filterUnits="userSpaceOnUse" color-interpolation-filters="sRGB">
<feFlood flood-opacity="0" result="BackgroundImageFix"/>
<feBlend mode="normal" in="SourceGraphic" in2="BackgroundImageFix" result="shape"/>
<feColorMatrix in="SourceAlpha" type="matrix" values="0 0 0 0 0 0 0 0 0 0 0 0 0 0 0 0 0 0 127 0" result="hardAlpha"/>
<feOffset dy="0.1"/>
<feGaussianBlur stdDeviation="0.1"/>
<feComposite in2="hardAlpha" operator="arithmetic" k2="-1" k3="1"/>
<feColorMatrix type="matrix" values="0 0 0 0 0.484241 0 0 0 0 0 0 0 0 0 1.73178e-07 0 0 0 0.15 0"/>
<feBlend mode="normal" in2="shape" result="effect1_innerShadow"/>
</filter>
<filter id="filter8_d" x="80.8882" y="54.9561" width="5.33087" height="5.33086" filterUnits="userSpaceOnUse" color-interpolation-filters="sRGB">
<feFlood flood-opacity="0" result="BackgroundImageFix"/>
<feColorMatrix in="SourceAlpha" type="matrix" values="0 0 0 0 0 0 0 0 0 0 0 0 0 0 0 0 0 0 127 0"/>
<feOffset dy="0.2"/>
<feGaussianBlur stdDeviation="0.1"/>
<feColorMatrix type="matrix" values="0 0 0 0 0 0 0 0 0 0 0 0 0 0 0 0 0 0 0.15 0"/>
<feBlend mode="normal" in2="BackgroundImageFix" result="effect1_dropShadow"/>
<feBlend mode="normal" in="SourceGraphic" in2="effect1_dropShadow" result="shape"/>
</filter>
<filter id="filter9_i" x="81.699" y="55.5714" width="3.70982" height="3.80981" filterUnits="userSpaceOnUse" color-interpolation-filters="sRGB">
<feFlood flood-opacity="0" result="BackgroundImageFix"/>
<feBlend mode="normal" in="SourceGraphic" in2="BackgroundImageFix" result="shape"/>
<feColorMatrix in="SourceAlpha" type="matrix" values="0 0 0 0 0 0 0 0 0 0 0 0 0 0 0 0 0 0 127 0" result="hardAlpha"/>
<feOffset dy="0.1"/>
<feGaussianBlur stdDeviation="0.1"/>
<feComposite in2="hardAlpha" operator="arithmetic" k2="-1" k3="1"/>
<feColorMatrix type="matrix" values="0 0 0 0 0.592574 0 0 0 0 0 0 0 0 0 2.11921e-07 0 0 0 0.25 0"/>
<feBlend mode="normal" in2="shape" result="effect1_innerShadow"/>
</filter>
<linearGradient id="paint0_linear" x1="83.8739" y1="0.0599365" x2="83.8739" y2="164.935" gradientUnits="userSpaceOnUse">
<stop stop-color="#EB90B1"/>
<stop offset="1" stop-color="#E7246A"/>
</linearGradient>
<linearGradient id="paint1_linear" x1="8.81204" y1="38.7815" x2="38.1674" y2="60.8127" gradientUnits="userSpaceOnUse">
<stop stop-color="#EB90B1" stop-opacity="0"/>
<stop offset="1" stop-color="#E7266C"/>
</linearGradient>
<linearGradient id="paint2_linear" x1="3.71762" y1="59.9603" x2="34.2794" y2="70.8178" gradientUnits="userSpaceOnUse">
<stop stop-color="#FFDAE7"/>
<stop offset="1" stop-color="#FF7FAC"/>
</linearGradient>
<linearGradient id="paint3_linear" x1="50.4241" y1="156.329" x2="128.437" y2="158.742" gradientUnits="userSpaceOnUse">
<stop stop-color="#FEA8C6"/>
<stop offset="0.202068" stop-color="#F684AD"/>
<stop offset="0.4284" stop-color="#BE1351"/>
<stop offset="0.434947" stop-color="#FF7FAC"/>
<stop offset="0.709599" stop-color="#FF5993"/>
</linearGradient>
<linearGradient id="paint4_linear" x1="163.46" y1="62.506" x2="132.899" y2="73.3635" gradientUnits="userSpaceOnUse">
<stop stop-color="#FFDAE7"/>
<stop offset="1" stop-color="#FF7FAC"/>
</linearGradient>
<linearGradient id="paint5_linear" x1="158.939" y1="38.7815" x2="129.584" y2="60.8127" gradientUnits="userSpaceOnUse">
<stop stop-color="#EB90B1" stop-opacity="0"/>
<stop offset="1" stop-color="#E7266C"/>
</linearGradient>
<linearGradient id="paint6_linear" x1="57.5904" y1="114.108" x2="93.5203" y2="121.424" gradientUnits="userSpaceOnUse">
<stop stop-color="#EB90B1" stop-opacity="0"/>
<stop offset="1" stop-color="#B50443"/>
</linearGradient>
<linearGradient id="paint7_linear" x1="83.8719" y1="0.0599365" x2="83.8719" y2="35.2466" gradientUnits="userSpaceOnUse">
<stop stop-color="#D32E5F"/>
<stop offset="1" stop-color="#822340"/>
</linearGradient>
<linearGradient id="paint8_linear" x1="83.8749" y1="0.0599365" x2="83.8749" y2="39.536" gradientUnits="userSpaceOnUse">
<stop stop-color="#FFDDE9"/>
<stop offset="1" stop-color="#FF92B9"/>
</linearGradient>
<radialGradient id="paint9_radial" cx="0" cy="0" r="1" gradientUnits="userSpaceOnUse" gradientTransform="translate(82.2589 45.3514) rotate(73.3183) scale(4.51015)">
<stop stop-color="#FFDBE8"/>
<stop offset="1" stop-color="#FF96BC"/>
</radialGradient>
<radialGradient id="paint10_radial" cx="0" cy="0" r="1" gradientUnits="userSpaceOnUse" gradientTransform="translate(82.5798 45.8016) rotate(73.3183) scale(3.39328)">
<stop stop-color="#FFDBE8"/>
<stop offset="1" stop-color="#FF96BC"/>
</radialGradient>
<radialGradient id="paint11_radial" cx="0" cy="0" r="1" gradientUnits="userSpaceOnUse" gradientTransform="translate(81.5217 54.9561) rotate(67.6046) scale(5.3331)">
<stop stop-color="#FFDBE8"/>
<stop offset="1" stop-color="#FF96BC"/>
</radialGradient>
<radialGradient id="paint12_radial" cx="0" cy="0" r="1" gradientUnits="userSpaceOnUse" gradientTransform="translate(82.5798 56.0307) rotate(73.3183) scale(3.39328)">
<stop stop-color="#FFDBE8"/>
<stop offset="1" stop-color="#FF96BC"/>
</radialGradient>
<clipPath id="clip0">
<rect width="169" height="169" fill="white" transform="translate(0 0.0600586)"/>
</clipPath>
</defs>
</svg>
