<svg width="169" height="170" viewBox="0 0 169 170" fill="none" xmlns="http://www.w3.org/2000/svg">
<g id="coat" clip-path="url(#clip0)">
<path id="Vector" d="M59.436 0.449829H109.567L97.4311 142.695C93.8377 141.65 89.6369 141.046 85.1499 141.046C80.6629 141.046 75.165 141.646 71.5716 142.695" fill="url(#paint0_linear)"/>
<g id="Vector_2" filter="url(#filter0_i)">
<path d="M71.5737 76.6481V168.67C49.5448 166.325 42.0846 158.447 42.0846 158.447V58.8213L41.6952 60.228L20.7558 135.909C7.41605 139.368 0.003479 130.473 0.003479 130.473C2.07291 84.9503 16.6183 44.6215 21.2948 32.7193C22.1987 30.4088 22.7325 29.1697 22.7325 29.1697C23.0844 28.8177 23.4403 28.4734 23.8013 28.1317C35.6764 16.9258 53.1693 10.7008 53.1693 10.7008L63.0239 7.37549" fill="url(#paint1_linear)"/>
</g>
<g id="Vector_3" filter="url(#filter1_f)">
<path d="M58.2665 10.7052L46.8076 33.1006H60.9245L44.2845 65.4618L67.5183 75.1891C67.5183 75.1891 73.0929 25.1912 58.2665 10.7052Z" fill="url(#paint2_linear)"/>
</g>
<g id="Vector_4" filter="url(#filter2_i)">
<path d="M97.4295 76.6481V168.67C119.457 166.325 126.917 158.447 126.917 158.447V58.8213L127.308 60.228L148.246 135.909C161.587 139.368 168.998 130.473 168.998 130.473C166.929 84.9503 152.385 44.6215 147.708 32.7193C146.805 30.4088 146.269 29.1697 146.269 29.1697C145.917 28.8177 145.563 28.4734 145.201 28.1317C133.325 16.9258 115.833 10.7008 115.833 10.7008L105.979 7.37549" fill="url(#paint3_linear)"/>
</g>
<g id="Vector_5" filter="url(#filter3_f)">
<path d="M109.756 7.62134L123.873 33.5761H109.756L126.396 65.9372L101.163 73.5071C101.163 73.5071 94.93 22.1074 109.756 7.62134Z" fill="url(#paint4_linear)"/>
</g>
<g id="Vector_6" filter="url(#filter4_d)">
<path d="M105.448 97.6956C105.279 97.6956 105.11 97.6814 104.941 97.6479C104.775 97.6131 104.614 97.5654 104.458 97.4996C104.303 97.4338 104.151 97.3539 104.013 97.2611C103.869 97.1682 103.737 97.0574 103.62 96.94C103.498 96.8201 103.393 96.6886 103.296 96.5468C103.203 96.4062 103.123 96.2579 103.058 96.0994C102.996 95.9433 102.944 95.7822 102.913 95.6158C102.878 95.4508 102.862 95.278 102.862 95.1091C102.862 94.9402 102.878 94.7713 102.913 94.605C102.944 94.4399 102.996 94.2775 103.058 94.1228C103.123 93.9642 103.203 93.8159 103.296 93.6741C103.393 93.5335 103.5 93.402 103.62 93.2808C103.737 93.1609 103.869 93.0539 104.013 92.961C104.151 92.8669 104.303 92.7883 104.458 92.7225C104.614 92.6568 104.775 92.609 104.941 92.5742C105.782 92.4053 106.675 92.6813 107.276 93.2808C107.759 93.7643 108.034 94.4296 108.034 95.1091C108.034 95.7925 107.759 96.4578 107.276 96.94C106.797 97.4197 106.128 97.6956 105.448 97.6956V97.6956Z" fill="url(#paint5_linear)"/>
</g>
<g id="Vector_7" filter="url(#filter5_d)">
<path d="M105.448 111.067C105.279 111.067 105.11 111.053 104.941 111.02C104.775 110.985 104.614 110.937 104.458 110.871C104.303 110.806 104.151 110.726 104.013 110.633C103.869 110.54 103.737 110.429 103.62 110.312C103.498 110.192 103.393 110.06 103.296 109.918C103.203 109.778 103.123 109.63 103.058 109.471C102.996 109.315 102.944 109.154 102.913 108.988C102.878 108.823 102.862 108.65 102.862 108.481C102.862 108.312 102.878 108.143 102.913 107.977C102.944 107.812 102.996 107.649 103.058 107.494C103.123 107.336 103.203 107.188 103.296 107.046C103.393 106.905 103.5 106.774 103.62 106.653C103.737 106.533 103.869 106.426 104.013 106.333C104.151 106.239 104.303 106.16 104.458 106.094C104.614 106.028 104.775 105.981 104.941 105.946C105.782 105.777 106.675 106.053 107.276 106.653C107.759 107.136 108.034 107.801 108.034 108.481C108.034 109.164 107.759 109.83 107.276 110.312C106.797 110.791 106.128 111.067 105.448 111.067V111.067Z" fill="url(#paint6_linear)"/>
</g>
<g id="Group">
<g id="Vector_8">
<mask id="path-8-inside-1" fill="white">
<path d="M24.7261 121.564L20.7562 135.906C7.41122 139.365 -6.10352e-05 130.47 -6.10352e-05 130.47C0.234604 125.307 0.631729 120.213 1.15134 115.218C7.39446 121.375 18.4933 121.375 24.5534 121.375L24.7261 121.564Z"/>
</mask>
<g filter="url(#filter6_i)">
<path d="M24.7261 121.564L20.7562 135.906C7.41122 139.365 -6.10352e-05 130.47 -6.10352e-05 130.47C0.234604 125.307 0.631729 120.213 1.15134 115.218C7.39446 121.375 18.4933 121.375 24.5534 121.375L24.7261 121.564Z" fill="url(#paint7_linear)"/>
</g>
<path d="M24.7261 121.564L20.7562 135.906C7.41122 139.365 -6.10352e-05 130.47 -6.10352e-05 130.47C0.234604 125.307 0.631729 120.213 1.15134 115.218C7.39446 121.375 18.4933 121.375 24.5534 121.375L24.7261 121.564Z" stroke="#E29A67" stroke-opacity="0.7" stroke-width="0.4" mask="url(#path-8-inside-1)"/>
</g>
<path id="Vector_9" d="M62.9879 10.699L61.0809 20.0727C43.0388 26.3197 27.8706 33.0618 23.4868 55.9842C19.1068 78.9053 6.27372 134.91 6.27372 134.91C2.17224 133.068 0.00610352 130.467 0.00610352 130.467C2.47653 76.1125 22.7351 29.1679 22.7351 29.1679C34.596 17.307 53.1719 10.699 53.1719 10.699L54.0873 10.3895L62.9879 10.699Z" fill="url(#paint8_linear)"/>
<path id="Vector_10" d="M45.8492 75.2088L54.1612 164.982C45.4116 161.95 42.0902 158.446 42.0902 158.446V58.8163C42.0902 50.6417 45.8492 75.2088 45.8492 75.2088Z" fill="url(#paint9_linear)"/>
<path id="Vector_11" d="M158.028 136.364L158.014 136.37C155.242 136.868 151.976 136.864 148.247 135.898L127.309 60.2215L126.919 58.811C126.919 58.6653 126.919 58.5247 126.926 58.379C127.036 57.6892 127.977 52.1539 131.012 45.5911L133.438 53.7334L158.028 136.364Z" fill="url(#paint10_linear)"/>
<g id="Vector_12">
<mask id="path-12-inside-2" fill="white">
<path d="M144.275 121.564L148.245 135.906C161.589 139.365 169 130.47 169 130.47C168.765 125.307 168.369 120.213 167.849 115.218C161.605 121.375 150.507 121.375 144.447 121.375L144.275 121.564Z"/>
</mask>
<g filter="url(#filter7_i)">
<path d="M144.275 121.564L148.245 135.906C161.589 139.365 169 130.47 169 130.47C168.765 125.307 168.369 120.213 167.849 115.218C161.605 121.375 150.507 121.375 144.447 121.375L144.275 121.564Z" fill="url(#paint11_linear)"/>
</g>
<path d="M144.275 121.564L148.245 135.906C161.589 139.365 169 130.47 169 130.47C168.765 125.307 168.369 120.213 167.849 115.218C161.605 121.375 150.507 121.375 144.447 121.375L144.275 121.564Z" stroke="#E29A67" stroke-opacity="0.7" stroke-width="0.4" mask="url(#path-12-inside-2)"/>
</g>
</g>
<path id="Vector_13" d="M162.362 128.449C162.193 128.449 162.024 128.435 161.855 128.401C161.692 128.366 161.526 128.319 161.371 128.253C161.217 128.187 161.064 128.107 160.926 128.014C160.785 127.922 160.651 127.811 160.533 127.693C160.412 127.574 160.306 127.442 160.21 127.3C160.115 127.16 160.037 127.011 159.971 126.853C159.909 126.697 159.858 126.536 159.827 126.369C159.792 126.204 159.775 126.031 159.775 125.866C159.775 125.698 159.792 125.525 159.827 125.358C159.858 125.193 159.909 125.031 159.971 124.876C160.037 124.718 160.117 124.569 160.21 124.427C160.306 124.287 160.412 124.155 160.533 124.034C160.651 123.917 160.785 123.807 160.926 123.714C161.064 123.62 161.217 123.542 161.371 123.476C161.526 123.41 161.692 123.362 161.855 123.328C162.695 123.159 163.589 123.435 164.189 124.034C164.31 124.155 164.417 124.287 164.51 124.427C164.606 124.569 164.686 124.718 164.748 124.876C164.813 125.031 164.865 125.193 164.896 125.358C164.931 125.525 164.948 125.698 164.948 125.866C164.948 126.031 164.931 126.204 164.896 126.369C164.865 126.536 164.814 126.697 164.748 126.853C164.686 127.011 164.606 127.16 164.51 127.3C164.417 127.442 164.31 127.574 164.189 127.693C163.71 128.173 163.044 128.449 162.362 128.449Z" fill="url(#paint12_linear)"/>
<path id="Vector_14" d="M6.64122 128.449C6.47231 128.449 6.30341 128.435 6.1345 128.401C5.96817 128.366 5.807 128.319 5.65099 128.253C5.49626 128.187 5.34412 128.107 5.20615 128.014C5.06174 127.922 4.93023 127.811 4.8129 127.693C4.6917 127.574 4.58597 127.442 4.48927 127.3C4.39643 127.16 4.31649 127.011 4.25073 126.853C4.18884 126.697 4.13727 126.536 4.10632 126.369C4.07151 126.204 4.05475 126.031 4.05475 125.863C4.05475 125.694 4.07151 125.525 4.10632 125.358C4.13727 125.193 4.18884 125.031 4.25073 124.876C4.31649 124.718 4.39643 124.569 4.48927 124.427C4.58597 124.287 4.69299 124.155 4.8129 124.034C4.93023 123.914 5.06174 123.807 5.20615 123.714C5.34412 123.62 5.49626 123.542 5.65099 123.476C5.807 123.41 5.96817 123.362 6.1345 123.328C6.97517 123.159 7.8687 123.435 8.46954 124.034C8.95177 124.518 9.22769 125.183 9.22769 125.863C9.22769 126.546 8.95177 127.211 8.46954 127.693C7.9899 128.173 7.32072 128.449 6.64122 128.449V128.449Z" fill="url(#paint13_linear)"/>
<g id="Vector_15" filter="url(#filter8_d)">
<mask id="path-15-inside-3" fill="white">
<path d="M59.435 0.449829L45.2777 26.7542L59.435 32.1476L46.2886 45.294L71.5705 76.6437C71.5705 76.6437 74.2627 14.9359 59.435 0.449829Z"/>
</mask>
<path d="M59.435 0.449829L45.2777 26.7542L59.435 32.1476L46.2886 45.294L71.5705 76.6437C71.5705 76.6437 74.2627 14.9359 59.435 0.449829Z" fill="url(#paint14_linear)"/>
<path d="M59.435 0.449829L45.2777 26.7542L59.435 32.1476L46.2886 45.294L71.5705 76.6437C71.5705 76.6437 74.2627 14.9359 59.435 0.449829Z" stroke="#BE7E4E" stroke-opacity="0.4" stroke-width="0.4" mask="url(#path-15-inside-3)"/>
</g>
<g id="Vector_16" filter="url(#filter9_d)">
<mask id="path-16-inside-4" fill="white">
<path d="M109.564 0.449829L123.723 26.7542L109.564 32.1476L122.711 45.294L97.4286 76.6437C97.4286 76.6437 94.7377 14.9359 109.564 0.449829Z"/>
</mask>
<path d="M109.564 0.449829L123.723 26.7542L109.564 32.1476L122.711 45.294L97.4286 76.6437C97.4286 76.6437 94.7377 14.9359 109.564 0.449829Z" fill="url(#paint15_linear)"/>
<path d="M109.564 0.449829L123.723 26.7542L109.564 32.1476L122.711 45.294L97.4286 76.6437C97.4286 76.6437 94.7377 14.9359 109.564 0.449829Z" stroke="#BE7E4E" stroke-opacity="0.4" stroke-width="0.4" mask="url(#path-16-inside-4)"/>
</g>
<g id="Vector_17" opacity="0.7" filter="url(#filter10_f)">
<mask id="path-17-inside-5" fill="white">
<path d="M126.258 130.071L108.175 134.346V125.655L124.506 117.454"/>
</mask>
<path d="M126.258 130.071L108.175 134.346V125.655L124.506 117.454" fill="url(#paint16_linear)"/>
<path d="M126.304 130.265C126.412 130.24 126.478 130.132 126.453 130.025C126.427 129.917 126.32 129.85 126.212 129.876L126.304 130.265ZM108.175 134.346H107.975C107.975 134.407 108.002 134.465 108.05 134.503C108.098 134.541 108.161 134.555 108.221 134.541L108.175 134.346ZM108.175 125.655L108.085 125.476C108.017 125.51 107.975 125.579 107.975 125.655H108.175ZM124.596 117.633C124.694 117.583 124.734 117.463 124.685 117.364C124.635 117.266 124.515 117.226 124.416 117.275L124.596 117.633ZM126.212 129.876L108.129 134.151L108.221 134.541L126.304 130.265L126.212 129.876ZM108.375 134.346V125.655H107.975V134.346H108.375ZM108.264 125.834L124.596 117.633L124.416 117.275L108.085 125.476L108.264 125.834Z" fill="#C58A60" mask="url(#path-17-inside-5)"/>
</g>
<g id="Vector_18" opacity="0.7" filter="url(#filter11_f)">
<mask id="path-19-inside-6" fill="white">
<path d="M43.0778 130.071L61.1613 134.346V125.655L44.8301 117.454"/>
</mask>
<path d="M43.0778 130.071L61.1613 134.346V125.655L44.8301 117.454" fill="url(#paint17_linear)"/>
<path d="M43.0318 130.265C42.9243 130.24 42.8577 130.132 42.8831 130.025C42.9086 129.917 43.0163 129.85 43.1238 129.876L43.0318 130.265ZM61.1613 134.346H61.3613C61.3613 134.407 61.3334 134.465 61.2854 134.503C61.2375 134.541 61.1748 134.555 61.1153 134.541L61.1613 134.346ZM61.1613 125.655L61.2511 125.476C61.3187 125.51 61.3613 125.579 61.3613 125.655H61.1613ZM44.7403 117.633C44.6416 117.583 44.6018 117.463 44.6513 117.364C44.7009 117.266 44.8211 117.226 44.9198 117.275L44.7403 117.633ZM43.1238 129.876L61.2073 134.151L61.1153 134.541L43.0318 130.265L43.1238 129.876ZM60.9613 134.346V125.655H61.3613V134.346H60.9613ZM61.0716 125.834L44.7403 117.633L44.9198 117.275L61.2511 125.476L61.0716 125.834Z" fill="#C58A60" mask="url(#path-19-inside-6)"/>
</g>
<g id="Vector_19" filter="url(#filter12_di)">
<mask id="path-21-inside-7" fill="white">
<path d="M126.919 123.258L106.853 134.045V122.936L126.919 112.149"/>
</mask>
<path d="M126.919 123.258L106.853 134.045V122.936L126.919 112.149" fill="url(#paint18_linear)"/>
<path d="M127.013 123.435C127.111 123.382 127.147 123.261 127.095 123.164C127.042 123.066 126.921 123.03 126.824 123.082L127.013 123.435ZM106.853 134.045H106.653C106.653 134.116 106.69 134.181 106.751 134.217C106.811 134.253 106.886 134.255 106.948 134.221L106.853 134.045ZM106.853 122.936L106.759 122.76C106.694 122.795 106.653 122.862 106.653 122.936H106.853ZM127.013 112.325C127.111 112.273 127.147 112.152 127.095 112.054C127.042 111.957 126.921 111.921 126.824 111.973L127.013 112.325ZM126.824 123.082L106.759 133.869L106.948 134.221L127.013 123.435L126.824 123.082ZM107.053 134.045V122.936H106.653V134.045H107.053ZM106.948 123.112L127.013 112.325L126.824 111.973L106.759 122.76L106.948 123.112Z" fill="#C58A60" mask="url(#path-21-inside-7)"/>
</g>
<g id="Vector_20" filter="url(#filter13_di)">
<mask id="path-23-inside-8" fill="white">
<path d="M42.0865 123.439L62.1517 134.226V123.117L42.0865 112.33"/>
</mask>
<path d="M42.0865 123.439L62.1517 134.226V123.117L42.0865 112.33" fill="url(#paint19_linear)"/>
<path d="M41.9918 123.615C41.8945 123.563 41.8581 123.441 41.9104 123.344C41.9627 123.247 42.0839 123.21 42.1812 123.263L41.9918 123.615ZM62.1517 134.226H62.3517C62.3517 134.296 62.3147 134.361 62.2543 134.397C62.1939 134.434 62.119 134.435 62.057 134.402L62.1517 134.226ZM62.1517 123.117L62.2464 122.94C62.3112 122.975 62.3517 123.043 62.3517 123.117H62.1517ZM41.9918 112.506C41.8945 112.454 41.8581 112.332 41.9104 112.235C41.9627 112.138 42.0839 112.101 42.1812 112.154L41.9918 112.506ZM42.1812 123.263L62.2464 134.05L62.057 134.402L41.9918 123.615L42.1812 123.263ZM61.9517 134.226V123.117H62.3517V134.226H61.9517ZM62.057 123.293L41.9918 112.506L42.1812 112.154L62.2464 122.94L62.057 123.293Z" fill="#C58A60" mask="url(#path-23-inside-8)"/>
</g>
<path id="Vector_21" d="M88.2573 11.7601H80.7441C79.3142 11.7601 78.1564 10.6023 78.1564 9.17363C78.1564 7.74501 79.3142 6.58716 80.7441 6.58716H88.2573C89.6859 6.58716 90.8437 7.74501 90.8437 9.17363C90.8437 10.6023 89.6859 11.7601 88.2573 11.7601Z" fill="url(#paint20_linear)"/>
<path id="Vector_22" d="M45.0315 61.3743C44.9013 61.3949 44.7659 61.4052 44.6357 61.4052C43.3799 61.4052 42.28 60.4911 42.0828 59.2107C42.0802 59.1978 42.066 59.1179 42.0415 58.9735C41.6031 56.6346 37.6615 37.8072 22.2794 30.2463C22.572 29.5359 22.7306 29.1671 22.7306 29.1671C23.7351 28.164 24.7859 27.1983 25.869 26.2738C43.5036 35.8345 41.9319 56.4056 42.0828 57.3855C42.3007 58.7961 46.446 61.1564 45.0315 61.3743Z" fill="url(#paint21_linear)"/>
<path id="Vector_23" d="M147.709 32.7161C139.438 38.6201 135.324 47.8739 133.437 53.7367C132.593 56.3683 132.192 58.3178 132.072 58.9728C132.048 59.1172 132.033 59.1971 132.031 59.21C131.833 60.4904 130.734 61.4045 129.478 61.4045C129.346 61.4045 129.212 61.3942 129.081 61.3736C128.323 61.2563 127.691 60.8217 127.309 60.2248C127.108 59.9205 126.974 59.5762 126.918 59.21C126.877 58.956 126.877 58.6904 126.918 58.4209C126.918 58.4106 126.922 58.3964 126.926 58.3823C127.036 57.6925 127.977 52.1572 131.012 45.5943C133.744 39.6761 138.169 32.9263 145.202 28.1285C145.564 28.4702 145.919 28.8145 146.271 29.1665C146.271 29.1665 146.806 30.4056 147.709 32.7161V32.7161Z" fill="url(#paint22_linear)"/>
</g>
<defs>
<filter id="filter0_i" x="0.003479" y="7.37549" width="71.5702" height="161.295" filterUnits="userSpaceOnUse" color-interpolation-filters="sRGB">
<feFlood flood-opacity="0" result="BackgroundImageFix"/>
<feBlend mode="normal" in="SourceGraphic" in2="BackgroundImageFix" result="shape"/>
<feColorMatrix in="SourceAlpha" type="matrix" values="0 0 0 0 0 0 0 0 0 0 0 0 0 0 0 0 0 0 127 0" result="hardAlpha"/>
<feOffset/>
<feGaussianBlur stdDeviation="7"/>
<feComposite in2="hardAlpha" operator="arithmetic" k2="-1" k3="1"/>
<feColorMatrix type="matrix" values="0 0 0 0 0.5842 0 0 0 0 0.315468 0 0 0 0 0 0 0 0 0.25 0"/>
<feBlend mode="normal" in2="shape" result="effect1_innerShadow"/>
</filter>
<filter id="filter1_f" x="39.2845" y="5.7052" width="34.2607" height="74.4839" filterUnits="userSpaceOnUse" color-interpolation-filters="sRGB">
<feFlood flood-opacity="0" result="BackgroundImageFix"/>
<feBlend mode="normal" in="SourceGraphic" in2="BackgroundImageFix" result="shape"/>
<feGaussianBlur stdDeviation="2.5" result="effect1_foregroundBlur"/>
</filter>
<filter id="filter2_i" x="97.4295" y="7.37549" width="71.5689" height="161.295" filterUnits="userSpaceOnUse" color-interpolation-filters="sRGB">
<feFlood flood-opacity="0" result="BackgroundImageFix"/>
<feBlend mode="normal" in="SourceGraphic" in2="BackgroundImageFix" result="shape"/>
<feColorMatrix in="SourceAlpha" type="matrix" values="0 0 0 0 0 0 0 0 0 0 0 0 0 0 0 0 0 0 127 0" result="hardAlpha"/>
<feOffset/>
<feGaussianBlur stdDeviation="7"/>
<feComposite in2="hardAlpha" operator="arithmetic" k2="-1" k3="1"/>
<feColorMatrix type="matrix" values="0 0 0 0 0.5842 0 0 0 0 0.315468 0 0 0 0 0 0 0 0 0.25 0"/>
<feBlend mode="normal" in2="shape" result="effect1_innerShadow"/>
</filter>
<filter id="filter3_f" x="94.8629" y="2.62134" width="36.5335" height="75.8857" filterUnits="userSpaceOnUse" color-interpolation-filters="sRGB">
<feFlood flood-opacity="0" result="BackgroundImageFix"/>
<feBlend mode="normal" in="SourceGraphic" in2="BackgroundImageFix" result="shape"/>
<feGaussianBlur stdDeviation="2.5" result="effect1_foregroundBlur"/>
</filter>
<filter id="filter4_d" x="102.362" y="92.2253" width="6.17294" height="6.17032" filterUnits="userSpaceOnUse" color-interpolation-filters="sRGB">
<feFlood flood-opacity="0" result="BackgroundImageFix"/>
<feColorMatrix in="SourceAlpha" type="matrix" values="0 0 0 0 0 0 0 0 0 0 0 0 0 0 0 0 0 0 127 0"/>
<feOffset dy="0.2"/>
<feGaussianBlur stdDeviation="0.25"/>
<feColorMatrix type="matrix" values="0 0 0 0 0.0675741 0 0 0 0 0.0324355 0 0 0 0 0 0 0 0 0.55 0"/>
<feBlend mode="normal" in2="BackgroundImageFix" result="effect1_dropShadow"/>
<feBlend mode="normal" in="SourceGraphic" in2="effect1_dropShadow" result="shape"/>
</filter>
<filter id="filter5_d" x="102.362" y="105.597" width="6.17294" height="6.17032" filterUnits="userSpaceOnUse" color-interpolation-filters="sRGB">
<feFlood flood-opacity="0" result="BackgroundImageFix"/>
<feColorMatrix in="SourceAlpha" type="matrix" values="0 0 0 0 0 0 0 0 0 0 0 0 0 0 0 0 0 0 127 0"/>
<feOffset dy="0.2"/>
<feGaussianBlur stdDeviation="0.25"/>
<feColorMatrix type="matrix" values="0 0 0 0 0.0675741 0 0 0 0 0.0324355 0 0 0 0 0 0 0 0 0.55 0"/>
<feBlend mode="normal" in2="BackgroundImageFix" result="effect1_dropShadow"/>
<feBlend mode="normal" in="SourceGraphic" in2="effect1_dropShadow" result="shape"/>
</filter>
<filter id="filter6_i" x="-6.10352e-05" y="115.218" width="24.7262" height="21.4868" filterUnits="userSpaceOnUse" color-interpolation-filters="sRGB">
<feFlood flood-opacity="0" result="BackgroundImageFix"/>
<feBlend mode="normal" in="SourceGraphic" in2="BackgroundImageFix" result="shape"/>
<feColorMatrix in="SourceAlpha" type="matrix" values="0 0 0 0 0 0 0 0 0 0 0 0 0 0 0 0 0 0 127 0" result="hardAlpha"/>
<feOffset/>
<feGaussianBlur stdDeviation="0.25"/>
<feComposite in2="hardAlpha" operator="arithmetic" k2="-1" k3="1"/>
<feColorMatrix type="matrix" values="0 0 0 0 0 0 0 0 0 0 0 0 0 0 0 0 0 0 0.19 0"/>
<feBlend mode="normal" in2="shape" result="effect1_innerShadow"/>
</filter>
<filter id="filter7_i" x="144.275" y="115.218" width="24.7249" height="21.7868" filterUnits="userSpaceOnUse" color-interpolation-filters="sRGB">
<feFlood flood-opacity="0" result="BackgroundImageFix"/>
<feBlend mode="normal" in="SourceGraphic" in2="BackgroundImageFix" result="shape"/>
<feColorMatrix in="SourceAlpha" type="matrix" values="0 0 0 0 0 0 0 0 0 0 0 0 0 0 0 0 0 0 127 0" result="hardAlpha"/>
<feOffset dy="0.3"/>
<feGaussianBlur stdDeviation="0.25"/>
<feComposite in2="hardAlpha" operator="arithmetic" k2="-1" k3="1"/>
<feColorMatrix type="matrix" values="0 0 0 0 0.284241 0 0 0 0 0.102327 0 0 0 0 0 0 0 0 0.25 0"/>
<feBlend mode="normal" in2="shape" result="effect1_innerShadow"/>
</filter>
<filter id="filter8_d" x="44.7777" y="0.249829" width="27.4838" height="77.1939" filterUnits="userSpaceOnUse" color-interpolation-filters="sRGB">
<feFlood flood-opacity="0" result="BackgroundImageFix"/>
<feColorMatrix in="SourceAlpha" type="matrix" values="0 0 0 0 0 0 0 0 0 0 0 0 0 0 0 0 0 0 127 0"/>
<feOffset dy="0.3"/>
<feGaussianBlur stdDeviation="0.25"/>
<feColorMatrix type="matrix" values="0 0 0 0 0.442574 0 0 0 0 0.159327 0 0 0 0 0 0 0 0 1 0"/>
<feBlend mode="normal" in2="BackgroundImageFix" result="effect1_dropShadow"/>
<feBlend mode="normal" in="SourceGraphic" in2="effect1_dropShadow" result="shape"/>
</filter>
<filter id="filter9_d" x="96.7378" y="0.249829" width="27.4849" height="77.1939" filterUnits="userSpaceOnUse" color-interpolation-filters="sRGB">
<feFlood flood-opacity="0" result="BackgroundImageFix"/>
<feColorMatrix in="SourceAlpha" type="matrix" values="0 0 0 0 0 0 0 0 0 0 0 0 0 0 0 0 0 0 127 0"/>
<feOffset dy="0.3"/>
<feGaussianBlur stdDeviation="0.25"/>
<feColorMatrix type="matrix" values="0 0 0 0 0.442574 0 0 0 0 0.159327 0 0 0 0 0 0 0 0 1 0"/>
<feBlend mode="normal" in2="BackgroundImageFix" result="effect1_dropShadow"/>
<feBlend mode="normal" in="SourceGraphic" in2="effect1_dropShadow" result="shape"/>
</filter>
<filter id="filter10_f" x="103.175" y="112.454" width="28.0835" height="26.892" filterUnits="userSpaceOnUse" color-interpolation-filters="sRGB">
<feFlood flood-opacity="0" result="BackgroundImageFix"/>
<feBlend mode="normal" in="SourceGraphic" in2="BackgroundImageFix" result="shape"/>
<feGaussianBlur stdDeviation="2.5" result="effect1_foregroundBlur"/>
</filter>
<filter id="filter11_f" x="38.0778" y="112.454" width="28.0835" height="26.892" filterUnits="userSpaceOnUse" color-interpolation-filters="sRGB">
<feFlood flood-opacity="0" result="BackgroundImageFix"/>
<feBlend mode="normal" in="SourceGraphic" in2="BackgroundImageFix" result="shape"/>
<feGaussianBlur stdDeviation="2.5" result="effect1_foregroundBlur"/>
</filter>
<filter id="filter12_di" x="106.553" y="112.049" width="20.6651" height="22.496" filterUnits="userSpaceOnUse" color-interpolation-filters="sRGB">
<feFlood flood-opacity="0" result="BackgroundImageFix"/>
<feColorMatrix in="SourceAlpha" type="matrix" values="0 0 0 0 0 0 0 0 0 0 0 0 0 0 0 0 0 0 127 0"/>
<feOffset dy="0.2"/>
<feGaussianBlur stdDeviation="0.15"/>
<feColorMatrix type="matrix" values="0 0 0 0 0 0 0 0 0 0 0 0 0 0 0 0 0 0 0.25 0"/>
<feBlend mode="normal" in2="BackgroundImageFix" result="effect1_dropShadow"/>
<feBlend mode="normal" in="SourceGraphic" in2="effect1_dropShadow" result="shape"/>
<feColorMatrix in="SourceAlpha" type="matrix" values="0 0 0 0 0 0 0 0 0 0 0 0 0 0 0 0 0 0 127 0" result="hardAlpha"/>
<feOffset dx="-0.2" dy="0.3"/>
<feGaussianBlur stdDeviation="0.25"/>
<feComposite in2="hardAlpha" operator="arithmetic" k2="-1" k3="1"/>
<feColorMatrix type="matrix" values="0 0 0 0 0 0 0 0 0 0 0 0 0 0 0 0 0 0 0.2 0"/>
<feBlend mode="normal" in2="shape" result="effect2_innerShadow"/>
</filter>
<filter id="filter13_di" x="41.7865" y="112.23" width="20.6651" height="22.496" filterUnits="userSpaceOnUse" color-interpolation-filters="sRGB">
<feFlood flood-opacity="0" result="BackgroundImageFix"/>
<feColorMatrix in="SourceAlpha" type="matrix" values="0 0 0 0 0 0 0 0 0 0 0 0 0 0 0 0 0 0 127 0"/>
<feOffset dy="0.2"/>
<feGaussianBlur stdDeviation="0.15"/>
<feColorMatrix type="matrix" values="0 0 0 0 0 0 0 0 0 0 0 0 0 0 0 0 0 0 0.25 0"/>
<feBlend mode="normal" in2="BackgroundImageFix" result="effect1_dropShadow"/>
<feBlend mode="normal" in="SourceGraphic" in2="effect1_dropShadow" result="shape"/>
<feColorMatrix in="SourceAlpha" type="matrix" values="0 0 0 0 0 0 0 0 0 0 0 0 0 0 0 0 0 0 127 0" result="hardAlpha"/>
<feOffset dx="-0.2" dy="0.3"/>
<feGaussianBlur stdDeviation="0.25"/>
<feComposite in2="hardAlpha" operator="arithmetic" k2="-1" k3="1"/>
<feColorMatrix type="matrix" values="0 0 0 0 0 0 0 0 0 0 0 0 0 0 0 0 0 0 0.2 0"/>
<feBlend mode="normal" in2="shape" result="effect2_innerShadow"/>
</filter>
<linearGradient id="paint0_linear" x1="84.5013" y1="0.449829" x2="84.5013" y2="142.695" gradientUnits="userSpaceOnUse">
<stop stop-color="#3B606D"/>
<stop offset="1" stop-color="#05232E"/>
</linearGradient>
<linearGradient id="paint1_linear" x1="35.7886" y1="7.37549" x2="35.7886" y2="168.67" gradientUnits="userSpaceOnUse">
<stop stop-color="#F0C398"/>
<stop offset="1" stop-color="#B35C09"/>
</linearGradient>
<linearGradient id="paint2_linear" x1="80.4509" y1="44.4344" x2="40.0784" y2="62.6582" gradientUnits="userSpaceOnUse">
<stop stop-color="#955322"/>
<stop offset="1" stop-color="#6C3914" stop-opacity="0"/>
</linearGradient>
<linearGradient id="paint3_linear" x1="133.214" y1="7.37549" x2="133.214" y2="168.67" gradientUnits="userSpaceOnUse">
<stop stop-color="#F0C398"/>
<stop offset="1" stop-color="#B35C09"/>
</linearGradient>
<linearGradient id="paint4_linear" x1="90.2297" y1="44.9099" x2="130.602" y2="63.1336" gradientUnits="userSpaceOnUse">
<stop stop-color="#955322"/>
<stop offset="1" stop-color="#6C3914" stop-opacity="0"/>
</linearGradient>
<linearGradient id="paint5_linear" x1="105.448" y1="92.5253" x2="105.448" y2="97.6956" gradientUnits="userSpaceOnUse">
<stop stop-color="#3B606D"/>
<stop offset="1" stop-color="#05232E"/>
</linearGradient>
<linearGradient id="paint6_linear" x1="105.448" y1="105.897" x2="105.448" y2="111.067" gradientUnits="userSpaceOnUse">
<stop stop-color="#3B606D"/>
<stop offset="1" stop-color="#05232E"/>
</linearGradient>
<linearGradient id="paint7_linear" x1="22.7176" y1="127.908" x2="-6.06689e-05" y2="121.863" gradientUnits="userSpaceOnUse">
<stop stop-color="#AA6028"/>
<stop offset="1" stop-color="#6E3A13"/>
</linearGradient>
<linearGradient id="paint8_linear" x1="4.58167" y1="78.4943" x2="44.2705" y2="86.6423" gradientUnits="userSpaceOnUse">
<stop stop-color="#A46027"/>
<stop offset="0.381113" stop-color="#D9823A" stop-opacity="0"/>
</linearGradient>
<linearGradient id="paint9_linear" x1="42.1695" y1="115.818" x2="51.6317" y2="114.766" gradientUnits="userSpaceOnUse">
<stop stop-color="#A1571A"/>
<stop offset="1" stop-color="#D9823A" stop-opacity="0"/>
</linearGradient>
<linearGradient id="paint10_linear" x1="135.475" y1="89.2661" x2="149.143" y2="83.4836" gradientUnits="userSpaceOnUse">
<stop stop-color="#C06B25"/>
<stop offset="0.754705" stop-color="#D9823A" stop-opacity="0"/>
</linearGradient>
<linearGradient id="paint11_linear" x1="144.275" y1="130.274" x2="169" y2="124.228" gradientUnits="userSpaceOnUse">
<stop stop-color="#7E4921"/>
<stop offset="1" stop-color="#B97A4B"/>
</linearGradient>
<linearGradient id="paint12_linear" x1="162.362" y1="123.279" x2="162.362" y2="128.449" gradientUnits="userSpaceOnUse">
<stop stop-color="#3B606D"/>
<stop offset="1" stop-color="#05232E"/>
</linearGradient>
<linearGradient id="paint13_linear" x1="6.64122" y1="123.279" x2="6.64122" y2="128.449" gradientUnits="userSpaceOnUse">
<stop stop-color="#3B606D"/>
<stop offset="1" stop-color="#05232E"/>
</linearGradient>
<linearGradient id="paint14_linear" x1="58.5196" y1="0.449829" x2="58.5196" y2="76.6437" gradientUnits="userSpaceOnUse">
<stop stop-color="#C48353"/>
<stop offset="1" stop-color="#6C3914"/>
</linearGradient>
<linearGradient id="paint15_linear" x1="110.48" y1="0.449829" x2="110.48" y2="76.6437" gradientUnits="userSpaceOnUse">
<stop stop-color="#C48353"/>
<stop offset="1" stop-color="#6C3914"/>
</linearGradient>
<linearGradient id="paint16_linear" x1="116.434" y1="117.5" x2="118.969" y2="134.346" gradientUnits="userSpaceOnUse">
<stop stop-color="#C48353"/>
<stop offset="1" stop-color="#6C3914"/>
</linearGradient>
<linearGradient id="paint17_linear" x1="52.9015" y1="117.5" x2="50.3673" y2="134.346" gradientUnits="userSpaceOnUse">
<stop stop-color="#C48353"/>
<stop offset="1" stop-color="#6C3914"/>
</linearGradient>
<linearGradient id="paint18_linear" x1="116.886" y1="112.149" x2="116.886" y2="134.045" gradientUnits="userSpaceOnUse">
<stop stop-color="#C48353"/>
<stop offset="1" stop-color="#6C3914"/>
</linearGradient>
<linearGradient id="paint19_linear" x1="52.1191" y1="112.33" x2="52.1191" y2="134.226" gradientUnits="userSpaceOnUse">
<stop stop-color="#C48353"/>
<stop offset="1" stop-color="#6C3914"/>
</linearGradient>
<linearGradient id="paint20_linear" x1="84.5" y1="6.58716" x2="84.5" y2="11.7601" gradientUnits="userSpaceOnUse">
<stop stop-color="#CCE6F6"/>
<stop offset="1" stop-color="#74BBE7"/>
</linearGradient>
<linearGradient id="paint21_linear" x1="36.9101" y1="33.2842" x2="29.2877" y2="39.3295" gradientUnits="userSpaceOnUse">
<stop stop-color="#C46C23"/>
<stop offset="0.8206" stop-color="#D9823A" stop-opacity="0"/>
</linearGradient>
<linearGradient id="paint22_linear" x1="132.059" y1="40.3809" x2="137.298" y2="44.7665" gradientUnits="userSpaceOnUse">
<stop stop-color="#D48037"/>
<stop offset="1" stop-color="#D9823A" stop-opacity="0"/>
</linearGradient>
<clipPath id="clip0">
<rect width="169" height="169" fill="white" transform="translate(0 0.0600586)"/>
</clipPath>
</defs>
</svg>
