<svg width="169" height="170" viewBox="0 0 169 170" fill="none" xmlns="http://www.w3.org/2000/svg">
<g id="flip-flops" clip-path="url(#clip0)">
<g id="Group">
<path id="Vector" d="M85.1049 125.619C80.1662 117.281 79.5562 107.129 83.6253 98.3336C88.2204 88.4013 90.2275 75.8783 88.6432 62.623C85.1705 33.5668 65.7577 11.9958 45.283 14.4426C24.8082 16.8894 11.0256 42.4285 14.4984 71.4847C15.5309 80.1237 17.9727 88.101 21.4325 94.9822C28.4174 108.874 31.7967 124.21 31.5375 139.756C31.5127 141.253 31.6042 142.771 31.8199 144.302C34.0271 159.955 48.2039 170.79 63.8902 168.832C79.5949 166.871 90.7829 152.587 88.9024 136.853C88.4123 132.752 87.0822 128.958 85.1049 125.619V125.619Z" fill="url(#paint0_linear)"/>
<g id="Group_2">
<path id="Vector_2" d="M83.4615 42.9145L14.8892 51.1099C16.0977 43.7933 18.4524 37.1255 21.7256 31.5327L72.204 25.4999C76.7026 30.1639 80.5624 36.0887 83.4615 42.9145V42.9145Z" fill="url(#paint1_linear)"/>
<path id="Vector_3" d="M88.6436 62.6189C89.3053 68.157 89.3401 73.5622 88.8199 78.7051L18.1159 87.1552C16.3981 82.2798 15.1578 77.0144 14.4964 71.4806C14.3917 70.6035 14.3036 69.7283 14.229 68.8598L88.2861 60.009C88.4179 60.8703 88.5389 61.7414 88.6436 62.6189V62.6189Z" fill="url(#paint2_linear)"/>
<path id="Vector_4" d="M83.6216 98.3308C81.0253 103.951 80.3364 110.12 81.4654 116.018L30.2494 122.139C29.2255 115.938 27.5998 109.849 25.3704 103.962L84.2439 96.9261C84.0424 97.399 83.8366 97.8685 83.6216 98.3308V98.3308Z" fill="url(#paint3_linear)"/>
<path id="Vector_5" d="M88.898 136.853C89.5309 142.15 88.685 147.282 86.6802 151.833L37.3742 157.726C34.5019 153.94 32.53 149.373 31.8159 144.303C31.5998 142.774 31.5097 141.255 31.5349 139.759C31.5352 139.726 31.5359 139.697 31.5359 139.663L88.1465 132.898C88.4828 134.18 88.7363 135.5 88.898 136.853V136.853Z" fill="url(#paint4_linear)"/>
</g>
<path id="Vector_6" d="M81.9145 123.533C77.4755 115.72 76.8787 106.236 80.4522 98.0442C84.4879 88.7931 86.207 77.1091 84.7265 64.7223C81.4814 37.5692 64.0923 17.321 45.887 19.4971C27.6818 21.6732 15.5544 45.4484 18.7995 72.6015C19.7644 80.6749 21.9796 88.1376 25.0948 94.5821C31.3841 107.592 34.4731 121.932 34.3257 136.449C34.3114 137.846 34.4009 139.265 34.6014 140.696C36.6489 155.325 49.3213 165.519 63.2685 163.774C77.232 162.027 87.1107 148.748 85.3534 134.044C84.8955 130.212 83.6916 126.661 81.9145 123.533V123.533Z" fill="url(#paint5_linear)"/>
<path id="Vector_7" d="M88.7114 145.01C89.1511 142.374 89.2353 139.635 88.9023 136.848C88.4122 132.747 87.0821 128.952 85.1048 125.614C80.1661 117.276 79.5561 107.124 83.6253 98.3286C88.2203 88.3962 90.2274 75.8732 88.6431 62.6179C88.4891 61.3296 88.3025 60.0571 88.0871 58.7996L60.2219 36.884C58.4987 35.1957 56.1388 34.2586 53.6969 34.3418C50.8445 34.4392 48.1979 36.5745 46.6123 38.9448C46.6123 38.9448 17.1323 83.5185 17.1041 83.5639C17.847 86.1946 18.3955 88.0659 19.3942 90.4921L88.7114 145.01Z" fill="url(#paint6_linear)"/>
<path id="Vector_8" d="M83.6268 98.3308C88.2219 88.3985 90.229 75.8755 88.6447 62.6202C85.561 36.8173 69.9063 16.9195 52.1006 14.5005C64.0169 22.3963 73.267 38.3211 75.561 57.5145C77.1453 70.7698 75.1382 83.2924 70.5432 93.2252C66.4743 102.02 67.0844 112.173 72.0227 120.511C74 123.849 75.3301 127.644 75.8202 131.744C77.7007 147.478 66.5128 161.762 50.808 163.723C48.3456 164.031 45.9207 164.022 43.5729 163.73C49.2396 167.771 56.3912 169.765 63.8917 168.829C79.5964 166.868 90.7843 152.584 88.9038 136.851C88.4138 132.75 87.0836 128.955 85.1064 125.617C80.1677 117.278 79.5577 107.126 83.6268 98.3308V98.3308Z" fill="url(#paint7_linear)"/>
<path id="Vector_9" d="M52.6189 33.4357C48.11 33.9745 45.2228 37.7355 45.7616 42.2444C46.0578 44.723 47.1 46.8066 49.0222 48.0953L88.7541 79.3438C89.3406 74.0102 89.3323 68.3862 88.6434 62.6231C88.4499 61.003 88.204 59.4078 87.9137 57.8375L59.1515 35.2161C57.4459 33.6517 55.0975 33.1394 52.6189 33.4357V33.4357Z" fill="url(#paint8_linear)"/>
<path id="Vector_10" d="M86.1378 83.0636C84.3942 83.272 82.5879 82.5847 81.4364 81.0936L54.0828 45.6775L25.4338 88.5026C23.8489 90.8715 20.6446 91.5074 18.2753 89.9225C15.9064 88.3379 15.2708 85.1329 16.8554 82.764L46.6131 38.2821C48.1987 35.9118 50.8453 34.4392 53.6977 34.3418C56.5478 34.2447 59.2902 35.5344 61.0332 37.7913L89.6049 74.785C91.3472 77.0407 90.9307 80.2814 88.6751 82.0234C87.9103 82.6142 87.0322 82.9569 86.1378 83.0636V83.0636Z" fill="url(#paint9_linear)"/>
<path id="Vector_11" d="M89.1208 74.1618L61.0305 37.7913C59.2872 35.5344 56.5452 34.2447 53.6951 34.3418C50.8427 34.4392 48.1961 35.9118 46.6105 38.2821L45.4769 39.9767C45.3612 40.7087 45.3357 41.4668 45.4278 42.2392C45.7241 44.7179 47.0976 46.8015 49.0198 48.0902L51.2781 49.8663L54.0801 45.6778L66.6571 61.9618L88.7513 79.3387C88.9382 77.6418 89.0575 75.9127 89.1208 74.1618V74.1618Z" fill="url(#paint10_linear)"/>
<path id="Vector_12" d="M53.5938 49.4863C58.135 49.4863 61.8163 45.805 61.8163 41.2638C61.8163 36.7226 58.135 33.0413 53.5938 33.0413C49.0526 33.0413 45.3713 36.7226 45.3713 41.2638C45.3713 45.805 49.0526 49.4863 53.5938 49.4863Z" fill="url(#paint11_linear)"/>
</g>
<g id="Group_3">
<path id="Vector_13" d="M99.6241 111.093C104.637 102.8 105.338 92.6532 101.349 83.8223C96.8429 73.8488 94.9485 61.3086 96.6517 48.0682C100.385 19.0441 119.991 -2.35186 140.443 0.278858C160.895 2.90957 174.447 28.5709 170.714 57.5946C169.604 66.2241 167.091 74.1792 163.57 81.0288C156.46 94.8571 152.943 110.163 153.063 125.711C153.074 127.207 152.969 128.724 152.739 130.254C150.391 145.886 136.118 156.593 120.45 154.494C104.763 152.393 93.7042 138.009 95.7259 122.292C96.2528 118.196 97.617 114.413 99.6241 111.093V111.093Z" fill="url(#paint12_linear)"/>
<g id="Group_4">
<path id="Vector_14" d="M163.847 17.577L113.425 11.0908C108.884 15.714 104.971 21.6041 102.011 28.4037L170.507 37.2144C169.364 29.8872 167.07 23.1986 163.847 17.577V17.577Z" fill="url(#paint13_linear)"/>
<path id="Vector_15" d="M171.008 54.9729L97.0335 45.4574C96.8936 46.3176 96.765 47.1878 96.6524 48.0639C95.9409 53.5958 95.8574 59.0003 96.3316 64.1481L166.957 73.2328C168.718 68.373 170.006 63.1192 170.717 57.5914C170.83 56.7149 170.926 55.8408 171.008 54.9729V54.9729Z" fill="url(#paint14_linear)"/>
<path id="Vector_16" d="M101.352 83.8136C103.898 89.4564 104.531 95.6318 103.349 101.519L154.508 108.1C155.588 101.908 157.268 95.8346 159.55 89.9677L100.742 82.403C100.94 82.8781 101.141 83.3493 101.352 83.8136V83.8136Z" fill="url(#paint15_linear)"/>
<path id="Vector_17" d="M153.063 125.614L96.5153 118.341C96.1677 119.62 95.9023 120.938 95.7287 122.289C95.048 127.58 95.8479 132.719 97.812 137.288L147.063 143.624C149.969 139.864 151.982 135.316 152.742 130.252C152.971 128.725 153.075 127.206 153.064 125.71C153.063 125.677 153.063 125.648 153.063 125.614V125.614Z" fill="url(#paint16_linear)"/>
</g>
<path id="Vector_18" d="M102.834 109.038C107.343 101.266 108.025 91.7872 104.525 83.564C100.573 74.2771 98.9592 62.5782 100.551 50.205C104.04 23.0823 121.61 2.99094 139.794 5.33038C157.979 7.66983 169.893 31.5531 166.404 58.6761C165.367 66.7405 163.084 74.183 159.911 80.5989C153.505 93.552 150.288 107.864 150.305 122.382C150.307 123.779 150.204 125.197 149.991 126.625C147.813 141.236 135.049 151.316 121.118 149.446C107.171 147.573 97.4117 134.205 99.3008 119.519C99.7932 115.69 101.029 112.15 102.834 109.038V109.038Z" fill="url(#paint17_linear)"/>
<path id="Vector_19" d="M169.628 63.916L138.898 24.1136C137.334 21.7291 134.701 20.2329 131.85 20.1097C129.001 19.9871 126.247 21.915 124.483 24.156L96.0663 60.2739C96.1445 63.1518 96.3944 65.3008 96.8023 68.0272L150.583 137.687C151.603 135.373 152.343 132.887 152.738 130.257C152.968 128.728 153.073 127.21 153.061 125.713C152.942 110.165 156.459 94.86 163.568 81.0317C166.212 75.8892 168.288 70.1228 169.628 63.916V63.916Z" fill="url(#paint18_linear)"/>
<path id="Vector_20" d="M170.714 57.5947C173.927 32.614 164.334 10.1255 148.56 2.66711C157.878 13.2914 162.75 30.7252 160.325 49.5813C159.215 58.2107 156.702 66.1658 153.18 73.0155C146.071 86.8438 142.554 102.149 142.674 117.697C142.685 119.194 142.58 120.711 142.35 122.24C140.003 137.873 125.729 148.58 110.061 146.481C107.196 146.097 104.488 145.299 101.983 144.163C106.446 149.632 112.91 153.484 120.449 154.494C136.117 156.593 150.391 145.886 152.739 130.254C152.968 128.725 153.073 127.207 153.062 125.711C152.943 110.162 156.46 94.8572 163.569 81.0289C167.091 74.1793 169.604 66.2245 170.714 57.5947V57.5947Z" fill="url(#paint19_linear)"/>
<path id="Vector_21" d="M138.847 22.6434C137.584 20.6426 135.472 19.5309 132.942 19.2055C128.438 18.6262 124.648 21.4763 124.069 25.9802C123.743 28.5162 124.277 30.9302 125.9 32.6596L163.47 81.2329C163.505 81.1657 163.536 81.0971 163.571 81.0295C166.379 75.5672 168.543 69.4002 169.869 62.7503L138.847 22.6434Z" fill="url(#paint20_linear)"/>
<path id="Vector_22" d="M98.9742 68.5333C100.716 68.7573 102.528 68.0863 103.693 66.6058L131.364 31.4369L159.627 74.5175C161.19 76.9003 164.389 77.5654 166.772 76.0013C169.155 74.438 169.82 71.2389 168.256 68.8557L138.9 24.1084C137.336 21.7239 134.703 20.2277 131.851 20.1045C129.002 19.9819 126.248 21.247 124.485 23.4881L95.5821 60.2237C93.8195 62.4634 94.2069 65.7078 96.4469 67.4703C97.2057 68.0678 98.0809 68.4183 98.9742 68.5333V68.5333Z" fill="url(#paint21_linear)"/>
<path id="Vector_23" d="M168.331 68.9827C168.305 68.9406 168.283 68.8972 168.256 68.8554L138.899 24.1084C137.335 21.7239 134.702 20.2277 131.851 20.1045C129.002 19.9819 126.248 21.247 124.484 23.4881L124.45 23.5321C124.095 24.2866 123.848 25.1064 123.736 25.9776C123.41 28.5136 124.276 30.9276 125.899 32.657L128.131 35.5438L131.363 31.4365L159.626 74.5171C160.956 76.5434 163.466 77.3215 165.654 76.5494C166.673 74.1344 167.566 71.6044 168.331 68.9827V68.9827Z" fill="url(#paint22_linear)"/>
<path id="Vector_24" d="M131.893 35.2539C136.435 35.2539 140.116 31.5725 140.116 27.0314C140.116 22.4902 136.435 18.8088 131.893 18.8088C127.352 18.8088 123.671 22.4902 123.671 27.0314C123.671 31.5725 127.352 35.2539 131.893 35.2539Z" fill="url(#paint23_linear)"/>
</g>
</g>
<defs>
<linearGradient id="paint0_linear" x1="28.7127" y1="89.146" x2="87.3392" y2="94.8727" gradientUnits="userSpaceOnUse">
<stop stop-color="#FFD945"/>
<stop offset="0.3043" stop-color="#FFCD3E"/>
<stop offset="0.8558" stop-color="#FFAD2B"/>
<stop offset="1" stop-color="#FFA325"/>
</linearGradient>
<linearGradient id="paint1_linear" x1="11.8502" y1="28.1391" x2="76.6651" y2="48.8946" gradientUnits="userSpaceOnUse">
<stop stop-color="#FFA936"/>
<stop offset="0.4112" stop-color="#FF8548"/>
<stop offset="0.7781" stop-color="#FF6C54"/>
<stop offset="1" stop-color="#FF6359"/>
</linearGradient>
<linearGradient id="paint2_linear" x1="6.26051" y1="58.531" x2="81.8471" y2="82.7359" gradientUnits="userSpaceOnUse">
<stop stop-color="#FFA936"/>
<stop offset="0.4112" stop-color="#FF8548"/>
<stop offset="0.7781" stop-color="#FF6C54"/>
<stop offset="1" stop-color="#FF6359"/>
</linearGradient>
<linearGradient id="paint3_linear" x1="18.8518" y1="97.2167" x2="77.1452" y2="115.884" gradientUnits="userSpaceOnUse">
<stop stop-color="#FFA936"/>
<stop offset="0.4112" stop-color="#FF8548"/>
<stop offset="0.7781" stop-color="#FF6C54"/>
<stop offset="1" stop-color="#FF6359"/>
</linearGradient>
<linearGradient id="paint4_linear" x1="25.0449" y1="133.212" x2="82.6094" y2="151.645" gradientUnits="userSpaceOnUse">
<stop stop-color="#FFA936"/>
<stop offset="0.4112" stop-color="#FF8548"/>
<stop offset="0.7781" stop-color="#FF6C54"/>
<stop offset="1" stop-color="#FF6359"/>
</linearGradient>
<linearGradient id="paint5_linear" x1="39.0045" y1="89.4545" x2="-71.842" y2="73.6292" gradientUnits="userSpaceOnUse">
<stop stop-color="#F82814" stop-opacity="0"/>
<stop offset="1" stop-color="#C0272D"/>
</linearGradient>
<linearGradient id="paint6_linear" x1="63.1814" y1="86.8724" x2="30.8287" y2="44.8147" gradientUnits="userSpaceOnUse">
<stop stop-color="#F82814" stop-opacity="0"/>
<stop offset="1" stop-color="#C0272D"/>
</linearGradient>
<linearGradient id="paint7_linear" x1="65.4186" y1="92.662" x2="118.809" y2="97.4915" gradientUnits="userSpaceOnUse">
<stop stop-color="#F82814" stop-opacity="0"/>
<stop offset="1" stop-color="#C0272D"/>
</linearGradient>
<linearGradient id="paint8_linear" x1="72.3089" y1="55.9506" x2="47.8205" y2="36.7034" gradientUnits="userSpaceOnUse">
<stop stop-color="#F82814" stop-opacity="0"/>
<stop offset="1" stop-color="#C0272D"/>
</linearGradient>
<linearGradient id="paint9_linear" x1="33.7356" y1="43.6581" x2="60.901" y2="96.4176" gradientUnits="userSpaceOnUse">
<stop stop-color="#CDEC7A"/>
<stop offset="0.2157" stop-color="#B0E995"/>
<stop offset="0.5613" stop-color="#87E4BB"/>
<stop offset="0.8347" stop-color="#6EE1D2"/>
<stop offset="1" stop-color="#65E0DB"/>
</linearGradient>
<linearGradient id="paint10_linear" x1="73.2155" y1="57.0547" x2="54.3534" y2="42.2296" gradientUnits="userSpaceOnUse">
<stop stop-color="#CDEC7A" stop-opacity="0"/>
<stop offset="0.2354" stop-color="#9AD57D" stop-opacity="0.235"/>
<stop offset="0.6035" stop-color="#51B482" stop-opacity="0.604"/>
<stop offset="0.8679" stop-color="#239F85" stop-opacity="0.868"/>
<stop offset="1" stop-color="#119786"/>
</linearGradient>
<linearGradient id="paint11_linear" x1="49.4408" y1="37.972" x2="59.5821" y2="45.943" gradientUnits="userSpaceOnUse">
<stop stop-color="#CDEC7A"/>
<stop offset="0.2157" stop-color="#B0E995"/>
<stop offset="0.5613" stop-color="#87E4BB"/>
<stop offset="0.8347" stop-color="#6EE1D2"/>
<stop offset="1" stop-color="#65E0DB"/>
</linearGradient>
<linearGradient id="paint12_linear" x1="110.136" y1="65.4913" x2="167.129" y2="99.2143" gradientUnits="userSpaceOnUse">
<stop stop-color="#FFD945"/>
<stop offset="0.3043" stop-color="#FFCD3E"/>
<stop offset="0.8558" stop-color="#FFAD2B"/>
<stop offset="1" stop-color="#FFA325"/>
</linearGradient>
<linearGradient id="paint13_linear" x1="135.42" y1="24.3938" x2="184.177" y2="50.9479" gradientUnits="userSpaceOnUse">
<stop stop-color="#FFA936"/>
<stop offset="0.4112" stop-color="#FF8548"/>
<stop offset="0.7781" stop-color="#FF6C54"/>
<stop offset="1" stop-color="#FF6359"/>
</linearGradient>
<linearGradient id="paint14_linear" x1="120.222" y1="52.2998" x2="168.98" y2="78.8538" gradientUnits="userSpaceOnUse">
<stop stop-color="#FFA936"/>
<stop offset="0.4112" stop-color="#FF8548"/>
<stop offset="0.7781" stop-color="#FF6C54"/>
<stop offset="1" stop-color="#FF6359"/>
</linearGradient>
<linearGradient id="paint15_linear" x1="104.509" y1="81.1491" x2="153.266" y2="107.703" gradientUnits="userSpaceOnUse">
<stop stop-color="#FFA936"/>
<stop offset="0.4112" stop-color="#FF8548"/>
<stop offset="0.7781" stop-color="#FF6C54"/>
<stop offset="1" stop-color="#FF6359"/>
</linearGradient>
<linearGradient id="paint16_linear" x1="88.1305" y1="111.226" x2="136.888" y2="137.78" gradientUnits="userSpaceOnUse">
<stop stop-color="#FFA936"/>
<stop offset="0.4112" stop-color="#FF8548"/>
<stop offset="0.7781" stop-color="#FF6C54"/>
<stop offset="1" stop-color="#FF6359"/>
</linearGradient>
<linearGradient id="paint17_linear" x1="112.528" y1="68.3421" x2="-10.9148" y2="5.36561" gradientUnits="userSpaceOnUse">
<stop stop-color="#F82814" stop-opacity="0"/>
<stop offset="1" stop-color="#C0272D"/>
</linearGradient>
<linearGradient id="paint18_linear" x1="140.027" y1="82.4864" x2="111.189" y2="12.8968" gradientUnits="userSpaceOnUse">
<stop stop-color="#F82814" stop-opacity="0"/>
<stop offset="1" stop-color="#C0272D"/>
</linearGradient>
<linearGradient id="paint19_linear" x1="139.677" y1="80.0773" x2="192.072" y2="93.4996" gradientUnits="userSpaceOnUse">
<stop stop-color="#F82814" stop-opacity="0"/>
<stop offset="1" stop-color="#C0272D"/>
</linearGradient>
<linearGradient id="paint20_linear" x1="159.507" y1="62.8555" x2="121.721" y2="13.8733" gradientUnits="userSpaceOnUse">
<stop stop-color="#F82814" stop-opacity="0"/>
<stop offset="1" stop-color="#C0272D"/>
</linearGradient>
<linearGradient id="paint21_linear" x1="151.716" y1="29.5718" x2="124.071" y2="82.0895" gradientUnits="userSpaceOnUse">
<stop stop-color="#CDEC7A"/>
<stop offset="0.2157" stop-color="#B0E995"/>
<stop offset="0.5613" stop-color="#87E4BB"/>
<stop offset="0.8347" stop-color="#6EE1D2"/>
<stop offset="1" stop-color="#65E0DB"/>
</linearGradient>
<linearGradient id="paint22_linear" x1="146.727" y1="47.0093" x2="130.63" y2="26.1422" gradientUnits="userSpaceOnUse">
<stop stop-color="#CDEC7A" stop-opacity="0"/>
<stop offset="0.2354" stop-color="#9AD57D" stop-opacity="0.235"/>
<stop offset="0.6035" stop-color="#51B482" stop-opacity="0.604"/>
<stop offset="0.8679" stop-color="#239F85" stop-opacity="0.868"/>
<stop offset="1" stop-color="#119786"/>
</linearGradient>
<linearGradient id="paint23_linear" x1="128.143" y1="23.2813" x2="137.264" y2="32.4018" gradientUnits="userSpaceOnUse">
<stop stop-color="#CDEC7A"/>
<stop offset="0.2157" stop-color="#B0E995"/>
<stop offset="0.5613" stop-color="#87E4BB"/>
<stop offset="0.8347" stop-color="#6EE1D2"/>
<stop offset="1" stop-color="#65E0DB"/>
</linearGradient>
<clipPath id="clip0">
<rect width="169" height="169" fill="white" transform="translate(0 0.0600586)"/>
</clipPath>
</defs>
</svg>
