<svg width="169" height="170" viewBox="0 0 169 170" fill="none" xmlns="http://www.w3.org/2000/svg">
<g id="gloves" clip-path="url(#clip0)">
<g id="Vector" filter="url(#filter0_d)">
<path d="M49.1501 120.399L62.0366 163.909C62.867 166.712 65.8127 168.312 68.6167 167.481L112.878 154.373C115.682 153.542 117.281 150.596 116.451 147.793L103.565 104.283L49.1501 120.399Z" fill="url(#paint0_linear)"/>
</g>
<g id="Group">
<g id="Vector_2" filter="url(#filter1_i)">
<path d="M109.816 125.564L55.434 141.616L53.5446 135.236L107.965 119.261L109.816 125.564Z" fill="#F6A200"/>
</g>
<path id="Vector_3" d="M112.989 136.366L58.6139 152.354L56.738 146.02L111.137 130.063L112.989 136.366Z" fill="#F6A200"/>
</g>
<path id="Vector_4" d="M68.6173 167.482L112.879 154.373C115.34 153.644 116.872 151.286 116.648 148.824L115.614 145.304L61.2552 161.27L62.0368 163.91C62.8676 166.713 65.814 168.312 68.6173 167.482Z" fill="url(#paint1_linear)"/>
<path id="Vector_5" d="M87.9454 21.3006C86.6366 16.8442 81.9194 14.2689 77.463 15.5776C73.0065 16.8864 70.4312 21.6036 71.74 26.0601L68.1794 13.9378C66.8706 9.48134 62.1534 6.90604 57.697 8.21482C53.2405 9.5236 50.6652 14.2408 51.974 18.6972L48.2814 6.12441C46.9723 1.66797 42.2551 -0.907335 37.7986 0.401441C33.3422 1.71055 30.7669 6.42742 32.076 10.8839L35.8158 23.6174C34.5071 19.161 29.7899 16.5857 25.3334 17.8945C20.877 19.2033 18.3013 23.9205 19.6101 28.3769L38.6658 93.2582L23.5932 74.7139C20.6637 71.1097 15.3177 70.5575 11.7132 73.4869C8.10906 76.4164 7.55683 81.7624 10.4863 85.3669L29.9549 109.32C52.7896 134.387 82.6522 123.152 82.6522 123.152C100.478 117.917 110.779 99.0482 105.544 81.2224L87.9454 21.3006Z" fill="url(#paint2_linear)"/>
<g id="Group_2">
<path id="Vector_6" d="M33.8038 103.159L14.3352 79.2067C12.8485 77.3774 12.2623 75.0998 12.5128 72.917C12.2389 73.0909 11.9702 73.2778 11.7124 73.487C8.10821 76.4165 7.55598 81.7625 10.4855 85.367L29.954 109.32C52.7888 134.388 82.6513 123.153 82.6513 123.153C92.1372 120.367 99.4915 113.72 103.508 105.424C99.3155 110.785 93.4903 114.94 86.5004 116.993C86.5014 116.993 56.6385 128.227 33.8038 103.159Z" fill="url(#paint3_linear)"/>
<path id="Vector_7" d="M37.7991 0.405047C33.3427 1.71415 30.7674 6.43103 32.0765 10.8875L35.8163 23.6211L50.406 73.2971L56.9657 71.3704L42.3761 21.6944L38.6362 8.96078C37.6701 5.67085 38.8247 2.24328 41.2861 0.145602C40.1493 -0.00821593 38.966 0.0624217 37.7991 0.405047Z" fill="url(#paint4_linear)"/>
<path id="Vector_8" d="M51.9735 18.7014L66.6104 68.5378L73.1701 66.6112L58.5332 16.7743C57.5671 13.4844 58.7217 10.0568 61.1831 7.95916C60.0467 7.80535 58.863 7.87565 57.6965 8.21828C53.24 9.52771 50.6644 14.2446 51.9735 18.7014Z" fill="url(#paint5_linear)"/>
<path id="Vector_9" d="M77.4614 15.5814C73.0049 16.8902 70.4296 21.6074 71.7384 26.0638L82.815 63.778L89.3747 61.8513L78.2981 24.1375C77.332 20.8475 78.4866 17.42 80.948 15.3223C79.8112 15.1681 78.6279 15.2385 77.4614 15.5814Z" fill="url(#paint6_linear)"/>
<path id="Vector_10" d="M62.2106 87.6726C57.5208 84.4424 51.1849 82.2302 43.0187 83.6869L26.1706 26.4559C25.2021 23.1666 26.3548 19.7384 28.8149 17.6391C27.6784 17.4859 26.4947 17.5572 25.3282 17.9008C20.8724 19.2122 18.3001 23.9314 19.6122 28.3872L38.7091 93.2563C38.7091 93.2563 47.7019 89.1138 59.4584 92.7443C59.4584 92.7443 60.8157 93.1408 61.5475 92.9255C63.0787 92.4747 63.9548 90.8678 63.5042 89.3366C63.2421 88.446 62.2106 87.6726 62.2106 87.6726Z" fill="url(#paint7_linear)"/>
</g>
<g id="Vector_11" filter="url(#filter2_d)">
<path d="M95.2465 118.384V163.762C95.2465 166.686 97.6168 169.057 100.541 169.057H146.703C149.627 169.057 151.998 166.687 151.998 163.762V118.384H95.2465Z" fill="url(#paint8_linear)"/>
</g>
<g id="Group_3">
<path id="Vector_12" d="M151.996 133.874H95.2455V140.442H151.996V133.874Z" fill="#F6A200"/>
<path id="Vector_13" d="M151.995 145.129H95.2437V151.697H151.995V145.129Z" fill="#F6A200"/>
</g>
<path id="Vector_14" d="M95.2465 163.766C95.2465 166.689 97.6168 169.06 100.541 169.06H146.703C149.627 169.06 151.998 166.69 151.998 163.766V161.017H95.2465V163.766Z" fill="url(#paint9_linear)"/>
<g id="Vector_15" filter="url(#filter3_d)">
<path d="M160.392 34.2437C160.392 29.5988 156.591 25.7989 151.947 25.7989C147.302 25.7989 143.502 29.5991 143.502 34.2437V21.6091C143.502 16.9642 139.702 13.1643 135.057 13.1643C130.412 13.1643 126.612 16.9646 126.612 21.6091V8.50488C126.612 3.8603 122.811 0.0600586 118.167 0.0600586C113.522 0.0600586 109.722 3.8603 109.722 8.50488V21.7762C109.722 17.1313 105.922 13.3313 101.277 13.3313C96.6323 13.3313 92.8324 17.1316 92.8324 21.7762V89.3978L83.5963 67.3576C81.8013 63.0737 76.8273 61.0375 72.5435 62.8328C68.2597 64.6278 66.2238 69.6018 68.0187 73.8856L79.9486 102.354C94.794 132.84 126.612 130.476 126.612 130.476C145.191 130.476 160.392 115.275 160.392 96.6959V34.2437H160.392Z" fill="url(#paint10_linear)"/>
</g>
<g id="Group_4">
<g id="Vector_16">
<path d="M85.3799 97.5273L73.4501 69.0594C72.539 66.8855 72.6186 64.535 73.4742 62.5112C73.1622 62.601 72.852 62.7047 72.5456 62.8331C68.2618 64.628 66.2259 69.6021 68.0209 73.8859L79.9507 102.354C94.7962 132.84 126.614 130.476 126.614 130.476C136.501 130.476 145.43 126.171 151.622 119.344C146.089 123.305 139.329 125.65 132.044 125.65C132.044 125.65 100.225 128.014 85.3799 97.5273Z" fill="url(#paint11_linear)"/>
<path d="M85.3799 97.5273L73.4501 69.0594C72.539 66.8855 72.6186 64.535 73.4742 62.5112C73.1622 62.601 72.852 62.7047 72.5456 62.8331C68.2618 64.628 66.2259 69.6021 68.0209 73.8859L79.9507 102.354C94.7962 132.84 126.614 130.476 126.614 130.476C136.501 130.476 145.43 126.171 151.622 119.344C146.089 123.305 139.329 125.65 132.044 125.65C132.044 125.65 100.225 128.014 85.3799 97.5273Z" fill="url(#paint12_linear)"/>
</g>
<path id="Vector_17" d="M118.171 0.0600586C113.526 0.0600586 109.726 3.8603 109.726 8.50488V21.7762V73.5502H116.563V21.7765V8.50488C116.563 5.07632 118.637 2.11284 121.589 0.793501C120.542 0.325775 119.386 0.0600586 118.171 0.0600586Z" fill="url(#paint13_linear)"/>
<path id="Vector_18" d="M126.615 21.6089V73.5503H133.452V21.6089C133.452 18.1803 135.526 15.2168 138.478 13.8978C137.431 13.4298 136.276 13.1641 135.06 13.1641C130.415 13.1637 126.615 16.964 126.615 21.6089Z" fill="url(#paint14_linear)"/>
<path id="Vector_19" d="M151.951 25.7972C147.306 25.7972 143.506 29.5975 143.506 34.2421V73.5493H150.343V34.2424C150.343 30.8138 152.417 27.8504 155.369 26.5313C154.322 26.063 153.167 25.7972 151.951 25.7972Z" fill="url(#paint15_linear)"/>
<path id="Vector_20" d="M142.691 125.66C141.552 125.66 140.434 125.113 139.747 124.1C138.645 122.476 139.068 120.265 140.693 119.163C148.58 113.814 153.288 104.956 153.288 95.4666C153.288 93.5031 154.879 91.9122 156.842 91.9122C158.805 91.9122 160.397 93.5031 160.397 95.4666C160.397 107.314 154.523 118.372 144.684 125.046C144.072 125.461 143.378 125.66 142.691 125.66Z" fill="url(#paint16_linear)"/>
<path id="Vector_21" d="M116.956 90.6773C113.37 86.2542 107.917 82.3427 99.6714 81.4336V21.7743C99.6714 18.3457 101.745 15.3822 104.698 14.0629C103.651 13.5948 102.496 13.3291 101.28 13.3291C96.6346 13.3291 92.8347 17.1293 92.8347 21.7743V89.3959C92.8347 89.3959 102.632 87.9614 112.884 94.7644C112.884 94.7644 114.074 95.5282 114.837 95.5282C116.433 95.5282 117.728 94.2339 117.728 92.6376C117.728 91.7104 116.956 90.6773 116.956 90.6773Z" fill="url(#paint17_linear)"/>
</g>
</g>
<defs>
<filter id="filter0_d" x="47.1501" y="103.283" width="69.5202" height="65.4179" filterUnits="userSpaceOnUse" color-interpolation-filters="sRGB">
<feFlood flood-opacity="0" result="BackgroundImageFix"/>
<feColorMatrix in="SourceAlpha" type="matrix" values="0 0 0 0 0 0 0 0 0 0 0 0 0 0 0 0 0 0 127 0"/>
<feOffset dx="-1"/>
<feGaussianBlur stdDeviation="0.5"/>
<feColorMatrix type="matrix" values="0 0 0 0 0.692533 0 0 0 0 0.249312 0 0 0 0 0 0 0 0 0.35 0"/>
<feBlend mode="normal" in2="BackgroundImageFix" result="effect1_dropShadow"/>
<feBlend mode="normal" in="SourceGraphic" in2="effect1_dropShadow" result="shape"/>
</filter>
<filter id="filter1_i" x="53.5446" y="119.261" width="56.2718" height="22.3542" filterUnits="userSpaceOnUse" color-interpolation-filters="sRGB">
<feFlood flood-opacity="0" result="BackgroundImageFix"/>
<feBlend mode="normal" in="SourceGraphic" in2="BackgroundImageFix" result="shape"/>
<feColorMatrix in="SourceAlpha" type="matrix" values="0 0 0 0 0 0 0 0 0 0 0 0 0 0 0 0 0 0 127 0" result="hardAlpha"/>
<feOffset/>
<feGaussianBlur stdDeviation="0.5"/>
<feComposite in2="hardAlpha" operator="arithmetic" k2="-1" k3="1"/>
<feColorMatrix type="matrix" values="0 0 0 0 0 0 0 0 0 0 0 0 0 0 0 0 0 0 0.15 0"/>
<feBlend mode="normal" in2="shape" result="effect1_innerShadow"/>
</filter>
<filter id="filter2_d" x="93.2465" y="117.384" width="58.751" height="52.6726" filterUnits="userSpaceOnUse" color-interpolation-filters="sRGB">
<feFlood flood-opacity="0" result="BackgroundImageFix"/>
<feColorMatrix in="SourceAlpha" type="matrix" values="0 0 0 0 0 0 0 0 0 0 0 0 0 0 0 0 0 0 127 0"/>
<feOffset dx="-1"/>
<feGaussianBlur stdDeviation="0.5"/>
<feColorMatrix type="matrix" values="0 0 0 0 0.692533 0 0 0 0 0.249312 0 0 0 0 0 0 0 0 0.35 0"/>
<feBlend mode="normal" in2="BackgroundImageFix" result="effect1_dropShadow"/>
<feBlend mode="normal" in="SourceGraphic" in2="effect1_dropShadow" result="shape"/>
</filter>
<filter id="filter3_d" x="65.866" y="-0.939941" width="95.0263" height="132.458" filterUnits="userSpaceOnUse" color-interpolation-filters="sRGB">
<feFlood flood-opacity="0" result="BackgroundImageFix"/>
<feColorMatrix in="SourceAlpha" type="matrix" values="0 0 0 0 0 0 0 0 0 0 0 0 0 0 0 0 0 0 127 0"/>
<feOffset dx="-0.5"/>
<feGaussianBlur stdDeviation="0.5"/>
<feColorMatrix type="matrix" values="0 0 0 0 0.692533 0 0 0 0 0.38759 0 0 0 0 0 0 0 0 0.6 0"/>
<feBlend mode="normal" in2="BackgroundImageFix" result="effect1_dropShadow"/>
<feBlend mode="normal" in="SourceGraphic" in2="effect1_dropShadow" result="shape"/>
</filter>
<linearGradient id="paint0_linear" x1="82.9102" y1="104.283" x2="59.3898" y2="160.37" gradientUnits="userSpaceOnUse">
<stop stop-color="#FFE579"/>
<stop offset="1" stop-color="#FFA620"/>
</linearGradient>
<linearGradient id="paint1_linear" x1="88.9625" y1="145.304" x2="88.9625" y2="167.701" gradientUnits="userSpaceOnUse">
<stop offset="0.582277" stop-color="#D80027"/>
<stop offset="1" stop-color="#A3001D"/>
</linearGradient>
<linearGradient id="paint2_linear" x1="81.119" y1="16.7192" x2="43.9385" y2="114.499" gradientUnits="userSpaceOnUse">
<stop stop-color="#FFDC4C"/>
<stop offset="1" stop-color="#FFB648"/>
</linearGradient>
<linearGradient id="paint3_linear" x1="60.8932" y1="112.36" x2="56.0559" y2="125.663" gradientUnits="userSpaceOnUse">
<stop stop-color="#FCD11E" stop-opacity="0"/>
<stop offset="1" stop-color="#FF8D08"/>
</linearGradient>
<linearGradient id="paint4_linear" x1="50.5957" y1="50.1769" x2="42.2776" y2="53.2137" gradientUnits="userSpaceOnUse">
<stop stop-color="#FCD11E" stop-opacity="0"/>
<stop offset="0.781236" stop-color="#FF8D08"/>
</linearGradient>
<linearGradient id="paint5_linear" x1="66.4386" y1="39.4821" x2="58.9128" y2="41.9907" gradientUnits="userSpaceOnUse">
<stop stop-color="#FCD11E" stop-opacity="0"/>
<stop offset="1" stop-color="#FF8D08"/>
</linearGradient>
<linearGradient id="paint6_linear" x1="83.7339" y1="41.7261" x2="76.8682" y2="43.7066" gradientUnits="userSpaceOnUse">
<stop stop-color="#FCD11E" stop-opacity="0"/>
<stop offset="1" stop-color="#FF8D08"/>
</linearGradient>
<linearGradient id="paint7_linear" x1="54.9527" y1="79.489" x2="24.5851" y2="91.1079" gradientUnits="userSpaceOnUse">
<stop offset="0.188774" stop-color="#FCD11E" stop-opacity="0"/>
<stop offset="0.676835" stop-color="#FF8D08"/>
</linearGradient>
<linearGradient id="paint8_linear" x1="123.622" y1="118.384" x2="123.622" y2="169.057" gradientUnits="userSpaceOnUse">
<stop stop-color="#FFDA44"/>
<stop offset="1" stop-color="#FF9F0F"/>
</linearGradient>
<linearGradient id="paint9_linear" x1="123.622" y1="161.017" x2="123.622" y2="169.06" gradientUnits="userSpaceOnUse">
<stop offset="0.269777" stop-color="#FF3F62"/>
<stop offset="1" stop-color="#D60027"/>
</linearGradient>
<linearGradient id="paint10_linear" x1="161.997" y1="-2.59569" x2="96.3276" y2="115.706" gradientUnits="userSpaceOnUse">
<stop stop-color="#FEF8E0"/>
<stop offset="1" stop-color="#FFDC4D"/>
</linearGradient>
<linearGradient id="paint11_linear" x1="109.495" y1="62.5112" x2="70.7979" y2="81.7277" gradientUnits="userSpaceOnUse">
<stop offset="0.827068" stop-color="#FFDA44" stop-opacity="0"/>
<stop offset="1" stop-color="#FF9F0F"/>
</linearGradient>
<linearGradient id="paint12_linear" x1="116.745" y1="134.541" x2="122.291" y2="122.526" gradientUnits="userSpaceOnUse">
<stop stop-color="#FFA616"/>
<stop offset="0.855168" stop-color="#FFE05D" stop-opacity="0"/>
</linearGradient>
<linearGradient id="paint13_linear" x1="117.798" y1="53.2693" x2="108.555" y2="53.5334" gradientUnits="userSpaceOnUse">
<stop stop-color="#FFDA44" stop-opacity="0"/>
<stop offset="1" stop-color="#FF9F0F"/>
</linearGradient>
<linearGradient id="paint14_linear" x1="134.301" y1="53.9292" x2="126.615" y2="53.7972" gradientUnits="userSpaceOnUse">
<stop stop-color="#FFDA44" stop-opacity="0"/>
<stop offset="1" stop-color="#FF9F0F"/>
</linearGradient>
<linearGradient id="paint15_linear" x1="150.674" y1="57.889" x2="143.506" y2="57.889" gradientUnits="userSpaceOnUse">
<stop stop-color="#FFDA44" stop-opacity="0"/>
<stop offset="1" stop-color="#FF9F0F"/>
</linearGradient>
<linearGradient id="paint16_linear" x1="151.365" y1="106.179" x2="162.062" y2="111.618" gradientUnits="userSpaceOnUse">
<stop stop-color="#FFDA44" stop-opacity="0"/>
<stop offset="0.715133" stop-color="#FF9F0F"/>
</linearGradient>
<linearGradient id="paint17_linear" x1="101.425" y1="61.9812" x2="92.8347" y2="61.8491" gradientUnits="userSpaceOnUse">
<stop stop-color="#FFDA44" stop-opacity="0"/>
<stop offset="1" stop-color="#FF9F0F"/>
</linearGradient>
<clipPath id="clip0">
<rect width="169" height="169" fill="white" transform="translate(0 0.0600586)"/>
</clipPath>
</defs>
</svg>
