<svg width="169" height="170" viewBox="0 0 169 170" fill="none" xmlns="http://www.w3.org/2000/svg">
<g id="hat" clip-path="url(#clip0)">
<g id="Vector" filter="url(#filter0_i)">
<path d="M30.0087 136.516C44.7206 141.606 63.7357 144.676 84.4999 144.676C131.168 144.676 169 129.175 169 110.054C169 100.27 159.092 91.4365 143.168 85.1409C144.264 89.3811 145.1 92.9895 145.665 95.5469C145.948 96.215 146.165 96.8926 146.309 97.5779C146.312 97.5878 146.313 97.5974 146.315 97.6066C146.349 97.7664 146.379 97.9264 146.404 98.0859C146.41 98.1219 146.414 98.1592 146.42 98.1945C146.44 98.3301 146.459 98.4661 146.474 98.6018C146.482 98.677 146.486 98.7549 146.493 98.8309C146.501 98.9289 146.511 99.0269 146.516 99.1263C146.526 99.3035 146.531 99.4821 146.531 99.661C146.531 113.253 118.759 124.272 84.4999 124.272C50.2411 124.272 22.4687 113.253 22.4687 99.6613C22.4687 99.4824 22.4743 99.3042 22.4839 99.1266C22.4898 99.0273 22.4997 98.9289 22.5073 98.8312C22.5139 98.7549 22.5179 98.6774 22.5265 98.6021C22.5406 98.4665 22.5608 98.3305 22.5806 98.1948C22.5862 98.1595 22.5898 98.1222 22.5958 98.0862C22.6212 97.9264 22.6515 97.7664 22.6849 97.6069C22.6872 97.5977 22.6885 97.5881 22.6908 97.5782C22.8357 96.8936 23.0523 96.2157 23.3358 95.5472C23.9002 92.9898 24.737 89.3817 25.8322 85.1412C9.9069 91.4368 -6.10352e-05 100.271 -6.10352e-05 110.055C-6.10352e-05 118.952 8.19083 127.064 21.6508 133.196" fill="url(#paint0_linear)"/>
</g>
<g id="Vector_2" filter="url(#filter1_i)">
<path d="M147.911 99.295C147.905 99.1937 147.895 99.093 147.887 98.9933C147.88 98.9154 147.876 98.8359 147.867 98.7586C147.853 98.62 147.832 98.4807 147.812 98.3421C147.807 98.3061 147.803 98.2678 147.797 98.2309C147.771 98.0678 147.74 97.9038 147.706 97.7407C147.704 97.7315 147.702 97.7215 147.7 97.7113C147.552 97.0115 147.33 96.3184 147.041 95.6351C143.329 78.817 128.129 17.6396 104.832 25.0667C104.832 25.0667 96.2309 28.5864 85.2845 28.5864H83.721C72.7756 28.5864 64.1747 25.0667 64.1747 25.0667C40.8765 17.64 25.6764 78.8173 21.9647 95.6355C21.6749 96.3187 21.4534 97.0115 21.3055 97.7116C21.3032 97.7219 21.3015 97.7318 21.2992 97.741C21.2652 97.9041 21.2345 98.0681 21.2085 98.2312C21.2022 98.2678 21.1986 98.3061 21.1929 98.3424C21.1725 98.4811 21.152 98.6203 21.1378 98.759C21.1292 98.8362 21.1249 98.9158 21.118 98.9937C21.1104 99.0937 21.0995 99.1944 21.0942 99.2954C21.0843 99.4769 21.0787 99.6588 21.0787 99.8416C21.0787 113.739 49.475 125.005 84.5026 125.005C119.53 125.005 147.926 113.739 147.926 99.8416C147.926 99.6588 147.921 99.4762 147.911 99.295Z" fill="url(#paint1_linear)"/>
</g>
<g id="Vector_3" filter="url(#filter2_d)">
<mask id="path-3-inside-1" fill="white">
<path d="M117.342 100.379C107.762 102.684 96.5214 104.012 84.4986 104.012C56.2515 104.012 32.3219 96.6847 24.1141 86.5602C23.1879 90.2194 22.4674 93.3416 21.9614 95.6367C21.6716 96.3199 21.4501 97.0128 21.3022 97.7128C21.2999 97.7231 21.2982 97.733 21.2959 97.7422C21.2619 97.9053 21.2312 98.0693 21.2052 98.2324C21.1989 98.269 21.1953 98.3073 21.1896 98.3436C21.1692 98.4823 21.1487 98.6216 21.1345 98.7602C21.1259 98.8374 21.1217 98.917 21.1147 98.9949C21.1071 99.0949 21.0962 99.1956 21.091 99.2966C21.0811 99.4781 21.0754 99.66 21.0754 99.8428C21.0754 113.74 49.4717 125.006 84.4993 125.006C119.527 125.006 147.923 113.74 147.923 99.8428C147.923 99.66 147.918 99.4778 147.908 99.2966C147.902 99.1952 147.892 99.0946 147.884 98.9949C147.877 98.917 147.873 98.8374 147.864 98.7602C147.85 98.6216 147.829 98.4823 147.809 98.3436C147.804 98.3077 147.8 98.2694 147.793 98.2324C147.767 98.0693 147.737 97.9053 147.703 97.7422C147.7 97.733 147.699 97.7231 147.696 97.7128C147.549 97.0131 147.327 96.3199 147.038 95.6367C146.531 93.342 145.81 90.2198 144.884 86.5602C141.354 90.9149 134.914 94.7527 126.473 97.7112"/>
</mask>
<path d="M117.342 100.379C107.762 102.684 96.5214 104.012 84.4986 104.012C56.2515 104.012 32.3219 96.6847 24.1141 86.5602C23.1879 90.2194 22.4674 93.3416 21.9614 95.6367C21.6716 96.3199 21.4501 97.0128 21.3022 97.7128C21.2999 97.7231 21.2982 97.733 21.2959 97.7422C21.2619 97.9053 21.2312 98.0693 21.2052 98.2324C21.1989 98.269 21.1953 98.3073 21.1896 98.3436C21.1692 98.4823 21.1487 98.6216 21.1345 98.7602C21.1259 98.8374 21.1217 98.917 21.1147 98.9949C21.1071 99.0949 21.0962 99.1956 21.091 99.2966C21.0811 99.4781 21.0754 99.66 21.0754 99.8428C21.0754 113.74 49.4717 125.006 84.4993 125.006C119.527 125.006 147.923 113.74 147.923 99.8428C147.923 99.66 147.918 99.4778 147.908 99.2966C147.902 99.1952 147.892 99.0946 147.884 98.9949C147.877 98.917 147.873 98.8374 147.864 98.7602C147.85 98.6216 147.829 98.4823 147.809 98.3436C147.804 98.3077 147.8 98.2694 147.793 98.2324C147.767 98.0693 147.737 97.9053 147.703 97.7422C147.7 97.733 147.699 97.7231 147.696 97.7128C147.549 97.0131 147.327 96.3199 147.038 95.6367C146.531 93.342 145.81 90.2198 144.884 86.5602C141.354 90.9149 134.914 94.7527 126.473 97.7112" fill="url(#paint2_linear)"/>
<path d="M24.1141 86.5602L24.2695 86.4342L24.0182 86.1242L23.9203 86.5111L24.1141 86.5602ZM21.9614 95.6367L22.1455 95.7148L22.1527 95.6978L22.1567 95.6797L21.9614 95.6367ZM21.3022 97.7128L21.4973 97.7569L21.4979 97.7542L21.3022 97.7128ZM21.2959 97.7422L21.1018 97.6937L21.1001 97.7014L21.2959 97.7422ZM21.2052 98.2324L21.4023 98.2661L21.4027 98.264L21.2052 98.2324ZM21.1896 98.3436L20.992 98.3131L20.9918 98.3144L21.1896 98.3436ZM21.1345 98.7602L21.3333 98.7823L21.3335 98.7806L21.1345 98.7602ZM21.1147 98.9949L20.9155 98.9771L20.9153 98.9797L21.1147 98.9949ZM21.091 99.2966L21.2907 99.3075L21.2907 99.307L21.091 99.2966ZM147.908 99.2966L148.107 99.2857L148.107 99.2855L147.908 99.2966ZM147.884 98.9949L148.083 98.979L148.083 98.9771L147.884 98.9949ZM147.864 98.7602L147.665 98.7806L147.665 98.7831L147.864 98.7602ZM147.809 98.3436L148.007 98.3149L148.007 98.3146L147.809 98.3436ZM147.793 98.2324L147.596 98.264L147.596 98.2658L147.793 98.2324ZM147.703 97.7422L147.899 97.7014L147.897 97.6937L147.703 97.7422ZM147.696 97.7128L147.5 97.7542L147.503 97.7628L147.696 97.7128ZM147.038 95.6367L146.842 95.6798L146.846 95.6977L146.853 95.7146L147.038 95.6367ZM144.884 86.5602L145.078 86.5111L144.98 86.1242L144.729 86.4342L144.884 86.5602ZM117.295 100.184C107.732 102.486 96.5073 103.812 84.4986 103.812V104.212C96.5355 104.212 107.792 102.883 117.389 100.573L117.295 100.184ZM84.4986 103.812C70.3912 103.812 57.3664 101.982 46.848 98.8907C36.3218 95.7973 28.3349 91.4491 24.2695 86.4342L23.9588 86.6861C28.1011 91.7958 36.1829 96.1734 46.7352 99.2745C57.2954 102.378 70.3589 104.212 84.4986 104.212V103.812ZM23.9203 86.5111C22.9935 90.1726 22.2724 93.2969 21.7661 95.5936L22.1567 95.6797C22.6623 93.3864 23.3824 90.2662 24.308 86.6093L23.9203 86.5111ZM21.7772 95.5586C21.4828 96.2529 21.2572 96.958 21.1065 97.6715L21.4979 97.7542C21.6429 97.0675 21.8604 96.387 22.1455 95.7148L21.7772 95.5586ZM21.1071 97.6688C21.1053 97.6768 21.1037 97.6848 21.103 97.6884C21.102 97.6932 21.1018 97.694 21.1019 97.6937L21.49 97.7907C21.4923 97.7812 21.4941 97.7724 21.4951 97.7674C21.4964 97.7612 21.4968 97.7591 21.4973 97.7569L21.1071 97.6688ZM21.1001 97.7014C21.0656 97.8671 21.0343 98.0343 21.0077 98.2008L21.4027 98.264C21.4282 98.1044 21.4583 97.9435 21.4917 97.7831L21.1001 97.7014ZM21.008 98.1987C21.0041 98.2215 21.0012 98.244 20.9988 98.2627C20.9962 98.2828 20.9943 98.2982 20.992 98.3131L21.3873 98.3742C21.3906 98.3528 21.3933 98.3309 21.3955 98.3135C21.3979 98.2949 21.3999 98.2799 21.4023 98.2661L21.008 98.1987ZM20.9918 98.3144C20.9714 98.4524 20.9503 98.5961 20.9356 98.7398L21.3335 98.7806C21.3472 98.6471 21.3669 98.5121 21.3875 98.3728L20.9918 98.3144ZM20.9357 98.7381C20.927 98.8164 20.9214 98.9105 20.9155 98.9771L21.3139 99.0126C21.3219 98.9235 21.3248 98.8584 21.3333 98.7823L20.9357 98.7381ZM20.9153 98.9797C20.9084 99.0701 20.8966 99.1832 20.8912 99.2861L21.2907 99.307C21.2959 99.208 21.3058 99.1197 21.3141 99.01L20.9153 98.9797ZM20.8913 99.2857C20.8812 99.4704 20.8754 99.6559 20.8754 99.8428H21.2754C21.2754 99.6641 21.2809 99.4859 21.2907 99.3075L20.8913 99.2857ZM20.8754 99.8428C20.8754 103.39 22.6885 106.749 25.9228 109.783C29.1568 112.817 33.8257 115.539 39.5783 117.822C51.0846 122.387 66.9668 125.206 84.4993 125.206V124.806C67.0043 124.806 51.1745 121.992 39.7258 117.45C34.0009 115.179 29.3814 112.479 26.1965 109.492C23.0119 106.504 21.2754 103.244 21.2754 99.8428H20.8754ZM84.4993 125.206C102.032 125.206 117.914 122.387 129.42 117.822C135.173 115.54 139.842 112.817 143.075 109.783C146.31 106.75 148.123 103.39 148.123 99.8428H147.723C147.723 103.244 145.986 106.505 142.802 109.492C139.617 112.479 134.998 115.179 129.273 117.45C117.824 121.992 101.994 124.806 84.4993 124.806V125.206ZM148.123 99.8428C148.123 99.6561 148.117 99.4703 148.107 99.2857L147.708 99.3075C147.718 99.4853 147.723 99.6638 147.723 99.8428H148.123ZM148.107 99.2855C148.102 99.1813 148.091 99.0726 148.083 98.979L147.685 99.0107C147.693 99.1165 147.702 99.2092 147.708 99.3076L148.107 99.2855ZM148.083 98.9771C148.077 98.9116 148.072 98.8162 148.063 98.7373L147.665 98.7831C147.674 98.8587 147.677 98.9224 147.685 99.0126L148.083 98.9771ZM148.063 98.7398C148.048 98.596 148.027 98.452 148.007 98.3149L147.611 98.3724C147.631 98.5126 147.651 98.6471 147.665 98.7806L148.063 98.7398ZM148.007 98.3146C148.004 98.2932 147.997 98.2357 147.991 98.1989L147.596 98.2658C147.603 98.303 147.604 98.3221 147.611 98.3727L148.007 98.3146ZM147.991 98.2008C147.964 98.0343 147.933 97.8671 147.898 97.7014L147.507 97.7831C147.54 97.9435 147.57 98.1044 147.596 98.264L147.991 98.2008ZM147.897 97.6937C147.897 97.6951 147.897 97.6958 147.897 97.695C147.897 97.6941 147.897 97.693 147.896 97.69C147.895 97.6853 147.893 97.6747 147.89 97.6629L147.503 97.7628C147.502 97.7612 147.502 97.7607 147.503 97.7658C147.504 97.7677 147.504 97.7715 147.505 97.7753C147.506 97.7794 147.507 97.7847 147.509 97.7907L147.897 97.6937ZM147.892 97.6716C147.742 96.9582 147.515 96.2528 147.222 95.5587L146.853 95.7146C147.138 96.387 147.356 97.0679 147.501 97.7541L147.892 97.6716ZM147.233 95.5936C146.726 93.2972 146.004 90.1729 145.078 86.5111L144.69 86.6092C145.616 90.2666 146.336 93.3868 146.842 95.6798L147.233 95.5936ZM144.729 86.4342C141.233 90.7469 134.833 94.569 126.407 97.5225L126.539 97.8999C134.994 94.9365 141.475 91.0829 145.039 86.6861L144.729 86.4342Z" fill="url(#paint3_linear)" mask="url(#path-3-inside-1)"/>
</g>
</g>
<defs>
<filter id="filter0_i" x="-6.10352e-05" y="85.1409" width="169" height="59.5349" filterUnits="userSpaceOnUse" color-interpolation-filters="sRGB">
<feFlood flood-opacity="0" result="BackgroundImageFix"/>
<feBlend mode="normal" in="SourceGraphic" in2="BackgroundImageFix" result="shape"/>
<feColorMatrix in="SourceAlpha" type="matrix" values="0 0 0 0 0 0 0 0 0 0 0 0 0 0 0 0 0 0 127 0" result="hardAlpha"/>
<feOffset/>
<feGaussianBlur stdDeviation="2"/>
<feComposite in2="hardAlpha" operator="arithmetic" k2="-1" k3="1"/>
<feColorMatrix type="matrix" values="0 0 0 0 0 0 0 0 0 0 0 0 0 0 0 0 0 0 0.35 0"/>
<feBlend mode="normal" in2="shape" result="effect1_innerShadow"/>
</filter>
<filter id="filter1_i" x="21.0787" y="24.4445" width="126.847" height="100.561" filterUnits="userSpaceOnUse" color-interpolation-filters="sRGB">
<feFlood flood-opacity="0" result="BackgroundImageFix"/>
<feBlend mode="normal" in="SourceGraphic" in2="BackgroundImageFix" result="shape"/>
<feColorMatrix in="SourceAlpha" type="matrix" values="0 0 0 0 0 0 0 0 0 0 0 0 0 0 0 0 0 0 127 0" result="hardAlpha"/>
<feOffset/>
<feGaussianBlur stdDeviation="7"/>
<feComposite in2="hardAlpha" operator="arithmetic" k2="-1" k3="1"/>
<feColorMatrix type="matrix" values="0 0 0 0 0 0 0 0 0 0 0 0 0 0 0 0 0 0 0.25 0"/>
<feBlend mode="normal" in2="shape" result="effect1_innerShadow"/>
</filter>
<filter id="filter2_d" x="20.0754" y="85.5602" width="128.847" height="40.4462" filterUnits="userSpaceOnUse" color-interpolation-filters="sRGB">
<feFlood flood-opacity="0" result="BackgroundImageFix"/>
<feColorMatrix in="SourceAlpha" type="matrix" values="0 0 0 0 0 0 0 0 0 0 0 0 0 0 0 0 0 0 127 0"/>
<feOffset/>
<feGaussianBlur stdDeviation="0.5"/>
<feColorMatrix type="matrix" values="0 0 0 0 0 0 0 0 0 0 0 0 0 0 0 0 0 0 0.25 0"/>
<feBlend mode="normal" in2="BackgroundImageFix" result="effect1_dropShadow"/>
<feBlend mode="normal" in="SourceGraphic" in2="effect1_dropShadow" result="shape"/>
</filter>
<linearGradient id="paint0_linear" x1="21.9925" y1="105.023" x2="169" y2="117.797" gradientUnits="userSpaceOnUse">
<stop stop-color="#683101"/>
<stop offset="1" stop-color="#C97328"/>
</linearGradient>
<linearGradient id="paint1_linear" x1="35.8956" y1="50.9173" x2="136.587" y2="67.8245" gradientUnits="userSpaceOnUse">
<stop stop-color="#683000"/>
<stop offset="1" stop-color="#C87228"/>
</linearGradient>
<linearGradient id="paint2_linear" x1="26.8752" y1="98.2583" x2="145.225" y2="105.783" gradientUnits="userSpaceOnUse">
<stop stop-color="#E17900"/>
<stop offset="1" stop-color="#FFDF6C"/>
</linearGradient>
<linearGradient id="paint3_linear" x1="26.3185" y1="101.2" x2="144.758" y2="102.552" gradientUnits="userSpaceOnUse">
<stop stop-color="#EE9446"/>
<stop offset="1" stop-color="#FFDFA1"/>
</linearGradient>
<clipPath id="clip0">
<rect width="169" height="169" fill="white" transform="translate(0 0.0600586)"/>
</clipPath>
</defs>
</svg>
