<svg width="169" height="170" viewBox="0 0 169 170" fill="none" xmlns="http://www.w3.org/2000/svg">
<g id="overall" clip-path="url(#clip0)">
<g id="Vector">
<path d="M126.192 53.1855C120.636 53.1855 116.133 48.6818 116.133 43.126H52.867C52.867 48.6818 48.3633 53.1855 42.8075 53.1855C40.7561 53.1855 39.0933 54.8483 39.0933 56.8997V99.3246V101.875V104.425V110.276L40.4232 112.825H128.279L129.907 110.273V104.425V101.874V99.3242V56.8997C129.906 54.8483 128.243 53.1855 126.192 53.1855Z" fill="url(#paint0_linear)"/>
<path d="M126.192 53.1855C120.636 53.1855 116.133 48.6818 116.133 43.126H52.867C52.867 48.6818 48.3633 53.1855 42.8075 53.1855C40.7561 53.1855 39.0933 54.8483 39.0933 56.8997V99.3246V101.875V104.425V110.276L40.4232 112.825H128.279L129.907 110.273V104.425V101.874V99.3242V56.8997C129.906 54.8483 128.243 53.1855 126.192 53.1855Z" fill="url(#paint1_linear)" style="mix-blend-mode:multiply"/>
<path d="M126.192 53.1855C120.636 53.1855 116.133 48.6818 116.133 43.126H52.867C52.867 48.6818 48.3633 53.1855 42.8075 53.1855C40.7561 53.1855 39.0933 54.8483 39.0933 56.8997V99.3246V101.875V104.425V110.276L40.4232 112.825H128.279L129.907 110.273V104.425V101.874V99.3242V56.8997C129.906 54.8483 128.243 53.1855 126.192 53.1855Z" fill="url(#paint2_linear)" style="mix-blend-mode:multiply"/>
</g>
<g id="Vector_2">
<path d="M130.527 169.06H97.4621C94.7112 169.06 92.3242 167.166 91.6951 164.49L87.1455 145.064C87.1183 144.952 87.0877 144.846 87.0503 144.744C86.2138 142.374 82.7862 142.374 81.9498 144.744C81.9124 144.846 81.8818 144.952 81.8546 145.064L77.3049 164.49C76.6759 167.166 74.2888 169.06 71.538 169.06H38.4732C34.9232 169.06 32.169 165.956 32.594 162.433L36.6574 131.425L37.3171 126.369L38.7578 115.379L40.4229 112.829H128.28L130.241 115.379L131.683 126.369L132.343 131.425L136.406 162.433C136.831 165.956 134.077 169.06 130.527 169.06Z" fill="url(#paint3_linear)"/>
<path d="M130.527 169.06H97.4621C94.7112 169.06 92.3242 167.166 91.6951 164.49L87.1455 145.064C87.1183 144.952 87.0877 144.846 87.0503 144.744C86.2138 142.374 82.7862 142.374 81.9498 144.744C81.9124 144.846 81.8818 144.952 81.8546 145.064L77.3049 164.49C76.6759 167.166 74.2888 169.06 71.538 169.06H38.4732C34.9232 169.06 32.169 165.956 32.594 162.433L36.6574 131.425L37.3171 126.369L38.7578 115.379L40.4229 112.829H128.28L130.241 115.379L131.683 126.369L132.343 131.425L136.406 162.433C136.831 165.956 134.077 169.06 130.527 169.06Z" fill="url(#paint4_linear)" style="mix-blend-mode:multiply"/>
<path d="M130.527 169.06H97.4621C94.7112 169.06 92.3242 167.166 91.6951 164.49L87.1455 145.064C87.1183 144.952 87.0877 144.846 87.0503 144.744C86.2138 142.374 82.7862 142.374 81.9498 144.744C81.9124 144.846 81.8818 144.952 81.8546 145.064L77.3049 164.49C76.6759 167.166 74.2888 169.06 71.538 169.06H38.4732C34.9232 169.06 32.169 165.956 32.594 162.433L36.6574 131.425L37.3171 126.369L38.7578 115.379L40.4229 112.829H128.28L130.241 115.379L131.683 126.369L132.343 131.425L136.406 162.433C136.831 165.956 134.077 169.06 130.527 169.06Z" fill="url(#paint5_linear)" style="mix-blend-mode:multiply"/>
</g>
<g id="Group">
<path id="Vector_3" d="M74.0759 137.61L64.8326 164.484C63.9116 167.162 60.4061 169.055 56.3694 169.055H65.473C74.0759 169.055 75.7777 169.055 77.0979 165.283L84.4997 133.773H81.1818C77.7921 133.773 74.8491 135.363 74.0759 137.61Z" fill="url(#paint6_linear)"/>
</g>
<path id="Vector_4" d="M106.038 30.5172C106.038 39.6029 99.693 47.2026 91.1956 49.1306C89.8287 49.4434 88.4073 49.6066 86.9486 49.6066H82.1881C71.6471 49.6066 63.0987 41.0616 63.0987 30.5172H106.038Z" fill="url(#paint7_linear)"/>
<g id="Vector_5" filter="url(#filter0_d)">
<path d="M63.1262 61.4975H61.3458C56.6639 61.4975 52.8684 57.7021 52.8684 53.0202V3.37708C52.8684 1.54498 54.3537 0.0600586 56.1854 0.0600586H68.2862C70.1183 0.0600586 71.6032 1.54532 71.6032 3.37708V53.0202C71.6032 57.7021 67.8081 61.4975 63.1262 61.4975V61.4975Z" fill="url(#paint8_linear)"/>
<path d="M63.1262 61.4975H61.3458C56.6639 61.4975 52.8684 57.7021 52.8684 53.0202V3.37708C52.8684 1.54498 54.3537 0.0600586 56.1854 0.0600586H68.2862C70.1183 0.0600586 71.6032 1.54532 71.6032 3.37708V53.0202C71.6032 57.7021 67.8081 61.4975 63.1262 61.4975V61.4975Z" fill="url(#paint9_linear)" style="mix-blend-mode:multiply"/>
<path d="M63.1262 61.4975H61.3458C56.6639 61.4975 52.8684 57.7021 52.8684 53.0202V3.37708C52.8684 1.54498 54.3537 0.0600586 56.1854 0.0600586H68.2862C70.1183 0.0600586 71.6032 1.54532 71.6032 3.37708V53.0202C71.6032 57.7021 67.8081 61.4975 63.1262 61.4975V61.4975Z" stroke="#C3D9F2" stroke-width="0.2"/>
</g>
<g id="Vector_6" filter="url(#filter1_d)">
<path d="M107.657 61.4975H105.877C101.195 61.4975 97.3992 57.7021 97.3992 53.0202V3.37708C97.3992 1.54498 98.8844 0.0600586 100.716 0.0600586H112.817C114.649 0.0600586 116.134 1.54532 116.134 3.37708V53.0202C116.134 57.7021 112.339 61.4975 107.657 61.4975Z" fill="url(#paint10_linear)"/>
<path d="M107.657 61.4975H105.877C101.195 61.4975 97.3992 57.7021 97.3992 53.0202V3.37708C97.3992 1.54498 98.8844 0.0600586 100.716 0.0600586H112.817C114.649 0.0600586 116.134 1.54532 116.134 3.37708V53.0202C116.134 57.7021 112.339 61.4975 107.657 61.4975Z" fill="url(#paint11_linear)" style="mix-blend-mode:multiply"/>
<path d="M107.657 61.4975H105.877C101.195 61.4975 97.3992 57.7021 97.3992 53.0202V3.37708C97.3992 1.54498 98.8844 0.0600586 100.716 0.0600586H112.817C114.649 0.0600586 116.134 1.54532 116.134 3.37708V53.0202C116.134 57.7021 112.339 61.4975 107.657 61.4975Z" stroke="#C3D9F2" stroke-width="0.2"/>
</g>
<g id="Vector_7" filter="url(#filter2_d)">
<path d="M89.9032 91.2422H79.0963C71.7594 91.2422 65.8115 85.2943 65.8115 77.9574V73.3408C65.8115 72.1347 66.7891 71.1571 67.9952 71.1571H101.004C102.21 71.1571 103.188 72.1347 103.188 73.3408V77.9574C103.188 85.2943 97.2401 91.2422 89.9032 91.2422V91.2422Z" fill="url(#paint12_linear)"/>
<path d="M89.9032 91.2422H79.0963C71.7594 91.2422 65.8115 85.2943 65.8115 77.9574V73.3408C65.8115 72.1347 66.7891 71.1571 67.9952 71.1571H101.004C102.21 71.1571 103.188 72.1347 103.188 73.3408V77.9574C103.188 85.2943 97.2401 91.2422 89.9032 91.2422V91.2422Z" fill="url(#paint13_linear)" style="mix-blend-mode:multiply"/>
<path d="M89.9032 91.2422H79.0963C71.7594 91.2422 65.8115 85.2943 65.8115 77.9574V73.3408C65.8115 72.1347 66.7891 71.1571 67.9952 71.1571H101.004C102.21 71.1571 103.188 72.1347 103.188 73.3408V77.9574C103.188 85.2943 97.2401 91.2422 89.9032 91.2422V91.2422Z" stroke="#C3D9F2" stroke-width="0.2"/>
</g>
<g id="Group_2">
<g id="Vector_8" filter="url(#filter3_d)">
<path d="M87.0504 112.822V144.737C86.2139 142.367 82.7864 142.367 81.9499 144.737V112.822C81.9499 111.414 83.0924 110.271 84.5001 110.271C85.9079 110.271 87.0504 111.414 87.0504 112.822Z" fill="url(#paint14_linear)"/>
</g>
</g>
<g id="Group_3">
<g id="Vector_9" filter="url(#filter4_d)">
<path d="M132.341 131.418C132.181 131.449 132.011 131.466 131.841 131.466C129.818 131.466 127.877 131.184 126.037 130.623C121.732 129.324 117.968 126.532 114.962 122.36C111.827 118.014 110.617 113.679 110.569 113.495C110.508 113.271 110.477 113.043 110.477 112.822C110.477 111.7 111.222 110.673 112.354 110.363C113.714 109.989 115.115 110.792 115.489 112.149C115.51 112.213 115.578 112.451 115.7 112.822C116.438 115.008 119.155 121.809 125.282 124.856C127.101 125.764 129.223 126.338 131.682 126.362L132.341 131.418Z" fill="url(#paint15_linear)"/>
</g>
</g>
<g id="Group_4">
<g id="Vector_10" filter="url(#filter5_d)">
<path d="M58.5196 112.825C58.5196 113.046 58.489 113.274 58.4278 113.498C58.3802 113.682 57.1697 118.018 54.0346 122.363C49.74 128.321 43.9016 131.469 37.1554 131.469C36.9853 131.469 36.8153 131.452 36.6555 131.422L37.3152 126.365C48.0466 126.263 52.3378 115.668 53.3001 112.825C53.4225 112.455 53.4905 112.217 53.5109 112.149C53.8884 110.792 55.2927 109.996 56.646 110.37C57.7783 110.683 58.5196 111.707 58.5196 112.825V112.825Z" fill="url(#paint16_linear)"/>
</g>
</g>
<path id="Vector_11" d="M62.2351 54.2779C63.6306 54.2779 64.7619 53.1467 64.7619 51.7511C64.7619 50.3556 63.6306 49.2244 62.2351 49.2244C60.8396 49.2244 59.7083 50.3556 59.7083 51.7511C59.7083 53.1467 60.8396 54.2779 62.2351 54.2779Z" fill="url(#paint17_linear)"/>
<path id="Vector_12" d="M106.766 54.2779C108.161 54.2779 109.293 53.1467 109.293 51.7511C109.293 50.3556 108.161 49.2244 106.766 49.2244C105.37 49.2244 104.239 50.3556 104.239 51.7511C104.239 53.1467 105.37 54.2779 106.766 54.2779Z" fill="url(#paint18_linear)"/>
<g id="Group_5">
<path id="Vector_13" d="M50.1249 115.379C48.7165 115.379 47.5746 114.241 47.5746 112.837V101.87C47.5746 100.467 48.7165 99.329 50.1249 99.329C51.5333 99.329 52.6751 100.467 52.6751 101.87V112.837C52.6751 114.241 51.5333 115.379 50.1249 115.379Z" fill="#BBD3F1"/>
</g>
<g id="Group_6">
<path id="Vector_14" d="M118.584 115.379C117.176 115.379 116.034 114.241 116.034 112.838V101.87C116.034 100.467 117.176 99.3292 118.584 99.3292C119.992 99.3292 121.134 100.467 121.134 101.87V112.838C121.134 114.241 119.992 115.379 118.584 115.379Z" fill="#BBD3F1"/>
</g>
<g id="Group_7">
<g id="Vector_15" filter="url(#filter6_d)">
<path d="M130.24 115.378H38.758L39.0912 112.828V110.278H129.907V112.828L130.24 115.378Z" fill="url(#paint19_linear)"/>
</g>
<g id="Vector_16" filter="url(#filter7_d)">
<path d="M39.0903 99.329H129.906V104.429H39.0903V99.329Z" fill="url(#paint20_linear)"/>
</g>
</g>
</g>
<defs>
<filter id="filter0_d" x="52.5684" y="-0.039917" width="19.3348" height="62.0375" filterUnits="userSpaceOnUse" color-interpolation-filters="sRGB">
<feFlood flood-opacity="0" result="BackgroundImageFix"/>
<feColorMatrix in="SourceAlpha" type="matrix" values="0 0 0 0 0 0 0 0 0 0 0 0 0 0 0 0 0 0 127 0"/>
<feOffset dy="0.2"/>
<feGaussianBlur stdDeviation="0.1"/>
<feColorMatrix type="matrix" values="0 0 0 0 0 0 0 0 0 0 0 0 0 0 0 0 0 0 0.15 0"/>
<feBlend mode="normal" in2="BackgroundImageFix" result="effect1_dropShadow"/>
<feBlend mode="normal" in="SourceGraphic" in2="effect1_dropShadow" result="shape"/>
</filter>
<filter id="filter1_d" x="97.0992" y="-0.039917" width="19.3348" height="62.0375" filterUnits="userSpaceOnUse" color-interpolation-filters="sRGB">
<feFlood flood-opacity="0" result="BackgroundImageFix"/>
<feColorMatrix in="SourceAlpha" type="matrix" values="0 0 0 0 0 0 0 0 0 0 0 0 0 0 0 0 0 0 127 0"/>
<feOffset dy="0.2"/>
<feGaussianBlur stdDeviation="0.1"/>
<feColorMatrix type="matrix" values="0 0 0 0 0 0 0 0 0 0 0 0 0 0 0 0 0 0 0.25 0"/>
<feBlend mode="normal" in2="BackgroundImageFix" result="effect1_dropShadow"/>
<feBlend mode="normal" in="SourceGraphic" in2="effect1_dropShadow" result="shape"/>
</filter>
<filter id="filter2_d" x="65.5115" y="70.8571" width="38.5761" height="21.285" filterUnits="userSpaceOnUse" color-interpolation-filters="sRGB">
<feFlood flood-opacity="0" result="BackgroundImageFix"/>
<feColorMatrix in="SourceAlpha" type="matrix" values="0 0 0 0 0 0 0 0 0 0 0 0 0 0 0 0 0 0 127 0"/>
<feOffset dx="0.3" dy="0.3"/>
<feGaussianBlur stdDeviation="0.25"/>
<feColorMatrix type="matrix" values="0 0 0 0 0 0 0 0 0 0 0 0 0 0 0 0 0 0 0.15 0"/>
<feBlend mode="normal" in2="BackgroundImageFix" result="effect1_dropShadow"/>
<feBlend mode="normal" in="SourceGraphic" in2="effect1_dropShadow" result="shape"/>
</filter>
<filter id="filter3_d" x="81.4499" y="110.071" width="6.10048" height="35.4657" filterUnits="userSpaceOnUse" color-interpolation-filters="sRGB">
<feFlood flood-opacity="0" result="BackgroundImageFix"/>
<feColorMatrix in="SourceAlpha" type="matrix" values="0 0 0 0 0 0 0 0 0 0 0 0 0 0 0 0 0 0 127 0"/>
<feOffset dy="0.3"/>
<feGaussianBlur stdDeviation="0.25"/>
<feColorMatrix type="matrix" values="0 0 0 0 0 0 0 0 0 0 0 0 0 0 0 0 0 0 0.15 0"/>
<feBlend mode="normal" in2="BackgroundImageFix" result="effect1_dropShadow"/>
<feBlend mode="normal" in="SourceGraphic" in2="effect1_dropShadow" result="shape"/>
</filter>
<filter id="filter4_d" x="109.977" y="110.072" width="22.8641" height="22.1943" filterUnits="userSpaceOnUse" color-interpolation-filters="sRGB">
<feFlood flood-opacity="0" result="BackgroundImageFix"/>
<feColorMatrix in="SourceAlpha" type="matrix" values="0 0 0 0 0 0 0 0 0 0 0 0 0 0 0 0 0 0 127 0"/>
<feOffset dy="0.3"/>
<feGaussianBlur stdDeviation="0.25"/>
<feColorMatrix type="matrix" values="0 0 0 0 0 0 0 0 0 0 0 0 0 0 0 0 0 0 0.15 0"/>
<feBlend mode="normal" in2="BackgroundImageFix" result="effect1_dropShadow"/>
<feBlend mode="normal" in="SourceGraphic" in2="effect1_dropShadow" result="shape"/>
</filter>
<filter id="filter5_d" x="36.1555" y="110.078" width="22.8641" height="22.1914" filterUnits="userSpaceOnUse" color-interpolation-filters="sRGB">
<feFlood flood-opacity="0" result="BackgroundImageFix"/>
<feColorMatrix in="SourceAlpha" type="matrix" values="0 0 0 0 0 0 0 0 0 0 0 0 0 0 0 0 0 0 127 0"/>
<feOffset dy="0.3"/>
<feGaussianBlur stdDeviation="0.25"/>
<feColorMatrix type="matrix" values="0 0 0 0 0 0 0 0 0 0 0 0 0 0 0 0 0 0 0.15 0"/>
<feBlend mode="normal" in2="BackgroundImageFix" result="effect1_dropShadow"/>
<feBlend mode="normal" in="SourceGraphic" in2="effect1_dropShadow" result="shape"/>
</filter>
<filter id="filter6_d" x="38.458" y="110.278" width="92.0824" height="5.70049" filterUnits="userSpaceOnUse" color-interpolation-filters="sRGB">
<feFlood flood-opacity="0" result="BackgroundImageFix"/>
<feColorMatrix in="SourceAlpha" type="matrix" values="0 0 0 0 0 0 0 0 0 0 0 0 0 0 0 0 0 0 127 0"/>
<feOffset dy="0.3"/>
<feGaussianBlur stdDeviation="0.15"/>
<feColorMatrix type="matrix" values="0 0 0 0 0 0 0 0 0 0 0 0 0 0 0 0 0 0 0.15 0"/>
<feBlend mode="normal" in2="BackgroundImageFix" result="effect1_dropShadow"/>
<feBlend mode="normal" in="SourceGraphic" in2="effect1_dropShadow" result="shape"/>
</filter>
<filter id="filter7_d" x="38.7903" y="99.329" width="91.4159" height="5.70049" filterUnits="userSpaceOnUse" color-interpolation-filters="sRGB">
<feFlood flood-opacity="0" result="BackgroundImageFix"/>
<feColorMatrix in="SourceAlpha" type="matrix" values="0 0 0 0 0 0 0 0 0 0 0 0 0 0 0 0 0 0 127 0"/>
<feOffset dy="0.3"/>
<feGaussianBlur stdDeviation="0.15"/>
<feColorMatrix type="matrix" values="0 0 0 0 0 0 0 0 0 0 0 0 0 0 0 0 0 0 0.15 0"/>
<feBlend mode="normal" in2="BackgroundImageFix" result="effect1_dropShadow"/>
<feBlend mode="normal" in="SourceGraphic" in2="effect1_dropShadow" result="shape"/>
</filter>
<linearGradient id="paint0_linear" x1="84.4999" y1="43.126" x2="84.4999" y2="112.825" gradientUnits="userSpaceOnUse">
<stop stop-color="#B6CFED"/>
<stop offset="1" stop-color="#7EB4F1"/>
</linearGradient>
<linearGradient id="paint1_linear" x1="123.969" y1="79.5963" x2="40.5266" y2="77.9753" gradientUnits="userSpaceOnUse">
<stop stop-color="#B3D1F4"/>
<stop offset="0.307584" stop-color="white" stop-opacity="0"/>
</linearGradient>
<linearGradient id="paint2_linear" x1="84.4999" y1="133.728" x2="84.4999" y2="88.0461" gradientUnits="userSpaceOnUse">
<stop stop-color="#5386D7"/>
<stop offset="1" stop-color="white" stop-opacity="0"/>
</linearGradient>
<linearGradient id="paint3_linear" x1="84.5" y1="112.829" x2="84.5" y2="169.06" gradientUnits="userSpaceOnUse">
<stop stop-color="#B6CFED"/>
<stop offset="1" stop-color="#7EB4F1"/>
</linearGradient>
<linearGradient id="paint4_linear" x1="136.449" y1="137.429" x2="87.2649" y2="140.944" gradientUnits="userSpaceOnUse">
<stop stop-color="#5D97E7"/>
<stop offset="1" stop-color="white" stop-opacity="0"/>
</linearGradient>
<linearGradient id="paint5_linear" x1="84.5" y1="112.829" x2="84.5" y2="169.06" gradientUnits="userSpaceOnUse">
<stop stop-color="#72A1E2"/>
<stop offset="0.235566" stop-color="white" stop-opacity="0"/>
</linearGradient>
<linearGradient id="paint6_linear" x1="67.3278" y1="152.344" x2="80.1166" y2="159.56" gradientUnits="userSpaceOnUse">
<stop offset="0.121061" stop-color="#94B9E3" stop-opacity="0"/>
<stop offset="0.70196" stop-color="#4E92DF"/>
</linearGradient>
<linearGradient id="paint7_linear" x1="84.5684" y1="30.5172" x2="84.5684" y2="49.6066" gradientUnits="userSpaceOnUse">
<stop offset="0.441652" stop-color="#8795DE"/>
<stop offset="1" stop-color="#374EC8"/>
</linearGradient>
<linearGradient id="paint8_linear" x1="62.2358" y1="0.0600586" x2="62.2358" y2="61.4975" gradientUnits="userSpaceOnUse">
<stop stop-color="#D5E3F4"/>
<stop offset="1" stop-color="#94BBEB"/>
</linearGradient>
<linearGradient id="paint9_linear" x1="75.3837" y1="33.3875" x2="57.4278" y2="32.3312" gradientUnits="userSpaceOnUse">
<stop stop-color="#69A1E1"/>
<stop offset="1" stop-color="white" stop-opacity="0"/>
</linearGradient>
<linearGradient id="paint10_linear" x1="106.767" y1="0.0600586" x2="106.767" y2="61.4975" gradientUnits="userSpaceOnUse">
<stop stop-color="#D5E3F4"/>
<stop offset="1" stop-color="#94BBEB"/>
</linearGradient>
<linearGradient id="paint11_linear" x1="117.633" y1="23.6174" x2="91.2268" y2="23.0892" gradientUnits="userSpaceOnUse">
<stop stop-color="#8DB8EB"/>
<stop offset="0.825074" stop-color="white" stop-opacity="0"/>
</linearGradient>
<linearGradient id="paint12_linear" x1="84.4996" y1="71.1571" x2="84.4996" y2="91.2422" gradientUnits="userSpaceOnUse">
<stop stop-color="#E0ECFB"/>
<stop offset="1" stop-color="#94BBEB"/>
</linearGradient>
<linearGradient id="paint13_linear" x1="106.805" y1="89.8938" x2="80.3991" y2="78.5394" gradientUnits="userSpaceOnUse">
<stop stop-color="#4A81DE"/>
<stop offset="1" stop-color="white" stop-opacity="0"/>
</linearGradient>
<linearGradient id="paint14_linear" x1="84.5001" y1="110.271" x2="84.5001" y2="144.737" gradientUnits="userSpaceOnUse">
<stop stop-color="#E0ECFB"/>
<stop offset="1" stop-color="#94BBEB"/>
</linearGradient>
<linearGradient id="paint15_linear" x1="121.409" y1="110.272" x2="103.107" y2="131.466" gradientUnits="userSpaceOnUse">
<stop stop-color="#E0ECFB"/>
<stop offset="1" stop-color="#94BBEB"/>
</linearGradient>
<linearGradient id="paint16_linear" x1="47.5876" y1="110.278" x2="63.4978" y2="131.469" gradientUnits="userSpaceOnUse">
<stop stop-color="#E0ECFB"/>
<stop offset="1" stop-color="#94BBEB"/>
</linearGradient>
<linearGradient id="paint17_linear" x1="62.2351" y1="49.2244" x2="62.2351" y2="54.2779" gradientUnits="userSpaceOnUse">
<stop offset="0.483318" stop-color="#8C9ADB"/>
<stop offset="1" stop-color="#1636CA"/>
</linearGradient>
<linearGradient id="paint18_linear" x1="106.766" y1="49.2244" x2="106.766" y2="54.2779" gradientUnits="userSpaceOnUse">
<stop offset="0.483318" stop-color="#8C9ADB"/>
<stop offset="1" stop-color="#1636CA"/>
</linearGradient>
<linearGradient id="paint19_linear" x1="84.4992" y1="110.278" x2="84.4992" y2="115.378" gradientUnits="userSpaceOnUse">
<stop stop-color="#D5E3F4"/>
<stop offset="1" stop-color="#94BBEB"/>
</linearGradient>
<linearGradient id="paint20_linear" x1="84.4983" y1="99.329" x2="84.4983" y2="104.429" gradientUnits="userSpaceOnUse">
<stop stop-color="#D5E3F4"/>
<stop offset="1" stop-color="#94BBEB"/>
</linearGradient>
<clipPath id="clip0">
<rect width="169" height="169" fill="white" transform="translate(0 0.0600586)"/>
</clipPath>
</defs>
</svg>
