<svg xmlns="http://www.w3.org/2000/svg" fill="none" viewBox="0 0 1080 1080">
  <defs/>
  <g id="packing">
    <g id="Group">
      <g id="Group_2">
        <g id="Group_3">
          <g id="Group_4">
            <path id="Rectangle 10" fill="#FFFAE9" d="M189 25.9a4.5 4.5 0 016.2.2l224.3 242a4.5 4.5 0 01-.3 6.4L243.6 437.2a4.5 4.5 0 01-6.3-.3L13.1 195a4.5 4.5 0 01.2-6.3L189 25.9z"/>
            <g id="Group_5">
              <path id="Vector" fill="url(#paint0_linear)" d="M190.3 44.9c.6-.6 1.6-.5 2.1 0l208 224.7c.6.6.6 1.5 0 2L242.2 418.3c-.6.5-1.5.5-2-.1L32 193.5c-.6-.6-.5-1.6 0-2.1L190.4 44.9z"/>
              <g id="Mask Group">
                <mask id="mask0" width="370" height="375" x="31" y="44" maskUnits="userSpaceOnUse">
                  <path id="Vector_2" fill="url(#paint1_linear)" d="M190.3 44.9c.6-.6 1.6-.5 2.1 0l208 224.7c.6.6.6 1.5 0 2L242.2 418.3c-.6.5-1.5.5-2-.1L32 193.5c-.6-.6-.5-1.6 0-2.1L190.4 44.9z"/>
                </mask>
                <g mask="url(#mask0)">
                  <g id="Group_6">
                    <g id="Mask Group1">
                      <g id="Ellipse 101">
                        <path id="Vector_3" fill="url(#paint2_linear)" d="M142.6 211.4c-17.6 24.2-44.4 4.9-69.2-15.6-24.7-20.4-31.4-65.7-16-80 15.5-14.4 67-5.7 72.2 23.4 5.2 28.7 38.6 37 13 72.2z"/>
                      </g>
                      <g id="Ellipse 10 Stroke 1">
                        <path id="Vector_4" fill="#FFF1BF" fill-rule="evenodd" d="M126.1 214.8a18 18 0 0010.4-7.7c6-8.2 7.9-14 8.2-18.3.2-4.1-1-7.9-3.5-12.2a91 91 0 00-4.5-7l-1-1.2-4.5-6.7a57.3 57.3 0 01-8.9-21.1c-1.8-10.3-12.3-18.5-26.8-22.2-7-1.8-14.1-2.4-20.2-1.7-6.3.6-10.6 2.5-12.8 4.5a20.3 20.3 0 00-5.3 11.5c-1 5.6-.8 12.3.5 19.5 2.6 14.4 9.8 29 20.5 37.9 12.5 10.3 24.4 19.4 35 23.3 5.2 1.9 9.4 2.3 13 1.4zm-52.7-19c24.8 20.5 51.6 39.8 69.2 15.6 16.5-22.8 8.4-34.3-.8-47.3a61.7 61.7 0 01-12.2-24.9c-5.2-29.1-56.7-37.8-72.2-23.4-15.4 14.3-8.7 59.6 16 80z" clip-rule="evenodd"/>
                      </g>
                      <g id="Ellipse 121">
                        <path id="Vector_5" fill="url(#paint3_linear)" d="M157.8 153c-1.6-9.8 9.2-11.5 19.8-12.5 10.6-1 22.7 8 22.5 15-.3 7-14.4 17-22.4 11.4-8-5.5-17.7.3-20-13.9z"/>
                      </g>
                      <g id="Ellipse 12 Stroke 1">
                        <path id="Vector_6" fill="#FFF1BF" fill-rule="evenodd" d="M165 151l.1.8c.4 2.8 1 3.6 1.2 3.7 0 0 .2.3 1.2.5l2.3.5h.4l2.9.6c2.5.6 5.7 1.5 8.8 3.7.4.3 2.4.8 6.1-1.3 1.6-1 3-2.1 3.8-3.2l.8-1.1a5 5 0 00-.5-.9c-.7-1-1.9-2.1-3.4-3.2a16.7 16.7 0 00-10.4-3.2 41 41 0 00-12 2.3 4 4 0 00-1.2.8zm0-.1zm12.6-10.4c-10.6 1-21.4 2.7-19.8 12.5 1.4 9.2 6 10 11.2 11 2.9.4 5.9 1 8.7 2.9 8 5.6 22-4.5 22.4-11.4.2-7-12-16-22.5-15z" clip-rule="evenodd"/>
                      </g>
                      <g id="Ellipse 111">
                        <path id="Vector_7" fill="url(#paint4_linear)" d="M284.3 375.5c-4 22.4-24.3 70.8-48 50.5-26.5-22.8-88.9-87.8-92.5-91.7-6.8-7.3 2.6-15.6 19.5-31.2 7.6-7 7.3-6.2 22.8-1.9 13.6-4.5 15.2-18.6 55-2.9 18.2 7.2 33 26.3 30.6 47.2 7.2 15 14.6 18.3 12.6 30z"/>
                      </g>
                      <g id="Ellipse 11 Stroke 1">
                        <path id="Vector_8" fill="#FFF1BF" fill-rule="evenodd" d="M188.4 308.3c-1.4.4-2.9.5-4.3 0l-4.3-1.1-4.6-1.3-3-.6-.2.1a34.2 34.2 0 00-5 4.4c-8 7.4-13.4 12.4-16.3 16.4a13.3 13.3 0 00-1.7 2.8l.3.3c3.6 3.9 65.7 68.6 91.8 91 4.2 3.6 7 3.5 9.5 2.6a27 27 0 0011-10.3c7.7-11.3 13.5-28 15.3-38.5.4-2 .3-3.3 0-4.4-.2-1.1-.8-2.3-1.8-4.1l-2-3.1c-2.2-3.3-5.3-8-8-13.8a7.5 7.5 0 01-.8-4c2-17-10.1-33.2-25.9-39.5-19.4-7.6-27.8-7.3-32.5-5.9-2.4.7-4.4 2-7 3.6l-.5.3a43.3 43.3 0 01-10 5zM149 328.9zm23.3-23.6zm13.9-4L182 300c-11.5-3.3-11.8-3.4-18.7 3l-1.8 1.6c-15.7 14.6-24.3 22.5-17.7 29.6 3.6 3.9 66 68.9 92.5 91.7 23.7 20.3 44-28 48-50.5 1.3-7.6-1.4-11.6-5.4-17.7-2.1-3.2-4.7-7-7.2-12.3 2.4-21-12.4-40-30.5-47.2-30.2-12-38.5-6.7-46.6-1.5a36.8 36.8 0 01-8.5 4.4z" clip-rule="evenodd"/>
                      </g>
                      <g id="Vector 91">
                        <path id="Vector_9" fill="url(#paint5_linear)" d="M296.2 321.3c22.6 20.5 50.9 7.6 62.3-1.3l64.6-53.7-14.1-17L266.6 78c-17.7-16.8-31.8-9.3-40-3.5-8 5.9-6.2 7.6-24.3 34.7-18.2 27.1 24 51.7 29.7 64.1 5.7 12.4-26.1 22.7-27.7 34.6-1.6 12 11.8 17 26.6 18.2 14.8 1 36.7 19.7 38.7 29.3.7 3.4-7.8 4-10.6 11.7-2 5 9 28.6 37.2 54.2z"/>
                      </g>
                      <g id="Vector 9 Stroke 1">
                        <path id="Vector_10" fill="#FFF1BF" fill-rule="evenodd" d="M358.5 320l64.6-53.7L266.6 78c-17.7-16.8-31.8-9.3-40-3.5-4.9 3.6-6.1 5.6-10.5 13-2.8 4.6-6.8 11.2-13.8 21.7-13.1 19.6 5.2 37.8 18.5 51.2 5.2 5 9.6 9.5 11.2 13 3.1 6.8-5.2 13-13.6 19.2-6.7 5-13.4 10-14.1 15.3-1.6 12 11.8 17 26.6 18.2 14.8 1 36.7 19.7 38.7 29.3.4 1.5-1.1 2.5-3.2 3.7a16 16 0 00-7.4 8c-2 5 9 28.6 37.2 54.2 22.6 20.5 50.9 7.6 62.3-1.3zM261 83c-7.4-7-13.3-8.1-17.5-7.8-4.7.3-8.8 2.7-12.6 5.4a19.9 19.9 0 00-6.4 7.2l-2.1 3.4a498 498 0 01-14 22.1c-3.4 5-3.9 9.5-2.8 14 1 4.6 4 9.6 8.3 14.8 3.7 4.6 8 8.9 12 13l1.6 1.5c2.3 2.3 4.5 4.5 6.3 6.7 1.8 2 3.7 4.4 4.8 7 3 6.6.5 12.5-2.5 16.5-3 3.8-7.2 7.2-10.9 10l-2.6 2c-3 2-5.5 4-7.6 6a19.2 19.2 0 00-2.8 3l-.7 1.1c-.2 1.5.1 2.4.5 3a8 8 0 003 2.7c3.6 2.1 9.4 3.5 16.4 4a57 57 0 0128.2 13.1c4.1 3.3 7.9 6.9 10.9 10.5a29 29 0 016.3 11.7c1 4.7-1.8 8-3.3 9.3-1.1 1-2.6 1.9-3.5 2.4l-.5.3a9.2 9.2 0 00-3.3 3c0 .6.3 1.5.7 2.7 1 2.7 2.8 6.4 5.6 11 5.6 9 15 20.8 28.6 33.2 9.3 8.4 19.6 10 29.2 8.5a53.5 53.5 0 0023.4-10.1l58.8-48.9L261 83.1zm5 185.4h.1z" clip-rule="evenodd"/>
                      </g>
                    </g>
                    <path id="Vector 8 Stroke 1" fill="url(#paint6_linear)" fill-rule="evenodd" d="M308.4 198a5.2 5.2 0 01-7.3 1.2 60.8 60.8 0 00-11.2-6.3 5.2 5.2 0 013.6-9.8 71.8 71.8 0 0113.8 7.7c2.3 1.7 2.8 5 1 7.3zm10.6 11.5a5.2 5.2 0 017.1 1.8 54.3 54.3 0 016.4 15.5 5.2 5.2 0 11-10.2 2.4 44 44 0 00-5.1-12.6 5.2 5.2 0 011.8-7.1zm-44.7-24.2a5.2 5.2 0 01-4.5 5.8c-4 .5-8.1 1.4-12.3 2.6a5.2 5.2 0 11-2.9-10c4.6-1.3 9.3-2.3 14-2.9a5.2 5.2 0 015.7 4.5zm52.4 63.3a5.2 5.2 0 012.2 7 45.2 45.2 0 01-4.7 7.2l-4.6 5.6a5.2 5.2 0 01-7.9-6.8l4.4-5.3c1.4-1.8 2.6-3.7 3.6-5.6a5.2 5.2 0 017-2.1zM199 139c1.6 2.4 1 5.6-1.5 7.2l-6.7 4.3a5.2 5.2 0 01-5.5-8.8l6.5-4.1c2.3-1.6 5.6-1 7.2 1.4zm40.5 55.6c1.2 2.7 0 5.7-2.6 6.9l-12 5.7a5.2 5.2 0 11-4.6-9.4c4-2 8.2-4 12.3-5.8 2.7-1.2 5.7 0 6.9 2.6zm60.4 79.7c0 2.9-2.4 5.2-5.3 5.1-2.2 0-4.7-.2-7.4-.4l-6.9-.5a5.2 5.2 0 01.5-10.4l7.4.5c2.5.3 4.7.4 6.6.4 3 0 5.2 2.5 5.1 5.3zm-130-116.5a5.2 5.2 0 01-1.2 7.3c-4.2 3-8.2 6.2-11.7 9.6a5.2 5.2 0 11-7.2-7.6c4-3.7 8.3-7.2 12.7-10.4a5.2 5.2 0 017.3 1zm37 52.6c1.2 2.6.1 5.7-2.4 7l-12.4 5.8a5.2 5.2 0 11-4.2-9.5l12-5.6a5.2 5.2 0 017 2.3zm54.5 63.2a5.2 5.2 0 01-4.6 5.7 136 136 0 00-13.6 2.1 5.2 5.2 0 01-2.1-10.2c4.8-1 9.7-1.7 14.6-2.3a5.2 5.2 0 015.7 4.7zM140.2 188c2.8.5 4.7 3.1 4.3 6-.4 2-.4 4 0 6l1.5 6a5.2 5.2 0 11-10 3c-.6-2.1-1.2-4.5-1.7-7a27 27 0 01-.1-9.7 5.2 5.2 0 016-4.3zm33.2 36.6a5.2 5.2 0 01-4.4 6c-5.4.8-10.8.6-15.8-1.2a5.2 5.2 0 113.5-9.7 22 22 0 0010.8.5 5.2 5.2 0 015.9 4.4zm50.3 57c1.3 2.6.3 5.7-2.2 7a45 45 0 00-10.5 7.4 5.2 5.2 0 01-7.2-7.6c3.7-3.5 8.1-6.5 12.9-9a5.2 5.2 0 017 2.2zm30 87.4c-.4 2.9-3 5-5.8 4.6-2.3-.2-4.8-.7-7.5-1.3a5.2 5.2 0 012.4-10.1c2.3.5 4.4.9 6.3 1 2.8.4 4.9 3 4.5 5.8zm-56.2-60.6c2.8.2 5 2.7 4.7 5.6a48.9 48.9 0 001.2 12.5 5.2 5.2 0 11-10.1 2.4 60 60 0 01-1.4-15.7c.2-2.9 2.7-5 5.6-4.8zm26.6 52.3a5.2 5.2 0 01-7.2 1.4c-4-2.8-8-6-11.6-10a5.2 5.2 0 017.8-7c2.9 3.3 6.2 6 9.6 8.3 2.4 1.6 3 4.9 1.4 7.3z" clip-rule="evenodd"/>
                    <g id="Subtract1">
                      <path id="Vector_11" fill="#FF196B" fill-rule="evenodd" d="M235.4 137a25 25 0 01-13.6 6.5L184 154a3 3 0 01-3.5-3.8L194 113a25 25 0 1141.4 24zm-25-11a10.6 10.6 0 1015.5-14.4 10.6 10.6 0 00-15.5 14.4z" clip-rule="evenodd"/>
                    </g>
                    <path id="Ellipse 141" fill="url(#paint7_linear)" d="M243.5 353.7a14 14 0 116.2 27.3 14 14 0 01-6.2-27.3z"/>
                    <g id="Ellipse 151">
                      <path id="Vector_12" fill="url(#paint8_linear)" d="M254 375.3a10.8 10.8 0 11-14.7-15.9 10.8 10.8 0 0114.7 15.9z"/>
                    </g>
                  </g>
                </g>
              </g>
            </g>
          </g>
        </g>
        <g id="Group 125">
          <path id="Vector 2" fill="url(#paint9_linear)" d="M430.7 1002.3l1 11.8c.4 4.6-3 8.5-7.7 8.9l-27.8 2.3c-4.6.4-8.7-3-9-7.5l-1-11.9c-.4-4.5 3-8.5 7.7-8.8l27.8-2.3c4.6-.4 8.7 3 9 7.5z"/>
          <path id="Vector 3" fill="url(#paint10_linear)" d="M803.9 971.7l1 11.9c.3 4.5-3 8.5-7.7 8.8l-27.9 2.3c-4.6.4-8.6-3-9-7.5l-1-11.8c-.3-4.6 3.1-8.5 7.7-8.9l27.9-2.3c4.6-.4 8.6 3 9 7.5z"/>
          <path id="Vector 4" fill="url(#paint11_linear)" d="M385.4 269.4l-66.7 5.4-.7-7.8a17 17 0 0115.7-18.1l32.7-2.7a17 17 0 0118.4 15.3l.6 7.9z"/>
          <path id="Vector 5" fill="url(#paint12_linear)" d="M359.7 246.7l25.7 22.7-23.7 2-2-24.7z"/>
          <g id="Vector 6">
            <path id="Vector_13" fill="url(#paint13_linear)" d="M362.3 271.3l-20.5 1.7-1.8-22a6.7 6.7 0 016.2-7l7-.7c3.7-.3 7 2.4 7.3 6.1l1.8 21.9z"/>
          </g>
          <path id="Vector 7" fill="url(#paint14_linear)" d="M751.6 239.4l-66.7 5.4-.6-7.8a17 17 0 0115.6-18.1l32.7-2.7a17 17 0 0118.4 15.3l.6 7.9z"/>
          <path id="Vector 8" fill="url(#paint15_linear)" d="M726 216.7l25.6 22.7-23.7 2-2-24.7z"/>
          <g id="Vector 9">
            <path id="Vector_14" fill="url(#paint16_linear)" d="M728.5 241.3L708 243l-1.8-22a6.7 6.7 0 016.2-7l7-.7c3.8-.3 7 2.5 7.3 6.1l1.8 21.9z"/>
          </g>
          <path id="Vector 10" fill="url(#paint17_linear)" d="M428 104.8l-35.3 3 14 170.2 35.3-2.9-14-170.3z"/>
          <g id="Vector 11">
            <path id="Vector_15" fill="url(#paint18_linear)" d="M394.6 130.9l1.2 2 37 30.8-4.7-58.9-35.4 3 2 23z"/>
          </g>
          <path id="Vector 12" fill="url(#paint19_linear)" d="M651.3 86.5l-35.3 3 14 170.3 35.3-3-14-170.3z"/>
          <g id="Vector 13">
            <path id="Vector_16" fill="url(#paint20_linear)" d="M618 112.6l1.1 2 37 30.8-4.8-58.9-35.3 3 2 23z"/>
          </g>
          <path id="Vector 14" fill="url(#paint21_linear)" d="M289.8 273.1l490-40c36.9-3.1 69.2 23.8 72.2 60l49.5 604.6c3 36.2-24.6 68-61.5 71l-490 40.1c-36.8 3-69.1-23.9-72.1-60.1l-49.5-604.5c-3-36.2 24.5-68 61.4-71z"/>
          <path id="Vector 15" fill="url(#paint22_linear)" d="M254.7 665.3l23.2 283.4a66.4 66.4 0 0072.2 60.1l490-40a66.4 66.4 0 0061.4-71.1l-23.2-283.5a17 17 0 00-18.4-15.3l-589.6 48.3a17 17 0 00-15.6 18z"/>
          <path id="Vector 16" fill="url(#paint23_linear)" d="M826 951l-465 38.1a63 63 0 01-68.5-57l-47-573.8a63 63 0 0158.3-67.5l465-38a63 63 0 0168.6 57l47 573.8A63 63 0 01826 951z"/>
          <path id="Vector 17" fill="url(#paint24_linear)" d="M851.1 478l-591.8 48.5 12.5 152.9 591.8-48.5-12.5-152.8z"/>
          <path id="Vector 18" fill="url(#paint25_linear)" d="M842 585l-556.2 45.5c-9.9.8-17.2 9.3-16.4 19L292.5 932a63 63 0 0068.5 57.1l465-38a63 63 0 0058.3-67.5L861.2 601a17.7 17.7 0 00-19.3-16z"/>
          <path id="Vector 19" fill="url(#paint26_linear)" d="M268.7 836.5l9.2 112.2a66.4 66.4 0 0072.2 60.1l490-40a66.4 66.4 0 0061.4-71.1l-9.2-112.2-623.6 51z"/>
          <g id="Vector 20">
            <path id="Vector_17" fill="url(#paint27_linear)" d="M901.5 897.7l-6.8-83-150.4-125.3A34.4 34.4 0 00716 678L425.3 702a34 34 0 00-31.5 36.4l10.7 130.6c1 11 7.1 20.3 16 25.7l118.4 98.8L840 968.7a66.4 66.4 0 0061.5-71z"/>
          </g>
          <path id="Vector 21" fill="url(#paint28_linear)" d="M732.1 875.9l-290.7 23.8a34 34 0 01-36.9-30.8l-10.7-130.6a34 34 0 0131.5-36.4l290.6-23.8a34 34 0 0137 30.8l10.6 130.6a34 34 0 01-31.4 36.4z"/>
          <g id="Vector 22">
            <path id="Vector_18" fill="url(#paint29_linear)" d="M763.5 839.5l-2.4-30-91-75.9a19 19 0 00-15.5-6l-160.7 13.2a18.8 18.8 0 00-17.4 20.1l5.9 72.2c.5 6 3.8 11 8.5 14l53 44.2L732 875.9a34 34 0 0031.4-36.4z"/>
          </g>
          <path id="Vector 23" fill="url(#paint30_linear)" d="M663.5 837l-160.7 13.2a18.8 18.8 0 01-20.4-17l-6-72.3c-.7-10.2 7-19.2 17.5-20l160.7-13.2a18.8 18.8 0 0120.4 17l5.9 72.2c.8 10.2-7 19.2-17.4 20.1z"/>
          <g id="Group_7">
            <path id="Vector 24" fill="url(#paint31_linear)" d="M766.2 384.3l-17.5 1.4a9.4 9.4 0 01-10.3-8.5 9.4 9.4 0 018.7-10.1l17.6-1.5a9.4 9.4 0 0110.2 8.6 9.4 9.4 0 01-8.7 10z"/>
            <path id="Vector 25" fill="url(#paint32_linear)" d="M719.4 388l-17.5 1.5a9.4 9.4 0 01-10.2-8.5 9.4 9.4 0 018.7-10.1l17.5-1.4a9.4 9.4 0 0110.3 8.5 9.4 9.4 0 01-8.8 10z"/>
            <path id="Vector 26" fill="url(#paint33_linear)" d="M672.7 392l-17.5 1.3a9.4 9.4 0 01-10.3-8.5 9.4 9.4 0 018.7-10l17.6-1.5a9.4 9.4 0 0110.2 8.5 9.4 9.4 0 01-8.7 10.1z"/>
            <path id="Vector 27" fill="url(#paint34_linear)" d="M626 395.7l-17.6 1.5a9.4 9.4 0 01-10.2-8.6 9.4 9.4 0 018.7-10l17.5-1.5a9.4 9.4 0 0110.2 8.6 9.4 9.4 0 01-8.7 10z"/>
            <path id="Vector 28" fill="url(#paint35_linear)" d="M579.2 399.6l-17.6 1.4a9.4 9.4 0 01-10.2-8.5 9.4 9.4 0 018.7-10.1l17.5-1.4a9.4 9.4 0 0110.3 8.5 9.4 9.4 0 01-8.7 10z"/>
            <path id="Vector 29" fill="url(#paint36_linear)" d="M532.4 403.4l-17.5 1.4a9.4 9.4 0 01-10.3-8.5 9.4 9.4 0 018.7-10l17.6-1.5a9.4 9.4 0 0110.2 8.5 9.4 9.4 0 01-8.7 10.1z"/>
            <path id="Vector 30" fill="url(#paint37_linear)" d="M485.6 407.2l-17.5 1.5A9.4 9.4 0 01458 400a9.4 9.4 0 018.7-10l17.5-1.5a9.4 9.4 0 0110.3 8.5 9.4 9.4 0 01-8.8 10.1z"/>
            <path id="Vector 31" fill="url(#paint38_linear)" d="M438.9 411l-17.5 1.5A9.4 9.4 0 01411 404a9.4 9.4 0 018.7-10.1l17.6-1.5a9.4 9.4 0 0110.2 8.6 9.4 9.4 0 01-8.7 10z"/>
            <path id="Vector 32" fill="url(#paint39_linear)" d="M392.1 414.9l-17.5 1.4a9.4 9.4 0 01-10.2-8.5 9.4 9.4 0 018.7-10l17.5-1.5a9.4 9.4 0 0110.2 8.5 9.4 9.4 0 01-8.7 10z"/>
            <path id="Vector 33" fill="url(#paint40_linear)" d="M345.4 418.7l-17.6 1.4a9.4 9.4 0 01-10.2-8.5 9.4 9.4 0 018.7-10l17.5-1.5a9.4 9.4 0 0110.3 8.5 9.4 9.4 0 01-8.7 10.1z"/>
          </g>
          <g id="Group 2">
            <path id="Vector 34" fill="url(#paint41_linear)" d="M722.4 711.4l-17.6 1.4a9.4 9.4 0 01-10.2-8.5 9.4 9.4 0 018.7-10l17.6-1.5a9.4 9.4 0 0110.2 8.5 9.4 9.4 0 01-8.7 10.1z"/>
            <path id="Vector 35" fill="url(#paint42_linear)" d="M675.6 715.2l-17.5 1.5a9.4 9.4 0 01-10.3-8.6 9.4 9.4 0 018.8-10l17.5-1.5a9.4 9.4 0 0110.2 8.6 9.4 9.4 0 01-8.7 10z"/>
            <path id="Vector 36" fill="url(#paint43_linear)" d="M628.9 719l-17.6 1.5a9.4 9.4 0 01-10.2-8.5 9.4 9.4 0 018.7-10.1l17.5-1.4a9.4 9.4 0 0110.3 8.5 9.4 9.4 0 01-8.7 10z"/>
            <path id="Vector 37" fill="url(#paint44_linear)" d="M582.1 722.9l-17.5 1.4a9.4 9.4 0 01-10.3-8.5 9.4 9.4 0 018.7-10l17.6-1.5a9.4 9.4 0 0110.2 8.5 9.4 9.4 0 01-8.7 10.1z"/>
            <path id="Vector 38" fill="url(#paint45_linear)" d="M535.3 726.7l-17.5 1.5a9.4 9.4 0 01-10.2-8.6 9.4 9.4 0 018.7-10l17.5-1.5a9.4 9.4 0 0110.3 8.5 9.4 9.4 0 01-8.8 10.1z"/>
            <path id="Vector 39" fill="url(#paint46_linear)" d="M488.6 730.6L471 732a9.4 9.4 0 01-10.3-8.5 9.4 9.4 0 018.7-10.1l17.6-1.5a9.4 9.4 0 0110.2 8.6 9.4 9.4 0 01-8.7 10z"/>
            <path id="Vector 40" fill="url(#paint47_linear)" d="M441.8 734.4l-17.5 1.4a9.4 9.4 0 01-10.2-8.5 9.4 9.4 0 018.7-10.1l17.5-1.4a9.4 9.4 0 0110.2 8.5 9.4 9.4 0 01-8.7 10z"/>
          </g>
          <g id="Vector 41">
            <path id="Vector_19" fill="url(#paint48_linear)" d="M354 437.8a8.4 8.4 0 00-6.7-2.5l-12.1 1c-4.6.4-8 4.3-7.7 8.9l2.3 27.3a8.1 8.1 0 003.6 6.1l63 52.6c1.7 1.7 4.1 2.7 6.7 2.5l12-1c4.7-.4 8.1-4.4 7.8-8.9l-2.3-27.4a8.1 8.1 0 00-3.6-6l-63-52.6z"/>
          </g>
          <path id="Vector 42" fill="url(#paint49_linear)" d="M343.2 473.2l-12 1c-4.7.3-8.7-3-9-7.6l-2.3-27.3c-.4-4.6 3-8.5 7.6-8.9l12.1-1c4.6-.4 8.6 3 9 7.5l2.3 27.4c.3 4.5-3.1 8.5-7.7 8.9z"/>
          <g id="Vector 43">
            <path id="Vector_20" fill="url(#paint50_linear)" d="M442.4 743.2a8.4 8.4 0 00-6.7-2.5l-12 1c-4.7.4-8.1 4.3-7.7 8.8l2.2 27.4a8.1 8.1 0 003.6 6l63 52.6c1.8 1.7 4.1 2.7 6.7 2.5l12.1-1c4.6-.3 8-4.3 7.7-8.8l-2.3-27.4a8.1 8.1 0 00-3.6-6l-63-52.6z"/>
          </g>
          <path id="Vector 44" fill="url(#paint51_linear)" d="M439.3 784.4l-12 1c-4.7.4-8.7-3-9.1-7.5l-2.2-27.4c-.4-4.5 3-8.4 7.6-8.8l12.1-1c4.6-.4 8.6 3 9 7.5l2.3 27.4c.3 4.5-3.1 8.4-7.7 8.8z"/>
          <path id="Vector 45" fill="url(#paint52_linear)" d="M375.5 94.4l1.9 23a17 17 0 0018.5 15.4l36.3-3c7-.5 13-5.3 15-12s8-11.5 15.1-12l120-10c7.2-.5 13.9 3.3 17 9.5 3 6.3 9.7 10 16.8 9.5l36.3-3A17 17 0 00668 93.6l-1.9-23a35.4 35.4 0 00-38.4-32l-219.6 18a35.4 35.4 0 00-32.7 37.8z"/>
        </g>
        <g id="Group 167">
          <path id="Vector 46" fill="url(#paint53_linear)" d="M1035 709.3L881.5 1036c-5 10.6-17.8 15-28.6 10l-212.1-98.2a21.3 21.3 0 01-10.7-28.2L783.6 593c5-10.5 17.8-15 28.6-10l212 98.2a21.3 21.3 0 0110.7 28.2z"/>
          <path id="Vector 47" fill="url(#paint54_linear)" d="M1003 671.2L887.6 1023 1029 722l-26-50.8z"/>
          <g id="Vector 48">
            <g id="Group_8">
              <path id="Vector_21" fill="url(#paint55_linear)" d="M1002.2 681l-114.6 342c-3.7 11.1-15.9 17-27.2 13.2L638.7 962a21.4 21.4 0 01-13.8-27l114.6-342c3.7-11 15.9-17 27.2-13.1L988.4 654a21.4 21.4 0 0113.8 27z"/>
              <path id="Vector_22" fill="url(#paint56_linear)" d="M1002.2 681l-114.6 342c-3.7 11.1-15.9 17-27.2 13.2L638.7 962a21.4 21.4 0 01-13.8-27l114.6-342c3.7-11 15.9-17 27.2-13.1L988.4 654a21.4 21.4 0 0113.8 27z"/>
            </g>
            <g id="Group_9">
              <g id="Group_10">
                <path id="Vector_23" fill="#fff" d="M748.4 679.4c-2.2-.6-3.2-1.6-2.8-2.8l10.6-35.7c.2-.8.5-1.3 1-1.6.5-.2 1.1-.2 2 0l9.7 3c3 .8 5.4 2.4 7.1 4.8 1.8 2.4 2 6 .6 10.9-1 3.3-2.5 5.7-4.3 7.2a10.3 10.3 0 01-5.5 2.3 13 13 0 01-4.7-.3l-3.9-1.2-4 13.2c-.3 1.2-1.6 1.5-3.8.8l-2-.6zm15-19.8a3 3 0 002.5-.5c.9-.5 1.6-1.8 2.2-3.6.5-2 .6-3.3.2-4.2a3 3 0 00-2-1.8l-3-.9-3 10.1 3 .9z"/>
              </g>
              <g id="Group_11">
                <path id="Vector_24" fill="#fff" d="M768.7 685.4c-1.9-.5-2.6-1.2-2.4-2 0-.3.3-.6.5-1l19.4-33.4c.6-1 1.9-1.2 4-.6l3.6 1c2.1.7 3.1 1.6 3 2.7l-1.9 38.7-.2 1c-.2.9-1.2 1-2.8.5l-3-.9c-1.8-.5-2.7-1.2-2.7-2l.6-7.4-8.6-2.6-3.6 6.5c-.4.7-1.3.9-3 .4l-3-.9zm19.2-10.6l1-12.8.6-4.5h-.3c-.6 1.4-1.2 2.8-2 4l-6 11.3 6.7 2z"/>
              </g>
              <g id="Group_12">
                <path id="Vector_25" fill="#fff" d="M804.9 696.6a19 19 0 01-5.3-2.5 8.4 8.4 0 01-3.3-3.4c-.3-.8-.3-1.6-.1-2.2.3-1 1-2 1.8-3 .9-.9 1.7-1.3 2.4-1 .2 0 .7.3 1.3 1l1.1 1.1c1.3 1.2 2.5 2 3.6 2.3 1.2.4 2.4.4 3.4.1 1.1-.3 1.9-1.1 2.3-2.5.4-1.4.3-2.6-.3-3.8-.6-1-1.7-2.3-3.3-3.8a21 21 0 01-4.7-7c-.8-2-.8-4.5 0-7.4.8-2.3 1.9-4.2 3.4-5.6 1.5-1.4 3.3-2.3 5.4-2.7 2-.4 4.2-.3 6.5.4a15.7 15.7 0 016.9 4.3c.5.7.7 1.4.4 2.3-.3 1-.8 2-1.5 2.9-.8 1-1.6 1.3-2.2 1.2a7 7 0 01-1.5-1c-1.3-1-2.5-1.6-3.4-2-1.6-.4-2.8-.4-3.6.1-.8.5-1.3 1.2-1.6 2-.4 1.4-.3 2.6.2 3.5.5 1 1.4 2 2.8 3.3l1.3 1.3c2.1 2.3 3.5 4.4 4.2 6.5.6 2.1.5 4.5-.3 7.4-.7 2-1.7 4-3.1 5.4a10.7 10.7 0 01-5.5 3.2 14 14 0 01-7.3-.4z"/>
              </g>
              <g id="Group_13">
                <path id="Vector_26" fill="#fff" d="M828.5 703.6a19 19 0 01-5.2-2.5 8.4 8.4 0 01-3.3-3.4c-.3-.8-.4-1.6-.2-2.2.3-1 1-2 1.8-3 1-.9 1.7-1.3 2.4-1 .3 0 .7.3 1.3 1l1.2 1.2c1.2 1.1 2.4 2 3.5 2.2 1.2.4 2.4.4 3.5.1 1-.3 1.8-1 2.2-2.4.4-1.5.3-2.7-.3-3.8-.6-1-1.7-2.4-3.3-4a21 21 0 01-4.7-6.8c-.8-2.1-.8-4.6.1-7.5.7-2.3 1.8-4.1 3.3-5.6a11 11 0 015.5-2.7c2-.4 4.2-.2 6.5.4a15.7 15.7 0 016.8 4.3c.5.7.7 1.4.4 2.3-.3 1-.8 2-1.5 3-.8.9-1.5 1.3-2.1 1a7 7 0 01-1.6-.9c-1.3-1-2.4-1.6-3.4-2-1.6-.4-2.8-.4-3.5.1-.8.5-1.4 1.2-1.6 2.1-.4 1.4-.4 2.5.2 3.4.5 1 1.4 2 2.7 3.3l1.3 1.3c2.2 2.3 3.6 4.4 4.2 6.5.6 2.1.5 4.6-.3 7.4-.6 2.1-1.7 4-3.1 5.4a10.7 10.7 0 01-5.4 3.2 14 14 0 01-7.4-.4z"/>
              </g>
              <g id="Group_14">
                <path id="Vector_27" fill="#fff" d="M847.1 708.7c-2.3-.7-3.2-1.6-2.9-2.8l10.6-35.7c.3-.8.6-1.3 1.1-1.6.5-.2 1-.2 1.9 0l9.8 3c3 .8 5.3 2.4 7.1 4.8 1.8 2.4 2 6 .5 10.9-1 3.3-2.4 5.7-4.3 7.2a10.4 10.4 0 01-5.5 2.3 13 13 0 01-4.6-.3l-4-1.2-3.8 13.2c-.4 1.2-1.7 1.5-4 .8l-1.9-.6zM862 689a3 3 0 002.6-.5c.8-.5 1.6-1.8 2.1-3.6.6-2 .6-3.3.2-4.2a3 3 0 00-2-1.8l-3-.9-3 10.1 3 .9z"/>
              </g>
              <g id="Group_15">
                <path id="Vector_28" fill="#fff" d="M883.7 720c-10-3-12.9-11.2-8.9-24.8 4-13.5 11-18.8 21-15.8 4.7 1.4 8 4.1 9.5 8.2 1.5 4 1.3 9.5-.8 16.4-2 7-4.8 11.8-8.3 14.3-3.5 2.5-7.7 3-12.5 1.6zm2.2-7.5a5 5 0 003.7-.1c1-.5 2-1.7 3-3.4 1-1.8 2-4.3 3-7.6s1.5-6 1.6-8c.2-2 0-3.4-.7-4.4a5 5 0 00-3-2.1 5 5 0 00-3.6.1c-1 .5-2.1 1.6-3 3.4-1 1.7-2 4.2-3 7.5s-1.6 6-1.7 8c-.1 2 .2 3.5.8 4.5a5 5 0 003 2.1z"/>
              </g>
              <g id="Group_16">
                <path id="Vector_29" fill="#fff" d="M906 726.2c-2.2-.7-3.2-1.6-2.8-2.8l10.6-35.7c.2-.8.6-1.3 1-1.6.5-.2 1.1-.2 2 0l9.4 2.8c3.5 1 6 2.7 7.6 5 1.6 2.4 1.8 5.6.6 9.6-1.3 4.4-4 7-8.2 8v.2c.7.7 1.2 1.7 1.5 3 .4 1.2.6 2.5.6 3.8v12.6c-.3 1-1.6 1.2-4 .5l-2-.6c-1.9-.6-2.9-1.4-2.9-2.5l.2-11.7c0-1-.3-1.6-.6-2-.3-.6-1-1-2-1.2l-1.3-.4L912 726c-.3 1.2-1.7 1.5-4 .8l-1.9-.6zm15.3-20.4c.9.3 1.7.1 2.6-.6.8-.6 1.4-1.7 1.9-3.3.5-1.6.5-2.9.2-3.8a3 3 0 00-2-1.8l-3-.9-2.8 9.5 3.1 1z"/>
              </g>
              <g id="Group_17">
                <path id="Vector_30" fill="#fff" d="M939.2 736c-2.2-.6-3.1-1.5-2.7-2.7l9-30.6-6.3-1.8c-.5-.2-.9-.6-1-1-.2-.6 0-1.4.2-2.4l.6-1.7c.2-1 .6-1.7 1-2 .4-.4.9-.5 1.4-.4l21.6 6.4c.6.2 1 .6 1 1.1.2.5.1 1.3-.2 2.3l-.5 1.7c-.3 1-.6 1.7-1 2-.4.4-.9.5-1.5.4l-6.4-2-9 30.6c-.4 1.2-1.7 1.5-3.9.9l-2.3-.7z"/>
              </g>
            </g>
          </g>
          <path id="Vector 49" fill="url(#paint57_linear)" d="M893 1007l-5.4 16c-3.7 11.1-15.9 17-27.2 13.2l-221.7-74.3a21.4 21.4 0 01-13.8-26.9l5.4-16 262.7 88z"/>
          <g id="Group 3" fill="#FFF2E8">
            <path id="Vector 50" d="M909.5 795.4c-.7-6-8.3-8.4-10.8-9.1-2.4-.8-5.2-1.4-8.5-2a76 76 0 012.7 8.8c2.9.7 4.8 1.3 6.2 2 1.1.4 1.3 2 .3 2.7a32.5 32.5 0 01-7 3.7 75 75 0 00-51-61.2 74 74 0 00-94.1 45.6 71.5 71.5 0 00-3 32.3 84 84 0 01-14.2-3.3c-1.2-.5-1.4-2-.4-2.8 2-1.3 5.6-3.3 11.8-5.5 0-3 .3-6 .8-9-6 2-10.7 4-14.3 6-2.3 1.2-9.1 5-8.4 11 .6 5.2 6.5 7.7 9.6 8.7l1.2.4a79 79 0 0015.5 2.9c6 23.6 23.9 43.9 49.1 52.4a74 74 0 0094.2-45.6 71.4 71.4 0 003.7-23.3l2.2-.8c2.3-1 4.3-2 6-2.9 1.8-1 6.7-3.7 8.1-7.9.3-1 .5-2 .3-3.1zM854.3 753a68.9 68.9 0 0124.8 26.7 79 79 0 01-20.3.3c0-3.6-.1-7-.4-10.3a52.7 52.7 0 00-4.1-16.7zM791 804.2l34.9 11.7v.3a553.7 553.7 0 01-38.8 3.1c1-5 2.3-10 3.9-15.1zm37 .3c-1.8-.9-3.8.5-3.5 2.4l.2 1.2-31.5-10.5a136 136 0 0112.9-26.7 141.4 141.4 0 0045.2 15.2 135 135 0 01-5.5 28.2l-17.9-9.8zm-11 20.9c3.4-.4 6.8-.7 10.1-1.2l1.4 9a2.4 2.4 0 004 1.3l9.6-9.5c-3.3 8.6-7.3 16.5-11.6 23.4a141.6 141.6 0 00-45.3-15.2l.6-5.6c10-.4 20.4-1.1 31.2-2.2zm22.3-78.5c6.4 2.2 10.7 10.7 12 23.4.3 2.8.4 5.7.4 8.8a132.4 132.4 0 01-41.7-14c1.8-2.4 3.7-4.7 5.6-6.8 8.7-9.4 17.3-13.5 23.7-11.4zm-15.6-4.2c-4.4 2.4-9 6-13.4 10.9a89.7 89.7 0 00-6.5 8c-6.2-3.8-11.6-8-16.1-12.5a69 69 0 0136-6.4zM780 753.4l1.3-.8.9 1c5 4.9 11 9.5 17.7 13.7a130.4 130.4 0 00-13.5 28l-32-10.7a65.8 65.8 0 0125.6-31.2zm-29.3 44.4l1.5-6.6 32 10.7c-1.8 6-3.3 11.9-4.4 17.7a301 301 0 01-29.2-.7c-1.1-7-1.1-14 0-21zm3.7 35.1c-.8-1.9-1.4-3.8-2-5.7 7.8.5 16.7.7 26.2.6l-.5 4.5a107.1 107.1 0 00-22.4.4l-1.3.2zm3 6.6c6.3-.8 13.2-.9 20.4-.2-.1 3.6 0 7 .4 10.3.6 6.5 2 12.2 4 16.7a69 69 0 01-24.8-26.8zm39.8 32.9c-6.3-2.2-10.7-10.7-12-23.4a82 82 0 01-.3-8.8 134.9 134.9 0 0141.6 14 82.6 82.6 0 01-5.6 6.8c-8.6 9.3-17.3 13.5-23.7 11.4zm15.6 4.2c4.4-2.4 9-6 13.4-11a88 88 0 006.5-7.9c6.2 3.8 11.6 8 16.1 12.5a69 69 0 01-36 6.4zm42.4-10l-.9-.8c-4.9-5-10.9-9.7-17.7-13.9 5.2-8.2 9.8-17.7 13.5-28l32 10.8a65.8 65.8 0 01-26.9 32zm29.2-38.5l-32-10.7a143 143 0 006-30.5 95.5 95.5 0 0023.7-.5 67 67 0 014.3 17.4c-2.8 1-6.1 2-10 3-6.6 1.8-2.2 1-10.2 2.5a4 4 0 00-3.2 4.8 4.2 4.2 0 005 3.2c9.2-1.7 6-1.2 13.4-3.4l5.3-1.6c-.1 5.3-.9 10.6-2.3 15.8z"/>
            <path id="Vector 59" d="M741.2 918.5l63.5 21.3a4 4 0 012.6 5l-2.3 7a4 4 0 01-5.1 2.5L736.3 933a4 4 0 01-2.6-5l2.4-7a4 4 0 015.1-2.5z"/>
            <path id="Vector 60" d="M724 881.4l116.8 39.2c1.8.6 2.8 2.5 2.2 4.3l-2.7 8a3.5 3.5 0 01-4.4 2.2L719.1 896a3.5 3.5 0 01-2.2-4.4l2.7-8a3.5 3.5 0 014.4-2.2z"/>
          </g>
        </g>
      </g>
    </g>
  </g>
  <defs>
    <linearGradient id="paint0_linear" x1="226.3" x2="127.8" y1="399.6" y2="289.8" gradientUnits="userSpaceOnUse">
      <stop stop-color="#00C6E1"/>
      <stop offset="1" stop-color="#48CBFF"/>
    </linearGradient>
    <linearGradient id="paint1_linear" x1="226.3" x2="127.8" y1="399.6" y2="289.8" gradientUnits="userSpaceOnUse">
      <stop stop-color="#00C6E1"/>
      <stop offset="1" stop-color="#48CBFF"/>
    </linearGradient>
    <linearGradient id="paint2_linear" x1="131.5" x2="69.5" y1="134.9" y2="192.3" gradientUnits="userSpaceOnUse">
      <stop stop-color="#BAEC79"/>
      <stop offset="1" stop-color="#70DB33"/>
    </linearGradient>
    <linearGradient id="paint3_linear" x1="178.3" x2="179.3" y1="168.3" y2="140.4" gradientUnits="userSpaceOnUse">
      <stop stop-color="#BAEC79"/>
      <stop offset="1" stop-color="#70DB33"/>
    </linearGradient>
    <linearGradient id="paint4_linear" x1="264" x2="190.1" y1="315.8" y2="384.3" gradientUnits="userSpaceOnUse">
      <stop stop-color="#BAEC79"/>
      <stop offset="1" stop-color="#70DB33"/>
    </linearGradient>
    <linearGradient id="paint5_linear" x1="335.8" x2="232" y1="161.3" y2="247.6" gradientUnits="userSpaceOnUse">
      <stop stop-color="#BAEC79"/>
      <stop offset="1" stop-color="#70DB33"/>
    </linearGradient>
    <linearGradient id="paint6_linear" x1="283.4" x2="191.1" y1="336.8" y2="234.6" gradientUnits="userSpaceOnUse">
      <stop stop-color="#8C296C"/>
      <stop offset="1" stop-color="#B23489"/>
    </linearGradient>
    <linearGradient id="paint7_linear" x1="257.3" x2="260.2" y1="352.8" y2="365.9" gradientUnits="userSpaceOnUse">
      <stop stop-color="#00A6BD"/>
      <stop offset="1" stop-color="#0096D1"/>
    </linearGradient>
    <linearGradient id="paint8_linear" x1="245.1" x2="238.1" y1="381.2" y2="373.6" gradientUnits="userSpaceOnUse">
      <stop stop-color="#00A6BD"/>
      <stop offset="1" stop-color="#0096D1"/>
    </linearGradient>
    <linearGradient id="paint9_linear" x1="-85.8" x2="-37" y1="400.5" y2="462.8" gradientUnits="userSpaceOnUse">
      <stop stop-color="#8C296C"/>
      <stop offset="1" stop-color="#3B112E"/>
    </linearGradient>
    <linearGradient id="paint10_linear" x1="287.3" x2="336.2" y1="369.9" y2="432.2" gradientUnits="userSpaceOnUse">
      <stop stop-color="#EB4CB7"/>
      <stop offset="1" stop-color="#3B112E"/>
    </linearGradient>
    <linearGradient id="paint11_linear" x1="235.6" x2="306.6" y1="168.9" y2="229.8" gradientUnits="userSpaceOnUse">
      <stop stop-color="#8C296C"/>
      <stop offset="1" stop-color="#631D4C"/>
    </linearGradient>
    <linearGradient id="paint12_linear" x1="380.8" x2="348.9" y1="275.8" y2="248.3" gradientUnits="userSpaceOnUse">
      <stop stop-color="#8C296C" stop-opacity="0"/>
      <stop offset="1" stop-color="#3B112E"/>
    </linearGradient>
    <linearGradient id="paint13_linear" x1="350.2" x2="353" y1="250.7" y2="284.1" gradientUnits="userSpaceOnUse">
      <stop stop-color="#FFEA45"/>
      <stop offset="1" stop-color="#EA960F"/>
    </linearGradient>
    <linearGradient id="paint14_linear" x1="601.8" x2="672.8" y1="138.9" y2="199.8" gradientUnits="userSpaceOnUse">
      <stop stop-color="#8C296C"/>
      <stop offset="1" stop-color="#631D4C"/>
    </linearGradient>
    <linearGradient id="paint15_linear" x1="747" x2="715.2" y1="245.8" y2="218.3" gradientUnits="userSpaceOnUse">
      <stop stop-color="#8C296C" stop-opacity="0"/>
      <stop offset="1" stop-color="#3B112E"/>
    </linearGradient>
    <linearGradient id="paint16_linear" x1="716.5" x2="719.2" y1="220.7" y2="254.1" gradientUnits="userSpaceOnUse">
      <stop stop-color="#FFEA45"/>
      <stop offset="1" stop-color="#EA960F"/>
    </linearGradient>
    <linearGradient id="paint17_linear" x1="404.4" x2="437.1" y1="218.2" y2="216.8" gradientUnits="userSpaceOnUse">
      <stop stop-color="#E7F1FD"/>
      <stop offset="1" stop-color="#B2C7D8"/>
    </linearGradient>
    <linearGradient id="paint18_linear" x1="463.1" x2="400.6" y1="161.5" y2="107.5" gradientUnits="userSpaceOnUse">
      <stop stop-color="#B2C7D8" stop-opacity="0"/>
      <stop offset="1" stop-color="#879FAF"/>
    </linearGradient>
    <linearGradient id="paint19_linear" x1="625.3" x2="664.5" y1="196.7" y2="194.2" gradientUnits="userSpaceOnUse">
      <stop stop-color="#E7F1FD"/>
      <stop offset="1" stop-color="#B2C7D8"/>
    </linearGradient>
    <linearGradient id="paint20_linear" x1="686.4" x2="623.9" y1="143.2" y2="89.2" gradientUnits="userSpaceOnUse">
      <stop stop-color="#B2C7D8" stop-opacity="0"/>
      <stop offset="1" stop-color="#879FAF"/>
    </linearGradient>
    <linearGradient id="paint21_linear" x1="876.7" x2="253.1" y1="595.4" y2="646.5" gradientUnits="userSpaceOnUse">
      <stop stop-color="#F4B100"/>
      <stop offset="1" stop-color="#FFD911"/>
    </linearGradient>
    <linearGradient id="paint22_linear" x1="571.2" x2="593" y1="697.4" y2="964.3" gradientUnits="userSpaceOnUse">
      <stop stop-color="#8C296C"/>
      <stop offset="1" stop-color="#3B112E"/>
    </linearGradient>
    <linearGradient id="paint23_linear" x1="269" x2="860.8" y1="645.2" y2="596.7" gradientUnits="userSpaceOnUse">
      <stop stop-color="#FFED4A"/>
      <stop offset="1" stop-color="#FFB800"/>
    </linearGradient>
    <linearGradient id="paint24_linear" x1="556.7" x2="567.6" y1="520.8" y2="653.8" gradientUnits="userSpaceOnUse">
      <stop stop-color="#D53932" stop-opacity="0"/>
      <stop offset="1" stop-color="#7E1416" stop-opacity=".6"/>
    </linearGradient>
    <linearGradient id="paint25_linear" x1="220.6" x2="1044.4" y1="695.6" y2="905.7" gradientUnits="userSpaceOnUse">
      <stop stop-color="#8C296C"/>
      <stop offset="1" stop-color="#3B112E"/>
    </linearGradient>
    <linearGradient id="paint26_linear" x1="583.3" x2="598" y1="844.7" y2="1024.9" gradientUnits="userSpaceOnUse">
      <stop stop-color="#8C296C" stop-opacity="0"/>
      <stop offset="1" stop-color="#631D4C"/>
    </linearGradient>
    <linearGradient id="paint27_linear" x1="786.2" x2="509.3" y1="961.8" y2="722.5" gradientUnits="userSpaceOnUse">
      <stop stop-color="#8C296C" stop-opacity="0"/>
      <stop offset="1" stop-color="#14060F"/>
    </linearGradient>
    <linearGradient id="paint28_linear" x1="574.8" x2="586.9" y1="741.6" y2="889.1" gradientUnits="userSpaceOnUse">
      <stop stop-color="#A63F85"/>
      <stop offset="1" stop-color="#862767"/>
    </linearGradient>
    <linearGradient id="paint29_linear" x1="735.1" x2="439.3" y1="919.2" y2="663.6" gradientUnits="userSpaceOnUse">
      <stop stop-color="#8C296C" stop-opacity="0"/>
      <stop offset="1" stop-color="#3B112E"/>
    </linearGradient>
    <linearGradient id="paint30_linear" x1="572.9" x2="581.2" y1="718.5" y2="819.9" gradientUnits="userSpaceOnUse">
      <stop stop-color="#FFE843"/>
      <stop offset="1" stop-color="#FA9400"/>
    </linearGradient>
    <linearGradient id="paint31_linear" x1="755.9" x2="757.4" y1="366.4" y2="385" gradientUnits="userSpaceOnUse">
      <stop stop-color="#8C296C"/>
      <stop offset="1" stop-color="#592649"/>
    </linearGradient>
    <linearGradient id="paint32_linear" x1="709.2" x2="710.7" y1="370.2" y2="388.8" gradientUnits="userSpaceOnUse">
      <stop stop-color="#8C296C"/>
      <stop offset="1" stop-color="#592649"/>
    </linearGradient>
    <linearGradient id="paint33_linear" x1="662.4" x2="663.9" y1="374" y2="392.6" gradientUnits="userSpaceOnUse">
      <stop stop-color="#8C296C"/>
      <stop offset="1" stop-color="#631D4C"/>
    </linearGradient>
    <linearGradient id="paint34_linear" x1="615.6" x2="617.1" y1="377.9" y2="396.5" gradientUnits="userSpaceOnUse">
      <stop stop-color="#8C296C"/>
      <stop offset="1" stop-color="#592649"/>
    </linearGradient>
    <linearGradient id="paint35_linear" x1="568.9" x2="570.4" y1="381.7" y2="400.3" gradientUnits="userSpaceOnUse">
      <stop stop-color="#8C296C"/>
      <stop offset="1" stop-color="#592649"/>
    </linearGradient>
    <linearGradient id="paint36_linear" x1="522.1" x2="523.6" y1="385.5" y2="404.1" gradientUnits="userSpaceOnUse">
      <stop stop-color="#8C296C"/>
      <stop offset="1" stop-color="#631D4C"/>
    </linearGradient>
    <linearGradient id="paint37_linear" x1="475.3" x2="476.9" y1="389.3" y2="408" gradientUnits="userSpaceOnUse">
      <stop stop-color="#8C296C"/>
      <stop offset="1" stop-color="#592649"/>
    </linearGradient>
    <linearGradient id="paint38_linear" x1="428.6" x2="430.1" y1="393.2" y2="411.8" gradientUnits="userSpaceOnUse">
      <stop stop-color="#8C296C"/>
      <stop offset="1" stop-color="#592649"/>
    </linearGradient>
    <linearGradient id="paint39_linear" x1="381.8" x2="383.4" y1="397" y2="415.6" gradientUnits="userSpaceOnUse">
      <stop stop-color="#8C296C"/>
      <stop offset="1" stop-color="#592649"/>
    </linearGradient>
    <linearGradient id="paint40_linear" x1="335.1" x2="336.6" y1="400.8" y2="419.4" gradientUnits="userSpaceOnUse">
      <stop stop-color="#8C296C"/>
      <stop offset="1" stop-color="#592649"/>
    </linearGradient>
    <linearGradient id="paint41_linear" x1="694.6" x2="731.1" y1="704.3" y2="701.3" gradientUnits="userSpaceOnUse">
      <stop stop-color="#FFED4A"/>
      <stop offset="1" stop-color="#FFB800"/>
    </linearGradient>
    <linearGradient id="paint42_linear" x1="647.8" x2="684.3" y1="708.1" y2="705.2" gradientUnits="userSpaceOnUse">
      <stop stop-color="#FFED4A"/>
      <stop offset="1" stop-color="#FFB800"/>
    </linearGradient>
    <linearGradient id="paint43_linear" x1="601.1" x2="637.6" y1="712" y2="709" gradientUnits="userSpaceOnUse">
      <stop stop-color="#FFED4A"/>
      <stop offset="1" stop-color="#FFB800"/>
    </linearGradient>
    <linearGradient id="paint44_linear" x1="554.3" x2="590.8" y1="715.8" y2="712.8" gradientUnits="userSpaceOnUse">
      <stop stop-color="#FFED4A"/>
      <stop offset="1" stop-color="#FFB800"/>
    </linearGradient>
    <linearGradient id="paint45_linear" x1="507.6" x2="544.1" y1="719.6" y2="716.6" gradientUnits="userSpaceOnUse">
      <stop stop-color="#FFED4A"/>
      <stop offset="1" stop-color="#FFB800"/>
    </linearGradient>
    <linearGradient id="paint46_linear" x1="460.8" x2="497.3" y1="723.5" y2="720.5" gradientUnits="userSpaceOnUse">
      <stop stop-color="#FFED4A"/>
      <stop offset="1" stop-color="#FFB800"/>
    </linearGradient>
    <linearGradient id="paint47_linear" x1="414.1" x2="450.5" y1="727.3" y2="724.3" gradientUnits="userSpaceOnUse">
      <stop stop-color="#FFED4A"/>
      <stop offset="1" stop-color="#FFB800"/>
    </linearGradient>
    <linearGradient id="paint48_linear" x1="375.2" x2="328.4" y1="484.5" y2="444.1" gradientUnits="userSpaceOnUse">
      <stop stop-color="#D53932" stop-opacity="0"/>
      <stop offset="1" stop-color="#7E1416"/>
    </linearGradient>
    <linearGradient id="paint49_linear" x1="331.3" x2="342.9" y1="428.9" y2="495.2" gradientUnits="userSpaceOnUse">
      <stop stop-color="#A73F85"/>
      <stop offset="1" stop-color="#4F173D"/>
    </linearGradient>
    <linearGradient id="paint50_linear" x1="463.7" x2="416.9" y1="789.9" y2="749.5" gradientUnits="userSpaceOnUse">
      <stop stop-color="#8C296C" stop-opacity="0"/>
      <stop offset="1" stop-color="#8C296C"/>
    </linearGradient>
    <linearGradient id="paint51_linear" x1="417.1" x2="445.8" y1="764.2" y2="761.9" gradientUnits="userSpaceOnUse">
      <stop stop-color="#FFED4A"/>
      <stop offset="1" stop-color="#FFB800"/>
    </linearGradient>
    <linearGradient id="paint52_linear" x1="520" x2="525.3" y1="72" y2="137.1" gradientUnits="userSpaceOnUse">
      <stop stop-color="#8C296C"/>
      <stop offset="1" stop-color="#3B112E"/>
    </linearGradient>
    <linearGradient id="paint53_linear" x1="682.2" x2="983" y1="764" y2="864.8" gradientUnits="userSpaceOnUse">
      <stop stop-color="#FFCF42"/>
      <stop offset="1" stop-color="#FFB500"/>
    </linearGradient>
    <linearGradient id="paint54_linear" x1="964.2" x2="893.6" y1="858.9" y2="814.1" gradientUnits="userSpaceOnUse">
      <stop stop-color="#FFB500" stop-opacity="0"/>
      <stop offset="1" stop-color="#FF7000"/>
    </linearGradient>
    <linearGradient id="paint55_linear" x1="743.5" x2="1162.6" y1="784.6" y2="925" gradientUnits="userSpaceOnUse">
      <stop stop-color="#FF4C4A"/>
      <stop offset="1" stop-color="#FF001C"/>
    </linearGradient>
    <linearGradient id="paint56_linear" x1="743.5" x2="1162.6" y1="784.6" y2="925" gradientUnits="userSpaceOnUse">
      <stop stop-color="#FF4C4A"/>
      <stop offset="1" stop-color="#FF001C"/>
    </linearGradient>
    <linearGradient id="paint57_linear" x1="757.2" x2="748.3" y1="976.3" y2="1002.7" gradientUnits="userSpaceOnUse">
      <stop stop-color="#FF001C" stop-opacity="0"/>
      <stop offset="1" stop-color="#C1001C"/>
    </linearGradient>
  </defs>
</svg>
