<svg width="169" height="170" viewBox="0 0 169 170" fill="none" xmlns="http://www.w3.org/2000/svg">
<g id="panties" clip-path="url(#clip0)">
<g id="Group">
<g id="Group_2">
<path id="Vector" d="M5.12982 63.0359C5.12982 63.0359 51.6916 82.1751 74.6234 125.149C74.6234 125.149 70.4384 64.6441 5.12982 63.0359V63.0359Z" fill="url(#paint0_radial)"/>
<path id="Vector_2" d="M163.868 63.0335C163.868 63.0335 117.307 82.1759 94.3785 125.151C94.3785 125.151 98.5593 64.6462 163.868 63.0335V63.0335Z" fill="url(#paint1_radial)"/>
</g>
<path id="Vector_3" d="M168.995 58.4931C169.019 59.1181 168.885 59.7231 168.619 60.2797C167.994 61.5868 163.31 63.3971 162.518 63.6028C149.644 66.9469 135.752 73.8546 123.429 83.7647C106.63 97.2702 96.7624 113.117 95.6101 126.045C95.5545 126.669 95.214 127.253 94.6639 127.695C92.4406 129.483 76.5629 129.483 74.3391 127.696C73.7889 127.254 73.4484 126.67 73.3928 126.046C72.2396 113.117 62.3705 97.2717 45.5713 83.7673C33.2251 73.8403 19.3049 66.9264 6.40986 63.59C5.64187 63.3915 1.00431 61.5925 0.379257 60.2855C0.112904 59.7289 -0.0204628 59.1239 0.00340375 58.4989C0.110982 55.7133 0.913802 52.6805 2.4443 49.2345L3.03825 47.8971L165.96 47.8915L166.553 49.2288C168.084 52.6747 168.887 55.7074 168.995 58.4931Z" fill="url(#paint2_linear)"/>
<g id="Vector_4" filter="url(#filter0_f)">
<path d="M165.957 47.8926L84.4967 47.8954L84.4995 129.037C89.0247 129.037 93.5502 128.59 94.6619 127.696C95.212 127.254 95.5525 126.67 95.6081 126.046C96.7603 113.117 106.628 97.2709 123.427 83.7654C135.75 73.8557 149.641 66.948 162.516 63.6036C163.308 63.3978 167.992 61.5875 168.617 60.2804C168.883 59.7238 169.017 59.1188 168.993 58.4938C168.885 55.7082 168.082 52.6755 166.551 49.2296L165.957 47.8926Z" fill="url(#paint3_linear)"/>
</g>
<path id="Vector_5" d="M84.4968 56.3981C129.639 56.3965 166.234 52.743 166.233 48.2377C166.233 43.7323 129.638 40.0813 84.4963 40.0829C39.3543 40.0844 2.75959 43.738 2.75974 48.2433C2.7599 52.7486 39.3548 56.3997 84.4968 56.3981Z" fill="url(#paint4_linear)"/>
</g>
<g id="Group_3" filter="url(#filter1_d)">
<path id="Vector_6" d="M82.7906 59.4926L80.6015 67.7977C80.515 68.1259 80.1684 68.312 79.847 68.2028L76.9556 67.2203C76.5939 67.0974 76.4449 66.6666 76.6534 66.3465L81.1166 59.4926H82.7906Z" fill="url(#paint5_linear)"/>
<path id="Vector_7" d="M88.6251 67.22L85.7338 68.2026C85.4125 68.3116 85.066 68.1258 84.9793 67.7973L82.7905 59.4923H84.4641L88.9275 66.3464C89.136 66.6664 88.9868 67.0973 88.6251 67.22V67.22Z" fill="url(#paint6_linear)"/>
<path id="Subtract" d="M81.115 57.2664V56.1409C81.115 56.1409 78.2422 52.796 72.9769 52.796C72.728 52.796 72.474 52.8036 72.2147 52.8192C71.6417 54.5113 71.3587 56.2764 71.3663 58.041C71.3734 59.6269 71.6152 61.2129 72.0924 62.7457L72.2147 63.1372C72.4745 63.1529 72.729 63.16 72.9788 63.159C78.2432 63.1315 81.115 59.4962 81.115 59.4962V58.6884C81.1151 58.6884 81.115 58.6884 81.115 58.6884H75.4222C75.0296 58.6884 74.7112 58.3701 74.7112 57.9774C74.7112 57.5848 75.0295 57.2664 75.4222 57.2664H81.115C81.115 57.2664 81.1151 57.2664 81.115 57.2664Z" fill="url(#paint7_linear)"/>
<path id="Subtract_2" d="M93.3642 63.133C93.8941 61.4438 94.2003 59.764 94.2136 58.0368C94.2264 56.3594 93.9643 54.6366 93.3642 52.8151C87.6149 52.4686 84.4639 56.1367 84.4639 56.1367V57.2621C84.4639 57.2621 84.464 57.2621 84.4639 57.2621H90.1568C90.5494 57.2621 90.8678 57.5804 90.8678 57.973C90.8678 58.3657 90.5494 58.684 90.1568 58.684H84.464C84.4641 58.684 84.464 58.684 84.464 58.684L84.4639 59.492C84.4639 59.492 87.3372 63.1278 92.6011 63.1548C92.85 63.1558 93.1045 63.1486 93.3642 63.133Z" fill="url(#paint8_linear)"/>
<g id="Vector_8" filter="url(#filter2_d)">
<path d="M84.8936 56.5406V59.0967C84.8936 59.5555 84.5216 59.9276 84.0623 59.9276H81.5156C81.0568 59.9276 80.6842 59.5555 80.6842 59.0967V56.5406C80.6842 56.0818 81.0568 55.7097 81.5156 55.7097H84.0623C84.5215 55.7097 84.8936 56.0818 84.8936 56.5406Z" fill="url(#paint9_linear)"/>
<path d="M84.8936 56.5406V59.0967C84.8936 59.5555 84.5216 59.9276 84.0623 59.9276H82.7892V55.7097H84.0623C84.5215 55.7097 84.8936 56.0818 84.8936 56.5406Z" fill="url(#paint10_linear)"/>
</g>
</g>
</g>
<defs>
<filter id="filter0_f" x="78.4967" y="41.8925" width="96.5012" height="93.1446" filterUnits="userSpaceOnUse" color-interpolation-filters="sRGB">
<feFlood flood-opacity="0" result="BackgroundImageFix"/>
<feBlend mode="normal" in="SourceGraphic" in2="BackgroundImageFix" result="shape"/>
<feGaussianBlur stdDeviation="3" result="effect1_foregroundBlur"/>
</filter>
<filter id="filter1_d" x="71.1661" y="52.792" width="23.2479" height="15.8422" filterUnits="userSpaceOnUse" color-interpolation-filters="sRGB">
<feFlood flood-opacity="0" result="BackgroundImageFix"/>
<feColorMatrix in="SourceAlpha" type="matrix" values="0 0 0 0 0 0 0 0 0 0 0 0 0 0 0 0 0 0 127 0"/>
<feOffset dy="0.2"/>
<feGaussianBlur stdDeviation="0.1"/>
<feColorMatrix type="matrix" values="0 0 0 0 0 0 0 0 0 0 0 0 0 0 0 0 0 0 0.15 0"/>
<feBlend mode="normal" in2="BackgroundImageFix" result="effect1_dropShadow"/>
<feBlend mode="normal" in="SourceGraphic" in2="effect1_dropShadow" result="shape"/>
</filter>
<filter id="filter2_d" x="80.4842" y="55.6097" width="4.60941" height="4.61788" filterUnits="userSpaceOnUse" color-interpolation-filters="sRGB">
<feFlood flood-opacity="0" result="BackgroundImageFix"/>
<feColorMatrix in="SourceAlpha" type="matrix" values="0 0 0 0 0 0 0 0 0 0 0 0 0 0 0 0 0 0 127 0"/>
<feOffset dy="0.1"/>
<feGaussianBlur stdDeviation="0.1"/>
<feColorMatrix type="matrix" values="0 0 0 0 0 0 0 0 0 0 0 0 0 0 0 0 0 0 0.35 0"/>
<feBlend mode="normal" in2="BackgroundImageFix" result="effect1_dropShadow"/>
<feBlend mode="normal" in="SourceGraphic" in2="effect1_dropShadow" result="shape"/>
</filter>
<radialGradient id="paint0_radial" cx="0" cy="0" r="1" gradientUnits="userSpaceOnUse" gradientTransform="translate(-6.35011 158.255) rotate(-55.5181) scale(94.7533)">
<stop offset="0.868964" stop-color="#FF637B"/>
<stop offset="1" stop-color="#C43649"/>
</radialGradient>
<radialGradient id="paint1_radial" cx="0" cy="0" r="1" gradientUnits="userSpaceOnUse" gradientTransform="translate(185.953 159.827) rotate(-121.342) scale(100.801)">
<stop offset="0.896508" stop-color="#FF637B"/>
<stop offset="1" stop-color="#C53548"/>
</radialGradient>
<linearGradient id="paint2_linear" x1="67.9472" y1="29.1994" x2="109.027" y2="96.3805" gradientUnits="userSpaceOnUse">
<stop stop-color="#FF819C"/>
<stop offset="0.2594" stop-color="#FF7E9A"/>
<stop offset="0.4757" stop-color="#FE7396"/>
<stop offset="0.6765" stop-color="#FC628E"/>
<stop offset="0.8668" stop-color="#FA4A83"/>
<stop offset="1" stop-color="#F83479"/>
</linearGradient>
<linearGradient id="paint3_linear" x1="118.173" y1="84.2291" x2="-65.0438" y2="-25.7585" gradientUnits="userSpaceOnUse">
<stop stop-color="#E63950" stop-opacity="0"/>
<stop offset="0.0467" stop-color="#E4354B" stop-opacity="0.047"/>
<stop offset="0.4669" stop-color="#D31822" stop-opacity="0.467"/>
<stop offset="0.7991" stop-color="#C90709" stop-opacity="0.799"/>
<stop offset="1" stop-color="#C50000"/>
</linearGradient>
<linearGradient id="paint4_linear" x1="84.4964" y1="44.7913" x2="84.4972" y2="66.1929" gradientUnits="userSpaceOnUse">
<stop stop-color="#FF637B"/>
<stop offset="1" stop-color="#E63950"/>
</linearGradient>
<linearGradient id="paint5_linear" x1="75.8139" y1="78.1736" x2="82.7906" y2="59.4926" gradientUnits="userSpaceOnUse">
<stop offset="0.480499" stop-color="white"/>
<stop offset="1" stop-color="#BDEFFF"/>
</linearGradient>
<linearGradient id="paint6_linear" x1="87.6963" y1="68.9314" x2="84.1756" y2="59.4923" gradientUnits="userSpaceOnUse">
<stop stop-color="white"/>
<stop offset="1" stop-color="#BFF0FF"/>
</linearGradient>
<linearGradient id="paint7_linear" x1="73.7879" y1="54.1479" x2="80.6534" y2="64.9743" gradientUnits="userSpaceOnUse">
<stop stop-color="white"/>
<stop offset="1" stop-color="#89E3FF"/>
</linearGradient>
<linearGradient id="paint8_linear" x1="87.1679" y1="54.8477" x2="84.4639" y2="61.0971" gradientUnits="userSpaceOnUse">
<stop stop-color="white"/>
<stop offset="1" stop-color="#B3F1FF"/>
</linearGradient>
<linearGradient id="paint9_linear" x1="82.7889" y1="55.7097" x2="82.7889" y2="59.9276" gradientUnits="userSpaceOnUse">
<stop stop-color="white"/>
<stop offset="1" stop-color="#99C8FF"/>
</linearGradient>
<linearGradient id="paint10_linear" x1="82.7889" y1="55.7097" x2="82.7889" y2="59.9276" gradientUnits="userSpaceOnUse">
<stop stop-color="white"/>
<stop offset="1" stop-color="#99C8FF"/>
</linearGradient>
<clipPath id="clip0">
<rect width="169" height="169" fill="white" transform="translate(0 0.0600586)"/>
</clipPath>
</defs>
</svg>
