<svg xmlns="http://www.w3.org/2000/svg" fill="none" viewBox="0 0 1083 1032">
  <defs/>
  <g clip-path="url(#clip0)">
    <path fill="url(#paint0_linear)" d="M333.8 209.3c1.7 0 3.4 0 5-.2a48.5 48.5 0 0044.1-52c0-1 .6-1.7 1.5-1.8l55.6-5a46 46 0 0149.8 41.9l45.4 515.2a46 46 0 01-41.8 49.8l-51.3 4.6a6.5 6.5 0 01-6.9-5 48.4 48.4 0 00-95.5 8.4c-.2 3.2-2.7 5.8-6 6l-43.6 4a46 46 0 01-49.9-41.9L195 218.2a46 46 0 0141.8-50l48-4.1c.9-.1 1.7.5 1.7 1.4l.1.7a48.5 48.5 0 0047.3 43z"/>
    <path fill="url(#paint1_linear)" stroke="#fff" stroke-opacity=".5" stroke-width="7" d="M283.4 177.7l186 482.5a46 46 0 01-26.3 59.5L396 737.9a7.6 7.6 0 01-9.3-3.3 48.4 48.4 0 00-89.3 34.4c.8 3.6-1 7.3-4.5 8.7L252.7 793a46 46 0 01-59.5-26.3L7.2 284.2a46 46 0 0126.3-59.5l42.7-16.4c2-.8 4.4.1 5.3 2.2l1.6 3.3a48.5 48.5 0 0088.6-38c-.7-2.2.4-4.5 2.5-5.3l49.7-19.2a46 46 0 0159.5 26.4z"/>
    <path fill="url(#paint2_linear)" stroke="#fff" stroke-opacity=".5" stroke-width="7" d="M64.4 432.7l276.7-105.5 128.4 333a46 46 0 01-26.4 59.5L396 737.9a7.6 7.6 0 01-9.3-3.3 48.4 48.4 0 00-89.3 34.4c.8 3.6-1 7.3-4.5 8.6l-40.2 15.5a46 46 0 01-59.5-26.3l-128.8-334z"/>
    <path fill="#EAF6FF" d="M282.4 557l79.7-2.5c2.9 0 4.8-3 3.7-5.6l-8.3-21.4a4 4 0 00-3.1-2.6l-88.5-14.7 16.5 46.8zM258.6 566.1L197.8 618a4.1 4.1 0 01-6.4-1.7l-8.3-21.5a4 4 0 01.6-4l55.7-70.3 19.2 45.7z"/>
    <path fill="#EAF6FF" d="M292 656.5S227.3 513 220.7 495.7c-6.6-17.2 9.4-38.6 9.4-38.6s26.3 5 32.9 22.3c6.6 17.2 55.3 167 55.3 167l6.5 14.6c.8 1.8.2 4-1.4 5L294 687c-3 2.2-7-.3-6.4-4l4.4-26.5z"/>
    <path fill="url(#paint3_linear)" d="M91 277l32 83.2a7.1 7.1 0 01-4.1 9.3l-24 9.2a7.1 7.1 0 01-9.2-4l-32-83.3a7.1 7.1 0 014-9.2l24-9.2c3.7-1.5 7.8.4 9.2 4z"/>
    <path fill="url(#paint4_linear)" stroke="#000" stroke-opacity=".2" stroke-width="1.2" d="M294.5 400.4l65.1-25 20.4 52.8-65.1 25.1a8.1 8.1 0 01-10.5-4.6L289.8 411a8.1 8.1 0 014.7-10.6z"/>
    <path fill="url(#paint5_linear)" d="M451.2 222.2l8.3 94c.4 4-2.6 7.6-6.6 8l-23.6 2c-4 .4-7.5-2.6-7.9-6.6l-8.3-94c-.3-4.1 2.6-7.7 6.7-8l23.5-2c4-.4 7.6 2.5 8 6.6z"/>
    <path fill="#D3E1F5" d="M338.7 321.2l7.2 18.4-13 5a9.9 9.9 0 11-7-18.5l12.8-5zM281.6 343.2l-24.5 9.4a9.9 9.9 0 007.1 18.5l24.5-9.4a9.9 9.9 0 10-7.1-18.5zm-68.8 26.5l-24.4 9.5a9.9 9.9 0 007 18.4l24.5-9.4a9.9 9.9 0 00-7-18.5zm-68.7 26.5l-24.5 9.5a9.9 9.9 0 007.2 18.4l24.4-9.4a9.9 9.9 0 00-7.1-18.5zM88.2 428.4a10 10 0 01-5.7 12.8l-13 5-7-18.5 12.9-5c5-2 10.8.6 12.8 5.7z"/>
    <path fill="url(#paint6_linear)" d="M244.3 266.4a9.9 9.9 0 01-19.1 4.4l-19.9-51.6a9.9 9.9 0 1118.5-7l19.8 51.5c.4.8.6 1.8.7 2.7z"/>
    <path fill="url(#paint7_linear)" d="M277.3 253.6a9.9 9.9 0 01-19 4.4l-20-51.5a9.9 9.9 0 1118.5-7.1l19.9 51.5.6 2.7z"/>
    <path fill="url(#paint8_linear)" d="M453.2 372.7l9.2 104.6a9.9 9.9 0 11-19.7 1.8l-9.2-104.7a9.9 9.9 0 1119.7-1.7z"/>
    <g filter="url(#filter0_d)">
      <path fill="url(#paint9_radial)" d="M1023.9 289L743 943.3c-9 21.4-33.6 31-54.8 21.7L273.8 787A40.7 40.7 0 01252 733l280.2-655a42.3 42.3 0 0155.2-21.8l414.5 178a42.2 42.2 0 0122 54.9z"/>
      <g filter="url(#filter1_d)">
        <path fill="url(#paint10_linear)" d="M959.4 235.2l-205 682.5a42.4 42.4 0 01-52 28l-432-129.8c-22-6.6-34.5-30-27.9-52l205-682.5c6.7-22 30-34.6 52-28l432 129.8c22 6.6 34.5 30 27.9 52z"/>
      </g>
      <path fill="#fff" d="M634.8 382a124 124 0 0181.7 155.2 124 124 0 01-156.7 78.7 124 124 0 01-81.7-155.2A124 124 0 01634.8 382z"/>
      <path fill="#F1535C" d="M560 617.8a122.7 122.7 0 01-80.6-83.2c-8.5-.9-15.6-2.2-21.4-4l-2-.6c-14.6-4.6-18.6-12.7-19.3-18.6-1-8.8 4.4-16.9 16-23.8 5.9-3.5 13.8-7 23.5-10.4l.3-.2A124.1 124.1 0 01636 380.6a122 122 0 0175.7 69.2h.4c5.4.8 10.2 1.9 14.2 3.1l2 .6c14.7 4.7 18.6 12.8 19.3 18.7.4 2.5.1 5-.7 7.5-2.8 8.9-11.8 14.3-15.2 16.3-3 1.7-6.3 3.4-10.2 5.1A124 124 0 01560 617.8zm-8.5-61.1c.2 2.4.3 4.8.6 7 1.7 17.6 7.5 30 15 32.4 7.5 2.5 19.4-4.3 31.1-17.6 1.5-1.6 3-3.5 4.5-5.4a206.2 206.2 0 00-51.2-16.4zm-40-2.1c5.3 8.6 12 16.3 19.5 23a131.4 131.4 0 01-2.4-23.3c-6-.4-11.6-.2-17 .3zm111.2 29.8a129.1 129.1 0 01-15.4 17.5c10-1 19.8-3.5 29.2-7.4-4.2-3.4-8.8-7-13.8-10.1zm12.5-19.1c8.3 5.4 15.7 11.3 22.2 17.6 14.9-10.8 26.5-25 33.9-41.9l-39.2-12.5a251.7 251.7 0 01-17 36.8zm-160.7-61a83 83 0 00-7 3.4c1.9.5 4.3 1 7.3 1.5l-.3-4.9zm110 37.3c10.7 3.4 21 7.6 30.7 12.4l4.4-8.2a9.4 9.4 0 01-11-8l-1.3-8.7-10.3 1.4a797.5 797.5 0 01-40.3 4.1c9.2 1.7 18.6 4 27.8 7zM498.1 479l-.9 4.3a102 102 0 00-.6 27.7l1.5.1c10.4.5 22 .5 34.6 0 1.3-6.6 2.8-13.1 4.6-19.6L498 479zm61 19.5c-1 3.8-2 7.5-2.8 11.2 9.4-.7 19.2-1.7 29-2.8l-26.2-8.4zM544 470a254.7 254.7 0 0117-36.8 150.5 150.5 0 01-22.2-17.6 102.8 102.8 0 00-34 41.8l39.3 12.6zm154.1 49.4a109 109 0 001.5-10h-.1l-6.9 2.3c-3 1-4.2 1.5-10.1 2.8l15.6 5zm-34.4-11a12.4 12.4 0 018.6-17c7.8-1.7 7.8-1.7 9.2-2.2a311.3 311.3 0 0017.6-5.8c-1-6-2.4-12-4.3-17.8-8.9 1.3-18.3 1.8-28.3 1.4-1.4 12.9-4 26.3-7.6 39.8l4.8 1.6zM603.4 489a9.5 9.5 0 0111-4c.6.1 1.1.4 1.7.6l21.8 11.7c2.9-11.2 5-22 6-32.6a224.5 224.5 0 01-62.8-20.1 219.9 219.9 0 00-15 32.4l37.3 12zm-9.8-63.6a206.1 206.1 0 0051 16.4c0-2.5-.2-4.8-.4-7-1.8-17.7-7.5-30-15-32.5-7.6-2.4-19.5 4.3-31.2 17.6l-4.4 5.5zm-33.8-21.5c4.2 3.6 8.8 7 13.7 10.2a129.4 129.4 0 0115.5-17.5c-10 1-19.8 3.4-29.2 7.3zM665.3 421a131.9 131.9 0 012.4 23.3 146.6 146.6 0 0017.1-.4c-5.4-8.5-12-16.3-19.5-22.9z"/>
      <path fill="#fff" d="M632.4 386a117.5 117.5 0 0180.5 97.4 76.3 76.3 0 0011-6.3c1.7-1.2 1.4-3.7-.4-4.5l-3-1c-1.8-.7-4-1.2-6.7-1.8-1.2-4.9-2.7-9.6-4.4-14.2 5.2.7 9.7 1.7 13.5 2.8l1.8.6c5 1.6 14.3 5.4 15.3 13.8.2 1.8 0 3.5-.5 5.1-2.2 6.8-9.9 11.3-12.8 13-2.7 1.7-5.9 3.3-9.5 5l-3.3 1.3c.1 12.6-1.7 25.3-5.7 37.9a117.4 117.4 0 01-226.2-5.9l-3.5-.4c-8.4-.9-15.4-2-20.8-3.7l-1.9-.6c-5-1.6-14.3-5.4-15.2-13.8-1.2-9.7 9.6-16.1 13.2-18.2 5.7-3.3 13.2-6.8 22.5-10-.7 4.8-1.1 9.7-1.2 14.5a79.1 79.1 0 00-18.6 9.4 2.6 2.6 0 00.6 4.5l3 1a95 95 0 0016 3.4c1 0 2.2.3 3.4.4-2.3-17-1-35 4.7-52.5A118 118 0 01632.4 386zm-17.5 54.7c11.4 3.6 22.7 6.2 33.8 7.8 0-5-.2-9.7-.7-14.3-2-20.5-9-34.1-19-37.4-10.1-3.2-23.7 3.8-37.3 19.3-3 3.5-6 7.2-8.8 11.3a204 204 0 0032 13.3zM573 421.9c3.3-4.8 6.7-9.3 10.3-13.2 7-8 14.1-14 21-18-19.9-1.5-39.4 2.7-56.7 11.6 7 7 15.7 13.6 25.4 19.6zm86.8 27.8c5.1.4 10.3.5 15.2.4 5.9-.1 11.5-.6 17-1.5-8.9-17.3-22.3-32-39.3-42.5h-.2a86 86 0 016.7 26.9c.5 5.4.6 11 .6 16.7zM495.3 461l50.5 16.2a256.4 256.4 0 0121.2-45.8c-10.7-6.6-20.2-14-28-21.8l-1.4-1.5-2 1.4a108.4 108.4 0 00-40.3 51.5zm154.6 49.6l50.6 16.2c2.2-8.6 3.4-17.2 3.6-25.7-2.6 1-5.4 2-8.4 2.9-11.7 3.7-6.6 2.7-21.2 6a6.7 6.7 0 01-7.8-5 6.7 6.7 0 015-8c12.6-2.6 5.7-1.1 16-4.3 6.2-1.9 11.4-3.6 15.9-5.3-1-9.7-3.3-19.2-6.8-28.1-.6 0-1.3.3-2 .4a150 150 0 01-35.4 1.4 244.3 244.3 0 01-9.5 49.5zm-38.5-59.1c-12.3-4-24-9-34.7-14.6a228.7 228.7 0 00-20.2 43.7l49.7 16-.3-2c-.5-2.9 2.2-5 4.7-4.2l.7.2 28.2 15.2c4.6-15.8 7.6-31.5 8.6-46-12-1.6-24.3-4.3-36.7-8.3zm-122 65.2l6.5.3c11.9.5 25.3.4 39.7-.2 1.6-9.4 3.9-19 6.8-28.8l-50.6-16.2a110.1 110.1 0 00-2.4 44.9zm165.3 73.6a109.6 109.6 0 0042.3-52.8l-50.5-16.2c-5.8 16.8-13 32.3-21.2 45.8a146.3 146.3 0 0129.4 23.2zm-107.6-74.2a713.3 713.3 0 0061.2-6.5l-.1-.5-55.1-17.7c-2.5 8.3-4.5 16.6-6 24.7zm86.7 7.1l-15 15.8c-1.1 1-2.6 1.3-3.8.9a3.7 3.7 0 01-2.6-3l-2.2-14.4a788.3 788.3 0 01-65.3 7l-1 9.2a214.8 214.8 0 0171.5 22.9c7-11.4 13.2-24.4 18.4-38.4zm-138.3 16c.7 0 1.3-.2 2-.3 6.2-1.1 12.9-1.7 19.7-1.9 5-.1 10.3 0 15.7.4l.7-7.4c-15 .6-28.9.6-41.2 0 .9 3.2 1.9 6.2 3.1 9.3zm67.8 62.4c10 3.3 23.6-3.7 37.2-19.3 3-3.4 6-7.2 8.9-11.2a202.9 202.9 0 00-65.9-21.1c0 4.9.2 9.7.7 14.2 2 20.5 9 34.2 19 37.4zm24.6 6.2c19.9 1.5 39.4-2.7 56.7-11.6a137 137 0 00-25.5-19.6c-3.3 4.8-6.7 9.2-10.3 13.2-6.9 8-14 14-21 18zm-48.3-15.4a86 86 0 01-6.6-27 155 155 0 01-.7-16.6c-11.3-.9-22.2-.5-32.1 1a108 108 0 0039.4 42.6zM636 375.2a127.5 127.5 0 00-98.9 8.4 130.1 130.1 0 00-67.5 89.2c-8.8 3.2-16.1 6.6-21.9 10-2 1.2-6.6 4-10.7 8-7.8 8-8.6 16-8 21.2.7 6.2 4.7 17.5 23.3 23.5l2.1.7c5.2 1.4 11.5 2.7 18.6 3.6a129.8 129.8 0 0083.4 83.4 127.5 127.5 0 0098.8-8.4 129.8 129.8 0 0070.2-110c2.8-1.4 5.3-2.7 7.5-4 4-2.3 14.2-8.5 17.7-19.4 1-3.3 1.4-6.6 1-10-.7-6-4.7-17.5-23.3-23.4l-2.2-.7a99 99 0 00-12.2-2.7 128.2 128.2 0 00-78-69.4zm-35 48.1c12.8-14.4 21.7-16.5 24.5-15.5 3 .9 9 7.7 11 26.9a188.6 188.6 0 01-35.5-11.4zm-31.4-17.5l1.4-.4-.7.9-.7-.5zm101.8 32.9v-1.1l.8 1a5 5 0 01-.8.1zM511.1 454a96.5 96.5 0 0125.5-30.8c4.5 4 9.5 8 15 11.8a207.2 207.2 0 00-13 27.9l-27.5-8.9zM669.8 473c6.6 0 13-.3 19-1 .8 2.6 1.4 5 1.9 7.6-2.1.7-4.2 1.4-6.5 2l-6.6 2.3-8.4 1.9-1.4.3c.7-4.3 1.5-8.7 2-13.1zm-98.2.5c3-7.5 6.3-14.6 9.9-21.3a232.6 232.6 0 0054 17.3c-.8 6.3-2 12.8-3.6 19.3l-15.1-8.1a15.3 15.3 0 00-17.2 1.7h-.1l-28-8.9zm-71 13.1l27.7 8.9-2.4 10.2c-9.3.3-18 .3-26 0-.4-6.3-.1-12.7.8-19zm153 49l27.6 9a96.5 96.5 0 01-25.5 30.8c-4.5-4.1-9.6-8-15-11.8 4.8-8.7 9-18 13-28zm-66.2 1.7l8.4-1c1.5-.3 3-.4 4.6-.6l.5 3c.2 1.4.7 2.8 1.3 4a214 214 0 00-14.8-5.4zm-31.6 26.6a188.3 188.3 0 0135.5 11.4c-12.8 14.5-21.7 16.5-24.5 15.6-3-1-9-7.9-11-27zm65.5 29.3l.7-1 .7.5-1.4.5zm-101.1-33.3h.8v1.2a11 11 0 00-.8-1.2zM462.2 721.4L586 758.5a7.9 7.9 0 015.3 9.8l-4.2 14a7.9 7.9 0 01-9.8 5.2l-123.8-37.2a7.9 7.9 0 01-5.3-9.7l4.2-14a7.8 7.8 0 019.8-5.2zM428.1 649.7L655.7 718c3.6 1 5.6 4.9 4.5 8.4l-4.9 16a6.7 6.7 0 01-8.4 4.6l-227.6-68.4a6.7 6.7 0 01-4.5-8.5l4.9-16a6.8 6.8 0 018.4-4.5zM456 238.2c-4.8-1.5-6.8-3.6-6-6.1l23.8-75c.5-1.7 1.3-2.8 2.2-3.3 1-.6 2.4-.6 4 0l20.7 6.5c6.3 2 11.2 5.6 14.8 10.7 3.7 5.2 4 12.8.7 23a29 29 0 01-9.3 15c-4 2.9-8 4.5-11.8 4.8-3.8.2-7 0-9.8-1l-8.2-2.5-8.8 27.6c-.8 2.5-3.6 3-8.3 1.6l-4-1.3zm32.2-41.3c1.8.5 3.7.3 5.5-1 1.9-1 3.4-3.6 4.7-7.6 1.2-3.9 1.4-6.8.5-8.8-.8-2-2.2-3.3-4-3.8l-6.3-2-6.7 21.2 6.3 2zm9.1 54.4c-3.8-1.2-5.4-2.7-4.9-4.4.2-.7.6-1.3 1-2l42.5-70c1.2-2 4-2.4 8.3-1l7.7 2.4c4.4 1.4 6.5 3.3 6.4 5.7l-5.7 81.6-.5 2.2c-.5 1.8-2.5 2-6 1l-6.2-2c-3.9-1.2-5.7-2.7-5.6-4.5l1.5-15.5-18-5.8-7.9 13.5c-.8 1.6-3 1.8-6.4.8l-6.2-2zm41.1-21.7l2.7-27c.3-3 .8-6.2 1.4-9.5l-.6-.2c-1.4 3-2.8 6-4.3 8.6l-13.2 23.6 14 4.5zm33.9 46.3c-4-1.3-7.6-3-11-5.4a19 19 0 01-6.9-7.4 7.5 7.5 0 01-.2-4.6c.7-2.3 2-4.3 4-6.3 1.8-1.9 3.5-2.6 5-2.2.6.2 1.4 1 2.5 2.2l2.6 2.6c2.6 2.6 5.1 4.2 7.5 5 2.5.8 5 1 7.2.3 2.3-.6 3.9-2.3 4.8-5.1 1-3 .8-5.7-.5-8a41.6 41.6 0 00-6.8-8.4 45.5 45.5 0 01-9.7-14.7 25 25 0 01.6-15.9c1.5-4.8 3.9-8.7 7.2-11.6 3.3-3 7.1-4.8 11.4-5.5 4.5-.8 9.1-.4 14 1.1 2.7.9 5.4 2.2 8.1 4 2.8 1.8 4.8 3.6 6.1 5.3a5.1 5.1 0 01.8 4.8 18 18 0 01-3.5 6.1c-1.6 2-3 2.8-4.4 2.4-.6-.2-1.7-.9-3.2-2a23.6 23.6 0 00-7.1-4.3c-3.4-1-5.9-1-7.6 0a7.8 7.8 0 00-3.4 4.3c-.9 2.9-.8 5.3.2 7.3 1 1.9 3 4.2 5.8 7l2.7 2.7c4.4 5 7.3 9.6 8.5 14 1.3 4.5 1 9.7-.9 15.6a28.7 28.7 0 01-6.8 11.5c-3 3.1-6.9 5.2-11.5 6.3-4.7 1-9.8.7-15.5-1.1zm48.4 15.3c-3.9-1.2-7.6-3-11-5.3a19 19 0 01-6.9-7.4 7.5 7.5 0 01-.2-4.7c.7-2.2 2-4.3 4-6.2 1.9-2 3.6-2.7 5-2.2.6.2 1.5 1 2.6 2.1l2.6 2.7c2.5 2.6 5 4.2 7.4 5 2.6.8 5 .9 7.3.3 2.2-.6 3.8-2.3 4.7-5.2 1-3 .8-5.6-.5-7.9a41.6 41.6 0 00-6.7-8.4 45.5 45.5 0 01-9.8-14.8 25 25 0 01.6-15.8c1.5-4.8 4-8.7 7.2-11.6 3.3-3 7.1-4.8 11.5-5.5 4.4-.8 9-.4 14 1.1 2.6.9 5.3 2.2 8 4 2.8 1.8 4.9 3.5 6.2 5.2a5.1 5.1 0 01.8 4.9 18 18 0 01-3.5 6c-1.6 2.1-3.1 3-4.5 2.5-.6-.2-1.6-.9-3.1-2a23.6 23.6 0 00-7.2-4.3c-3.3-1-5.9-1-7.6 0a7.8 7.8 0 00-3.3 4.3c-1 2.8-.9 5.2.2 7.2 1 2 3 4.3 5.7 7.1l2.7 2.7c4.5 5 7.3 9.6 8.6 14 1.3 4.4 1 9.6-1 15.6a28.7 28.7 0 01-6.7 11.5c-3.1 3-7 5.2-11.6 6.3-4.6 1-9.8.7-15.5-1.2zm37.8 11.3c-4.8-1.6-6.7-3.6-6-6.1l23.9-75c.5-1.8 1.3-2.8 2.2-3.3 1-.6 2.4-.6 4 0l20.7 6.5c6.3 2 11.2 5.6 14.8 10.7 3.7 5.1 4 12.8.7 23a29 29 0 01-9.3 15c-4 2.9-8 4.5-11.8 4.7-3.8.3-7 0-9.8-.8l-8.2-2.7-8.8 27.7c-.8 2.5-3.6 3-8.3 1.5l-4-1.3zm32.3-41.4c1.8.6 3.6.3 5.5-.8 1.8-1.2 3.4-3.8 4.7-7.7 1.2-4 1.4-6.8.5-8.8-.8-2-2.2-3.3-4-3.9l-6.3-2-6.7 21.2 6.3 2zm43.4 66.2c-20.8-6.6-26.7-24.2-17.6-52.6 9-28.4 23.9-39.3 44.7-32.7 10.2 3.2 16.8 9 19.8 17.7 3.2 8.6 2.4 20.2-2.2 34.8-4.7 14.6-10.7 24.5-18.3 29.7-7.4 5.3-16.2 6.3-26.4 3zm5.1-15.6c2.9.9 5.4.8 7.7-.2 2.2-1 4.4-3.4 6.5-7 2.1-3.7 4.3-9 6.5-16s3.5-12.4 3.9-16.6c.4-4.3 0-7.5-1.3-9.6a10.4 10.4 0 00-6.2-4.6c-2.8-.9-5.4-.8-7.8.2-2.2 1-4.4 3.4-6.7 7a81.7 81.7 0 00-6.4 15.8c-2.2 7-3.5 12.5-3.9 16.8-.3 4.2.2 7.4 1.4 9.6 1.4 2.1 3.4 3.7 6.3 4.6zm40.8 29.3c-4.8-1.5-6.8-3.5-6-6l23.8-75.1c.6-1.7 1.3-2.8 2.2-3.3 1-.5 2.4-.5 4.1 0l19.9 6.3c7.3 2.4 12.6 6 15.9 11.1 3.3 5 3.6 11.7 1 20.1-3 9.3-8.9 14.8-17.7 16.6l-.2.4c1.4 1.5 2.5 3.6 3.3 6.3.7 2.7 1 5.4.9 8.2l-.2 25-.1 1.6c-.7 2.2-3.5 2.5-8.4 1l-4.2-1.4c-4.2-1.4-6.3-3.2-6.1-5.5l.8-24.6a9 9 0 00-1.3-4.5c-.6-1-2-1.8-4-2.5l-2.8-.9-8.5 27c-.8 2.5-3.6 3-8.4 1.5l-4-1.3zm33.1-42.4c1.7.5 3.5.1 5.2-1.3 1.9-1.3 3.3-3.7 4.4-7 1-3.3 1.2-6 .4-7.9a6 6 0 00-4-3.9l-6.4-2-6.3 20 6.7 2zm35.3 64.1c-4.6-1.4-6.5-3.4-5.7-6l20.4-64.2-13.2-4.2a3 3 0 01-2.2-2.2c-.2-1.2 0-2.8.6-4.8l1.2-3.7c.6-2 1.4-3.5 2.3-4.3a3 3 0 013-.6l45.3 14.4c1.3.4 2 1.1 2.3 2.3.2 1.1 0 2.7-.6 4.8l-1.2 3.7c-.6 2-1.4 3.4-2.3 4.2-.8.8-1.9 1-3.1.6l-13.4-4.2-20.4 64.2c-.8 2.5-3.5 3-8 1.6l-5-1.6z"/>
    </g>
  </g>
  <defs>
    <linearGradient id="paint0_linear" x1="234.5" x2="520.7" y1="568.5" y2="480.1" gradientUnits="userSpaceOnUse">
      <stop stop-color="#003361"/>
      <stop offset=".3" stop-color="#003361"/>
      <stop offset="1" stop-color="#0067C5"/>
    </linearGradient>
    <linearGradient id="paint1_linear" x1="23.5" x2="453.1" y1="491.1" y2="453.3" gradientUnits="userSpaceOnUse">
      <stop stop-color="#D3E1F5"/>
      <stop offset="1" stop-color="#A8C4EB"/>
    </linearGradient>
    <linearGradient id="paint2_linear" x1="78.8" x2="461.4" y1="581.9" y2="548.2" gradientUnits="userSpaceOnUse">
      <stop stop-color="#B3CEEC"/>
      <stop offset="1" stop-color="#89B3E1"/>
    </linearGradient>
    <linearGradient id="paint3_linear" x1="56.6" x2="120" y1="328.6" y2="323" gradientUnits="userSpaceOnUse">
      <stop stop-color="#60B7FF"/>
      <stop offset="1" stop-color="#2EA0FF"/>
    </linearGradient>
    <linearGradient id="paint4_linear" x1="290.2" x2="378.5" y1="418.6" y2="410.9" gradientUnits="userSpaceOnUse">
      <stop stop-color="#FEE903"/>
      <stop offset="1" stop-color="#FE9501"/>
    </linearGradient>
    <linearGradient id="paint5_linear" x1="417.3" x2="455.4" y1="272.6" y2="269.2" gradientUnits="userSpaceOnUse">
      <stop stop-color="#FFEFD2"/>
      <stop offset="1" stop-color="#FFDD9E"/>
    </linearGradient>
    <linearGradient id="paint6_linear" x1="207" x2="241.9" y1="243" y2="239.9" gradientUnits="userSpaceOnUse">
      <stop stop-color="#98BCE5"/>
      <stop offset="1" stop-color="#67A2E4"/>
    </linearGradient>
    <linearGradient id="paint7_linear" x1="240.1" x2="275" y1="230.2" y2="227.2" gradientUnits="userSpaceOnUse">
      <stop stop-color="#98BCE5"/>
      <stop offset="1" stop-color="#67A2E4"/>
    </linearGradient>
    <linearGradient id="paint8_linear" x1="438.1" x2="457.8" y1="426.8" y2="425" gradientUnits="userSpaceOnUse">
      <stop stop-color="#60B7FF"/>
      <stop offset="1" stop-color="#2EA0FF"/>
    </linearGradient>
    <linearGradient id="paint10_linear" x1="504.6" x2="1352.7" y1="101.1" y2="1209.4" gradientUnits="userSpaceOnUse">
      <stop stop-color="#FCB72E"/>
      <stop offset="1" stop-color="#F15F22"/>
    </linearGradient>
    <filter id="filter0_d" width="916.3" height="1046.9" x="165.7" y=".7" color-interpolation-filters="sRGB" filterUnits="userSpaceOnUse">
      <feFlood flood-opacity="0" result="BackgroundImageFix"/>
      <feColorMatrix in="SourceAlpha" values="0 0 0 0 0 0 0 0 0 0 0 0 0 0 0 0 0 0 127 0"/>
      <feOffset dx="-10" dy="14"/>
      <feGaussianBlur stdDeviation="32.5"/>
      <feColorMatrix values="0 0 0 0 0 0 0 0 0 0 0 0 0 0 0 0 0 0 0.15 0"/>
      <feBlend in2="BackgroundImageFix" result="effect1_dropShadow"/>
      <feBlend in="SourceGraphic" in2="effect1_dropShadow" result="shape"/>
    </filter>
    <filter id="filter1_d" width="768.4" height="943.7" x="224.7" y="41.7" color-interpolation-filters="sRGB" filterUnits="userSpaceOnUse">
      <feFlood flood-opacity="0" result="BackgroundImageFix"/>
      <feColorMatrix in="SourceAlpha" values="0 0 0 0 0 0 0 0 0 0 0 0 0 0 0 0 0 0 127 0"/>
      <feOffset dx="8" dy="14"/>
      <feGaussianBlur stdDeviation="12"/>
      <feColorMatrix values="0 0 0 0 0 0 0 0 0 0 0 0 0 0 0 0 0 0 0.15 0"/>
      <feBlend in2="BackgroundImageFix" result="effect1_dropShadow"/>
      <feBlend in="SourceGraphic" in2="effect1_dropShadow" result="shape"/>
    </filter>
    <radialGradient id="paint9_radial" cx="0" cy="0" r="1" gradientTransform="rotate(70.7 -37.6 615.6) scale(783.404 346.122)" gradientUnits="userSpaceOnUse">
      <stop stop-color="#B6404C"/>
      <stop offset=".6" stop-color="#B6404C"/>
      <stop offset="1" stop-color="#EA5160"/>
    </radialGradient>
    <clipPath id="clip0">
      <path fill="#fff" d="M0 0h1083v1032H0z"/>
    </clipPath>
  </defs>
</svg>
