<svg xmlns="http://www.w3.org/2000/svg" fill="none" viewBox="0 0 2119 1114">
  <defs/>
  <path fill="#F1535C" d="M34 62A62.4 62.4 0 0196.4 0l1960.8 29.8a62.5 62.5 0 0160.8 64.4l-18.1 916.4a62.5 62.5 0 01-61 62L78 1094.5c-34.8.4-63-28.8-62.4-64.4L34 62z"/>
  <g filter="url(#filter0_ii)">
    <path fill="#F7F7F7" d="M696.7 65.9a70.4 70.4 0 00-70.4 70.4V968a70.4 70.4 0 0070.4 70.4H1997a70.4 70.4 0 0070.4-70.4V136.3a70.4 70.4 0 00-70.4-70.4H696.7z"/>
  </g>
  <g fill="#333132">
    <path d="M1687.5 788.8a9.4 9.4 0 01-8.6-5.3c-2-3.6-3-8.7-3-15.5 0-6.9 1-12 3-15.5 2-3.6 4.8-5.3 8.6-5.3s6.7 1.7 8.8 5.3c2 3.5 3 8.6 3 15.5 0 6.8-1 11.9-3 15.5-2 3.5-5 5.3-8.8 5.3zm0-6c1 0 1.7-.3 2.3-1.2.6-.9 1-2.4 1.4-4.6a71.6 71.6 0 000-18.1c-.3-2.2-.8-3.7-1.4-4.6a2.6 2.6 0 00-2.3-1.2c-.9 0-1.7.4-2.2 1.2-.6 1-1 2.4-1.4 4.6a60 60 0 00-.5 9c0 4 .2 7 .5 9.1.3 2.2.8 3.7 1.4 4.6.5.9 1.3 1.3 2.2 1.3zM1712.5 788.8a9.4 9.4 0 01-8.7-5.3c-2-3.6-3-8.7-3-15.5 0-6.9 1-12 3-15.5 2-3.6 5-5.3 8.7-5.3 3.8 0 6.7 1.7 8.8 5.3 2 3.5 3 8.6 3 15.5 0 6.8-1 11.9-3 15.5-2 3.5-5 5.3-8.8 5.3zm0-6c1 0 1.7-.3 2.3-1.2.6-.9 1-2.4 1.4-4.6a69.4 69.4 0 000-18.2c-.4-2-.8-3.6-1.4-4.5a2.6 2.6 0 00-2.3-1.2c-1 0-1.7.4-2.3 1.2-.5 1-1 2.4-1.3 4.6-.3 2.1-.5 5.2-.5 9 0 4 .2 7 .5 9.1.3 2.2.8 3.7 1.3 4.6.6.9 1.4 1.3 2.3 1.3z"/>
  </g>
  <g fill="#333132">
    <path d="M1680 263.6c-.7 0-1.3-.2-1.5-.5-.3-.3-.5-.9-.5-1.6v-36.6c0-.7.2-1.2.5-1.6.2-.3.8-.5 1.5-.5h10.3c4 0 7 1 8.9 2.7 2 1.7 2.9 4.2 2.9 7.4 0 2.1-.5 4-1.5 5.7a9 9 0 01-3.7 3.6v.2c1.8.5 3.3 1.6 4.6 3.2 1.2 1.6 1.8 3.8 1.8 6.5a11 11 0 01-3.2 8.5c-2.2 2-5.5 3-9.7 3H1680zm10.2-23.8c1.4 0 2.5-.5 3.3-1.5.7-1 1.1-2.3 1.1-4.1 0-1.9-.3-3.2-1-4-.8-.8-1.9-1.2-3.4-1.2h-4.8v10.8h4.8zm.8 17.7c3.2 0 4.8-2 4.8-6 0-2-.5-3.4-1.3-4.3-.8-.9-2.1-1.4-3.8-1.4h-5.3v11.7h5.6zM1711 263.7c-2 0-3-.6-3-1.7v-37c0-.8.2-1.3.5-1.6.4-.4.9-.6 1.6-.6h9.4c7.8 0 11.7 3.7 11.7 11.1 0 4.6-1.8 8-5.5 9.9v.2c1.6.9 2.8 3 4 6.3l3.4 11.3.2.3v.4c0 1-1 1.4-3.1 1.4h-1.7c-1.8 0-2.9-.5-3-1.4l-3.3-11.2c-.4-1.3-1-2.2-1.5-2.7-.7-.5-1.6-.7-2.8-.7h-2.2V262c0 1.1-1 1.7-3 1.7h-1.6zm8.9-23.2c1 0 1.9-.5 2.6-1.5a7 7 0 001.2-4.2c0-1.9-.4-3.3-1.1-4.2a3.7 3.7 0 00-3-1.2h-4v11.1h4.3zM1736 263.7c-1.7 0-2.6-.4-2.6-1.1l.1-1 9.6-37.4c.2-1 1.3-1.5 3.2-1.5h3c1.9 0 3 .5 3.2 1.5l9.5 37.4.2 1c0 .7-.9 1.1-2.4 1.1h-2.4c-1.7 0-2.5-.3-2.7-1l-1.9-8h-10.1l-1.9 8c-.1.7-1 1-2.5 1h-2.3zm15.7-15.2l-3.1-13.6-.7-4.1h-.3l-.7 4.1-3.1 13.6h8zM1764.8 263.6c-.4 0-.8-.5-1.3-1.6-.4-1.1-.7-2-.7-2.9l.1-.6 16.1-29.1h-13.4c-.5 0-.8-.3-1-.7-.3-.4-.4-1-.4-2v-1.3c0-.9.1-1.6.3-2 .3-.4.6-.6 1.1-.6h21.3c.4 0 .8.6 1.2 1.7.4 1.1.7 2.1.7 2.9l-.1.9-16 28.8h14.7c.5 0 .8.2 1 .6.3.4.4 1 .4 2v1.4a4 4 0 01-.3 1.9c-.3.4-.6.6-1.1.6h-22.6zM1796.3 263.8c-2 0-3-.6-3-1.8v-37.6c0-1.2 1-1.7 3-1.7h1.9c2 0 3 .5 3 1.7V262c0 1.2-1 1.8-3 1.8h-2zM1809.3 263.6c-.7 0-1.2-.2-1.5-.5-.3-.3-.5-.9-.5-1.6v-37c0-1.2 1-1.8 3-1.8h1.8c1 0 1.8.1 2.3.4.5.3.7.7.7 1.3v32.7h9.9c.5 0 1 .2 1.2.6.2.4.3 1 .3 1.9v1.5c0 .9-.1 1.5-.3 1.9-.3.4-.7.6-1.2.6h-15.7z"/>
  </g>
  <g fill="#333132">
    <path d="M705.6 968c-.7 0-1.2-.2-1.5-.5-.3-.3-.5-1-.5-1.7v-37c0-1.1 1-1.7 3-1.7h1.8c1 0 1.8.1 2.3.4.5.3.7.7.7 1.3v32.7h9.9c.5 0 1 .1 1.2.5.2.4.3 1 .3 2v1.5c0 .8-.1 1.4-.3 1.8-.3.4-.7.7-1.2.7h-15.7zM738.8 968.4c-10 0-15-7-15-20.9 0-13.8 5-20.7 15-20.7s15 7 15 20.7c0 14-5 20.9-15 20.9zm0-6.5c2.5 0 4.2-1.1 5.4-3.4 1.1-2.1 1.7-5.8 1.7-11 0-5.1-.5-8.8-1.7-11a5.7 5.7 0 00-5.3-3.2c-2.5 0-4.3 1-5.4 3.2a25 25 0 00-1.8 11c0 5.2.6 8.9 1.8 11 1.1 2.3 3 3.4 5.4 3.4zM761.7 968.1c-2 0-3-.6-3-1.7v-37c0-.8.2-1.3.5-1.7.3-.3.8-.5 1.5-.5h9.4c7.8 0 11.7 3.7 11.7 11 0 4.7-1.8 8-5.5 10v.2c1.6.8 2.9 3 4 6.3l3.5 11.2.1.4v.4c0 .9-1 1.3-3 1.3H779c-1.8 0-2.8-.4-3-1.3l-3.2-11.2c-.5-1.3-1-2.2-1.6-2.7-.6-.5-1.5-.8-2.8-.8h-2.1v14.4c0 1.1-1 1.7-3.1 1.7h-1.6zm8.8-23.2c1 0 2-.5 2.7-1.6a7 7 0 001.1-4.2c0-1.8-.4-3.2-1-4a3.7 3.7 0 00-3-1.4h-4V945h4.2zM789.6 968c-.7 0-1.3-.2-1.6-.5-.2-.3-.4-1-.4-1.7v-36.4c0-.8.2-1.4.4-1.7.3-.3.9-.5 1.6-.5h17c.5 0 .9.2 1.1.6.3.4.4 1 .4 2v1.4c0 .9-.1 1.5-.4 1.9-.2.4-.6.6-1.1.6h-11.3V944h10c.6 0 1 .2 1.2.5.2.5.4 1.1.4 2v1.5c0 .9-.2 1.4-.4 1.8-.2.5-.6.7-1.2.7h-10v11h11.3c.5 0 .9.2 1.1.6.3.4.4 1 .4 2v1.5a4 4 0 01-.4 1.9c-.2.4-.6.6-1 .6h-17.1zM815.7 968.1c-2 0-3-.6-3-1.7v-37.6c0-1.1 1-1.7 3-1.7h1.5c.7 0 1.2.1 1.7.3.4.2.7.6 1 1.1l11.5 21.5c.5.9 1 2.3 1.8 4.2h.3c-.3-1.7-.4-3.1-.4-4.5v-21c0-1 1-1.6 3-1.6h1.1c2 0 3 .6 3 1.7v37.6c0 1.1-1 1.7-3 1.7H836a5 5 0 01-1.7-.3 2 2 0 01-1-1.1l-12.1-22.3c-.4-.7-1-1.9-1.6-3.6l-.3.1c.3 1.5.5 2.7.5 4v21.5c0 1.1-1 1.7-3 1.7h-1.1zM845.4 968.1c-1.7 0-2.6-.4-2.6-1.2l.1-1 9.6-37.4c.2-1 1.2-1.4 3.1-1.4h3.1c1.9 0 3 .5 3.2 1.4l9.5 37.4.1 1c0 .8-.8 1.2-2.4 1.2h-2.3c-1.7 0-2.6-.4-2.7-1.1l-2-8h-10l-2 8c0 .7-.9 1.1-2.4 1.1h-2.3zm15.7-15.3l-3.2-13.5a36 36 0 01-.7-4.2h-.3a36 36 0 01-.6 4.2l-3.1 13.5h7.9z"/>
  </g>
  <g fill="#333132">
    <path d="M713 788.8a9.4 9.4 0 01-8.7-5.3c-2-3.5-3-8.7-3-15.5 0-6.8 1-12 3-15.5s4.9-5.3 8.7-5.3c3.8 0 6.7 1.8 8.7 5.3 2 3.6 3 8.7 3 15.5 0 6.8-1 12-3 15.5-2 3.6-5 5.3-8.7 5.3zm0-5.9c.9 0 1.7-.4 2.2-1.2.6-1 1-2.4 1.4-4.6a71.2 71.2 0 000-18.2c-.3-2.1-.8-3.6-1.4-4.5a2.6 2.6 0 00-2.2-1.3c-1 0-1.7.4-2.3 1.3-.6.9-1 2.4-1.3 4.5-.4 2.2-.6 5.2-.6 9.1 0 4 .2 7 .6 9.1.2 2.2.7 3.7 1.3 4.6.6.8 1.3 1.2 2.3 1.2zM738 788.8a9.4 9.4 0 01-8.7-5.3c-2-3.5-3-8.7-3-15.5 0-6.8 1-12 3-15.5s4.9-5.3 8.7-5.3c3.7 0 6.7 1.8 8.7 5.3 2 3.6 3 8.7 3 15.5 0 6.8-1 12-3 15.5-2 3.6-5 5.3-8.7 5.3zm0-5.9c.9 0 1.6-.4 2.2-1.2.6-1 1-2.4 1.4-4.6a71 71 0 000-18.2c-.3-2.1-.8-3.6-1.4-4.5a2.6 2.6 0 00-2.2-1.3c-1 0-1.7.4-2.3 1.3-.6.9-1 2.4-1.4 4.5-.3 2.2-.5 5.2-.5 9.1 0 4 .2 7 .5 9.1.3 2.2.8 3.7 1.4 4.6.6.8 1.3 1.2 2.3 1.2zM762.7 788.8c-1.6 0-3-.2-4.3-.7-1.3-.4-2-1-2-1.7 0-.8.3-1.8.7-3 .4-1 1-1.6 1.5-1.6l1 .1 1.9.3c1.3 0 2.3-.5 3-1.5.5-1 .8-2.6.8-4.9v-26.6c0-1.2 1-1.7 3-1.7h1.8c2 0 3 .5 3 1.7v27.4c0 8.1-3.5 12.2-10.4 12.2zM778.3 788.5c-1.6 0-2.5-.4-2.5-1.1l.1-1 9.6-37.4c.2-1 1.2-1.5 3.1-1.5h3c2 0 3 .5 3.3 1.5l9.5 37.4.1 1c0 .7-.8 1.1-2.4 1.1h-2.3c-1.7 0-2.6-.3-2.8-1l-1.8-8H785l-1.8 8c-.2.7-1 1-2.5 1h-2.4zm15.8-15.2l-3.2-13.6-.7-4.1h-.3c-.1 1.5-.4 2.9-.7 4l-3 13.7h7.9zM810 788.5c-2 0-3-.6-3-1.7v-37.6c0-1.1 1-1.7 3-1.7h1.5c.7 0 1.3.1 1.7.3.4.2.8.6 1 1.2l11.6 21.4 1.8 4.3.3-.2c-.3-1.5-.5-3-.5-4.3v-21c0-1.1 1-1.7 3-1.7h1.1c2 0 3 .6 3 1.7v37.6c0 1.1-1 1.7-3 1.7h-1.1a5 5 0 01-1.8-.3 2 2 0 01-1-1l-12-22.3c-.5-.7-1-2-1.6-3.7l-.3.1c.3 1.5.4 2.8.4 4v21.5c0 1.1-1 1.7-3 1.7H810zM859.9 788.8a9.4 9.4 0 01-8.7-5.3c-2-3.5-3-8.7-3-15.5 0-6.8 1-12 3-15.5s4.9-5.3 8.7-5.3c3.7 0 6.7 1.8 8.7 5.3 2 3.6 3 8.7 3 15.5 0 6.8-1 12-3 15.5-2 3.6-5 5.3-8.7 5.3zm0-5.9c.9 0 1.7-.4 2.2-1.2.6-1 1-2.4 1.4-4.6a71.2 71.2 0 000-18.2c-.3-2.1-.8-3.6-1.4-4.5a2.6 2.6 0 00-2.2-1.3c-1 0-1.7.4-2.3 1.3-.6.9-1 2.4-1.4 4.5-.3 2.2-.5 5.2-.5 9.1 0 4 .2 7 .5 9.1.3 2.2.8 3.7 1.4 4.6.6.8 1.3 1.2 2.3 1.2zM884.8 788.8a9.4 9.4 0 01-8.6-5.3c-2-3.5-3-8.7-3-15.5 0-6.8 1-12 3-15.5s4.9-5.3 8.6-5.3c3.8 0 6.7 1.8 8.8 5.3 2 3.6 3 8.7 3 15.5 0 6.8-1 12-3 15.5-2 3.6-5 5.3-8.8 5.3zm0-5.9c1 0 1.7-.4 2.3-1.2.6-1 1-2.4 1.4-4.6a71 71 0 000-18.2c-.3-2.1-.8-3.6-1.4-4.5a2.6 2.6 0 00-2.3-1.3c-.9 0-1.6.4-2.2 1.3-.6.9-1 2.4-1.4 4.5-.3 2.2-.5 5.2-.5 9.1 0 4 .2 7 .5 9.1.3 2.2.8 3.7 1.4 4.6.6.8 1.3 1.2 2.2 1.2zM909.8 788.8a9.4 9.4 0 01-8.6-5.3c-2-3.5-3-8.7-3-15.5 0-6.8 1-12 3-15.5s4.8-5.3 8.6-5.3 6.7 1.8 8.8 5.3c2 3.6 3 8.7 3 15.5 0 6.8-1 12-3 15.5-2 3.6-5 5.3-8.8 5.3zm0-5.9c1 0 1.7-.4 2.3-1.2.6-1 1-2.4 1.4-4.6a71.2 71.2 0 000-18.2c-.3-2.1-.8-3.6-1.4-4.5a2.6 2.6 0 00-2.3-1.3c-.9 0-1.7.4-2.2 1.3-.6.9-1 2.4-1.4 4.5-.3 2.2-.5 5.2-.5 9.1 0 4 .2 7 .5 9.1.3 2.2.8 3.7 1.4 4.6.5.8 1.3 1.2 2.2 1.2zM934.8 788.8a9.4 9.4 0 01-8.7-5.3c-2-3.5-3-8.7-3-15.5 0-6.8 1-12 3-15.5s5-5.3 8.7-5.3c3.8 0 6.7 1.8 8.8 5.3 2 3.6 3 8.7 3 15.5 0 6.8-1 12-3 15.5-2 3.6-5 5.3-8.8 5.3zm0-5.9c1 0 1.7-.4 2.3-1.2.6-1 1-2.4 1.4-4.6a71 71 0 000-18.2c-.4-2.1-.8-3.6-1.4-4.5a2.6 2.6 0 00-2.3-1.3c-1 0-1.7.4-2.2 1.3-.6.9-1.1 2.4-1.4 4.5-.3 2.2-.5 5.2-.5 9.1 0 4 .2 7 .5 9.1.3 2.2.8 3.7 1.4 4.6.5.8 1.3 1.2 2.2 1.2z"/>
  </g>
  <g fill="#333132">
    <path d="M705.6 612c-.7 0-1.2-.3-1.5-.6-.3-.3-.5-.9-.5-1.6v-36.6c0-.7.2-1.2.5-1.6.3-.3.8-.5 1.5-.5H716c4 0 7 1 9 2.7 1.9 1.7 2.9 4.2 2.9 7.4 0 2.1-.5 4-1.5 5.7a9 9 0 01-3.8 3.6v.2c1.8.5 3.3 1.7 4.6 3.2 1.2 1.7 1.9 3.8 1.9 6.5 0 3.7-1.1 6.5-3.3 8.5-2.1 2-5.4 3-9.6 3h-10.5zm10.2-23.9c1.5 0 2.6-.5 3.3-1.5.8-1 1.2-2.3 1.2-4 0-2-.3-3.3-1-4.1-.8-.8-2-1.2-3.4-1.2H711V588h4.7zm.8 17.7c3.2 0 4.8-2 4.8-6 0-2-.4-3.4-1.3-4.2-.8-1-2-1.4-3.8-1.4h-5.2v11.6h5.5zM736.8 612c-2 0-3-.5-3-1.6v-37.1c0-.8.1-1.3.4-1.6.4-.4.9-.6 1.6-.6h9.4c7.8 0 11.7 3.7 11.7 11.1 0 4.6-1.8 8-5.5 9.9v.2c1.6.9 2.9 3 4 6.3l3.5 11.3v.3l.1.4c0 1-1 1.4-3.1 1.4h-1.7c-1.8 0-2.9-.5-3-1.4l-3.2-11.1c-.5-1.4-1-2.3-1.6-2.8-.6-.5-1.6-.7-2.8-.7h-2.2v14.4c0 1-1 1.6-3 1.6h-1.6zm8.8-23.1c1 0 1.9-.6 2.7-1.6a7 7 0 001-4.2c0-1.9-.3-3.3-1-4.1a3.7 3.7 0 00-3-1.3h-4v11.2h4.3zM761.8 612c-1.7 0-2.6-.4-2.6-1.1l.1-1 9.6-37.4c.2-1 1.3-1.5 3.1-1.5h3.1c1.9 0 3 .5 3.2 1.5l9.5 37.4.1 1c0 .7-.8 1.1-2.4 1.1h-2.3c-1.7 0-2.6-.3-2.7-1l-1.9-8h-10.1l-1.9 8c-.2.7-1 1-2.5 1h-2.3zm15.7-15.2l-3.1-13.6c-.3-1.2-.6-2.6-.7-4.1h-.3l-.7 4.1-3.1 13.6h7.9zM790.7 612c-.4 0-1-.6-1.3-1.7-.5-1.1-.7-2-.7-2.9v-.5l16.2-29.2h-13.4c-.5 0-.9-.3-1.1-.7-.3-.4-.4-1-.4-2v-1.3c0-.9.1-1.6.4-2 .2-.4.6-.6 1-.6h21.3c.4 0 .9.6 1.3 1.7s.6 2.1.6 2.9l-.1.9-16 28.8h14.7c.5 0 .9.2 1.1.6.2.4.4 1 .4 2v1.4a4 4 0 01-.4 1.9c-.2.4-.6.6-1 .6h-22.6zM822.2 612.1c-2 0-3-.6-3-1.8v-37.6c0-1.1 1-1.7 3-1.7h1.9c2 0 3 .6 3 1.7v37.6c0 1.2-1 1.8-3 1.8h-2zM835.3 612c-.7 0-1.2-.3-1.5-.6-.3-.3-.5-.9-.5-1.6v-37c0-1.2 1-1.8 3-1.8h1.8c1 0 1.8.1 2.2.4.5.3.7.7.7 1.3v32.7h10c.5 0 .9.2 1.1.6.2.4.4 1 .4 1.9v1.5c0 .9-.2 1.5-.4 1.9-.2.4-.6.6-1.1.6h-15.7zM858.3 612.1c-2 0-3-.6-3-1.8v-37.6c0-1.1 1-1.7 3-1.7h2c1.8 0 2.8.6 2.8 1.7v37.6c0 1.2-1 1.8-2.9 1.8h-2zM868.6 612c-1.7 0-2.6-.4-2.6-1.1l.2-1 9.5-37.4c.2-1 1.3-1.5 3.1-1.5h3.1c1.9 0 3 .5 3.2 1.5l9.5 37.4.2 1c0 .7-.9 1.1-2.4 1.1H890c-1.7 0-2.5-.3-2.7-1l-1.9-8h-10.1l-1.9 8c-.1.7-1 1-2.5 1h-2.3zm15.7-15.2l-3.1-13.6-.7-4.1h-.3l-.7 4.1-3.1 13.6h8zM900.3 612c-2 0-3-.5-3-1.6v-37.7c0-1 1-1.7 3-1.7h1.6c.7 0 1.2.1 1.6.3.5.2.8.6 1 1.2l11.6 21.4c.5.9 1 2.3 1.8 4.3l.3-.1c-.3-1.6-.4-3-.4-4.4v-21c0-1 1-1.7 3-1.7h1c2 0 3 .6 3 1.7v37.6c0 1.2-1 1.7-3 1.7h-1a5 5 0 01-1.8-.3 2 2 0 01-1-1l-12.1-22.3c-.4-.7-1-2-1.6-3.7l-.3.1c.3 1.5.5 2.8.5 4v21.6c0 1-1 1.6-3 1.6h-1.2z"/>
  </g>
  <g fill="#333132">
    <path d="M711.8 450.4c-1.9 0-3.7-.3-5.4-.8a9.9 9.9 0 01-4.2-2.2l-.5-.8-.2-1c0-1 .3-2 .7-3 .5-.9 1-1.4 1.6-1.4.3 0 .7.1 1.2.5l1 .5a10 10 0 005.4 1.6c1.5 0 2.8-.4 3.8-1.1 1-.8 1.6-2 1.6-3.6s-.5-2.9-1.4-3.8a19 19 0 00-4.3-2.9c-2-1.1-3.6-2.1-4.8-3.1a11.2 11.2 0 01-4-9 10.6 10.6 0 015.9-10.2c1.7-1 3.8-1.4 6.2-1.4 1.3 0 2.6.2 4 .5 1.4.4 2.5.9 3.4 1.5.5.4.8 1 .8 1.6a8 8 0 01-.6 2.8c-.4 1-1 1.6-1.5 1.6-.2 0-.7-.1-1.3-.4-1.5-.7-3-1-4.4-1-1.7 0-2.9.5-3.8 1.3-.8.8-1.2 1.9-1.2 3.1 0 1 .2 2 .7 2.7.4.7 1 1.3 1.6 1.7.7.6 1.7 1.1 3 1.8l1 .6c2.8 1.5 4.8 3.2 6.2 4.9 1.3 1.7 2 4 2 7 0 2.3-.5 4.3-1.4 6.1-1 1.8-2.4 3.3-4.3 4.3a14 14 0 01-6.8 1.6zM743.6 436.7c-.5 0-1-.2-1.2-.3-.3-.1-.6-.5-.8-.9l-5.2-9.9-.7-1.6-.7-1.6-.2.1.4 3.6v22.3c0 .6-.3 1-.7 1.3-.5.3-1.3.4-2.3.4h-1.6c-1 0-1.8-.1-2.3-.4-.4-.3-.7-.7-.7-1.3v-37.6c0-.6.3-1 .7-1.3.5-.3 1.3-.4 2.3-.4h1.6c.9 0 1.5.1 2 .4.4.2.8.5 1 1l8 15.3c.3.6.7 1.5 1.1 2.8.2-1 .5-1.9 1-2.8l8-15.2c.2-.6.6-1 1-1.1.5-.3 1.2-.4 2-.4h1.6c1 0 1.8.1 2.2.4.5.3.7.7.7 1.3v37.6c0 .6-.2 1-.7 1.3-.4.3-1.2.4-2.2.4h-1.5c-1 0-1.8-.1-2.3-.4-.5-.3-.7-.7-.7-1.3v-22.3l.3-3.6h-.2c-.5 1.3-1 2.3-1.5 3.1l-5 9.9c-.3.4-.5.8-.8.9-.3.1-.7.3-1.3.3h-1.3zM766 450.1c-1.6 0-2.5-.4-2.5-1.1l.1-1 9.6-37.4c.2-1 1.3-1.5 3.1-1.5h3.1c1.9 0 3 .5 3.2 1.5l9.5 37.4.1 1c0 .7-.8 1.1-2.4 1.1h-2.3c-1.7 0-2.5-.3-2.7-1l-1.9-8h-10.1l-1.9 8c-.2.7-1 1-2.5 1h-2.3zm15.8-15.2l-3.1-13.6c-.3-1.2-.6-2.6-.7-4.2h-.3a36 36 0 01-.7 4.2l-3.1 13.6h8zM798 450.1c-2 0-3-.6-3-1.7v-37c0-.8.2-1.3.5-1.6.3-.4.9-.6 1.6-.6h9.4c7.8 0 11.7 3.7 11.7 11.1 0 4.6-1.8 8-5.5 9.8v.3c1.6.8 2.8 3 4 6.3L820 448l.2.3v.4c0 .9-1 1.4-3.1 1.4h-1.7c-1.8 0-2.9-.5-3-1.4l-3.3-11.2c-.4-1.3-1-2.2-1.5-2.7-.7-.5-1.6-.8-2.8-.8h-2.2v14.4c0 1.1-1 1.7-3 1.7H798zM807 427c1 0 1.9-.5 2.6-1.5a7 7 0 001.1-4.2c0-1.9-.3-3.3-1-4.2a3.7 3.7 0 00-3-1.2h-4v11.1h4.3zM832.4 450.1c-2 0-3-.6-3-1.7v-32.6h-7c-.6 0-1-.3-1.2-.7-.2-.4-.4-1-.4-1.9v-1.5c0-.8.2-1.5.4-1.9.2-.4.6-.6 1.2-.6h22c.5 0 .9.2 1.2.6.2.4.3 1 .3 2v1.4a4 4 0 01-.3 2c-.3.4-.7.6-1.2.6h-7.1v32.6c0 1.1-1 1.7-3 1.7h-1.9z"/>
  </g>
  <g fill="#333132">
    <path d="M705.7 263.7c-.7 0-1.2-.2-1.5-.6-.3-.2-.5-.8-.5-1.6v-36.4c0-.8.2-1.4.5-1.7.3-.3.8-.5 1.5-.5h17c.5 0 1 .2 1.2.6.2.4.3 1 .3 1.9v1.5c0 .9-.1 1.5-.3 1.9-.3.4-.7.6-1.2.6h-11.2v10.2h10c.5 0 .9.2 1.1.5.3.4.4 1 .4 2v1.5c0 .9-.1 1.4-.4 1.8-.2.4-.6.7-1.1.7h-10v11h11.3c.5 0 .8.2 1 .6.3.4.4 1 .4 2v1.5a4 4 0 01-.3 1.9c-.3.4-.6.6-1.1.6h-17.1zM731 263.7c-.6 0-1.1-.2-1.4-.6-.3-.2-.5-.8-.5-1.6v-36.4c0-.8.2-1.4.5-1.7.3-.3.8-.5 1.5-.5h10.6c5 0 8.6 1.6 11 5 2.5 3.3 3.7 8.5 3.7 15.4 0 7-1.2 12.1-3.7 15.4-2.4 3.3-6 5-11 5H731zm10.4-6.6c2.4 0 4.2-1 5.3-3.2 1.2-2.1 1.8-5.7 1.8-10.6 0-5-.6-8.5-1.8-10.7a5.6 5.6 0 00-5.3-3.2H737v27.7h4.4zM774.6 264c-4.3 0-7.6-1-10-3.1a11.5 11.5 0 01-3.6-9v-27.4c0-1.1 1-1.7 3-1.7h1.7c2 0 3 .6 3 1.7v27.1c0 1.8.5 3.2 1.6 4.3a5.8 5.8 0 004.3 1.7 6 6 0 004.4-1.7 5.7 5.7 0 001.6-4.3v-27.1c0-1.1 1-1.7 3-1.7h1.7c2 0 3 .6 3 1.7v27.4c0 3.9-1.2 6.8-3.6 9a14.5 14.5 0 01-10 3.2zM808.3 264c-5.4 0-9.3-1.6-11.8-5-2.5-3.3-3.7-8.6-3.7-15.8 0-7 1.3-12.1 3.9-15.6 2.5-3.4 6.4-5.1 11.7-5.1 2.2 0 4 .2 5.4.7.6.2 1 .5 1.2 1 .2.3.4.8.3 1.4 0 1.2-.2 2.3-.6 3.3-.5 1-1 1.4-1.8 1.1-1.3-.5-2.7-.8-4.2-.8a6.4 6.4 0 00-6 3.4 22 22 0 00-1.9 10.6c0 4.8.6 8.4 2 10.6a6.5 6.5 0 006.1 3.5 9 9 0 002.3-.2l2.1-.7h.5c.7 0 1.2.4 1.6 1.3.3.8.5 1.9.5 3.1 0 .5-.1 1-.3 1.4-.2.4-.6.7-1.3.9a21.7 21.7 0 01-6 1z"/>
  </g>
  <g fill="#F15B66">
    <path d="M712 187.2c-2 0-3.9-.3-5.7-.9a8.3 8.3 0 01-4.1-2.3c-.5-.6-.8-1.3-.8-2a7 7 0 011-3.3c.5-1.1 1.1-1.7 1.8-1.7.3 0 .8.2 1.5.6l1.5.8c1.5.8 2.9 1.2 4 1.2a6 6 0 003.3-1c1-.5 1.4-1.5 1.4-2.9s-.5-2.6-1.4-3.5c-.8-.8-2.2-1.7-4.2-2.7-2.9-1.7-5-3.4-6.3-5.2-1.3-1.8-2-4.1-2-7.1 0-2.4.5-4.4 1.5-6.2 1-1.8 2.5-3.1 4.4-4.1a15.5 15.5 0 0114 .7c.6.5 1 1.2 1 2 0 1-.3 2.1-.7 3.2-.4 1.1-1 1.7-1.7 1.7l-1.7-.4c-1.5-.6-2.7-1-3.7-1-1.7 0-2.8.4-3.4 1.1-.6.7-.9 1.5-.9 2.4 0 1.4.4 2.5 1.1 3.2.8.7 2 1.5 3.6 2.3l1.5.9c2.7 1.5 4.6 3.2 5.9 5 1.1 1.8 1.7 4.1 1.7 7a13 13 0 01-1.4 6c-1 1.9-2.3 3.4-4.2 4.5-2 1.1-4.3 1.7-7 1.7zM741.2 187.2c-4.4 0-7.8-1.1-10.3-3.3a11.4 11.4 0 01-3.7-9.1v-27.1c0-1.2 1-1.9 3.4-1.9h2.3c2.3 0 3.4.7 3.4 1.9v26.5c0 1.6.4 2.9 1.3 3.9s2.1 1.5 3.6 1.5 2.7-.6 3.6-1.5c.9-1 1.4-2.3 1.4-3.9v-26.5c0-1.2 1-1.9 3.3-1.9h2.3c2.3 0 3.4.7 3.4 1.9v27c0 4-1.2 7-3.7 9.2-2.5 2.2-6 3.3-10.3 3.3zM763.6 186.8c-2.3 0-3.5-.6-3.5-1.8v-36.7c0-.8.2-1.4.6-1.8.4-.4 1-.5 1.8-.5h9.7c3.6 0 6.5.8 8.6 2.6 2.2 1.8 3.3 4.7 3.3 8.8 0 4.6-1.9 7.8-5.6 9.9v.2c1 .5 1.7 1.2 2.4 2.3.7 1.1 1.2 2.3 1.6 3.5l3.4 11.2.2.7c0 1-1.3 1.6-3.6 1.6h-2c-2.1 0-3.3-.5-3.6-1.6l-3-11c-.4-1-.8-1.5-1.2-1.9-.5-.3-1.2-.5-2.2-.5h-1.4V185c0 1.2-1.2 1.8-3.5 1.8h-2zm8.8-23.5c.9 0 1.5-.4 2.2-1.3.6-.8.9-2 .9-3.7 0-1.6-.3-2.8-1-3.6a3 3 0 00-2.3-1.1h-3v9.7h3.2zM792.1 186.8c-2.3 0-3.4-.6-3.4-1.8v-37.3c0-1.2 1.1-1.9 3.4-1.9h1.5c.8 0 1.4.2 1.9.3.5.3.9.7 1.2 1.4l10.4 19a39 39 0 012 4.5l.3-.1c-.3-2-.5-3.6-.5-4.6v-18.6c0-1.2 1.1-1.9 3.4-1.9h1.4c2.2 0 3.4.7 3.4 1.9V185c0 1.2-1.2 1.8-3.4 1.8h-1.1c-.8 0-1.4 0-2-.3-.5-.2-.9-.6-1.2-1.3l-11.1-19.8c-.4-.6-.9-1.8-1.6-3.7l-.3.2c.3 1.8.5 3 .5 4v19c0 1.3-1.1 2-3.4 2h-1.4zM821.8 186.8c-1.8 0-2.8-.4-2.8-1.2 0-.3 0-.7.2-1l9-37.1c.3-1.1 1.4-1.7 3.5-1.7h3.8c2.2 0 3.3.6 3.6 1.7l9 37 .1 1c0 1-.8 1.3-2.5 1.3h-3c-2 0-3-.4-3.2-1.2l-1.5-7h-8.8l-1.6 7c-.2.8-1 1.2-2.7 1.2h-3zm15.2-15.4l-2.6-12.3-.7-4.5h-.3l-.7 4.5-2.5 12.3h6.8zM866.7 173.7c-.6 0-1 0-1.4-.3-.4-.2-.7-.5-1-1l-4.3-8.1-.7-1.5-.5-1.2h-.2l.3 3.2V185c0 .6-.2 1-.7 1.4-.6.3-1.4.4-2.6.4h-2c-1.3 0-2-.1-2.6-.4-.5-.3-.8-.8-.8-1.4v-37.3c0-.6.3-1.2.8-1.5.5-.2 1.3-.4 2.6-.4h1.8c1 0 1.7.2 2.2.4.5.3 1 .7 1.3 1.3l7.2 13.7c.4.7.8 1.6 1.1 2.8.3-1 .6-2 1-2.8l7.3-13.7c.3-.6.7-1 1.3-1.3.5-.2 1.2-.4 2.2-.4h1.8c1.2 0 2 .2 2.6.4.5.3.8.9.8 1.5V185c0 .6-.3 1-.8 1.4-.5.3-1.4.4-2.6.4h-2c-1.2 0-2.1-.1-2.6-.4-.5-.3-.8-.8-.8-1.4v-20.2c0-.9.1-2 .4-3.2h-.2l-1.3 2.7-4.3 8c-.3.6-.6 1-1 1-.3.3-.8.4-1.3.4h-1zM891.7 186.7c-.8 0-1.3-.1-1.7-.6-.3-.3-.5-.9-.5-1.7v-36.1c0-.8.2-1.4.5-1.8.4-.4 1-.5 1.7-.5h17.1c.6 0 1 .2 1.3.7.3.4.4 1.2.4 2.2v1.8c0 1 0 1.7-.4 2.2-.3.5-.7.7-1.3.7h-10.2v8.4h9c.7 0 1 .3 1.4.7.3.5.4 1.3.4 2.2v1.9c0 1-.1 1.7-.4 2.2-.3.4-.7.7-1.3.7h-9.1v9.4h10.3c.6 0 1 .2 1.2.7.3.5.4 1.2.4 2.2v1.8c0 1 0 1.8-.4 2.2-.2.5-.6.7-1.2.7h-17.2zM923 194.8c-1.1 0-1.9-.2-2.3-.4-.6-.3-.8-.7-.8-1.4v-49.3c0-.6.2-1 .8-1.3.4-.3 1.2-.4 2.3-.4h.8a5 5 0 012.4.4c.5.3.7.7.7 1.3V193c0 .7-.2 1-.7 1.4a5 5 0 01-2.4.4h-.8zM946 187.2c-2 0-3.8-.3-5.7-.9a8.3 8.3 0 01-4-2.3c-.6-.6-.8-1.3-.8-2a7 7 0 01.8-3.3c.6-1.1 1.3-1.7 2-1.7.2 0 .8.2 1.5.6l1.4.8c1.5.8 2.9 1.2 4 1.2a6 6 0 003.3-1c1-.5 1.4-1.5 1.4-2.9s-.5-2.6-1.3-3.5c-1-.8-2.3-1.7-4.2-2.7-3-1.7-5-3.4-6.4-5.2-1.3-1.8-2-4.1-2-7.1 0-2.4.5-4.4 1.5-6.2 1.1-1.8 2.6-3.1 4.4-4.1a15.5 15.5 0 0114 .7c.6.5 1 1.2 1 2 0 1-.2 2.1-.7 3.2-.4 1.1-1 1.7-1.6 1.7l-1.7-.4c-1.5-.6-2.8-1-3.8-1-1.6 0-2.8.4-3.3 1.1-.7.7-1 1.5-1 2.4 0 1.4.4 2.5 1.1 3.2.8.7 2 1.5 3.6 2.3l1.6.9c2.6 1.5 4.6 3.2 5.8 5 1.2 1.8 1.7 4.1 1.7 7a13 13 0 01-1.4 6c-.9 1.9-2.3 3.4-4.2 4.5-2 1.1-4.3 1.7-7 1.7zM975.7 187.2c-10.2 0-15.3-7-15.3-20.9 0-13.9 5.1-20.8 15.3-20.8 5 0 8.7 1.7 11.4 5 2.5 3.4 3.8 8.7 3.8 15.8 0 7.2-1.3 12.4-3.8 15.8-2.7 3.4-6.4 5-11.4 5zm0-7.6a5 5 0 003.4-1.2c1-.8 1.6-2.2 2-4 .4-2 .6-4.6.6-8 0-3.4-.2-6.1-.6-8-.4-2-1-3.3-2-4a5 5 0 00-3.3-1.2 5 5 0 00-3.4 1.1c-.9.8-1.6 2.1-2 4-.5 2-.7 4.7-.7 8 0 3.4.2 6.1.7 8 .4 2 1.1 3.3 2 4.1a5 5 0 003.4 1.2zM997.4 186.7c-.7 0-1.3-.1-1.6-.6-.4-.3-.5-.9-.5-1.7v-36.2c0-.7.1-1.3.5-1.7.3-.4.9-.5 1.6-.5h10.5c8.1 0 12.2 3.2 12.2 9.8 0 4.4-1.8 7.6-5.3 9.6l.1.2c2 .6 3.6 1.7 4.7 3.4a11 11 0 011.6 6.3 11 11 0 01-3.3 8.3c-2.2 2-5.5 3.1-9.9 3.1h-10.6zm10.5-24.1c1.2 0 2.2-.5 2.8-1.3.6-.7.9-2 .9-3.7 0-1.7-.3-2.8-.8-3.6-.6-.7-1.5-1-2.8-1h-4.1v9.6h4zm.4 17c1.5 0 2.5-.3 3.2-1.1.7-.9 1-2.2 1-4 0-1.9-.3-3.1-1-4-.6-.7-1.7-1-3.2-1h-4.4v10.2h4.4zM1028.8 186.8c-2.3 0-3.5-.6-3.5-1.8v-36.7c0-.8.2-1.4.6-1.8.4-.4 1-.5 1.8-.5h9.7c3.5 0 6.4.8 8.6 2.6 2.2 1.8 3.3 4.7 3.3 8.8 0 4.6-1.9 7.8-5.6 9.9v.2c1 .5 1.7 1.2 2.4 2.3a13 13 0 011.5 3.5l3.5 11.2c0 .5.2.7.2.7 0 1-1.3 1.6-3.7 1.6h-2c-2 0-3.2-.5-3.5-1.6l-3-11c-.4-1-.8-1.5-1.3-1.9-.4-.3-1.1-.5-2.1-.5h-1.4V185c0 1.2-1.2 1.8-3.5 1.8h-2zm8.8-23.5c.8 0 1.5-.4 2.2-1.3.5-.8.9-2 .9-3.7 0-1.6-.4-2.8-1-3.6a3 3 0 00-2.3-1.1h-3.1v9.7h3.3zM1056.4 186.7c-.7 0-1.3-.1-1.6-.6-.3-.3-.5-.9-.5-1.7v-36.1c0-.8.2-1.4.5-1.8.4-.4.9-.5 1.6-.5h17.2c.6 0 1 .2 1.3.7.3.4.4 1.2.4 2.2v1.8c0 1-.1 1.7-.4 2.2-.3.5-.7.7-1.3.7h-10.2v8.4h9c.6 0 1 .3 1.3.7.3.5.4 1.3.4 2.2v1.9c0 1 0 1.7-.4 2.2-.3.4-.7.7-1.3.7h-9v9.4h10.3c.5 0 1 .2 1.2.7.3.5.4 1.2.4 2.2v1.8c0 1-.1 1.8-.4 2.2-.2.5-.7.7-1.2.7h-17.3zM1082.8 186.8c-2.3 0-3.4-.6-3.4-1.8v-37.3c0-1.2 1-1.9 3.4-1.9h1.5c.7 0 1.4.2 1.8.3.5.3 1 .7 1.2 1.4l10.5 19 2 4.5.2-.1a37 37 0 01-.5-4.6v-18.6c0-1.2 1.1-1.9 3.4-1.9h1.4c2.3 0 3.4.7 3.4 1.9V185c0 1.2-1.1 1.8-3.4 1.8h-1.1c-.8 0-1.4 0-2-.3-.5-.2-.9-.6-1.1-1.3l-11.2-19.8a26 26 0 01-1.5-3.7l-.3.2c.3 1.8.4 3 .4 4v19c0 1.3-1 2-3.3 2h-1.4zM1127 187.2c-10.2 0-15.2-7-15.2-20.9 0-13.9 5-20.8 15.2-20.8 5 0 8.8 1.7 11.4 5 2.5 3.4 3.8 8.7 3.8 15.8 0 7.2-1.3 12.4-3.8 15.8-2.6 3.4-6.4 5-11.4 5zm0-7.6a5 5 0 003.5-1.2c.8-.8 1.5-2.2 1.9-4 .4-2 .6-4.6.6-8 0-3.4-.2-6.1-.6-8-.4-2-1-3.3-2-4a5 5 0 00-3.3-1.2 5 5 0 00-3.4 1.1c-.9.8-1.6 2.1-2 4-.4 2-.7 4.7-.7 8 0 3.4.3 6.1.7 8 .4 2 1.1 3.3 2 4.1a5 5 0 003.4 1.2zM1162.8 173.7c-.6 0-1 0-1.4-.3-.4-.2-.7-.5-1-1l-4.3-8.1-.6-1.5-.6-1.2h-.2l.3 3.2V185c0 .6-.2 1-.7 1.4-.5.3-1.4.4-2.6.4h-2c-1.2 0-2-.1-2.6-.4-.5-.3-.8-.8-.8-1.4v-37.3c0-.6.3-1.2.8-1.5.5-.2 1.4-.4 2.6-.4h1.8c1 0 1.7.2 2.2.4.5.3 1 .7 1.3 1.3l7.2 13.7c.4.7.8 1.6 1.1 2.8l1-2.8 7.3-13.7c.3-.6.7-1 1.3-1.3.5-.2 1.3-.4 2.2-.4h1.8c1.2 0 2 .2 2.6.4.5.3.8.9.8 1.5V185c0 .6-.3 1-.8 1.4-.5.3-1.4.4-2.6.4h-2c-1.2 0-2-.1-2.6-.4-.5-.3-.8-.8-.8-1.4v-20.2c0-.9.1-2 .4-3.2h-.2l-1.3 2.7-4.3 8c-.3.6-.6 1-1 1-.3.3-.7.4-1.3.4h-1zM1187.8 186.7c-.8 0-1.3-.1-1.7-.6-.3-.3-.5-.9-.5-1.7v-36.1c0-.8.2-1.4.5-1.8.4-.4 1-.5 1.7-.5h17.2c.5 0 1 .2 1.2.7.3.4.5 1.2.5 2.2v1.8c0 1-.2 1.7-.5 2.2-.3.5-.7.7-1.2.7h-10.3v8.4h9c.7 0 1 .3 1.4.7.3.5.4 1.3.4 2.2v1.9c0 1-.1 1.7-.4 2.2-.3.4-.7.7-1.3.7h-9v9.4h10.2c.6 0 1 .2 1.2.7.3.5.5 1.2.5 2.2v1.8c0 1-.2 1.8-.5 2.2-.2.5-.6.7-1.2.7h-17.2z"/>
  </g>
  <g fill="#F15B66">
    <path d="M706.3 373.2c-2.2 0-3.4-.7-3.4-1.9V334c0-1.2 1.2-1.8 3.4-1.8h1.5c.8 0 1.4 0 1.9.3.5.2.9.7 1.2 1.3l10.5 19a39 39 0 012 4.5h.2c-.3-2.1-.5-3.6-.5-4.7V334c0-1.2 1.1-1.8 3.4-1.8h1.4c2.2 0 3.4.6 3.4 1.8v37.3c0 1.2-1.2 1.9-3.4 1.9h-1.1c-.8 0-1.4-.1-2-.4-.5-.2-.9-.6-1.2-1.3l-11.1-19.8c-.4-.5-.9-1.8-1.6-3.7l-.3.2c.3 1.8.5 3 .5 4v19.1c0 1.2-1.1 1.9-3.4 1.9h-1.4zM736 373.2c-1.8 0-2.8-.4-2.8-1.3 0-.3 0-.6.2-1l9-37.1c.3-1.1 1.4-1.6 3.5-1.6h3.8c2.2 0 3.3.5 3.6 1.6l9 37 .1 1c0 1-.8 1.4-2.5 1.4h-3c-2 0-3-.4-3.2-1.2l-1.5-7.2h-8.8l-1.6 7.2c-.2.8-1 1.2-2.7 1.2h-3zm15.2-15.5l-2.6-12.3-.7-4.4h-.3l-.7 4.4-2.5 12.3h6.8zM780.9 360c-.6 0-1 0-1.4-.3-.4-.2-.7-.5-1-1l-4.3-8-.7-1.5-.5-1.3h-.2l.3 3.3v20.1c0 .7-.2 1.1-.7 1.4-.5.3-1.4.5-2.6.5h-2c-1.2 0-2-.2-2.6-.5-.5-.3-.8-.7-.8-1.4V334c0-.6.3-1.1.8-1.4.5-.3 1.4-.4 2.6-.4h1.8c1 0 1.7 0 2.2.3.5.3 1 .7 1.3 1.3l7.2 13.7c.4.7.8 1.6 1.1 2.8.3-1 .6-2 1-2.8l7.3-13.7c.3-.6.7-1 1.3-1.3.5-.2 1.2-.3 2.2-.3h1.8c1.2 0 2 0 2.6.4.5.3.8.8.8 1.4v37.3c0 .7-.3 1.1-.8 1.4-.5.3-1.4.5-2.6.5h-2c-1.2 0-2.1-.2-2.6-.5s-.8-.7-.8-1.4v-20.1c0-1 .1-2 .4-3.2l-.2-.1a26 26 0 01-1.3 2.7l-4.3 8c-.3.6-.6 1-1 1.1-.3.3-.7.4-1.3.4h-1zM805.9 373c-.8 0-1.3-.1-1.7-.5-.3-.4-.5-1-.5-1.8v-36c0-.9.2-1.5.5-1.9.4-.3 1-.5 1.7-.5H823c.6 0 1 .2 1.3.7.3.5.4 1.2.4 2.2v1.8c0 1 0 1.8-.4 2.2-.3.5-.7.7-1.3.7h-10.2v8.5h9c.7 0 1 .2 1.4.7.3.4.4 1.2.4 2.2v1.8c0 1-.1 1.7-.4 2.2-.3.5-.7.7-1.3.7h-9.1v9.4h10.3c.6 0 1 .3 1.2.7.3.5.4 1.3.4 2.2v1.8c0 1 0 1.8-.4 2.3-.2.4-.6.7-1.2.7H806zM837.2 381.1c-1.1 0-1.9-.1-2.3-.4-.5-.3-.8-.7-.8-1.4v-49.2c0-.7.3-1 .8-1.4.4-.3 1.2-.4 2.3-.4h.8a5 5 0 012.4.4c.5.3.7.7.7 1.4v49.2c0 .7-.2 1.1-.7 1.4a5 5 0 01-2.4.4h-.8zM854.6 373.2c-2.3 0-3.4-.7-3.4-1.9V334c0-1.2 1-1.8 3.4-1.8h1.5c.7 0 1.4 0 1.8.3.5.2 1 .7 1.2 1.3l10.5 19a39 39 0 012 4.5h.2c-.3-2.1-.5-3.6-.5-4.7V334c0-1.2 1.1-1.8 3.4-1.8h1.4c2.3 0 3.4.6 3.4 1.8v37.3c0 1.2-1.1 1.9-3.4 1.9H875c-.8 0-1.4-.1-2-.4-.4-.2-.8-.6-1.1-1.3l-11.2-19.8-1.5-3.7-.3.2c.3 1.8.4 3 .4 4v19.1c0 1.2-1 1.9-3.3 1.9h-1.4zM898.8 373.5c-10.2 0-15.2-7-15.2-20.8 0-14 5-20.9 15.2-20.9 5 0 8.8 1.7 11.4 5 2.5 3.5 3.8 8.7 3.8 15.9 0 7.1-1.3 12.4-3.8 15.8-2.6 3.3-6.4 5-11.4 5zm0-7.6a5 5 0 003.5-1.2c.8-.7 1.5-2.1 1.9-4 .4-2 .6-4.6.6-8 0-3.4-.2-6-.6-8-.4-2-1-3.3-2-4a5 5 0 00-3.3-1.2 5 5 0 00-3.4 1.2c-.9.7-1.6 2-2 4-.4 2-.7 4.6-.7 8 0 3.4.3 6 .7 8 .4 1.9 1.1 3.3 2 4a5 5 0 003.4 1.2zM934.6 360c-.6 0-1 0-1.4-.3-.4-.2-.6-.5-1-1l-4.2-8-.7-1.5-.6-1.3h-.2l.3 3.3v20.1c0 .7-.2 1.1-.7 1.4-.5.3-1.4.5-2.6.5h-2c-1.2 0-2-.2-2.6-.5-.5-.3-.8-.7-.8-1.4V334c0-.6.3-1.1.8-1.4.5-.3 1.4-.4 2.6-.4h1.8c1 0 1.7 0 2.2.3.5.3 1 .7 1.3 1.3l7.2 13.7c.4.7.8 1.6 1.1 2.8l1-2.8 7.3-13.7c.3-.6.7-1 1.3-1.3.5-.2 1.2-.3 2.2-.3h1.8c1.2 0 2 0 2.6.4.5.3.8.8.8 1.4v37.3c0 .7-.3 1.1-.8 1.4-.5.3-1.4.5-2.6.5h-2c-1.2 0-2-.2-2.6-.5-.5-.3-.8-.7-.8-1.4v-20.1c0-1 .1-2 .4-3.2l-.2-.1a26 26 0 01-1.3 2.7l-4.3 8a2.4 2.4 0 01-2.3 1.5h-1zM959.6 373c-.8 0-1.3-.1-1.7-.5-.3-.4-.5-1-.5-1.8v-36c0-.9.2-1.5.5-1.9.4-.3 1-.5 1.7-.5h17.2c.5 0 1 .2 1.2.7.3.5.5 1.2.5 2.2v1.8c0 1-.2 1.8-.5 2.2-.2.5-.7.7-1.2.7h-10.3v8.5h9.1c.6 0 1 .2 1.3.7.3.4.4 1.2.4 2.2v1.8c0 1-.1 1.7-.4 2.2-.3.5-.7.7-1.3.7h-9v9.4h10.2c.6 0 1 .3 1.2.7.3.5.5 1.3.5 2.2v1.8c0 1-.2 1.8-.5 2.3-.2.4-.6.7-1.2.7h-17.2z"/>
  </g>
  <g fill="#F15B66">
    <path d="M706.3 535.1c-2.2 0-3.4-.6-3.4-1.9V496c0-1.3 1.2-2 3.4-2h1.5c.8 0 1.4.2 1.9.4s.9.7 1.2 1.3l10.5 19a39 39 0 012 4.6l.2-.2c-.3-2-.5-3.5-.5-4.6V496c0-1.3 1.1-2 3.4-2h1.4c2.2 0 3.4.7 3.4 2v37.2c0 1.3-1.2 1.9-3.4 1.9h-1.1c-.8 0-1.4-.1-2-.4-.5-.1-.9-.6-1.2-1.2l-11.1-19.8c-.4-.6-.9-1.8-1.6-3.8l-.3.2c.3 1.8.5 3.1.5 4v19.1c0 1.3-1.1 1.9-3.4 1.9h-1.4zM736 535.1c-1.8 0-2.8-.4-2.8-1.3 0-.3 0-.6.2-1l9-37c.3-1.2 1.4-1.7 3.5-1.7h3.8c2.2 0 3.3.5 3.6 1.6l9 37 .1 1.1c0 .9-.8 1.3-2.5 1.3h-3c-2 0-3-.4-3.2-1.2l-1.5-7.1h-8.8l-1.6 7c-.2.9-1 1.3-2.7 1.3h-3zm15.2-15.4l-2.6-12.4-.7-4.4h-.3l-.7 4.4-2.5 12.4h6.8zM771.9 535.1c-2.3 0-3.4-.6-3.4-1.9v-31.4H762c-.6 0-1-.2-1.3-.7-.3-.4-.4-1.2-.4-2.2v-1.8c0-1 .1-1.7.4-2.2.3-.5.7-.7 1.3-.7h22.1c.7 0 1 .2 1.4.7.3.5.4 1.2.4 2.2v1.8c0 1-.1 1.8-.4 2.2-.3.5-.7.7-1.4.7h-6.5v31.4c0 1.3-1 1.9-3.4 1.9H772zM791.5 535.2c-2.2 0-3.3-.7-3.3-2V496c0-1.3 1-2 3.3-2h2.5c2.2 0 3.3.7 3.3 2v37.2c0 1.3-1.1 2-3.3 2h-2.5zM816.7 535.4c-10.2 0-15.3-6.9-15.3-20.8 0-14 5.1-20.9 15.3-20.9 5 0 8.7 1.7 11.4 5.1 2.5 3.4 3.8 8.6 3.8 15.8 0 7.2-1.3 12.4-3.8 15.8-2.7 3.4-6.4 5-11.4 5zm0-7.6a5 5 0 003.4-1.1c1-.8 1.6-2.2 2-4.1.4-2 .6-4.6.6-8 0-3.4-.2-6-.6-8-.4-2-1-3.2-2-4a5 5 0 00-3.3-1.2 5 5 0 00-3.4 1.2c-.9.8-1.6 2-2 4-.5 2-.7 4.6-.7 8 0 3.4.2 6 .7 8 .4 1.9 1.1 3.3 2 4a5 5 0 003.4 1.2zM839.4 535.1c-2.3 0-3.4-.6-3.4-1.9V496c0-1.3 1-2 3.4-2h1.5c.7 0 1.4.2 1.8.4.5.2 1 .7 1.2 1.3l10.5 19c.5 1 1.2 2.5 2 4.6l.2-.2c-.3-2-.5-3.5-.5-4.6V496c0-1.3 1.1-2 3.4-2h1.4c2.3 0 3.4.7 3.4 2v37.2c0 1.3-1.1 1.9-3.4 1.9h-1.1c-.8 0-1.4-.1-2-.4-.4-.1-.9-.6-1.1-1.2l-11.2-19.8-1.5-3.8-.3.2c.3 1.8.4 3.1.4 4v19.1c0 1.3-1 1.9-3.3 1.9h-1.4zM869 535.1c-1.8 0-2.7-.4-2.7-1.3l.1-1 9-37c.3-1.2 1.5-1.7 3.6-1.7h3.8c2.1 0 3.3.5 3.6 1.6l9 37v1.1c0 .9-.8 1.3-2.5 1.3h-3c-2 0-3-.4-3.1-1.2l-1.5-7.1h-8.9l-1.6 7c-.1.9-1 1.3-2.7 1.3h-3zm15.3-15.4l-2.7-12.4-.7-4.4h-.2l-.7 4.4-2.6 12.4h6.9zM899.9 535c-.8 0-1.3-.2-1.7-.6-.3-.4-.5-1-.5-1.8V496c0-1.3 1.1-2 3.4-2h2.3c2.3 0 3.4.7 3.4 2v31.4h8.7c.6 0 1 .2 1.3.6.3.5.4 1.3.4 2.3v1.8c0 1 0 1.7-.4 2.2-.3.4-.7.7-1.3.7h-15.6zM922.8 535.2c-2.2 0-3.4-.7-3.4-2V496c0-1.3 1.2-2 3.4-2h2.5c2.2 0 3.3.7 3.3 2v37.2c0 1.3-1.1 2-3.3 2h-2.5zM942.5 535.1c-2.3 0-3.4-.6-3.4-1.9v-31.4h-6.4c-.6 0-1-.2-1.3-.7-.3-.4-.4-1.2-.4-2.2v-1.8c0-1 .1-1.7.4-2.2.3-.5.7-.7 1.3-.7h22.1c.6 0 1 .2 1.3.7.3.5.4 1.2.4 2.2v1.8c0 1 0 1.8-.4 2.2-.2.5-.7.7-1.3.7h-6.5v31.4c0 1.3-1.1 1.9-3.4 1.9h-2.4z"/>
    <path d="M968.8 535.1c-2.2 0-3.4-.6-3.4-1.9v-15.8l-9-20.7-.3-.7-.2-.7c0-.4.3-.7 1-1l2.5-.2h3c1.9 0 3 .3 3.2 1.1l4.5 14.3 4.5-14.3c.1-.4.5-.7 1-.9.5-.2 1.3-.2 2.2-.2h2.5c2.4 0 3.6.4 3.6 1.2 0 .4 0 .8-.4 1.4l-9 20.9v15.6c0 1.3-1.1 1.9-3.4 1.9h-2.3zM994.5 543c-1 0-1.8-.1-2.3-.4-.5-.3-.8-.7-.8-1.3V492c0-.6.3-1 .8-1.3.5-.3 1.2-.5 2.3-.5h.8a5 5 0 012.4.5c.5.2.7.7.7 1.3v49.3c0 .6-.2 1-.7 1.3a5 5 0 01-2.4.4h-.8zM1011.6 535.1c-2.3 0-3.4-.6-3.4-1.9V496c0-1.3 1.1-2 3.4-2h1.5c.8 0 1.4.2 1.9.4.4.2.8.7 1.1 1.3l10.5 19c.5 1 1.2 2.5 2 4.6l.2-.2c-.3-2-.4-3.5-.4-4.6V496c0-1.3 1-2 3.3-2h1.4c2.3 0 3.4.7 3.4 2v37.2c0 1.3-1 1.9-3.4 1.9h-1c-.8 0-1.5-.1-2-.4-.5-.1-1-.6-1.2-1.2l-11.1-19.8c-.4-.6-1-1.8-1.6-3.8l-.3.2c.3 1.8.5 3.1.5 4v19.1c0 1.3-1.1 1.9-3.4 1.9h-1.4zM1041.3 535.1c-1.9 0-2.8-.4-2.8-1.3 0-.3 0-.6.2-1l9-37c.2-1.2 1.4-1.7 3.5-1.7h3.8c2.1 0 3.3.5 3.6 1.6l9 37v1.1c0 .9-.7 1.3-2.4 1.3h-3.1c-1.9 0-3-.4-3.1-1.2l-1.5-7.1h-8.9l-1.5 7c-.2.9-1 1.3-2.8 1.3h-3zm15.2-15.4l-2.6-12.4c-.3-1.4-.6-2.8-.7-4.4h-.3l-.7 4.4-2.6 12.4h6.9zM1084.3 535.4c-5.4 0-9.3-1.6-11.8-5-2.5-3.3-3.7-8.6-3.7-16 0-7 1.3-12.1 3.8-15.5 2.7-3.5 6.6-5.2 12-5.2 1.8 0 3.5.3 5.1.7 1.2.3 1.8 1.1 1.8 2.5s-.2 2.8-.8 4c-.5 1.1-1.2 1.6-2 1.3a12 12 0 00-3.7-.6c-2.3 0-4 1-5.1 3.2a21 21 0 00-1.8 9.7c0 4.4.6 7.6 1.8 9.8 1 2.1 3 3.2 5.4 3.2l1.9-.1 2-.5h.5c.8 0 1.3.4 1.8 1.4.3 1 .5 2.3.5 3.8 0 .6 0 1-.3 1.5-.3.4-.7.7-1.4 1l-2.6.6-3.4.2zM1098.6 535.2c-2.3 0-3.4-.7-3.4-2V496c0-1.3 1.1-2 3.4-2h2.5c2.2 0 3.3.7 3.3 2v37.2c0 1.3-1.1 2-3.3 2h-2.5zM1123.8 535.4c-10.2 0-15.3-6.9-15.3-20.8 0-14 5-20.9 15.3-20.9 5 0 8.7 1.7 11.3 5.1 2.6 3.4 3.9 8.6 3.9 15.8 0 7.2-1.3 12.4-3.9 15.8-2.6 3.4-6.4 5-11.3 5zm0-7.6a5 5 0 003.4-1.1c.9-.8 1.5-2.2 2-4.1.3-2 .6-4.6.6-8 0-3.4-.3-6-.7-8-.4-2-1-3.2-1.9-4a5 5 0 00-3.4-1.2 5 5 0 00-3.3 1.2c-1 .8-1.6 2-2 4-.5 2-.7 4.6-.7 8 0 3.4.2 6 .7 8 .4 1.9 1 3.3 2 4a5 5 0 003.3 1.2zM1146.4 535.1c-2.2 0-3.4-.6-3.4-1.9V496c0-1.3 1.2-2 3.4-2h1.5c.8 0 1.4.2 2 .4.4.2.8.7 1 1.3l10.6 19c.5 1 1.2 2.5 2 4.6l.2-.2c-.3-2-.5-3.5-.5-4.6V496c0-1.3 1.1-2 3.4-2h1.4c2.3 0 3.4.7 3.4 2v37.2c0 1.3-1.1 1.9-3.4 1.9h-1.1c-.8 0-1.4-.1-2-.4-.5-.1-.9-.6-1.2-1.2l-11-19.8c-.4-.6-1-1.8-1.7-3.8l-.3.2c.3 1.8.5 3.1.5 4v19.1c0 1.3-1.1 1.9-3.4 1.9h-1.4zM1176.1 535.1c-1.8 0-2.8-.4-2.8-1.3l.2-1 9-37c.3-1.2 1.4-1.7 3.5-1.7h3.8c2.2 0 3.4.5 3.6 1.6l9 37 .1 1.1c0 .9-.8 1.3-2.5 1.3h-3c-2 0-3-.4-3.2-1.2l-1.5-7.1h-8.8l-1.6 7c-.2.9-1 1.3-2.7 1.3h-3zm15.2-15.4l-2.6-12.4-.7-4.4h-.3l-.7 4.4-2.5 12.4h6.8zM1207 535c-.8 0-1.3-.2-1.7-.6-.3-.4-.5-1-.5-1.8V496c0-1.3 1.1-2 3.4-2h2.3c2.3 0 3.4.7 3.4 2v31.4h8.7c.6 0 1 .2 1.3.6.3.5.4 1.3.4 2.3v1.8c0 1-.1 1.7-.4 2.2-.3.4-.7.7-1.3.7H1207zM1229.9 535.2c-2.3 0-3.4-.7-3.4-2V496c0-1.3 1.1-2 3.4-2h2.4c2.3 0 3.4.7 3.4 2v37.2c0 1.3-1.1 2-3.4 2h-2.4zM1243 535c-.7 0-1.2-.2-1.6-.6-.3-.4-.5-1-.5-1.8v-36c0-.9.2-1.5.5-1.9.4-.3 1-.5 1.7-.5h11c5.1 0 8.8 1.7 11.2 5 2.4 3.5 3.6 8.6 3.6 15.4 0 6.8-1.2 12-3.7 15.3-2.3 3.4-6 5-11 5H1243zm10.8-7.6c2 0 3.6-1 4.5-3 .8-1.9 1.3-5.1 1.3-9.8 0-4.7-.5-8-1.3-10-1-1.8-2.4-2.8-4.5-2.8h-3.7v25.6h3.7zM1272.8 535.1c-1.8 0-2.8-.4-2.8-1.3 0-.3 0-.6.2-1l9-37c.3-1.2 1.4-1.7 3.5-1.7h3.8c2.2 0 3.3.5 3.6 1.6l9 37 .1 1.1c0 .9-.8 1.3-2.5 1.3h-3c-2 0-3-.4-3.2-1.2l-1.5-7.1h-8.8l-1.6 7c-.2.9-1 1.3-2.7 1.3h-3zm15.2-15.4l-2.6-12.4-.7-4.4h-.3l-.7 4.4-2.5 12.4h6.8zM1303.6 535c-.7 0-1.2-.2-1.6-.6-.3-.4-.5-1-.5-1.8v-36c0-.9.2-1.5.5-1.9.4-.3.9-.5 1.6-.5h11.1c5 0 8.8 1.7 11.1 5 2.5 3.5 3.6 8.6 3.6 15.4 0 6.8-1.1 12-3.6 15.3-2.3 3.4-6 5-11 5h-11.2zm10.8-7.6c2 0 3.6-1 4.4-3a26 26 0 001.4-9.8c0-4.7-.5-8-1.4-10-.8-1.8-2.3-2.8-4.4-2.8h-3.7v25.6h3.7zM1336 535c-.7 0-1.3-.2-1.6-.6-.4-.4-.5-1-.5-1.8v-36c0-.9.1-1.5.5-1.9.3-.3.9-.5 1.6-.5h17.2c.6 0 1 .2 1.3.7.3.5.4 1.2.4 2.2v1.8c0 1-.1 1.8-.4 2.2-.3.5-.7.7-1.3.7H1343v8.5h9.1c.6 0 1 .2 1.3.7.3.4.4 1.2.4 2.2v1.8c0 1 0 1.7-.4 2.2-.3.5-.7.7-1.3.7h-9v9.5h10.3c.5 0 1 .2 1.2.6.3.5.4 1.3.4 2.3v1.8c0 1-.1 1.7-.4 2.2-.3.4-.7.7-1.2.7H1336z"/>
  </g>
  <g fill="#F15B66">
    <path d="M705.4 711.5c-.8 0-1.3-.2-1.6-.6-.4-.4-.6-1-.6-1.8v-36c0-.9.2-1.5.6-1.9.3-.3.8-.5 1.6-.5h11c5.1 0 8.9 1.7 11.2 5 2.4 3.4 3.6 8.6 3.6 15.4 0 6.8-1.2 12-3.6 15.3-2.3 3.4-6 5-11.1 5h-11.1zm10.8-7.7c2 0 3.5-1 4.4-2.9.9-1.9 1.3-5.2 1.3-9.8 0-4.7-.4-8-1.3-10-.9-1.8-2.4-2.8-4.4-2.8h-3.8v25.5h3.8zM735.2 711.6c-2 0-2.8-.4-2.8-1.3l.1-1 9-37c.3-1.2 1.5-1.7 3.6-1.7h3.7c2.2 0 3.4.5 3.7 1.6l9 37v1.1c0 .9-.8 1.3-2.5 1.3h-3c-2 0-3-.4-3.1-1.2l-1.6-7.1h-8.8l-1.6 7c-.2.9-1 1.3-2.7 1.3h-3zm15.2-15.5l-2.7-12.3-.7-4.4h-.3c-.1 1.5-.4 3-.7 4.4l-2.5 12.3h6.9zM771 711.6c-2.3 0-3.4-.7-3.4-1.9v-31.4h-6.5c-.5 0-1-.2-1.2-.7-.3-.4-.5-1.2-.5-2.2v-1.8c0-1 .2-1.7.5-2.2.2-.5.7-.7 1.2-.7h22.2c.6 0 1 .2 1.3.7.3.5.4 1.2.4 2.2v1.8c0 1-.1 1.8-.4 2.2-.3.5-.7.7-1.3.7h-6.6v31.4c0 1.2-1 1.9-3.3 1.9H771zM789.8 711.5c-.8 0-1.3-.2-1.6-.6-.4-.4-.6-1-.6-1.8v-36c0-.9.2-1.5.6-1.9.3-.3.8-.5 1.6-.5H807c.6 0 1 .2 1.3.7.2.5.4 1.2.4 2.2v1.8c0 1-.2 1.8-.4 2.2-.3.5-.7.7-1.3.7h-10.3v8.5h9.1c.6 0 1 .2 1.3.7.3.4.4 1.2.4 2.2v1.8c0 1-.1 1.7-.4 2.2-.3.5-.7.7-1.3.7h-9v9.4H807c.6 0 1 .3 1.3.7.2.5.4 1.3.4 2.2v1.9c0 1-.2 1.7-.4 2.2-.3.4-.7.7-1.3.7h-17.2zM833.4 712c-10.2 0-15.2-7-15.2-21 0-13.8 5-20.8 15.2-20.8 5 0 8.8 1.7 11.4 5 2.5 3.5 3.8 8.7 3.8 15.9 0 7.1-1.3 12.4-3.8 15.8-2.6 3.3-6.4 5-11.4 5zm0-7.7a5 5 0 003.5-1.2c.8-.7 1.5-2.1 1.9-4 .4-2 .6-4.6.6-8 0-3.4-.2-6-.6-8-.4-2-1-3.3-2-4a5 5 0 00-3.3-1.2 5 5 0 00-3.4 1.2c-.9.7-1.6 2-2 4-.4 2-.7 4.6-.7 8 0 3.4.3 6 .7 8 .4 1.9 1.1 3.3 2 4a5 5 0 003.4 1.2zM856.4 711.6c-2.3 0-3.4-.7-3.4-1.9V673c0-.8.2-1.4.5-1.8.4-.3.9-.5 1.6-.5h16c.6 0 1 .2 1.3.7.3.5.5 1.2.5 2.2v1.8c0 1-.2 1.8-.5 2.2-.2.5-.7.7-1.2.7H862v9.7h8.5c.6 0 1 .2 1.3.7.3.5.4 1.2.4 2.2v1.8c0 1 0 1.8-.4 2.2-.3.5-.7.7-1.3.7h-8.5v14.1c0 1.2-1.1 1.9-3.4 1.9h-2.3zM885.3 711.5c-.8 0-1.3-.2-1.6-.6-.4-.4-.6-1-.6-1.8V673c0-.8.2-1.4.6-1.8.3-.3.8-.5 1.6-.5h10.4c8.2 0 12.2 3.3 12.2 9.8 0 4.4-1.7 7.6-5.2 9.6v.3c2 .6 3.6 1.7 4.7 3.4a11 11 0 011.7 6.2 11 11 0 01-3.3 8.3c-2.3 2.1-5.5 3.2-10 3.2h-10.5zm10.5-24.2c1.2 0 2.1-.4 2.8-1.2.5-.8.8-2 .8-3.8 0-1.6-.3-2.8-.8-3.6-.6-.7-1.5-1-2.7-1h-4.1v9.6h4zm.4 17.1c1.4 0 2.5-.4 3.2-1.2.6-.8 1-2.2 1-4 0-1.8-.4-3.1-1-3.9-.7-.7-1.8-1-3.2-1h-4.4v10.1h4.4zM916.4 711.6c-2.3 0-3.4-.6-3.4-1.9v-37.3c0-1.2 1.1-1.9 3.4-1.9h2.4c2.2 0 3.3.7 3.3 2v37.2c0 1.3-1 2-3.3 2h-2.4zM930.6 711.6c-2.3 0-3.5-.7-3.5-1.9V673c0-.8.2-1.4.6-1.8.4-.3 1-.5 1.8-.5h9.7c3.5 0 6.5.9 8.6 2.6 2.2 1.8 3.3 4.7 3.3 8.9 0 4.5-1.9 7.8-5.6 9.8v.2c1 .5 1.7 1.3 2.4 2.4.7 1 1.2 2.2 1.5 3.5l3.5 11.2.2.7c0 1-1.3 1.5-3.7 1.5h-2c-2 0-3.2-.5-3.5-1.5l-3-11.1c-.4-.9-.8-1.5-1.2-1.8-.5-.4-1.2-.5-2.2-.5h-1.4v13.1c0 1.2-1.2 1.9-3.5 1.9h-2zm8.8-23.6c.8 0 1.5-.4 2.2-1.2.6-.9.9-2.1.9-3.8 0-1.6-.3-2.8-1-3.6a3 3 0 00-2.3-1H936v9.6h3.3zM964.6 711.6c-2.2 0-3.3-.7-3.3-1.9v-31.4h-6.5c-.6 0-1-.2-1.3-.7-.3-.4-.4-1.2-.4-2.2v-1.8c0-1 .1-1.7.4-2.2.3-.5.7-.7 1.3-.7h22.1c.7 0 1 .2 1.4.7.3.5.4 1.2.4 2.2v1.8c0 1-.1 1.8-.4 2.2-.3.5-.7.7-1.4.7h-6.5v31.4c0 1.2-1.1 1.9-3.4 1.9h-2.4zM984.7 711.6c-2.3 0-3.4-.7-3.4-1.9v-37.3c0-1.2 1.1-1.8 3.4-1.8h2.4c2.2 0 3.3.6 3.3 1.8v14.4h10v-14.4c0-1.2 1.1-1.8 3.4-1.8h2.4c2.2 0 3.3.6 3.3 1.8v37.3c0 1.2-1 1.9-3.3 1.9h-2.4c-2.3 0-3.4-.7-3.4-1.9v-15.2h-10v15.2c0 1.2-1 1.9-3.3 1.9h-2.4zM1023.5 719.5c-1.1 0-1.9-.1-2.4-.4-.5-.3-.7-.7-.7-1.3v-49.3c0-.7.2-1 .7-1.4.5-.3 1.3-.4 2.4-.4h.8a5 5 0 012.4.4c.4.3.7.7.7 1.4v49.3c0 .6-.3 1-.7 1.3a5 5 0 01-2.4.4h-.8zM1039.6 711.5c-.8 0-1.3-.2-1.6-.6-.4-.4-.6-1-.6-1.8v-36c0-.9.2-1.5.6-1.9.3-.3.8-.5 1.6-.5h11c5.1 0 8.9 1.7 11.2 5 2.4 3.4 3.6 8.6 3.6 15.4 0 6.8-1.2 12-3.6 15.3-2.3 3.4-6 5-11.1 5h-11.1zm10.8-7.7c2 0 3.5-1 4.4-2.9a26 26 0 001.3-9.8c0-4.7-.4-8-1.3-10-.9-1.8-2.4-2.8-4.4-2.8h-3.8v25.5h3.8zM1069.4 711.6c-2 0-2.8-.4-2.8-1.3l.1-1 9-37c.3-1.2 1.5-1.7 3.6-1.7h3.8c2.1 0 3.3.5 3.6 1.6l9 37v1.1c0 .9-.8 1.3-2.5 1.3h-3c-2 0-3-.4-3.1-1.2l-1.5-7.1h-8.9l-1.6 7c-.1.9-1 1.3-2.7 1.3h-3zm15.2-15.5l-2.7-12.3-.7-4.4h-.3c-.1 1.5-.4 3-.7 4.4l-2.5 12.3h6.9zM1105.2 711.6c-2.3 0-3.4-.7-3.4-1.9v-31.4h-6.5c-.5 0-1-.2-1.3-.7-.2-.4-.3-1.2-.3-2.2v-1.8c0-1 0-1.7.3-2.2.3-.5.8-.7 1.3-.7h22.2c.6 0 1 .2 1.3.7.3.5.4 1.2.4 2.2v1.8c0 1-.1 1.8-.4 2.2-.3.5-.7.7-1.3.7h-6.6v31.4c0 1.2-1 1.9-3.3 1.9h-2.4zM1119.9 711.6c-2 0-2.8-.4-2.8-1.3l.1-1 9-37c.3-1.2 1.5-1.7 3.6-1.7h3.7c2.2 0 3.4.5 3.7 1.6l9 37v1.1c0 .9-.8 1.3-2.5 1.3h-3c-2 0-3-.4-3.1-1.2l-1.5-7.1h-8.9l-1.6 7c-.1.9-1 1.3-2.7 1.3h-3zM1135 696l-2.7-12.3-.7-4.4h-.3c-.1 1.5-.4 3-.7 4.4l-2.5 12.3h6.9zM1156.9 711.5c-.8 0-1.3-.2-1.6-.6-.4-.4-.5-1-.5-1.8v-36c0-.9.1-1.5.5-1.9.3-.3.8-.5 1.6-.5h11c5.1 0 8.9 1.7 11.2 5 2.4 3.4 3.6 8.6 3.6 15.4 0 6.8-1.2 12-3.6 15.3-2.3 3.4-6 5-11.1 5h-11.1zm10.8-7.7c2 0 3.5-1 4.4-2.9.9-1.9 1.3-5.2 1.3-9.8 0-4.7-.4-8-1.3-10-.9-1.8-2.4-2.8-4.4-2.8h-3.8v25.5h3.8zM1189.3 711.5c-.8 0-1.3-.2-1.6-.6-.4-.4-.6-1-.6-1.8v-36c0-.9.2-1.5.6-1.9.3-.3.8-.5 1.6-.5h17.2c.5 0 1 .2 1.3.7.2.5.4 1.2.4 2.2v1.8c0 1-.2 1.8-.5 2.2-.2.5-.7.7-1.2.7h-10.3v8.5h9.1c.6 0 1 .2 1.3.7.3.4.4 1.2.4 2.2v1.8c0 1-.1 1.7-.4 2.2-.3.5-.7.7-1.3.7h-9v9.4h10.2c.6 0 1 .3 1.3.7.2.5.4 1.3.4 2.2v1.9c0 1-.2 1.7-.5 2.2-.2.4-.6.7-1.2.7h-17.2zM1221.8 711.6c-2.2 0-3.3-.7-3.3-1.9v-37.3c0-1.2 1-1.8 3.3-1.8h1.6c.7 0 1.4 0 1.8.3.5.2.9.7 1.2 1.3l10.5 19 2 4.5h.2c-.3-2.1-.5-3.6-.5-4.7v-18.6c0-1.2 1.1-1.8 3.4-1.8h1.4c2.3 0 3.4.6 3.4 1.8v37.3c0 1.2-1.1 1.9-3.4 1.9h-1.1c-.8 0-1.4-.1-2-.4-.5-.1-.9-.6-1.2-1.2l-11-19.9c-.4-.5-1-1.8-1.6-3.7l-.3.2c.3 1.8.4 3 .4 4v19.1c0 1.2-1 1.9-3.4 1.9h-1.4zM1251.5 711.6c-1.8 0-2.8-.4-2.8-1.3l.2-1 9-37c.3-1.2 1.4-1.7 3.5-1.7h3.8c2.2 0 3.4.5 3.6 1.6l9 37 .1 1.1c0 .9-.8 1.3-2.5 1.3h-3c-2 0-3-.4-3.1-1.2l-1.6-7.1h-8.8l-1.6 7c-.2.9-1 1.3-2.7 1.3h-3zm15.3-15.5l-2.7-12.3-.7-4.4h-.3c-.1 1.5-.4 3-.7 4.4l-2.5 12.3h6.8zM1288.9 712c-2 0-3.8-.4-5.7-1a8.2 8.2 0 01-4-2.2c-.6-.7-.8-1.4-.8-2a7 7 0 01.9-3.4c.6-1 1.2-1.7 1.9-1.7.3 0 .8.2 1.5.6l1.5.8c1.5.8 2.8 1.2 4 1.2a6 6 0 003.3-.9c.9-.6 1.3-1.5 1.3-3 0-1.4-.4-2.6-1.3-3.4-.9-.9-2.3-1.8-4.2-2.8-2.9-1.7-5-3.4-6.3-5.2-1.4-1.8-2-4.1-2-7 0-2.5.5-4.5 1.5-6.3 1-1.7 2.5-3 4.4-4 1.8-1 3.9-1.5 6.3-1.5a15.4 15.4 0 017.6 2.1c.7.5 1 1.2 1 2 0 1-.2 2.2-.6 3.3-.5 1-1 1.7-1.7 1.7l-1.7-.5c-1.5-.6-2.8-.9-3.8-.9-1.6 0-2.7.4-3.3 1-.6.8-1 1.6-1 2.5 0 1.4.4 2.4 1.2 3.1.7.8 2 1.5 3.5 2.4l1.6.8c2.7 1.6 4.6 3.2 5.8 5 1.2 1.8 1.8 4.1 1.8 7a13 13 0 01-1.4 6c-1 2-2.3 3.4-4.3 4.5-1.9 1.1-4.2 1.7-7 1.7zM1318.9 712c-5.4 0-9.4-1.8-11.8-5.1-2.5-3.4-3.8-8.7-3.8-16 0-7 1.3-12.1 3.9-15.5 2.6-3.5 6.6-5.2 12-5.2 1.8 0 3.5.3 5 .7 1.3.3 1.8 1.1 1.8 2.5s-.2 2.8-.8 4c-.4 1.1-1.1 1.6-1.9 1.3-1.2-.4-2.5-.6-3.7-.6-2.3 0-4.1 1-5.2 3.2a21 21 0 00-1.8 9.7c0 4.4.6 7.6 1.8 9.7 1.1 2.2 3 3.3 5.5 3.3.7 0 1.3 0 1.8-.2.6 0 1.2-.2 2-.4h.5c.8 0 1.4.4 1.8 1.4.4 1 .6 2.2.6 3.8 0 .6-.1 1-.4 1.5-.2.4-.7.7-1.3 1a21.4 21.4 0 01-6 .9zM1333.2 711.6c-2.3 0-3.4-.6-3.4-1.9v-37.3c0-1.2 1-1.9 3.4-1.9h2.4c2.2 0 3.3.7 3.3 2v37.2c0 1.3-1 2-3.3 2h-2.4zM1360.3 698.5c-.5 0-1-.1-1.3-.4-.4-.1-.7-.5-1-1l-4.3-8-.7-1.5-.5-1.3h-.2l.3 3.3v20.1c0 .7-.2 1.1-.8 1.4-.5.3-1.3.5-2.6.5h-2c-1.2 0-2-.2-2.5-.5s-.8-.7-.8-1.4v-37.3c0-.6.3-1.1.8-1.4.5-.3 1.3-.4 2.5-.4h1.8c1 0 1.7 0 2.3.3.5.3 1 .7 1.3 1.3l7.2 13.7c.4.7.7 1.6 1 2.8l1.1-2.8 7.3-13.7c.2-.6.7-1 1.2-1.3.5-.2 1.3-.3 2.2-.3h1.9c1.2 0 2 0 2.6.4.4.3.7.8.7 1.4v37.3c0 .7-.3 1.1-.7 1.4-.5.3-1.4.5-2.6.5h-2c-1.3 0-2.1-.2-2.6-.5s-.8-.7-.8-1.4v-20.1c0-1 .1-2 .4-3.2l-.2-.1-1.3 2.7-4.3 8c-.3.6-.6 1-1 1.1-.3.3-.8.4-1.4.4h-1zM1385.3 711.5c-.7 0-1.2-.2-1.6-.6-.3-.4-.5-1-.5-1.8v-36c0-.9.2-1.5.5-1.9.4-.3.9-.5 1.6-.5h17.2c.6 0 1 .2 1.3.7.3.5.4 1.2.4 2.2v1.8c0 1-.1 1.8-.4 2.2-.3.5-.7.7-1.3.7h-10.2v8.5h9c.6 0 1 .2 1.3.7.3.4.5 1.2.5 2.2v1.8c0 1-.2 1.7-.5 2.2-.3.5-.7.7-1.2.7h-9.1v9.4h10.3c.6 0 1 .3 1.2.7.3.5.4 1.3.4 2.2v1.9c0 1-.1 1.7-.4 2.2-.2.4-.6.7-1.2.7h-17.3zM1411.7 711.6c-2.3 0-3.4-.7-3.4-1.9v-37.3c0-1.2 1.1-1.8 3.4-1.8h1.5c.7 0 1.4 0 1.8.3.5.2 1 .7 1.2 1.3l10.5 19 2 4.5h.2a37 37 0 01-.5-4.7v-18.6c0-1.2 1.1-1.8 3.4-1.8h1.4c2.3 0 3.4.6 3.4 1.8v37.3c0 1.2-1.1 1.9-3.4 1.9h-1c-.8 0-1.5-.1-2-.4-.5-.1-1-.6-1.2-1.2l-11.2-19.9-1.5-3.7-.3.2c.3 1.8.4 3 .4 4v19.1c0 1.2-1 1.9-3.3 1.9h-1.4zM1450.5 711.6c-2.3 0-3.4-.7-3.4-1.9v-31.4h-6.5c-.6 0-1-.2-1.3-.7-.3-.4-.4-1.2-.4-2.2v-1.8c0-1 .1-1.7.4-2.2.3-.5.7-.7 1.3-.7h22.2c.6 0 1 .2 1.3.7.3.5.4 1.2.4 2.2v1.8c0 1-.1 1.8-.4 2.2-.3.5-.7.7-1.3.7h-6.6v31.4c0 1.2-1 1.9-3.4 1.9h-2.3zM1480 712c-10.1 0-15.2-7-15.2-21 0-13.8 5-20.8 15.3-20.8 4.9 0 8.7 1.7 11.3 5 2.6 3.5 3.8 8.7 3.8 15.9 0 7.1-1.2 12.4-3.8 15.8-2.6 3.3-6.4 5-11.4 5zm.1-7.7a5 5 0 003.4-1.2c.9-.7 1.5-2.1 2-4 .3-2 .5-4.6.5-8 0-3.4-.2-6-.6-8-.4-2-1-3.3-2-4a5 5 0 00-3.3-1.2 5 5 0 00-3.4 1.2c-.9.7-1.5 2-2 4-.4 2-.7 4.6-.7 8 0 3.4.3 6 .8 8 .4 1.9 1 3.3 2 4a5 5 0 003.3 1.2z"/>
  </g>
  <g fill="#F15B66">
    <path d="M706.6 891.2c-2.3 0-3.5-.7-3.5-2v-36.6c0-.8.2-1.4.6-1.8.4-.4 1-.5 1.8-.5h10c3.1 0 5.8.8 8.1 2.6 2.4 1.8 3.6 5.2 3.6 10.1 0 3.5-.7 6-2 8a10.2 10.2 0 01-4.6 3.8c-1.7.6-3.1 1-4.5 1h-4v13.5c0 1.2-1.2 1.9-3.5 1.9h-2zm8.5-23a3 3 0 002.4-1.1c.6-.8 1-2.2 1-4 0-2-.4-3.3-1-4.1a3 3 0 00-2.4-1.1h-3v10.4h3zM732.3 891c-.8 0-1.3-.1-1.6-.5-.4-.4-.6-1-.6-1.8V852c0-1.2 1.2-1.9 3.4-1.9h2.4c2.2 0 3.3.7 3.3 2v31.3h8.7c.7 0 1 .2 1.4.7.2.5.4 1.2.4 2.2v1.8c0 1-.2 1.8-.4 2.2-.3.5-.7.7-1.4.7h-15.6z"/>
    <path d="M752.3 891.2c-1.8 0-2.8-.5-2.8-1.3l.2-1 9-37.1c.3-1.1 1.4-1.7 3.5-1.7h3.8c2.2 0 3.3.6 3.6 1.7l9 37 .1 1c0 1-.8 1.4-2.5 1.4h-3c-2 0-3-.5-3.2-1.3l-1.5-7h-8.8l-1.6 7c-.2.8-1 1.3-2.7 1.3h-3zm15.2-15.5l-2.6-12.3-.7-4.5h-.3c-.1 1.6-.4 3-.7 4.5l-2.5 12.3h6.8zM795.4 891.5c-5.4 0-9.4-1.7-11.8-5-2.5-3.4-3.8-8.7-3.8-16 0-7 1.3-12.1 3.9-15.6 2.6-3.4 6.6-5.1 12-5.1 1.8 0 3.5.2 5 .6 1.3.4 1.8 1.2 1.8 2.5 0 1.5-.2 2.8-.8 4-.4 1.2-1.1 1.6-1.9 1.3-1.2-.4-2.5-.5-3.7-.5-2.3 0-4.1 1-5.2 3.2a21 21 0 00-1.7 9.7c0 4.4.5 7.6 1.7 9.7 1.1 2.2 3 3.3 5.5 3.3.7 0 1.3 0 1.8-.2.6 0 1.2-.2 2-.5h.5c.8 0 1.4.4 1.8 1.4.4 1 .6 2.3.6 3.9 0 .6-.1 1-.4 1.4-.2.4-.7.8-1.3 1-.7.3-1.5.4-2.6.6-1.1.2-2.3.3-3.4.3zM808.8 891c-.8 0-1.3-.1-1.7-.5-.3-.4-.5-1-.5-1.8v-36.1c0-.8.2-1.4.5-1.8.4-.4 1-.5 1.7-.5H826c.5 0 1 .2 1.2.7.3.4.5 1.2.5 2.2v1.8c0 1-.2 1.7-.5 2.2-.2.5-.7.7-1.2.7h-10.3v8.4h9.1c.6 0 1 .3 1.3.7.3.5.4 1.3.4 2.3v1.8c0 1-.1 1.7-.4 2.2-.3.4-.7.7-1.3.7h-9v9.4H826c.6 0 1 .2 1.2.7.3.5.5 1.2.5 2.2v1.8c0 1-.2 1.8-.5 2.2-.2.5-.6.7-1.2.7h-17.2zM852.4 891.5c-10.2 0-15.3-7-15.3-20.8 0-14 5.1-20.9 15.3-20.9 5 0 8.7 1.7 11.4 5 2.5 3.4 3.8 8.7 3.8 15.9 0 7.1-1.3 12.4-3.8 15.7-2.7 3.4-6.4 5.1-11.4 5.1zm0-7.6a5 5 0 003.4-1.2c1-.8 1.6-2.1 2-4 .4-2 .6-4.6.6-8 0-3.4-.2-6.1-.6-8-.4-2-1-3.3-2-4a5 5 0 00-3.3-1.2 5 5 0 00-3.4 1.2c-.9.7-1.6 2-2 4-.5 1.9-.7 4.6-.7 8 0 3.3.2 6 .7 8 .4 1.9 1.1 3.3 2 4a5 5 0 003.4 1.2zM875.4 891.2c-2.3 0-3.4-.7-3.4-2v-36.6c0-.8.2-1.4.5-1.8.4-.4.9-.5 1.6-.5h16c.6 0 1 .2 1.3.7.3.4.4 1.2.4 2.2v1.8c0 1 0 1.7-.4 2.2-.3.5-.7.7-1.3.7h-9v9.7h8.5c.6 0 1 .2 1.3.7.3.4.4 1.2.4 2.2v1.8c0 1-.1 1.7-.4 2.2-.3.5-.7.7-1.3.7h-8.5v14c0 1.3-1.1 2-3.4 2h-2.3zM904.3 891c-.8 0-1.3-.1-1.7-.5-.3-.4-.5-1-.5-1.8v-36.2c0-.7.2-1.3.5-1.7.4-.4 1-.5 1.7-.5h10.4c8.2 0 12.2 3.2 12.2 9.8 0 4.4-1.7 7.6-5.2 9.6v.3c2 .5 3.6 1.6 4.7 3.3a11 11 0 011.7 6.3 11 11 0 01-3.3 8.3c-2.3 2-5.6 3.1-10 3.1h-10.5zm10.5-24.1c1.2 0 2.1-.4 2.8-1.3.5-.7.8-2 .8-3.7 0-1.7-.3-2.8-.8-3.6-.6-.7-1.5-1-2.7-1h-4.2v9.6h4zm.4 17c1.4 0 2.5-.3 3.2-1.1.6-.8 1-2.2 1-4 0-1.9-.4-3.1-1-3.9-.7-.8-1.8-1.1-3.2-1.1h-4.5V884h4.5zM935.4 891.2c-2.3 0-3.4-.6-3.4-2V852c0-1.3 1-2 3.4-2h2.4c2.2 0 3.3.7 3.3 2v37.3c0 1.3-1 2-3.3 2h-2.4zM949.6 891.2c-2.3 0-3.5-.7-3.5-2v-36.6c0-.8.2-1.4.6-1.8.4-.4 1-.5 1.8-.5h9.7c3.5 0 6.4.8 8.6 2.6 2.2 1.8 3.3 4.7 3.3 8.8 0 4.6-1.9 7.8-5.6 9.9v.2c.9.5 1.7 1.2 2.4 2.3.7 1.2 1.2 2.3 1.5 3.5l3.5 11.2.1.7c0 1-1.2 1.6-3.6 1.6h-2c-2 0-3.2-.5-3.5-1.6l-3-11c-.4-1-.8-1.5-1.3-1.9-.4-.3-1.1-.5-2.1-.5H955v13.2c0 1.2-1.2 1.9-3.5 1.9h-2zm8.8-23.6c.8 0 1.5-.4 2.2-1.3.6-.8.8-2 .8-3.7 0-1.6-.2-2.8-.8-3.6a3 3 0 00-2.4-1.1H955v9.7h3.3zM983.6 891.2c-2.3 0-3.4-.7-3.4-2V858h-6.4c-.6 0-1-.2-1.3-.7-.3-.5-.4-1.2-.4-2.2v-1.8c0-1 .1-1.8.4-2.2.3-.5.7-.7 1.3-.7h22.1c.6 0 1 .2 1.3.7.3.4.5 1.2.5 2.2v1.8c0 1-.2 1.7-.5 2.2-.2.5-.7.7-1.3.7h-6.5v31.4c0 1.2-1.1 1.9-3.4 1.9h-2.4zM1003.7 891.2c-2.3 0-3.4-.7-3.4-2V852c0-1.2 1-1.9 3.4-1.9h2.4c2.2 0 3.3.7 3.3 2v14.3h10V852c0-1.2 1-1.9 3.4-1.9h2.4c2.2 0 3.3.7 3.3 2v37.2c0 1.2-1 1.9-3.3 1.9h-2.4c-2.3 0-3.4-.7-3.4-2v-15.1h-10v15.2c0 1.2-1 1.9-3.3 1.9h-2.4zM1042.5 899c-1.2 0-2 0-2.4-.3-.5-.3-.7-.7-.7-1.4v-49.2c0-.7.2-1.1.7-1.4.5-.3 1.2-.4 2.4-.4h.8a5 5 0 012.4.4c.4.3.6.7.6 1.4v49.2c0 .7-.2 1-.6 1.4a5 5 0 01-2.4.4h-.8zM1059.5 891.2c-2.3 0-3.4-.7-3.4-2V852c0-1.2 1.1-1.9 3.4-1.9h1.5c.8 0 1.4.2 1.9.3.5.3.9.7 1.2 1.4l10.4 19c.6 1 1.3 2.5 2 4.5l.3-.1c-.3-2-.5-3.6-.5-4.6V852c0-1.2 1.1-1.9 3.4-1.9h1.4c2.2 0 3.3.7 3.3 2v37.2c0 1.2-1 1.9-3.3 1.9h-1.1c-.8 0-1.4-.2-2-.4-.5-.2-.9-.6-1.2-1.3l-11.1-19.8c-.4-.6-.9-1.8-1.6-3.7l-.3.2c.3 1.8.5 3 .5 4v19c0 1.3-1.1 2-3.4 2h-1.4zM1089.2 891.2c-1.9 0-2.8-.5-2.8-1.3 0-.3 0-.7.2-1l9-37.1c.3-1.1 1.4-1.7 3.5-1.7h3.8c2.2 0 3.3.6 3.6 1.7l9 37 .1 1c0 1-.8 1.4-2.5 1.4h-3c-2 0-3-.5-3.2-1.3l-1.5-7h-8.8l-1.6 7c-.2.8-1 1.3-2.8 1.3h-3zm15.2-15.5l-2.6-12.3-.7-4.5h-.3l-.7 4.5-2.5 12.3h6.8zM1125 891.2c-2.2 0-3.3-.7-3.3-2V858h-6.5c-.6 0-1-.2-1.3-.7-.3-.5-.4-1.2-.4-2.2v-1.8c0-1 .1-1.8.4-2.2.3-.5.7-.7 1.3-.7h22.1c.7 0 1 .2 1.4.7.3.4.4 1.2.4 2.2v1.8c0 1-.1 1.7-.4 2.2-.3.5-.7.7-1.4.7h-6.5v31.4c0 1.2-1.1 1.9-3.4 1.9h-2.4zM1155.3 891.5c-4.3 0-7.8-1.1-10.3-3.3a11.4 11.4 0 01-3.7-9.1v-27c0-1.3 1.1-2 3.4-2h2.3c2.3 0 3.4.7 3.4 2v26.4c0 1.6.4 2.9 1.3 3.9s2.1 1.5 3.6 1.5 2.7-.6 3.6-1.5c1-1 1.4-2.3 1.4-3.9V852c0-1.2 1-1.9 3.4-1.9h2.2c2.3 0 3.4.7 3.4 2v27c0 3.9-1.2 7-3.7 9.1-2.5 2.2-5.9 3.3-10.3 3.3zM1177.8 891.2c-2.4 0-3.5-.7-3.5-2v-36.6c0-.8.1-1.4.5-1.8.4-.4 1-.5 1.8-.5h9.7c3.6 0 6.5.8 8.6 2.6 2.2 1.8 3.3 4.7 3.3 8.8 0 4.6-1.9 7.8-5.5 9.9v.2c.8.5 1.6 1.2 2.3 2.3.7 1.2 1.2 2.3 1.6 3.5l3.4 11.2.2.7c0 1-1.3 1.6-3.6 1.6h-2c-2.1 0-3.3-.5-3.6-1.6l-3-11c-.4-1-.8-1.5-1.2-1.9-.5-.3-1.2-.5-2.2-.5h-1.4v13.2c0 1.2-1.1 1.9-3.5 1.9h-2zm8.7-23.6c.9 0 1.6-.4 2.2-1.3.6-.8.9-2 .9-3.7 0-1.6-.3-2.8-.9-3.6a3 3 0 00-2.4-1.1h-3v9.7h3.2z"/>
    <path d="M1202.7 891.2c-1.8 0-2.8-.5-2.8-1.3l.2-1 9-37.1c.3-1.1 1.4-1.7 3.5-1.7h3.8c2.2 0 3.3.6 3.6 1.7l9 37 .1 1c0 1-.8 1.4-2.5 1.4h-3c-2 0-3-.5-3.1-1.3l-1.6-7h-8.8l-1.6 7c-.2.8-1 1.3-2.7 1.3h-3zm15.2-15.5l-2.6-12.3-.7-4.5h-.3c-.1 1.6-.4 3-.7 4.5l-2.5 12.3h6.8zM1233.5 891c-.7 0-1.2-.1-1.6-.5-.3-.4-.5-1-.5-1.8V852c0-1.2 1.1-1.9 3.4-1.9h2.3c2.3 0 3.4.7 3.4 2v31.3h8.7c.6 0 1 .2 1.3.7.3.5.4 1.2.4 2.2v1.8c0 1-.1 1.8-.4 2.2-.3.5-.7.7-1.3.7h-15.7zM1256.5 891.2c-2.3 0-3.4-.6-3.4-2V852c0-1.3 1.1-2 3.4-2h2.5c2.2 0 3.3.7 3.3 2v37.3c0 1.3-1.1 2-3.3 2h-2.5zM1269.7 891c-.8 0-1.3-.1-1.7-.5-.3-.4-.5-1-.5-1.8v-36.1c0-.8.2-1.4.5-1.8.4-.4 1-.5 1.7-.5h11c5.1 0 8.8 1.7 11.2 5 2.4 3.4 3.6 8.5 3.6 15.4 0 6.8-1.2 11.9-3.6 15.3-2.4 3.3-6.1 5-11.2 5h-11zm10.7-7.6c2 0 3.6-1 4.5-3a26 26 0 001.3-9.7c0-4.7-.5-8-1.3-10-1-1.9-2.4-2.8-4.5-2.8h-3.7v25.5h3.7zM1299.4 891.2c-1.8 0-2.8-.5-2.8-1.3 0-.3 0-.7.2-1l9-37.1c.3-1.1 1.4-1.7 3.5-1.7h3.8c2.2 0 3.3.6 3.6 1.7l9 37 .1 1c0 1-.8 1.4-2.5 1.4h-3c-2 0-3-.5-3.2-1.3l-1.5-7h-8.8l-1.6 7c-.2.8-1 1.3-2.7 1.3h-3zm15.2-15.5l-2.6-12.3-.7-4.5h-.3l-.7 4.5-2.5 12.3h6.8zM1330.2 891c-.7 0-1.2-.1-1.6-.5-.3-.4-.5-1-.5-1.8v-36.1c0-.8.2-1.4.5-1.8.4-.4.9-.5 1.6-.5h11.1c5 0 8.8 1.7 11.1 5 2.5 3.4 3.6 8.5 3.6 15.4 0 6.8-1.1 11.9-3.6 15.3-2.3 3.3-6 5-11 5h-11.2zm10.8-7.6c2 0 3.6-1 4.4-3 1-1.8 1.4-5 1.4-9.7 0-4.7-.5-8-1.4-10-.8-1.9-2.4-2.8-4.4-2.8h-3.7v25.5h3.7zM1362.6 891c-.7 0-1.3-.1-1.6-.5-.4-.4-.5-1-.5-1.8v-36.1c0-.8.1-1.4.5-1.8.3-.4.9-.5 1.6-.5h17.2c.6 0 1 .2 1.3.7.3.4.4 1.2.4 2.2v1.8c0 1-.1 1.7-.4 2.2-.3.5-.7.7-1.3.7h-10.2v8.4h9c.6 0 1 .3 1.3.7.3.5.4 1.3.4 2.3v1.8c0 1 0 1.7-.4 2.2-.3.4-.7.7-1.3.7h-9v9.4h10.3c.5 0 1 .2 1.2.7.3.5.4 1.2.4 2.2v1.8c0 1-.1 1.8-.4 2.2-.2.5-.6.7-1.2.7h-17.3z"/>
  </g>
  <g fill="#F15B66">
    <path d="M1677.4 711.6c-1.9 0-2.8-.4-2.8-1.3 0-.3 0-.6.2-1l9-37c.2-1.2 1.4-1.7 3.5-1.7h3.8c2.2 0 3.3.5 3.6 1.6l9 37v1.1c0 .9-.7 1.3-2.4 1.3h-3.1c-1.9 0-3-.4-3-1.2l-1.6-7.1h-8.9l-1.5 7c-.2.9-1 1.3-2.8 1.3h-3zm15.2-15.5l-2.6-12.3-.7-4.4h-.3a43 43 0 01-.7 4.4l-2.6 12.3h6.9zM1729.8 687.6c.8 0 1.3.2 1.7.5.3.4.5 1 .5 1.8v17.4c0 .8-.6 1.7-1.8 2.4a22 22 0 01-9.4 2.3c-5.4 0-9.4-1.8-12-5.2-2.6-3.4-4-8.7-4-15.8 0-7 1.4-12.2 4-15.6 2.6-3.5 6.6-5.2 12.1-5.2 1.8 0 3.4.2 5 .6 1.7.4 3 1 4 1.6 1 .6 1.5 1.3 1.5 2a5 5 0 01-.5 2l-1.5 2.2c-.6.7-1.2 1-1.6 1l-1.2-.5-2.3-.7a14 14 0 00-2.9-.3c-2.5 0-4.3 1-5.4 3.1a21 21 0 00-1.8 9.8c0 4.7.5 8.1 1.7 10 1.1 2 2.7 3 4.9 3 1 0 1.7 0 2.4-.2v-8.5h-3c-.6 0-1-.3-1.3-.7-.3-.5-.4-1.2-.4-2.2v-1.9c0-1 .1-1.8.4-2.2.3-.5.7-.7 1.3-.7h9.6zM1739.3 711.5c-.8 0-1.3-.2-1.7-.6-.3-.4-.5-1-.5-1.8v-36c0-.9.2-1.5.5-1.9.4-.3.9-.5 1.7-.5h17.1c.6 0 1 .2 1.3.7.3.5.4 1.2.4 2.2v1.8c0 1 0 1.8-.4 2.2-.3.5-.7.7-1.3.7h-10.2v8.5h9c.7 0 1 .2 1.4.7.3.4.4 1.2.4 2.2v1.8c0 1-.2 1.7-.4 2.2-.3.5-.7.7-1.3.7h-9.1v9.4h10.3c.6 0 1 .3 1.2.7.3.5.4 1.3.4 2.2v1.9c0 1 0 1.7-.4 2.2-.2.4-.6.7-1.2.7h-17.2zM1770.6 719.5c-1.1 0-1.9-.1-2.3-.4-.6-.3-.8-.7-.8-1.3v-49.3c0-.7.2-1 .8-1.4.4-.3 1.2-.4 2.3-.4h.8a5 5 0 012.4.4c.5.3.7.7.7 1.4v49.3c0 .6-.2 1-.7 1.3a5 5 0 01-2.4.4h-.8zM1788 711.6c-2.3 0-3.4-.6-3.4-1.9v-37.3c0-1.2 1-1.9 3.4-1.9h2.4c2.2 0 3.3.7 3.3 2v37.2c0 1.3-1 2-3.3 2h-2.5zM1801.1 711.5c-.7 0-1.3-.2-1.6-.6-.4-.4-.5-1-.5-1.8v-36c0-.9.1-1.5.5-1.9.3-.3.9-.5 1.6-.5h11c5.2 0 8.9 1.7 11.2 5 2.5 3.4 3.6 8.6 3.6 15.4 0 6.8-1.2 12-3.6 15.3-2.3 3.4-6 5-11.1 5h-11zm10.8-7.7c2 0 3.5-1 4.4-2.9a26 26 0 001.4-9.8c0-4.7-.5-8-1.4-10-.8-1.8-2.4-2.8-4.4-2.8h-3.7v25.5h3.7zM1830.9 711.6c-1.9 0-2.8-.4-2.8-1.3 0-.3 0-.6.2-1l9-37c.2-1.2 1.4-1.7 3.5-1.7h3.8c2.1 0 3.3.5 3.6 1.6l9 37v1.1c0 .9-.8 1.3-2.4 1.3h-3.1c-1.9 0-3-.4-3.1-1.2l-1.5-7.1h-8.9l-1.5 7c-.2.9-1.1 1.3-2.8 1.3h-3zM1846 696l-2.6-12.3c-.3-1.4-.6-2.9-.7-4.4h-.3l-.7 4.4-2.6 12.3h6.9zM1861.7 711.5c-.8 0-1.3-.2-1.6-.6-.4-.4-.6-1-.6-1.8v-36c0-.9.2-1.5.6-1.9.3-.3.8-.5 1.6-.5h11c5.1 0 8.8 1.7 11.2 5 2.4 3.4 3.6 8.6 3.6 15.4 0 6.8-1.2 12-3.6 15.3-2.4 3.4-6 5-11.1 5h-11.1zm10.8-7.7c2 0 3.5-1 4.4-2.9.9-1.9 1.3-5.2 1.3-9.8 0-4.7-.4-8-1.3-10-.9-1.8-2.4-2.8-4.4-2.8h-3.8v25.5h3.8zM1894 711.5c-.7 0-1.2-.2-1.5-.6-.4-.4-.6-1-.6-1.8v-36c0-.9.2-1.5.5-1.9.4-.3 1-.5 1.7-.5h17.2c.5 0 1 .2 1.2.7.3.5.5 1.2.5 2.2v1.8c0 1-.2 1.8-.5 2.2-.3.5-.7.7-1.2.7H1901v8.5h9c.7 0 1 .2 1.4.7.3.4.4 1.2.4 2.2v1.8c0 1-.1 1.7-.4 2.2-.3.5-.7.7-1.3.7h-9v9.4h10.2c.6 0 1 .3 1.2.7.3.5.5 1.3.5 2.2v1.9c0 1-.2 1.7-.5 2.2-.2.4-.6.7-1.2.7h-17.2z"/>
  </g>
  <g fill="#F15B66">
    <path d="M1692 187.2c-5.5 0-9.4-1.7-11.9-5-2.5-3.4-3.7-8.7-3.7-16 0-7 1.3-12.1 3.9-15.6 2.6-3.4 6.5-5.1 12-5.1 1.8 0 3.5.2 5 .6 1.3.4 1.8 1.2 1.8 2.5 0 1.5-.2 2.8-.8 4-.5 1.2-1.1 1.6-2 1.3-1.1-.4-2.4-.5-3.6-.5-2.4 0-4.1 1-5.2 3.2a21 21 0 00-1.8 9.7c0 4.4.6 7.6 1.8 9.7 1 2.2 3 3.3 5.5 3.3.7 0 1.3 0 1.8-.2.5 0 1.2-.2 2-.5h.5c.8 0 1.4.4 1.8 1.4.4 1 .6 2.3.6 3.9 0 .6-.2 1-.4 1.4-.2.4-.7.8-1.3 1-.7.3-1.5.4-2.7.6-1 .2-2.2.3-3.3.3zM1715.9 187.2c-10.2 0-15.3-7-15.3-20.9 0-13.9 5-20.8 15.3-20.8 5 0 8.7 1.7 11.3 5 2.6 3.4 3.9 8.7 3.9 15.8 0 7.2-1.3 12.4-3.9 15.8-2.6 3.4-6.4 5-11.3 5zm0-7.6a5 5 0 003.4-1.2c.9-.8 1.5-2.2 2-4 .3-2 .6-4.6.6-8 0-3.4-.3-6.1-.7-8-.4-2-1-3.3-1.9-4a5 5 0 00-3.4-1.2 5 5 0 00-3.4 1.1c-.8.8-1.5 2.1-2 4-.4 2-.6 4.7-.6 8 0 3.4.2 6.1.7 8 .4 2 1 3.3 2 4.1a5 5 0 003.3 1.2zM1749 187.2c-4.3 0-7.7-1.1-10.2-3.3a11.4 11.4 0 01-3.8-9.1v-27.1c0-1.2 1.2-1.9 3.4-1.9h2.3c2.3 0 3.4.7 3.4 1.9v26.5c0 1.6.5 2.9 1.4 3.9.8 1 2 1.5 3.6 1.5 1.4 0 2.7-.6 3.6-1.5.9-1 1.3-2.3 1.3-3.9v-26.5c0-1.2 1.1-1.9 3.4-1.9h2.3c2.3 0 3.4.7 3.4 1.9v27c0 4-1.3 7-3.7 9.2-2.5 2.2-6 3.3-10.3 3.3zM1771.2 186.8c-2.2 0-3.4-.6-3.4-1.8v-37.3c0-1.2 1.2-1.9 3.4-1.9h1.5c.8 0 1.4.2 2 .3.4.3.8.7 1 1.4l10.6 19 2 4.5.2-.1a37 37 0 01-.5-4.6v-18.6c0-1.2 1.1-1.9 3.4-1.9h1.4c2.3 0 3.4.7 3.4 1.9V185c0 1.2-1.2 1.8-3.4 1.8h-1.1c-.8 0-1.4 0-2-.3-.5-.2-.9-.6-1.2-1.3l-11.1-19.8a26 26 0 01-1.6-3.7l-.3.2c.3 1.8.5 3 .5 4v19c0 1.3-1.1 2-3.4 2h-1.4zM1810 186.8c-2.3 0-3.4-.6-3.4-1.8v-31.4h-6.5c-.5 0-1-.2-1.3-.7-.2-.5-.3-1.2-.3-2.2v-1.8c0-1 0-1.8.3-2.2.3-.5.8-.7 1.3-.7h22.2c.6 0 1 .2 1.3.7.3.4.4 1.2.4 2.2v1.8c0 1-.1 1.7-.4 2.2-.3.5-.7.7-1.3.7h-6.6V185c0 1.2-1 1.8-3.3 1.8h-2.4zM1829.9 186.8c-2.4 0-3.5-.6-3.5-1.8v-36.7c0-.8.1-1.4.5-1.8.4-.4 1-.5 1.8-.5h9.7c3.6 0 6.5.8 8.6 2.6 2.2 1.8 3.3 4.7 3.3 8.8 0 4.6-1.9 7.8-5.5 9.9v.2c.8.5 1.6 1.2 2.3 2.3.7 1.1 1.2 2.3 1.6 3.5l3.4 11.2.2.7c0 1-1.2 1.6-3.6 1.6h-2c-2.1 0-3.3-.5-3.6-1.6l-3-11c-.4-1-.8-1.5-1.2-1.9-.5-.3-1.2-.5-2.2-.5h-1.4V185c0 1.2-1.1 1.8-3.5 1.8h-2zm8.7-23.5c.9 0 1.6-.4 2.2-1.3.6-.8.9-2 .9-3.7 0-1.6-.3-2.8-.9-3.6a3 3 0 00-2.4-1.1h-3v9.7h3.2zM1864 186.8c-2.2 0-3.4-.6-3.4-1.8V169l-9-20.6-.2-.8-.3-.7c0-.3.3-.6 1-.9.6-.1 1.4-.3 2.5-.3h3c2 0 3 .4 3.2 1.1l4.5 14.4 4.5-14.4c.2-.4.5-.7 1-.8.5-.2 1.3-.3 2.2-.3h2.5c2.4 0 3.7.4 3.7 1.2 0 .4-.2.9-.5 1.5l-9 20.8V185c0 1.2-1 1.8-3.4 1.8h-2.2zM1890.3 194.8c-1.2 0-2-.2-2.4-.4-.5-.3-.7-.7-.7-1.4v-49.3c0-.6.2-1 .7-1.3.5-.3 1.2-.4 2.3-.4h.9a5 5 0 012.4.4c.4.3.7.7.7 1.3V193c0 .7-.3 1-.8 1.4a5 5 0 01-2.3.4h-.8zM1907.6 186.8c-2.3 0-3.5-.6-3.5-1.8v-36.7c0-.8.2-1.4.6-1.8.3-.4 1-.5 1.7-.5h10.1c3.1 0 5.8.8 8.1 2.6 2.4 1.8 3.6 5.2 3.6 10.1 0 3.4-.7 6-2 8a10.2 10.2 0 01-4.6 3.8c-1.7.6-3.2 1-4.5 1h-4V185c0 1.2-1.2 1.8-3.5 1.8h-2zm8.5-22.8a3 3 0 002.3-1.2c.7-.8 1-2.2 1-4 0-2-.3-3.3-1-4.1a3 3 0 00-2.3-1.1h-3V164h3zM1928.4 186.8c-1.9 0-2.8-.4-2.8-1.2 0-.3 0-.7.2-1l9-37.1c.2-1.1 1.4-1.7 3.5-1.7h3.8c2.1 0 3.3.6 3.6 1.7l9 37v1c0 1-.7 1.3-2.4 1.3h-3.1c-1.9 0-3-.4-3-1.2l-1.6-7h-8.9l-1.5 7c-.2.8-1 1.2-2.8 1.2h-3zm15.2-15.4l-2.6-12.3-.7-4.5h-.3l-.7 4.5-2.6 12.3h6.9zM1960.1 186.9c-2.2 0-3.3-.6-3.3-2v-37.2c0-1.3 1-2 3.3-2h2.5c2.2 0 3.3.7 3.3 2V185c0 1.3-1.1 1.9-3.3 1.9h-2.5zm-.9-43.8c-.9 0-1.4 0-1.6-.2-.3 0-.4-.3-.4-.5 0-.5.2-1 .6-1.6l2.4-3.3c.5-.7 1.1-1.2 1.8-1.4a17.3 17.3 0 015.7-.1c.5.1.8.4.8.8 0 .5-.5 1.2-1.5 2.1l-3.8 3c-.5.6-1 .9-1.6 1l-2.4.2zM1979.8 187.2c-1.9 0-3.8-.3-5.6-.9a8.3 8.3 0 01-4.1-2.3c-.5-.6-.8-1.3-.8-2 0-1.1.3-2.2 1-3.3.5-1.1 1.1-1.7 1.8-1.7.3 0 .9.2 1.6.6l1.4.8c1.5.8 2.9 1.2 4 1.2a6 6 0 003.3-1c1-.5 1.4-1.5 1.4-2.9s-.5-2.6-1.3-3.5c-1-.8-2.3-1.7-4.2-2.7-3-1.7-5-3.4-6.4-5.2-1.3-1.8-2-4.1-2-7.1 0-2.4.5-4.4 1.5-6.2 1-1.8 2.5-3.1 4.4-4.1a15.5 15.5 0 0114 .7c.6.5 1 1.2 1 2 0 1-.3 2.1-.7 3.2-.4 1.1-1 1.7-1.6 1.7l-1.7-.4a11 11 0 00-3.8-1c-1.7 0-2.8.4-3.3 1.1-.7.7-1 1.5-1 2.4 0 1.4.4 2.5 1.1 3.2.8.7 2 1.5 3.6 2.3l1.6.9c2.6 1.5 4.6 3.2 5.8 5 1.2 1.8 1.7 4.1 1.7 7a13 13 0 01-1.4 6c-.9 1.9-2.3 3.4-4.2 4.5-2 1.1-4.3 1.7-7 1.7z"/>
  </g>
  <path fill="#fff" d="M331.7 848.5a230.4 230.4 0 000-460.8C204.4 387.7 97 490.9 101.3 618c4.3 130.3 104.2 229.4 230.4 230.4z"/>
  <g>
    <g clip-path="url(#clip0)">
      <path fill="url(#paint0_linear)" d="M401.5 675L353 771l78.5 74 100.2-17.6C523.8 712 430.9 669.6 430.9 669.6l-29.4 5.3z"/>
      <path fill="url(#paint1_linear)" d="M245 702.4S172.4 774 204.3 885l100.2-17.7L353 771l-78.5-73.9-29.5 5.2z"/>
      <path fill="url(#paint2_linear)" d="M431.6 845l-127 22.4-30-170.2 127-22.4 30 170.1z"/>
      <path fill="#AF3186" d="M246.6 877.6l-8-66.5c-.7-4 .8-7.5 3.3-8 .9-.1 1.5 3 2.2 7l11.6 65.9-9 1.6zM477.7 836.8L466 771c-.7-4-1.8-7-.3-7.3 2.5-.5 5.1 2.4 5.8 6.3l15.2 65.2-9.1 1.6z"/>
      <path fill="#DA62B3" d="M427 845.8L407.3 734c-1.2-6.7-.2-12.6 2.3-13 2.6-.4 5.6 4.6 6.8 11.4L436 844.2l-9.1 1.6zM299.9 868.2l-19.7-111.8c-1.2-6.7-.1-12.6 2.4-13 2.5-.4 5.5 4.7 6.7 11.4L309 866.6l-9.1 1.6z"/>
      <path fill="url(#paint3_linear)" d="M413.8 398.1l122.9 144.3c32.2-5.6 25-40.7 25-40.7s-18.6.3-23.2-31.6c-4.5-31.6 7.5-63.4-16-91.1a57.7 57.7 0 00-54.3-20.8c-18 3.1-37 15.1-54.4 39.9z"/>
      <path fill="url(#paint4_radial)" d="M284 380.3C170.3 400.4 93.7 506.6 113.2 617l412.5-72.8c-19.5-110.4-127.9-184-241.7-164z"/>
      <path fill="url(#paint5_linear)" d="M540 553.1a41 41 0 01-33 47.7 41 41 0 01-47.4-33.5 41 41 0 0133-47.7 41 41 0 0147.4 33.5z"/>
      <path fill="url(#paint6_linear)" d="M183.1 616.3a41 41 0 01-33 47.7 41 41 0 01-47.4-33.5 41 41 0 0133-47.8 41 41 0 0147.4 33.6z"/>
      <path fill="url(#paint7_radial)" d="M303.5 490c-92.3-35.7-137 21.3-155.9 60.6-9.1 19-12.3 40.6-8.9 61.8l.2.1c17 96.5 111.6 160.2 211.4 142.7 99.6-17.8 166.6-110 149.6-206.1v-.6c-3.7-20.9-14.1-40.1-29.4-55-21.5-20.7-57.5-45.4-101.7-37.7-20.3 3.6-42.2 14-65.3 34.2z"/>
      <path fill="#3A484A" d="M200 570.8a25.7 25.7 0 00-20.6 29.9c.7 4 4.4 6.6 8.4 5.9 3.9-.7 6.5-4.5 5.8-8.5-1-6 3-11.9 9-13 6-1 11.8 3.1 12.9 9.2.7 4 4.4 6.6 8.4 6 3.9-.8 6.5-4.6 5.8-8.5a25.7 25.7 0 00-29.6-21zM427.2 530.8a25.7 25.7 0 00-20.7 29.8c.7 4 4.4 6.6 8.4 6 3.9-.8 6.5-4.5 5.8-8.5-1-6 3-12 9-13s11.8 3 12.9 9.1c.7 4 4.4 6.7 8.4 6 3.9-.7 6.5-4.5 5.8-8.5a25.7 25.7 0 00-29.6-21zM345.2 594c-3.5-1.9-7.9-.4-9.6 3.2a16.7 16.7 0 01-26.7 4.7 7.2 7.2 0 00-10.3.3c-2.7 2.9-2.6 7.5.3 10.3 7.2 6.8 17.3 10 27 8.2 9.7-1.7 18.2-8 22.6-17 1.8-3.6.3-8-3.3-9.8z"/>
      <path fill="#FF8087" d="M224.7 621.3l-30.5 5.4a7.3 7.3 0 002.5 14.4l30.6-5.4c3.9-.7 6.5-4.5 5.8-8.5-.7-4-4.4-6.6-8.4-5.9zM451.8 581.3l-30.5 5.3c-4 .7-6.6 4.5-5.9 8.5.7 4 4.5 6.6 8.4 6l30.6-5.5c3.9-.7 6.5-4.5 5.8-8.4-.7-4-4.4-6.6-8.4-6z"/>
    </g>
  </g>
  <g filter="url(#filter1_d)">
    <path fill="#fff" d="M108.7 277c-5 0-7.5-1.2-7.5-4v-78.7c0-1.7.3-3 1-3.7 1-.8 2.2-1.3 4-1.3h21.6c6.6 0 12.4 2 17.4 5.8 5 3.7 7.6 11 7.6 21.6a29 29 0 01-4.4 17.1c-2.9 4-6.2 6.7-9.7 8.2a26.6 26.6 0 01-9.7 2h-8.6v29c0 2.8-2.5 4-7.5 4h-4.2zm18.2-49c2 0 3.6-.9 5-2.5 1.4-1.7 2.1-4.6 2.1-8.8 0-4-.7-7-2-8.5a6.4 6.4 0 00-5-2.5h-6.7V228h6.6zm25.2 49c-4 0-6-.8-6-2.7 0-.6.1-1.4.4-2.2l19.2-79.5c.6-2.3 3.1-3.5 7.6-3.5h8.2c4.5 0 7.1 1.2 7.7 3.5l19.3 79.5.2 2.2c0 1.9-1.8 2.8-5.4 2.8h-6.6c-4 0-6.2-.9-6.6-2.6l-3.3-15.3h-19l-3.3 15.3c-.4 1.7-2.3 2.6-6 2.6h-6.4zm32.6-33l-5.6-26.5c-.6-3-1-6.2-1.5-9.5h-.6l-1.5 9.5L170 244h14.7zm46.3 33.8c-4.1 0-8.2-.5-12.2-1.7-4-1.3-6.9-3-8.7-5-1.1-1.5-1.7-3-1.7-4.4 0-2.3.7-4.7 2-7.1 1.2-2.4 2.5-3.6 4-3.6.7 0 1.8.4 3.2 1.2l3.2 1.8c3.3 1.6 6.1 2.5 8.6 2.5 2.7 0 5-.7 7-2 2-1.2 3-3.3 3-6.3 0-3.2-1-5.6-2.8-7.4-2-1.8-5-3.8-9-6a45.5 45.5 0 01-13.8-11 25 25 0 01-4.2-15.3c0-5.1 1.1-9.5 3.3-13.3 2.3-3.8 5.4-6.7 9.3-8.7 4-2.1 8.5-3.2 13.6-3.2 2.9 0 5.9.5 9 1.4 3.2.8 5.6 1.9 7.4 3.1 1.5 1.1 2.3 2.6 2.3 4.4a18 18 0 01-1.6 6.9c-.9 2.4-2 3.6-3.5 3.6-.6 0-1.8-.3-3.6-1-3.2-1.2-6-1.9-8.1-1.9-3.5 0-6 .8-7.3 2.3a7.8 7.8 0 00-1.8 5.1c0 3 .8 5.3 2.3 6.9 1.6 1.5 4.2 3.2 7.7 5l3.3 1.7c5.8 3.4 10 7 12.4 10.8 2.6 3.8 3.9 8.9 3.9 15.1 0 4.7-1 9-3 13s-5 7-9.1 9.5c-4.1 2.4-9.2 3.6-15.2 3.6zm50.8 0c-4.1 0-8.2-.5-12.2-1.7-4-1.3-6.9-3-8.7-5-1-1.5-1.6-3-1.6-4.4 0-2.3.6-4.7 1.8-7.1 1.3-2.4 2.7-3.6 4.2-3.6.6 0 1.7.4 3 1.2l3.3 1.8c3.3 1.6 6.2 2.5 8.7 2.5 2.6 0 5-.7 7-2 2-1.2 3-3.3 3-6.3 0-3.2-1-5.6-3-7.4-1.8-1.8-4.8-3.8-9-6a45.5 45.5 0 01-13.7-11 25 25 0 01-4.2-15.3c0-5.1 1.1-9.5 3.4-13.3 2.2-3.8 5.3-6.7 9.2-8.7 4-2.1 8.6-3.2 13.6-3.2 2.9 0 5.9.5 9 1.4 3.2.8 5.7 1.9 7.4 3.1 1.5 1.1 2.3 2.6 2.3 4.4a18 18 0 01-1.5 6.9c-1 2.4-2.1 3.6-3.5 3.6-.7 0-2-.3-3.7-1-3.2-1.2-6-1.9-8-1.9-3.6 0-6 .8-7.3 2.3a7.8 7.8 0 00-2 5.1c0 3 .9 5.3 2.5 6.9 1.5 1.5 4 3.2 7.6 5l3.4 1.7c5.7 3.4 9.8 7 12.3 10.8 2.6 3.8 4 8.9 4 15.1 0 4.7-1 9-3 13s-5.1 7-9.2 9.5c-4 2.4-9.1 3.6-15.1 3.6zm39.4-.7c-5 0-7.5-1.3-7.5-4v-78.8c0-1.7.4-3 1.1-3.7.9-.8 2.2-1.3 4-1.3h21.5c6.6 0 12.4 2 17.4 5.8 5 3.7 7.6 11 7.6 21.6a29 29 0 01-4.3 17.1c-3 4-6.2 6.7-9.8 8.2a26.6 26.6 0 01-9.6 2H333v29c0 2.8-2.5 4-7.5 4h-4.3zm18.3-49.1c1.9 0 3.5-.9 5-2.5 1.4-1.7 2-4.6 2-8.8 0-4-.6-7-2-8.5a6.4 6.4 0 00-5-2.5h-6.7V228h6.7zm61.4 49.8c-21.8 0-32.8-14.9-32.8-44.7 0-29.8 11-44.8 32.8-44.8 10.7 0 18.7 3.7 24.2 11 5.6 7.2 8.4 18.5 8.4 33.8 0 15.3-2.8 26.6-8.4 33.9-5.5 7.2-13.6 10.8-24.2 10.8zm.1-16.3c3 0 5.4-.9 7.3-2.5 1.8-1.7 3.2-4.6 4-8.7 1-4.1 1.5-9.9 1.5-17.2 0-7.3-.5-13-1.4-17-1-4.2-2.3-7.1-4.1-8.8a10.4 10.4 0 00-7.3-2.5c-3 0-5.4.9-7.4 2.5a17.1 17.1 0 00-4.2 8.8c-1 4-1.4 9.7-1.4 17 0 7.2.5 13 1.4 17.1 1 4.2 2.4 7 4.2 8.8 2 1.6 4.4 2.5 7.4 2.5zm47.7 15.6c-5 0-7.5-1.3-7.5-4v-78.8c0-1.7.4-3 1.1-3.7.9-.8 2.2-1.3 4-1.3H467c7.7 0 13.8 2 18.5 5.8 4.7 3.7 7 10 7 18.9 0 9.7-4 16.8-11.9 21v.6c1.8 1 3.5 2.7 5 5s2.6 4.8 3.4 7.5l7.4 24 .3 1.5c0 2.2-2.5 3.4-7.7 3.4h-4.4c-4.4 0-6.9-1.2-7.5-3.4l-6.6-23.8a9 9 0 00-2.6-3.8c-1-.8-2.5-1.2-4.5-1.2h-3v28.3c0 2.7-2.5 4-7.5 4h-4.3zm18.8-50.5c1.8 0 3.3-1 4.6-2.8 1.3-1.8 2-4.5 2-8s-.7-6-2-7.6a6 6 0 00-5-2.5h-6.6v20.9h7zm53 50.5c-4.8 0-7.2-1.3-7.2-4v-67.4h-13.9a3 3 0 01-2.7-1.5c-.6-1-.9-2.6-.9-4.7v-4c0-2 .3-3.7.9-4.7a3 3 0 012.7-1.5H547c1.4 0 2.3.5 2.9 1.5.6 1 .9 2.6.9 4.8v3.9c0 2.1-.3 3.7-.9 4.7-.6 1-1.5 1.5-2.9 1.5h-14v67.4c0 2.7-2.4 4-7.2 4h-5.2z"/>
  </g>
  <defs>
    <linearGradient id="paint0_linear" x1="409" x2="488.2" y1="712.3" y2="835" gradientUnits="userSpaceOnUse">
      <stop stop-color="#8C296C"/>
      <stop offset=".4" stop-color="#D63AA4"/>
      <stop offset="1" stop-color="#D63AA4"/>
    </linearGradient>
    <linearGradient id="paint1_linear" x1="255.5" x2="221.2" y1="700.6" y2="866.6" gradientUnits="userSpaceOnUse">
      <stop stop-color="#8C296C"/>
      <stop offset=".1" stop-color="#8C296C"/>
      <stop offset=".5" stop-color="#D93BA6"/>
      <stop offset="1" stop-color="#D93BA6"/>
    </linearGradient>
    <linearGradient id="paint2_linear" x1="338" x2="368" y1="686" y2="856.2" gradientUnits="userSpaceOnUse">
      <stop stop-color="#D6D1D4"/>
      <stop offset=".3" stop-color="#D6D1D4"/>
      <stop offset=".6" stop-color="#EEECED"/>
      <stop offset="1" stop-color="#EEECED"/>
    </linearGradient>
    <linearGradient id="paint3_linear" x1="522.8" x2="492.3" y1="343.2" y2="459" gradientUnits="userSpaceOnUse">
      <stop offset=".3" stop-color="#AB4F3F"/>
      <stop offset="1" stop-color="#863E31"/>
    </linearGradient>
    <linearGradient id="paint5_linear" x1="540" x2="495.4" y1="553.1" y2="578.9" gradientUnits="userSpaceOnUse">
      <stop stop-color="#FCC4AD"/>
      <stop offset="1" stop-color="#D8906F"/>
    </linearGradient>
    <linearGradient id="paint6_linear" x1="90.9" x2="153.7" y1="601.2" y2="647" gradientUnits="userSpaceOnUse">
      <stop stop-color="#FCC4AD"/>
      <stop offset=".1" stop-color="#FCC4AD"/>
      <stop offset="1" stop-color="#DDA083"/>
    </linearGradient>
    <radialGradient id="paint4_radial" cx="0" cy="0" r="1" gradientTransform="rotate(15.8 -1409.8 995.4) scale(430.248)" gradientUnits="userSpaceOnUse">
      <stop stop-color="#C36E5C"/>
      <stop offset="1" stop-color="#864032"/>
    </radialGradient>
    <radialGradient id="paint7_radial" cx="0" cy="0" r="1" gradientTransform="matrix(-225.68299 219.6588 -165.0379 -169.56411 390 481.2)" gradientUnits="userSpaceOnUse">
      <stop stop-color="#FBC4AC"/>
      <stop offset=".5" stop-color="#FBC4AC"/>
      <stop offset=".9" stop-color="#EAAB90"/>
      <stop offset="1" stop-color="#EAAB90"/>
    </radialGradient>
    <filter id="filter0_ii" width="1451.9" height="983.6" x="621.3" y="60.9" color-interpolation-filters="sRGB" filterUnits="userSpaceOnUse">
      <feFlood flood-opacity="0" result="BackgroundImageFix"/>
      <feBlend in="SourceGraphic" in2="BackgroundImageFix" result="shape"/>
      <feColorMatrix in="SourceAlpha" result="hardAlpha" values="0 0 0 0 0 0 0 0 0 0 0 0 0 0 0 0 0 0 127 0"/>
      <feOffset dx="-5" dy="-5"/>
      <feGaussianBlur stdDeviation="11"/>
      <feComposite in2="hardAlpha" k2="-1" k3="1" operator="arithmetic"/>
      <feColorMatrix values="0 0 0 0 0 0 0 0 0 0 0 0 0 0 0 0 0 0 0.16 0"/>
      <feBlend in2="shape" result="effect1_innerShadow"/>
      <feColorMatrix in="SourceAlpha" result="hardAlpha" values="0 0 0 0 0 0 0 0 0 0 0 0 0 0 0 0 0 0 127 0"/>
      <feOffset dx="8" dy="8"/>
      <feGaussianBlur stdDeviation="3"/>
      <feComposite in2="hardAlpha" k2="-1" k3="1" operator="arithmetic"/>
      <feColorMatrix values="0 0 0 0 1 0 0 0 0 1 0 0 0 0 1 0 0 0 1 0"/>
      <feBlend in2="effect1_innerShadow" result="effect2_innerShadow"/>
    </filter>
    <filter id="filter1_d" width="455.5" height="95.5" x="101.2" y="188.3" color-interpolation-filters="sRGB" filterUnits="userSpaceOnUse">
      <feFlood flood-opacity="0" result="BackgroundImageFix"/>
      <feColorMatrix in="SourceAlpha" values="0 0 0 0 0 0 0 0 0 0 0 0 0 0 0 0 0 0 127 0"/>
      <feOffset dx="6" dy="6"/>
      <feColorMatrix values="0 0 0 0 0.596078 0 0 0 0 0.152941 0 0 0 0 0.188235 0 0 0 1 0"/>
      <feBlend in2="BackgroundImageFix" result="effect1_dropShadow"/>
      <feBlend in="SourceGraphic" in2="effect1_dropShadow" result="shape"/>
    </filter>
    <clipPath id="clip0">
      <rect width="472" height="570" x="94" y="277" fill="#fff" rx="230"/>
    </clipPath>
  </defs>
</svg>
