<svg xmlns="http://www.w3.org/2000/svg" fill="none" viewBox="0 0 2119 1096">
  <defs/>
  <path fill="#00ACCD" d="M2100 61a61.8 61.8 0 00-62.3-61L76.3 29.3c-34 .5-61.2 29-60.5 63.4l18 901.2a61.8 61.8 0 0060.7 61l1961.5 21.5a61.8 61.8 0 0062-63.3L2100 61z"/>
  <path fill="#fff" d="M697.6 52a70.4 70.4 0 00-70.4 70.3v831.8a70.4 70.4 0 0070.4 70.4h1300.1a70.4 70.4 0 0070.4-70.4V122.3a70.4 70.4 0 00-70.4-70.4H697.6z"/>
  <g fill="#333132">
    <path d="M1688.4 774.8a9.5 9.5 0 01-8.7-5.3 32 32 0 01-3-15.5c0-6.8 1-12 3-15.5s4.9-5.3 8.7-5.3c3.8 0 6.7 1.8 8.7 5.3 2 3.5 3 8.7 3 15.5 0 6.8-1 12-3 15.5s-4.9 5.3-8.7 5.3zm0-5.9c1 0 1.7-.4 2.3-1.3.5-.8 1-2.4 1.3-4.5.4-2.2.5-5.2.5-9.1 0-3.9-.1-7-.5-9.1-.3-2.2-.8-3.7-1.3-4.5a2.6 2.6 0 00-4.6 0c-.6.8-1 2.3-1.3 4.5-.4 2.2-.5 5.2-.5 9 0 4 .1 7 .5 9.2.3 2.1.7 3.7 1.3 4.5.6.9 1.4 1.3 2.3 1.3zM1713.4 774.8a9.5 9.5 0 01-8.7-5.3 32 32 0 01-3-15.5c0-6.8 1-12 3-15.5s4.9-5.3 8.7-5.3c3.8 0 6.7 1.8 8.7 5.3 2 3.5 3 8.7 3 15.5 0 6.8-1 12-3 15.5s-5 5.3-8.7 5.3zm0-5.9c1 0 1.7-.4 2.3-1.3.5-.8 1-2.4 1.3-4.5.3-2.2.5-5.2.5-9.1 0-3.9-.2-7-.5-9.1-.3-2.2-.8-3.7-1.3-4.5a2.6 2.6 0 00-4.6 0c-.6.8-1 2.3-1.4 4.5a64 64 0 00-.5 9c0 4 .2 7 .5 9.2.4 2.1.8 3.7 1.4 4.5.6.9 1.4 1.3 2.3 1.3z"/>
  </g>
  <g fill="#333132">
    <path d="M1680.8 249.6c-.7 0-1.2-.1-1.5-.5-.3-.3-.5-.8-.5-1.6V211c0-.8.2-1.3.5-1.6.3-.4.8-.5 1.5-.5h10.3c4 0 7 .8 9 2.6 1.9 1.7 2.9 4.2 2.9 7.4 0 2.2-.5 4-1.5 5.7a9 9 0 01-3.8 3.6v.2a9 9 0 014.6 3.3c1.3 1.6 1.9 3.7 1.9 6.4 0 3.7-1.1 6.5-3.3 8.5-2.2 2-5.4 3-9.7 3h-10.4zm10.2-23.8a4 4 0 003.3-1.4c.8-1 1.2-2.4 1.2-4.2 0-1.8-.4-3.2-1-4-.8-.8-2-1.2-3.4-1.2h-4.8v10.8h4.7zm.8 17.7c3.2 0 4.8-2 4.8-6 0-2-.4-3.3-1.3-4.3-.8-.9-2-1.3-3.8-1.3h-5.2v11.6h5.5zM1712 249.8c-2.1 0-3.1-.6-3.1-1.7v-37c0-.8.2-1.4.5-1.7.3-.4.8-.5 1.5-.5h9.4c7.8 0 11.7 3.7 11.7 11 0 4.7-1.8 8-5.5 9.9v.2c1.6.9 3 3 4 6.4l3.5 11.2a9.2 9.2 0 01.2.8c0 .8-1 1.3-3.2 1.3h-1.7c-1.8 0-2.8-.4-3-1.3l-3.2-11.2c-.5-1.3-1-2.3-1.6-2.8-.6-.5-1.5-.7-2.8-.7h-2.1V248c0 1-1 1.7-3.1 1.7h-1.6zm8.7-23.2c1 0 2-.6 2.7-1.6.7-1 1.1-2.4 1.1-4.2 0-1.9-.4-3.2-1-4.1a3.6 3.6 0 00-3-1.3h-4v11.2h4.2zM1736.8 249.8c-1.7 0-2.5-.4-2.5-1.2l.1-1 9.6-37.4c.2-1 1.2-1.4 3.1-1.4h3c2 0 3 .4 3.3 1.4l9.5 37.4.1 1c0 .8-.8 1.2-2.4 1.2h-2.3c-1.7 0-2.6-.4-2.8-1.2l-1.8-8h-10.2l-1.8 8c-.2.8-1 1.2-2.5 1.2h-2.4zm15.8-15.3l-3.2-13.6-.7-4.1h-.3l-.7 4.1-3 13.6h7.9zM1765.7 249.6c-.5 0-.9-.5-1.3-1.6-.5-1-.7-2-.7-2.8v-.6l16.2-29.2h-13.4c-.5 0-.9-.2-1.1-.6-.3-.4-.4-1.1-.4-2v-1.4c0-.9.2-1.5.4-2 .2-.3.6-.5 1-.5h21.4c.3 0 .8.5 1.2 1.7.4 1 .6 2 .6 2.8l-.1.9-16 28.8h14.7c.5 0 .9.2 1.1.6.3.4.4 1 .4 2v1.4c0 .9-.1 1.5-.4 2-.2.3-.6.5-1 .5h-22.6zM1797.1 249.8c-2 0-3-.6-3-1.7v-37.7c0-1.1 1-1.7 3-1.7h2c1.9 0 2.9.6 2.9 1.7v37.7c0 1.1-1 1.7-3 1.7h-1.9zM1810.2 249.6c-.7 0-1.2-.1-1.5-.5-.3-.3-.5-.8-.5-1.6v-37c0-1.2 1-1.8 3-1.8h1.8c1 0 1.8.2 2.3.5.4.2.7.7.7 1.2v32.7h9.8c.6 0 1 .2 1.2.6.3.4.4 1 .4 2v1.4c0 .9-.2 1.5-.4 2-.2.3-.6.5-1.2.5h-15.6z"/>
  </g>
  <g fill="#333132">
    <path d="M706.5 954c-.7 0-1.2-.2-1.5-.5-.3-.3-.5-.9-.5-1.6v-37c0-1.2 1-1.8 3-1.8h1.8c1 0 1.8.2 2.3.4.4.3.6.7.6 1.3v32.7h10c.5 0 .9.2 1.1.6.3.4.4 1 .4 1.9v1.5a4 4 0 01-.4 1.9c-.2.4-.6.6-1.1.6h-15.7zM739.7 954.4c-10 0-15-7-15-20.8 0-13.9 5-20.8 15-20.8s15 7 15 20.8c0 13.9-5 20.8-15 20.8zm0-6.5c2.4 0 4.2-1.1 5.3-3.3 1.2-2.2 1.8-5.9 1.8-11 0-5.2-.6-8.9-1.7-11a5.7 5.7 0 00-5.4-3.3c-2.4 0-4.2 1.1-5.4 3.3a24.8 24.8 0 00-1.7 11c0 5.1.6 8.8 1.7 11 1.2 2.2 3 3.3 5.4 3.3zM762.6 954.1c-2 0-3-.5-3-1.7v-37c0-.7.1-1.3.4-1.6.4-.4.9-.6 1.6-.6h9.4c7.8 0 11.7 3.7 11.7 11.1 0 4.6-1.9 7.9-5.5 9.8v.3c1.5.8 2.9 3 4 6.3l3.4 11.3a9.4 9.4 0 01.2.7c0 1-1 1.4-3.1 1.4H780c-1.8 0-2.8-.5-3-1.4l-3.2-11.2c-.5-1.3-1-2.2-1.6-2.7-.6-.5-1.6-.8-2.8-.8h-2.2v14.4c0 1.2-1 1.7-3 1.7h-1.6zm8.8-23.2c1 0 2-.5 2.6-1.5.8-1 1.2-2.5 1.2-4.2 0-1.9-.4-3.3-1.1-4.1a3.6 3.6 0 00-3-1.3h-4v11.1h4.3zM790.4 954c-.7 0-1.2-.2-1.5-.5-.3-.3-.5-.9-.5-1.6v-36.5c0-.8.2-1.3.5-1.7.3-.3.8-.5 1.5-.5h17c.6 0 1 .2 1.2.6.2.5.3 1 .3 2v1.5a4 4 0 01-.3 1.8c-.2.5-.6.7-1.2.7h-11.2v10h10c.5 0 1 .3 1.2.7.2.4.3 1 .3 1.9v1.5a4 4 0 01-.3 1.9c-.3.4-.7.6-1.2.6h-10v11h11.3c.5 0 .9.3 1 .7.3.4.4 1 .4 1.9v1.5a4 4 0 01-.3 2c-.2.3-.6.5-1.1.5h-17zM816.5 954.1c-2 0-3-.5-3-1.7v-37.6c0-1.1 1-1.7 3-1.7h1.5c.7 0 1.3.1 1.7.3.4.2.8.6 1 1.2l11.6 21.4c.5.9 1 2.3 1.8 4.3l.3-.2c-.3-1.5-.5-3-.5-4.3v-21c0-1.1 1-1.7 3-1.7h1.2c2 0 3 .6 3 1.7v37.6c0 1.2-1 1.7-3 1.7h-1.2c-.7 0-1.3 0-1.8-.3a2 2 0 01-1-1l-12-22.3c-.4-.7-1-2-1.6-3.7l-.3.1c.3 1.5.4 2.8.4 4v21.5c0 1.2-1 1.7-3 1.7h-1zM846.2 954.1c-1.7 0-2.5-.4-2.5-1.1v-1l9.6-37.4c.3-1 1.3-1.5 3.2-1.5h3c2 0 3 .5 3.3 1.5l9.5 37.4v1c0 .7-.7 1.1-2.3 1.1h-2.4c-1.6 0-2.5-.3-2.7-1l-1.9-8h-10l-2 8c-.1.7-1 1-2.5 1h-2.3zM862 939l-3.1-13.6-.7-4.1h-.3l-.7 4-3 13.7h7.8z"/>
  </g>
  <g fill="#333132">
    <path d="M713.8 774.8a9.5 9.5 0 01-8.7-5.3 32 32 0 01-3-15.5c0-6.7 1-12 3-15.4 2-3.6 5-5.3 8.7-5.3 3.8 0 6.7 1.7 8.8 5.3 2 3.5 3 8.7 3 15.4 0 6.8-1 12-3 15.5-2 3.6-5 5.3-8.8 5.3zm0-5.8c1 0 1.7-.5 2.3-1.3.6-.9 1-2.4 1.4-4.6.3-2.1.5-5.2.5-9 0-4-.2-7-.5-9.1-.4-2.2-.8-3.7-1.4-4.6a2.6 2.6 0 00-4.5 0c-.6.9-1 2.4-1.4 4.6-.3 2.1-.5 5.2-.5 9 0 4 .2 7 .5 9.1.3 2.2.8 3.7 1.4 4.6.5.8 1.3 1.3 2.2 1.3zM738.8 774.8a9.5 9.5 0 01-8.7-5.3 32 32 0 01-3-15.5c0-6.7 1-12 3-15.4 2-3.6 4.9-5.3 8.7-5.3 3.8 0 6.7 1.7 8.7 5.3 2 3.5 3 8.7 3 15.4 0 6.8-1 12-3 15.5-2 3.6-4.9 5.3-8.7 5.3zm0-5.8c1 0 1.7-.5 2.3-1.3.6-.9 1-2.4 1.4-4.6.3-2.1.4-5.2.4-9 0-4-.1-7-.4-9.1-.4-2.2-.8-3.7-1.4-4.6a2.6 2.6 0 00-4.6 0c-.5.9-1 2.4-1.3 4.6-.4 2.1-.5 5.2-.5 9 0 4 .1 7 .5 9.1.3 2.2.8 3.7 1.3 4.6.6.8 1.4 1.3 2.3 1.3zM763.5 774.8c-1.5 0-3-.2-4.2-.6-1.3-.5-2-1-2-1.7 0-1 .3-2 .7-3 .4-1.1.9-1.7 1.4-1.7.2 0 .6 0 1.1.2a8 8 0 001.9.2c1.3 0 2.3-.5 2.9-1.5.5-1 .8-2.6.8-4.8v-26.7c0-1.1 1-1.7 3-1.7h1.9c2 0 3 .6 3 1.7v27.4c0 8.2-3.5 12.2-10.5 12.2zM779.2 774.5c-1.7 0-2.6-.3-2.6-1.1l.2-1 9.5-37.4c.2-1 1.3-1.5 3.2-1.5h3c2 0 3 .5 3.2 1.5l9.5 37.4.2 1c0 .8-.8 1.1-2.4 1.1h-2.4c-1.6 0-2.5-.3-2.7-1l-1.9-8H786l-1.9 8c-.1.7-1 1-2.5 1h-2.3zm15.7-15.2l-3.1-13.6-.7-4.1h-.3l-.7 4.1-3 13.6h7.8zM810.9 774.5c-2 0-3-.5-3-1.6v-37.7c0-1 1-1.7 3-1.7h1.5c.7 0 1.2.1 1.7.3.4.2.7.6 1 1.2l11.5 21.4c.5.9 1.1 2.3 1.8 4.3l.3-.1c-.3-1.6-.4-3-.4-4.4v-21c0-1 1-1.7 3-1.7h1.1c2 0 3 .6 3 1.7V773c0 1-1 1.6-3 1.6h-1.2c-.7 0-1.2 0-1.7-.2a2 2 0 01-1-1.1l-12.1-22.3c-.4-.7-1-2-1.6-3.7l-.3.1c.3 1.5.5 2.8.5 4V773c0 1-1 1.6-3 1.6H811zM860.7 774.8a9.5 9.5 0 01-8.7-5.3 32 32 0 01-3-15.5c0-6.7 1-12 3-15.4 2-3.6 5-5.3 8.7-5.3 3.8 0 6.7 1.7 8.8 5.3 2 3.5 3 8.7 3 15.4 0 6.8-1 12-3 15.5-2 3.6-5 5.3-8.8 5.3zm0-5.8c1 0 1.7-.5 2.3-1.3.6-.9 1-2.4 1.4-4.6.3-2.1.5-5.2.5-9 0-4-.2-7-.5-9.1-.4-2.2-.8-3.7-1.4-4.6a2.6 2.6 0 00-4.6 0c-.5.9-1 2.4-1.3 4.6-.4 2.1-.5 5.2-.5 9 0 4 .1 7 .5 9.1.3 2.2.8 3.7 1.3 4.6.6.8 1.4 1.3 2.3 1.3zM885.7 774.8a9.5 9.5 0 01-8.7-5.3 32 32 0 01-3-15.5c0-6.7 1-12 3-15.4 2-3.6 4.9-5.3 8.7-5.3 3.8 0 6.7 1.7 8.7 5.3 2 3.5 3 8.7 3 15.4 0 6.8-1 12-3 15.5-2 3.6-4.9 5.3-8.7 5.3zm0-5.8c1 0 1.7-.5 2.3-1.3.6-.9 1-2.4 1.3-4.6.4-2.1.5-5.2.5-9 0-4-.1-7-.5-9.1-.3-2.2-.7-3.7-1.3-4.6a2.6 2.6 0 00-4.6 0c-.5.9-1 2.4-1.3 4.6-.4 2.1-.5 5.2-.5 9 0 4 .1 7 .5 9.1.3 2.2.8 3.7 1.3 4.6.6.8 1.4 1.3 2.3 1.3zM910.7 774.8a9.5 9.5 0 01-8.7-5.3 32 32 0 01-3-15.5c0-6.7 1-12 3-15.4 2-3.6 4.9-5.3 8.7-5.3 3.8 0 6.7 1.7 8.7 5.3 2 3.5 3 8.7 3 15.4 0 6.8-1 12-3 15.5-2 3.6-4.9 5.3-8.7 5.3zm0-5.8c1 0 1.7-.5 2.3-1.3.5-.9 1-2.4 1.3-4.6.4-2.1.5-5.2.5-9 0-4-.1-7-.5-9.1-.3-2.2-.8-3.7-1.3-4.6a2.6 2.6 0 00-4.6 0c-.6.9-1 2.4-1.3 4.6-.4 2.1-.5 5.2-.5 9 0 4 .1 7 .5 9.1.3 2.2.7 3.7 1.3 4.6.6.8 1.4 1.3 2.3 1.3zM935.7 774.8a9.5 9.5 0 01-8.7-5.3 32 32 0 01-3-15.5c0-6.7 1-12 3-15.4 2-3.6 4.9-5.3 8.7-5.3 3.8 0 6.7 1.7 8.7 5.3 2 3.5 3 8.7 3 15.4 0 6.8-1 12-3 15.5-2 3.6-5 5.3-8.7 5.3zm0-5.8c1 0 1.7-.5 2.3-1.3.5-.9 1-2.4 1.3-4.6.4-2.1.5-5.2.5-9 0-4-.1-7-.5-9.1-.3-2.2-.8-3.7-1.3-4.6a2.6 2.6 0 00-4.6 0c-.6.9-1 2.4-1.4 4.6-.3 2.1-.5 5.2-.5 9 0 4 .2 7 .5 9.1.4 2.2.8 3.7 1.4 4.6.6.8 1.3 1.3 2.3 1.3z"/>
  </g>
  <g fill="#333132">
    <path d="M706.5 598c-.7 0-1.2-.2-1.5-.5-.3-.4-.5-1-.5-1.7v-36.5c0-.8.2-1.3.5-1.6.3-.4.8-.5 1.5-.5h10.3c4 0 7 .9 9 2.6 1.8 1.7 2.8 4.2 2.8 7.4 0 2.2-.5 4-1.4 5.7a9.1 9.1 0 01-3.8 3.6v.2c1.8.6 3.3 1.7 4.5 3.3 1.3 1.6 2 3.7 2 6.4 0 3.7-1.1 6.5-3.3 8.5-2.2 2-5.4 3-9.7 3h-10.4zm10.2-23.9a4 4 0 003.3-1.4c.8-1 1.2-2.4 1.2-4.2 0-1.8-.4-3.2-1.1-4-.7-.8-1.9-1.2-3.4-1.2H712V574h4.7zm.8 17.7c3.2 0 4.8-2 4.8-6 0-2-.4-3.3-1.3-4.2-.8-1-2-1.4-3.8-1.4H712v11.6h5.5zM737.6 598c-2 0-3-.5-3-1.6v-37c0-.8.2-1.3.5-1.7.3-.3.9-.5 1.6-.5h9.3c7.8 0 11.7 3.7 11.7 11 0 4.7-1.8 8-5.4 9.9v.2c1.5.9 2.8 3 4 6.4l3.4 11.2a9.3 9.3 0 01.2.8c0 .9-1 1.3-3.1 1.3H755c-1.9 0-2.9-.4-3-1.3l-3.3-11.2c-.4-1.3-1-2.2-1.6-2.8-.6-.5-1.5-.7-2.7-.7h-2.2v14.4c0 1.1-1 1.7-3 1.7h-1.7zm8.8-23.1c1 0 2-.5 2.7-1.6.8-1 1.1-2.4 1.1-4.2 0-1.8-.3-3.2-1-4a3.6 3.6 0 00-3-1.4h-4v11.2h4.2zM762.6 598c-1.7 0-2.5-.3-2.5-1.1v-1l9.6-37.4c.3-1 1.3-1.4 3.2-1.4h3c2 0 3 .4 3.3 1.4l9.5 37.4v1c0 .8-.7 1.2-2.3 1.2h-2.3c-1.7 0-2.6-.4-2.8-1.1l-1.8-8h-10.2l-1.8 8c-.2.7-1 1-2.5 1h-2.4zm15.8-15.2l-3.2-13.6-.7-4.1h-.3l-.7 4.1-3 13.6h7.9zM791.5 598c-.4 0-.8-.6-1.3-1.7-.4-1-.7-2-.7-2.8l.1-.6 16.1-29.2h-13.4c-.5 0-.8-.2-1-.6-.3-.4-.4-1-.4-2v-1.4c0-.9.1-1.5.3-2 .3-.3.6-.5 1.1-.5h21.3c.4 0 .8.5 1.2 1.7.4 1 .7 2 .7 2.8 0 .4 0 .7-.2.9l-16 28.8h14.8c.5 0 .8.2 1 .6.3.4.4 1.1.4 2v1.4c0 .9-.1 1.5-.3 2-.3.3-.6.5-1.1.5h-22.6zM823 598.1c-2 0-3-.6-3-1.7v-37.7c0-1.1 1-1.7 3-1.7h2c1.9 0 2.9.6 2.9 1.7v37.7c0 1.1-1 1.7-3 1.7H823zM836.1 598c-.7 0-1.2-.2-1.5-.5-.3-.4-.4-1-.4-1.7v-37c0-1.2 1-1.7 3-1.7h1.7c1 0 1.8.1 2.3.4.5.2.7.7.7 1.2v32.7h10c.5 0 .8.2 1 .6.3.4.4 1 .4 2v1.4a4 4 0 01-.3 2c-.3.3-.6.5-1.2.5h-15.7zM859.1 598.1c-2 0-3-.6-3-1.7v-37.7c0-1.1 1-1.7 3-1.7h2c2 0 2.9.6 2.9 1.7v37.7c0 1.1-1 1.7-3 1.7h-1.9zM869.5 598c-1.8 0-2.6-.3-2.6-1.1l.1-1 9.6-37.4c.2-1 1.2-1.4 3.1-1.4h3c2 0 3 .4 3.3 1.4l9.5 37.4.1 1c0 .8-.8 1.2-2.4 1.2H891c-1.7 0-2.6-.4-2.7-1.1l-2-8h-10l-2 8c0 .7-.9 1-2.4 1h-2.3zm15.7-15.2l-3.2-13.6-.7-4.1h-.3c-.1 1.5-.4 2.9-.7 4.1l-3 13.6h7.9zM901.2 598c-2 0-3-.5-3-1.6v-37.7c0-1 1-1.6 3-1.6h1.5c.7 0 1.3 0 1.7.3.4.1.8.5 1 1.1L917 580c.5.8 1 2.2 1.8 4.2l.3-.1c-.3-1.6-.5-3-.5-4.4v-21c0-1 1-1.6 3-1.6h1.2c2 0 3 .5 3 1.6v37.7c0 1.1-1 1.7-3 1.7h-1.2c-.7 0-1.3-.1-1.8-.3a2 2 0 01-1-1.1l-12-22.3c-.5-.7-1-1.9-1.6-3.7l-.3.2c.3 1.4.4 2.7.4 4v21.5c0 1.1-1 1.7-3 1.7h-1.1z"/>
  </g>
  <g fill="#333132">
    <path d="M712.7 436.4a19 19 0 01-5.5-.8 9.9 9.9 0 01-4-2.1 7 7 0 01-.6-1l-.2-.9c0-1 .2-1.9.7-2.9.5-1 1-1.5 1.6-1.5.3 0 .6.2 1.1.5l1 .5c1.8 1.1 3.6 1.7 5.5 1.7 1.5 0 2.7-.4 3.8-1.2 1-.8 1.6-2 1.6-3.6a5 5 0 00-1.5-3.8c-1-1-2.3-1.9-4.2-2.9-2-1-3.6-2.1-4.9-3.1a10.8 10.8 0 01-4-9c0-2.3.5-4.4 1.5-6.2 1-1.7 2.5-3 4.3-4 1.9-1 4-1.4 6.3-1.4a16 16 0 017.5 2c.5.4.8 1 .8 1.6 0 .8-.2 1.8-.6 2.8-.5 1-1 1.6-1.5 1.6-.2 0-.7-.1-1.3-.4-1.5-.6-3-1-4.4-1-1.7 0-3 .5-3.8 1.3-.9.9-1.3 1.9-1.3 3.1 0 1 .2 2 .7 2.7.4.7 1 1.3 1.7 1.8a30 30 0 004 2.4c2.8 1.5 4.8 3 6.1 4.8 1.4 1.7 2 4 2 7a13 13 0 01-1.4 6.1c-1 1.9-2.4 3.3-4.3 4.4-1.8 1-4.1 1.5-6.7 1.5zM744.5 422.7c-.5 0-1-.1-1.3-.3-.3-.2-.5-.5-.7-.9l-5.2-9.9-.8-1.6-.6-1.5h-.2l.3 3.6v22.4c0 .5-.2 1-.7 1.2-.4.3-1.2.4-2.3.4h-1.5c-1 0-1.8 0-2.3-.4-.5-.2-.7-.7-.7-1.2v-37.7c0-.6.2-1 .7-1.3.5-.2 1.2-.4 2.3-.4h1.6c.8 0 1.5.2 2 .4.4.2.8.6 1 1l8 15.4c.3.5.6 1.4 1 2.7l1-2.7 8-15.3c.2-.5.6-.9 1.1-1.1.5-.2 1.1-.4 2-.4h1.5c1 0 1.8.2 2.3.4.5.3.7.7.7 1.3v37.7c0 .5-.2 1-.7 1.2-.5.3-1.2.4-2.3.4h-1.5c-1 0-1.8 0-2.3-.4-.4-.2-.7-.7-.7-1.2V412l.4-3.6h-.2c-.5 1.3-1 2.3-1.5 3.1l-5.1 10-.8.8c-.3.2-.7.3-1.2.3h-1.3zM767 436.1c-1.8 0-2.6-.3-2.6-1.1l.1-1 9.5-37.4c.3-1 1.3-1.5 3.2-1.5h3c2 0 3 .5 3.3 1.5L793 434l.1 1c0 .8-.8 1.1-2.4 1.1h-2.3c-1.7 0-2.6-.3-2.8-1l-1.8-8h-10.2l-1.8 8c-.2.7-1 1-2.5 1h-2.4zm15.7-15.2l-3.2-13.6-.7-4.1h-.3l-.7 4.1-3 13.6h7.9zM799 436.1c-2.1 0-3.1-.5-3.1-1.6v-37c0-.8.2-1.4.5-1.7.3-.4.8-.5 1.5-.5h9.4c7.8 0 11.7 3.6 11.7 11 0 4.6-1.8 8-5.5 9.9v.2c1.6.9 3 3 4 6.3L821 434a9.3 9.3 0 01.2.7c0 1-1 1.4-3.2 1.4h-1.7c-1.8 0-2.8-.5-3-1.4l-3.2-11.1c-.5-1.4-1-2.3-1.6-2.8-.6-.5-1.5-.7-2.8-.7h-2.1v14.4c0 1-1 1.6-3.1 1.6h-1.6zm8.7-23.1c1 0 2-.6 2.7-1.6.7-1 1.1-2.5 1.1-4.2 0-1.9-.4-3.2-1-4.1a3.6 3.6 0 00-3-1.3h-4V413h4.2zM833.3 436.1c-2 0-3-.5-3-1.6v-32.7h-7c-.6 0-1-.2-1.3-.6a4 4 0 01-.3-2v-1.4c0-.9.1-1.5.3-2 .3-.3.7-.5 1.2-.5h22c.6 0 1 .1 1.2.5.3.4.4 1 .4 2v1.5c0 .9-.1 1.5-.4 1.9-.2.4-.6.6-1.2.6h-7v32.7c0 1-1 1.6-3 1.6h-2z"/>
  </g>
  <g fill="#333132">
    <path d="M706.5 249.7c-.7 0-1.2-.2-1.5-.5-.3-.3-.4-.9-.4-1.7v-36.4c0-.8.1-1.3.4-1.7.3-.3.8-.5 1.5-.5h17c.6 0 1 .2 1.2.6.2.4.4 1 .4 2v1.4a4 4 0 01-.4 2c-.2.3-.6.5-1.2.5h-11.2v10.2h10c.6 0 1 .2 1.2.6.2.4.3 1 .3 1.9v1.5a4 4 0 01-.3 1.9c-.2.4-.6.6-1.2.6h-10v11h11.3c.5 0 .9.3 1.1.7.2.3.4 1 .4 1.9v1.5a4 4 0 01-.4 2c-.2.3-.6.5-1 .5h-17.2zM732 249.7c-.8 0-1.3-.2-1.6-.5-.3-.3-.4-.9-.4-1.7v-36.4c0-.8.1-1.3.4-1.7.3-.3.8-.5 1.5-.5h10.6c5 0 8.7 1.7 11.1 5 2.5 3.3 3.7 8.5 3.7 15.4 0 7-1.2 12.1-3.7 15.4-2.4 3.3-6.1 5-11 5h-10.7zm10.3-6.5c2.4 0 4.1-1.1 5.3-3.3 1.2-2.1 1.8-5.7 1.8-10.6 0-5-.6-8.5-1.8-10.6a5.7 5.7 0 00-5.3-3.3h-4.5v27.8h4.5zM775.5 250.1c-4.3 0-7.7-1-10-3.2a11.4 11.4 0 01-3.7-9v-27.4c0-1.1 1-1.7 3-1.7h1.8c2 0 3 .6 3 1.7v27.1c0 1.8.5 3.2 1.6 4.3 1 1.1 2.5 1.7 4.3 1.7 1.8 0 3.2-.6 4.3-1.7a5.8 5.8 0 001.6-4.3v-27.1c0-1.1 1-1.7 3-1.7h1.8c2 0 3 .6 3 1.7v27.4c0 3.9-1.3 6.9-3.6 9a14.6 14.6 0 01-10.1 3.2zM809.1 250.1c-5.3 0-9.3-1.7-11.7-5-2.5-3.4-3.7-8.7-3.7-15.8 0-7 1.3-12.2 3.8-15.7 2.6-3.4 6.5-5 11.8-5 2.1 0 4 .2 5.3.7.6.2 1 .5 1.3.8.2.4.3 1 .3 1.6 0 1.1-.3 2.2-.7 3.3-.5 1-1 1.3-1.7 1-1.3-.5-2.7-.8-4.2-.8a6.4 6.4 0 00-6 3.5c-1.3 2.3-2 5.8-2 10.6 0 4.7.7 8.3 2 10.6a6.6 6.6 0 006.2 3.4c.8 0 1.6 0 2.2-.2a27.6 27.6 0 002.7-.7c.7 0 1.2.4 1.5 1.3.4.8.5 1.9.5 3.1 0 .6 0 1-.3 1.4-.2.4-.6.7-1.2 1l-2.7.6c-1 .2-2.2.3-3.4.3z"/>
  </g>
  <g fill="#00ACCD">
    <path d="M712.8 173.2c-2 0-3.8-.3-5.7-.8a8.6 8.6 0 01-4-2.3c-.6-.7-.8-1.4-.8-2 0-1.2.3-2.3.9-3.4.5-1.1 1.2-1.7 1.9-1.7.3 0 .8.2 1.5.6l1.5.8a9 9 0 004 1.2 6 6 0 003.2-.9c1-.6 1.4-1.6 1.4-3s-.4-2.6-1.3-3.4c-.9-.9-2.3-1.8-4.2-2.8-3-1.7-5-3.4-6.4-5.2-1.3-1.8-2-4.1-2-7 0-2.4.5-4.5 1.6-6.3 1-1.7 2.5-3.1 4.3-4 1.9-1 4-1.5 6.3-1.5a15.8 15.8 0 017.7 2.1c.7.5 1 1.2 1 2 0 1-.2 2.1-.6 3.3-.5 1-1 1.6-1.7 1.6-.3 0-.9-.1-1.7-.4a11 11 0 00-3.8-.9c-1.6 0-2.7.4-3.3 1-.6.8-1 1.5-1 2.4 0 1.4.4 2.5 1.2 3.2.7.7 1.9 1.5 3.5 2.4l1.6.8a17 17 0 015.8 5c1.2 1.8 1.8 4.1 1.8 7 0 2.2-.5 4.2-1.4 6-1 2-2.4 3.4-4.3 4.5a13.6 13.6 0 01-7 1.7zM742 173.2c-4.3 0-7.8-1-10.2-3.2a11.5 11.5 0 01-3.8-9.2v-27c0-1.3 1.2-2 3.4-2h2.3c2.3 0 3.4.7 3.4 2v26.4c0 1.6.5 3 1.4 4 .9.9 2 1.4 3.6 1.4 1.4 0 2.6-.5 3.6-1.5.9-1 1.3-2.3 1.3-3.9v-26.5c0-1.2 1.1-1.8 3.4-1.8h2.3c2.2 0 3.4.6 3.4 1.8v27.1c0 4-1.3 7-3.7 9.2a15 15 0 01-10.3 3.2zM764.5 172.9c-2.3 0-3.5-.7-3.5-1.9v-36.7c0-.8.2-1.4.6-1.8.3-.3 1-.5 1.7-.5h9.8c3.5 0 6.4.9 8.6 2.6 2.2 1.8 3.2 4.7 3.2 8.9 0 4.5-1.8 7.8-5.5 9.8v.2c.9.5 1.6 1.3 2.3 2.4.7 1 1.3 2.2 1.6 3.5l3.4 11.1.2.7c0 1-1.2 1.6-3.6 1.6h-2c-2 0-3.3-.5-3.5-1.6l-3.1-11c-.4-.9-.8-1.5-1.2-1.8-.5-.4-1.2-.6-2.1-.6H770V171c0 1.2-1.2 1.9-3.5 1.9h-2zm8.7-23.6c.9 0 1.6-.4 2.2-1.2.6-.9 1-2.1 1-3.8 0-1.6-.4-2.8-1-3.6a2.9 2.9 0 00-2.3-1H770v9.6h3.2zM793 172.9c-2.3 0-3.4-.7-3.4-1.9v-37.3c0-1.2 1.1-1.8 3.4-1.8h1.5c.8 0 1.4 0 1.9.3.4.2.8.6 1.1 1.3l10.5 19a42 42 0 012 4.5h.2c-.3-2.1-.4-3.6-.4-4.7v-18.6c0-1.2 1-1.8 3.3-1.8h1.4c2.3 0 3.4.6 3.4 1.8V171c0 1.2-1.1 1.9-3.4 1.9h-1a5 5 0 01-2-.3c-.5-.3-1-.7-1.2-1.4l-11.1-19.8c-.4-.5-1-1.8-1.6-3.7l-.3.2c.3 1.8.5 3 .5 4V171c0 1.2-1.2 1.9-3.4 1.9H793zM822.7 172.9c-1.9 0-2.8-.5-2.8-1.3 0-.3 0-.7.2-1l9-37.1c.2-1 1.4-1.6 3.5-1.6h3.8c2.1 0 3.3.5 3.6 1.6l9 37v1c0 1-.8 1.4-2.4 1.4h-3.1c-1.9 0-3-.4-3.1-1.3l-1.5-7H830l-1.5 7c-.2.9-1.1 1.3-2.8 1.3h-3zm15.2-15.5l-2.6-12.3-.7-4.4h-.3a66 66 0 01-.7 4.4l-2.6 12.3h6.9zM867.5 159.8c-.5 0-1-.1-1.4-.4-.3-.2-.6-.5-.9-1l-4.3-8a15.6 15.6 0 01-1.2-2.8h-.3c.3 1.4.4 2.5.4 3.3V171c0 .7-.3 1.1-.8 1.4-.5.3-1.4.5-2.6.5h-2c-1.2 0-2-.2-2.6-.5-.5-.3-.8-.7-.8-1.4v-37.3c0-.6.3-1.1.8-1.4.6-.3 1.4-.4 2.6-.4h1.8c1 0 1.7 0 2.2.3.6.3 1 .7 1.3 1.3l7.3 13.7c.3.7.7 1.6 1 2.8l1.1-2.8 7.2-13.7c.3-.6.8-1 1.3-1.3.6-.2 1.3-.3 2.2-.3h1.8c1.2 0 2.1.1 2.6.4.5.3.8.8.8 1.4V171c0 .7-.3 1.1-.8 1.4-.5.3-1.4.5-2.6.5h-2c-1.2 0-2-.2-2.5-.5-.6-.3-.8-.7-.8-1.4V151c0-1 .1-2 .4-3.3h-.3c-.2.7-.7 1.6-1.2 2.7l-4.3 8c-.3.6-.6 1-1 1.1-.3.3-.8.4-1.4.4h-1zM892.5 172.8c-.7 0-1.3-.2-1.6-.6-.4-.4-.5-1-.5-1.8v-36c0-.9.1-1.5.5-1.9.3-.3.9-.5 1.6-.5h17.2c.6 0 1 .2 1.3.7.3.4.4 1.2.4 2.2v1.8c0 1-.1 1.7-.4 2.2-.3.5-.7.7-1.3.7h-10.2v8.5h9c.6 0 1 .2 1.3.7.3.4.4 1.2.4 2.2v1.8c0 1-.1 1.7-.4 2.2-.3.5-.7.7-1.3.7h-9v9.4h10.3c.5 0 1 .3 1.2.7.3.5.4 1.2.4 2.2v1.8c0 1-.1 1.8-.4 2.3-.2.4-.7.7-1.2.7h-17.3zM923.9 180.8a5 5 0 01-2.4-.4c-.5-.3-.7-.7-.7-1.4v-49.2c0-.7.2-1.1.7-1.4a5 5 0 012.4-.4h.8c1 0 1.8.2 2.3.4.5.3.8.7.8 1.4V179c0 .7-.3 1.1-.8 1.4a5 5 0 01-2.3.4h-.8zM946.8 173.2c-2 0-3.8-.3-5.7-.8a8.6 8.6 0 01-4-2.3c-.5-.7-.8-1.4-.8-2 0-1.2.3-2.3.9-3.4.6-1.1 1.2-1.7 2-1.7l1.4.6 1.5.8a9 9 0 004 1.2 6 6 0 003.3-.9c.9-.6 1.4-1.6 1.4-3s-.5-2.6-1.4-3.4c-.9-.9-2.3-1.8-4.2-2.8-2.9-1.7-5-3.4-6.4-5.2-1.3-1.8-2-4.1-2-7 0-2.4.6-4.5 1.6-6.3 1-1.7 2.5-3.1 4.3-4 1.9-1 4-1.5 6.4-1.5a15.8 15.8 0 017.6 2.1c.7.5 1 1.2 1 2 0 1-.2 2.1-.6 3.3-.5 1-1 1.6-1.7 1.6-.3 0-.9-.1-1.7-.4a11 11 0 00-3.8-.9c-1.6 0-2.7.4-3.3 1-.6.8-1 1.5-1 2.4 0 1.4.5 2.5 1.2 3.2.7.7 2 1.5 3.5 2.4l1.6.8a17 17 0 015.8 5c1.2 1.8 1.8 4.1 1.8 7 0 2.2-.5 4.2-1.4 6-1 2-2.4 3.4-4.3 4.5a13.6 13.6 0 01-7 1.7zM976.6 173.2c-10.2 0-15.3-7-15.3-20.8 0-14 5-20.9 15.3-20.9 5 0 8.7 1.7 11.3 5 2.6 3.5 3.9 8.7 3.9 15.9 0 7.1-1.3 12.4-4 15.8-2.5 3.3-6.3 5-11.2 5zm0-7.6c1.4 0 2.5-.4 3.4-1.2.8-.8 1.5-2.1 2-4 .3-2 .6-4.6.6-8 0-3.4-.3-6-.7-8-.4-1.9-1-3.3-1.9-4-.9-.8-2-1.2-3.4-1.2a5 5 0 00-3.4 1.2c-.9.7-1.5 2.1-2 4-.4 2-.6 4.6-.6 8 0 3.3.2 6 .6 8 .5 1.9 1.1 3.2 2 4a5 5 0 003.4 1.2zM998.3 172.8c-.8 0-1.3-.2-1.6-.6-.4-.4-.6-1-.6-1.8v-36.1c0-.8.2-1.4.6-1.8.3-.3.8-.5 1.6-.5h10.4c8.2 0 12.2 3.3 12.2 9.8 0 4.4-1.7 7.6-5.2 9.6v.3c2 .6 3.6 1.7 4.7 3.3a11 11 0 011.7 6.3c0 3.4-1.1 6.2-3.3 8.3-2.3 2.1-5.6 3.2-10 3.2h-10.5zm10.5-24.2c1.2 0 2.1-.4 2.7-1.2.6-.8 1-2 1-3.8 0-1.6-.3-2.8-1-3.6-.5-.7-1.4-1-2.6-1h-4.1v9.6h4zm.4 17.1c1.4 0 2.5-.4 3.1-1.2.7-.8 1-2.2 1-4 0-1.8-.3-3-1-3.9-.6-.7-1.6-1-3.1-1h-4.5v10.1h4.5zM1029.7 172.9c-2.4 0-3.5-.7-3.5-1.9v-36.7c0-.8.2-1.4.5-1.8.4-.3 1-.5 1.8-.5h9.7c3.6 0 6.5.9 8.7 2.6 2.1 1.8 3.2 4.7 3.2 8.9 0 4.5-1.8 7.8-5.5 9.8v.2c.9.5 1.6 1.3 2.3 2.4.7 1 1.2 2.2 1.6 3.5l3.4 11.1.2.7c0 1-1.2 1.6-3.6 1.6h-2c-2.1 0-3.3-.5-3.5-1.6l-3.1-11c-.4-.9-.8-1.5-1.2-1.8-.5-.4-1.2-.6-2.2-.6h-1.3V171c0 1.2-1.2 1.9-3.5 1.9h-2zm8.7-23.6c.9 0 1.6-.4 2.2-1.2.6-.9.9-2.1.9-3.8 0-1.6-.3-2.8-.9-3.6a2.9 2.9 0 00-2.4-1h-3v9.6h3.2zM1057.3 172.8c-.8 0-1.3-.2-1.6-.6-.4-.4-.6-1-.6-1.8v-36c0-.9.2-1.5.6-1.9.3-.3.8-.5 1.6-.5h17.2c.6 0 1 .2 1.3.7.2.4.4 1.2.4 2.2v1.8c0 1-.2 1.7-.5 2.2-.2.5-.6.7-1.2.7h-10.3v8.5h9.1c.6 0 1 .2 1.3.7.3.4.4 1.2.4 2.2v1.8c0 1-.1 1.7-.4 2.2-.3.5-.7.7-1.3.7h-9v9.4h10.2c.6 0 1 .3 1.3.7.2.5.4 1.2.4 2.2v1.8c0 1-.2 1.8-.4 2.3-.3.4-.7.7-1.3.7h-17.2zM1083.6 172.9c-2.2 0-3.4-.7-3.4-1.9v-37.3c0-1.2 1.2-1.8 3.4-1.8h1.5c.8 0 1.4 0 1.9.3.5.2.8.6 1.2 1.3l10.4 19c.6 1 1.2 2.5 2 4.5h.3c-.4-2.1-.5-3.6-.5-4.7v-18.6c0-1.2 1.1-1.8 3.4-1.8h1.4c2.2 0 3.3.6 3.3 1.8V171c0 1.2-1 1.9-3.3 1.9h-1.2a5 5 0 01-1.9-.3c-.5-.3-.9-.7-1.2-1.4l-11.1-19.8c-.4-.5-.9-1.8-1.6-3.7l-.3.2c.3 1.8.5 3 .5 4V171c0 1.2-1.1 1.9-3.4 1.9h-1.4zM1127.9 173.2c-10.2 0-15.3-7-15.3-20.8 0-14 5.1-20.9 15.3-20.9 5 0 8.7 1.7 11.3 5 2.6 3.5 3.9 8.7 3.9 15.9 0 7.1-1.3 12.4-3.9 15.8-2.6 3.3-6.4 5-11.3 5zm0-7.6c1.4 0 2.6-.4 3.4-1.2.9-.8 1.5-2.1 2-4 .4-2 .6-4.6.6-8 0-3.4-.2-6-.7-8-.4-1.9-1-3.3-1.9-4-.8-.8-2-1.2-3.4-1.2a5 5 0 00-3.4 1.2c-.8.7-1.5 2.1-2 4-.4 2-.6 4.6-.6 8 0 3.3.2 6 .6 8 .5 1.9 1.2 3.2 2 4a5 5 0 003.4 1.2zM1163.6 159.8c-.5 0-1-.1-1.4-.4-.3-.2-.6-.5-.9-1l-4.3-8-.7-1.6-.5-1.2h-.3c.3 1.4.4 2.5.4 3.3V171c0 .7-.3 1.1-.8 1.4-.5.3-1.4.5-2.6.5h-2c-1.2 0-2-.2-2.6-.5-.5-.3-.7-.7-.7-1.4v-37.3c0-.6.2-1.1.7-1.4.6-.3 1.4-.4 2.6-.4h1.8c1 0 1.7 0 2.3.3.5.3 1 .7 1.2 1.3l7.3 13.7c.4.7.7 1.6 1 2.8l1.1-2.8 7.2-13.7c.3-.6.8-1 1.3-1.3.6-.2 1.3-.3 2.2-.3h1.8c1.2 0 2.1.1 2.6.4.5.3.8.8.8 1.4V171c0 .7-.3 1.1-.8 1.4-.5.3-1.4.5-2.6.5h-2c-1.2 0-2-.2-2.5-.5-.6-.3-.8-.7-.8-1.4V151c0-1 .1-2 .4-3.3h-.3c-.2.7-.7 1.6-1.2 2.7l-4.3 8c-.3.6-.6 1-1 1.1-.3.3-.8.4-1.4.4h-1zM1188.6 172.8c-.7 0-1.3-.2-1.6-.6-.3-.4-.5-1-.5-1.8v-36c0-.9.2-1.5.5-1.9.3-.3.9-.5 1.6-.5h17.2c.6 0 1 .2 1.3.7.3.4.4 1.2.4 2.2v1.8c0 1-.1 1.7-.4 2.2-.3.5-.7.7-1.3.7h-10.2v8.5h9c.6 0 1 .2 1.3.7.3.4.4 1.2.4 2.2v1.8c0 1-.1 1.7-.4 2.2-.2.5-.7.7-1.3.7h-9v9.4h10.3c.5 0 1 .3 1.2.7.3.5.4 1.2.4 2.2v1.8c0 1-.1 1.8-.4 2.3-.2.4-.6.7-1.2.7h-17.3z"/>
  </g>
  <g fill="#00ACCD">
    <path d="M707.2 359.2c-2.3 0-3.4-.6-3.4-1.9v-37.2c0-1.3 1.1-2 3.4-2h1.5c.8 0 1.4.2 1.9.4.4.2.8.7 1.1 1.3l10.5 19c.6 1 1.2 2.5 2 4.6l.2-.2c-.3-2-.4-3.5-.4-4.6v-18.5c0-1.3 1-2 3.3-2h1.4c2.3 0 3.4.7 3.4 2v37.2c0 1.3-1.1 1.9-3.4 1.9h-1a5 5 0 01-2-.3c-.5-.2-1-.7-1.2-1.3l-11.1-19.8c-.4-.6-1-1.9-1.6-3.8l-.3.2c.3 1.8.5 3.1.5 4v19.1c0 1.3-1.2 1.9-3.4 1.9h-1.4zM736.9 359.2c-1.9 0-2.8-.4-2.8-1.3 0-.3 0-.6.2-1l9-37c.2-1.2 1.4-1.7 3.5-1.7h3.8c2.1 0 3.3.5 3.6 1.6l9 37v1.1c0 .9-.8 1.3-2.4 1.3h-3.1c-1.9 0-3-.4-3.1-1.2l-1.5-7.1h-8.9l-1.5 7c-.2.9-1.1 1.3-2.8 1.3h-3zm15.2-15.4l-2.6-12.4-.7-4.4h-.3l-.7 4.4-2.6 12.4h6.9zM781.7 346c-.5 0-1 0-1.4-.2-.3-.2-.6-.6-.9-1.1l-4.3-8a15.5 15.5 0 01-1.2-2.8h-.3c.3 1.5.4 2.5.4 3.3v20.1c0 .7-.3 1.2-.8 1.5-.5.3-1.4.4-2.6.4h-2c-1.2 0-2-.1-2.6-.4-.5-.3-.7-.8-.7-1.5v-37.2c0-.7.2-1.2.7-1.5.6-.3 1.4-.4 2.6-.4h1.8c1 0 1.7.1 2.3.4.5.2 1 .6 1.2 1.2l7.3 13.7c.3.7.7 1.6 1 2.8l1.1-2.8 7.2-13.7c.3-.6.8-1 1.3-1.2.6-.3 1.3-.4 2.2-.4h1.8c1.2 0 2.1.1 2.6.4.5.3.8.8.8 1.5v37.2c0 .7-.3 1.2-.8 1.5-.5.3-1.4.4-2.6.4h-2c-1.2 0-2-.1-2.5-.4-.6-.3-.8-.8-.8-1.5v-20.1c0-1 .1-2 .4-3.2h-.3c-.2.7-.6 1.6-1.2 2.7l-4.3 8c-.3.5-.6.9-1 1-.3.3-.8.4-1.4.4h-1zM806.7 359c-.7 0-1.3-.1-1.6-.5-.4-.3-.5-1-.5-1.7v-36.2c0-.8.1-1.4.5-1.7.3-.4.9-.6 1.6-.6H824c.6 0 1 .2 1.3.7.3.5.4 1.2.4 2.2v1.8c0 1-.1 1.8-.4 2.2-.3.5-.7.7-1.3.7h-10.2v8.5h9c.6 0 1 .2 1.3.7.3.5.4 1.2.4 2.2v1.8c0 1-.1 1.8-.4 2.2-.2.5-.7.7-1.3.7h-9v9.5H824c.5 0 1 .2 1.2.7.3.4.4 1.2.4 2.2v1.8c0 1-.1 1.7-.4 2.2-.2.5-.7.7-1.2.7h-17.3zM838 367.1a5 5 0 01-2.3-.4c-.5-.3-.7-.7-.7-1.3V316c0-.6.2-1 .7-1.3a5 5 0 012.4-.4h.8c1 0 1.9 0 2.3.4.5.2.8.7.8 1.3v49.3c0 .6-.3 1-.8 1.3a5 5 0 01-2.3.4h-.8zM855.4 359.2c-2.2 0-3.4-.6-3.4-1.9v-37.2c0-1.3 1.2-2 3.4-2h1.5c.8 0 1.4.2 1.9.4s.9.7 1.2 1.3l10.4 19c.6 1 1.3 2.5 2 4.6l.3-.2a33 33 0 01-.5-4.6v-18.5c0-1.3 1.1-2 3.4-2h1.4c2.2 0 3.3.7 3.3 2v37.2c0 1.3-1 1.9-3.3 1.9h-1.1a5 5 0 01-2-.3c-.5-.2-.9-.7-1.2-1.3l-11.1-19.8c-.4-.6-.9-1.9-1.6-3.8l-.3.2c.3 1.8.5 3.1.5 4v19.1c0 1.3-1.1 1.9-3.4 1.9h-1.4zM899.7 359.5c-10.2 0-15.3-6.9-15.3-20.8s5.1-20.9 15.3-20.9c5 0 8.7 1.7 11.3 5.1 2.6 3.4 3.9 8.7 3.9 15.8 0 7.1-1.3 12.4-3.9 15.8-2.6 3.4-6.3 5-11.3 5zm0-7.6c1.4 0 2.6-.4 3.4-1.1.9-.8 1.5-2.2 2-4.1.4-2 .6-4.6.6-8 0-3.4-.2-6-.7-8-.4-1.9-1-3.2-1.9-4-.8-.8-2-1.2-3.4-1.2a5 5 0 00-3.4 1.2c-.8.8-1.5 2.1-2 4-.4 2-.6 4.6-.6 8 0 3.4.2 6 .7 8 .4 2 1 3.3 2 4a5 5 0 003.3 1.2zM935.4 346c-.5 0-1 0-1.4-.2-.3-.2-.6-.6-.9-1.1l-4.3-8a15.5 15.5 0 01-1.2-2.8h-.2l.3 3.3v20.1c0 .7-.3 1.2-.8 1.5-.5.3-1.4.4-2.6.4h-2c-1.2 0-2-.1-2.5-.4-.6-.3-.8-.8-.8-1.5v-37.2c0-.7.2-1.2.8-1.5.5-.3 1.3-.4 2.5-.4h1.8c1 0 1.7.1 2.3.4.5.2 1 .6 1.2 1.2l7.3 13.7c.4.7.7 1.6 1 2.8l1.1-2.8 7.2-13.7c.4-.6.8-1 1.3-1.2.6-.3 1.3-.4 2.2-.4h1.8c1.2 0 2.1.1 2.6.4.6.3.8.8.8 1.5v37.2c0 .7-.2 1.2-.8 1.5-.5.3-1.4.4-2.6.4h-2c-1.1 0-2-.1-2.5-.4-.6-.3-.8-.8-.8-1.5v-20.1c0-1 .1-2 .4-3.2h-.2l-1.3 2.7-4.3 8c-.3.5-.6.9-1 1-.3.3-.8.4-1.4.4h-1zM960.4 359c-.7 0-1.2-.1-1.6-.5-.3-.3-.5-1-.5-1.7v-36.2c0-.8.2-1.4.5-1.7.4-.4.9-.6 1.6-.6h17.2c.6 0 1 .2 1.3.7.3.5.4 1.2.4 2.2v1.8c0 1-.1 1.8-.4 2.2-.3.5-.7.7-1.3.7h-10.2v8.5h9c.6 0 1 .2 1.3.7.3.5.4 1.2.4 2.2v1.8c0 1 0 1.8-.4 2.2-.2.5-.7.7-1.2.7h-9.1v9.5h10.3c.6 0 1 .2 1.2.7.3.4.4 1.2.4 2.2v1.8c0 1-.1 1.7-.4 2.2-.2.5-.6.7-1.2.7h-17.3z"/>
  </g>
  <g fill="#00ACCD">
    <path d="M707.2 521.1c-2.3 0-3.4-.6-3.4-1.8V482c0-1.3 1.1-1.9 3.4-1.9h1.5c.8 0 1.4.1 1.9.3.4.3.8.7 1.1 1.3l10.5 19a42 42 0 012 4.6l.2-.1c-.3-2-.4-3.6-.4-4.6V482c0-1.3 1-1.9 3.3-1.9h1.4c2.3 0 3.4.6 3.4 1.9v37.3c0 1.2-1.1 1.8-3.4 1.8h-1a5 5 0 01-2-.3c-.5-.2-1-.6-1.2-1.3l-11.1-19.8c-.4-.6-1-1.8-1.6-3.7l-.3.1c.3 1.8.5 3.1.5 4v19.2c0 1.2-1.2 1.8-3.4 1.8h-1.4zM736.9 521.1c-1.9 0-2.8-.4-2.8-1.3 0-.3 0-.6.2-1l9-37c.2-1.1 1.4-1.7 3.5-1.7h3.8c2.1 0 3.3.6 3.6 1.6l9 37v1.1c0 .9-.8 1.3-2.4 1.3h-3.1c-1.9 0-3-.4-3.1-1.2l-1.5-7.1h-8.9l-1.5 7.1c-.2.8-1.1 1.2-2.8 1.2h-3zm15.2-15.4l-2.6-12.4-.7-4.4h-.3l-.7 4.4-2.6 12.4h6.9zM772.7 521.1c-2.2 0-3.4-.6-3.4-1.8v-31.4H763c-.6 0-1-.3-1.3-.7-.3-.5-.4-1.2-.4-2.2V483c0-1 .1-1.7.4-2.2.3-.4.7-.7 1.3-.7H785c.6 0 1 .3 1.3.7.3.5.4 1.2.4 2.2v1.9c0 1 0 1.7-.4 2.2-.2.4-.7.7-1.3.7h-6.5v31.4c0 1.2-1.1 1.8-3.4 1.8h-2.4zM792.4 521.2c-2.3 0-3.4-.7-3.4-2V482c0-1.3 1.1-2 3.4-2h2.4c2.3 0 3.4.7 3.4 2v37.3c0 1.2-1.1 1.9-3.4 1.9h-2.4zM817.6 521.5c-10.2 0-15.3-7-15.3-20.9 0-13.9 5-20.8 15.3-20.8 5 0 8.7 1.7 11.3 5 2.6 3.4 3.9 8.7 3.9 15.8 0 7.2-1.3 12.4-4 15.8-2.5 3.4-6.3 5-11.2 5zm0-7.7c1.4 0 2.5-.3 3.4-1.1.8-.8 1.5-2.1 2-4 .3-2 .6-4.7.6-8 0-3.5-.3-6.1-.7-8-.4-2-1-3.3-1.9-4-.9-.9-2-1.2-3.4-1.2a5 5 0 00-3.4 1.1c-.9.8-1.5 2.1-2 4-.4 2-.6 4.6-.6 8 0 3.4.2 6 .6 8 .5 2 1.1 3.3 2 4a5 5 0 003.4 1.2zM840.2 521.1c-2.2 0-3.4-.6-3.4-1.8V482c0-1.3 1.2-1.9 3.4-1.9h1.5c.8 0 1.4.1 1.9.3.5.3.8.7 1.2 1.3l10.4 19c.6 1 1.2 2.6 2 4.6l.3-.1c-.4-2-.5-3.6-.5-4.6V482c0-1.3 1.1-1.9 3.4-1.9h1.4c2.2 0 3.3.6 3.3 1.9v37.3c0 1.2-1 1.8-3.3 1.8h-1.1a5 5 0 01-2-.3c-.5-.2-.9-.6-1.2-1.3l-11.1-19.8c-.4-.6-.9-1.8-1.6-3.7l-.3.1c.3 1.8.5 3.1.5 4v19.2c0 1.2-1.1 1.8-3.4 1.8h-1.4zM870 521.1c-2 0-2.9-.4-2.9-1.3 0-.3 0-.6.2-1l9-37c.2-1.1 1.4-1.7 3.5-1.7h3.8c2.1 0 3.3.6 3.6 1.6l9 37 .1 1.1c0 .9-.8 1.3-2.5 1.3h-3c-2 0-3-.4-3.2-1.2l-1.5-7.1h-8.8l-1.6 7.1c-.2.8-1 1.2-2.8 1.2h-3zm15.1-15.4l-2.6-12.4-.7-4.4h-.3l-.7 4.4-2.5 12.4h6.8zM900.7 521c-.7 0-1.2-.2-1.6-.5-.3-.4-.5-1-.5-1.8V482c0-1.3 1.1-1.9 3.4-1.9h2.3c2.2 0 3.4.6 3.4 1.9v31.4h8.6c.7 0 1.1.2 1.4.7.3.4.4 1.2.4 2.2v1.8c0 1-.1 1.7-.4 2.2-.3.5-.7.7-1.4.7h-15.6zM923.7 521.2c-2.3 0-3.4-.7-3.4-2V482c0-1.3 1.1-2 3.4-2h2.4c2.2 0 3.3.7 3.3 2v37.3c0 1.2-1 1.9-3.3 1.9h-2.4zM943.4 521.1c-2.3 0-3.4-.6-3.4-1.8v-31.4h-6.5c-.6 0-1-.3-1.3-.7-.2-.5-.4-1.2-.4-2.2V483c0-1 .2-1.7.4-2.2.3-.4.7-.7 1.3-.7h22.2c.6 0 1 .3 1.3.7.3.5.4 1.2.4 2.2v1.9c0 1-.1 1.7-.4 2.2-.3.4-.7.7-1.3.7H949v31.4c0 1.2-1 1.8-3.3 1.8h-2.4z"/>
    <path d="M969.7 521.1c-2.3 0-3.4-.6-3.4-1.8v-15.9l-9-20.7a12.8 12.8 0 01-.5-1.4c0-.4.3-.6.9-.9.6-.2 1.4-.3 2.6-.3h3c1.8 0 2.9.4 3.1 1.1l4.6 14.4 4.5-14.4c0-.4.4-.7 1-.8.5-.2 1.2-.3 2.2-.3h2.4c2.5 0 3.7.4 3.7 1.2 0 .4-.2.9-.4 1.4l-9 20.9v15.7c0 1.2-1.1 1.8-3.4 1.8h-2.3zM995.4 529a5 5 0 01-2.4-.4c-.5-.2-.7-.7-.7-1.3V478c0-.6.2-1 .7-1.3a5 5 0 012.4-.4h.8c1 0 1.9.1 2.4.4.4.3.7.7.7 1.3v49.3c0 .6-.3 1-.7 1.3a5 5 0 01-2.4.4h-.8zM1012.5 521.1c-2.3 0-3.4-.6-3.4-1.8V482c0-1.3 1.1-1.9 3.4-1.9h1.5c.7 0 1.4.1 1.8.3.5.3.9.7 1.2 1.3l10.5 19 2 4.6.2-.1c-.3-2-.5-3.6-.5-4.6V482c0-1.3 1.1-1.9 3.4-1.9h1.4c2.3 0 3.4.6 3.4 1.9v37.3c0 1.2-1.2 1.8-3.4 1.8h-1.1a5 5 0 01-2-.3c-.4-.2-.8-.6-1.2-1.3l-11-19.8c-.4-.6-1-1.8-1.7-3.7l-.2.1c.3 1.8.4 3.1.4 4v19.2c0 1.2-1.1 1.8-3.4 1.8h-1.3zM1042.2 521.1c-2 0-2.9-.4-2.9-1.3l.2-1 9-37c.3-1.1 1.5-1.7 3.5-1.7h3.8c2.2 0 3.4.6 3.7 1.6l9 37v1.1c0 .9-.8 1.3-2.5 1.3h-3c-2 0-3-.4-3.1-1.2l-1.6-7.1h-8.8l-1.6 7.1c-.1.8-1 1.2-2.7 1.2h-3zm15.1-15.4l-2.6-12.4-.7-4.4h-.3l-.7 4.4-2.5 12.4h6.8zM1085.2 521.5c-5.4 0-9.4-1.7-11.9-5-2.4-3.4-3.6-8.7-3.6-16 0-7 1.2-12.2 3.8-15.6 2.6-3.4 6.6-5.1 12-5.1 1.8 0 3.5.2 5 .6 1.3.4 1.9 1.2 1.9 2.5 0 1.5-.3 2.8-.8 4-.5 1.1-1.2 1.6-2 1.3-1.2-.4-2.5-.6-3.7-.6-2.3 0-4 1.1-5.2 3.2a21.2 21.2 0 00-1.7 9.8c0 4.3.5 7.6 1.7 9.7 1.1 2.2 3 3.3 5.5 3.3l1.8-.2a24.2 24.2 0 002.6-.5c.7 0 1.3.4 1.7 1.4.4 1 .6 2.3.6 3.9 0 .5-.1 1-.4 1.4-.2.4-.6.8-1.3 1l-2.6.6c-1.1.2-2.2.3-3.4.3zM1099.5 521.2c-2.3 0-3.4-.7-3.4-2V482c0-1.3 1.1-2 3.4-2h2.4c2.2 0 3.3.7 3.3 2v37.3c0 1.2-1 1.9-3.3 1.9h-2.4zM1124.6 521.5c-10.1 0-15.2-7-15.2-20.9 0-13.9 5-20.8 15.2-20.8 5 0 8.8 1.7 11.4 5 2.5 3.4 3.8 8.7 3.8 15.8 0 7.2-1.3 12.4-3.8 15.8-2.6 3.4-6.4 5-11.4 5zm0-7.7c1.5 0 2.6-.3 3.5-1.1.8-.8 1.5-2.1 1.9-4 .4-2 .6-4.7.6-8 0-3.5-.2-6.1-.6-8-.4-2-1-3.3-2-4-.8-.9-2-1.2-3.3-1.2a5 5 0 00-3.4 1.1c-.9.8-1.5 2.1-2 4-.5 2-.7 4.6-.7 8 0 3.4.3 6 .7 8 .5 2 1.1 3.3 2 4a5 5 0 003.4 1.2zM1147.3 521.1c-2.3 0-3.4-.6-3.4-1.8V482c0-1.3 1.1-1.9 3.4-1.9h1.5c.8 0 1.4.1 1.9.3.4.3.8.7 1.1 1.3l10.5 19c.6 1 1.2 2.6 2 4.6l.2-.1c-.3-2-.4-3.6-.4-4.6V482c0-1.3 1-1.9 3.3-1.9h1.4c2.3 0 3.4.6 3.4 1.9v37.3c0 1.2-1.1 1.8-3.4 1.8h-1a5 5 0 01-2-.3c-.5-.2-.9-.6-1.2-1.3l-11.1-19.8a27 27 0 01-1.6-3.7l-.3.1c.3 1.8.5 3.1.5 4v19.2c0 1.2-1.2 1.8-3.4 1.8h-1.4zM1177 521.1c-1.9 0-2.8-.4-2.8-1.3 0-.3 0-.6.2-1l9-37c.2-1.1 1.4-1.7 3.5-1.7h3.8c2.1 0 3.3.6 3.6 1.6l9 37v1.1c0 .9-.8 1.3-2.4 1.3h-3.1c-1.9 0-3-.4-3.1-1.2l-1.5-7.1h-8.9l-1.5 7.1c-.2.8-1.1 1.2-2.8 1.2h-3zm15.2-15.4l-2.6-12.4-.7-4.4h-.3l-.7 4.4-2.6 12.4h6.9zM1207.8 521c-.7 0-1.3-.2-1.6-.5-.4-.4-.5-1-.5-1.8V482c0-1.3 1-1.9 3.3-1.9h2.4c2.2 0 3.3.6 3.3 1.9v31.4h8.7c.6 0 1 .2 1.4.7.2.4.4 1.2.4 2.2v1.8c0 1-.2 1.7-.4 2.2-.3.5-.8.7-1.4.7h-15.6zM1230.8 521.2c-2.3 0-3.4-.7-3.4-2V482c0-1.3 1.1-2 3.4-2h2.4c2.2 0 3.3.7 3.3 2v37.3c0 1.2-1 1.9-3.3 1.9h-2.4zM1244 521c-.8 0-1.4-.2-1.7-.5-.4-.4-.5-1-.5-1.8v-36.1c0-.9.1-1.4.5-1.8.3-.4.9-.6 1.6-.6h11c5.1 0 8.8 1.7 11.2 5.1 2.4 3.4 3.6 8.5 3.6 15.3 0 6.9-1.2 12-3.6 15.3-2.3 3.4-6 5.1-11.1 5.1h-11zm10.7-7.6c2 0 3.5-1 4.4-3 1-1.8 1.4-5.1 1.4-9.8 0-4.6-.5-8-1.4-9.9-.9-1.9-2.3-2.8-4.4-2.8h-3.7v25.5h3.7zM1273.7 521.1c-1.9 0-2.8-.4-2.8-1.3 0-.3 0-.6.2-1l9-37c.2-1.1 1.4-1.7 3.5-1.7h3.8c2.1 0 3.3.6 3.6 1.6l9 37v1.1c0 .9-.8 1.3-2.4 1.3h-3.1c-1.9 0-3-.4-3.1-1.2l-1.5-7.1h-8.9l-1.5 7.1c-.2.8-1.1 1.2-2.8 1.2h-3zm15.2-15.4l-2.6-12.4-.7-4.4h-.3l-.7 4.4-2.6 12.4h6.9zM1304.5 521c-.8 0-1.3-.2-1.6-.5-.4-.4-.6-1-.6-1.8v-36.1c0-.9.2-1.4.6-1.8.3-.4.8-.6 1.6-.6h11c5.1 0 8.8 1.7 11.2 5.1 2.4 3.4 3.6 8.5 3.6 15.3 0 6.9-1.2 12-3.6 15.3-2.4 3.4-6 5.1-11.1 5.1h-11.1zm10.8-7.6c2 0 3.5-1 4.4-3 .9-1.8 1.3-5.1 1.3-9.8 0-4.6-.4-8-1.3-9.9-.9-1.9-2.4-2.8-4.4-2.8h-3.8v25.5h3.8zM1336.9 521c-.8 0-1.3-.2-1.7-.5-.3-.4-.5-1-.5-1.8v-36.1c0-.9.2-1.4.5-1.8.4-.4 1-.6 1.7-.6h17.2c.6 0 1 .3 1.2.7.3.5.5 1.2.5 2.2v1.9c0 1-.2 1.7-.5 2.2-.2.4-.6.7-1.2.7h-10.3v8.4h9.1c.6 0 1 .2 1.3.7.3.5.4 1.2.4 2.2v1.8c0 1-.1 1.8-.4 2.2-.3.5-.7.7-1.3.7h-9v9.5h10.2c.6 0 1 .2 1.3.7.2.4.3 1.2.3 2.2v1.8c0 1 0 1.7-.3 2.2-.3.5-.7.7-1.3.7H1337z"/>
  </g>
  <g fill="#00ACCD">
    <path d="M706.3 697.5c-.8 0-1.3-.2-1.7-.6-.3-.3-.5-1-.5-1.7V659c0-.8.2-1.4.5-1.7.4-.4 1-.6 1.7-.6h11c5 0 8.8 1.7 11.2 5 2.4 3.5 3.6 8.6 3.6 15.4 0 6.8-1.2 12-3.6 15.3-2.4 3.4-6.1 5-11.2 5h-11zm10.7-7.6c2 0 3.6-1 4.5-3 .8-1.8 1.3-5.1 1.3-9.8 0-4.7-.5-8-1.3-9.9-1-1.9-2.4-2.9-4.5-2.9h-3.7V690h3.7zM736 697.6c-1.8 0-2.8-.4-2.8-1.3 0-.3 0-.6.2-1l9-37c.2-1.2 1.4-1.7 3.5-1.7h3.8c2.1 0 3.3.5 3.6 1.6l9 37 .1 1.1c0 .9-.8 1.3-2.5 1.3h-3c-2 0-3-.4-3.2-1.2l-1.5-7.1h-8.8l-1.6 7c-.2.9-1 1.3-2.8 1.3h-3zm15.2-15.4l-2.6-12.4-.7-4.4h-.3l-.7 4.4-2.6 12.4h7zM771.8 697.6c-2.2 0-3.3-.6-3.3-1.9v-31.4H762c-.6 0-1-.2-1.3-.6-.3-.5-.4-1.3-.4-2.3v-1.8c0-1 .1-1.7.4-2.2.3-.4.7-.7 1.3-.7H784c.6 0 1 .3 1.4.7.2.5.4 1.2.4 2.2v1.8c0 1-.2 1.8-.4 2.3-.3.4-.8.6-1.4.6h-6.5v31.4c0 1.3-1.1 2-3.4 2h-2.4zM790.6 697.5c-.7 0-1.2-.2-1.6-.6-.3-.3-.5-1-.5-1.7V659c0-.8.2-1.4.5-1.7.4-.4 1-.6 1.6-.6h17.2c.6 0 1 .3 1.3.7.3.5.4 1.2.4 2.2v1.8c0 1-.1 1.8-.4 2.3-.3.4-.7.6-1.3.6h-10.2v8.5h9c.6 0 1 .2 1.3.7.3.5.5 1.2.5 2.2v1.8c0 1-.2 1.8-.5 2.2-.2.5-.7.7-1.2.7h-9.1v9.5h10.3c.6 0 1 .2 1.2.7.3.4.4 1.2.4 2.2v1.8c0 1-.1 1.7-.4 2.2-.2.5-.6.7-1.2.7h-17.3zM834.3 698C824 698 819 691 819 677c0-13.9 5.1-20.8 15.3-20.8 5 0 8.7 1.6 11.3 5 2.6 3.4 3.9 8.7 3.9 15.8 0 7.1-1.3 12.4-3.9 15.8-2.6 3.4-6.4 5-11.3 5zm0-7.7c1.4 0 2.6-.4 3.4-1.1.9-.8 1.5-2.2 2-4 .4-2 .6-4.7.6-8.1 0-3.4-.2-6-.7-8-.4-1.9-1-3.2-1.9-4-.8-.8-2-1.2-3.4-1.2a5 5 0 00-3.4 1.2c-.8.8-1.5 2.1-2 4-.4 2-.6 4.6-.6 8 0 3.4.2 6 .6 8 .5 2 1.2 3.3 2 4a5 5 0 003.4 1.2zM857.2 697.6c-2.2 0-3.4-.6-3.4-1.9V659c0-.8.2-1.4.6-1.7.3-.4.9-.6 1.6-.6h16c.6 0 1 .3 1.3.7.3.5.4 1.2.4 2.2v1.8c0 1-.1 1.8-.4 2.3-.3.4-.7.6-1.3.6h-9v9.7h8.5c.6 0 1 .3 1.3.7.2.5.4 1.2.4 2.2v1.8c0 1-.2 1.8-.4 2.2-.3.5-.7.7-1.3.7h-8.6v14.1c0 1.3-1 2-3.3 2h-2.4zM886.1 697.5c-.7 0-1.2-.2-1.6-.6-.3-.3-.5-1-.5-1.7V659c0-.8.2-1.4.5-1.7.4-.4.9-.6 1.6-.6h10.5c8.1 0 12.2 3.3 12.2 9.9 0 4.3-1.7 7.5-5.2 9.6v.2c2 .6 3.5 1.7 4.7 3.4 1.1 1.7 1.7 3.7 1.7 6.2 0 3.5-1.2 6.2-3.4 8.3-2.2 2.1-5.5 3.2-9.9 3.2h-10.6zm10.5-24.2c1.3 0 2.2-.4 2.8-1.2.6-.8.9-2 .9-3.7 0-1.7-.3-2.9-.8-3.6-.6-.7-1.5-1-2.8-1h-4v9.5h4zm.4 17.1c1.5 0 2.5-.4 3.2-1.2.7-.8 1-2.1 1-4 0-1.8-.3-3-1-3.8-.6-.8-1.7-1.1-3.2-1.1h-4.4v10.1h4.4zM917.2 697.7c-2.2 0-3.3-.7-3.3-2v-37.2c0-1.3 1-2 3.3-2h2.5c2.2 0 3.3.7 3.3 2v37.2c0 1.3-1.1 2-3.3 2h-2.5zM931.5 697.6c-2.3 0-3.5-.6-3.5-1.9V659c0-.8.2-1.4.5-1.7.4-.4 1-.6 1.8-.6h9.8c3.5 0 6.4.9 8.6 2.7 2.1 1.7 3.2 4.7 3.2 8.8 0 4.5-1.8 7.8-5.5 9.8v.3c.9.4 1.6 1.2 2.3 2.3.7 1 1.3 2.3 1.6 3.5l3.4 11.2.2.7c0 1-1.2 1.5-3.6 1.5h-2c-2.1 0-3.3-.5-3.5-1.5l-3.1-11c-.4-1-.8-1.5-1.2-1.9-.5-.3-1.2-.5-2.1-.5H937v13.1c0 1.3-1.2 2-3.5 2h-2zm8.7-23.5c.9 0 1.6-.5 2.2-1.3.6-.9 1-2.1 1-3.7 0-1.7-.4-2.9-1-3.6a2.9 2.9 0 00-2.4-1.2h-3v9.8h3.2zM965.5 697.6c-2.3 0-3.4-.6-3.4-1.9v-31.4h-6.5c-.5 0-1-.2-1.2-.6-.3-.5-.4-1.3-.4-2.3v-1.8c0-1 0-1.7.4-2.2.2-.4.7-.7 1.2-.7h22.2c.6 0 1 .3 1.3.7.3.5.4 1.2.4 2.2v1.8c0 1-.1 1.8-.4 2.3-.3.4-.7.6-1.3.6h-6.5v31.4c0 1.3-1.2 2-3.4 2h-2.4zM985.5 697.6c-2.2 0-3.4-.6-3.4-1.9v-37.2c0-1.3 1.2-1.9 3.4-1.9h2.5c2.2 0 3.3.6 3.3 1.9v14.4h10v-14.4c0-1.3 1-1.9 3.3-1.9h2.4c2.3 0 3.4.6 3.4 1.9v37.2c0 1.3-1.1 2-3.4 2h-2.4c-2.2 0-3.4-.7-3.4-2v-15.2h-10v15.2c0 1.3-1 2-3.2 2h-2.5zM1024.3 705.5a5 5 0 01-2.3-.4c-.5-.3-.8-.7-.8-1.3v-49.3c0-.6.3-1 .8-1.3a5 5 0 012.3-.4h.8c1.1 0 2 0 2.4.4.5.2.7.7.7 1.3v49.3c0 .6-.2 1-.7 1.3a5 5 0 01-2.4.4h-.8zM1040.5 697.5c-.8 0-1.3-.2-1.7-.6-.3-.3-.5-1-.5-1.7V659c0-.8.2-1.4.5-1.7.4-.4 1-.6 1.7-.6h11c5 0 8.8 1.7 11.2 5 2.4 3.5 3.5 8.6 3.5 15.4 0 6.8-1.1 12-3.5 15.3-2.4 3.4-6.1 5-11.2 5h-11zm10.7-7.6c2 0 3.6-1 4.5-3 .8-1.8 1.3-5.1 1.3-9.8 0-4.7-.5-8-1.3-9.9-1-1.9-2.4-2.9-4.5-2.9h-3.7V690h3.7zM1070.2 697.6c-1.9 0-2.8-.4-2.8-1.3 0-.3 0-.6.2-1l9-37c.2-1.2 1.4-1.7 3.5-1.7h3.8c2.1 0 3.3.5 3.6 1.6l9 37v1.1c0 .9-.7 1.3-2.4 1.3h-3.1c-1.9 0-2.9-.4-3-1.2l-1.6-7.1h-8.9l-1.5 7c-.2.9-1 1.3-2.8 1.3h-3zm15.2-15.4l-2.6-12.4-.7-4.4h-.3l-.7 4.4-2.6 12.4h7zM1106 697.6c-2.2 0-3.3-.6-3.3-1.9v-31.4h-6.5c-.6 0-1-.2-1.3-.6-.3-.5-.4-1.3-.4-2.3v-1.8c0-1 .1-1.7.4-2.2.3-.4.7-.7 1.3-.7h22.1c.7 0 1.1.3 1.4.7.2.5.4 1.2.4 2.2v1.8c0 1-.2 1.8-.4 2.3-.3.4-.8.6-1.4.6h-6.5v31.4c0 1.3-1.1 2-3.4 2h-2.4zM1120.7 697.6c-1.9 0-2.8-.4-2.8-1.3 0-.3 0-.6.2-1l9-37c.2-1.2 1.4-1.7 3.5-1.7h3.8c2.1 0 3.3.5 3.6 1.6l9 37v1.1c0 .9-.7 1.3-2.4 1.3h-3.1c-1.9 0-2.9-.4-3-1.2l-1.6-7.1h-8.9l-1.5 7c-.2.9-1 1.3-2.8 1.3h-3zm15.2-15.4l-2.6-12.4-.7-4.4h-.3l-.7 4.4-2.6 12.4h7zM1157.8 697.5c-.8 0-1.3-.2-1.7-.6-.3-.3-.5-1-.5-1.7V659c0-.8.2-1.4.5-1.7.4-.4 1-.6 1.7-.6h11c5 0 8.8 1.7 11.2 5 2.4 3.5 3.6 8.6 3.6 15.4 0 6.8-1.2 12-3.6 15.3-2.4 3.4-6.1 5-11.2 5h-11zm10.7-7.6c2 0 3.6-1 4.5-3 .9-1.8 1.3-5.1 1.3-9.8 0-4.7-.4-8-1.3-9.9-1-1.9-2.4-2.9-4.5-2.9h-3.7V690h3.7zM1190.1 697.5c-.7 0-1.2-.2-1.6-.6-.3-.3-.5-1-.5-1.7V659c0-.8.2-1.4.5-1.7.4-.4.9-.6 1.6-.6h17.2c.6 0 1 .3 1.3.7.3.5.4 1.2.4 2.2v1.8c0 1-.1 1.8-.4 2.3-.3.4-.7.6-1.3.6h-10.2v8.5h9c.6 0 1 .2 1.3.7.3.5.4 1.2.4 2.2v1.8c0 1 0 1.8-.4 2.2-.2.5-.7.7-1.2.7h-9.1v9.5h10.3c.6 0 1 .2 1.2.7.3.4.4 1.2.4 2.2v1.8c0 1-.1 1.7-.4 2.2-.2.5-.6.7-1.2.7H1190zM1222.7 697.6c-2.3 0-3.4-.6-3.4-1.9v-37.2c0-1.3 1.2-1.9 3.4-1.9h1.5c.8 0 1.4.1 1.9.3.4.2.8.7 1.1 1.3l10.5 19c.6 1 1.2 2.5 2 4.6l.2-.2c-.3-2-.4-3.5-.4-4.6v-18.5c0-1.3 1.1-1.9 3.3-1.9h1.5c2.2 0 3.3.6 3.3 1.9v37.2c0 1.3-1.1 2-3.3 2h-1.2a5 5 0 01-1.9-.4c-.5-.2-.9-.7-1.2-1.3l-11.1-19.8c-.4-.6-.9-1.9-1.6-3.8l-.3.2c.3 1.8.5 3.1.5 4v19.1c0 1.3-1.2 2-3.4 2h-1.4zM1252.4 697.6c-1.9 0-2.8-.4-2.8-1.3 0-.3 0-.6.2-1l9-37c.2-1.2 1.4-1.7 3.5-1.7h3.8c2.1 0 3.3.5 3.6 1.6l9 37 .1 1.1c0 .9-.8 1.3-2.5 1.3h-3.1c-1.9 0-2.9-.4-3-1.2l-1.6-7.1h-8.8l-1.6 7c-.2.9-1 1.3-2.8 1.3h-3zm15.2-15.4l-2.6-12.4-.7-4.4h-.3l-.7 4.4-2.6 12.4h7zM1289.7 698c-1.9 0-3.8-.3-5.6-.9a8.7 8.7 0 01-4-2.3c-.6-.7-.8-1.4-.8-2 0-1.1.3-2.2.8-3.3.6-1.2 1.3-1.7 2-1.7.3 0 .8.2 1.4.5l1.5.9a9 9 0 004 1.1 6 6 0 003.3-.8c1-.6 1.4-1.6 1.4-3 0-1.5-.5-2.6-1.3-3.5-1-.8-2.3-1.7-4.2-2.8-3-1.6-5-3.3-6.4-5.1-1.3-1.8-2-4.2-2-7.1 0-2.4.5-4.5 1.5-6.2 1.1-1.8 2.5-3.2 4.4-4.1 1.8-1 4-1.4 6.3-1.4a15.7 15.7 0 017.6 2c.7.6 1 1.2 1 2 0 1.1-.1 2.2-.6 3.3-.4 1.1-1 1.7-1.6 1.7-.4 0-1-.2-1.7-.5a11 11 0 00-3.8-.9c-1.6 0-2.8.4-3.4 1-.6.8-.9 1.6-.9 2.5 0 1.4.4 2.4 1.1 3.2.8.7 2 1.5 3.6 2.3l1.6.8a17 17 0 015.8 5c1.1 1.8 1.7 4.2 1.7 7 0 2.3-.4 4.3-1.4 6.1-.9 1.9-2.3 3.3-4.2 4.5-2 1-4.3 1.7-7 1.7zM1319.7 698c-5.4 0-9.4-1.7-11.8-5-2.5-3.4-3.7-8.8-3.7-16 0-7 1.3-12.2 3.9-15.6 2.5-3.4 6.5-5.1 12-5.1 1.8 0 3.5.2 5 .6 1.2.3 1.8 1.2 1.8 2.5 0 1.5-.3 2.8-.8 4-.5 1.1-1.2 1.6-2 1.3-1.2-.4-2.4-.6-3.7-.6-2.3 0-4 1-5.2 3.2a21.2 21.2 0 00-1.7 9.7c0 4.4.6 7.6 1.7 9.8 1.2 2.2 3 3.2 5.5 3.2l1.9-.1a23.1 23.1 0 002.5-.6c.8 0 1.4.5 1.8 1.5.3 1 .5 2.2.5 3.8 0 .6 0 1.1-.3 1.5-.3.4-.7.8-1.4 1l-2.6.6c-1 .2-2.2.3-3.4.3zM1334 697.7c-2.2 0-3.4-.7-3.4-2v-37.2c0-1.3 1.2-2 3.4-2h2.5c2.2 0 3.3.7 3.3 2v37.2c0 1.3-1.1 2-3.3 2h-2.5zM1361.2 684.5c-.6 0-1-.1-1.4-.3l-1-1.1-4.2-8-.7-1.5-.6-1.3h-.2c.3 1.5.4 2.6.4 3.3v20.1c0 .7-.3 1.2-.8 1.5-.5.3-1.4.4-2.6.4h-2c-1.2 0-2-.1-2.6-.4-.5-.3-.8-.8-.8-1.5v-37.2c0-.7.3-1.2.8-1.5.5-.3 1.4-.4 2.6-.4h1.8c1 0 1.7.1 2.2.4.6.2 1 .7 1.3 1.2l7.2 13.7c.4.7.8 1.7 1.1 2.8.3-1 .6-2 1-2.8l7.3-13.7c.3-.5.7-1 1.3-1.2.5-.3 1.3-.4 2.2-.4h1.8c1.2 0 2 .1 2.6.4.5.3.8.8.8 1.5v37.2c0 .7-.3 1.2-.8 1.5-.5.3-1.4.4-2.6.4h-2c-1.2 0-2-.1-2.6-.4-.5-.3-.8-.8-.8-1.5v-20.1c0-1 .2-2 .4-3.2h-.2l-1.3 2.7-4.3 8c-.2.5-.5.9-.9 1-.3.3-.8.4-1.4.4h-1zM1386.2 697.5c-.7 0-1.3-.2-1.6-.6-.4-.3-.5-1-.5-1.7V659c0-.8.1-1.4.5-1.7.3-.4.9-.6 1.6-.6h17.2c.6 0 1 .3 1.3.7.2.5.4 1.2.4 2.2v1.8c0 1-.2 1.8-.4 2.3-.3.4-.7.6-1.3.6H1393v8.5h9.1c.6 0 1 .2 1.3.7.3.5.4 1.2.4 2.2v1.8c0 1-.1 1.8-.4 2.2-.3.5-.7.7-1.3.7h-9v9.5h10.2c.6 0 1 .2 1.3.7.3.4.4 1.2.4 2.2v1.8c0 1-.1 1.7-.4 2.2-.3.5-.7.7-1.3.7h-17.2zM1412.5 697.6c-2.2 0-3.3-.6-3.3-1.9v-37.2c0-1.3 1-1.9 3.3-1.9h1.5c.8 0 1.4.1 2 .3.4.2.8.7 1 1.3l10.6 19c.5 1 1.2 2.5 2 4.6l.2-.2c-.3-2-.5-3.5-.5-4.6v-18.5c0-1.3 1.1-1.9 3.4-1.9h1.4c2.2 0 3.4.6 3.4 1.9v37.2c0 1.3-1.2 2-3.4 2h-1.1a5 5 0 01-2-.4c-.5-.2-.9-.7-1.2-1.3l-11.1-19.8a27 27 0 01-1.6-3.8l-.3.2c.4 1.8.5 3.1.5 4v19.1c0 1.3-1.1 2-3.4 2h-1.4zM1451.3 697.6c-2.2 0-3.4-.6-3.4-1.9v-31.4h-6.4c-.6 0-1-.2-1.3-.6-.3-.5-.4-1.3-.4-2.3v-1.8c0-1 .1-1.7.4-2.2.3-.4.7-.7 1.3-.7h22.1c.6 0 1 .3 1.4.7.2.5.4 1.2.4 2.2v1.8c0 1-.2 1.8-.5 2.3-.2.4-.7.6-1.3.6h-6.5v31.4c0 1.3-1.1 2-3.4 2h-2.4zM1481 698c-10.3 0-15.3-7-15.3-20.9 0-13.9 5-20.8 15.2-20.8 5 0 8.8 1.6 11.3 5 2.6 3.4 4 8.7 4 15.8 0 7.1-1.4 12.4-4 15.8-2.5 3.4-6.3 5-11.3 5zm0-7.7c1.4 0 2.5-.4 3.3-1.1.9-.8 1.5-2.2 2-4 .4-2 .6-4.7.6-8.1 0-3.4-.2-6-.6-8-.5-1.9-1.1-3.2-2-4-.8-.8-2-1.2-3.3-1.2a5 5 0 00-3.4 1.2c-1 .8-1.6 2.1-2 4-.5 2-.7 4.6-.7 8 0 3.4.2 6 .7 8 .4 2 1 3.3 2 4a5 5 0 003.4 1.2z"/>
  </g>
  <g fill="#00ACCD">
    <path d="M707.5 877.2c-2.4 0-3.5-.6-3.5-1.9v-36.7c0-.8.2-1.4.5-1.8.4-.3 1-.5 1.8-.5h10c3.2 0 5.9.9 8.2 2.6 2.4 1.8 3.5 5.2 3.5 10.1 0 3.5-.6 6.1-2 8a10.5 10.5 0 01-4.5 3.8c-1.7.7-3.2 1-4.5 1h-4v13.5c0 1.3-1.2 1.9-3.5 1.9h-2zm8.5-23a3 3 0 002.3-1c.7-.9 1-2.2 1-4.2 0-1.9-.3-3.2-1-4a3 3 0 00-2.3-1h-3.1v10.3h3zM733.2 877c-.8 0-1.3-.1-1.7-.5-.3-.4-.5-1-.5-1.8V838c0-1.2 1.1-1.8 3.4-1.8h2.3c2.3 0 3.4.6 3.4 1.8v31.4h8.7c.6 0 1 .3 1.3.7.3.5.4 1.2.4 2.2v1.9c0 1-.1 1.7-.4 2.2-.3.4-.7.7-1.3.7h-15.6z"/>
    <path d="M753.2 877.2c-1.9 0-2.8-.4-2.8-1.3 0-.3 0-.7.2-1l9-37.1c.2-1 1.4-1.6 3.5-1.6h3.8c2.1 0 3.3.5 3.6 1.6l9 37v1.1c0 .9-.8 1.3-2.4 1.3H774c-1.9 0-2.9-.4-3.1-1.2l-1.5-7.1h-8.9l-1.5 7c-.2.9-1.1 1.3-2.8 1.3h-3zm15.2-15.5l-2.6-12.3-.7-4.4h-.3l-.7 4.4-2.6 12.3h6.9zM796.2 877.5c-5.4 0-9.3-1.6-11.8-5s-3.7-8.7-3.7-16c0-7 1.3-12.1 3.9-15.5 2.5-3.5 6.5-5.2 12-5.2 1.8 0 3.4.2 5 .7 1.2.3 1.8 1.1 1.8 2.5s-.3 2.8-.8 4c-.5 1.1-1.2 1.5-2 1.3-1.2-.4-2.4-.6-3.7-.6-2.3 0-4 1-5.2 3.2a21.3 21.3 0 00-1.7 9.7c0 4.4.6 7.6 1.7 9.8 1.2 2.1 3 3.2 5.5 3.2l1.9-.1a24.2 24.2 0 002.5-.6c.8 0 1.4.5 1.7 1.5.4 1 .6 2.2.6 3.8 0 .6 0 1-.3 1.5-.3.4-.7.7-1.4 1l-2.6.6-3.4.2zM809.6 877c-.7 0-1.2-.1-1.6-.5-.3-.4-.5-1-.5-1.8v-36c0-.9.2-1.5.5-1.9.4-.3.9-.5 1.6-.5h17.2c.6 0 1 .2 1.3.7.3.5.4 1.2.4 2.2v1.8c0 1-.1 1.8-.4 2.2-.3.5-.7.7-1.3.7h-10.2v8.5h9c.6 0 1 .2 1.3.7.3.4.4 1.2.4 2.2v1.8c0 1 0 1.7-.4 2.2-.2.5-.7.7-1.2.7h-9.1v9.4h10.3c.6 0 1 .3 1.2.7.3.5.4 1.2.4 2.2v1.9c0 1-.1 1.7-.4 2.2-.2.4-.6.7-1.2.7h-17.3zM853.3 877.5c-10.2 0-15.3-7-15.3-20.8 0-14 5-20.9 15.3-20.9 5 0 8.7 1.7 11.3 5 2.6 3.5 3.9 8.7 3.9 15.9 0 7.1-1.3 12.4-4 15.8-2.5 3.3-6.3 5-11.2 5zm0-7.6c1.4 0 2.5-.4 3.4-1.2.9-.7 1.5-2 2-4 .3-2 .6-4.6.6-8 0-3.4-.3-6-.7-8-.4-1.9-1-3.2-1.9-4-.9-.8-2-1.2-3.4-1.2a5 5 0 00-3.4 1.2c-.9.8-1.5 2.1-2 4-.4 2-.6 4.6-.6 8 0 3.4.2 6 .6 8 .5 1.9 1.1 3.3 2 4a5 5 0 003.4 1.2zM876.2 877.2c-2.2 0-3.4-.6-3.4-1.9v-36.7c0-.8.2-1.4.6-1.8.3-.3.9-.5 1.6-.5h16c.6 0 1 .2 1.3.7.3.5.4 1.2.4 2.2v1.8c0 1-.1 1.8-.4 2.2-.3.5-.7.7-1.3.7h-9v9.7h8.5c.6 0 1 .2 1.3.7.2.5.4 1.2.4 2.2v1.8c0 1-.2 1.8-.4 2.2-.3.5-.7.7-1.3.7h-8.6v14.1c0 1.3-1.1 1.9-3.4 1.9h-2.3zM905.1 877c-.7 0-1.3-.1-1.6-.5-.3-.4-.5-1-.5-1.8v-36.1c0-.8.2-1.4.5-1.8.4-.3.9-.5 1.6-.5h10.5c8.1 0 12.2 3.3 12.2 9.8 0 4.4-1.8 7.6-5.3 9.6l.1.3c2 .6 3.5 1.7 4.7 3.4 1 1.6 1.7 3.7 1.7 6.2 0 3.4-1.2 6.2-3.4 8.3-2.2 2.1-5.5 3.2-9.9 3.2h-10.6zm10.5-24.1c1.3 0 2.2-.4 2.8-1.2.6-.8.9-2 .9-3.8 0-1.6-.3-2.8-.9-3.5-.5-.8-1.4-1.1-2.7-1.1h-4.1v9.6h4zm.4 17.1c1.5 0 2.5-.4 3.2-1.2.7-.8 1-2.2 1-4 0-1.8-.3-3-1-3.8-.6-.8-1.7-1.2-3.2-1.2h-4.4V870h4.4zM936.2 877.2c-2.2 0-3.4-.6-3.4-1.9V838c0-1.2 1.2-1.9 3.4-1.9h2.5c2.2 0 3.3.7 3.3 2v37.2c0 1.3-1.1 2-3.3 2h-2.5zM950.5 877.2c-2.4 0-3.5-.6-3.5-1.9v-36.7c0-.8.2-1.4.5-1.8.4-.3 1-.5 1.8-.5h9.7c3.6 0 6.5.9 8.7 2.6 2.1 1.8 3.2 4.7 3.2 8.9 0 4.5-1.8 7.8-5.5 9.8v.2c.8.5 1.6 1.3 2.3 2.4.7 1 1.2 2.2 1.6 3.5l3.4 11.1.2.7c0 1.1-1.2 1.6-3.6 1.6h-2c-2.1 0-3.3-.5-3.5-1.6l-3.1-11c-.4-.9-.8-1.5-1.2-1.8-.5-.4-1.2-.5-2.2-.5H956v13.1c0 1.3-1.2 1.9-3.5 1.9h-2zm8.7-23.6c.9 0 1.6-.4 2.2-1.2.6-.9.9-2.1.9-3.8 0-1.6-.3-2.8-.9-3.5a2.9 2.9 0 00-2.4-1.2h-3v9.7h3.2zM984.5 877.2c-2.3 0-3.4-.6-3.4-1.9V844h-6.5c-.5 0-1-.2-1.2-.7-.3-.4-.5-1.2-.5-2.2v-1.8c0-1 .2-1.7.5-2.2.2-.5.7-.7 1.2-.7h22.2c.6 0 1 .2 1.3.7.3.5.4 1.2.4 2.2v1.8c0 1-.1 1.8-.4 2.2-.3.5-.7.7-1.3.7h-6.6v31.4c0 1.3-1 1.9-3.3 1.9h-2.4zM1004.5 877.2c-2.2 0-3.4-.6-3.4-1.9V838c0-1.2 1.2-1.8 3.4-1.8h2.5c2.2 0 3.3.6 3.3 1.8v14.4h10V838c0-1.2 1-1.8 3.3-1.8h2.4c2.3 0 3.4.6 3.4 1.8v37.3c0 1.3-1.1 1.9-3.4 1.9h-2.4c-2.2 0-3.4-.6-3.4-1.9v-15.2h-10v15.2c0 1.3-1 1.9-3.2 1.9h-2.5zM1043.3 885.1a5 5 0 01-2.3-.4c-.5-.3-.8-.7-.8-1.3V834c0-.6.3-1 .8-1.4a5 5 0 012.3-.4h.8c1.1 0 1.9.2 2.4.4.5.3.7.8.7 1.4v49.3c0 .6-.2 1-.7 1.3a5 5 0 01-2.4.4h-.8zM1060.4 877.2c-2.3 0-3.4-.6-3.4-1.9V838c0-1.2 1.1-1.8 3.4-1.8h1.5c.8 0 1.4 0 1.8.3.5.2.9.6 1.2 1.3l10.5 19 2 4.5h.2c-.3-2.1-.4-3.6-.4-4.7V838c0-1.2 1-1.8 3.3-1.8h1.4c2.3 0 3.4.6 3.4 1.8v37.3c0 1.3-1.1 1.9-3.4 1.9h-1a5 5 0 01-2-.3c-.5-.3-1-.7-1.2-1.4l-11.2-19.8a27 27 0 01-1.5-3.7l-.3.2c.3 1.8.5 3.1.5 4v19.1c0 1.3-1.2 1.9-3.4 1.9h-1.4zM1090 877.2c-1.8 0-2.7-.4-2.7-1.3 0-.3 0-.7.2-1l9-37.1c.2-1 1.4-1.6 3.5-1.6h3.8c2.1 0 3.3.5 3.6 1.6l9 37v1.1c0 .9-.8 1.3-2.4 1.3h-3.1c-1.9 0-3-.4-3.1-1.2l-1.5-7.1h-8.9l-1.6 7c-.1.9-1 1.3-2.7 1.3h-3zm15.3-15.5l-2.6-12.3-.7-4.4h-.3l-.7 4.4-2.6 12.3h6.9zM1125.9 877.2c-2.3 0-3.4-.6-3.4-1.9V844h-6.4c-.6 0-1-.2-1.3-.7-.3-.4-.4-1.2-.4-2.2v-1.8c0-1 .1-1.7.4-2.2.3-.5.7-.7 1.3-.7h22c.7 0 1.2.2 1.4.7.3.5.4 1.2.4 2.2v1.8c0 1-.1 1.8-.4 2.2-.2.5-.7.7-1.3.7h-6.5v31.4c0 1.3-1.2 1.9-3.4 1.9h-2.4zM1156.2 877.5c-4.4 0-7.8-1-10.3-3.2a11.5 11.5 0 01-3.8-9.2v-27c0-1.3 1.2-2 3.4-2h2.3c2.3 0 3.4.7 3.4 2v26.4c0 1.6.5 3 1.4 4 .9.9 2 1.4 3.6 1.4 1.5 0 2.6-.5 3.6-1.5.9-1 1.3-2.3 1.3-3.9V838c0-1.2 1.2-1.8 3.4-1.8h2.3c2.2 0 3.4.6 3.4 1.8v27.1c0 4-1.3 7-3.7 9.2a15 15 0 01-10.3 3.2zM1178.6 877.2c-2.3 0-3.5-.6-3.5-1.9v-36.7c0-.8.2-1.4.6-1.8.3-.3 1-.5 1.7-.5h9.8c3.5 0 6.4.9 8.6 2.6 2.2 1.8 3.3 4.7 3.3 8.9 0 4.5-1.9 7.8-5.6 9.8v.2c.9.5 1.7 1.3 2.3 2.4.8 1 1.3 2.2 1.6 3.5l3.5 11.1.1.7c0 1.1-1.2 1.6-3.6 1.6h-2c-2 0-3.2-.5-3.5-1.6l-3.1-11c-.3-.9-.7-1.5-1.2-1.8-.4-.4-1.1-.5-2.1-.5h-1.4v13.1c0 1.3-1.2 1.9-3.5 1.9h-2zm8.8-23.6c.8 0 1.5-.4 2.1-1.2.6-.9 1-2.1 1-3.8 0-1.6-.4-2.8-1-3.5a2.9 2.9 0 00-2.3-1.2h-3.1v9.7h3.3z"/>
    <path d="M1203.6 877.2c-1.9 0-2.8-.4-2.8-1.3 0-.3 0-.7.2-1l9-37.1c.2-1 1.4-1.6 3.5-1.6h3.8c2.1 0 3.3.5 3.6 1.6l9 37v1.1c0 .9-.8 1.3-2.4 1.3h-3.1c-1.9 0-2.9-.4-3-1.2l-1.6-7.1h-8.9l-1.5 7c-.2.9-1.1 1.3-2.8 1.3h-3zm15.2-15.5l-2.6-12.3-.7-4.4h-.3l-.7 4.4-2.6 12.3h6.9zM1234.4 877c-.7 0-1.3-.1-1.6-.5-.4-.4-.5-1-.5-1.8V838c0-1.2 1-1.8 3.3-1.8h2.4c2.2 0 3.3.6 3.3 1.8v31.4h8.7c.6 0 1 .3 1.4.7.2.5.4 1.2.4 2.2v1.9c0 1-.2 1.7-.4 2.2-.3.4-.8.7-1.4.7h-15.6zM1257.4 877.2c-2.3 0-3.4-.6-3.4-1.9V838c0-1.2 1.1-1.9 3.4-1.9h2.4c2.2 0 3.3.7 3.3 2v37.2c0 1.3-1 2-3.3 2h-2.4zM1270.5 877c-.7 0-1.3-.1-1.6-.5-.4-.4-.5-1-.5-1.8v-36c0-.9.1-1.5.5-1.9.3-.3.9-.5 1.6-.5h11c5.1 0 8.8 1.7 11.2 5 2.4 3.4 3.6 8.5 3.6 15.4 0 6.8-1.2 12-3.6 15.3-2.4 3.4-6 5-11.1 5h-11zm10.8-7.6c2 0 3.5-1 4.4-2.9 1-1.9 1.4-5.2 1.4-9.8 0-4.7-.5-8-1.4-9.9-.9-2-2.4-2.9-4.4-2.9h-3.7v25.5h3.7zM1300.3 877.2c-1.9 0-2.8-.4-2.8-1.3 0-.3 0-.7.2-1l9-37.1c.2-1 1.4-1.6 3.5-1.6h3.8c2.1 0 3.3.5 3.6 1.6l9 37v1.1c0 .9-.8 1.3-2.4 1.3h-3.1c-1.9 0-3-.4-3.1-1.2l-1.5-7.1h-8.9l-1.5 7c-.2.9-1.1 1.3-2.8 1.3h-3zm15.2-15.5l-2.6-12.3-.7-4.4h-.3l-.7 4.4-2.6 12.3h6.9zM1331.1 877c-.7 0-1.3-.1-1.6-.5-.4-.4-.6-1-.6-1.8v-36c0-.9.2-1.5.6-1.9.3-.3.9-.5 1.6-.5h11c5.1 0 8.8 1.7 11.2 5 2.4 3.4 3.6 8.5 3.6 15.4 0 6.8-1.2 12-3.6 15.3-2.4 3.4-6 5-11.1 5H1331zm10.8-7.6c2 0 3.5-1 4.4-2.9.9-1.9 1.3-5.2 1.3-9.8 0-4.7-.4-8-1.3-9.9-.9-2-2.4-2.9-4.4-2.9h-3.8v25.5h3.8zM1363.5 877c-.8 0-1.3-.1-1.7-.5-.3-.4-.5-1-.5-1.8v-36c0-.9.2-1.5.5-1.9.4-.3 1-.5 1.7-.5h17.2c.5 0 1 .2 1.2.7.3.5.4 1.2.4 2.2v1.8c0 1 0 1.8-.4 2.2-.2.5-.7.7-1.2.7h-10.3v8.5h9.1c.6 0 1 .2 1.3.7.3.4.4 1.2.4 2.2v1.8c0 1-.2 1.7-.4 2.2-.3.5-.7.7-1.3.7h-9v9.4h10.2c.6 0 1 .3 1.3.7.2.5.3 1.2.3 2.2v1.9c0 1 0 1.7-.3 2.2-.3.4-.7.7-1.3.7h-17.2z"/>
  </g>
  <g fill="#00ACCD">
    <path d="M1678.3 697.6c-1.9 0-2.8-.4-2.8-1.3l.1-1 9-37c.3-1.2 1.5-1.7 3.6-1.7h3.8c2 0 3.3.5 3.6 1.6l9 37v1.1c0 .9-.8 1.3-2.5 1.3h-3c-2 0-3-.4-3.1-1.2l-1.5-7.1h-8.9l-1.6 7c-.1.9-1 1.3-2.7 1.3h-3zm15.2-15.4l-2.7-12.4-.7-4.4h-.3c-.1 1.6-.4 3-.6 4.4l-2.6 12.4h6.9zM1730.7 673.6c.7 0 1.3.2 1.6.6.4.3.5 1 .5 1.7v17.4c0 .9-.6 1.7-1.7 2.4-1.2.7-2.7 1.3-4.4 1.7-1.8.4-3.5.6-5 .6-5.5 0-9.5-1.7-12-5.1-2.7-3.4-4-8.7-4-16 0-6.9 1.3-12.1 4-15.5 2.5-3.4 6.6-5.1 12-5.1 1.8 0 3.5.2 5.1.6 1.7.4 3 .9 4 1.5 1 .7 1.5 1.3 1.5 2a5 5 0 01-.6 2 9 9 0 01-1.5 2.3c-.6.6-1 1-1.6 1l-1.2-.5-2.2-.8c-.8-.2-1.8-.3-3-.3-2.4 0-4.2 1-5.4 3.2a20.9 20.9 0 00-1.7 9.7c0 4.8.5 8.1 1.6 10 1.1 2 2.8 3 5 3 .9 0 1.7 0 2.3-.2v-8.5h-3c-.5 0-1-.2-1.2-.7-.3-.5-.4-1.2-.4-2.2v-1.9c0-1 .1-1.7.4-2.2.3-.5.7-.7 1.3-.7h9.6zM1740.1 697.5c-.7 0-1.3-.2-1.6-.6-.4-.3-.5-1-.5-1.7V659c0-.8.1-1.4.5-1.7.3-.4.9-.6 1.6-.6h17.2c.6 0 1 .3 1.3.7.3.5.4 1.2.4 2.2v1.8c0 1-.2 1.8-.4 2.3-.3.4-.7.6-1.3.6H1747v8.5h9.1c.6 0 1 .2 1.3.7.3.5.4 1.2.4 2.2v1.8c0 1-.1 1.8-.4 2.2-.3.5-.7.7-1.3.7h-9v9.5h10.3c.5 0 1 .2 1.2.7.3.4.4 1.2.4 2.2v1.8c0 1-.1 1.7-.4 2.2-.2.5-.7.7-1.2.7H1740zM1771.5 705.5a5 5 0 01-2.4-.4c-.5-.3-.7-.7-.7-1.3v-49.3c0-.6.2-1 .7-1.3a5 5 0 012.4-.4h.8c1 0 1.8 0 2.3.4.5.2.8.7.8 1.3v49.3c0 .6-.3 1-.8 1.3a5 5 0 01-2.3.4h-.8zM1788.8 697.7c-2.2 0-3.4-.7-3.4-2v-37.2c0-1.3 1.2-2 3.4-2h2.5c2.2 0 3.3.7 3.3 2v37.2c0 1.3-1.1 2-3.3 2h-2.5zM1802 697.5c-.8 0-1.3-.2-1.7-.6-.3-.3-.5-1-.5-1.7V659c0-.8.2-1.4.5-1.7.4-.4 1-.6 1.7-.6h11c5 0 8.8 1.7 11.2 5 2.4 3.5 3.6 8.6 3.6 15.4 0 6.8-1.2 12-3.6 15.3-2.4 3.4-6.1 5-11.2 5h-11zm10.7-7.6c2.1 0 3.6-1 4.5-3 .9-1.8 1.3-5.1 1.3-9.8 0-4.7-.4-8-1.3-9.9-1-1.9-2.4-2.9-4.5-2.9h-3.7V690h3.7zM1831.7 697.6c-1.8 0-2.8-.4-2.8-1.3l.2-1 9-37c.3-1.2 1.4-1.7 3.5-1.7h3.8c2.2 0 3.4.5 3.6 1.6l9 37 .1 1.1c0 .9-.8 1.3-2.5 1.3h-3c-2 0-3-.4-3.1-1.2l-1.6-7.1h-8.8l-1.6 7c-.2.9-1 1.3-2.7 1.3h-3zm15.2-15.4l-2.6-12.4-.7-4.4h-.3l-.7 4.4-2.5 12.4h6.8zM1862.5 697.5c-.7 0-1.2-.2-1.6-.6-.3-.3-.5-1-.5-1.7V659c0-.8.2-1.4.5-1.7.4-.4 1-.6 1.6-.6h11.1c5 0 8.8 1.7 11.2 5 2.4 3.5 3.5 8.6 3.5 15.4 0 6.8-1.1 12-3.5 15.3-2.4 3.4-6.1 5-11.2 5h-11zm10.8-7.6c2 0 3.6-1 4.5-3 .9-1.8 1.3-5.1 1.3-9.8 0-4.7-.4-8-1.3-9.9-1-1.9-2.4-2.9-4.5-2.9h-3.7V690h3.7zM1895 697.5c-.8 0-1.3-.2-1.7-.6-.3-.3-.5-1-.5-1.7V659c0-.8.2-1.4.5-1.7.4-.4.9-.6 1.6-.6h17.2c.6 0 1 .3 1.3.7.3.5.4 1.2.4 2.2v1.8c0 1-.1 1.8-.4 2.3-.3.4-.7.6-1.3.6H1902v8.5h9c.6 0 1 .2 1.3.7.3.5.4 1.2.4 2.2v1.8c0 1-.1 1.8-.4 2.2-.2.5-.7.7-1.3.7h-9v9.5h10.3c.5 0 1 .2 1.2.7.3.4.4 1.2.4 2.2v1.8c0 1-.1 1.7-.4 2.2-.2.5-.7.7-1.2.7h-17.3z"/>
  </g>
  <g fill="#00ACCD">
    <path d="M1692.8 173.2c-5.4 0-9.4-1.7-11.8-5-2.5-3.4-3.7-8.7-3.7-16 0-7 1.3-12.1 3.8-15.6 2.6-3.4 6.6-5 12-5 1.8 0 3.5.1 5 .6 1.3.3 1.9 1.1 1.9 2.5s-.3 2.8-.8 4c-.5 1-1.2 1.5-2 1.3-1.2-.4-2.4-.6-3.7-.6-2.3 0-4 1-5.2 3.2a21.2 21.2 0 00-1.7 9.7c0 4.4.6 7.6 1.7 9.8 1.2 2.1 3 3.2 5.5 3.2l1.9-.1a23.1 23.1 0 002.5-.6c.8 0 1.3.5 1.7 1.5.4 1 .6 2.2.6 3.8 0 .6-.1 1-.3 1.5-.3.4-.7.7-1.4 1l-2.6.6-3.4.2zM1716.7 173.2c-10.2 0-15.2-7-15.2-20.8 0-14 5-20.9 15.2-20.9 5 0 8.8 1.7 11.3 5 2.6 3.5 4 8.7 4 15.9 0 7.1-1.4 12.4-4 15.8-2.5 3.3-6.3 5-11.3 5zm0-7.6c1.5 0 2.6-.4 3.5-1.2.8-.8 1.5-2.1 1.9-4 .4-2 .6-4.6.6-8 0-3.4-.2-6-.6-8-.4-1.9-1-3.3-2-4-.8-.8-2-1.2-3.3-1.2a5 5 0 00-3.4 1.2c-.9.7-1.6 2.1-2 4-.5 2-.7 4.6-.7 8 0 3.3.2 6 .7 8 .4 1.9 1.1 3.2 2 4a5 5 0 003.4 1.2zM1750 173.2c-4.5 0-7.9-1-10.4-3.2a11.5 11.5 0 01-3.7-9.2v-27c0-1.3 1.1-2 3.4-2h2.3c2.3 0 3.4.7 3.4 2v26.4c0 1.6.4 3 1.3 4 1 .9 2.1 1.4 3.6 1.4s2.7-.5 3.6-1.5c1-1 1.4-2.3 1.4-3.9v-26.5c0-1.2 1.1-1.8 3.4-1.8h2.2c2.3 0 3.4.6 3.4 1.8v27.1c0 4-1.2 7-3.7 9.2a15 15 0 01-10.3 3.2zM1772 172.9c-2.2 0-3.3-.7-3.3-1.9v-37.3c0-1.2 1.1-1.8 3.4-1.8h1.5c.8 0 1.4 0 1.9.3.4.2.8.6 1.1 1.3l10.5 19c.6 1 1.2 2.5 2 4.5h.2c-.3-2.1-.5-3.6-.5-4.7v-18.6c0-1.2 1.2-1.8 3.4-1.8h1.4c2.3 0 3.4.6 3.4 1.8V171c0 1.2-1.1 1.9-3.4 1.9h-1a5 5 0 01-2-.3c-.5-.3-1-.7-1.2-1.4l-11.2-19.8-1.5-3.7-.3.2c.3 1.8.5 3 .5 4V171c0 1.2-1.2 1.9-3.4 1.9h-1.4zM1810.8 172.9c-2.2 0-3.3-.7-3.3-1.9v-31.4h-6.5c-.6 0-1-.2-1.3-.7-.3-.5-.4-1.2-.4-2.2v-1.8c0-1 .1-1.8.4-2.2.3-.5.7-.7 1.3-.7h22.1c.6 0 1 .2 1.4.7.2.4.4 1.2.4 2.2v1.8c0 1-.2 1.7-.4 2.2-.3.5-.8.7-1.4.7h-6.5V171c0 1.2-1.1 1.9-3.4 1.9h-2.4zM1830.7 172.9c-2.3 0-3.5-.7-3.5-1.9v-36.7c0-.8.2-1.4.6-1.8.3-.3 1-.5 1.8-.5h9.7c3.5 0 6.4.9 8.6 2.6 2.2 1.8 3.3 4.7 3.3 8.9 0 4.5-1.9 7.8-5.6 9.8v.2c.9.5 1.7 1.3 2.4 2.4.7 1 1.2 2.2 1.5 3.5l3.5 11.1.1.7c0 1-1.2 1.6-3.6 1.6h-2c-2 0-3.2-.5-3.5-1.6l-3.1-11c-.4-.9-.8-1.5-1.2-1.8-.4-.4-1.2-.6-2.1-.6h-1.4V171c0 1.2-1.2 1.9-3.5 1.9h-2zm8.8-23.6c.8 0 1.5-.4 2.1-1.2.6-.9 1-2.1 1-3.8 0-1.6-.4-2.8-1-3.6a2.9 2.9 0 00-2.3-1h-3.1v9.6h3.3zM1865 172.9c-2.4 0-3.5-.7-3.5-1.9v-15.8l-9-20.7-.3-.7-.2-.8c0-.3.3-.6.9-.8.6-.2 1.5-.3 2.6-.3h3c1.9 0 3 .3 3.2 1l4.5 14.4 4.5-14.3c.1-.5.4-.7 1-.9.5-.2 1.3-.2 2.2-.2h2.4c2.5 0 3.7.4 3.7 1.1 0 .4-.1.9-.4 1.5l-9 20.8V171c0 1.2-1.1 1.9-3.4 1.9h-2.3zM1891.1 180.8a5 5 0 01-2.4-.4c-.4-.3-.7-.7-.7-1.4v-49.2c0-.7.3-1.1.7-1.4a5 5 0 012.4-.4h.8c1.1 0 1.9.2 2.4.4.5.3.7.7.7 1.4V179c0 .7-.2 1.1-.7 1.4-.5.3-1.3.4-2.4.4h-.8zM1908.5 172.9c-2.4 0-3.5-.7-3.5-1.9v-36.7c0-.8.2-1.4.5-1.8.4-.3 1-.5 1.8-.5h10c3.1 0 5.9.9 8.2 2.6 2.3 1.8 3.5 5.2 3.5 10.1 0 3.5-.7 6.1-2 8a10.5 10.5 0 01-4.6 3.8c-1.6.7-3.1 1-4.5 1h-4V171c0 1.2-1.1 1.9-3.5 1.9h-2zm8.5-23a3 3 0 002.3-1c.7-.9 1-2.2 1-4.2 0-1.9-.3-3.2-1-4a3 3 0 00-2.3-1h-3.1V150h3zM1929.3 172.9c-1.9 0-2.8-.5-2.8-1.3l.1-1 9-37.1c.3-1 1.5-1.6 3.6-1.6h3.8c2 0 3.3.5 3.6 1.6l9 37v1c0 1-.8 1.4-2.5 1.4h-3c-2 0-3-.4-3.1-1.3l-1.5-7h-8.9l-1.6 7c-.1.9-1 1.3-2.7 1.3h-3zm15.2-15.5l-2.7-12.3-.7-4.4h-.3c-.1 1.5-.4 3-.6 4.4l-2.6 12.3h6.9zM1961 173c-2.3 0-3.4-.7-3.4-2v-37.3c0-1.3 1.2-1.9 3.4-1.9h2.5c2.2 0 3.3.6 3.3 2V171c0 1.3-1.1 2-3.3 2h-2.5zm-1-43.9l-1.6-.1c-.3-.2-.4-.3-.4-.6 0-.4.2-1 .7-1.5l2.4-3.4c.5-.7 1-1.2 1.7-1.4a14.8 14.8 0 015.7-.1c.6.1.9.4.9.8 0 .6-.5 1.3-1.6 2.1l-3.7 3c-.6.6-1.1.9-1.6 1-.5.2-1.3.2-2.4.2zM1980.7 173.2c-2 0-3.8-.3-5.7-.8a8.7 8.7 0 01-4-2.3c-.5-.7-.8-1.4-.8-2 0-1.2.3-2.3.9-3.4.6-1.1 1.2-1.7 1.9-1.7.3 0 .8.2 1.5.6l1.5.8a9 9 0 004 1.2 6 6 0 003.3-.9c.9-.6 1.4-1.6 1.4-3s-.5-2.6-1.4-3.4c-.9-.9-2.3-1.8-4.2-2.8-2.9-1.7-5-3.4-6.4-5.2-1.3-1.8-2-4.1-2-7 0-2.4.5-4.5 1.6-6.3 1-1.7 2.5-3.1 4.3-4 1.9-1 4-1.5 6.4-1.5a15.8 15.8 0 017.6 2.1c.7.5 1 1.2 1 2 0 1-.2 2.1-.6 3.3-.5 1-1 1.6-1.7 1.6-.3 0-.9-.1-1.7-.4a11 11 0 00-3.8-.9c-1.6 0-2.7.4-3.3 1-.6.8-1 1.5-1 2.4 0 1.4.5 2.5 1.2 3.2.7.7 2 1.5 3.5 2.4a20.6 20.6 0 017.4 5.8c1.2 1.8 1.8 4.1 1.8 7 0 2.2-.5 4.2-1.4 6-1 2-2.4 3.4-4.3 4.5a13.6 13.6 0 01-7 1.7z"/>
  </g>
  <g fill="#fff">
    <path d="M105.9 290.7c-5 0-7.5-1.4-7.5-4v-78.8c0-1.7.4-3 1.2-3.8.8-.8 2-1.2 3.8-1.2H125c6.6 0 12.4 1.9 17.5 5.7 5 3.8 7.5 11 7.5 21.7 0 7.3-1.4 13-4.3 17-3 4-6.2 6.8-9.8 8.2a26.6 26.6 0 01-9.6 2.2h-8.6v29c0 2.6-2.5 4-7.5 4h-4.3zm18.3-49.2c1.9 0 3.5-.8 5-2.5 1.4-1.6 2-4.6 2-8.7s-.6-7-2-8.6a6.4 6.4 0 00-5-2.4h-6.7v22.2h6.7zM150.5 290.7c-4 0-6-1-6-2.8 0-.7.2-1.4.4-2.2l19.3-79.5c.5-2.4 3-3.5 7.6-3.5h8.1c4.6 0 7.2 1.1 7.8 3.5l19.2 79.5.3 2.2c0 1.8-1.8 2.8-5.4 2.8H195c-4 0-6.2-1-6.6-2.7l-3.2-15.2h-19l-3.4 15.2c-.3 1.8-2.3 2.7-5.9 2.7h-6.5zm32.7-33.2l-5.7-26.5c-.6-3-1-6.1-1.5-9.5h-.6c-.4 3.4-1 6.5-1.5 9.5l-5.5 26.5h14.8zM230.7 291.4c-4.1 0-8.2-.6-12.2-1.8-4-1.2-6.9-2.9-8.7-5-1.1-1.4-1.7-2.9-1.7-4.3 0-2.4.7-4.7 2-7.1 1.2-2.5 2.6-3.7 4-3.7.7 0 1.8.4 3.2 1.3l3.2 1.7c3.3 1.7 6.2 2.5 8.7 2.5 2.6 0 5-.6 7-1.8 2-1.3 3-3.4 3-6.4 0-3.2-1-5.7-3-7.5-1.8-1.7-4.8-3.7-9-5.9a44.6 44.6 0 01-13.6-11.1c-2.9-3.9-4.3-9-4.3-15.3 0-5 1.1-9.5 3.3-13.3 2.3-3.8 5.4-6.7 9.4-8.7 4-2 8.4-3 13.5-3a33.8 33.8 0 0116.4 4.4c1.5 1 2.3 2.5 2.3 4.4 0 2.1-.5 4.4-1.5 6.9-1 2.4-2.1 3.6-3.5 3.6-.7 0-2-.4-3.7-1-3.2-1.3-6-1.9-8.1-1.9-3.5 0-5.9.8-7.2 2.3a7.6 7.6 0 00-2 5c0 3 .9 5.4 2.5 6.9 1.5 1.5 4 3.2 7.6 5l3.3 1.8c5.8 3.3 10 7 12.5 10.8a27 27 0 013.8 15c0 4.7-1 9-3 13s-5 7.2-9.1 9.6c-4.1 2.4-9.2 3.6-15.2 3.6zM282.8 291.4c-4.1 0-8.2-.6-12.2-1.8-4-1.2-6.9-2.9-8.7-5-1-1.4-1.6-2.9-1.6-4.3 0-2.4.6-4.7 1.8-7.1 1.3-2.5 2.7-3.7 4.2-3.7.6 0 1.7.4 3.2 1.3l3.1 1.7c3.3 1.7 6.2 2.5 8.7 2.5 2.6 0 5-.6 7-1.8 2-1.3 3-3.4 3-6.4 0-3.2-1-5.7-2.9-7.5-2-1.7-5-3.7-9-5.9a44.6 44.6 0 01-13.7-11.1c-2.9-3.9-4.3-9-4.3-15.3 0-5 1.1-9.5 3.4-13.3 2.2-3.8 5.3-6.7 9.3-8.7 4-2 8.5-3 13.5-3a33.8 33.8 0 0116.4 4.4c1.5 1 2.3 2.5 2.3 4.4 0 2.1-.5 4.4-1.5 6.9-1 2.4-2.1 3.6-3.5 3.6-.7 0-1.9-.4-3.7-1-3.2-1.3-6-1.9-8-1.9-3.6 0-6 .8-7.3 2.3a7.6 7.6 0 00-1.9 5c0 3 .8 5.4 2.4 6.9 1.6 1.5 4.1 3.2 7.6 5l3.4 1.8c5.7 3.3 9.9 7 12.4 10.8a27 27 0 013.8 15c0 4.7-1 9-3 13s-5 7.2-9.1 9.6c-4 2.4-9.1 3.6-15.1 3.6zM323.5 290.7c-5 0-7.5-1.4-7.5-4v-78.8c0-1.7.4-3 1.2-3.8.8-.8 2-1.2 3.8-1.2h21.6c6.6 0 12.4 1.9 17.5 5.7 5 3.8 7.5 11 7.5 21.7 0 7.3-1.4 13-4.3 17-3 4-6.2 6.8-9.8 8.2a26.6 26.6 0 01-9.6 2.2h-8.6v29c0 2.6-2.5 4-7.5 4h-4.3zm18.3-49.2c1.9 0 3.6-.8 5-2.5 1.4-1.6 2.1-4.6 2.1-8.7s-.7-7-2.1-8.6a6.4 6.4 0 00-5-2.4H335v22.2h6.7zM404.4 291.4c-21.8 0-32.8-15-32.8-44.7 0-29.9 11-44.8 32.8-44.8 10.7 0 18.8 3.6 24.3 10.9 5.6 7.2 8.3 18.5 8.3 33.9 0 15.3-2.7 26.6-8.3 33.8-5.5 7.3-13.6 11-24.3 11zm.1-16.4c3 0 5.4-.8 7.3-2.5 1.8-1.6 3.2-4.5 4.1-8.7 1-4 1.4-9.8 1.4-17.1 0-7.3-.5-13-1.4-17.1-1-4.1-2.3-7-4.1-8.7a10.4 10.4 0 00-7.3-2.5c-3 0-5.4.8-7.3 2.5a16.4 16.4 0 00-4.2 8.7 79 79 0 00-1.5 17c0 7.3.5 13 1.5 17.2 1 4.1 2.3 7 4.2 8.7 1.9 1.7 4.3 2.5 7.3 2.5zM453.5 290.7c-5 0-7.5-1.4-7.5-4v-78.8c0-1.7.4-3 1.2-3.8.8-.8 2-1.2 3.8-1.2H472c7.7 0 13.8 1.9 18.5 5.7 4.7 3.8 7 10.1 7 19 0 9.7-4 16.7-11.9 21v.6c1.9 1 3.5 2.6 5 5 1.5 2.3 2.6 4.8 3.4 7.5l7.4 24 .3 1.5c0 2.2-2.5 3.3-7.7 3.3h-4.4c-4.4 0-6.9-1-7.5-3.3l-6.6-23.8a9.3 9.3 0 00-2.6-3.9c-1-.7-2.4-1-4.5-1h-3v28.2c0 2.6-2.5 4-7.5 4h-4.3zm18.8-50.5c1.8 0 3.4-1 4.7-2.8 1.3-1.8 1.9-4.5 1.9-8s-.6-6-2-7.7a6.2 6.2 0 00-5-2.4h-6.6v20.9h7zM526.6 290.7c-4.8 0-7.2-1.4-7.2-4v-67.4h-13.9a3 3 0 01-2.7-1.5c-.6-1-.9-2.6-.9-4.8v-3.8c0-2.2.3-3.8.9-4.8a3 3 0 012.7-1.5H553c1.4 0 2.3.5 2.9 1.5.6 1 .9 2.6.9 4.8v3.8c0 2.2-.3 3.8-.9 4.8-.6 1-1.5 1.5-2.9 1.5h-14v67.4c0 2.6-2.4 4-7.2 4h-5.1z"/>
  </g>
  <g>
    <g clip-path="url(#clip0)">
      <path fill="#fff" d="M331.2 848.4a230.4 230.4 0 000-460.8C204 387.6 96.6 490.8 100.8 618 105 748.3 205 847.4 331.2 848.4"/>
      <path fill="url(#paint0_linear)" d="M206.6 710.8a215.2 215.2 0 00-20.4 45.6 205 205 0 00-9.5 62 221 221 0 009 61.1l49.1-8.6 29.3-59.7-57.5-100.4z"/>
      <path fill="url(#paint1_linear)" d="M538.4 754.6a209.4 209.4 0 00-64.7-90.6l-.1-.2v.1l-19.7 113.8 47.8 46 49.2-8.6c-1.6-22.6-6.1-42.7-12.5-60.5z"/>
      <path fill="url(#paint2_radial)" d="M473.5 663.8l28.3 160-267 47-28.2-160 266.9-47z"/>
      <path fill="url(#paint3_linear)" d="M237 705.5l4.6 16.2a131 131 0 0022 40.7c20.5 26.6 49.7 46.9 84.4 58.6l16.7 5.7 13.8-11c28.6-23 49-52 59.2-84 7.7-24.4 7-42.4 6.7-45.8l-1.1-16.7-206.4 36.3zm121.3 85c-70.1-23.7-85.7-77.8-85.7-77.8l139.7-24.6s3.8 56.1-54 102.4z"/>
      <path fill="url(#paint4_linear)" d="M422.5 678.6s4.4 65.4-62.9 119.4c-81.7-27.7-99.9-90.7-99.9-90.7l162.8-28.7z"/>
      <path fill="url(#paint5_radial)" d="M62.5 422.3A22 22 0 0181 400.7c54.2-9 81.3-59.1 194.6-79.1 126.9-22.4 247.6 58.8 269.1 180.9l-26 33L325 601.3l-202.5 10.5-27.3-30.2a399.2 399.2 0 01-32.6-159.4z"/>
      <path fill="url(#paint6_radial)" d="M116 591l1.8-.8s59.5-26.7 46.7-99c0 0 60.3 4.6 139.4-9.4C382.9 468 438 443 438 443a89.2 89.2 0 0077.8 77.1l2 .4 10.5 20.7-11.2 24.5c-11.3 83.3-77.8 154.1-168.5 170.1-90.6 16-177.4-27.8-216.5-102.3l-23.5-13.7 7.4-28.6z"/>
      <path fill="url(#paint7_linear)" d="M116.2 591.8c3.7 14.7 9 28.7 15.9 41.7a45.6 45.6 0 11-27-87A507 507 0 00116 591l.2.7z"/>
      <path fill="url(#paint8_linear)" d="M517.8 521c1.6 15 1.3 30-.7 44.6a45.6 45.6 0 10-4.4-91c3.7 22.5 5 45.6 5 45.6l.1.8z"/>
      <g fill="#F98084">
        <path d="M422.9 602l29-5.2A8 8 0 10449 581l-29 5.2a8 8 0 102.9 15.8zM204.1 640.5l29-5.1a8 8 0 00-2.8-15.9l-29 5.1a8 8 0 002.8 15.9z"/>
      </g>
      <g fill="#3B484A">
        <path d="M431.8 568.1a8 8 0 006.6-9.3l-3.8-21.3a8 8 0 00-15.8 2.8l3.7 21.3a8 8 0 009.3 6.5zM213 606.7a8 8 0 006.6-9.4l-3.7-21.2a8 8 0 10-15.9 2.8l3.8 21.2a8 8 0 009.3 6.6zM327.8 617.4c9.9-1.7 18.5-7.5 23.5-15.8a8 8 0 10-13.8-8.4 18.2 18.2 0 01-12.5 8.4c-5.4 1-10.7-.4-14.7-3.6a8 8 0 00-10 12.6 34.3 34.3 0 0027.5 6.8z"/>
      </g>
    </g>
  </g>
  <defs>
    <linearGradient id="paint0_linear" x1="197.4" x2="249.5" y1="877.5" y2="728.6" gradientUnits="userSpaceOnUse">
      <stop stop-color="#EFEDEE"/>
      <stop offset=".2" stop-color="#EFEDEE"/>
      <stop offset="1" stop-color="#D6D1D4"/>
    </linearGradient>
    <linearGradient id="paint1_linear" x1="464.4" x2="576.6" y1="732.5" y2="753.6" gradientUnits="userSpaceOnUse">
      <stop stop-color="#D6D1D4"/>
      <stop offset=".6" stop-color="#EFEDEE"/>
      <stop offset="1" stop-color="#EFEDEE"/>
    </linearGradient>
    <linearGradient id="paint3_linear" x1="340.1" x2="364.7" y1="687.3" y2="826.7" gradientUnits="userSpaceOnUse">
      <stop stop-color="#D3313D"/>
      <stop offset=".3" stop-color="#D3313D"/>
      <stop offset=".4" stop-color="#DC5A64"/>
      <stop offset="1" stop-color="#DC5A64"/>
    </linearGradient>
    <linearGradient id="paint4_linear" x1="341.1" x2="359.6" y1="693" y2="798" gradientUnits="userSpaceOnUse">
      <stop stop-color="#D1CCCF"/>
      <stop offset=".3" stop-color="#D1CCCF"/>
      <stop offset=".7" stop-color="#EFEDEE"/>
      <stop offset="1" stop-color="#EFEDEE"/>
    </linearGradient>
    <linearGradient id="paint7_linear" x1="86.9" x2="152" y1="584.4" y2="619.9" gradientUnits="userSpaceOnUse">
      <stop stop-color="#FCC4AE"/>
      <stop offset=".6" stop-color="#ECA689"/>
      <stop offset="1" stop-color="#ECA689"/>
    </linearGradient>
    <linearGradient id="paint8_linear" x1="559.8" x2="514.9" y1="506.9" y2="552.8" gradientUnits="userSpaceOnUse">
      <stop stop-color="#FCC4AE"/>
      <stop offset=".6" stop-color="#ECA688"/>
      <stop offset="1" stop-color="#ECA688"/>
    </linearGradient>
    <radialGradient id="paint2_radial" cx="0" cy="0" r="1" gradientTransform="rotate(78.7 -230.5 537.2) scale(126.737 211.398)" gradientUnits="userSpaceOnUse">
      <stop stop-color="#1EA3C3"/>
      <stop offset=".6" stop-color="#1EA3C3"/>
      <stop offset="1" stop-color="#42C3E2"/>
    </radialGradient>
    <radialGradient id="paint5_radial" cx="0" cy="0" r="1" gradientTransform="matrix(160.00006 -153.16085 289.5563 302.48608 181.5 482.4)" gradientUnits="userSpaceOnUse">
      <stop stop-color="#3D4F51"/>
      <stop offset=".4" stop-color="#3D4F51"/>
      <stop offset="1" stop-color="#2C373A"/>
    </radialGradient>
    <radialGradient id="paint6_radial" cx="0" cy="0" r="1" gradientTransform="rotate(32.1 -682.8 659.3) scale(343.234 313.159)" gradientUnits="userSpaceOnUse">
      <stop stop-color="#FCC4AD"/>
      <stop offset=".6" stop-color="#FCC4AD"/>
      <stop offset=".9" stop-color="#ECA689"/>
      <stop offset="1" stop-color="#ECA689"/>
    </radialGradient>
    <clipPath id="clip0">
      <path fill="#fff" d="M63 265h273c127 0 230 103 230 230v110c0 127-103 230-230 230h-11A262 262 0 0163 573V265z"/>
    </clipPath>
  </defs>
</svg>
