<svg width="169" height="170" viewBox="0 0 169 170" fill="none" xmlns="http://www.w3.org/2000/svg">
<g id="pyjamas">
<g id="Group">
<g id="Group_2">
<path id="Vector" d="M165.071 42.652L154.346 31.9272C142.395 19.976 126.185 13.2617 109.284 13.2617H59.7165C42.815 13.2617 26.6056 19.976 14.6544 31.9272L3.92958 42.652C1.67924 44.9023 1.67924 48.5511 3.92958 50.8014L22.5646 69.4364C24.8149 71.6867 28.4636 71.6867 30.714 69.4364L33.3202 67.8422V151.708C33.3202 154.89 35.8999 157.47 39.0824 157.47H129.918C133.101 157.47 135.681 154.891 135.681 151.708V67.8418L138.287 69.4361C140.538 71.6864 144.186 71.6864 146.437 69.4361L165.072 50.8011C167.321 48.5507 167.321 44.9023 165.071 42.652V42.652Z" fill="url(#paint0_linear)"/>
<g id="Group_3">
<path id="Vector_2" d="M159.767 37.349V56.104L146.435 69.4364C145.919 69.9526 145.332 70.346 144.706 70.6266V24.0137C148.145 26.3137 151.377 28.9587 154.345 31.9265L159.767 37.349Z" fill="url(#paint1_linear)"/>
<path id="Vector_3" d="M132.653 17.7059V156.781C131.837 157.223 130.908 157.471 129.917 157.471H117.595V13.809C122.775 14.4896 127.831 15.8025 132.653 17.7059Z" fill="url(#paint2_linear)"/>
<path id="Vector_4" d="M90.478 13.2611H105.539V157.468H90.478V13.2611Z" fill="url(#paint3_linear)"/>
<path id="Vector_5" d="M63.3618 13.2611H78.4233V157.468H63.3618V13.2611Z" fill="url(#paint4_linear)"/>
<path id="Vector_6" d="M51.3079 13.8162V157.465H39.0819C38.053 157.465 37.0851 157.194 36.2497 156.72V17.7386C41.0725 15.8259 46.1272 14.5064 51.3079 13.8162V13.8162Z" fill="url(#paint5_linear)"/>
<path id="Vector_7" d="M24.2933 24.0137V70.6266C23.6674 70.346 23.0805 69.9523 22.5643 69.4364L9.23187 56.104V37.349L14.6544 31.9265C17.6225 28.9587 20.8547 26.3137 24.2933 24.0137V24.0137Z" fill="url(#paint6_linear)"/>
</g>
<path id="Vector_8" d="M165.072 50.8004L156.84 59.0327L146.436 69.4361C144.185 71.6844 140.536 71.6844 138.288 69.4361L135.681 67.8425V120.469C119.804 104.568 56.1327 40.9584 55.852 40.6714C55.5196 40.3261 55.6296 39.8552 55.6296 39.3164V18.5875C55.6296 16.4422 56.6715 14.4938 58.3263 13.2843C58.894 13.268 59.1455 13.2617 59.7164 13.2617H109.284C109.855 13.2617 110.423 13.268 110.991 13.2843C127.275 13.7197 142.797 20.3779 154.346 31.9262L165.072 42.652C167.321 44.9004 167.321 48.5521 165.072 50.8004V50.8004Z" fill="url(#paint7_linear)"/>
<path id="Vector_9" d="M33.3196 122.296V151.71C33.3196 154.892 35.8994 157.472 39.0819 157.472H129.918C133.1 157.472 135.68 154.893 135.68 151.71V122.296H33.3196Z" fill="url(#paint8_linear)"/>
<path id="Vector_10" d="M154.346 31.9272C142.394 19.976 126.185 13.2617 109.284 13.2617H76.4354V157.47H129.918C133.1 157.47 135.681 154.89 135.681 151.707V67.8422L138.287 69.4364C140.537 71.6867 144.186 71.6867 146.436 69.4364L165.071 50.8014C167.321 48.5511 167.321 44.9027 165.071 42.6523L154.346 31.9272Z" fill="url(#paint9_linear)"/>
<path id="Vector_11" d="M104.558 11.6473C91.4809 7.6838 77.5186 7.6838 64.4414 11.6473C62.1135 12.3528 60.9375 14.9289 61.9087 17.1594C65.7954 26.0878 74.4485 27.5816 84.4996 27.5816C94.5507 27.5816 103.204 26.0878 107.091 17.1594C108.062 14.9289 106.886 12.3528 104.558 11.6473V11.6473Z" fill="url(#paint10_linear)"/>
<g id="Group_4">
<g id="Group_5">
<path id="Vector_12" d="M84.5016 25.6616C74.8955 25.6616 71.1324 19.68 68.8009 13.5576C68.334 12.3316 68.1024 11.517 67.9897 11.0472C67.9228 10.7681 67.6464 10.5962 67.3664 10.6581L60.3403 12.208C57.3901 12.9151 55.3094 15.5535 55.3094 18.5872V39.3141C55.3094 40.7549 56.8142 41.7013 58.1128 41.077L83.7689 28.7447C84.2166 28.5293 84.5016 28.0763 84.5016 27.5793V25.6616Z" fill="url(#paint11_linear)"/>
<path id="Vector_13" d="M84.5004 27.5787C84.5004 28.0757 84.7854 28.5287 85.2334 28.7441L110.889 41.0764C112.188 41.7007 113.693 40.7543 113.693 39.3135V18.5866C113.693 15.5525 111.612 12.9145 108.662 12.2073L101.636 10.6575C101.356 10.5959 101.079 10.7679 101.012 11.0466C100.9 11.5164 100.668 12.3313 100.201 13.557C97.8696 19.6794 94.1065 25.661 84.5004 25.661V27.5787Z" fill="url(#paint12_linear)"/>
</g>
</g>
<g id="Group_6">
<path id="Vector_14" d="M14.6547 31.9265L3.92958 42.6517C1.67924 44.902 1.67924 48.5504 3.92958 50.8011L22.5646 69.4361C24.8149 71.6864 28.4636 71.6864 30.714 69.4361L33.3202 67.8418V18.9905C26.4389 22.1219 20.1035 26.4781 14.6547 31.9265V31.9265Z" fill="url(#paint13_linear)"/>
</g>
<g id="Group_7">
<path id="Vector_15" d="M154.345 31.9265L165.069 42.6514C167.32 44.9017 167.32 48.5501 165.069 50.8008L146.434 69.4357C144.184 71.6861 140.535 71.6861 138.285 69.4357L135.679 67.8415V18.9905C142.56 22.1219 148.896 26.4781 154.345 31.9265V31.9265Z" fill="url(#paint14_linear)"/>
</g>
</g>
<g id="Group_8">
<g id="Group_9">
<path id="Vector_16" d="M97.259 60.5478C95.568 61.6301 93.3518 61.3898 91.9319 59.9702L81.6577 49.6961C80.8346 48.9167 80.3873 47.8139 80.3873 46.5908C80.3873 44.2795 82.286 42.3804 84.5973 42.3807C85.8204 42.3807 86.9232 42.8281 87.7026 43.6512L97.9767 53.9254C99.9076 55.8553 99.5584 59.0759 97.259 60.5478Z" fill="url(#paint15_linear)"/>
<g id="Group_10">
<path id="Vector_17" d="M84.4998 50.8579C86.8616 50.8579 88.7761 48.9433 88.7761 46.5815C88.7761 44.2198 86.8616 42.3052 84.4998 42.3052C82.138 42.3052 80.2234 44.2198 80.2234 46.5815C80.2234 48.9433 82.138 50.8579 84.4998 50.8579Z" fill="url(#paint16_linear)"/>
<path id="Vector_18" d="M84.4999 49.0073C85.8411 49.0073 86.9282 47.9202 86.9282 46.579C86.9282 45.2379 85.8411 44.1508 84.4999 44.1508C83.1588 44.1508 82.0717 45.2379 82.0717 46.579C82.0717 47.9202 83.1588 49.0073 84.4999 49.0073Z" fill="url(#paint17_linear)"/>
</g>
</g>
<g id="Group_11">
<path id="Vector_19" d="M97.2592 82.3569C95.5682 83.4392 93.352 83.1989 91.9321 81.7793L81.6579 71.5052C80.8348 70.7258 80.3875 69.623 80.3875 68.3999C80.3875 66.0886 82.2862 64.1895 84.5975 64.1898C85.8206 64.1898 86.9234 64.6372 87.7028 65.4603L97.9769 75.7345C99.9078 77.6647 99.5586 80.885 97.2592 82.3569Z" fill="url(#paint18_linear)"/>
<g id="Group_12">
<path id="Vector_20" d="M84.4999 72.6677C86.8616 72.6677 88.7762 70.7531 88.7762 68.3913C88.7762 66.0296 86.8616 64.115 84.4999 64.115C82.1381 64.115 80.2235 66.0296 80.2235 68.3913C80.2235 70.7531 82.1381 72.6677 84.4999 72.6677Z" fill="url(#paint19_linear)"/>
<path id="Vector_21" d="M84.5001 70.8187C85.8412 70.8187 86.9284 69.7316 86.9284 68.3905C86.9284 67.0493 85.8412 65.9622 84.5001 65.9622C83.159 65.9622 82.0718 67.0493 82.0718 68.3905C82.0718 69.7316 83.159 70.8187 84.5001 70.8187Z" fill="url(#paint20_linear)"/>
</g>
</g>
<g id="Group_13">
<path id="Vector_22" d="M97.2592 104.165C95.5682 105.247 93.352 105.007 91.9321 103.587L81.6579 93.3133C80.8348 92.5339 80.3875 91.4311 80.3875 90.208C80.3875 87.8967 82.2862 85.9976 84.5975 85.9979C85.8206 85.9979 86.9234 86.4453 87.7028 87.2684L97.9769 97.5425C99.9078 99.4728 99.5586 102.693 97.2592 104.165V104.165Z" fill="url(#paint21_linear)"/>
<g id="Group_14">
<path id="Vector_23" d="M84.4999 94.4771C86.8616 94.4771 88.7762 92.5626 88.7762 90.2008C88.7762 87.839 86.8616 85.9244 84.4999 85.9244C82.1381 85.9244 80.2235 87.839 80.2235 90.2008C80.2235 92.5626 82.1381 94.4771 84.4999 94.4771Z" fill="url(#paint22_linear)"/>
<path id="Vector_24" d="M84.5001 92.6269C85.8412 92.6269 86.9284 91.5398 86.9284 90.1987C86.9284 88.8576 85.8412 87.7704 84.5001 87.7704C83.159 87.7704 82.0718 88.8576 82.0718 90.1987C82.0718 91.5398 83.159 92.6269 84.5001 92.6269Z" fill="url(#paint23_linear)"/>
</g>
</g>
<g id="Group_15">
<path id="Vector_25" d="M97.2592 125.969C95.5682 127.051 93.352 126.811 91.9321 125.391L81.6579 115.117C80.8348 114.338 80.3875 113.235 80.3875 112.012C80.3875 109.7 82.2862 107.801 84.5975 107.802C85.8206 107.802 86.9234 108.249 87.7028 109.072L97.9769 119.346C99.9078 121.277 99.5586 124.497 97.2592 125.969V125.969Z" fill="url(#paint24_linear)"/>
<g id="Group_16">
<path id="Vector_26" d="M84.4999 116.28C86.8616 116.28 88.7762 114.365 88.7762 112.003C88.7762 109.641 86.8616 107.727 84.4999 107.727C82.1381 107.727 80.2235 109.641 80.2235 112.003C80.2235 114.365 82.1381 116.28 84.4999 116.28Z" fill="url(#paint25_linear)"/>
<path id="Vector_27" d="M84.5001 114.429C85.8412 114.429 86.9284 113.342 86.9284 112.001C86.9284 110.66 85.8412 109.573 84.5001 109.573C83.159 109.573 82.0718 110.66 82.0718 112.001C82.0718 113.342 83.159 114.429 84.5001 114.429Z" fill="url(#paint26_linear)"/>
</g>
</g>
<g id="Group_17">
<path id="Vector_28" d="M97.2592 147.779C95.5682 148.862 93.352 148.621 91.9321 147.202L81.6579 136.928C80.8348 136.148 80.3875 135.045 80.3875 133.822C80.3875 131.511 82.2862 129.612 84.5975 129.612C85.8206 129.612 86.9234 130.06 87.7028 130.883L97.9769 141.157C99.9078 143.087 99.5586 146.308 97.2592 147.779V147.779Z" fill="url(#paint27_linear)"/>
<g id="Group_18">
<path id="Vector_29" d="M84.4999 138.09C86.8616 138.09 88.7762 136.175 88.7762 133.814C88.7762 131.452 86.8616 129.537 84.4999 129.537C82.1381 129.537 80.2235 131.452 80.2235 133.814C80.2235 136.175 82.1381 138.09 84.4999 138.09Z" fill="url(#paint28_linear)"/>
<path id="Vector_30" d="M84.5001 136.239C85.8412 136.239 86.9284 135.151 86.9284 133.81C86.9284 132.469 85.8412 131.382 84.5001 131.382C83.159 131.382 82.0718 132.469 82.0718 133.81C82.0718 135.151 83.159 136.239 84.5001 136.239Z" fill="url(#paint29_linear)"/>
</g>
</g>
</g>
</g>
<g id="Group_19">
<path id="Vector_31" d="M25.1014 73.2239L0.670032 48.7925C-0.223344 47.8992 -0.223344 46.4511 0.670032 45.5577L2.57906 43.6487C3.47244 42.7553 4.92053 42.7553 5.8139 43.6487L30.2452 68.08C31.1386 68.9734 31.1386 70.4215 30.2452 71.3149L28.3362 73.2239C27.4428 74.1173 25.9947 74.1173 25.1014 73.2239V73.2239Z" fill="url(#paint30_linear)"/>
<path id="Vector_32" d="M143.899 73.223L168.33 48.7917C169.223 47.8983 169.223 46.4502 168.33 45.5568L166.421 43.6478C165.528 42.7544 164.079 42.7544 163.186 43.6478L138.755 68.0792C137.861 68.9725 137.861 70.4206 138.755 71.314L140.664 73.223C141.557 74.1164 143.005 74.1164 143.899 73.223V73.223Z" fill="url(#paint31_linear)"/>
</g>
<path id="Vector_33" d="M135.483 160.445H33.518C32.0809 160.445 30.9158 159.28 30.9158 157.843V153.438C30.9158 152.001 32.0809 150.836 33.518 150.836H135.483C136.92 150.836 138.085 152.001 138.085 153.438V157.844C138.085 159.28 136.92 160.445 135.483 160.445Z" fill="url(#paint32_linear)"/>
<path id="Vector_34" d="M138.085 153.44V157.844C138.085 159.281 136.92 160.445 135.484 160.445H78.8077C77.4964 160.445 76.4334 159.382 76.4334 158.071V150.836H135.48C135.547 150.836 135.616 150.839 135.679 150.846C137.025 150.945 138.085 152.068 138.085 153.44Z" fill="url(#paint33_linear)"/>
<path id="Vector_35" d="M145.241 70.3448L127.085 52.1886C126.804 51.5673 126.182 51.4646 125.456 51.4646H99.0463C98.0575 51.4646 97.5876 51.9345 97.5876 52.9233V72.7191C97.5876 75.1739 98.354 77.3705 100.084 78.8498L135.68 114.445V67.8406L138.286 69.4349C140.172 71.3207 143.037 71.6199 145.241 70.3448V70.3448Z" fill="url(#paint34_linear)"/>
<path id="Vector_36" d="M119.182 80.7894H105.322C100.868 80.7894 97.257 77.1788 97.257 72.7248V52.9287C97.257 51.9399 98.0585 51.1387 99.047 51.1387H125.457C126.445 51.1387 127.247 51.9403 127.247 52.9287V72.7245C127.247 77.1788 123.636 80.7894 119.182 80.7894V80.7894Z" fill="url(#paint35_linear)"/>
</g>
<defs>
<linearGradient id="paint0_linear" x1="70.3575" y1="58.1615" x2="118.454" y2="124.687" gradientUnits="userSpaceOnUse">
<stop stop-color="#EDF5FF"/>
<stop offset="1" stop-color="#D5E8FE"/>
</linearGradient>
<linearGradient id="paint1_linear" x1="146.606" y1="46.9422" x2="129.425" y2="50.3587" gradientUnits="userSpaceOnUse">
<stop stop-color="#B5DBFF"/>
<stop offset="1" stop-color="#48B2E3"/>
</linearGradient>
<linearGradient id="paint2_linear" x1="116.668" y1="87.1062" x2="82.708" y2="93.8586" gradientUnits="userSpaceOnUse">
<stop stop-color="#B5DBFF"/>
<stop offset="1" stop-color="#48B2E3"/>
</linearGradient>
<linearGradient id="paint3_linear" x1="89.8" y1="86.9968" x2="55.1373" y2="93.8886" gradientUnits="userSpaceOnUse">
<stop stop-color="#B5DBFF"/>
<stop offset="1" stop-color="#48B2E3"/>
</linearGradient>
<linearGradient id="paint4_linear" x1="62.6842" y1="86.9968" x2="28.0215" y2="93.8886" gradientUnits="userSpaceOnUse">
<stop stop-color="#B5DBFF"/>
<stop offset="1" stop-color="#48B2E3"/>
</linearGradient>
<linearGradient id="paint5_linear" x1="35.9647" y1="88.6251" x2="1.50976" y2="95.4759" gradientUnits="userSpaceOnUse">
<stop stop-color="#B5DBFF"/>
<stop offset="1" stop-color="#48B2E3"/>
</linearGradient>
<linearGradient id="paint6_linear" x1="14.4135" y1="49.2847" x2="-2.58084" y2="52.6637" gradientUnits="userSpaceOnUse">
<stop stop-color="#B5DBFF"/>
<stop offset="1" stop-color="#48B2E3"/>
</linearGradient>
<linearGradient id="paint7_linear" x1="114.803" y1="50.6947" x2="83.8674" y2="-16.3324" gradientUnits="userSpaceOnUse">
<stop stop-color="#B5DBFF" stop-opacity="0"/>
<stop offset="0.1734" stop-color="#8FC5E9" stop-opacity="0.173"/>
<stop offset="0.4541" stop-color="#56A4C8" stop-opacity="0.454"/>
<stop offset="0.6955" stop-color="#2D8DB1" stop-opacity="0.696"/>
<stop offset="0.8853" stop-color="#147EA2" stop-opacity="0.885"/>
<stop offset="1" stop-color="#0B799D"/>
</linearGradient>
<linearGradient id="paint8_linear" x1="84.4999" y1="142.046" x2="84.4999" y2="165.351" gradientUnits="userSpaceOnUse">
<stop stop-color="#B5DBFF" stop-opacity="0"/>
<stop offset="0.1734" stop-color="#8FC5E9" stop-opacity="0.173"/>
<stop offset="0.4541" stop-color="#56A4C8" stop-opacity="0.454"/>
<stop offset="0.6955" stop-color="#2D8DB1" stop-opacity="0.696"/>
<stop offset="0.8853" stop-color="#147EA2" stop-opacity="0.885"/>
<stop offset="1" stop-color="#0B799D"/>
</linearGradient>
<linearGradient id="paint9_linear" x1="96.655" y1="86.7197" x2="7.52476" y2="104.441" gradientUnits="userSpaceOnUse">
<stop stop-color="#B5DBFF" stop-opacity="0"/>
<stop offset="0.1734" stop-color="#8FC5E9" stop-opacity="0.173"/>
<stop offset="0.4541" stop-color="#56A4C8" stop-opacity="0.454"/>
<stop offset="0.6955" stop-color="#2D8DB1" stop-opacity="0.696"/>
<stop offset="0.8853" stop-color="#147EA2" stop-opacity="0.885"/>
<stop offset="1" stop-color="#0B799D"/>
</linearGradient>
<linearGradient id="paint10_linear" x1="84.4996" y1="9.2101" x2="84.4996" y2="19.0197" gradientUnits="userSpaceOnUse">
<stop stop-color="#EDF5FF"/>
<stop offset="1" stop-color="#B5DBFF"/>
</linearGradient>
<linearGradient id="paint11_linear" x1="66.363" y1="24.1847" x2="69.5889" y2="31.9268" gradientUnits="userSpaceOnUse">
<stop stop-color="#EDF5FF"/>
<stop offset="1" stop-color="#D5E8FE"/>
</linearGradient>
<linearGradient id="paint12_linear" x1="98.9502" y1="21.8453" x2="108.514" y2="31.409" gradientUnits="userSpaceOnUse">
<stop stop-color="#EDF5FF"/>
<stop offset="1" stop-color="#D5E8FE"/>
</linearGradient>
<linearGradient id="paint13_linear" x1="17.7812" y1="45.6874" x2="17.7812" y2="93.4393" gradientUnits="userSpaceOnUse">
<stop stop-color="#B5DBFF" stop-opacity="0"/>
<stop offset="0.1734" stop-color="#8FC5E9" stop-opacity="0.173"/>
<stop offset="0.4541" stop-color="#56A4C8" stop-opacity="0.454"/>
<stop offset="0.6955" stop-color="#2D8DB1" stop-opacity="0.696"/>
<stop offset="0.8853" stop-color="#147EA2" stop-opacity="0.885"/>
<stop offset="1" stop-color="#0B799D"/>
</linearGradient>
<linearGradient id="paint14_linear" x1="151.218" y1="45.6874" x2="151.218" y2="93.4393" gradientUnits="userSpaceOnUse">
<stop stop-color="#B5DBFF" stop-opacity="0"/>
<stop offset="0.1734" stop-color="#8FC5E9" stop-opacity="0.173"/>
<stop offset="0.4541" stop-color="#56A4C8" stop-opacity="0.454"/>
<stop offset="0.6955" stop-color="#2D8DB1" stop-opacity="0.696"/>
<stop offset="0.8853" stop-color="#147EA2" stop-opacity="0.885"/>
<stop offset="1" stop-color="#0B799D"/>
</linearGradient>
<linearGradient id="paint15_linear" x1="93.7896" y1="55.7824" x2="78.2645" y2="40.2573" gradientUnits="userSpaceOnUse">
<stop stop-color="#B5DBFF" stop-opacity="0"/>
<stop offset="0.1734" stop-color="#8FC5E9" stop-opacity="0.173"/>
<stop offset="0.4541" stop-color="#56A4C8" stop-opacity="0.454"/>
<stop offset="0.6955" stop-color="#2D8DB1" stop-opacity="0.696"/>
<stop offset="0.8853" stop-color="#147EA2" stop-opacity="0.885"/>
<stop offset="1" stop-color="#0B799D"/>
</linearGradient>
<linearGradient id="paint16_linear" x1="83.2804" y1="45.3624" x2="85.3077" y2="47.3894" gradientUnits="userSpaceOnUse">
<stop stop-color="#0B799D"/>
<stop offset="1" stop-color="#07485E"/>
</linearGradient>
<linearGradient id="paint17_linear" x1="85.1922" y1="47.2716" x2="84.041" y2="46.1204" gradientUnits="userSpaceOnUse">
<stop stop-color="#0B799D"/>
<stop offset="1" stop-color="#07485E"/>
</linearGradient>
<linearGradient id="paint18_linear" x1="93.7897" y1="77.5915" x2="78.2647" y2="62.0664" gradientUnits="userSpaceOnUse">
<stop stop-color="#B5DBFF" stop-opacity="0"/>
<stop offset="0.1734" stop-color="#8FC5E9" stop-opacity="0.173"/>
<stop offset="0.4541" stop-color="#56A4C8" stop-opacity="0.454"/>
<stop offset="0.6955" stop-color="#2D8DB1" stop-opacity="0.696"/>
<stop offset="0.8853" stop-color="#147EA2" stop-opacity="0.885"/>
<stop offset="1" stop-color="#0B799D"/>
</linearGradient>
<linearGradient id="paint19_linear" x1="83.2804" y1="67.1719" x2="85.3077" y2="69.1989" gradientUnits="userSpaceOnUse">
<stop stop-color="#0B799D"/>
<stop offset="1" stop-color="#07485E"/>
</linearGradient>
<linearGradient id="paint20_linear" x1="85.1923" y1="69.0827" x2="84.0411" y2="67.9315" gradientUnits="userSpaceOnUse">
<stop stop-color="#0B799D"/>
<stop offset="1" stop-color="#07485E"/>
</linearGradient>
<linearGradient id="paint21_linear" x1="93.7897" y1="99.3996" x2="78.2647" y2="83.8745" gradientUnits="userSpaceOnUse">
<stop stop-color="#B5DBFF" stop-opacity="0"/>
<stop offset="0.1734" stop-color="#8FC5E9" stop-opacity="0.173"/>
<stop offset="0.4541" stop-color="#56A4C8" stop-opacity="0.454"/>
<stop offset="0.6955" stop-color="#2D8DB1" stop-opacity="0.696"/>
<stop offset="0.8853" stop-color="#147EA2" stop-opacity="0.885"/>
<stop offset="1" stop-color="#0B799D"/>
</linearGradient>
<linearGradient id="paint22_linear" x1="83.2804" y1="88.9813" x2="85.3077" y2="91.0083" gradientUnits="userSpaceOnUse">
<stop stop-color="#0B799D"/>
<stop offset="1" stop-color="#07485E"/>
</linearGradient>
<linearGradient id="paint23_linear" x1="85.1923" y1="90.8909" x2="84.0411" y2="89.7397" gradientUnits="userSpaceOnUse">
<stop stop-color="#0B799D"/>
<stop offset="1" stop-color="#07485E"/>
</linearGradient>
<linearGradient id="paint24_linear" x1="93.7897" y1="121.203" x2="78.2647" y2="105.678" gradientUnits="userSpaceOnUse">
<stop stop-color="#B5DBFF" stop-opacity="0"/>
<stop offset="0.1734" stop-color="#8FC5E9" stop-opacity="0.173"/>
<stop offset="0.4541" stop-color="#56A4C8" stop-opacity="0.454"/>
<stop offset="0.6955" stop-color="#2D8DB1" stop-opacity="0.696"/>
<stop offset="0.8853" stop-color="#147EA2" stop-opacity="0.885"/>
<stop offset="1" stop-color="#0B799D"/>
</linearGradient>
<linearGradient id="paint25_linear" x1="83.2804" y1="110.784" x2="85.3077" y2="112.811" gradientUnits="userSpaceOnUse">
<stop stop-color="#0B799D"/>
<stop offset="1" stop-color="#07485E"/>
</linearGradient>
<linearGradient id="paint26_linear" x1="85.1923" y1="112.693" x2="84.0411" y2="111.542" gradientUnits="userSpaceOnUse">
<stop stop-color="#0B799D"/>
<stop offset="1" stop-color="#07485E"/>
</linearGradient>
<linearGradient id="paint27_linear" x1="93.7897" y1="143.014" x2="78.2647" y2="127.489" gradientUnits="userSpaceOnUse">
<stop stop-color="#B5DBFF" stop-opacity="0"/>
<stop offset="0.1734" stop-color="#8FC5E9" stop-opacity="0.173"/>
<stop offset="0.4541" stop-color="#56A4C8" stop-opacity="0.454"/>
<stop offset="0.6955" stop-color="#2D8DB1" stop-opacity="0.696"/>
<stop offset="0.8853" stop-color="#147EA2" stop-opacity="0.885"/>
<stop offset="1" stop-color="#0B799D"/>
</linearGradient>
<linearGradient id="paint28_linear" x1="83.2804" y1="132.594" x2="85.3077" y2="134.622" gradientUnits="userSpaceOnUse">
<stop stop-color="#0B799D"/>
<stop offset="1" stop-color="#07485E"/>
</linearGradient>
<linearGradient id="paint29_linear" x1="85.1923" y1="134.503" x2="84.0411" y2="133.352" gradientUnits="userSpaceOnUse">
<stop stop-color="#0B799D"/>
<stop offset="1" stop-color="#07485E"/>
</linearGradient>
<linearGradient id="paint30_linear" x1="16.9973" y1="56.8966" x2="13.7125" y2="60.1814" gradientUnits="userSpaceOnUse">
<stop stop-color="#EDF5FF"/>
<stop offset="1" stop-color="#D5E8FE"/>
</linearGradient>
<linearGradient id="paint31_linear" x1="152.003" y1="56.8957" x2="155.288" y2="60.1806" gradientUnits="userSpaceOnUse">
<stop stop-color="#EDF5FF"/>
<stop offset="1" stop-color="#D5E8FE"/>
</linearGradient>
<linearGradient id="paint32_linear" x1="84.5005" y1="153.434" x2="84.5005" y2="160.607" gradientUnits="userSpaceOnUse">
<stop stop-color="#EDF5FF"/>
<stop offset="1" stop-color="#D5E8FE"/>
</linearGradient>
<linearGradient id="paint33_linear" x1="107.226" y1="154.691" x2="104.354" y2="177.886" gradientUnits="userSpaceOnUse">
<stop stop-color="#B5DBFF" stop-opacity="0"/>
<stop offset="0.2428" stop-color="#93CEF6" stop-opacity="0.243"/>
<stop offset="0.5763" stop-color="#6ABFEC" stop-opacity="0.576"/>
<stop offset="0.8403" stop-color="#51B5E5" stop-opacity="0.84"/>
<stop offset="1" stop-color="#48B2E3"/>
</linearGradient>
<linearGradient id="paint34_linear" x1="128.104" y1="81.7433" x2="88.3549" y2="64.5902" gradientUnits="userSpaceOnUse">
<stop stop-color="#B5DBFF" stop-opacity="0"/>
<stop offset="0.1734" stop-color="#8FC5E9" stop-opacity="0.173"/>
<stop offset="0.4541" stop-color="#56A4C8" stop-opacity="0.454"/>
<stop offset="0.6955" stop-color="#2D8DB1" stop-opacity="0.696"/>
<stop offset="0.8853" stop-color="#147EA2" stop-opacity="0.885"/>
<stop offset="1" stop-color="#0B799D"/>
</linearGradient>
<linearGradient id="paint35_linear" x1="105.547" y1="52.0039" x2="120.79" y2="78.5136" gradientUnits="userSpaceOnUse">
<stop stop-color="#EDF5FF"/>
<stop offset="1" stop-color="#D5E8FE"/>
</linearGradient>
</defs>
</svg>
