<svg width="169" height="170" viewBox="0 0 169 170" fill="none" xmlns="http://www.w3.org/2000/svg">
<g id="raincoat" clip-path="url(#clip0)">
<g id="Group">
<g id="SVGCleanerId 0 1">
<path d="M159.349 109.432L117.415 67.4976C116.211 66.2942 115.087 65.0165 113.986 63.7185C112.447 61.9044 110.611 60.3526 108.556 59.1357C107.459 58.4862 107.204 57.0103 108.056 56.0627C113.823 49.6494 117.374 40.9012 117.374 31.2567C117.374 11.5843 102.604 0.0600586 84.3845 0.0600586C66.1648 0.0600586 51.3946 11.5843 51.3946 31.2567C51.3946 40.9015 54.946 49.6494 60.7128 56.0627C61.5649 57.0103 61.3097 58.4865 60.2129 59.1357C58.1576 60.3526 56.322 61.9044 54.783 63.7185C53.682 65.0165 52.5573 66.2942 51.3539 67.4976L9.41983 109.432C7.91344 110.938 7.91344 113.381 9.41983 114.887L23.1867 128.654C24.6931 130.16 27.1352 130.16 28.6416 128.654L48.2665 109.029L46.0627 157.62C45.9045 161.107 48.6886 164.02 52.1788 164.02H116.591C120.081 164.02 122.865 161.107 122.707 157.62L120.503 109.029L140.128 128.654C141.634 130.16 144.076 130.16 145.583 128.654L159.35 114.887C160.856 113.381 160.856 110.938 159.349 109.432Z" fill="url(#paint0_linear)"/>
<path d="M159.349 109.432L117.415 67.4976C116.211 66.2942 115.087 65.0165 113.986 63.7185C112.447 61.9044 110.611 60.3526 108.556 59.1357C107.459 58.4862 107.204 57.0103 108.056 56.0627C113.823 49.6494 117.374 40.9012 117.374 31.2567C117.374 11.5843 102.604 0.0600586 84.3845 0.0600586C66.1648 0.0600586 51.3946 11.5843 51.3946 31.2567C51.3946 40.9015 54.946 49.6494 60.7128 56.0627C61.5649 57.0103 61.3097 58.4865 60.2129 59.1357C58.1576 60.3526 56.322 61.9044 54.783 63.7185C53.682 65.0165 52.5573 66.2942 51.3539 67.4976L9.41983 109.432C7.91344 110.938 7.91344 113.381 9.41983 114.887L23.1867 128.654C24.6931 130.16 27.1352 130.16 28.6416 128.654L48.2665 109.029L46.0627 157.62C45.9045 161.107 48.6886 164.02 52.1788 164.02H116.591C120.081 164.02 122.865 161.107 122.707 157.62L120.503 109.029L140.128 128.654C141.634 130.16 144.076 130.16 145.583 128.654L159.35 114.887C160.856 113.381 160.856 110.938 159.349 109.432Z" fill="url(#paint1_linear)" style="mix-blend-mode:multiply"/>
</g>
<g id="Vector 4">
<path d="M48.6957 108.916L50.489 67.9257L7.44946 111.221L26.5355 130.712L48.6957 108.916Z" fill="url(#paint2_linear)" style="mix-blend-mode:multiply"/>
</g>
<g id="Vector 5">
<path d="M120.304 108.916L118.511 67.9257L161.551 111.221L142.465 130.712L120.304 108.916Z" fill="url(#paint3_linear)" style="mix-blend-mode:multiply"/>
</g>
</g>
<path id="Vector" opacity="0.1" d="M47.9855 115.169L46.0599 157.622C45.9017 161.108 48.6858 164.022 52.1761 164.022H116.588C120.078 164.022 122.862 161.108 122.704 157.622L120.778 115.169H47.9855Z" fill="black"/>
<g id="Vector_2">
<g filter="url(#filter0_i)">
<path d="M104.193 32.1403C104.193 20.3268 95.3234 13.4062 84.3819 13.4062C73.4405 13.4062 64.5709 20.3268 64.5709 32.1403C64.5709 43.9538 73.4405 53.5304 84.3819 53.5304C95.3234 53.5304 104.193 43.9538 104.193 32.1403Z" fill="url(#paint4_linear)"/>
</g>
<path d="M104.193 32.1403C104.193 20.3268 95.3234 13.4062 84.3819 13.4062C73.4405 13.4062 64.5709 20.3268 64.5709 32.1403C64.5709 43.9538 73.4405 53.5304 84.3819 53.5304C95.3234 53.5304 104.193 43.9538 104.193 32.1403Z" stroke="url(#paint5_linear)" stroke-width="0.2"/>
</g>
<g id="Group_2">
<g id="Vector_3" filter="url(#filter1_d)">
<path d="M27.9041 105.861L24.5022 109.262C23.3897 110.375 21.5858 110.375 20.4733 109.262L13.4375 102.227C12.325 101.114 12.325 99.3101 13.4375 98.1977L16.8393 94.7958C17.9518 93.6833 19.7557 93.6833 20.8682 94.7958L27.9041 101.832C29.0166 102.944 29.0166 104.748 27.9041 105.861Z" fill="url(#paint6_linear)"/>
</g>
<g id="Vector_4" filter="url(#filter2_d)">
<path d="M140.864 105.86L144.266 109.262C145.379 110.375 147.183 110.375 148.295 109.262L155.331 102.226C156.443 101.114 156.443 99.31 155.331 98.1975L151.929 94.7957C150.817 93.6832 149.013 93.6832 147.9 94.7957L140.864 101.832C139.752 102.944 139.752 104.748 140.864 105.86Z" fill="url(#paint7_linear)"/>
</g>
</g>
<g id="Vector_5" filter="url(#filter3_i)">
<path d="M84.3833 66.7412C83.0569 66.7412 81.9815 67.8162 81.9815 69.143V164.024H86.785V69.143C86.785 67.8162 85.7097 66.7412 84.3833 66.7412Z" fill="#AA4B35"/>
</g>
<g id="Group_3">
<g id="Vector_6" filter="url(#filter4_d)">
<path d="M61.8831 145.969C61.6096 145.969 61.3316 145.922 61.0601 145.823C59.814 145.368 59.1723 143.99 59.627 142.744L66.4019 124.176C66.8566 122.93 68.2359 122.289 69.4816 122.743C70.7276 123.197 71.3694 124.576 70.9146 125.822L64.1397 144.39C63.784 145.364 62.8633 145.969 61.8831 145.969Z" fill="url(#paint8_linear)"/>
</g>
<g id="Vector_7" filter="url(#filter5_d)">
<path d="M106.879 145.963C105.898 145.963 104.978 145.358 104.623 144.383L97.8478 125.815C97.3933 124.569 98.0348 123.191 99.2808 122.736C100.527 122.281 101.906 122.923 102.361 124.169L109.135 142.737C109.59 143.983 108.948 145.362 107.702 145.817C107.43 145.916 107.153 145.963 106.879 145.963Z" fill="url(#paint9_linear)"/>
</g>
</g>
<g id="Group_4">
<g id="Vector_8" filter="url(#filter6_d)">
<path d="M68.4536 86.9721C67.1272 86.9721 66.0519 85.897 66.0519 84.5703V69.143C66.0519 67.8162 67.1272 66.7412 68.4536 66.7412C69.7801 66.7412 70.8554 67.8162 70.8554 69.143V84.5703C70.8554 85.8967 69.7801 86.9721 68.4536 86.9721Z" fill="url(#paint10_linear)"/>
</g>
<g id="Vector_9" filter="url(#filter7_d)">
<path d="M100.309 86.9724C98.9823 86.9724 97.907 85.8974 97.907 84.5707V69.1433C97.907 67.8166 98.9823 66.7416 100.309 66.7416C101.635 66.7416 102.711 67.8166 102.711 69.1433V84.5707C102.711 85.8971 101.635 86.9724 100.309 86.9724Z" fill="url(#paint11_linear)"/>
</g>
</g>
<g id="Vector_10" filter="url(#filter8_d)">
<path d="M49.3378 163.703V167.345C49.2943 168.187 50.5309 168.888 52.0997 168.912L115.973 169.059C117.541 169.083 118.848 168.419 118.892 167.577V163.959C118.935 163.117 117.832 163.459 116.263 163.436L52.39 163.288C50.8213 163.265 49.3813 162.861 49.3378 163.703Z" fill="url(#paint12_linear)"/>
</g>
</g>
<defs>
<filter id="filter0_i" x="64.4709" y="13.3063" width="39.822" height="41.3241" filterUnits="userSpaceOnUse" color-interpolation-filters="sRGB">
<feFlood flood-opacity="0" result="BackgroundImageFix"/>
<feBlend mode="normal" in="SourceGraphic" in2="BackgroundImageFix" result="shape"/>
<feColorMatrix in="SourceAlpha" type="matrix" values="0 0 0 0 0 0 0 0 0 0 0 0 0 0 0 0 0 0 127 0" result="hardAlpha"/>
<feOffset dy="1"/>
<feGaussianBlur stdDeviation="0.5"/>
<feComposite in2="hardAlpha" operator="arithmetic" k2="-1" k3="1"/>
<feColorMatrix type="matrix" values="0 0 0 0 0.772772 0 0 0 0 0.139099 0 0 0 0 0 0 0 0 0.45 0"/>
<feBlend mode="normal" in2="shape" result="effect1_innerShadow"/>
</filter>
<filter id="filter1_d" x="10.6031" y="92.9614" width="20.1353" height="20.1353" filterUnits="userSpaceOnUse" color-interpolation-filters="sRGB">
<feFlood flood-opacity="0" result="BackgroundImageFix"/>
<feColorMatrix in="SourceAlpha" type="matrix" values="0 0 0 0 0 0 0 0 0 0 0 0 0 0 0 0 0 0 127 0"/>
<feOffset dy="1"/>
<feGaussianBlur stdDeviation="1"/>
<feColorMatrix type="matrix" values="0 0 0 0 0 0 0 0 0 0 0 0 0 0 0 0 0 0 0.19 0"/>
<feBlend mode="normal" in2="BackgroundImageFix" result="effect1_dropShadow"/>
<feBlend mode="normal" in="SourceGraphic" in2="effect1_dropShadow" result="shape"/>
</filter>
<filter id="filter2_d" x="138.03" y="92.9613" width="20.1353" height="20.1353" filterUnits="userSpaceOnUse" color-interpolation-filters="sRGB">
<feFlood flood-opacity="0" result="BackgroundImageFix"/>
<feColorMatrix in="SourceAlpha" type="matrix" values="0 0 0 0 0 0 0 0 0 0 0 0 0 0 0 0 0 0 127 0"/>
<feOffset dy="1"/>
<feGaussianBlur stdDeviation="1"/>
<feColorMatrix type="matrix" values="0 0 0 0 0 0 0 0 0 0 0 0 0 0 0 0 0 0 0.19 0"/>
<feBlend mode="normal" in2="BackgroundImageFix" result="effect1_dropShadow"/>
<feBlend mode="normal" in="SourceGraphic" in2="effect1_dropShadow" result="shape"/>
</filter>
<filter id="filter3_i" x="81.9815" y="66.7412" width="5.10352" height="97.5831" filterUnits="userSpaceOnUse" color-interpolation-filters="sRGB">
<feFlood flood-opacity="0" result="BackgroundImageFix"/>
<feBlend mode="normal" in="SourceGraphic" in2="BackgroundImageFix" result="shape"/>
<feColorMatrix in="SourceAlpha" type="matrix" values="0 0 0 0 0 0 0 0 0 0 0 0 0 0 0 0 0 0 127 0" result="hardAlpha"/>
<feOffset dx="0.3" dy="0.3"/>
<feGaussianBlur stdDeviation="0.15"/>
<feComposite in2="hardAlpha" operator="arithmetic" k2="-1" k3="1"/>
<feColorMatrix type="matrix" values="0 0 0 0 0 0 0 0 0 0 0 0 0 0 0 0 0 0 0.15 0"/>
<feBlend mode="normal" in2="shape" result="effect1_innerShadow"/>
</filter>
<filter id="filter4_d" x="57.4808" y="121.597" width="15.58" height="27.3724" filterUnits="userSpaceOnUse" color-interpolation-filters="sRGB">
<feFlood flood-opacity="0" result="BackgroundImageFix"/>
<feColorMatrix in="SourceAlpha" type="matrix" values="0 0 0 0 0 0 0 0 0 0 0 0 0 0 0 0 0 0 127 0"/>
<feOffset dy="1"/>
<feGaussianBlur stdDeviation="1"/>
<feColorMatrix type="matrix" values="0 0 0 0 0 0 0 0 0 0 0 0 0 0 0 0 0 0 0.19 0"/>
<feBlend mode="normal" in2="BackgroundImageFix" result="effect1_dropShadow"/>
<feBlend mode="normal" in="SourceGraphic" in2="effect1_dropShadow" result="shape"/>
</filter>
<filter id="filter5_d" x="95.7017" y="121.59" width="15.5797" height="27.3729" filterUnits="userSpaceOnUse" color-interpolation-filters="sRGB">
<feFlood flood-opacity="0" result="BackgroundImageFix"/>
<feColorMatrix in="SourceAlpha" type="matrix" values="0 0 0 0 0 0 0 0 0 0 0 0 0 0 0 0 0 0 127 0"/>
<feOffset dy="1"/>
<feGaussianBlur stdDeviation="1"/>
<feColorMatrix type="matrix" values="0 0 0 0 0 0 0 0 0 0 0 0 0 0 0 0 0 0 0.19 0"/>
<feBlend mode="normal" in2="BackgroundImageFix" result="effect1_dropShadow"/>
<feBlend mode="normal" in="SourceGraphic" in2="effect1_dropShadow" result="shape"/>
</filter>
<filter id="filter6_d" x="65.0519" y="66.0412" width="6.80352" height="22.2309" filterUnits="userSpaceOnUse" color-interpolation-filters="sRGB">
<feFlood flood-opacity="0" result="BackgroundImageFix"/>
<feColorMatrix in="SourceAlpha" type="matrix" values="0 0 0 0 0 0 0 0 0 0 0 0 0 0 0 0 0 0 127 0"/>
<feOffset dy="0.3"/>
<feGaussianBlur stdDeviation="0.5"/>
<feColorMatrix type="matrix" values="0 0 0 0 0 0 0 0 0 0 0 0 0 0 0 0 0 0 0.55 0"/>
<feBlend mode="normal" in2="BackgroundImageFix" result="effect1_dropShadow"/>
<feBlend mode="normal" in="SourceGraphic" in2="effect1_dropShadow" result="shape"/>
</filter>
<filter id="filter7_d" x="96.907" y="66.0416" width="6.80352" height="22.2309" filterUnits="userSpaceOnUse" color-interpolation-filters="sRGB">
<feFlood flood-opacity="0" result="BackgroundImageFix"/>
<feColorMatrix in="SourceAlpha" type="matrix" values="0 0 0 0 0 0 0 0 0 0 0 0 0 0 0 0 0 0 127 0"/>
<feOffset dy="0.3"/>
<feGaussianBlur stdDeviation="0.5"/>
<feColorMatrix type="matrix" values="0 0 0 0 0 0 0 0 0 0 0 0 0 0 0 0 0 0 0.55 0"/>
<feBlend mode="normal" in2="BackgroundImageFix" result="effect1_dropShadow"/>
<feBlend mode="normal" in="SourceGraphic" in2="effect1_dropShadow" result="shape"/>
</filter>
<filter id="filter8_d" x="47.3367" y="162.171" width="73.5565" height="9.88928" filterUnits="userSpaceOnUse" color-interpolation-filters="sRGB">
<feFlood flood-opacity="0" result="BackgroundImageFix"/>
<feColorMatrix in="SourceAlpha" type="matrix" values="0 0 0 0 0 0 0 0 0 0 0 0 0 0 0 0 0 0 127 0"/>
<feOffset dy="1"/>
<feGaussianBlur stdDeviation="1"/>
<feColorMatrix type="matrix" values="0 0 0 0 0 0 0 0 0 0 0 0 0 0 0 0 0 0 0.19 0"/>
<feBlend mode="normal" in2="BackgroundImageFix" result="effect1_dropShadow"/>
<feBlend mode="normal" in="SourceGraphic" in2="effect1_dropShadow" result="shape"/>
</filter>
<linearGradient id="paint0_linear" x1="84.3845" y1="0.0600586" x2="84.3845" y2="164.02" gradientUnits="userSpaceOnUse">
<stop offset="0.373943" stop-color="#FC8063"/>
<stop offset="1" stop-color="#FF562E"/>
</linearGradient>
<linearGradient id="paint1_linear" x1="160.479" y1="104.308" x2="84.3845" y2="82.04" gradientUnits="userSpaceOnUse">
<stop offset="0.249839" stop-color="#B59C9C"/>
<stop offset="1" stop-color="white" stop-opacity="0"/>
</linearGradient>
<linearGradient id="paint2_linear" x1="56.5665" y1="103.792" x2="41.7787" y2="98.4325" gradientUnits="userSpaceOnUse">
<stop offset="0.406752" stop-color="#C4C4C4"/>
<stop offset="1" stop-color="#C4C4C4" stop-opacity="0"/>
</linearGradient>
<linearGradient id="paint3_linear" x1="112.434" y1="103.792" x2="127.221" y2="98.4325" gradientUnits="userSpaceOnUse">
<stop offset="0.406752" stop-color="#C4C4C4"/>
<stop offset="1" stop-color="#C4C4C4" stop-opacity="0"/>
</linearGradient>
<linearGradient id="paint4_linear" x1="84.3819" y1="13.4062" x2="84.3819" y2="53.5304" gradientUnits="userSpaceOnUse">
<stop stop-color="#612300"/>
<stop offset="1" stop-color="#9F2600"/>
</linearGradient>
<linearGradient id="paint5_linear" x1="84.3819" y1="13.4062" x2="84.3819" y2="53.5304" gradientUnits="userSpaceOnUse">
<stop stop-color="#FFC4B6"/>
<stop offset="1" stop-color="#FF957D"/>
</linearGradient>
<linearGradient id="paint6_linear" x1="20.6708" y1="93.9614" x2="20.6708" y2="110.097" gradientUnits="userSpaceOnUse">
<stop offset="0.280193" stop-color="#FAD97E"/>
<stop offset="1" stop-color="#FF9314"/>
</linearGradient>
<linearGradient id="paint7_linear" x1="148.098" y1="93.9613" x2="148.098" y2="110.097" gradientUnits="userSpaceOnUse">
<stop offset="0.280193" stop-color="#FAD97E"/>
<stop offset="1" stop-color="#FF9314"/>
</linearGradient>
<linearGradient id="paint8_linear" x1="65.2708" y1="122.597" x2="65.2708" y2="145.969" gradientUnits="userSpaceOnUse">
<stop offset="0.280193" stop-color="#FAD97E"/>
<stop offset="1" stop-color="#FF9314"/>
</linearGradient>
<linearGradient id="paint9_linear" x1="103.492" y1="122.59" x2="103.492" y2="145.963" gradientUnits="userSpaceOnUse">
<stop offset="0.280193" stop-color="#FAD97E"/>
<stop offset="1" stop-color="#FF9314"/>
</linearGradient>
<linearGradient id="paint10_linear" x1="68.4536" y1="66.7412" x2="68.4536" y2="86.9721" gradientUnits="userSpaceOnUse">
<stop stop-color="#929292"/>
<stop offset="1" stop-color="#4A5058"/>
</linearGradient>
<linearGradient id="paint11_linear" x1="100.309" y1="66.7416" x2="100.309" y2="86.9724" gradientUnits="userSpaceOnUse">
<stop stop-color="#929292"/>
<stop offset="1" stop-color="#4A5058"/>
</linearGradient>
<linearGradient id="paint12_linear" x1="63.0518" y1="162.907" x2="57.6571" y2="172.417" gradientUnits="userSpaceOnUse">
<stop offset="0.280193" stop-color="#FAD97E"/>
<stop offset="1" stop-color="#FF9314"/>
</linearGradient>
<clipPath id="clip0">
<rect width="169" height="169" fill="white" transform="translate(0 0.0600586)"/>
</clipPath>
</defs>
</svg>
