<svg width="169" height="170" viewBox="0 0 169 170" fill="none" xmlns="http://www.w3.org/2000/svg">
<g id="scarf" clip-path="url(#clip0)">
<g id="Group">
<path id="Vector" d="M86.4079 109.034C85.0354 109.034 83.9226 110.147 83.9226 111.519V147.44C83.9226 148.813 85.0354 149.925 86.4079 149.925C87.7805 149.925 88.8932 148.813 88.8932 147.44V111.519C88.8932 110.147 87.7805 109.034 86.4079 109.034Z" fill="url(#paint0_linear)"/>
<path id="Vector_2" d="M98.496 109.035C97.1235 109.035 96.0107 110.147 96.0107 111.52V146.765C96.0107 148.137 97.1235 149.25 98.496 149.25C99.8686 149.25 100.981 148.137 100.981 146.765V111.52C100.981 110.147 99.8686 109.035 98.496 109.035Z" fill="url(#paint1_linear)"/>
</g>
<path id="Vector_3" d="M110.325 134.365H89.509C84.3638 134.365 80.1928 130.194 80.1928 125.049V60.1246H110.325V134.365Z" fill="url(#paint2_linear)"/>
<path id="Vector_4" d="M110.325 60.1246V134.365H95.9926V88.4408C95.9926 85.2934 93.3904 82.7544 90.245 82.8658C88.4261 82.9301 86.5949 82.9629 84.7525 82.9629C83.2248 82.9629 81.7038 82.9397 80.1928 82.8933V60.1246H110.325Z" fill="url(#paint3_linear)"/>
<g id="Group_2">
<path id="Vector_5" d="M107.839 128.17C106.467 128.17 105.354 129.282 105.354 130.655V166.576C105.354 167.948 106.467 169.061 107.839 169.061C109.212 169.061 110.325 167.948 110.325 166.576V130.655C110.325 129.282 109.212 128.17 107.839 128.17Z" fill="url(#paint4_linear)"/>
<path id="Vector_6" d="M119.925 128.169C118.552 128.169 117.439 129.282 117.439 130.654V165.899C117.439 167.272 118.552 168.385 119.925 168.385C121.297 168.385 122.41 167.272 122.41 165.899V130.654C122.41 129.282 121.297 128.169 119.925 128.169Z" fill="url(#paint5_linear)"/>
<path id="Vector_7" d="M132.015 128.169C130.642 128.169 129.529 129.282 129.529 130.654V157.376C129.529 158.749 130.642 159.862 132.015 159.862C133.387 159.862 134.5 158.749 134.5 157.376V130.654C134.5 129.282 133.387 128.169 132.015 128.169Z" fill="url(#paint6_linear)"/>
<path id="Vector_8" d="M144.104 128.169C142.732 128.169 141.619 129.282 141.619 130.654V147.551C141.619 148.924 142.732 150.036 144.104 150.036C145.477 150.036 146.59 148.924 146.59 147.551V130.654C146.59 129.282 145.477 128.169 144.104 128.169Z" fill="url(#paint7_linear)"/>
<path id="Vector_9" d="M156.188 128.169C154.815 128.169 153.702 129.282 153.702 130.654V146.077C153.702 147.449 154.815 148.562 156.188 148.562C157.56 148.562 158.673 147.449 158.673 146.077V130.654C158.673 129.282 157.56 128.169 156.188 128.169Z" fill="url(#paint8_linear)"/>
</g>
<path id="Vector_10" d="M104.278 48.3004V150.231C104.278 153.34 106.425 155.861 109.073 155.861H113.982C121.192 155.861 128.03 152.107 132.653 145.611C137.276 139.116 144.115 135.361 151.325 135.361H154.949C157.598 135.361 159.745 132.84 159.745 129.731V48.3004H104.278Z" fill="url(#paint9_linear)"/>
<path id="Vector_11" d="M159.745 48.3007V129.729C159.745 132.841 157.598 135.362 154.95 135.362H151.325C147.72 135.362 144.207 136.3 141.019 138.053C137.832 139.803 134.968 142.364 132.655 145.612C128.033 152.107 121.193 155.861 113.983 155.861H109.075C108.15 155.861 107.289 155.556 106.56 155.026C111.534 153.585 116.047 150.317 119.394 145.612C121.707 142.364 124.57 139.803 127.758 138.053C130.946 136.3 134.458 135.362 138.063 135.362H141.689C144.336 135.362 146.484 132.841 146.484 129.729V98.2327C146.484 84.9662 133.993 75.2593 121.133 78.5183C115.711 79.8925 110.079 80.9682 104.28 81.7161V48.3004H159.745V48.3007Z" fill="url(#paint10_linear)"/>
<path id="Vector_12" d="M154.949 104.069H151.325C144.115 104.069 137.276 107.823 132.653 114.319C128.03 120.815 121.192 124.569 113.982 124.569H109.073C106.425 124.569 104.278 122.048 104.278 118.938V136.995C104.278 140.105 106.425 142.626 109.073 142.626H113.982C121.192 142.626 128.03 138.872 132.653 132.376C137.276 125.88 144.115 122.126 151.325 122.126H154.949C157.598 122.126 159.745 119.605 159.745 116.495V98.438C159.745 101.548 157.598 104.069 154.949 104.069V104.069Z" fill="url(#paint11_linear)"/>
<path id="Vector_13" d="M154.949 90.4364H151.325C144.115 90.4364 137.276 94.1905 132.653 100.686C128.03 107.182 121.192 110.936 113.982 110.936H109.073C106.425 110.936 104.278 108.415 104.278 105.306V112.695C104.278 115.805 106.425 118.326 109.073 118.326H113.982C121.192 118.326 128.03 114.572 132.653 108.076C137.276 101.58 144.115 97.826 151.325 97.826H154.949C157.598 97.826 159.745 95.3049 159.745 92.1953V84.8057C159.745 87.9156 157.598 90.4364 154.949 90.4364V90.4364Z" fill="url(#paint12_linear)"/>
<g id="Group_3">
<path id="Vector_14" d="M162.654 26.1089C167.331 20.6704 167.863 12.7327 163.796 6.82463C159.711 0.889076 153.938 -1.67542 148.205 1.30926C130.561 10.4966 108.583 15.947 84.7506 15.947C60.9186 15.947 38.94 10.4966 21.2957 1.30926C15.5712 -1.67144 9.80632 0.882118 5.72116 6.79978C4.14747 9.07929 4.01956 12.0616 5.32483 14.5049C6.81137 17.2874 5.77484 20.7479 3.0039 22.2557C1.17538 23.2505 0.027504 25.1559 0.00331373 27.2372C0.000994119 27.4201 0 27.603 0 27.787C0 38.9751 3.99967 49.0995 10.1619 53.3557C29.2271 66.5245 55.6044 74.6752 84.7506 74.6752C113.897 74.6752 140.274 66.5245 159.339 53.3557C164.169 50.0201 167.668 43.0795 168.956 34.8475C169.321 32.5117 167.365 30.4631 165.011 30.6795C162.529 30.9078 161.029 27.9994 162.654 26.1089V26.1089Z" fill="url(#paint13_linear)"/>
<g id="Group_4">
<path id="Vector_15" d="M165.009 30.6793C164.917 30.6893 164.824 30.6926 164.734 30.6926C164.622 30.6926 164.512 30.6859 164.406 30.6727C162.299 30.4275 161.162 27.8428 162.653 26.1097C167.329 20.6718 167.863 12.7321 163.797 6.82708C161.918 4.09657 159.684 2.08182 157.262 0.991602C154.415 -0.29744 151.304 -0.304067 148.206 1.30972C147.559 1.64772 146.907 1.97909 146.247 2.30384C147.808 3.43382 149.253 4.96476 150.535 6.82708C154.601 12.7321 154.068 20.6718 149.392 26.1097C149.337 26.1733 149.285 26.2383 149.238 26.3039C147.259 29.0264 144.767 31.3271 141.719 32.7554C125.089 40.5489 105.414 44.7395 84.7509 44.7395C82.4048 44.7395 80.0716 44.6841 77.7546 44.5764C74.9353 44.4452 72.5696 46.6747 72.5696 49.4973V49.5805C72.5696 52.2073 74.6291 54.3801 77.2529 54.504C79.7372 54.6213 82.2378 54.681 84.7509 54.681C104.864 54.681 124.169 50.9401 141.012 43.9299C146.921 41.4705 151.461 49.5238 146.247 53.2369C146.191 53.277 146.135 53.3164 146.078 53.3555C128.469 65.5169 104.62 73.4003 78.1201 74.5336C80.3138 74.6297 82.5241 74.676 84.7509 74.676C113.895 74.676 140.272 66.5243 159.34 53.3555C164.168 50.0219 167.667 43.0796 168.956 34.8483C169.321 32.5118 167.366 30.4639 165.009 30.6793V30.6793Z" fill="url(#paint14_linear)"/>
<path id="Vector_16" d="M42.9192 38.5922C36.4186 36.5708 30.2299 34.0692 24.4458 31.1144C21.146 29.4284 17.2321 31.8341 17.2321 35.5399V35.5501C17.2321 37.4085 18.2647 39.12 19.9199 39.965C26.207 43.175 32.9233 45.887 39.9666 48.076C43.1568 49.0675 46.393 46.6677 46.393 43.3271C46.393 41.1593 44.9886 39.2357 42.9192 38.5922V38.5922Z" fill="url(#paint15_linear)"/>
</g>
<g id="Group_5">
<path id="Vector_17" d="M31.9764 36.9504C31.9764 36.7207 31.977 36.4921 31.9784 36.2657C31.984 35.3999 32.1464 34.7908 32.2461 34.5257C35.2855 31.1825 37.5358 24.4828 35.4704 17.2366C34.9733 15.4923 35.0184 13.1243 35.5774 11.6063C36.1875 9.94975 36.7428 8.85291 37.1703 8.14344C32.3376 6.45476 27.7212 4.51524 23.353 2.35303C22.7215 3.60164 22.1316 4.96789 21.5852 6.45211C19.9283 10.9505 19.7583 16.5096 21.1302 21.3235C21.4854 22.5704 21.2883 24.0666 21.0649 24.6501C18.5488 27.3909 17.0961 31.5639 17.0676 36.1743C17.0659 36.4321 17.0652 36.6909 17.0652 36.9504C17.0652 43.8131 17.6935 51.7306 19.2099 58.9247C25.0947 62.1503 31.4932 64.95 38.3069 67.2591C38.0826 66.9764 37.8566 66.6967 37.6346 66.4094C35.3597 63.4652 31.9764 53.19 31.9764 36.9504V36.9504Z" fill="url(#paint16_linear)"/>
<path id="Vector_18" d="M148.056 35.7717C147.944 35.6693 147.831 35.5699 147.715 35.4738C150.955 26.6559 151.031 15.3442 147.78 6.4922C147.237 5.0156 146.653 3.65499 146.027 2.41101C141.657 4.56792 137.039 6.50181 132.205 8.18519C132.631 8.89996 133.18 9.99515 133.782 11.6335C135.956 17.5521 135.703 26.1403 133.193 31.6103C131.279 35.7829 131.802 41.2983 134.438 44.724C135.145 45.6443 135.98 46.3995 136.901 46.9734C135.93 57.0094 133.63 63.9331 131.717 66.4104C131.477 66.7209 131.233 67.0235 130.99 67.329C137.824 65.0256 144.242 62.2291 150.146 59.0046C151.099 54.4995 151.606 50.1619 151.873 46.9654C152.247 42.4883 150.82 38.304 148.056 35.7717V35.7717Z" fill="url(#paint17_linear)"/>
<path id="Vector_19" d="M68.4266 36.9471L68.4276 36.2337C68.4326 34.1053 68.6692 32.623 68.7905 32.2009C70.1743 28.5382 70.3181 22.5161 69.8631 18.4482C69.7505 17.4418 69.6862 16.3291 69.6683 15.2061C64.5777 14.7034 59.6042 13.9515 54.7764 12.9663C54.7061 15.3698 54.7933 17.865 55.0435 20.1051C55.3672 22.9993 55.0716 26.1281 54.8251 26.9721C53.6988 29.9495 53.5208 34.0247 53.5159 36.1959L53.5149 36.9471C53.5149 48.8348 54.2687 63.9785 56.3531 72.0041C61.654 73.0237 67.1247 73.7623 72.7279 74.2007C72.1231 72.5349 71.5233 70.7419 70.9355 68.8017C69.7273 64.8136 68.4266 53.1436 68.4266 36.9471V36.9471Z" fill="url(#paint18_linear)"/>
<path id="Vector_20" d="M113.597 36.0419C114.788 29.4174 115.104 20.6996 114.503 13.0157C109.705 13.987 104.764 14.7289 99.7077 15.224C100.098 21.3756 99.8246 28.3762 98.9206 33.4008C98.5111 35.676 98.5995 37.8952 98.6884 39.0159C98.8375 40.8902 99.203 43.1342 100.558 45.0204C100.571 45.3415 100.574 45.707 100.561 46.103C100.158 58.4298 99.0771 65.9145 98.2002 68.8087C97.6091 70.7602 97.0056 72.5635 96.3972 74.2373C101.997 73.8131 107.465 73.0867 112.765 72.082C114.61 65.0539 115.248 53.2252 115.465 46.5911C115.63 41.5596 114.708 38.6478 113.528 36.859C113.535 36.5572 113.556 36.2655 113.597 36.0419V36.0419Z" fill="url(#paint19_linear)"/>
</g>
<g id="Group_6">
<path id="Vector_21" d="M31.9802 36.2631C31.9848 35.546 32.0968 35.0089 32.1919 34.6934C29.5403 33.5853 26.9529 32.395 24.4458 31.1143C21.146 29.4282 17.2321 31.834 17.2321 35.5397V35.55C17.2321 37.4084 18.2647 39.1199 19.9199 39.9649C23.8858 41.9899 28.0233 43.8155 32.3049 45.4379C32.0968 42.8233 31.9782 39.9904 31.9782 36.9481C31.9782 36.7181 31.9789 36.4891 31.9802 36.2631V36.2631Z" fill="url(#paint20_linear)"/>
<path id="Vector_22" d="M148.061 35.7722C147.949 35.6698 147.835 35.5704 147.72 35.4743C148.865 32.3581 149.613 28.93 149.96 25.4092C149.778 25.6471 149.591 25.8824 149.394 26.112C149.339 26.1756 149.287 26.2406 149.239 26.3062C147.261 29.0288 144.768 31.3295 141.721 32.7577C138.602 34.2194 135.376 35.5545 132.056 36.7587C131.988 39.6718 132.808 42.5995 134.442 44.7239C134.811 45.2028 135.215 45.6345 135.646 46.0219C137.461 45.3605 139.251 44.6653 141.014 43.9316C146.923 41.4722 151.463 49.5255 146.249 53.2385C146.193 53.2786 146.137 53.3181 146.08 53.3572C142.455 55.8607 138.562 58.1793 134.439 60.2988C133.563 63.189 132.601 65.271 131.721 66.4103C131.481 66.7208 131.237 67.0233 130.994 67.3289C137.828 65.0255 144.247 62.229 150.15 59.0044C151.103 54.4994 151.61 50.1617 151.877 46.9653C152.252 42.4888 150.825 38.3046 148.061 35.7722V35.7722Z" fill="url(#paint21_linear)"/>
<path id="Vector_23" d="M99.9249 43.9766C100.108 44.3329 100.318 44.6818 100.56 45.0191C100.573 45.3402 100.576 45.7057 100.563 46.1017C100.469 48.9774 100.338 51.586 100.181 53.9377C105.298 53.44 110.331 52.6947 115.249 51.7112C115.349 49.8191 115.419 48.0737 115.467 46.5899C115.532 44.6079 115.426 42.959 115.205 41.5739C110.236 42.6402 105.132 43.4454 99.9249 43.9766V43.9766Z" fill="url(#paint22_linear)"/>
<path id="Vector_24" d="M96.3995 74.2351C102 73.811 107.467 73.0846 112.767 72.0799C113.04 71.0394 113.287 69.8922 113.509 68.6737C108.218 70.2607 102.7 71.556 96.9987 72.5329C96.7995 73.1128 96.5997 73.6837 96.3995 74.2351Z" fill="url(#paint23_linear)"/>
</g>
</g>
<g id="Group_7">
<path id="Vector_25" d="M154.949 104.076H151.323C149.683 104.076 148.063 104.272 146.482 104.65V122.703C148.063 122.328 149.683 122.133 151.323 122.133H154.949C157.596 122.133 159.744 119.611 159.744 116.503V98.4464C159.744 101.555 157.596 104.076 154.949 104.076Z" fill="url(#paint24_linear)"/>
<path id="Vector_26" d="M154.95 90.445H151.325C149.267 90.445 147.239 90.7498 145.287 91.3397C146.063 93.4803 146.484 95.8 146.484 98.2389V98.4045C148.064 98.0301 149.685 97.8346 151.325 97.8346H154.95C157.598 97.8346 159.745 95.3128 159.745 92.2046V84.8149C159.745 87.9232 157.598 90.445 154.95 90.445V90.445Z" fill="url(#paint25_linear)"/>
</g>
</g>
<defs>
<linearGradient id="paint0_linear" x1="52.0624" y1="129.48" x2="102.88" y2="129.48" gradientUnits="userSpaceOnUse">
<stop stop-color="#97D729"/>
<stop offset="0.5652" stop-color="#02905D"/>
<stop offset="0.9955" stop-color="#026841"/>
</linearGradient>
<linearGradient id="paint1_linear" x1="52.0656" y1="129.143" x2="102.883" y2="129.143" gradientUnits="userSpaceOnUse">
<stop stop-color="#97D729"/>
<stop offset="0.5652" stop-color="#02905D"/>
<stop offset="0.9955" stop-color="#026841"/>
</linearGradient>
<linearGradient id="paint2_linear" x1="47.0555" y1="97.245" x2="128.253" y2="97.245" gradientUnits="userSpaceOnUse">
<stop stop-color="#FBC56D"/>
<stop offset="0.5841" stop-color="#FE9738"/>
<stop offset="0.9984" stop-color="#FB2B3A"/>
</linearGradient>
<linearGradient id="paint3_linear" x1="23.1966" y1="97.245" x2="121.695" y2="97.245" gradientUnits="userSpaceOnUse">
<stop stop-color="#FBC56D"/>
<stop offset="0.5841" stop-color="#FE9738"/>
<stop offset="0.9984" stop-color="#FB2B3A"/>
</linearGradient>
<linearGradient id="paint4_linear" x1="82.8438" y1="148.615" x2="159.391" y2="148.615" gradientUnits="userSpaceOnUse">
<stop stop-color="#97D729"/>
<stop offset="0.5652" stop-color="#02905D"/>
<stop offset="0.9955" stop-color="#026841"/>
</linearGradient>
<linearGradient id="paint5_linear" x1="82.8441" y1="148.277" x2="159.391" y2="148.277" gradientUnits="userSpaceOnUse">
<stop stop-color="#97D729"/>
<stop offset="0.5652" stop-color="#02905D"/>
<stop offset="0.9955" stop-color="#026841"/>
</linearGradient>
<linearGradient id="paint6_linear" x1="82.8456" y1="144.015" x2="159.392" y2="144.015" gradientUnits="userSpaceOnUse">
<stop stop-color="#97D729"/>
<stop offset="0.5652" stop-color="#02905D"/>
<stop offset="0.9955" stop-color="#026841"/>
</linearGradient>
<linearGradient id="paint7_linear" x1="82.8472" y1="139.103" x2="159.394" y2="139.103" gradientUnits="userSpaceOnUse">
<stop stop-color="#97D729"/>
<stop offset="0.5652" stop-color="#02905D"/>
<stop offset="0.9955" stop-color="#026841"/>
</linearGradient>
<linearGradient id="paint8_linear" x1="82.8449" y1="138.366" x2="159.392" y2="138.366" gradientUnits="userSpaceOnUse">
<stop stop-color="#97D729"/>
<stop offset="0.5652" stop-color="#02905D"/>
<stop offset="0.9955" stop-color="#026841"/>
</linearGradient>
<linearGradient id="paint9_linear" x1="74.558" y1="102.081" x2="171.778" y2="102.081" gradientUnits="userSpaceOnUse">
<stop stop-color="#FEF056"/>
<stop offset="0.5213" stop-color="#F4D902"/>
<stop offset="1" stop-color="#FE9738"/>
</linearGradient>
<linearGradient id="paint10_linear" x1="36.4512" y1="102.081" x2="167.677" y2="102.081" gradientUnits="userSpaceOnUse">
<stop stop-color="#FEF056"/>
<stop offset="0.5213" stop-color="#F4D902"/>
<stop offset="1" stop-color="#FE9738"/>
</linearGradient>
<linearGradient id="paint11_linear" x1="101.068" y1="120.532" x2="190.627" y2="120.532" gradientUnits="userSpaceOnUse">
<stop stop-color="#FE646F"/>
<stop offset="0.5213" stop-color="#E41F2D"/>
<stop offset="1" stop-color="#C41926"/>
</linearGradient>
<linearGradient id="paint12_linear" x1="101.068" y1="101.566" x2="190.627" y2="101.566" gradientUnits="userSpaceOnUse">
<stop stop-color="#FE646F"/>
<stop offset="0.5213" stop-color="#E41F2D"/>
<stop offset="1" stop-color="#C41926"/>
</linearGradient>
<linearGradient id="paint13_linear" x1="-24.8175" y1="37.3673" x2="170.518" y2="37.3673" gradientUnits="userSpaceOnUse">
<stop stop-color="#FEF056"/>
<stop offset="0.5213" stop-color="#F4D902"/>
<stop offset="1" stop-color="#FE9738"/>
</linearGradient>
<linearGradient id="paint14_linear" x1="-86.8207" y1="37.3674" x2="135.768" y2="37.3674" gradientUnits="userSpaceOnUse">
<stop stop-color="#FEF056"/>
<stop offset="0.5213" stop-color="#F4D902"/>
<stop offset="1" stop-color="#FE9738"/>
</linearGradient>
<linearGradient id="paint15_linear" x1="-86.8191" y1="39.4338" x2="135.77" y2="39.4338" gradientUnits="userSpaceOnUse">
<stop stop-color="#FEF056"/>
<stop offset="0.5213" stop-color="#F4D902"/>
<stop offset="1" stop-color="#FE9738"/>
</linearGradient>
<linearGradient id="paint16_linear" x1="-8.83785" y1="34.806" x2="199.055" y2="34.806" gradientUnits="userSpaceOnUse">
<stop stop-color="#97D729"/>
<stop offset="0.5652" stop-color="#02905D"/>
<stop offset="0.9955" stop-color="#026841"/>
</linearGradient>
<linearGradient id="paint17_linear" x1="-8.8406" y1="34.8697" x2="199.052" y2="34.8697" gradientUnits="userSpaceOnUse">
<stop stop-color="#97D729"/>
<stop offset="0.5652" stop-color="#02905D"/>
<stop offset="0.9955" stop-color="#026841"/>
</linearGradient>
<linearGradient id="paint18_linear" x1="-8.83861" y1="43.5835" x2="199.055" y2="43.5835" gradientUnits="userSpaceOnUse">
<stop stop-color="#97D729"/>
<stop offset="0.5652" stop-color="#02905D"/>
<stop offset="0.9955" stop-color="#026841"/>
</linearGradient>
<linearGradient id="paint19_linear" x1="-8.83889" y1="43.6263" x2="199.054" y2="43.6263" gradientUnits="userSpaceOnUse">
<stop stop-color="#97D729"/>
<stop offset="0.5652" stop-color="#02905D"/>
<stop offset="0.9955" stop-color="#026841"/>
</linearGradient>
<linearGradient id="paint20_linear" x1="-16.5679" y1="38.0015" x2="126.728" y2="38.0015" gradientUnits="userSpaceOnUse">
<stop stop-color="#97D729"/>
<stop offset="0.5652" stop-color="#02905D"/>
<stop offset="0.9955" stop-color="#026841"/>
</linearGradient>
<linearGradient id="paint21_linear" x1="-16.5677" y1="46.3692" x2="126.728" y2="46.3692" gradientUnits="userSpaceOnUse">
<stop stop-color="#97D729"/>
<stop offset="0.5652" stop-color="#02905D"/>
<stop offset="0.9955" stop-color="#026841"/>
</linearGradient>
<linearGradient id="paint22_linear" x1="-16.5685" y1="47.756" x2="126.728" y2="47.756" gradientUnits="userSpaceOnUse">
<stop stop-color="#97D729"/>
<stop offset="0.5652" stop-color="#02905D"/>
<stop offset="0.9955" stop-color="#026841"/>
</linearGradient>
<linearGradient id="paint23_linear" x1="-16.5685" y1="71.4543" x2="126.728" y2="71.4543" gradientUnits="userSpaceOnUse">
<stop stop-color="#97D729"/>
<stop offset="0.5652" stop-color="#02905D"/>
<stop offset="0.9955" stop-color="#026841"/>
</linearGradient>
<linearGradient id="paint24_linear" x1="89.4693" y1="110.575" x2="163.718" y2="110.575" gradientUnits="userSpaceOnUse">
<stop stop-color="#FE646F"/>
<stop offset="0.5213" stop-color="#E41F2D"/>
<stop offset="1" stop-color="#C41926"/>
</linearGradient>
<linearGradient id="paint25_linear" x1="89.471" y1="91.6097" x2="163.72" y2="91.6097" gradientUnits="userSpaceOnUse">
<stop stop-color="#FE646F"/>
<stop offset="0.5213" stop-color="#E41F2D"/>
<stop offset="1" stop-color="#C41926"/>
</linearGradient>
<clipPath id="clip0">
<rect width="169" height="169" fill="white" transform="translate(0 0.0600586)"/>
</clipPath>
</defs>
</svg>
