<svg width="169" height="170" viewBox="0 0 169 170" fill="none" xmlns="http://www.w3.org/2000/svg">
<g id="shirt" clip-path="url(#clip0)">
<path id="Vector" d="M84.6638 22.7876L58.9892 4.07562L59.0248 4.06495C75.698 -1.28339 93.6278 -1.27469 110.296 4.08984L110.303 4.09695L84.6638 22.7876Z" fill="url(#paint0_linear)"/>
<path id="Vector_2" d="M158.662 61.7606C158.662 61.7606 163.255 70.1532 162.639 71.897C162.192 73.1587 139.369 79.3681 130.936 80.6283C131.776 72.8411 133.482 68.5873 133.482 68.5873H133.773L158.591 61.7891L158.662 61.7606Z" fill="url(#paint1_linear)"/>
<path id="Vector_3" d="M35.8455 68.5896C38.3737 72.737 38.4791 80.7452 38.4791 80.7452C38.4791 80.7452 7.00742 73.65 6.40559 71.7861C5.80377 69.9222 10.6651 61.7594 10.6651 61.7594L35.8455 68.5896Z" fill="#6ADDC7"/>
<path id="Vector_4" d="M10.6655 61.7554C10.6655 61.7554 5.52553 70.4339 6.40596 71.782C7.5745 73.5712 28.2877 77.6173 28.2877 77.6173L32.5288 67.6344L10.6655 61.7554Z" fill="url(#paint2_linear)"/>
<g id="Union" filter="url(#filter0_i)">
<path d="M36.8115 19.7102C44.3503 14.6806 41.5583 17.4743 62.257 11.895L84.6641 22.7884C84.6641 22.7884 84.6641 101.524 84.6641 155.508C79.9753 158.355 74.1076 169.06 74.1076 169.06C74.1076 169.06 48.9428 154.308 35.8463 146.773C34.0145 145.719 44.1211 93.0462 35.8463 68.5883L10.6659 61.7581L19.825 40.2043C23.3686 31.8633 29.2728 24.7399 36.8115 19.7102Z" fill="url(#paint3_linear)"/>
<path d="M132.517 19.7102C140.055 24.7399 145.96 31.8633 149.503 40.2043L158.662 61.7616L158.591 61.7901L133.773 68.5883C133.773 68.5883 133.518 68.4802 133.482 68.5883C125.207 93.5049 134.023 146.461 133.482 146.773C120.28 154.4 94.865 169.06 94.865 169.06C94.865 169.06 89.1329 158.297 84.6641 155.508C84.6641 101.524 84.6641 22.7884 84.6641 22.7884L107.071 11.895C122.745 17.2999 124.978 14.6806 132.517 19.7102Z" fill="url(#paint4_linear)"/>
</g>
<g id="Vector_5" opacity="0.1" filter="url(#filter1_f)">
<path d="M29.4865 65.6085L36.3103 62.3761L36.8787 71.5308L38.5959 79.2575L22.0295 74.6409L24.9969 65.6086L29.4865 65.6085Z" fill="url(#paint5_linear)"/>
</g>
<g id="Vector_6" opacity="0.1" filter="url(#filter2_f)">
<path d="M88.4452 21.2518V26.6392V158.502L84.666 155.11L81.6048 157.733V108.489V21.2517L88.4452 21.2518Z" fill="url(#paint6_linear)"/>
</g>
<g id="Vector_7" opacity="0.1" filter="url(#filter3_f)">
<path d="M88.9491 21.2518V26.6392V158.502L87.6712 155.11L86.636 157.733V108.489V21.2517L88.9491 21.2518Z" fill="url(#paint7_linear)"/>
</g>
<g id="Vector_8" opacity="0.2" filter="url(#filter4_f)">
<path d="M109.352 59.0028L119.965 60.9721L120.421 79.9272L109.352 90.9511L96.6606 79.9272L99.6147 60.9721L109.352 59.0028Z" fill="url(#paint8_linear)"/>
</g>
<g id="Vector_9" opacity="0.1" filter="url(#filter5_f)">
<path d="M140.306 65.6078L133.482 62.3754L132.617 71.389L131.228 80.0163L147.763 74.6402L144.796 65.6079L140.306 65.6078Z" fill="url(#paint9_linear)"/>
</g>
<path id="Vector_10" d="M121.29 61.3027V77.5623C121.29 78.6604 121.008 79.7403 120.472 80.6988C119.937 81.6573 119.164 82.4626 118.229 83.0378L109.269 88.5489L100.305 83.0378C99.37 82.4624 98.5979 81.657 98.0626 80.6985C97.5273 79.7399 97.2466 78.6602 97.2472 77.5623V61.3027H121.29Z" fill="url(#paint10_linear)"/>
<g id="Vector_11" opacity="0.2" filter="url(#filter6_f)">
<path d="M107.201 11.9097L84.7506 20.481L100.457 35.6459L108.852 11.9097L107.201 11.9097Z" fill="url(#paint11_linear)"/>
</g>
<g id="Vector_12" opacity="0.2" filter="url(#filter7_f)">
<path d="M63.6141 11.8914L86.0647 20.4627L70.358 35.6276L61.9631 11.8914L63.6141 11.8914Z" fill="url(#paint12_linear)"/>
</g>
<path id="Vector_13" d="M110.303 4.0979L84.6638 22.7886L98.598 34.9272L111.755 12.1555L110.303 4.0979Z" fill="url(#paint13_linear)"/>
<path id="Vector_14" opacity="0.8" d="M71.1949 15.1402L62.257 11.895C44.8025 17.1702 44.3503 14.6806 36.8115 19.7102C29.2728 24.7399 23.3686 31.8633 19.825 40.2043L10.6659 61.7581L30.4917 65.9379L40.6574 43.8726C44.0859 35.8023 52.8823 33.0443 60.0845 28.0431C67.2868 23.0419 62.4354 15.5332 71.1949 15.1402Z" fill="url(#paint14_linear)"/>
<path id="Vector_15" d="M58.9891 4.07654L57.5809 12.1663L70.7295 34.9272L84.6637 22.7885L58.9891 4.07654Z" fill="url(#paint15_linear)"/>
<g id="Vector_16" filter="url(#filter8_d)">
<path d="M85.7233 47.9429H83.7776C83.5355 47.9429 83.3033 47.7182 83.1321 47.3181C82.9609 46.918 82.8648 46.3754 82.8648 45.8096C82.8648 45.2438 82.9609 44.7012 83.1321 44.3011C83.3033 43.901 83.5355 43.6763 83.7776 43.6763H85.7233C85.9654 43.6763 86.1976 43.901 86.3688 44.3011C86.54 44.7012 86.6361 45.2438 86.6361 45.8096C86.6361 46.3754 86.54 46.918 86.3688 47.3181C86.1976 47.7182 85.9654 47.9429 85.7233 47.9429V47.9429Z" fill="url(#paint16_linear)"/>
</g>
<g id="Group">
<g id="Vector_17" filter="url(#filter9_d)">
<path d="M85.7232 67.9111H83.7776C83.5354 67.9111 83.3033 67.6863 83.1321 67.2862C82.9609 66.8862 82.8647 66.3435 82.8647 65.7777C82.8647 65.2119 82.9609 64.6693 83.1321 64.2693C83.3033 63.8692 83.5354 63.6444 83.7776 63.6444H85.7232C85.9653 63.6444 86.1975 63.8692 86.3687 64.2693C86.5399 64.6693 86.6361 65.2119 86.6361 65.7777C86.6361 66.3435 86.5399 66.8862 86.3687 67.2862C86.1975 67.6863 85.9653 67.9111 85.7232 67.9111Z" fill="url(#paint17_linear)"/>
</g>
<g id="Vector_18" filter="url(#filter10_d)">
<path d="M85.7232 87.8757H83.7775C83.5354 87.8757 83.3032 87.6509 83.132 87.2508C82.9608 86.8507 82.8647 86.3081 82.8647 85.7423C82.8647 85.1765 82.9608 84.6339 83.132 84.2338C83.3032 83.8338 83.5354 83.609 83.7775 83.609H85.7232C85.9653 83.609 86.1975 83.8338 86.3687 84.2338C86.5399 84.6339 86.636 85.1765 86.636 85.7423C86.636 86.3081 86.5399 86.8507 86.3687 87.2508C86.1975 87.6509 85.9653 87.8757 85.7232 87.8757V87.8757Z" fill="url(#paint18_linear)"/>
</g>
<g id="Vector_19" filter="url(#filter11_d)">
<path d="M85.7232 107.837H83.7775C83.5354 107.837 83.3032 107.612 83.132 107.212C82.9608 106.812 82.8647 106.27 82.8647 105.704C82.8647 105.138 82.9608 104.595 83.132 104.195C83.3032 103.795 83.5354 103.57 83.7775 103.57H85.7232C85.9653 103.57 86.1975 103.795 86.3687 104.195C86.5399 104.595 86.636 105.138 86.636 105.704C86.636 106.27 86.5399 106.812 86.3687 107.212C86.1975 107.612 85.9653 107.837 85.7232 107.837Z" fill="url(#paint19_linear)"/>
</g>
<g id="Vector_20" filter="url(#filter12_d)">
<path d="M85.7232 127.805H83.7775C83.5354 127.805 83.3032 127.58 83.132 127.18C82.9608 126.78 82.8647 126.238 82.8647 125.672C82.8647 125.106 82.9608 124.563 83.132 124.163C83.3032 123.763 83.5354 123.538 83.7775 123.538H85.7232C85.9653 123.538 86.1975 123.763 86.3687 124.163C86.5399 124.563 86.636 125.106 86.636 125.672C86.636 126.238 86.5399 126.78 86.3687 127.18C86.1975 127.58 85.9653 127.805 85.7232 127.805Z" fill="url(#paint20_linear)"/>
</g>
<g id="Vector_21" filter="url(#filter13_d)">
<path d="M85.7232 147.765H83.7775C83.5354 147.765 83.3032 147.54 83.132 147.14C82.9608 146.74 82.8647 146.197 82.8647 145.632C82.8647 145.066 82.9608 144.523 83.132 144.123C83.3032 143.723 83.5354 143.498 83.7775 143.498H85.7232C85.9653 143.498 86.1975 143.723 86.3687 144.123C86.5399 144.523 86.636 145.066 86.636 145.632C86.636 146.197 86.5399 146.74 86.3687 147.14C86.1975 147.54 85.9653 147.765 85.7232 147.765Z" fill="url(#paint21_linear)"/>
</g>
</g>
</g>
<defs>
<filter id="filter0_i" x="10.6659" y="11.895" width="147.996" height="157.165" filterUnits="userSpaceOnUse" color-interpolation-filters="sRGB">
<feFlood flood-opacity="0" result="BackgroundImageFix"/>
<feBlend mode="normal" in="SourceGraphic" in2="BackgroundImageFix" result="shape"/>
<feColorMatrix in="SourceAlpha" type="matrix" values="0 0 0 0 0 0 0 0 0 0 0 0 0 0 0 0 0 0 127 0" result="hardAlpha"/>
<feOffset/>
<feGaussianBlur stdDeviation="5.5"/>
<feComposite in2="hardAlpha" operator="arithmetic" k2="-1" k3="1"/>
<feColorMatrix type="matrix" values="0 0 0 0 0 0 0 0 0 0 0 0 0 0 0 0 0 0 0.15 0"/>
<feBlend mode="normal" in2="shape" result="effect1_innerShadow"/>
</filter>
<filter id="filter1_f" x="18.0295" y="58.3761" width="24.5664" height="24.8814" filterUnits="userSpaceOnUse" color-interpolation-filters="sRGB">
<feFlood flood-opacity="0" result="BackgroundImageFix"/>
<feBlend mode="normal" in="SourceGraphic" in2="BackgroundImageFix" result="shape"/>
<feGaussianBlur stdDeviation="2" result="effect1_foregroundBlur"/>
</filter>
<filter id="filter2_f" x="80.6048" y="20.2517" width="8.8404" height="139.251" filterUnits="userSpaceOnUse" color-interpolation-filters="sRGB">
<feFlood flood-opacity="0" result="BackgroundImageFix"/>
<feBlend mode="normal" in="SourceGraphic" in2="BackgroundImageFix" result="shape"/>
<feGaussianBlur stdDeviation="0.5" result="effect1_foregroundBlur"/>
</filter>
<filter id="filter3_f" x="85.636" y="20.2517" width="4.31312" height="139.251" filterUnits="userSpaceOnUse" color-interpolation-filters="sRGB">
<feFlood flood-opacity="0" result="BackgroundImageFix"/>
<feBlend mode="normal" in="SourceGraphic" in2="BackgroundImageFix" result="shape"/>
<feGaussianBlur stdDeviation="0.5" result="effect1_foregroundBlur"/>
</filter>
<filter id="filter4_f" x="92.6606" y="55.0028" width="31.7604" height="39.9483" filterUnits="userSpaceOnUse" color-interpolation-filters="sRGB">
<feFlood flood-opacity="0" result="BackgroundImageFix"/>
<feBlend mode="normal" in="SourceGraphic" in2="BackgroundImageFix" result="shape"/>
<feGaussianBlur stdDeviation="2" result="effect1_foregroundBlur"/>
</filter>
<filter id="filter5_f" x="127.228" y="58.3754" width="24.5357" height="25.641" filterUnits="userSpaceOnUse" color-interpolation-filters="sRGB">
<feFlood flood-opacity="0" result="BackgroundImageFix"/>
<feBlend mode="normal" in="SourceGraphic" in2="BackgroundImageFix" result="shape"/>
<feGaussianBlur stdDeviation="2" result="effect1_foregroundBlur"/>
</filter>
<filter id="filter6_f" x="80.7506" y="7.90967" width="32.1016" height="31.7363" filterUnits="userSpaceOnUse" color-interpolation-filters="sRGB">
<feFlood flood-opacity="0" result="BackgroundImageFix"/>
<feBlend mode="normal" in="SourceGraphic" in2="BackgroundImageFix" result="shape"/>
<feGaussianBlur stdDeviation="2" result="effect1_foregroundBlur"/>
</filter>
<filter id="filter7_f" x="57.9631" y="7.89136" width="32.1016" height="31.7363" filterUnits="userSpaceOnUse" color-interpolation-filters="sRGB">
<feFlood flood-opacity="0" result="BackgroundImageFix"/>
<feBlend mode="normal" in="SourceGraphic" in2="BackgroundImageFix" result="shape"/>
<feGaussianBlur stdDeviation="2" result="effect1_foregroundBlur"/>
</filter>
<filter id="filter8_d" x="80.8648" y="42.6763" width="7.77138" height="8.26666" filterUnits="userSpaceOnUse" color-interpolation-filters="sRGB">
<feFlood flood-opacity="0" result="BackgroundImageFix"/>
<feColorMatrix in="SourceAlpha" type="matrix" values="0 0 0 0 0 0 0 0 0 0 0 0 0 0 0 0 0 0 127 0"/>
<feOffset dy="1"/>
<feGaussianBlur stdDeviation="1"/>
<feColorMatrix type="matrix" values="0 0 0 0 0 0 0 0 0 0 0 0 0 0 0 0 0 0 0.15 0"/>
<feBlend mode="normal" in2="BackgroundImageFix" result="effect1_dropShadow"/>
<feBlend mode="normal" in="SourceGraphic" in2="effect1_dropShadow" result="shape"/>
</filter>
<filter id="filter9_d" x="80.8647" y="62.6444" width="7.77138" height="8.26666" filterUnits="userSpaceOnUse" color-interpolation-filters="sRGB">
<feFlood flood-opacity="0" result="BackgroundImageFix"/>
<feColorMatrix in="SourceAlpha" type="matrix" values="0 0 0 0 0 0 0 0 0 0 0 0 0 0 0 0 0 0 127 0"/>
<feOffset dy="1"/>
<feGaussianBlur stdDeviation="1"/>
<feColorMatrix type="matrix" values="0 0 0 0 0 0 0 0 0 0 0 0 0 0 0 0 0 0 0.15 0"/>
<feBlend mode="normal" in2="BackgroundImageFix" result="effect1_dropShadow"/>
<feBlend mode="normal" in="SourceGraphic" in2="effect1_dropShadow" result="shape"/>
</filter>
<filter id="filter10_d" x="80.8647" y="82.609" width="7.77138" height="8.26666" filterUnits="userSpaceOnUse" color-interpolation-filters="sRGB">
<feFlood flood-opacity="0" result="BackgroundImageFix"/>
<feColorMatrix in="SourceAlpha" type="matrix" values="0 0 0 0 0 0 0 0 0 0 0 0 0 0 0 0 0 0 127 0"/>
<feOffset dy="1"/>
<feGaussianBlur stdDeviation="1"/>
<feColorMatrix type="matrix" values="0 0 0 0 0 0 0 0 0 0 0 0 0 0 0 0 0 0 0.15 0"/>
<feBlend mode="normal" in2="BackgroundImageFix" result="effect1_dropShadow"/>
<feBlend mode="normal" in="SourceGraphic" in2="effect1_dropShadow" result="shape"/>
</filter>
<filter id="filter11_d" x="80.8647" y="102.57" width="7.77138" height="8.26666" filterUnits="userSpaceOnUse" color-interpolation-filters="sRGB">
<feFlood flood-opacity="0" result="BackgroundImageFix"/>
<feColorMatrix in="SourceAlpha" type="matrix" values="0 0 0 0 0 0 0 0 0 0 0 0 0 0 0 0 0 0 127 0"/>
<feOffset dy="1"/>
<feGaussianBlur stdDeviation="1"/>
<feColorMatrix type="matrix" values="0 0 0 0 0 0 0 0 0 0 0 0 0 0 0 0 0 0 0.15 0"/>
<feBlend mode="normal" in2="BackgroundImageFix" result="effect1_dropShadow"/>
<feBlend mode="normal" in="SourceGraphic" in2="effect1_dropShadow" result="shape"/>
</filter>
<filter id="filter12_d" x="80.8647" y="122.538" width="7.77138" height="8.26666" filterUnits="userSpaceOnUse" color-interpolation-filters="sRGB">
<feFlood flood-opacity="0" result="BackgroundImageFix"/>
<feColorMatrix in="SourceAlpha" type="matrix" values="0 0 0 0 0 0 0 0 0 0 0 0 0 0 0 0 0 0 127 0"/>
<feOffset dy="1"/>
<feGaussianBlur stdDeviation="1"/>
<feColorMatrix type="matrix" values="0 0 0 0 0 0 0 0 0 0 0 0 0 0 0 0 0 0 0.15 0"/>
<feBlend mode="normal" in2="BackgroundImageFix" result="effect1_dropShadow"/>
<feBlend mode="normal" in="SourceGraphic" in2="effect1_dropShadow" result="shape"/>
</filter>
<filter id="filter13_d" x="80.8647" y="142.498" width="7.77138" height="8.26666" filterUnits="userSpaceOnUse" color-interpolation-filters="sRGB">
<feFlood flood-opacity="0" result="BackgroundImageFix"/>
<feColorMatrix in="SourceAlpha" type="matrix" values="0 0 0 0 0 0 0 0 0 0 0 0 0 0 0 0 0 0 127 0"/>
<feOffset dy="1"/>
<feGaussianBlur stdDeviation="1"/>
<feColorMatrix type="matrix" values="0 0 0 0 0 0 0 0 0 0 0 0 0 0 0 0 0 0 0.15 0"/>
<feBlend mode="normal" in2="BackgroundImageFix" result="effect1_dropShadow"/>
<feBlend mode="normal" in="SourceGraphic" in2="effect1_dropShadow" result="shape"/>
</filter>
<linearGradient id="paint0_linear" x1="84.6461" y1="0.0600586" x2="84.6461" y2="22.7876" gradientUnits="userSpaceOnUse">
<stop stop-color="#3998CE"/>
<stop offset="1" stop-color="#0369A2"/>
</linearGradient>
<linearGradient id="paint1_linear" x1="148.201" y1="61.7606" x2="133.481" y2="78.1688" gradientUnits="userSpaceOnUse">
<stop offset="0.454321" stop-color="#6ADDC7"/>
<stop offset="1" stop-color="#40D3B7"/>
</linearGradient>
<linearGradient id="paint2_linear" x1="4.86238" y1="64.8896" x2="25.5789" y2="72.3367" gradientUnits="userSpaceOnUse">
<stop stop-color="#92FFEA"/>
<stop offset="1" stop-color="#92FFEA" stop-opacity="0"/>
</linearGradient>
<linearGradient id="paint3_linear" x1="41.5575" y1="16.6892" x2="134.308" y2="165.09" gradientUnits="userSpaceOnUse">
<stop stop-color="#49BDFF"/>
<stop offset="1" stop-color="#006FAD"/>
</linearGradient>
<linearGradient id="paint4_linear" x1="41.5575" y1="16.6892" x2="134.308" y2="165.09" gradientUnits="userSpaceOnUse">
<stop stop-color="#49BDFF"/>
<stop offset="1" stop-color="#006FAD"/>
</linearGradient>
<linearGradient id="paint5_linear" x1="33.2726" y1="67.4168" x2="33.2726" y2="86.022" gradientUnits="userSpaceOnUse">
<stop stop-color="#080000"/>
<stop offset="1"/>
</linearGradient>
<linearGradient id="paint6_linear" x1="86.0385" y1="77.2724" x2="86.0385" y2="157.668" gradientUnits="userSpaceOnUse">
<stop stop-color="#080000"/>
<stop offset="1"/>
</linearGradient>
<linearGradient id="paint7_linear" x1="88.1353" y1="77.2724" x2="88.1353" y2="157.668" gradientUnits="userSpaceOnUse">
<stop stop-color="#080000"/>
<stop offset="1"/>
</linearGradient>
<linearGradient id="paint8_linear" x1="107.904" y1="72.7031" x2="107.904" y2="91.3083" gradientUnits="userSpaceOnUse">
<stop stop-color="#080000"/>
<stop offset="1"/>
</linearGradient>
<linearGradient id="paint9_linear" x1="136.52" y1="67.4161" x2="136.52" y2="86.0212" gradientUnits="userSpaceOnUse">
<stop stop-color="#080000"/>
<stop offset="1"/>
</linearGradient>
<linearGradient id="paint10_linear" x1="92.2232" y1="70.4911" x2="109.269" y2="88.5489" gradientUnits="userSpaceOnUse">
<stop stop-color="#AFFDEF"/>
<stop offset="1" stop-color="#4AE3C6"/>
</linearGradient>
<linearGradient id="paint11_linear" x1="97.7493" y1="11.8955" x2="97.7493" y2="30.5007" gradientUnits="userSpaceOnUse">
<stop stop-color="#080000"/>
<stop offset="1"/>
</linearGradient>
<linearGradient id="paint12_linear" x1="73.066" y1="11.8772" x2="73.066" y2="30.4824" gradientUnits="userSpaceOnUse">
<stop stop-color="#080000"/>
<stop offset="1"/>
</linearGradient>
<linearGradient id="paint13_linear" x1="97.5011" y1="4.07652" x2="97.5011" y2="32.1689" gradientUnits="userSpaceOnUse">
<stop stop-color="#6EECCE"/>
<stop offset="1" stop-color="#1CC2D8"/>
</linearGradient>
<linearGradient id="paint14_linear" x1="22.6694" y1="22.5267" x2="42.5762" y2="34.9984" gradientUnits="userSpaceOnUse">
<stop offset="0.270746" stop-color="#99E0FF"/>
<stop offset="1" stop-color="#99E0FF" stop-opacity="0"/>
</linearGradient>
<linearGradient id="paint15_linear" x1="71.8263" y1="4.07654" x2="71.8263" y2="32.1689" gradientUnits="userSpaceOnUse">
<stop stop-color="#B3F3EF"/>
<stop offset="1" stop-color="#1CCDD8"/>
</linearGradient>
<linearGradient id="paint16_linear" x1="84.7505" y1="43.6763" x2="84.7505" y2="47.9429" gradientUnits="userSpaceOnUse">
<stop stop-color="white"/>
<stop offset="1" stop-color="#B2B2B2"/>
</linearGradient>
<linearGradient id="paint17_linear" x1="84.7504" y1="63.6444" x2="84.7504" y2="67.9111" gradientUnits="userSpaceOnUse">
<stop stop-color="white"/>
<stop offset="1" stop-color="#B2B2B2"/>
</linearGradient>
<linearGradient id="paint18_linear" x1="84.7503" y1="83.609" x2="84.7503" y2="87.8757" gradientUnits="userSpaceOnUse">
<stop stop-color="white"/>
<stop offset="1" stop-color="#B2B2B2"/>
</linearGradient>
<linearGradient id="paint19_linear" x1="84.7503" y1="103.57" x2="84.7503" y2="107.837" gradientUnits="userSpaceOnUse">
<stop stop-color="white"/>
<stop offset="1" stop-color="#B2B2B2"/>
</linearGradient>
<linearGradient id="paint20_linear" x1="84.7503" y1="123.538" x2="84.7503" y2="127.805" gradientUnits="userSpaceOnUse">
<stop stop-color="white"/>
<stop offset="1" stop-color="#B2B2B2"/>
</linearGradient>
<linearGradient id="paint21_linear" x1="84.7503" y1="143.498" x2="84.7503" y2="147.765" gradientUnits="userSpaceOnUse">
<stop stop-color="white"/>
<stop offset="1" stop-color="#B2B2B2"/>
</linearGradient>
<clipPath id="clip0">
<rect width="169" height="169" fill="white" transform="translate(0 0.0600586)"/>
</clipPath>
</defs>
</svg>
