<svg width="169" height="170" viewBox="0 0 169 170" fill="none" xmlns="http://www.w3.org/2000/svg">
<g id="shorts">
<path id="Vector" d="M168.605 107.87L142.865 35.825H26.1346L0.3946 107.87C-0.857326 111.375 0.968538 115.23 4.4728 116.482L65.6283 138.332C69.1326 139.584 72.9884 137.758 74.2404 134.254L82.2761 111.762C83.0227 109.672 85.9779 109.672 86.7242 111.762L94.76 134.254C96.0119 137.758 99.8677 139.584 103.372 138.332L164.527 116.482C168.031 115.23 169.857 111.375 168.605 107.87V107.87Z" fill="url(#paint0_linear)"/>
<path id="Vector_2" d="M103.372 138.332L164.527 116.482C168.031 115.23 169.857 111.375 168.605 107.87L142.865 35.825H142.865V35.8253C142.865 38.8242 116.736 41.2565 84.5 41.2565V110.195C85.4255 110.195 86.3507 110.717 86.7242 111.762L94.76 134.254C96.0116 137.758 99.8674 139.584 103.372 138.332V138.332Z" fill="url(#paint1_linear)"/>
<path id="Vector_3" d="M21.9699 47.485C36.265 50.855 58.9531 53.0331 84.5013 53.0331C110.049 53.0331 132.738 50.8547 147.033 47.485L142.867 35.825H26.136L21.9699 47.485Z" fill="url(#paint2_linear)"/>
<g id="Group">
<path id="Vector_4" d="M134.769 49.7791C130.17 50.4683 125.123 51.0615 119.715 51.5453C115.192 51.9529 110.416 52.2842 105.443 52.5294C101.582 52.7183 97.6023 52.8575 93.5231 52.9404C90.564 53.0033 87.5551 53.0331 84.5031 53.0331C81.4512 53.0331 78.4423 53.0033 75.4832 52.9404C71.404 52.8575 67.4242 52.7183 63.5637 52.5294C58.5898 52.2842 53.8147 51.9529 49.2915 51.5453C43.8835 51.0615 38.8367 50.4683 34.2372 49.7791L38.1938 35.825H130.812L134.769 49.7791Z" fill="url(#paint3_linear)"/>
<path id="Vector_5" d="M119.716 51.5453C115.192 51.9529 110.417 52.2842 105.443 52.5294C101.583 52.7183 97.6031 52.8575 93.5239 52.9404C90.5647 53.0033 87.5558 53.0331 84.5039 53.0331C81.452 53.0331 78.4431 53.0033 75.4839 52.9404C71.4047 52.8575 67.4249 52.7183 63.5645 52.5294C58.5906 52.2842 53.8155 51.9529 49.2922 51.5453L52.3839 35.825H116.624L119.716 51.5453Z" fill="url(#paint4_linear)"/>
<path id="Vector_6" d="M105.444 52.5294C101.583 52.7183 97.6034 52.8575 93.5242 52.9404C90.5651 53.0033 87.5562 53.0331 84.5042 53.0331C81.4523 53.0331 78.4434 53.0033 75.4843 52.9404C71.4051 52.8575 67.4253 52.7183 63.5648 52.5294L65.5066 35.825H103.502L105.444 52.5294Z" fill="url(#paint5_linear)"/>
<path id="Vector_7" d="M93.5237 52.9404C90.5645 53.0033 87.5557 53.0331 84.5037 53.0331C81.4518 53.0331 78.4429 53.0033 75.4838 52.9404L76.3387 35.825H92.6688L93.5237 52.9404Z" fill="url(#paint6_linear)"/>
</g>
<g id="Group_2">
<path id="Vector_8" d="M154.792 69.2012C144.373 66.8749 135.771 59.7438 131.423 50.2566C137.325 49.4679 142.584 48.5368 147.031 47.4863L154.792 69.2012Z" fill="url(#paint7_linear)"/>
<path id="Vector_9" d="M37.5815 50.2564C33.2339 59.7436 24.6315 66.8747 14.2131 69.2009L21.9739 47.4861C26.4209 48.5365 31.6798 49.4677 37.5815 50.2564Z" fill="url(#paint8_linear)"/>
</g>
<path id="Vector_10" d="M4.47251 100.372L77.1488 126.109L74.2381 134.253C72.9885 137.756 69.1336 139.583 65.6263 138.33L4.47251 116.482C0.968909 115.229 -0.85828 111.374 0.395302 107.87L3.27593 99.8062C3.64574 100.032 4.04604 100.221 4.47251 100.372V100.372Z" fill="url(#paint9_linear)"/>
<path id="Vector_11" d="M164.525 116.482L103.371 138.331C99.8635 139.584 96.0086 137.757 94.759 134.253L91.8443 126.102L164.525 100.372C164.951 100.221 165.351 100.033 165.721 99.8062L168.602 107.87C169.855 111.374 168.028 115.229 164.525 116.482Z" fill="url(#paint10_linear)"/>
<path id="Vector_12" d="M84.4976 41.2562C116.732 41.2562 142.863 38.8246 142.863 35.825C142.863 32.8254 116.732 30.3938 84.4976 30.3938C52.2633 30.3938 26.1323 32.8254 26.1323 35.825C26.1323 38.8246 52.2633 41.2562 84.4976 41.2562Z" fill="url(#paint11_linear)"/>
<g id="Group_3">
<path id="Vector_13" d="M153.667 120.361L82.2193 48.913C81.9874 48.0067 81.1672 47.3357 80.1887 47.3357C79.0295 47.3357 78.4215 48.2755 78.4215 49.4343V73.7348C78.4215 74.7137 78.7611 75.5335 79.6674 75.7655L132.003 128.101L153.667 120.361Z" fill="url(#paint12_linear)"/>
<path id="Vector_14" d="M160.096 118.065L146.082 123.072L88.3937 65.3835C87.4891 65.1515 87.1478 64.3297 87.1478 63.3522V49.4345C87.1478 48.2747 87.7575 47.3369 88.914 47.3369C89.8948 47.3369 90.7133 48.0063 90.9453 48.9142L160.096 118.065Z" fill="url(#paint13_linear)"/>
<path id="Vector_15" d="M80.1885 75.834C79.0293 75.834 78.0899 74.8942 78.0899 73.7354V49.4345C78.0899 48.2754 79.0297 47.3359 80.1885 47.3359C81.3476 47.3359 82.2871 48.2757 82.2871 49.4345V73.7351C82.2871 74.8942 81.3476 75.834 80.1885 75.834Z" fill="url(#paint14_linear)"/>
<path id="Vector_16" d="M88.8073 65.4505C87.6482 65.4505 86.7088 64.5108 86.7088 63.3519V49.4343C86.7088 48.2751 87.6485 47.3357 88.8073 47.3357C89.9665 47.3357 90.9059 48.2755 90.9059 49.4343V63.3519C90.9059 64.5111 89.9665 65.4505 88.8073 65.4505Z" fill="url(#paint15_linear)"/>
</g>
</g>
<defs>
<linearGradient id="paint0_linear" x1="53.7602" y1="70.4743" x2="120.255" y2="92.3449" gradientUnits="userSpaceOnUse">
<stop stop-color="#B9DD39"/>
<stop offset="1" stop-color="#90CC1C"/>
</linearGradient>
<linearGradient id="paint1_linear" x1="96.4119" y1="56.7276" x2="152.616" y2="128.468" gradientUnits="userSpaceOnUse">
<stop stop-color="#B9DD39"/>
<stop offset="1" stop-color="#90CC1C"/>
</linearGradient>
<linearGradient id="paint2_linear" x1="84.5013" y1="40.8333" x2="84.5013" y2="75.0754" gradientUnits="userSpaceOnUse">
<stop stop-color="#07485E" stop-opacity="0"/>
<stop offset="0.3884" stop-color="#05394A" stop-opacity="0.388"/>
<stop offset="1" stop-color="#03232E"/>
</linearGradient>
<linearGradient id="paint3_linear" x1="84.5031" y1="40.7084" x2="84.5031" y2="84.0075" gradientUnits="userSpaceOnUse">
<stop stop-color="#07485E" stop-opacity="0"/>
<stop offset="0.3884" stop-color="#05394A" stop-opacity="0.388"/>
<stop offset="1" stop-color="#03232E"/>
</linearGradient>
<linearGradient id="paint4_linear" x1="84.5039" y1="44.5192" x2="84.5039" y2="81.4126" gradientUnits="userSpaceOnUse">
<stop stop-color="#07485E" stop-opacity="0"/>
<stop offset="0.3884" stop-color="#05394A" stop-opacity="0.388"/>
<stop offset="1" stop-color="#03232E"/>
</linearGradient>
<linearGradient id="paint5_linear" x1="84.5042" y1="44.6849" x2="84.5042" y2="69.4831" gradientUnits="userSpaceOnUse">
<stop stop-color="#07485E" stop-opacity="0"/>
<stop offset="0.3884" stop-color="#05394A" stop-opacity="0.388"/>
<stop offset="1" stop-color="#03232E"/>
</linearGradient>
<linearGradient id="paint6_linear" x1="84.5037" y1="41.9232" x2="84.5037" y2="68.4966" gradientUnits="userSpaceOnUse">
<stop stop-color="#07485E" stop-opacity="0"/>
<stop offset="0.3884" stop-color="#05394A" stop-opacity="0.388"/>
<stop offset="1" stop-color="#03232E"/>
</linearGradient>
<linearGradient id="paint7_linear" x1="149.295" y1="53.2724" x2="126.194" y2="77.3781" gradientUnits="userSpaceOnUse">
<stop stop-color="#07485E" stop-opacity="0"/>
<stop offset="0.3884" stop-color="#05394A" stop-opacity="0.388"/>
<stop offset="1" stop-color="#03232E"/>
</linearGradient>
<linearGradient id="paint8_linear" x1="22.1346" y1="51.3847" x2="38.0189" y2="86.6069" gradientUnits="userSpaceOnUse">
<stop stop-color="#07485E" stop-opacity="0"/>
<stop offset="0.3884" stop-color="#05394A" stop-opacity="0.388"/>
<stop offset="1" stop-color="#03232E"/>
</linearGradient>
<linearGradient id="paint9_linear" x1="37.5889" y1="120.226" x2="30.3574" y2="140.019" gradientUnits="userSpaceOnUse">
<stop stop-color="#07485E" stop-opacity="0"/>
<stop offset="0.3884" stop-color="#05394A" stop-opacity="0.388"/>
<stop offset="1" stop-color="#03232E"/>
</linearGradient>
<linearGradient id="paint10_linear" x1="131.285" y1="119.616" x2="138.296" y2="136.909" gradientUnits="userSpaceOnUse">
<stop stop-color="#07485E" stop-opacity="0"/>
<stop offset="0.3884" stop-color="#05394A" stop-opacity="0.388"/>
<stop offset="1" stop-color="#03232E"/>
</linearGradient>
<linearGradient id="paint11_linear" x1="84.4976" y1="33.5286" x2="84.4976" y2="47.7776" gradientUnits="userSpaceOnUse">
<stop stop-color="#66BB00"/>
<stop offset="1" stop-color="#0B799D"/>
</linearGradient>
<linearGradient id="paint12_linear" x1="90.2959" y1="79.6581" x2="40.811" y2="54.8052" gradientUnits="userSpaceOnUse">
<stop stop-color="#07485E" stop-opacity="0"/>
<stop offset="0.3884" stop-color="#05394A" stop-opacity="0.388"/>
<stop offset="1" stop-color="#03232E"/>
</linearGradient>
<linearGradient id="paint13_linear" x1="99.8914" y1="76.2366" x2="51.9421" y2="52.1547" gradientUnits="userSpaceOnUse">
<stop stop-color="#07485E" stop-opacity="0"/>
<stop offset="0.3884" stop-color="#05394A" stop-opacity="0.388"/>
<stop offset="1" stop-color="#03232E"/>
</linearGradient>
<linearGradient id="paint14_linear" x1="76.5434" y1="61.585" x2="83.9532" y2="61.585" gradientUnits="userSpaceOnUse">
<stop stop-color="#FFDA2D"/>
<stop offset="1" stop-color="#FDBF00"/>
</linearGradient>
<linearGradient id="paint15_linear" x1="85.1622" y1="56.3931" x2="92.572" y2="56.3931" gradientUnits="userSpaceOnUse">
<stop stop-color="#FFDA2D"/>
<stop offset="1" stop-color="#FDBF00"/>
</linearGradient>
</defs>
</svg>
