<svg xmlns="http://www.w3.org/2000/svg" viewBox="0 0 631 508">
  <defs/>
  <g clip-path="url(#ss_step3__clip0)">
    <path fill="#FCB72E" fill-rule="evenodd" d="M572.3 322.4l2.5 132.3c.5 25.6-19.9 46.8-45.5 47.2l-473.7 6c-25.7.4-46.9-20.1-47.4-45.8L5.3 308.7a56 56 0 00-2.1-111.8L.5 53.2A46.3 46.3 0 0146 6l473.6-6c25.7-.4 46.9 20 47.4 45.7l2.6 137.2c0 55.8 2.6 110.9 2.6 139.5z" clip-rule="evenodd"/>
    <g filter="url(#ss_step3__filter0_ii)">
      <path fill="#F7F7F7" fill-rule="evenodd" d="M548.3 60.6v386.7a42 42 0 01-42 42H69a42 42 0 01-42-42v-129a70.7 70.7 0 000-130.9V60.6a42 42 0 0142-42h437.3a42 42 0 0142 42z" clip-rule="evenodd"/>
    </g>
    <path fill="#262626" d="M170.4 283c-.9 0-1.5-.2-1.9-.6-.4-.4-.5-1-.5-2v-45.1c0-1 .1-1.6.5-2 .4-.5 1-.7 1.9-.7h21c.7 0 1.2.3 1.5.8.3.5.4 1.3.4 2.3v1.9c0 1-.1 1.8-.4 2.4-.3.4-.8.7-1.5.7h-13.9v12.5H190c.7 0 1.2.3 1.5.8.2.5.4 1.3.4 2.3v1.9c0 1-.2 1.8-.4 2.4-.3.4-.8.7-1.5.7h-12.4V275h14c.6 0 1 .2 1.4.7.3.5.4 1.3.4 2.4v1.8c0 1.1-.1 2-.4 2.4-.3.5-.8.7-1.4.7h-21.1zm33.7.2c-2.4 0-3.7-.7-3.7-2.1v-46.5c0-1.4 1.3-2.1 3.7-2.1h1.9c.8 0 1.5.1 2 .3s1 .8 1.4 1.5l14.2 26.5c.6 1 1.3 2.8 2.2 5.2l.4-.1c-.4-2-.6-3.7-.6-5.4v-26c0-1.3 1.3-2 3.7-2h1.4c2.5 0 3.7.7 3.7 2v46.6c0 1.4-1.2 2-3.7 2h-1.4c-.9 0-1.6 0-2.2-.3-.5-.2-1-.7-1.3-1.4L211 254l-2-4.5-.3.1c.4 1.8.6 3.5.6 5V281c0 1.4-1.2 2-3.7 2h-1.4zm41.6-.2c-.9 0-1.5-.2-1.9-.6-.4-.4-.5-1-.5-2v-45.1c0-1 .1-1.6.5-2 .4-.5 1-.7 1.9-.7h13.1c6.1 0 10.7 2 13.7 6.2 3 4 4.5 10.4 4.5 19s-1.5 15-4.5 19.1c-3 4-7.6 6.1-13.7 6.1h-13.1zm12.8-8a7 7 0 006.6-4c1.4-2.7 2.1-7 2.1-13.2s-.7-10.4-2.1-13a7 7 0 00-6.6-4.1H253V275h5.5zm44.9 8.2c-1.9 0-3-.5-3.1-1.4l-9.7-46.6a2.4 2.4 0 010-.6v-.4c0-1.1 1.3-1.7 3.8-1.7h1.6c2.5 0 3.9.6 4 1.9l4.5 29.3 1.2 9.9h.3c.2-2.5.7-5.8 1.4-10l5.2-29.7c0-.5.4-.9.8-1 .5-.3 1.3-.4 2.3-.4h2.8c1 0 1.7.1 2.2.3.6.2.9.6 1 1.1l5 29.8c.4 1.9.8 5.2 1.4 10h.3c.2-2.3.6-5.6 1.3-10l4.5-29.3c.1-1.3 1.5-2 4-2h1.3c2.6 0 3.8.7 3.8 1.8l-.1 1-9.7 46.6c-.2 1-1.3 1.4-3.1 1.4h-4.1c-2 0-3-.5-3-1.4l-5.1-25.3c-.6-3.2-1-6.8-1.2-11h-.2c-.3 4-.7 7.7-1.3 11l-5 25.3c-.2 1-1.2 1.4-3 1.4h-4.1zm48.9 0c-2.5 0-3.7-.7-3.7-2.1v-46.5c0-1.5 1.2-2.2 3.7-2.2h2.3c2.4 0 3.6.7 3.6 2.2V281c0 1.4-1.2 2.1-3.6 2.1h-2.3zm25.7 0c-2.4 0-3.7-.7-3.7-2.1v-40.4h-8.7c-.7 0-1.2-.3-1.5-.7-.3-.6-.4-1.4-.4-2.4v-1.9c0-1 .1-1.8.4-2.3.3-.5.8-.8 1.5-.8h27.2c.6 0 1.1.3 1.4.7.3.5.5 1.3.5 2.4v1.9c0 1.1-.2 1.9-.5 2.4-.3.4-.8.7-1.4.7H384V281c0 1.4-1.2 2-3.7 2H378zm25.9 0c-2.5 0-3.7-.7-3.7-2.1v-46.5c0-1.4 1.2-2.1 3.7-2.1h2.3c2.4 0 3.6.7 3.6 2v18.7h14.7v-18.6c0-1.4 1.2-2.1 3.6-2.1h2.3c2.5 0 3.7.7 3.7 2v46.6c0 1.4-1.2 2-3.7 2h-2.3c-2.4 0-3.6-.6-3.6-2v-19.7h-14.7V281c0 1.4-1.2 2-3.6 2H404zm-108.2 74.3c-12.4 0-18.6-8.6-18.6-25.7s6.2-25.7 18.6-25.7c12.4 0 18.5 8.6 18.5 25.7s-6.1 25.7-18.5 25.7zm0-8a7 7 0 006.6-4c1.5-2.8 2.2-7.4 2.2-13.7 0-6.4-.7-11-2.2-13.6a7 7 0 00-6.5-4c-3 0-5.3 1.3-6.7 4a30.4 30.4 0 00-2.2 13.6c0 6.3.8 10.9 2.2 13.6 1.4 2.7 3.7 4 6.7 4zm29.8 7.7c-2.4 0-3.7-.7-3.7-2.1v-45.8c0-1 .2-1.6.6-2 .4-.5 1-.7 1.9-.7h19.4c1.2 0 1.8 1 1.8 3.1v1.9c0 2-.6 3-1.8 3h-12.3v14h11.5c1.2 0 1.8 1 1.8 3.2v1.8c0 2-.6 3.1-1.8 3.1h-11.5v18.4c0 .7-.3 1.2-.9 1.6-.5.3-1.5.5-2.8.5h-2.2zm48.4 0c-2.5 0-3.7-.7-3.7-2.1v-20.2l-11.5-25.4-.4-.8-.2-.9c0-.9 1.3-1.3 3.9-1.3h2.9c1 0 1.8 0 2.3.3.7.2 1 .5 1.2 1l6.8 18.6 6.8-18.7c.1-.5.5-.8 1.1-1l2.5-.2h2.3c2.6 0 3.9.4 3.9 1.3 0 .4-.2 1-.5 1.7l-11.5 25.6v20c0 1.4-1.2 2-3.7 2h-2.2zm38 .3c-12.5 0-18.7-8.6-18.7-25.7s6.2-25.7 18.6-25.7c12.3 0 18.5 8.6 18.5 25.7s-6.2 25.7-18.5 25.7zm0-8a7 7 0 006.5-4c1.5-2.8 2.2-7.4 2.2-13.7 0-6.4-.7-11-2.2-13.6a7 7 0 00-6.5-4c-3 0-5.3 1.3-6.7 4a30.4 30.4 0 00-2.2 13.6c0 6.3.7 10.9 2.2 13.6 1.4 2.7 3.7 4 6.7 4zm42.4 8c-5.3 0-9.4-1.3-12.4-4a14 14 0 01-4.5-11v-34c0-1.3 1.2-2 3.7-2h2.2c2.5 0 3.7.7 3.7 2v33.6c0 2.2.7 4 2 5.3 1.3 1.4 3.1 2 5.3 2 2.2 0 4-.6 5.3-2 1.4-1.3 2-3.1 2-5.3v-33.5c0-1.4 1.3-2.1 3.7-2.1h2.2c2.5 0 3.7.7 3.7 2v34a14 14 0 01-4.5 11c-3 2.7-7 4-12.4 4zm29.2-.3c-2.5 0-3.8-.7-3.8-2.1v-45.8c0-1 .2-1.6.6-2 .5-.5 1.1-.7 2-.7h11.6c9.6 0 14.4 4.6 14.4 13.7 0 5.7-2.2 9.8-6.7 12.2v.3c1.9 1 3.5 3.6 4.9 7.8l4.3 13.9a7 7 0 01.2 1c0 1-1.3 1.6-3.9 1.6h-2c-2.3 0-3.6-.6-3.8-1.7l-4-13.8a7.6 7.6 0 00-2-3.4c-.7-.6-1.8-.9-3.4-.9h-2.6v17.8c0 1.4-1.3 2-3.9 2h-2zm10.9-28.7c1.3 0 2.4-.6 3.3-2 .9-1.2 1.3-3 1.3-5.1 0-2.3-.4-4-1.3-5-.9-1.2-2-1.7-3.6-1.7h-5v13.8h5.3zm-263.6 103c-6.6 0-11.5-2-14.5-6.2-3-4.1-4.6-10.7-4.6-19.5 0-8.7 1.6-15.1 4.8-19.3 3.1-4.3 8-6.4 14.5-6.4 2.7 0 4.9.3 6.6 1 .8.2 1.3.6 1.5 1 .3.5.5 1.1.4 2a10 10 0 01-.9 4c-.5 1.3-1.2 1.7-2 1.3a13.5 13.5 0 00-5.2-1 8 8 0 00-7.4 4.3 27.6 27.6 0 00-2.4 13c0 6 .8 10.3 2.4 13.2a8.2 8.2 0 007.6 4.3c1 0 2-.1 2.7-.3a31.7 31.7 0 002.8-.8l.6-.1c.8 0 1.4.5 1.9 1.6.4 1 .6 2.4.6 3.9 0 .7-.1 1.2-.4 1.7-.2.5-.7.8-1.5 1.1l-3.3.9c-1.3.2-2.7.3-4.2.3zm19.4-.3c-2.5 0-3.7-.7-3.7-2.1v-46.5c0-1.4 1.2-2.1 3.7-2.1h2.3c2.4 0 3.6.7 3.6 2v18.7h14.7v-18.6c0-1.4 1.2-2.1 3.6-2.1h2.3c2.5 0 3.7.7 3.7 2v46.6c0 1.4-1.2 2-3.7 2h-2.3c-2.4 0-3.6-.6-3.6-2v-19.7H256V429c0 1.4-1.2 2-3.6 2h-2.3zm56.5.3c-12.4 0-18.6-8.6-18.6-25.7s6.2-25.7 18.6-25.7c12.3 0 18.5 8.6 18.5 25.7s-6.2 25.7-18.5 25.7zm0-8a7 7 0 006.6-4c1.4-2.8 2.1-7.4 2.1-13.7 0-6.4-.7-11-2.1-13.6a7 7 0 00-6.6-4c-3 0-5.2 1.3-6.7 4a30.4 30.4 0 00-2.1 13.6c0 6.3.7 10.9 2.1 13.6 1.5 2.7 3.7 4 6.7 4zm29.7 7.7c-2.4 0-3.6-.7-3.6-2.1v-46.5c0-1.5 1.2-2.2 3.6-2.2h2.4c2.4 0 3.6.7 3.6 2.2V429c0 1.4-1.2 2.1-3.6 2.1h-2.4zm32.6.3c-6.6 0-11.4-2-14.5-6.2-3-4.1-4.5-10.7-4.5-19.5 0-8.7 1.5-15.1 4.7-19.3 3.2-4.3 8-6.4 14.5-6.4 2.7 0 4.9.3 6.7 1 .7.2 1.2.6 1.5 1 .3.5.4 1.1.3 2a10 10 0 01-.8 4c-.5 1.3-1.2 1.7-2.1 1.3a13.5 13.5 0 00-5.2-1 8 8 0 00-7.4 4.3 27.6 27.6 0 00-2.4 13c0 6 .8 10.3 2.4 13.2a8.2 8.2 0 007.6 4.3c1 0 2-.1 2.8-.3a31.7 31.7 0 002.7-.8l.6-.1c.9 0 1.5.5 2 1.6.3 1 .6 2.4.6 3.9 0 .7-.2 1.2-.5 1.7-.2.5-.7.8-1.5 1.1l-3.2.9c-1.4.2-2.8.3-4.3.3zm18.2-.5c-.9 0-1.5-.2-1.9-.6-.4-.4-.6-1-.6-2v-45.1c0-1 .2-1.6.6-2 .4-.5 1-.7 1.9-.7h21c.7 0 1.1.3 1.4.8.3.5.5 1.3.5 2.3v1.9c0 1-.2 1.8-.5 2.4-.3.4-.7.7-1.4.7h-13.9v12.5h12.4c.7 0 1.1.3 1.4.8.3.5.5 1.3.5 2.3v1.9c0 1-.2 1.8-.5 2.4-.3.4-.7.7-1.4.7h-12.4V423h14c.6 0 1 .2 1.3.7.3.5.5 1.3.5 2.4v1.8c0 1.1-.2 2-.5 2.4-.3.5-.7.7-1.3.7h-21.1z"/>
    <path fill="#8C296C" d="M103.4 357.2c-2 0-3-.5-3.1-1.4l-9.7-46.6a2.4 2.4 0 010-.6v-.4c0-1.1 1.3-1.7 3.8-1.7H96c2.5 0 3.9.6 4 1.9l4.5 29.3 1.2 9.9h.3c.2-2.5.7-5.8 1.4-10l5.2-29.7c0-.5.4-.9.8-1 .5-.3 1.3-.4 2.3-.4h2.8c1 0 1.7.1 2.2.3.5.2.9.6 1 1.1l5 29.8c.4 1.9.8 5.2 1.4 10h.3l1.2-10 4.6-29.3c.1-1.3 1.4-2 4-2h1.3c2.6 0 3.8.7 3.8 1.8l-.1 1-9.7 46.6c-.2 1-1.3 1.4-3.1 1.4h-4.1c-2 0-3-.5-3-1.4l-5.1-25.3c-.6-3.2-1-6.8-1.2-11h-.2c-.3 4-.7 7.7-1.3 11l-5 25.3c-.2 1-1.2 1.4-3 1.4h-4.1zm61.1.3c-12.4 0-18.6-8.6-18.6-25.7s6.2-25.7 18.6-25.7c12.4 0 18.5 8.6 18.5 25.7s-6.1 25.7-18.5 25.7zm0-8a7 7 0 006.6-4c1.5-2.8 2.2-7.4 2.2-13.7 0-6.4-.7-11-2.2-13.6a7 7 0 00-6.5-4c-3 0-5.3 1.3-6.7 4a30.4 30.4 0 00-2.2 13.6c0 6.3.8 10.9 2.2 13.6 1.4 2.7 3.7 4 6.7 4zm29.7 7.7c-2.5 0-3.7-.7-3.7-2.1v-45.8c0-1 .2-1.6.6-2 .4-.5 1-.7 1.9-.7h11.6c9.6 0 14.5 4.6 14.5 13.7 0 5.7-2.3 9.8-6.8 12.2v.3c2 1 3.5 3.6 4.9 7.8l4.3 13.9a7 7 0 01.2 1c0 1-1.3 1.6-3.9 1.6h-2c-2.3 0-3.6-.6-3.8-1.7l-4-13.8a7.6 7.6 0 00-2-3.4c-.7-.6-1.8-1-3.4-1H200v17.9c0 1.4-1.3 2-3.8 2h-2zm10.9-28.7c1.3 0 2.4-.6 3.3-2 1-1.2 1.4-3 1.4-5.1 0-2.3-.5-4-1.4-5-.9-1.2-2-1.7-3.6-1.7H200v13.8h5.2zM230 357c-.9 0-1.5-.2-1.9-.6-.4-.4-.6-1-.6-2v-45.1c0-1 .2-1.6.6-2 .4-.5 1-.7 1.9-.7h13c6.2 0 10.7 2 13.8 6.2 3 4 4.5 10.4 4.5 19s-1.5 15-4.5 19.1c-3 4-7.6 6.1-13.7 6.1H230zm12.8-8a7 7 0 006.6-4c1.4-2.7 2.1-7 2.1-13.2s-.7-10.4-2.1-13a7 7 0 00-6.6-4.1h-5.5V349h5.5z"/>
    <path fill="#F1535C" d="M178.4 170.2c-4 0-8-.6-12-1.8-4-1.2-7-2.9-8.8-5-1.1-1.5-1.7-3-1.7-4.3 0-2.4.7-4.7 2-7.2 1.2-2.4 2.5-3.6 4-3.6.7 0 1.8.4 3.2 1.3l3.2 1.7c3.3 1.7 6.1 2.5 8.6 2.5 2.7 0 5-.6 7-1.9s3-3.3 3-6.3c0-3.2-1-5.7-2.8-7.4-2-1.8-5-3.8-9-6a45.5 45.5 0 01-13.8-11.1 25 25 0 01-4.2-15.3c0-5 1-9.5 3.3-13.2 2.3-3.9 5.4-6.8 9.3-8.8 4-2 8.5-3.1 13.6-3.1 2.9 0 5.9.5 9 1.4 3.2.8 5.6 1.8 7.4 3 1.5 1.2 2.2 2.6 2.2 4.5a18 18 0 01-1.5 6.8c-.9 2.5-2 3.7-3.5 3.7-.6 0-1.8-.4-3.6-1-3.2-1.3-6-2-8.1-2-3.5 0-6 .8-7.3 2.3a7.8 7.8 0 00-1.8 5.2c0 3 .8 5.3 2.3 6.8 1.6 1.5 4.2 3.2 7.7 5l3.3 1.8c5.8 3.3 10 7 12.4 10.7 2.6 3.9 3.9 9 3.9 15.2 0 4.6-1 9-3 13-2 3.9-5 7-9.1 9.5-4.1 2.4-9.2 3.6-15.2 3.6zm54.6-.8c-4.8 0-7.2-1.3-7.2-4V98.1h-14a3 3 0 01-2.7-1.5c-.5-1-.8-2.6-.8-4.8V88c0-2.1.3-3.7.8-4.7a3 3 0 012.8-1.5h47.5c1.3 0 2.3.5 2.9 1.5.5 1 .8 2.6.8 4.7v4c0 2-.3 3.7-.8 4.7s-1.6 1.5-3 1.5h-14v67.3c0 2.7-2.3 4-7.2 4h-5zm42.9-.2c-1.6 0-2.8-.4-3.5-1.1-.8-.9-1.1-2.2-1.1-4V86.8c0-1.8.3-3 1.1-3.8.7-.8 2-1.2 3.5-1.2h36.9a3 3 0 012.7 1.5c.6 1 .9 2.6.9 4.7v4c0 2-.3 3.7-.9 4.7a3 3 0 01-2.7 1.5h-22v18h19.5a3 3 0 012.7 1.6c.6 1 .9 2.6.9 4.7v4c0 2-.3 3.7-.9 4.7a3 3 0 01-2.7 1.5h-19.5v20.2h22.1c1.2 0 2.1.5 2.6 1.5.6 1 .9 2.6.9 4.8v3.8c0 2.2-.3 3.8-.9 4.8-.5 1-1.4 1.5-2.6 1.5h-37zm59.6.2c-5 0-7.5-1.3-7.5-4V86.7c0-1.8.4-3 1.2-3.8.8-.8 2-1.2 3.8-1.2h21.7c6.5 0 12.3 2 17.3 5.7 5.1 3.8 7.7 11 7.7 21.7a29 29 0 01-4.4 17c-3 4-6.2 6.8-9.8 8.2a26.6 26.6 0 01-9.6 2.1h-8.6v29c0 2.7-2.5 4-7.5 4h-4.3zm18.3-49c1.9 0 3.6-1 5-2.6s2.1-4.6 2.1-8.7-.7-7-2.1-8.5a6.4 6.4 0 00-5-2.5h-6.6v22.2h6.6zm69.2 49.8c-5.4 0-10.5-.8-15.3-2.5-4.9-1.7-7.3-4.3-7.3-7.8a17.9 17.9 0 013.4-7.6c1-1.2 1.8-1.9 2.7-1.9a8 8 0 012.8 1.3 40 40 0 005.6 2.9c2 .6 4.1 1 6.5 1 3.5 0 6.3-1 8.4-3.2 2-2.1 3.1-5.1 3.1-9 0-4.2-1-7.4-3.2-9.5-2.2-2.1-5.7-3.2-10.5-3.2h-4.4c-1.3 0-2.3-.5-2.9-1.5-.6-1-.9-2.6-.9-4.8v-2.2c0-2.2.3-3.8 1-4.8.5-1 1.5-1.5 2.8-1.5h3.2c3.8 0 6.7-.9 8.8-2.7 2.2-2 3.2-4.5 3.2-7.6 0-3.2-.7-5.7-2.3-7.4-1.6-1.8-4-2.8-7-2.8-2 0-3.9.3-5.3 1a19.7 19.7 0 00-3.7 1.8c-1.2.7-2 1.1-2.4 1.1-1.3 0-2.6-1.1-4.1-3.4a12.3 12.3 0 01-2.2-6c0-3 2.2-5.2 6.5-6.8a46 46 0 0115.8-2.4 24 24 0 0117.1 6c4.3 4 6.4 9.2 6.4 15.9 0 4.2-1 8-3.1 11.2-2.1 3.2-5 5.5-8.5 7v.5A21 21 0 01448 130c2.5 4 3.7 8.5 3.7 13.8 0 8.3-2.6 14.8-7.7 19.5-5 4.7-12 7-21 7z"/>
  </g>
  <defs>
    <clipPath id="ss_step3__clip0">
      <path fill="#fff" d="M0 0h631v508H0z"/>
    </clipPath>
    <filter id="ss_step3__filter0_ii" width="532.2" height="481.6" x="22" y="13.6" color-interpolation-filters="sRGB" filterUnits="userSpaceOnUse">
      <feFlood flood-opacity="0" result="BackgroundImageFix"/>
      <feBlend in="SourceGraphic" in2="BackgroundImageFix" result="shape"/>
      <feColorMatrix in="SourceAlpha" result="hardAlpha" values="0 0 0 0 0 0 0 0 0 0 0 0 0 0 0 0 0 0 127 0"/>
      <feOffset dx="-5" dy="-5"/>
      <feGaussianBlur stdDeviation="11"/>
      <feComposite in2="hardAlpha" k2="-1" k3="1" operator="arithmetic"/>
      <feColorMatrix values="0 0 0 0 0 0 0 0 0 0 0 0 0 0 0 0 0 0 0.16 0"/>
      <feBlend in2="shape" result="effect1_innerShadow"/>
      <feColorMatrix in="SourceAlpha" result="hardAlpha" values="0 0 0 0 0 0 0 0 0 0 0 0 0 0 0 0 0 0 127 0"/>
      <feOffset dx="8" dy="8"/>
      <feGaussianBlur stdDeviation="3"/>
      <feComposite in2="hardAlpha" k2="-1" k3="1" operator="arithmetic"/>
      <feColorMatrix values="0 0 0 0 1 0 0 0 0 1 0 0 0 0 1 0 0 0 1 0"/>
      <feBlend in2="effect1_innerShadow" result="effect2_innerShadow"/>
    </filter>
  </defs>
</svg>
