<svg width="641" height="522" viewBox="0 0 641 522" fill="none" xmlns="http://www.w3.org/2000/svg">
<g id="ss_step1 1">
<g id="Vector" filter="url(#filter0_d)">
<path fill-rule="evenodd" clip-rule="evenodd" d="M572.241 322.52L574.75 454.76C575.24 480.4 554.81 501.56 529.17 501.97L55.1187 507.93C29.4786 508.34 8.25843 487.86 7.76843 462.22L0.00863339 53.24C-0.481368 27.6 19.9483 6.4501 45.5884 6.0401L519.64 0.0700121C545.28 -0.339988 566.5 20.1501 566.98 45.7901L569.59 182.94C604.07 187.59 630.711 217.18 630.711 252.94C630.711 287.77 605.431 316.75 572.241 322.52Z" fill="#FCB72E"/>
</g>
<g id="Vector_2" filter="url(#filter1_ii)">
<path fill-rule="evenodd" clip-rule="evenodd" d="M548.46 308.94V447.39C548.46 470.52 529.68 489.31 506.54 489.31H68.7989C45.6588 489.31 26.8783 470.52 26.8783 447.39V60.62C26.8783 37.48 45.6588 18.6899 68.7989 18.6899H506.54C529.68 18.6899 548.46 37.48 548.46 60.62V196.93C578.88 197.52 603.38 222.39 603.38 252.94C603.38 283.48 578.88 308.35 548.46 308.94Z" fill="#F7F7F7"/>
</g>
<g id="START WITH I OR YOU">
<text fill="#8C296C" xml:space="preserve" style="white-space: pre" font-family="Asap Condensed" font-size="66.6666" font-weight="600" letter-spacing="0em"><tspan x="179.528" y="352.089">I</tspan><tspan x="289.294" y="352.089">YOU</tspan></text>
<text fill="#262626" xml:space="preserve" style="white-space: pre" font-family="Asap Condensed" font-size="66.6666" font-weight="600" letter-spacing="0em"><tspan x="137.569" y="276.089">START WITH&#10;</tspan><tspan x="196.976" y="352.089"> OR </tspan></text>
</g>
<text id="STEP 1" fill="#F1535C" xml:space="preserve" style="white-space: pre" font-family="Asap Condensed" font-size="125" font-weight="bold" letter-spacing="0em"><tspan x="135.142" y="168.883">STEP 1</tspan></text>
</g>
<defs>
<filter id="filter0_d" x="0" y="0.0639648" width="640.711" height="521.872" filterUnits="userSpaceOnUse" color-interpolation-filters="sRGB">
<feFlood flood-opacity="0" result="BackgroundImageFix"/>
<feColorMatrix in="SourceAlpha" type="matrix" values="0 0 0 0 0 0 0 0 0 0 0 0 0 0 0 0 0 0 127 0"/>
<feOffset dx="10" dy="14"/>
<feColorMatrix type="matrix" values="0 0 0 0 0.686275 0 0 0 0 0.333333 0 0 0 0 0.117647 0 0 0 1 0"/>
<feBlend mode="normal" in2="BackgroundImageFix" result="effect1_dropShadow"/>
<feBlend mode="normal" in="SourceGraphic" in2="effect1_dropShadow" result="shape"/>
</filter>
<filter id="filter1_ii" x="21.8783" y="13.6899" width="587.502" height="481.62" filterUnits="userSpaceOnUse" color-interpolation-filters="sRGB">
<feFlood flood-opacity="0" result="BackgroundImageFix"/>
<feBlend mode="normal" in="SourceGraphic" in2="BackgroundImageFix" result="shape"/>
<feColorMatrix in="SourceAlpha" type="matrix" values="0 0 0 0 0 0 0 0 0 0 0 0 0 0 0 0 0 0 127 0" result="hardAlpha"/>
<feOffset dx="-5" dy="-5"/>
<feGaussianBlur stdDeviation="11"/>
<feComposite in2="hardAlpha" operator="arithmetic" k2="-1" k3="1"/>
<feColorMatrix type="matrix" values="0 0 0 0 0 0 0 0 0 0 0 0 0 0 0 0 0 0 0.16 0"/>
<feBlend mode="normal" in2="shape" result="effect1_innerShadow"/>
<feColorMatrix in="SourceAlpha" type="matrix" values="0 0 0 0 0 0 0 0 0 0 0 0 0 0 0 0 0 0 127 0" result="hardAlpha"/>
<feOffset dx="8" dy="8"/>
<feGaussianBlur stdDeviation="3"/>
<feComposite in2="hardAlpha" operator="arithmetic" k2="-1" k3="1"/>
<feColorMatrix type="matrix" values="0 0 0 0 1 0 0 0 0 1 0 0 0 0 1 0 0 0 1 0"/>
<feBlend mode="normal" in2="effect1_innerShadow" result="effect2_innerShadow"/>
</filter>
</defs>
</svg>
