<svg xmlns="http://www.w3.org/2000/svg" viewBox="0 0 631 508">
  <defs/>
  <g clip-path="url(#ss_step1__clip0)">
    <path fill="#FCB72E" fill-rule="evenodd" d="M572.2 322.5l2.5 132.3c.5 25.6-19.9 46.8-45.5 47.2l-474 6c-25.7.3-47-20.1-47.4-45.8L0 53.2A46.3 46.3 0 0145.6 6l474-6c25.7-.3 46.9 20.1 47.4 45.8l2.6 137.1a70.7 70.7 0 012.6 139.6z" clip-rule="evenodd"/>
    <g filter="url(#ss_step1__filter0_ii)">
      <path fill="#F7F7F7" fill-rule="evenodd" d="M548.5 309v138.4a42 42 0 01-42 42H68.8a42 42 0 01-42-42V60.6a42 42 0 0142-42h437.7a42 42 0 0142 42V197a56 56 0 010 112z" clip-rule="evenodd"/>
    </g>
    <path fill="#262626" d="M140.1 308.5c-2.3 0-4.5-.3-6.7-1-2.2-.6-3.9-1.5-5-2.6a10.6 10.6 0 01-.7-1.1c-.2-.4-.2-.8-.2-1.2 0-1.2.3-2.4.8-3.6.6-1.2 1.3-1.8 2-1.8.3 0 .8.1 1.4.5a59.5 59.5 0 001.2.7c2.2 1.3 4.4 2 6.7 2 2 0 3.5-.5 4.8-1.4 1.3-1 2-2.5 2-4.5s-.7-3.5-1.9-4.7a21 21 0 00-5.2-3.5 44.4 44.4 0 01-6-4 14 14 0 01-3.7-4.4c-.9-1.9-1.3-4-1.3-6.6 0-3 .6-5.5 2-7.6a13 13 0 015.2-5 18.8 18.8 0 0117 .7c.7.5 1 1.2 1 2 0 1-.2 2.2-.8 3.5-.5 1.3-1 2-1.8 2l-1.6-.6c-1.8-.7-3.6-1.1-5.4-1.1-2 0-3.6.5-4.7 1.6a5 5 0 00-1.6 3.8c0 1.3.3 2.4.8 3.3a9.2 9.2 0 002.1 2.2 50.9 50.9 0 005 3c3.5 1.8 6 3.8 7.6 6 1.6 2 2.5 5 2.5 8.6 0 2.8-.6 5.3-1.8 7.6-1.2 2.2-3 4-5.3 5.3-2.3 1.3-5 2-8.4 2zm32-.3c-2.5 0-3.7-.7-3.7-2.1v-40.4h-8.8c-.6 0-1.1-.3-1.4-.7-.3-.6-.4-1.4-.4-2.4v-1.9c0-1 .1-1.8.4-2.3.3-.5.8-.8 1.4-.8h27.2c.7 0 1.2.3 1.5.7.3.5.5 1.3.5 2.4v1.9c0 1-.2 1.9-.5 2.4-.3.4-.8.7-1.5.7h-8.7V306c0 1.4-1.3 2-3.7 2H172zm19.2 0c-2.1 0-3.2-.5-3.2-1.5l.2-1.2 11.8-46.2c.3-1.2 1.6-1.8 3.9-1.8h3.8c2.3 0 3.6.6 4 1.8l11.7 46.2.1 1.2c0 1-1 1.5-3 1.5h-2.8c-2 0-3.2-.5-3.4-1.4l-2.3-9.9h-12.5l-2.3 9.9c-.2 1-1.3 1.4-3.1 1.4h-3zm19.4-18.9l-3.9-16.8a59.4 59.4 0 01-.8-5h-.4a59.4 59.4 0 01-.9 5l-3.8 16.8h9.8zm21.5 18.9c-2.5 0-3.7-.7-3.7-2.1v-45.8c0-1 .2-1.6.6-2 .4-.5 1-.7 2-.7h11.5c9.7 0 14.5 4.6 14.5 13.7 0 5.7-2.3 9.8-6.8 12.2v.3c2 1 3.6 3.6 5 7.8l4.2 13.9a7 7 0 01.2 1c0 1-1.2 1.6-3.8 1.6h-2.1c-2.3 0-3.5-.6-3.8-1.7l-4-13.8a7.6 7.6 0 00-2-3.4c-.7-.6-1.8-1-3.3-1H238v17.9c0 1.4-1.3 2-3.8 2h-2zm11-28.7c1.2 0 2.3-.6 3.2-2 1-1.2 1.4-3 1.4-5.1 0-2.3-.5-4-1.4-5-.8-1.2-2-1.7-3.6-1.7H238v13.8h5.2zm33 28.7c-2.5 0-3.7-.7-3.7-2.1v-40.4h-8.8c-.7 0-1.2-.3-1.5-.7-.2-.6-.4-1.4-.4-2.4v-1.9c0-1 .2-1.8.4-2.3.3-.5.8-.8 1.5-.8h27.2c.7 0 1.2.3 1.4.7.4.5.5 1.3.5 2.4v1.9c0 1-.1 1.9-.5 2.4-.2.4-.7.7-1.4.7h-8.8V306c0 1.4-1.2 2-3.7 2h-2.3zm40.8 0c-1.8 0-2.9-.5-3-1.4l-9.7-46.6a2.4 2.4 0 010-.6v-.4c0-1.1 1.2-1.7 3.7-1.7h1.7c2.5 0 3.8.6 4 1.8l4.5 29.4 1.1 9.9h.3l1.5-10 5.1-29.7c.1-.5.4-.9 1-1 .4-.3 1.1-.4 2.1-.4h2.8c1 0 1.8.1 2.3.3.5.2.8.6 1 1.1l5 29.8 1.4 10h.3l1.2-10 4.5-29.4c.2-1.2 1.5-1.8 4-1.8h1.4c2.5 0 3.8.6 3.8 1.7l-.2 1-9.7 46.6c-.2 1-1.2 1.4-3 1.4h-4.2c-1.8 0-2.9-.5-3-1.4l-5-25.3c-.6-3.2-1-6.8-1.2-11h-.3c-.2 4-.6 7.7-1.2 11l-5 25.3c-.2 1-1.2 1.4-3 1.4H317zm49 0c-2.5 0-3.8-.7-3.8-2.1v-46.5c0-1.5 1.3-2.2 3.7-2.2h2.4c2.4 0 3.6.7 3.6 2.2V306c0 1.4-1.2 2.1-3.6 2.1h-2.4zm25.7 0c-2.5 0-3.7-.7-3.7-2.1v-40.4h-8.8c-.7 0-1.1-.3-1.4-.7-.3-.6-.5-1.4-.5-2.4v-1.9c0-1 .2-1.8.5-2.3.3-.5.7-.8 1.4-.8h27.2c.7 0 1.2.3 1.5.7.3.5.5 1.3.5 2.4v1.9c0 1-.2 1.9-.5 2.4-.3.4-.8.7-1.5.7h-8.8V306c0 1.4-1.2 2-3.6 2h-2.3zm25.8 0c-2.4 0-3.6-.7-3.6-2.1v-46.5c0-1.4 1.2-2.1 3.6-2.1h2.4c2.4 0 3.6.7 3.6 2v18.7h14.6v-18.6c0-1.4 1.2-2.1 3.7-2.1h2.3c2.4 0 3.7.7 3.7 2v46.6c0 1.4-1.3 2-3.7 2h-2.3c-2.5 0-3.7-.6-3.7-2v-19.8h-14.6v19.8c0 1.4-1.2 2-3.6 2h-2.4zm-196.4 74.3c-12.4 0-18.6-8.6-18.6-25.7S208.7 331 221 331c12.3 0 18.5 8.6 18.5 25.6 0 17.2-6.2 25.8-18.5 25.8zm0-8a7 7 0 006.6-4c1.4-2.8 2.1-7.4 2.1-13.7 0-6.4-.7-11-2.1-13.6a7 7 0 00-6.6-4c-3 0-5.2 1.3-6.7 4a30.4 30.4 0 00-2.1 13.6c0 6.3.7 10.9 2.1 13.6 1.5 2.7 3.7 4 6.7 4zm29.7 7.7c-2.5 0-3.8-.7-3.8-2.1v-45.8c0-1 .2-1.6.6-2 .4-.5 1-.7 2-.7H261c9.7 0 14.5 4.6 14.5 13.7 0 5.7-2.2 9.8-6.8 12.2v.3c2 1 3.6 3.6 5 7.8l4.3 13.9a7 7 0 01.2 1c0 1-1.3 1.6-4 1.6h-2c-2.3 0-3.5-.6-3.7-1.7l-4-13.8a7.6 7.6 0 00-2-3.4c-.7-.6-1.9-1-3.4-1h-2.7v17.9c0 1.4-1.2 2-3.8 2h-2zm10.8-28.7c1.3 0 2.4-.6 3.4-2 .9-1.2 1.3-3 1.3-5.1 0-2.3-.4-4-1.3-5-1-1.2-2.1-1.7-3.6-1.7h-5v13.8h5.2z"/>
    <path fill="#8C296C" d="M179 382.2c-2.4 0-3.6-.7-3.6-2.1v-46.5c0-1.5 1.2-2.2 3.7-2.2h2.3c2.4 0 3.6.7 3.6 2.2V380c0 1.4-1.2 2.1-3.6 2.1h-2.3zm126.7 0c-2.5 0-3.7-.7-3.7-2.1v-20.2l-11.5-25.4-.4-.8-.2-.9c0-.9 1.3-1.3 3.9-1.3h2.9c1 0 1.8 0 2.3.3.7.2 1 .5 1.2 1l6.8 18.5 6.8-18.6c.1-.5.5-.8 1.2-1l2.4-.2h2.3c2.6 0 3.9.4 3.9 1.3 0 .4-.1 1-.4 1.7l-11.6 25.6v20c0 1.4-1.2 2-3.7 2h-2.2zm38 .3c-12.5 0-18.7-8.6-18.7-25.7s6.2-25.7 18.6-25.7c12.4 0 18.5 8.6 18.5 25.6 0 17.2-6.1 25.8-18.5 25.8zm0-8a7 7 0 006.5-4c1.5-2.8 2.2-7.4 2.2-13.7 0-6.4-.7-11-2.2-13.6a7 7 0 00-6.5-4c-3 0-5.3 1.3-6.7 4a30.4 30.4 0 00-2.2 13.6c0 6.3.8 10.9 2.2 13.6 1.4 2.7 3.7 4 6.7 4zm42.4 8c-5.3 0-9.4-1.3-12.4-4a14 14 0 01-4.5-11v-34c0-1.3 1.2-2 3.7-2h2.2c2.5 0 3.7.7 3.7 2v33.6c0 2.2.7 4 2 5.3 1.4 1.4 3.1 2 5.3 2 2.2 0 4-.6 5.3-2 1.4-1.3 2-3.1 2-5.3v-33.5c0-1.4 1.3-2.1 3.8-2.1h2.1c2.5 0 3.7.7 3.7 2v34a14 14 0 01-4.5 11c-2.9 2.7-7 4-12.4 4z"/>
    <path fill="#F1535C" d="M160.9 170.3c-4 0-8.1-.6-12.1-1.8-4-1.2-7-3-8.8-5-1-1.5-1.6-3-1.6-4.4 0-2.3.6-4.7 1.9-7 1.2-2.5 2.6-3.7 4-3.7.8 0 1.8.4 3.2 1.2l3.3 1.8c3.2 1.6 6 2.5 8.6 2.5 2.7 0 5-.6 7-1.9s3-3.4 3-6.4c0-3.1-1-5.6-2.9-7.3-1.9-1.9-4.9-3.9-9-6a45.5 45.5 0 01-13.7-11.2 25 25 0 01-4.3-15.2c0-5.1 1.1-9.5 3.4-13.3 2.2-3.8 5.3-6.7 9.2-8.7 4-2.1 8.6-3.1 13.7-3.1 2.8 0 5.8.4 9 1.3 3.1.9 5.6 2 7.3 3.2 1.5 1 2.3 2.5 2.3 4.3a18 18 0 01-1.5 7c-1 2.3-2 3.5-3.5 3.5-.7 0-1.9-.3-3.6-1-3.3-1.2-6-1.8-8.2-1.8-3.5 0-5.9.7-7.2 2.2a7.8 7.8 0 00-1.9 5.1c0 3 .8 5.3 2.4 7 1.6 1.4 4.1 3 7.6 5a35.8 35.8 0 0115.8 12.5c2.5 3.7 3.8 8.8 3.8 15 0 4.7-1 9-3 13s-5 7.1-9 9.5c-4.2 2.4-9.2 3.7-15.2 3.7zm54.6-.8c-4.9 0-7.3-1.3-7.3-4V98.1h-13.9a3 3 0 01-2.7-1.5c-.6-1-.9-2.6-.9-4.7V88c0-2.2.3-3.7.9-4.7a3 3 0 012.7-1.5h47.5c1.4 0 2.3.5 3 1.5.5 1 .8 2.5.8 4.7V92c0 2.1-.3 3.7-.9 4.7-.6 1-1.5 1.5-2.9 1.5h-14v67.4c0 2.7-2.4 4-7.2 4h-5.1zm42.8-.2c-1.5 0-2.7-.4-3.5-1.2-.7-.8-1-2-1-3.8V86.8c0-1.8.3-3 1-3.8.8-.8 2-1.2 3.5-1.2h37a3 3 0 012.7 1.5c.6 1 .8 2.5.8 4.7V92c0 2.1-.2 3.7-.8 4.7a3 3 0 01-2.8 1.5h-22v18.2h19.5a3 3 0 012.8 1.5c.6 1 .8 2.5.8 4.7v3.9c0 2.1-.2 3.7-.8 4.7a3 3 0 01-2.8 1.5h-19.5V153h22.1c1.3 0 2.2.5 2.7 1.5.6 1 .8 2.6.8 4.7v4c0 2-.2 3.7-.8 4.7-.5 1-1.4 1.5-2.7 1.5h-37zm59.7.2c-5 0-7.5-1.3-7.5-4V86.8c0-1.8.3-3 1.1-3.8.8-.8 2.1-1.2 3.9-1.2H337c6.6 0 12.4 1.9 17.4 5.7 5 3.8 7.6 11 7.6 21.6a29 29 0 01-4.4 17.2c-2.9 4-6.1 6.7-9.7 8a26.6 26.6 0 01-9.7 2.2h-8.6v29c0 2.7-2.5 4-7.5 4H318zm18.2-49.1c2 0 3.6-.9 5-2.5 1.4-1.7 2.1-4.6 2.1-8.8 0-4-.7-6.9-2-8.5a6.4 6.4 0 00-5-2.5h-6.7v22.3h6.6zm53 48.9c-1.3 0-2.3-.5-2.8-1.5-.6-1-1-2.6-1-4.8V161c0-2.2.4-3.8 1-4.8s1.5-1.5 2.8-1.5h13.4v-56l-13.5 1.8c-1.4 0-2.4-1.1-3.1-3.4a29.3 29.3 0 01-.9-7.1c0-2 1.1-3.1 3.3-3.5l27.6-5.1c1 0 2.2.3 3.4 1 1.1.5 1.7 1.2 1.7 2v70.3H433c1.3 0 2.3.5 2.8 1.5.6 1 1 2.6 1 4.8v2.1c0 2.2-.4 3.8-1 4.8s-1.5 1.5-2.8 1.5h-43.7z"/>
  </g>
  <defs>
    <clipPath id="ss_step1__clip0">
      <path fill="#fff" d="M0 0h631v508H0z"/>
    </clipPath>
    <filter id="ss_step1__filter0_ii" width="587.5" height="481.6" x="21.9" y="13.7" color-interpolation-filters="sRGB" filterUnits="userSpaceOnUse">
      <feFlood flood-opacity="0" result="BackgroundImageFix"/>
      <feBlend in="SourceGraphic" in2="BackgroundImageFix" result="shape"/>
      <feColorMatrix in="SourceAlpha" result="hardAlpha" values="0 0 0 0 0 0 0 0 0 0 0 0 0 0 0 0 0 0 127 0"/>
      <feOffset dx="-5" dy="-5"/>
      <feGaussianBlur stdDeviation="11"/>
      <feComposite in2="hardAlpha" k2="-1" k3="1" operator="arithmetic"/>
      <feColorMatrix values="0 0 0 0 0 0 0 0 0 0 0 0 0 0 0 0 0 0 0.16 0"/>
      <feBlend in2="shape" result="effect1_innerShadow"/>
      <feColorMatrix in="SourceAlpha" result="hardAlpha" values="0 0 0 0 0 0 0 0 0 0 0 0 0 0 0 0 0 0 127 0"/>
      <feOffset dx="8" dy="8"/>
      <feGaussianBlur stdDeviation="3"/>
      <feComposite in2="hardAlpha" k2="-1" k3="1" operator="arithmetic"/>
      <feColorMatrix values="0 0 0 0 1 0 0 0 0 1 0 0 0 0 1 0 0 0 1 0"/>
      <feBlend in2="effect1_innerShadow" result="effect2_innerShadow"/>
    </filter>
  </defs>
</svg>
