<svg width="641" height="522" viewBox="0 0 641 522" fill="none" xmlns="http://www.w3.org/2000/svg">
<g id="ss_step2" clip-path="url(#clip0)">
<g id="Vector" filter="url(#filter0_d)">
<path fill-rule="evenodd" clip-rule="evenodd" d="M572.333 185.425L574.842 53.1754C575.322 27.5354 554.902 6.3855 529.252 5.97549L55.5808 0.00552368C29.9307 -0.40448 8.72049 20.0753 8.23049 45.7253L5.32032 199.195C33.9604 201.665 56.4709 225.725 56.4709 255.005C56.4709 285.005 32.8408 309.525 3.20068 310.955L0.46044 454.695C-0.0195616 480.335 20.4008 501.495 46.0509 501.905L519.723 507.865C545.373 508.275 566.582 487.795 567.072 462.145L569.672 324.995C604.163 320.345 630.793 290.765 630.793 255.005C630.793 220.165 605.523 191.195 572.333 185.425Z" fill="#FCB72E"/>
</g>
<g id="Vector_2" filter="url(#filter1_ii)">
<path fill-rule="evenodd" clip-rule="evenodd" d="M548.263 198.995V60.5555C548.263 37.4155 529.472 18.6255 506.332 18.6255H68.9708C45.8308 18.6255 27.0405 37.4155 27.0405 60.5555V189.555C52.8606 200.065 71.0905 225.425 71.0905 255.005C71.0905 284.585 52.8606 309.935 27.0405 320.445V447.315C27.0405 470.465 45.8308 489.245 68.9708 489.245H506.332C529.472 489.245 548.263 470.465 548.263 447.315V311.015C578.673 310.425 603.183 285.555 603.183 255.005C603.183 224.455 578.673 199.585 548.263 198.995Z" fill="#F7F7F7"/>
</g>
<g id="CHOSE: AM OR ARE">
<text fill="#262626" xml:space="preserve" style="white-space: pre" font-family="Asap Condensed" font-size="66.6666" font-weight="600" letter-spacing="0em"><tspan x="193.037" y="282.089">CHOSE:&#13;&#10;</tspan><tspan x="233.435" y="358.089"> OR</tspan></text>
<text fill="#8C296C" xml:space="preserve" style="white-space: pre" font-family="Asap Condensed" font-size="66.6666" font-weight="600" letter-spacing="0em"><tspan x="153.812" y="358.089">AM</tspan><tspan x="316.638" y="358.089"> ARE</tspan></text>
</g>
<text id="STEP 2" fill="#F1535C" xml:space="preserve" style="white-space: pre" font-family="Asap Condensed" font-size="125" font-weight="bold" letter-spacing="0em"><tspan x="152.464" y="168.817">STEP 2</tspan></text>
</g>
<defs>
<filter id="filter0_d" x="0.452148" y="-0.000488281" width="640.341" height="521.872" filterUnits="userSpaceOnUse" color-interpolation-filters="sRGB">
<feFlood flood-opacity="0" result="BackgroundImageFix"/>
<feColorMatrix in="SourceAlpha" type="matrix" values="0 0 0 0 0 0 0 0 0 0 0 0 0 0 0 0 0 0 127 0"/>
<feOffset dx="10" dy="14"/>
<feColorMatrix type="matrix" values="0 0 0 0 0.686275 0 0 0 0 0.333333 0 0 0 0 0.117647 0 0 0 1 0"/>
<feBlend mode="normal" in2="BackgroundImageFix" result="effect1_dropShadow"/>
<feBlend mode="normal" in="SourceGraphic" in2="effect1_dropShadow" result="shape"/>
</filter>
<filter id="filter1_ii" x="22.0405" y="13.6255" width="587.142" height="481.62" filterUnits="userSpaceOnUse" color-interpolation-filters="sRGB">
<feFlood flood-opacity="0" result="BackgroundImageFix"/>
<feBlend mode="normal" in="SourceGraphic" in2="BackgroundImageFix" result="shape"/>
<feColorMatrix in="SourceAlpha" type="matrix" values="0 0 0 0 0 0 0 0 0 0 0 0 0 0 0 0 0 0 127 0" result="hardAlpha"/>
<feOffset dx="-5" dy="-5"/>
<feGaussianBlur stdDeviation="11"/>
<feComposite in2="hardAlpha" operator="arithmetic" k2="-1" k3="1"/>
<feColorMatrix type="matrix" values="0 0 0 0 0 0 0 0 0 0 0 0 0 0 0 0 0 0 0.16 0"/>
<feBlend mode="normal" in2="shape" result="effect1_innerShadow"/>
<feColorMatrix in="SourceAlpha" type="matrix" values="0 0 0 0 0 0 0 0 0 0 0 0 0 0 0 0 0 0 127 0" result="hardAlpha"/>
<feOffset dx="8" dy="8"/>
<feGaussianBlur stdDeviation="3"/>
<feComposite in2="hardAlpha" operator="arithmetic" k2="-1" k3="1"/>
<feColorMatrix type="matrix" values="0 0 0 0 1 0 0 0 0 1 0 0 0 0 1 0 0 0 1 0"/>
<feBlend mode="normal" in2="effect1_innerShadow" result="effect2_innerShadow"/>
</filter>
<clipPath id="clip0">
<rect width="641" height="522" fill="white" transform="translate(0 -0.000488281)"/>
</clipPath>
</defs>
</svg>
