<svg xmlns="http://www.w3.org/2000/svg" viewBox="0 0 632 508">
  <defs/>
  <g clip-path="url(#ss_step2__clip0)">
    <path fill="#FCB72E" fill-rule="evenodd" d="M572.8 185.4l2.5-132.2c.5-25.7-19.9-46.8-45.5-47.2L56 0A46.7 46.7 0 008.7 45.7L5.8 199.2A56 56 0 013.7 311L1 454.7a46.3 46.3 0 0045.6 47.2l473.6 6c25.7.4 46.9-20.1 47.4-45.8l2.6-137.1a70.7 70.7 0 002.6-139.6z" clip-rule="evenodd"/>
    <g filter="url(#ss_step2__filter0_ii)">
      <path fill="#F7F7F7" fill-rule="evenodd" d="M548.8 199V60.6a42 42 0 00-42-42H69.5a42 42 0 00-42 42v129a70.7 70.7 0 010 130.8v127a42 42 0 0042 41.8h437.3a42 42 0 0042-41.9V311a56 56 0 000-112z" clip-rule="evenodd"/>
    </g>
    <path fill="#262626" d="M207.4 308.5c-6.6 0-11.5-2-14.5-6.2-3-4.1-4.6-10.7-4.6-19.5 0-8.7 1.6-15.1 4.8-19.3 3.1-4.3 8-6.4 14.5-6.4 2.7 0 4.9.3 6.6 1 .8.2 1.3.6 1.6 1 .2.5.4 1.1.3 2a10 10 0 01-.9 4c-.5 1.3-1.2 1.7-2 1.3a13.5 13.5 0 00-5.2-1 8 8 0 00-7.4 4.3 27.6 27.6 0 00-2.4 13c0 6 .8 10.3 2.4 13.2a8.2 8.2 0 007.6 4.3c1 0 2-.1 2.7-.3a31.7 31.7 0 002.8-.8l.6-.1c.8 0 1.4.5 1.9 1.6.4 1 .6 2.4.6 3.9 0 .7-.1 1.2-.4 1.7-.2.5-.7.8-1.5 1.1l-3.3.9c-1.3.2-2.7.3-4.2.3zm19.4-.3c-2.5 0-3.7-.7-3.7-2.1v-46.5c0-1.4 1.2-2.1 3.7-2.1h2.3c2.4 0 3.6.7 3.6 2v18.7h14.7v-18.6c0-1.4 1.2-2.1 3.6-2.1h2.3c2.5 0 3.7.7 3.7 2v46.6c0 1.4-1.2 2-3.7 2H251c-2.4 0-3.6-.6-3.6-2v-19.7h-14.7V306c0 1.4-1.2 2-3.6 2h-2.3zm56.5.3c-12.4 0-18.6-8.6-18.6-25.7s6.2-25.7 18.6-25.7c12.3 0 18.5 8.6 18.5 25.7s-6.2 25.7-18.5 25.7zm0-8a7 7 0 006.6-4c1.4-2.8 2.1-7.4 2.1-13.7 0-6.4-.7-11-2.1-13.6a7 7 0 00-6.6-4c-3 0-5.2 1.3-6.7 4a30.4 30.4 0 00-2.1 13.6c0 6.3.7 10.9 2.1 13.6 1.5 2.7 3.7 4 6.7 4zm36.1 8c-2.3 0-4.5-.3-6.7-1-2.2-.6-3.9-1.5-5-2.6a10.6 10.6 0 01-.7-1.1c-.2-.4-.2-.8-.2-1.2 0-1.2.3-2.4.8-3.6.6-1.2 1.3-1.8 2-1.8.3 0 .8.1 1.4.5a59.5 59.5 0 001.2.7c2.2 1.3 4.4 2 6.7 2 2 0 3.5-.5 4.8-1.4 1.3-1 2-2.5 2-4.5s-.7-3.5-1.9-4.7a21 21 0 00-5.2-3.5 44.4 44.4 0 01-6-4 14 14 0 01-3.7-4.4c-.9-1.9-1.3-4-1.3-6.6 0-3 .6-5.5 2-7.6a13 13 0 015.2-5 18.8 18.8 0 0117 .7c.7.5 1 1.2 1 2 0 1-.2 2.2-.8 3.5-.5 1.3-1 2-1.8 2l-1.6-.6c-1.8-.7-3.6-1.1-5.4-1.1-2 0-3.6.5-4.7 1.6a5 5 0 00-1.6 3.8c0 1.3.3 2.4.8 3.3a9.2 9.2 0 002.1 2.2 50.9 50.9 0 005 3c3.5 1.8 6 3.8 7.6 6 1.6 2 2.5 5 2.5 8.6 0 2.8-.6 5.3-1.8 7.6-1.2 2.2-3 4-5.3 5.3-2.3 1.3-5 2-8.4 2zm24-.5c-1 0-1.6-.2-2-.6-.3-.4-.5-1-.5-2v-45.1c0-1 .2-1.6.5-2 .4-.5 1-.7 2-.7h21c.6 0 1 .3 1.4.8.3.5.4 1.3.4 2.3v1.9c0 1-.1 1.8-.4 2.4-.3.4-.8.7-1.5.7h-13.9v12.5h12.4c.7 0 1.2.3 1.5.8.3.5.4 1.3.4 2.3v1.9c0 1-.1 1.8-.4 2.4-.3.4-.8.7-1.5.7h-12.4V300h14c.6 0 1 .2 1.4.7.3.5.4 1.3.4 2.4v1.8c0 1.1-.1 2-.4 2.4-.3.5-.8.7-1.4.7h-21zm31.5-27.7c-2.5 0-3.7-.7-3.7-2v-6c0-1.4 1.2-2 3.7-2h2c2.4 0 3.6.6 3.6 2v6c0 1.3-1.2 2-3.6 2h-2zm0 27.9c-2.5 0-3.7-.7-3.7-2.1v-6c0-1.3 1.2-2 3.7-2h2c2.4 0 3.6.7 3.6 2v6c0 1.4-1.2 2-3.6 2h-2zm-114.5 74.3c-12.3 0-18.5-8.6-18.5-25.7S248 331 260.4 331c12.4 0 18.5 8.6 18.5 25.7s-6.1 25.7-18.5 25.7zm.1-8a7 7 0 006.6-4c1.4-2.8 2.1-7.4 2.1-13.7 0-6.4-.7-11-2.1-13.6a7 7 0 00-6.6-4c-3 0-5.2 1.3-6.7 4a30.4 30.4 0 00-2.1 13.6c0 6.3.7 10.9 2.1 13.6 1.5 2.7 3.7 4 6.7 4zm29.6 7.7c-2.4 0-3.7-.7-3.7-2.1v-45.8c0-1 .2-1.6.6-2 .4-.5 1-.7 2-.7h11.5c9.7 0 14.5 4.6 14.5 13.7 0 5.7-2.3 9.8-6.8 12.2v.3c2 1 3.6 3.6 5 7.8l4.2 13.9a7 7 0 01.3 1c0 1-1.3 1.6-4 1.6h-2c-2.3 0-3.5-.6-3.8-1.7l-4-13.8a7.6 7.6 0 00-2-3.4c-.7-.6-1.8-1-3.3-1h-2.7v17.9c0 1.4-1.3 2-3.8 2h-2zm11-28.7c1.2 0 2.3-.6 3.2-2 1-1.2 1.4-3 1.4-5.1 0-2.3-.5-4-1.4-5-.8-1.2-2-1.7-3.6-1.7h-4.9v13.8h5.2z"/>
    <path fill="#8C296C" d="M146.6 382.2c-2.1 0-3.2-.5-3.2-1.5l.2-1.2 11.8-46.2c.3-1.2 1.6-1.8 3.9-1.8h3.8c2.3 0 3.6.6 4 1.8l11.7 46.2.1 1.2c0 1-1 1.5-3 1.5h-2.8c-2 0-3.2-.5-3.4-1.4l-2.3-9.9H155l-2.3 9.9c-.2 1-1.2 1.4-3.1 1.4h-2.9zm19.4-18.9l-3.8-16.8a59.4 59.4 0 01-1-5h-.3a59.4 59.4 0 01-.8 5l-3.9 16.8h9.8zm37.3 2.2c-.6 0-1.1 0-1.5-.3-.4-.2-.7-.6-1-1.1l-6.3-12.2a79.2 79.2 0 00-1.7-3.9h-.3l.4 4.4v27.7c0 .7-.3 1.2-.9 1.6-.6.3-1.5.5-2.8.5h-2c-1.2 0-2.2-.2-2.7-.5-.6-.4-.9-.9-.9-1.6v-46.5c0-.8.3-1.3.9-1.6.5-.4 1.5-.5 2.8-.5h2c1 0 1.8.1 2.4.4.5.3 1 .8 1.3 1.4L203 352l1.3 3.5a13 13 0 011.2-3.5l9.8-18.8c.3-.6.8-1.1 1.4-1.4.6-.3 1.4-.4 2.4-.4h2c1.3 0 2.2.1 2.8.5.6.3.8.8.8 1.6V380c0 .7-.2 1.2-.8 1.6-.6.3-1.5.5-2.8.5H219c-1.3 0-2.2-.2-2.8-.5-.6-.4-.9-.9-.9-1.6v-27.7c0-1 .2-2.4.5-4.4h-.3l-1.8 3.9-6.4 12.2a3 3 0 01-1 1.1 3 3 0 01-1.4.3h-1.7zm129 16.7c-2.1 0-3.2-.5-3.2-1.5l.2-1.2 11.8-46.2c.3-1.2 1.6-1.8 3.9-1.8h3.8c2.3 0 3.6.6 4 1.8l11.7 46.2.1 1.2c0 1-1 1.5-3 1.5h-2.8c-2 0-3.2-.5-3.4-1.4l-2.3-9.9h-12.5l-2.3 9.9c-.2 1-1.3 1.4-3.1 1.4h-2.9zm19.4-18.9l-3.8-16.8a59.4 59.4 0 01-1-5h-.3a59.4 59.4 0 01-.8 5l-3.9 16.8h9.8zm21.6 18.9c-2.5 0-3.8-.7-3.8-2.1v-45.8c0-1 .2-1.6.6-2 .4-.5 1-.7 2-.7h11.5c9.7 0 14.5 4.6 14.5 13.7 0 5.7-2.3 9.8-6.8 12.2v.3c2 1 3.6 3.6 5 7.8l4.2 13.9a7 7 0 01.3 1c0 1-1.3 1.6-4 1.6h-2c-2.3 0-3.5-.6-3.8-1.7l-4-13.8a7.6 7.6 0 00-2-3.4c-.7-.6-1.8-.9-3.3-.9H379v17.8c0 1.4-1.3 2-3.8 2h-2zm10.8-28.7c1.3 0 2.4-.6 3.3-2 1-1.2 1.4-3 1.4-5.1 0-2.3-.4-4-1.4-5-.8-1.2-2-1.7-3.6-1.7H379v13.8h5.2zm25 28.5c-.9 0-1.5-.2-1.9-.6-.4-.4-.6-1-.6-2v-45.1c0-1 .2-1.6.6-2 .4-.5 1-.7 1.9-.7h21c.7 0 1.2.3 1.5.8.2.5.4 1.3.4 2.3v1.9c0 1-.2 1.8-.4 2.4-.3.4-.8.7-1.5.7h-13.9v12.5h12.4c.7 0 1.2.3 1.4.8.3.5.5 1.3.5 2.3v1.9c0 1-.2 1.8-.5 2.4-.2.4-.7.7-1.4.7h-12.4V374h14c.6 0 1 .2 1.4.7.2.5.4 1.3.4 2.4v1.8c0 1.1-.2 2-.4 2.4-.3.5-.8.7-1.4.7H409z"/>
    <path fill="#F1535C" d="M178.7 170.2c-4 0-8.1-.6-12.1-1.8-4-1.2-7-2.9-8.8-5-1-1.5-1.6-3-1.6-4.3 0-2.4.6-4.7 1.9-7.2 1.2-2.4 2.6-3.6 4.1-3.6.7 0 1.7.4 3.1 1.3l3.3 1.7c3.2 1.7 6.1 2.5 8.6 2.5 2.7 0 5-.6 7-1.9s3-3.3 3-6.3c0-3.2-1-5.7-2.9-7.4-1.9-1.8-4.9-3.8-9-6a45.4 45.4 0 01-13.7-11.1 25 25 0 01-4.3-15.3c0-5 1.2-9.5 3.4-13.2 2.3-3.9 5.3-6.8 9.3-8.8 4-2 8.5-3.1 13.6-3.1 2.8 0 5.8.5 9 1.4 3.2.8 5.6 1.8 7.4 3 1.5 1.2 2.2 2.6 2.2 4.5a18 18 0 01-1.5 6.8c-.9 2.5-2 3.7-3.5 3.7-.7 0-1.9-.4-3.6-1-3.3-1.3-6-2-8.1-2-3.5 0-6 .8-7.3 2.3a7.8 7.8 0 00-1.9 5.2c0 3 .8 5.3 2.4 6.8 1.6 1.5 4.1 3.2 7.6 5l3.4 1.8c5.8 3.3 9.9 7 12.4 10.7 2.6 3.9 3.9 9 3.9 15.2 0 4.6-1 9-3 13-2 3.9-5 7-9.2 9.5-4 2.4-9 3.6-15 3.6zm54.6-.8c-4.9 0-7.3-1.3-7.3-4V98.1h-13.8a3 3 0 01-2.8-1.5c-.6-1-.9-2.6-.9-4.8V88c0-2.1.3-3.7.9-4.7a3 3 0 012.8-1.5h47.5c1.3 0 2.2.5 2.8 1.5.6 1 .9 2.6.9 4.7v4c0 2-.3 3.7-.9 4.7-.6 1-1.5 1.5-2.8 1.5h-14v67.3c0 2.7-2.5 4-7.3 4h-5.1zm42.9-.2c-1.6 0-2.8-.4-3.5-1.1-.8-.9-1.2-2.2-1.2-4V86.8c0-1.8.4-3 1.2-3.8.7-.8 1.9-1.2 3.5-1.2H313a3 3 0 012.8 1.5c.6 1 .9 2.6.9 4.7v4c0 2-.3 3.7-1 4.7S314.4 98 313 98h-22v18h19.5a3 3 0 012.8 1.6c.6 1 .9 2.6.9 4.7v4c0 2-.3 3.7-1 4.7s-1.4 1.5-2.7 1.5H291v20.2h22.2c1.2 0 2 .5 2.6 1.5.6 1 .9 2.6.9 4.8v3.8c0 2.2-.3 3.8-1 4.8-.4 1-1.3 1.5-2.5 1.5h-37zm59.6.2c-5 0-7.5-1.3-7.5-4V86.7c0-1.8.4-3 1.1-3.8.9-.8 2.1-1.2 3.9-1.2h21.6c6.6 0 12.4 2 17.4 5.7 5 3.8 7.6 11 7.6 21.7a29 29 0 01-4.4 17c-2.9 4-6.1 6.8-9.7 8.2a26.6 26.6 0 01-9.6 2.1h-8.7v29c0 2.7-2.5 4-7.5 4h-4.2zm18.2-49c2 0 3.6-1 5-2.6 1.5-1.6 2.2-4.6 2.2-8.7s-.7-7-2.2-8.5a6.4 6.4 0 00-5-2.5h-6.6v22.2h6.6zm50.2 48.8c-.8 0-1.6-1.3-2.4-3.9-.7-2.6-1.1-5-1.1-7.1 0-1 .1-1.5.4-1.9l27.2-39.6c1.8-2.6 3-4.8 3.8-6.8.7-2 1-3.9 1-5.7 0-3-.8-5-2.7-6.5a10.6 10.6 0 00-7-2.3c-2.2 0-4.1.4-6 1.2a30 30 0 00-5.3 2.7c-1.6 1-2.7 1.5-3.3 1.5-1.8 0-3.5-1-5-3a9.9 9.9 0 01-2.1-5.6c0-3.5 2.5-6.3 7.6-8.4 5.1-2 10.7-3.1 16.9-3.1 8.2 0 14.6 2.1 19 6.4 4.5 4.1 6.7 9.6 6.7 16.5 0 6.5-2.2 12.8-6.6 19l-21.6 32h25.1c1.3 0 2.3.5 2.9 1.5.6 1 .9 2.6.9 4.7v2.1c0 2.2-.3 3.8-1 4.8s-1.5 1.5-2.8 1.5h-44.6z"/>
  </g>
  <defs>
    <clipPath id="ss_step2__clip0">
      <path fill="#fff" d="M0 0h631v508H0z" transform="translate(.5)"/>
    </clipPath>
    <filter id="ss_step2__filter0_ii" width="587.1" height="481.6" x="22.5" y="13.6" color-interpolation-filters="sRGB" filterUnits="userSpaceOnUse">
      <feFlood flood-opacity="0" result="BackgroundImageFix"/>
      <feBlend in="SourceGraphic" in2="BackgroundImageFix" result="shape"/>
      <feColorMatrix in="SourceAlpha" result="hardAlpha" values="0 0 0 0 0 0 0 0 0 0 0 0 0 0 0 0 0 0 127 0"/>
      <feOffset dx="-5" dy="-5"/>
      <feGaussianBlur stdDeviation="11"/>
      <feComposite in2="hardAlpha" k2="-1" k3="1" operator="arithmetic"/>
      <feColorMatrix values="0 0 0 0 0 0 0 0 0 0 0 0 0 0 0 0 0 0 0.16 0"/>
      <feBlend in2="shape" result="effect1_innerShadow"/>
      <feColorMatrix in="SourceAlpha" result="hardAlpha" values="0 0 0 0 0 0 0 0 0 0 0 0 0 0 0 0 0 0 127 0"/>
      <feOffset dx="8" dy="8"/>
      <feGaussianBlur stdDeviation="3"/>
      <feComposite in2="hardAlpha" k2="-1" k3="1" operator="arithmetic"/>
      <feColorMatrix values="0 0 0 0 1 0 0 0 0 1 0 0 0 0 1 0 0 0 1 0"/>
      <feBlend in2="effect1_innerShadow" result="effect2_innerShadow"/>
    </filter>
  </defs>
</svg>
