<svg xmlns="http://www.w3.org/2000/svg" fill="none" viewBox="0 0 1068 672">
  <defs/>
  <g id="Group">
    <g id="Group_2">
      <g id="Group 465">
        <g id="cargo">
          <g id="Group 18">
            <g id="Group 19">
              <path id="Vector 57" fill="url(#paint0_linear)" d="M203.2 103.2l-22.8-13.4c-1.2-.6-2.7-.6-4.4.4-3.9 2.2-7 8-7.1 13.1 0 2.9.8 4.8 2.3 5.7l22.5 13.3.8-1.5a7 7 0 001-.5c3.8-2.2 7-8 7-13.2l-.1-2.3.8-1.6z"/>
              <path id="Vector 58" fill="url(#paint1_linear)" d="M205.4 108.8c0-5-3-7.5-6.9-5.3-3.8 2.1-7 8-7 13.1-.1 5.1 3 7.5 6.8 5.4 3.9-2.2 7-8 7.1-13.2z"/>
              <path id="Vector 59" fill="url(#paint2_linear)" d="M202.8 110.3c0-3.2-1.9-4.7-4.3-3.3-2.4 1.3-4.4 5-4.4 8.2 0 3.1 1.9 4.6 4.3 3.3 2.4-1.4 4.3-5 4.4-8.2z"/>
            </g>
            <g id="Group 20">
              <path id="Vector 60" fill="url(#paint3_linear)" d="M218.6 56.6l-22.8-13.4c-1.2-.7-2.7-.6-4.4.3-3.9 2.2-7 8-7.1 13.2 0 2.8.9 4.8 2.3 5.6l22.5 13.3.8-1.5a7 7 0 001-.5c3.9-2.1 7-8 7.1-13.1 0-.9 0-1.6-.2-2.3l.8-1.6z"/>
              <path id="Vector 61" fill="url(#paint4_linear)" d="M220.8 62.2c.1-5.1-3-7.5-6.8-5.4-3.9 2.2-7 8-7.1 13.2 0 5 3 7.5 6.8 5.3 3.9-2.2 7-8 7.1-13.1z"/>
              <path id="Vector 62" fill="url(#paint5_linear)" d="M218.2 63.6c0-3.1-1.9-4.6-4.3-3.3-2.4 1.4-4.4 5-4.4 8.2 0 3.2 1.9 4.7 4.3 3.3 2.4-1.3 4.4-5 4.4-8.2z"/>
            </g>
            <path id="Vector 63" fill="url(#paint6_linear)" d="M137.4 100.1l65-83.4 17.3 10.4-35.6 104-46.7-31z"/>
            <g id="Group 21">
              <path id="Vector 64" fill="url(#paint7_linear)" d="M122.7 154.2l-22.8-13.4c-1.2-.7-2.7-.6-4.4.3-3.9 2.2-7 8-7.1 13.2 0 2.8.8 4.8 2.3 5.6l22.5 13.3.8-1.5a7 7 0 001-.5c3.8-2.1 7-8 7-13.1l-.1-2.3.8-1.6z"/>
              <path id="Vector 65" fill="url(#paint8_linear)" d="M125 159.8c0-5.1-3.1-7.5-7-5.4-3.8 2.2-7 8-7 13.2-.1 5 3 7.5 6.8 5.3 3.9-2.1 7-8 7.1-13.1z"/>
              <path id="Vector 66" fill="url(#paint9_linear)" d="M122.3 161.2c0-3.1-1.9-4.6-4.3-3.3-2.4 1.4-4.4 5-4.4 8.2 0 3.2 1.9 4.7 4.3 3.3 2.4-1.3 4.3-5 4.4-8.2z"/>
            </g>
            <g id="Group 22">
              <path id="Vector 67" fill="url(#paint10_linear)" d="M67.5 155.4L44.7 142c-1.2-.6-2.7-.6-4.4.4-3.8 2.2-7 8-7 13.2-.1 2.8.8 4.7 2.3 5.6L58 174.5l.7-1.5 1-.5c3.9-2.2 7-8 7.1-13.2 0-.8 0-1.6-.2-2.3l.8-1.6z"/>
              <path id="Vector 68" fill="url(#paint11_linear)" d="M69.8 161c0-5-3-7.5-6.9-5.3-3.9 2.2-7 8-7.1 13.1 0 5.1 3 7.5 6.9 5.4 3.8-2.2 7-8 7-13.2z"/>
              <path id="Vector 69" fill="url(#paint12_linear)" d="M67.1 162.5c0-3.2-1.8-4.7-4.2-3.3-2.4 1.3-4.4 5-4.5 8.2 0 3.1 2 4.6 4.3 3.3 2.4-1.4 4.4-5 4.4-8.2z"/>
            </g>
            <path id="Vector 70" fill="#FFC538" d="M86.2 77.4l7.2-29.8-13.7-8L62 63.1l24.2 14.2z"/>
            <path id="Vector 71" fill="url(#paint13_linear)" d="M230.4 168s9.7 8.5 9.6 12.2c0 0 .8 7.7-4.2 10.5 0 0-13.9 9.8-32 2.3 0 0-26-12.4-54-31.9-14.6-10.1-48.2-42-75.1-70.4l-21.2-23a6.5 6.5 0 017.8-10L189 128.2a109 109 0 0141.4 39.8z"/>
            <path id="Vector 72" fill="url(#paint14_linear)" d="M91.7 79.3L67.6 13.8 46 1l10.7 57.6 35 20.7z"/>
            <path id="Vector 73" fill="#FFC538" d="M77.3 83.4l-44.7-.6-12-7.1L59 66.5l18.3 16.9z"/>
            <path id="Vector 74" fill="#43386B" d="M228.7 165.2a109 109 0 00-10.7-14c.6 2 0 5.3-2.1 7.3-5.3 4.9-22.5 6-30.9 3-4.6-1.5-7-3-7-3l5 10.5s11.7 10 27.7 7.4c10.5-1.7 15.6-6.6 18-11.2z"/>
            <path id="Vector 75" fill="#FFC538" d="M112 120.9L.8 144.8l18.8 11.1H145a32 32 0 00-13.9-22.3L112 121z"/>
          </g>
        </g>
      </g>
      <g id="Group 462">
        <g id="Group 2">
          <g id="Vector 26">
            <path id="Vector" fill="#8C296C" d="M245.2 654l100.3-13.8c4-.6 4.3-7.5 3.9-10.3L320 416.8c-.4-2.8-3-4.8-6-4.4l-100.3 13.8c-2.9.4-4.9 3-4.5 5.8l29.3 213.2c.4 2.8 2.1 9.4 6.6 8.8z"/>
          </g>
          <g id="Vector 27" opacity=".5">
            <path id="Vector_2" fill="url(#paint15_linear)" d="M342.4 642.1l-93.3 12.8c-3.1.5-6.1-3-6.8-7.6l-28.8-209.6c-1.1-8.4-1.9-8.3 1.2-8.7l96.6-13.3c5.6-.7 5.6-.7 6.7 7.7l28.8 209.5c.7 4.7-1.3 8.8-4.4 9.2z" opacity=".5"/>
          </g>
          <g id="Group 267">
            <g id="Rectangle 17">
              <path id="Vector_3" fill="#F4B72A" fill-rule="evenodd" d="M261.2 523.5a1 1 0 00-1-.8l-1 .1a1 1 0 00.3 1.8h1c.4-.2.7-.6.7-1.1z" clip-rule="evenodd"/>
            </g>
            <g id="Rectangle 21">
              <path id="Vector_4" fill="#F4B72A" fill-rule="evenodd" d="M262.1 530.3a1 1 0 00-1-.8l-.9.2a1 1 0 00.2 1.8l1-.2c.4 0 .8-.5.7-1z" clip-rule="evenodd"/>
            </g>
            <path id="Subtract" fill="#F3B72A" fill-rule="evenodd" d="M265.3 511.2c-3.7.5-6.4 4-5.8 7.8l.4 2.8c0 .1 0 .2.2.2a1.6 1.6 0 11.4 3.2s-.2.1-.1.2l.4 3.3.2.1a1.6 1.6 0 01.4 3.2l-.1.2.4 3c.5 3.7 4 6.3 7.7 5.8l3.6-.5c1.2-.2 2.4.3 3.2 1.1l3 3.2 4 4.7c.1.2.3.1.4 0l2.6-5.7 2-3.7a4 4 0 013-2l3.3-.6c3.8-.5 6.4-4 6-7.7l-2.3-16.1c-.5-3.8-4-6.4-7.8-6l-25 3.5zm.4 4a2.9 2.9 0 00-2.5 3.3l2.3 16.4a2.9 2.9 0 003.3 2.4l7-1c.7 0 1.5.2 2 .8l1.9 2 2.5 3h.3l1.7-3.6 1.2-2.4c.4-.7 1.1-1.2 2-1.3l6.8-1a2.9 2.9 0 002.5-3.2l-2.3-16.4a2.9 2.9 0 00-3.2-2.5l-25.5 3.5z" clip-rule="evenodd"/>
            <g id="Rectangle 18">
              <path id="Vector_5" fill="#F4B72A" fill-rule="evenodd" d="M289.4 523c0-.5-.4-.8-.9-.7l-17.6 2.4a.8.8 0 00.3 1.6l17.5-2.4c.5 0 .8-.5.7-1z" clip-rule="evenodd"/>
            </g>
            <g id="Rectangle 20">
              <path id="Vector_6" fill="#F4B72A" fill-rule="evenodd" d="M288.9 519c0-.4-.5-.7-1-.7l-17.5 2.5a.8.8 0 10.2 1.6l17.6-2.4c.4-.1.8-.5.7-1z" clip-rule="evenodd"/>
            </g>
            <g id="Rectangle 19">
              <path id="Vector_7" fill="#F4B72A" fill-rule="evenodd" d="M290 527.1c0-.4-.5-.7-1-.7l-17.5 2.4a.8.8 0 10.2 1.6l17.6-2.4c.4 0 .8-.4.7-.9z" clip-rule="evenodd"/>
            </g>
          </g>
          <g id="Union">
            <path id="Vector_8" fill="url(#paint16_linear)" fill-rule="evenodd" stroke="url(#paint17_linear)" stroke-width="1.1" d="M248 660.7l96.5-13.3c13.8-1.9 13.4-13 12.3-21.3l-28.6-207.8a15 15 0 00-17-12.9l-96.4 13.3a15 15 0 00-12.9 17l28.6 207.8c1.2 8.2 4.4 19 17.6 17.2zm45-242.5a10 10 0 01-8.1 6.5l-39.5 5.4a10 10 0 01-9.5-4l-19.2 2.6a5 5 0 00-4.3 5.7L241 641.9c.4 2.8 2 9.2 6.2 8.6l95.4-13c4-.6 4-7.3 3.7-10l-28.5-207.6a5 5 0 00-5.7-4.3l-19.2 2.6z" clip-rule="evenodd"/>
          </g>
          <g id="Vector 28">
            <path id="Vector_9" fill="url(#paint18_linear)" d="M271.1 421.3l-13.5 1.8c-1.6.2-3-.2-3-1-.2-.8 1-1.7 2.6-1.9l13.5-1.8c1.6-.2 3 .2 3.1 1 .1.8-1 1.6-2.7 1.9z"/>
          </g>
          <g id="Group 3">
            <path id="Vector 29" fill="#434D59" d="M261.8 518.5z"/>
          </g>
        </g>
      </g>
      <g id="Group 426">
        <path id="Vector 2" fill="url(#paint19_linear)" d="M956.5 488.2l-79.1 18.3 1.2-26.6a9.6 9.6 0 017.5-9l46.9-10.7c4.2-1 8.6.9 10.6 4.7l12.9 23.3z"/>
        <path id="Vector 3" fill="url(#paint20_linear)" d="M945.9 489.5L887.5 503l.9-19.6a7.1 7.1 0 015.5-6.6l34.7-8c3-.7 6.3.7 7.8 3.5l9.5 17.2z"/>
        <path id="Vector 4" fill="url(#paint21_linear)" d="M1048.5 614.4L850 660.2c-13 3-26-4.9-29-17.7l-22-96a24 24 0 0118.1-28.6l198.5-45.8c13-3 26 4.9 29 17.7l22 96a24 24 0 01-18.1 28.6z"/>
        <path id="Vector 5" fill="url(#paint22_linear)" d="M818.2 630.2l2.9 12.3a24 24 0 0028.9 17.7l198.5-45.8a24 24 0 0018.2-28.5l-2.9-12.4"/>
        <g id="Vector 6">
          <path id="Vector_10" fill="url(#paint23_linear)" d="M882.7 534.8l-38-23.3-22.1 5.1 38 23.3 22.1-5z"/>
        </g>
        <path id="Vector 7" fill="url(#paint24_linear)" d="M1051.2 544.5L955.5 486l-78 18 95.7 58.6 78-18z"/>
        <g id="Vector 8">
          <path id="Vector_11" fill="url(#paint25_linear)" d="M977 499.3l-.2 2.3a76.3 76.3 0 0132.8 46.8 77.6 77.6 0 01-34.9 83l73.8-17a24 24 0 0018.2-28.5l-8.5-37-81.1-49.6z"/>
        </g>
        <g id="Group_3" fill="#fff">
          <path id="Vector 9" d="M905.2 621.5l-2.9.3h-.2l-.1-4h.1l2.8-.1.3 3.8z"/>
          <path id="Vector 10" d="M931.1 617.3l-.9-3.7 5.5-1.5 1 3.7c-1.8.6-3.7 1-5.6 1.5zm-4.7 1.1l-5.8 1.2-.7-3.8 5.7-1.1.8 3.7zm15-4l-1.2-3.7 5.4-1.8 1.3 3.7-5.5 1.8zm-25.6 6l-5.8.7-.3-4c1.8-.1 3.8-.3 5.6-.6l.5 3.8z"/>
          <path id="Vector 11" d="M951.5 610.9l-1.4-3.6 2.6-1v-.2l.9 1.9.8 1.7h-.2l-2.7 1.2z"/>
        </g>
        <path id="Vector 12" fill="url(#paint26_linear)" d="M950.7 643.6a80.2 80.2 0 0061-95.6 80.2 80.2 0 00-96.8-59.3 80.2 80.2 0 00-61 95.6 80.2 80.2 0 0096.8 59.3z"/>
        <path id="Vector 13" fill="url(#paint27_linear)" d="M950.2 641.6a78.2 78.2 0 0059.4-93.2 78.2 78.2 0 00-94.2-57.7 78.2 78.2 0 00-59.4 93.2 78.2 78.2 0 0094.2 57.7z"/>
        <path id="Vector 14" fill="url(#paint28_linear)" d="M1011.6 548a83 83 0 00-2.6-8.8L967.8 514a63.7 63.7 0 00-49-8.5 62.8 62.8 0 00-47.8 74.9c4 17.2 15 31.1 29.3 39.5l41.2 25.2a80.1 80.1 0 0070.1-97.2z"/>
        <path id="Vector 15" fill="url(#paint29_linear)" d="M946.8 626.8a62.8 62.8 0 0047.7-74.9 62.8 62.8 0 00-75.7-46.4 62.8 62.8 0 00-47.7 74.9 62.8 62.8 0 0075.7 46.4z"/>
        <path id="Vector 16" fill="url(#paint30_linear)" d="M945.8 622.6a58.5 58.5 0 0044.5-69.7 58.5 58.5 0 00-70.5-43.2 58.5 58.5 0 00-44.5 69.7 58.5 58.5 0 0070.5 43.2z"/>
        <path id="Vector 17" fill="url(#paint31_linear)" d="M942 606a41.2 41.2 0 0031.3-49.2c-5-22-27.3-35.6-49.7-30.5a41.2 41.2 0 00-31.3 49.2c5 22 27.3 35.6 49.7 30.5z"/>
        <path id="Vector 18" fill="url(#paint32_linear)" d="M940.5 599.7a34.8 34.8 0 0026.5-41.4c-4.3-18.6-23-30.1-42-25.7a34.8 34.8 0 00-26.4 41.4c4.3 18.6 23 30.1 42 25.7z"/>
        <path id="Vector 19" fill="url(#paint33_linear)" d="M991.7 568.8l-42.6-26.2c-6.4-4.2-14.5-6-22.7-4a28.6 28.6 0 00-21.7 34 28 28 0 0013.7 18.2L961 617c18-9.7 29.6-28 30.7-48.1z"/>
        <path id="Vector 20" fill="url(#paint34_linear)" d="M939.2 593.8a28.6 28.6 0 0021.7-34.1 28.6 28.6 0 00-34.5-21.2 28.6 28.6 0 00-21.7 34.1 28.6 28.6 0 0034.5 21.2z"/>
        <path id="Vector 21" fill="url(#paint35_linear)" d="M937.8 587.8a22.4 22.4 0 0017-26.7 22.4 22.4 0 00-27-16.6 22.4 22.4 0 00-17 26.7 22.4 22.4 0 0027 16.6z"/>
        <path id="Vector 22" fill="url(#paint36_linear)" d="M923.5 571.8c7.4-1.7 12.1-9 10.4-16.3-1.7-7.3-9-11.9-16.5-10.2-7.5 1.8-12.1 9-10.4 16.4 1.6 7.3 9 11.8 16.5 10.1z"/>
        <path id="Vector 23" fill="url(#paint37_linear)" d="M975 607c9.8-2.2 16-12 13.8-21.7a18.3 18.3 0 00-22-13.5c-10 2.3-16.1 12-13.9 21.8a18.2 18.2 0 0022 13.5z"/>
        <path id="Vector 24" fill="url(#paint38_linear)" d="M936.1 580.7a46.6 46.6 0 0035.5-55.6 46.6 46.6 0 00-56.2-34.4 46.6 46.6 0 00-35.4 55.5 46.6 46.6 0 0056.1 34.5z"/>
        <path id="Vector 25" fill="url(#paint39_linear)" d="M844.6 511.5l-22 5.1-1.3-5.4a6.7 6.7 0 015-8l9-2a6.7 6.7 0 018 4.9l1.3 5.4z"/>
      </g>
      <g id="Group 4">
        <g id="Group 5">
          <path id="Vector 30" fill="url(#paint40_linear)" d="M703.4 281.9l-33.8-3 1.2-14.2a59.5 59.5 0 00-118.4-10.4l-1.2 14.3-33.8-3 1.3-14.2a93.4 93.4 0 01185.9 16.2l-1.2 14.3z"/>
          <path id="Vector 31" fill="url(#paint41_linear)" d="M618.1 184.8a77.5 77.5 0 00-83.8 70.4l-1 11.9 17.9 1.5 1.2-14.3a59.5 59.5 0 01118.4 10.4l-1.2 14.2 17.9 1.6 1-11.8a77.5 77.5 0 00-70.4-83.9z"/>
        </g>
        <g id="Group 6">
          <path id="Vector 32" fill="url(#paint42_linear)" d="M670.8 264.7l-1.2 14.2 33.8 3 1.2-14.3c1.5-17.7-2-34.7-9.4-49.5l-45.3-4a59.4 59.4 0 0121 50.6z"/>
          <path id="Vector 33" fill="url(#paint43_linear)" d="M552.4 254.3a59.4 59.4 0 0129.3-46.1l-45.2-4a92.7 92.7 0 00-17.8 47.2l-1.3 14.3 33.8 3 1.2-14.4z"/>
        </g>
        <g id="Group 7">
          <path id="Vector 34" fill="url(#paint44_linear)" d="M555.3 274.8l-64.1-5.6 1.2-13.7c.6-7 6.7-12.1 13.7-11.5l38.9 3.4c7 .6 12 6.7 11.5 13.7l-1.2 13.7z"/>
          <path id="Vector 35" fill="url(#paint45_linear)" d="M728.6 289.9l-64.1-5.6 1.2-13.7c.6-7 6.7-12.1 13.7-11.5l38.9 3.4c7 .6 12.1 6.7 11.5 13.7l-1.2 13.7z"/>
        </g>
        <g id="Vector 36">
          <path id="Vector_12" fill="url(#paint46_linear)" d="M804.5 664l-452.8-39.5a28.3 28.3 0 01-25.8-30.6L353.3 280a28.3 28.3 0 0130.6-25.8l452.9 39.5a28.3 28.3 0 0125.8 30.6l-27.4 313.8a28.3 28.3 0 01-30.7 25.8z"/>
        </g>
        <g id="Group 8">
          <path id="Vector 37" fill="url(#paint47_linear)" d="M402.2 428.5l-56 52a9.5 9.5 0 003.1 16l79.4 29.4a9.5 9.5 0 0012.4-11.5L417.8 433a9.5 9.5 0 00-15.6-4.4z"/>
          <path id="Vector 38" fill="url(#paint48_linear)" d="M400.6 448.2L365.3 481a6 6 0 002 10l50 18.6a6 6 0 007.8-7.3L410.4 451a6 6 0 00-9.8-2.8z"/>
        </g>
        <g id="Group 9">
          <path id="Vector 39" fill="url(#paint49_linear)" d="M780 552.9L731 494a9.5 9.5 0 00-15.9 2.3L681.3 574a9.5 9.5 0 0010.8 13l82.7-18.8A9.5 9.5 0 00780 553z"/>
          <path id="Vector 40" fill="url(#paint50_linear)" d="M760.4 550.2l-30.8-37a6 6 0 00-10 1.3l-21.4 49a6 6 0 006.8 8.1l52.1-11.8a6 6 0 003.3-9.6z"/>
        </g>
        <g id="Vector 41">
          <path id="Vector_13" fill="url(#paint51_linear)" d="M862.5 324.4l-27.3 313.8a28.3 28.3 0 01-30.7 25.8L625 648.3 349.7 320.6l3.6-40.5a28.3 28.3 0 0130.6-25.8l452.9 39.5a28.3 28.3 0 0125.7 30.6z"/>
        </g>
        <g id="Group 10">
          <path id="Vector 42" fill="url(#paint52_linear)" d="M660 487.2a58.7 58.7 0 1010.2-117 58.7 58.7 0 00-10.2 117z"/>
          <path id="Vector 43" fill="url(#paint53_linear)" d="M661.7 468.1a39.6 39.6 0 106.8-78.8 39.6 39.6 0 00-6.8 78.8z"/>
        </g>
        <g id="Group 11">
          <path id="Vector 44" fill="url(#paint54_linear)" d="M495.3 610.2a58.7 58.7 0 1010.2-116.9 58.7 58.7 0 00-10.2 117z"/>
          <path id="Vector 45" fill="url(#paint55_linear)" d="M497 591.2a39.6 39.6 0 106.8-78.8 39.6 39.6 0 00-6.8 78.8z"/>
        </g>
        <g id="Vector 46">
          <path id="Vector_14" fill="url(#paint56_linear)" d="M458.7 633.9l135 11.7L618 366.8l-83.4-99.4-43.6-3.8L458.7 634z"/>
        </g>
        <g id="Vector 47">
          <path id="Vector_15" fill="url(#paint57_linear)" d="M676.6 652.8l135 11.8L836 385.8l-83.5-99.4-43.5-3.8-32.3 370.2z"/>
        </g>
        <path id="Vector 48" fill="url(#paint58_linear)" d="M335.6 482.2L326 593.9a28.3 28.3 0 0025.8 30.6L804.5 664a28.3 28.3 0 0030.7-25.8l9.7-111.7-509.3-44.3z"/>
        <g id="Group 12">
          <g id="Group 13">
            <path id="Vector 49" fill="url(#paint59_linear)" d="M405.9 290.4a20 20 0 003.5-40l-40-3.5a20 20 0 00-21.8 18.2l-3.4 40a20 20 0 1040 3.5 20 20 0 0121.7-18.2z"/>
            <path id="Vector 50" fill="url(#paint60_linear)" d="M782.6 628a20 20 0 00-3.5 40l40 3.4a20 20 0 0021.7-18.2l3.5-40a20 20 0 00-40-3.5 20 20 0 01-21.7 18.2z"/>
          </g>
          <g id="Group 14">
            <path id="Vector 51" fill="url(#paint61_linear)" d="M379.5 592.8a20 20 0 11-3.5 40l-40-3.5a20 20 0 01-18.2-21.7l3.5-40a20 20 0 0140 3.5 20 20 0 0018.2 21.7z"/>
            <path id="Vector 52" fill="url(#paint62_linear)" d="M809 325.5a20 20 0 013.4-40l40 3.5a20 20 0 0118.3 21.7l-3.5 40a20 20 0 11-40-3.5 20 20 0 00-18.2-21.7z"/>
          </g>
        </g>
        <g id="Group 15">
          <g id="Group 16">
            <path id="Vector 53" fill="url(#paint63_linear)" d="M494.1 642.3l-52-4.5c-4.6-.4-8-4.5-7.6-9.1l31.7-364.1c.4-4.7 4.5-8.1 9.1-7.7l52 4.5c4.6.4 8 4.5 7.7 9.1l-31.8 364.2c-.4 4.6-4.5 8-9 7.6z"/>
            <path id="Vector 54" fill="url(#paint64_linear)" d="M440.6 558.2l-6.1 70.5c-.4 4.6 3 8.7 7.6 9l52 4.6c4.6.4 8.7-3 9.1-7.6l6.2-70.5-68.8-6z"/>
          </g>
          <g id="Group 17">
            <path id="Vector 55" fill="url(#paint65_linear)" d="M713.1 661.4l-52-4.5c-4.6-.4-8-4.5-7.6-9.1l31.7-364.2c.4-4.6 4.5-8 9.1-7.6l52 4.5c4.7.4 8 4.5 7.7 9.1l-31.7 364.2c-.4 4.6-4.5 8-9.2 7.6z"/>
            <path id="Vector 56" fill="url(#paint66_linear)" d="M659.6 577.3l-6.1 70.5c-.4 4.6 3 8.7 7.6 9l52 4.6c4.7.4 8.7-3 9.2-7.6l6-70.5-68.7-6z"/>
          </g>
        </g>
      </g>
    </g>
  </g>
  <defs>
    <linearGradient id="paint0_linear" x1="186.2" x2="189.1" y1="104.4" y2="99.5" gradientUnits="userSpaceOnUse">
      <stop stop-color="#43386B"/>
      <stop offset="1" stop-color="#7662BD"/>
    </linearGradient>
    <linearGradient id="paint1_linear" x1="198.3" x2="198.6" y1="125.6" y2="100.6" gradientUnits="userSpaceOnUse">
      <stop stop-color="#43386B"/>
      <stop offset="1" stop-color="#7662BD"/>
    </linearGradient>
    <linearGradient id="paint2_linear" x1="202.3" x2="197.5" y1="106.2" y2="114.3" gradientUnits="userSpaceOnUse">
      <stop stop-color="#43386B"/>
      <stop offset="1" stop-color="#7662BD"/>
    </linearGradient>
    <linearGradient id="paint3_linear" x1="201.6" x2="204.6" y1="57.8" y2="52.8" gradientUnits="userSpaceOnUse">
      <stop stop-color="#43386B"/>
      <stop offset="1" stop-color="#7662BD"/>
    </linearGradient>
    <linearGradient id="paint4_linear" x1="213.7" x2="214" y1="79" y2="54" gradientUnits="userSpaceOnUse">
      <stop stop-color="#43386B"/>
      <stop offset="1" stop-color="#7662BD"/>
    </linearGradient>
    <linearGradient id="paint5_linear" x1="217.7" x2="212.9" y1="59.6" y2="67.6" gradientUnits="userSpaceOnUse">
      <stop stop-color="#43386B"/>
      <stop offset="1" stop-color="#7662BD"/>
    </linearGradient>
    <linearGradient id="paint6_linear" x1="139.8" x2="206.8" y1="137.7" y2="57.7" gradientUnits="userSpaceOnUse">
      <stop stop-color="#E37A34"/>
      <stop offset="1" stop-color="#FFC538"/>
    </linearGradient>
    <linearGradient id="paint7_linear" x1="105.7" x2="108.6" y1="155.4" y2="150.5" gradientUnits="userSpaceOnUse">
      <stop stop-color="#43386B"/>
      <stop offset="1" stop-color="#7662BD"/>
    </linearGradient>
    <linearGradient id="paint8_linear" x1="117.8" x2="118.1" y1="176.6" y2="151.6" gradientUnits="userSpaceOnUse">
      <stop stop-color="#43386B"/>
      <stop offset="1" stop-color="#7662BD"/>
    </linearGradient>
    <linearGradient id="paint9_linear" x1="121.8" x2="117" y1="157.2" y2="165.3" gradientUnits="userSpaceOnUse">
      <stop stop-color="#43386B"/>
      <stop offset="1" stop-color="#7662BD"/>
    </linearGradient>
    <linearGradient id="paint10_linear" x1="50.6" x2="53.5" y1="156.6" y2="151.7" gradientUnits="userSpaceOnUse">
      <stop stop-color="#43386B"/>
      <stop offset="1" stop-color="#7662BD"/>
    </linearGradient>
    <linearGradient id="paint11_linear" x1="62.6" x2="62.9" y1="177.8" y2="152.8" gradientUnits="userSpaceOnUse">
      <stop stop-color="#43386B"/>
      <stop offset="1" stop-color="#7662BD"/>
    </linearGradient>
    <linearGradient id="paint12_linear" x1="66.7" x2="61.8" y1="158.4" y2="166.5" gradientUnits="userSpaceOnUse">
      <stop stop-color="#43386B"/>
      <stop offset="1" stop-color="#7662BD"/>
    </linearGradient>
    <linearGradient id="paint13_linear" x1="128.8" x2="148" y1="152.3" y2="120" gradientUnits="userSpaceOnUse">
      <stop stop-color="#E37A34"/>
      <stop offset="1" stop-color="#FFC538"/>
    </linearGradient>
    <linearGradient id="paint14_linear" x1="45.5" x2="92.2" y1="39.9" y2="40.4" gradientUnits="userSpaceOnUse">
      <stop stop-color="#E37A34"/>
      <stop offset="1" stop-color="#FFC538"/>
    </linearGradient>
    <linearGradient id="paint15_linear" x1="207" x2="401.8" y1="433.8" y2="592.4" gradientUnits="userSpaceOnUse">
      <stop stop-color="#DCBDD2"/>
      <stop offset=".5" stop-color="#fff"/>
      <stop offset="1" stop-color="#8C296C"/>
    </linearGradient>
    <linearGradient id="paint16_linear" x1="205.2" x2="296.3" y1="423.5" y2="654" gradientUnits="userSpaceOnUse">
      <stop stop-color="#FF435A"/>
      <stop offset="1" stop-color="#D40059"/>
    </linearGradient>
    <linearGradient id="paint17_linear" x1="263" x2="296.3" y1="412.1" y2="654" gradientUnits="userSpaceOnUse">
      <stop stop-color="#CE0031"/>
      <stop offset="1" stop-color="#910045"/>
    </linearGradient>
    <linearGradient id="paint18_linear" x1="292.2" x2="200" y1="418.5" y2="410.4" gradientUnits="userSpaceOnUse">
      <stop stop-color="#D40000"/>
      <stop offset="1" stop-color="#780000"/>
    </linearGradient>
    <linearGradient id="paint19_linear" x1="912.3" x2="919.1" y1="477.4" y2="507" gradientUnits="userSpaceOnUse">
      <stop stop-color="#74AEF8"/>
      <stop offset="1" stop-color="#4E85FB"/>
    </linearGradient>
    <linearGradient id="paint20_linear" x1="919.1" x2="909.9" y1="506.7" y2="466.8" gradientUnits="userSpaceOnUse">
      <stop stop-color="#FFF2E8"/>
      <stop offset="1" stop-color="#E7D2B9"/>
    </linearGradient>
    <linearGradient id="paint21_linear" x1="1011.4" x2="1127.9" y1="548" y2="521.1" gradientUnits="userSpaceOnUse">
      <stop stop-color="#FF4C4A"/>
      <stop offset="1" stop-color="#FF001C"/>
    </linearGradient>
    <linearGradient id="paint22_linear" x1="944.1" x2="951.7" y1="615.1" y2="648.1" gradientUnits="userSpaceOnUse">
      <stop stop-color="#FF001C" stop-opacity="0"/>
      <stop offset="1" stop-color="#C1001C"/>
    </linearGradient>
    <linearGradient id="paint23_linear" x1="855.1" x2="813.4" y1="527.2" y2="500.6" gradientUnits="userSpaceOnUse">
      <stop stop-color="#FF001C" stop-opacity="0"/>
      <stop offset="1" stop-color="#C1001C"/>
    </linearGradient>
    <linearGradient id="paint24_linear" x1="986.4" x2="910.3" y1="537.8" y2="489.2" gradientUnits="userSpaceOnUse">
      <stop stop-color="#FF001C" stop-opacity="0"/>
      <stop offset="1" stop-color="#C1001C"/>
    </linearGradient>
    <linearGradient id="paint25_linear" x1="1058.6" x2="946.4" y1="616" y2="544.5" gradientUnits="userSpaceOnUse">
      <stop stop-color="#FF001C" stop-opacity="0"/>
      <stop offset="1" stop-color="#C1001C"/>
    </linearGradient>
    <linearGradient id="paint26_linear" x1="919.1" x2="966.4" y1="506.9" y2="712" gradientUnits="userSpaceOnUse">
      <stop stop-color="#564D56"/>
      <stop offset="1" stop-color="#2F352D"/>
    </linearGradient>
    <linearGradient id="paint27_linear" x1="946.1" x2="900" y1="624" y2="424" gradientUnits="userSpaceOnUse">
      <stop stop-color="#564D56"/>
      <stop offset="1" stop-color="#2F352D"/>
    </linearGradient>
    <linearGradient id="paint28_linear" x1="1024.6" x2="955.7" y1="622.4" y2="578.4" gradientUnits="userSpaceOnUse">
      <stop stop-color="#564D56" stop-opacity="0"/>
      <stop offset="1" stop-color="#2F352D"/>
    </linearGradient>
    <linearGradient id="paint29_linear" x1="941.2" x2="914.2" y1="602.6" y2="485.7" gradientUnits="userSpaceOnUse">
      <stop stop-color="#564D56"/>
      <stop offset="1" stop-color="#2F352D"/>
    </linearGradient>
    <linearGradient id="paint30_linear" x1="923" x2="942.9" y1="523.8" y2="609.9" gradientUnits="userSpaceOnUse">
      <stop stop-color="#868485"/>
      <stop offset="1" stop-color="#564D56"/>
    </linearGradient>
    <linearGradient id="paint31_linear" x1="938.3" x2="920.6" y1="590.1" y2="513.3" gradientUnits="userSpaceOnUse">
      <stop stop-color="#868485"/>
      <stop offset="1" stop-color="#564D56"/>
    </linearGradient>
    <linearGradient id="paint32_linear" x1="927.5" x2="938.7" y1="543.1" y2="591.8" gradientUnits="userSpaceOnUse">
      <stop stop-color="#868485"/>
      <stop offset="1" stop-color="#564D56"/>
    </linearGradient>
    <linearGradient id="paint33_linear" x1="976.9" x2="944.3" y1="593.2" y2="572.4" gradientUnits="userSpaceOnUse">
      <stop stop-color="#564D56" stop-opacity="0"/>
      <stop offset="1" stop-color="#2F352D"/>
    </linearGradient>
    <linearGradient id="paint34_linear" x1="942.4" x2="922.2" y1="607.9" y2="520.1" gradientUnits="userSpaceOnUse">
      <stop stop-color="#456A97"/>
      <stop offset="1" stop-color="#1A338C"/>
    </linearGradient>
    <linearGradient id="paint35_linear" x1="924.3" x2="934.7" y1="529.3" y2="574.4" gradientUnits="userSpaceOnUse">
      <stop stop-color="#456A97"/>
      <stop offset="1" stop-color="#1A338C"/>
    </linearGradient>
    <linearGradient id="paint36_linear" x1="922.5" x2="857.3" y1="559.9" y2="518.3" gradientUnits="userSpaceOnUse">
      <stop stop-color="#E7EEED" stop-opacity="0"/>
      <stop offset="1" stop-color="#E7EEED"/>
    </linearGradient>
    <linearGradient id="paint37_linear" x1="973.6" x2="886.6" y1="591.2" y2="535.7" gradientUnits="userSpaceOnUse">
      <stop stop-color="#E7EEED" stop-opacity="0"/>
      <stop offset="1" stop-color="#E7EEED"/>
    </linearGradient>
    <linearGradient id="paint38_linear" x1="925.4" x2="788.3" y1="535.5" y2="455.2" gradientUnits="userSpaceOnUse">
      <stop stop-color="#E7EEED" stop-opacity="0"/>
      <stop offset="1" stop-color="#E7EEED"/>
    </linearGradient>
    <linearGradient id="paint39_linear" x1="832.2" x2="833.9" y1="508" y2="515.3" gradientUnits="userSpaceOnUse">
      <stop stop-color="#74AEF8"/>
      <stop offset="1" stop-color="#4E85FB"/>
    </linearGradient>
    <linearGradient id="paint40_linear" x1="564" x2="643.4" y1="189.4" y2="284" gradientUnits="userSpaceOnUse">
      <stop stop-color="#FFEA52"/>
      <stop offset="1" stop-color="#FDBE15"/>
    </linearGradient>
    <linearGradient id="paint41_linear" x1="611.9" x2="630.1" y1="256.6" y2="48.1" gradientUnits="userSpaceOnUse">
      <stop stop-color="#FDEA53"/>
      <stop offset="1" stop-color="#FEBF17"/>
    </linearGradient>
    <linearGradient id="paint42_linear" x1="678.2" x2="675.3" y1="230" y2="263.6" gradientUnits="userSpaceOnUse">
      <stop stop-color="#FF9100" stop-opacity="0"/>
      <stop offset="1" stop-color="#FF9100"/>
    </linearGradient>
    <linearGradient id="paint43_linear" x1="551.1" x2="548.2" y1="218.9" y2="252.5" gradientUnits="userSpaceOnUse">
      <stop stop-color="#FF9100" stop-opacity="0"/>
      <stop offset="1" stop-color="#FF9100"/>
    </linearGradient>
    <linearGradient id="paint44_linear" x1="525.7" x2="523.8" y1="244.2" y2="265" gradientUnits="userSpaceOnUse">
      <stop stop-color="#FCE851"/>
      <stop offset="1" stop-color="#FDBD14"/>
    </linearGradient>
    <linearGradient id="paint45_linear" x1="699" x2="697.1" y1="259.3" y2="280.1" gradientUnits="userSpaceOnUse">
      <stop stop-color="#FFDA2D"/>
      <stop offset="1" stop-color="#FDBF00"/>
    </linearGradient>
    <linearGradient id="paint46_linear" x1="549.2" x2="804.4" y1="405.5" y2="709.5" gradientUnits="userSpaceOnUse">
      <stop stop-color="#C59B6D"/>
      <stop offset="1" stop-color="#A57C52"/>
    </linearGradient>
    <linearGradient id="paint47_linear" x1="398.6" x2="392.4" y1="430.3" y2="501.6" gradientUnits="userSpaceOnUse">
      <stop stop-color="#EDF5FF"/>
      <stop offset="1" stop-color="#D5E8FE"/>
    </linearGradient>
    <linearGradient id="paint48_linear" x1="429.9" x2="390.4" y1="517.6" y2="472.9" gradientUnits="userSpaceOnUse">
      <stop stop-color="#EDF5FF"/>
      <stop offset="1" stop-color="#D5E8FE"/>
    </linearGradient>
    <linearGradient id="paint49_linear" x1="778.3" x2="707.4" y1="549.4" y2="539.3" gradientUnits="userSpaceOnUse">
      <stop stop-color="#EDF5FF"/>
      <stop offset="1" stop-color="#D5E8FE"/>
    </linearGradient>
    <linearGradient id="paint50_linear" x1="689.3" x2="736.2" y1="575.9" y2="538.9" gradientUnits="userSpaceOnUse">
      <stop stop-color="#EDF5FF"/>
      <stop offset="1" stop-color="#D5E8FE"/>
    </linearGradient>
    <linearGradient id="paint51_linear" x1="612.4" x2="262.8" y1="325" y2="-147.7" gradientUnits="userSpaceOnUse">
      <stop stop-color="#8C6239" stop-opacity="0"/>
      <stop offset=".5" stop-color="#734A23" stop-opacity=".5"/>
      <stop offset="1" stop-color="#603813"/>
    </linearGradient>
    <linearGradient id="paint52_linear" x1="628.6" x2="690.1" y1="385.2" y2="458.5" gradientUnits="userSpaceOnUse">
      <stop stop-color="#FF819C"/>
      <stop offset=".3" stop-color="#FF7E9A"/>
      <stop offset=".5" stop-color="#FE7396"/>
      <stop offset=".7" stop-color="#FC628E"/>
      <stop offset=".9" stop-color="#FA4A83"/>
      <stop offset="1" stop-color="#F83479"/>
    </linearGradient>
    <linearGradient id="paint53_linear" x1="723.8" x2="613.1" y1="498.6" y2="366.8" gradientUnits="userSpaceOnUse">
      <stop stop-color="#FF819C"/>
      <stop offset=".3" stop-color="#FF7E9A"/>
      <stop offset=".5" stop-color="#FE7396"/>
      <stop offset=".7" stop-color="#FC628E"/>
      <stop offset=".9" stop-color="#FA4A83"/>
      <stop offset="1" stop-color="#F83479"/>
    </linearGradient>
    <linearGradient id="paint54_linear" x1="463.9" x2="525.4" y1="508.3" y2="581.6" gradientUnits="userSpaceOnUse">
      <stop stop-color="#FDE952"/>
      <stop offset="1" stop-color="#FCBD14"/>
    </linearGradient>
    <linearGradient id="paint55_linear" x1="559.1" x2="448.4" y1="621.7" y2="489.8" gradientUnits="userSpaceOnUse">
      <stop stop-color="#FCE851"/>
      <stop offset="1" stop-color="#FCC01A"/>
    </linearGradient>
    <linearGradient id="paint56_linear" x1="590.8" x2="437.5" y1="458.8" y2="445.5" gradientUnits="userSpaceOnUse">
      <stop stop-color="#8C6239" stop-opacity="0"/>
      <stop offset=".5" stop-color="#734A23" stop-opacity=".5"/>
      <stop offset="1" stop-color="#603813"/>
    </linearGradient>
    <linearGradient id="paint57_linear" x1="808.6" x2="655.4" y1="477.8" y2="464.5" gradientUnits="userSpaceOnUse">
      <stop stop-color="#8C6239" stop-opacity="0"/>
      <stop offset=".5" stop-color="#734A23" stop-opacity=".5"/>
      <stop offset="1" stop-color="#603813"/>
    </linearGradient>
    <linearGradient id="paint58_linear" x1="584.3" x2="572.3" y1="572.7" y2="710.7" gradientUnits="userSpaceOnUse">
      <stop stop-color="#8C6239" stop-opacity="0"/>
      <stop offset=".5" stop-color="#734A23" stop-opacity=".5"/>
      <stop offset="1" stop-color="#603813"/>
    </linearGradient>
    <linearGradient id="paint59_linear" x1="371.6" x2="400.7" y1="271.6" y2="306.3" gradientUnits="userSpaceOnUse">
      <stop stop-color="#FFDA2D"/>
      <stop offset="1" stop-color="#FDBF00"/>
    </linearGradient>
    <linearGradient id="paint60_linear" x1="816.8" x2="787.7" y1="646.7" y2="612" gradientUnits="userSpaceOnUse">
      <stop stop-color="#FBE851"/>
      <stop offset="1" stop-color="#FEC119"/>
    </linearGradient>
    <linearGradient id="paint61_linear" x1="342.5" x2="377.2" y1="605.3" y2="576.2" gradientUnits="userSpaceOnUse">
      <stop stop-color="#FCEA52"/>
      <stop offset="1" stop-color="#FDBD13"/>
    </linearGradient>
    <linearGradient id="paint62_linear" x1="845.9" x2="811.3" y1="313" y2="342.1" gradientUnits="userSpaceOnUse">
      <stop stop-color="#FFDA2D"/>
      <stop offset="1" stop-color="#FDBF00"/>
    </linearGradient>
    <linearGradient id="paint63_linear" x1="505.2" x2="360.6" y1="591.9" y2="314.4" gradientUnits="userSpaceOnUse">
      <stop stop-color="#8C296C"/>
      <stop offset="1" stop-color="#631D4C"/>
    </linearGradient>
    <linearGradient id="paint64_linear" x1="470.4" x2="465.6" y1="614.2" y2="668.6" gradientUnits="userSpaceOnUse">
      <stop stop-color="#07485E" stop-opacity="0"/>
      <stop offset=".4" stop-color="#05394A" stop-opacity=".4"/>
      <stop offset="1" stop-color="#03232E"/>
    </linearGradient>
    <linearGradient id="paint65_linear" x1="726.5" x2="589.6" y1="582.2" y2="330" gradientUnits="userSpaceOnUse">
      <stop stop-color="#8C296C"/>
      <stop offset="1" stop-color="#631D4C"/>
    </linearGradient>
    <linearGradient id="paint66_linear" x1="689.4" x2="684.6" y1="633.3" y2="687.7" gradientUnits="userSpaceOnUse">
      <stop stop-color="#07485E" stop-opacity="0"/>
      <stop offset=".4" stop-color="#05394A" stop-opacity=".4"/>
      <stop offset="1" stop-color="#03232E"/>
    </linearGradient>
  </defs>
</svg>
