<svg width="169" height="170" viewBox="0 0 169 170" fill="none" xmlns="http://www.w3.org/2000/svg">
<g id="sunglasses" clip-path="url(#clip0)">
<path id="Vector" d="M43.2054 35.7595C41.8508 35.7595 40.5655 36.3582 39.6937 37.3953L5.73682 77.8105H15.4275L40.3965 47.525C40.3965 49.3817 41.9016 50.8869 43.7583 50.8869C45.986 50.8869 47.7925 49.081 47.7925 46.8527V40.3455C47.7915 37.8129 45.7384 35.7595 43.2054 35.7595Z" fill="url(#paint0_linear)"/>
<path id="Vector_2" d="M47.7894 40.5043V46.8533C47.7894 47.9677 47.3385 48.9757 46.6091 49.7092C45.8793 50.439 44.8712 50.8895 43.7569 50.8895C41.9019 50.8895 40.3951 49.3827 40.3951 47.5277L35.4716 53.4994C34.4121 51.4978 32.3155 50.134 29.8957 50.134C29.5656 50.134 29.2395 50.1594 28.9243 50.2109L39.691 37.3947C40.8625 36.007 42.7802 35.3984 44.6016 35.9777C46.5371 36.5936 47.7894 38.4737 47.7894 40.5043Z" fill="url(#paint1_linear)"/>
<path id="Vector_3" d="M29.0889 51.7142C28.51 51.7142 27.9545 51.8102 27.4339 51.9829L25.5905 54.1769C25.9674 54.0907 26.3589 54.0419 26.7609 54.0419C29.1853 54.0419 31.2206 55.6823 31.8279 57.9133L34.0404 55.2295C33.3215 53.1833 31.378 51.7142 29.0889 51.7142Z" fill="url(#paint2_linear)"/>
<path id="Vector_4" d="M125.794 35.7595C127.148 35.7595 128.434 36.3582 129.305 37.3953L163.262 77.8105H153.572L128.603 47.525C128.603 49.3817 127.097 50.8869 125.241 50.8869C123.013 50.8869 121.206 49.081 121.206 46.8527V40.3455C121.207 37.8129 123.261 35.7595 125.794 35.7595Z" fill="url(#paint3_linear)"/>
<path id="Vector_5" d="M121.21 40.5043V46.8533C121.21 47.9677 121.661 48.9757 122.391 49.7092C123.12 50.439 124.128 50.8895 125.243 50.8895C127.098 50.8895 128.605 49.3827 128.605 47.5277L133.528 53.4994C134.588 51.4978 136.684 50.134 139.104 50.134C139.434 50.134 139.76 50.1594 140.076 50.2109L129.309 37.3947C128.138 36.007 126.22 35.3984 124.398 35.9777C122.463 36.5936 121.21 38.4737 121.21 40.5043Z" fill="url(#paint4_linear)"/>
<path id="Vector_6" d="M139.91 51.7142C140.489 51.7142 141.044 51.8102 141.565 51.9829L143.408 54.1769C143.032 54.0907 142.64 54.0419 142.238 54.0419C139.814 54.0419 137.778 55.6823 137.171 57.9133L134.959 55.2295C135.677 53.1833 137.621 51.7142 139.91 51.7142Z" fill="url(#paint5_linear)"/>
<path id="Vector_7" d="M76.2288 75.3486C53.6661 68.4546 31.5131 68.4737 8.95139 75.4024C7.29969 75.9094 5.91997 77.0646 5.1202 78.5955C-2.87161 93.8883 -0.892138 108.202 6.80755 122.772C8.72892 126.408 12.0931 129.079 16.089 130.05C28.8335 133.148 41.4556 134.097 54.4646 132.79C58.982 132.337 63.0185 129.77 65.3469 125.872C73.4773 112.261 84.1857 94.3567 79.9164 79.1002C79.4144 77.3049 78.0116 75.8935 76.2288 75.3486Z" fill="url(#paint6_linear)"/>
<path id="Vector_8" d="M43.3294 128.201C34.313 128.201 25.4835 127.12 16.3358 124.897C14.085 124.35 12.1557 122.828 11.042 120.721C3.76416 106.949 2.70858 95.3629 7.7736 83.6314C8.61001 81.6938 10.2574 80.2131 12.29 79.6457C22.5075 76.7952 32.7584 75.3517 42.8076 75.3517C52.0956 75.3517 61.5562 76.5849 71.002 79.0215C74.105 79.822 76.2674 82.6415 76.2291 85.8459C76.0815 98.0831 67.4111 112.599 60.8155 123.64L60.7911 123.681C59.4563 125.909 57.1461 127.374 54.5612 127.634C50.8135 128.009 47.0352 128.2 43.3311 128.2C43.3304 128.201 43.3301 128.201 43.3294 128.201Z" fill="url(#paint7_linear)"/>
<path id="Vector_9" d="M43.1722 126.762C34.6467 126.762 26.2978 125.74 17.6485 123.638C15.5205 123.121 13.6958 121.682 12.6432 119.69C5.76176 106.668 4.76394 95.7125 9.55268 84.6196C10.3435 82.7874 11.9015 81.3872 13.8235 80.8508C23.4845 78.1558 33.1775 76.7909 42.6791 76.7909C51.4614 76.7909 60.4068 77.9567 69.338 80.261C72.2721 81.0182 74.3169 83.6839 74.2803 86.7136C74.1406 98.2845 65.9422 112.009 59.7061 122.449L59.683 122.488C58.4208 124.595 56.2363 125.98 53.7924 126.226C50.2487 126.581 46.6763 126.761 43.1739 126.761C43.1732 126.762 43.1729 126.762 43.1722 126.762Z" fill="url(#paint8_linear)"/>
<path id="Vector_10" d="M92.7714 75.3486C115.334 68.4546 137.487 68.4737 160.049 75.4024C161.701 75.9094 163.08 77.0646 163.88 78.5955C171.872 93.8883 169.892 108.202 162.192 122.772C160.271 126.408 156.907 129.079 152.911 130.05C140.166 133.148 127.544 134.097 114.535 132.79C110.018 132.337 105.981 129.77 103.653 125.872C95.5226 112.261 84.8142 94.3567 89.0834 79.1002C89.5858 77.3049 90.9886 75.8935 92.7714 75.3486Z" fill="url(#paint9_linear)"/>
<path id="Vector_11" d="M125.669 128.201C134.686 128.201 143.515 127.12 152.663 124.897C154.914 124.35 156.843 122.828 157.957 120.721C165.234 106.949 166.29 95.3629 161.225 83.6314C160.389 81.6938 158.741 80.2131 156.709 79.6457C146.491 76.7952 136.24 75.3517 126.191 75.3517C116.903 75.3517 107.442 76.5849 97.9966 79.0215C94.8936 79.822 92.7313 82.6415 92.7695 85.8459C92.9171 98.0831 101.588 112.599 108.183 123.64L108.208 123.681C109.542 125.909 111.853 127.374 114.437 127.634C118.185 128.009 121.963 128.2 125.668 128.2C125.668 128.201 125.669 128.201 125.669 128.201Z" fill="url(#paint10_linear)"/>
<path id="Vector_12" d="M93.0156 78.9529C92.5357 78.4149 91.8762 78.0261 91.0992 77.899C90.6302 77.8224 90.1674 77.7584 89.705 77.698C89.435 78.1297 89.2214 78.6008 89.0811 79.1031C87.2109 85.7862 88.2153 92.9779 90.6176 100.094L91.1187 100.595C91.8525 101.414 92.9777 101.835 94.1224 101.624C97.1234 101.072 100.211 101.072 103.212 101.624C104.831 101.922 106.417 100.96 106.901 99.3866C107.238 98.2911 107.543 97.3009 107.871 96.2344C108.263 94.9597 107.829 93.6575 106.908 92.8452L93.0156 78.9529Z" fill="url(#paint11_linear)"/>
<path id="Vector_13" d="M125.829 126.762C134.355 126.762 142.704 125.74 151.353 123.638C153.481 123.121 155.306 121.682 156.358 119.69C163.24 106.668 164.238 95.7125 159.449 84.6196C158.658 82.7874 157.1 81.3872 155.178 80.8508C145.517 78.1558 135.824 76.7909 126.322 76.7909C117.54 76.7909 108.595 77.9567 99.6635 80.261C96.7294 81.0182 94.6846 83.6839 94.7209 86.7136C94.8606 98.2845 103.059 112.009 109.295 122.449L109.318 122.488C110.58 124.595 112.765 125.98 115.209 126.226C118.752 126.581 122.325 126.761 125.827 126.761C125.828 126.762 125.829 126.762 125.829 126.762Z" fill="url(#paint12_linear)"/>
<path id="Vector_14" d="M96.3618 82.2953C95.3161 83.4855 94.7005 85.0438 94.721 86.7147C94.7767 91.3232 96.1125 96.2731 98.0917 101.222C99.8061 101.182 101.524 101.312 103.214 101.623C104.833 101.921 106.419 100.958 106.903 99.385C107.24 98.2895 107.545 97.2993 107.873 96.2328C108.265 94.958 107.831 93.6559 106.909 92.8436L96.3618 82.2953Z" fill="url(#paint13_linear)"/>
<path id="Vector_15" d="M79.9173 79.1028C79.7767 78.6004 79.5635 78.1294 79.2935 77.698C78.8321 77.7587 78.3693 77.8221 77.9006 77.8987C75.9478 78.2179 74.7153 80.1732 75.2969 82.0642C75.625 83.1311 75.9294 84.1213 76.2664 85.2165C76.4492 85.8113 76.7895 86.3179 77.2295 86.7031L80.6788 90.1524C81.0951 86.3836 80.9158 82.6706 79.9173 79.1028Z" fill="url(#paint14_linear)"/>
<path id="Vector_16" d="M89.0451 87.4534C86.0443 86.9012 82.9565 86.9012 79.9554 87.4534C78.3361 87.7515 76.7507 86.7893 76.2665 85.2158C75.9295 84.1206 75.6248 83.1301 75.297 82.0636C74.7151 80.1726 75.948 78.2169 77.9007 77.898C82.4277 77.1583 86.5913 77.1606 91.1018 77.898C93.0538 78.2172 94.2857 80.1729 93.7041 82.0636C93.376 83.1304 93.0713 84.1206 92.7343 85.2158C92.2498 86.7896 90.6644 87.7515 89.0451 87.4534Z" fill="url(#paint15_linear)"/>
</g>
<defs>
<linearGradient id="paint0_linear" x1="25.6857" y1="57.1172" x2="30.454" y2="60.9047" gradientUnits="userSpaceOnUse">
<stop stop-color="#B3E800"/>
<stop offset="1" stop-color="#98BC00"/>
</linearGradient>
<linearGradient id="paint1_linear" x1="36.4062" y1="42.4938" x2="45.2933" y2="50.6519" gradientUnits="userSpaceOnUse">
<stop stop-color="#456A97"/>
<stop offset="1" stop-color="#1A338C"/>
</linearGradient>
<linearGradient id="paint2_linear" x1="29.152" y1="53.6757" x2="31.7177" y2="55.9985" gradientUnits="userSpaceOnUse">
<stop stop-color="#E7F1FD"/>
<stop offset="1" stop-color="#B2C7D8"/>
</linearGradient>
<linearGradient id="paint3_linear" x1="143.31" y1="57.1172" x2="138.541" y2="60.9047" gradientUnits="userSpaceOnUse">
<stop stop-color="#B3E800"/>
<stop offset="1" stop-color="#98BC00"/>
</linearGradient>
<linearGradient id="paint4_linear" x1="132.59" y1="42.4938" x2="123.703" y2="50.6519" gradientUnits="userSpaceOnUse">
<stop stop-color="#456A97"/>
<stop offset="1" stop-color="#1A338C"/>
</linearGradient>
<linearGradient id="paint5_linear" x1="139.843" y1="53.6761" x2="137.278" y2="55.999" gradientUnits="userSpaceOnUse">
<stop stop-color="#E7F1FD"/>
<stop offset="1" stop-color="#B2C7D8"/>
</linearGradient>
<linearGradient id="paint6_linear" x1="40.443" y1="92.9054" x2="40.443" y2="153.031" gradientUnits="userSpaceOnUse">
<stop stop-color="#B3E800"/>
<stop offset="1" stop-color="#98BC00"/>
</linearGradient>
<linearGradient id="paint7_linear" x1="40.4325" y1="134.816" x2="40.4325" y2="66.6314" gradientUnits="userSpaceOnUse">
<stop stop-color="#B3E800"/>
<stop offset="1" stop-color="#98BC00"/>
</linearGradient>
<linearGradient id="paint8_linear" x1="24.485" y1="83.0773" x2="72.1755" y2="130.77" gradientUnits="userSpaceOnUse">
<stop stop-color="#456A97"/>
<stop offset="1" stop-color="#1A338C"/>
</linearGradient>
<linearGradient id="paint9_linear" x1="128.553" y1="92.9054" x2="128.553" y2="153.031" gradientUnits="userSpaceOnUse">
<stop stop-color="#B3E800"/>
<stop offset="1" stop-color="#98BC00"/>
</linearGradient>
<linearGradient id="paint10_linear" x1="128.562" y1="134.816" x2="128.562" y2="66.6314" gradientUnits="userSpaceOnUse">
<stop stop-color="#B3E800"/>
<stop offset="1" stop-color="#98BC00"/>
</linearGradient>
<linearGradient id="paint11_linear" x1="100.676" y1="98.3856" x2="78.889" y2="76.5984" gradientUnits="userSpaceOnUse">
<stop stop-color="#889B26" stop-opacity="0"/>
<stop offset="1" stop-color="#454F1E"/>
</linearGradient>
<linearGradient id="paint12_linear" x1="115.843" y1="84.8434" x2="170.319" y2="139.323" gradientUnits="userSpaceOnUse">
<stop stop-color="#456A97"/>
<stop offset="1" stop-color="#1A338C"/>
</linearGradient>
<linearGradient id="paint13_linear" x1="100.294" y1="94.8255" x2="73.2518" y2="67.783" gradientUnits="userSpaceOnUse">
<stop stop-color="#456A97" stop-opacity="0"/>
<stop offset="1" stop-color="#1A338C"/>
</linearGradient>
<linearGradient id="paint14_linear" x1="85.46" y1="89.408" x2="79.2271" y2="83.1751" gradientUnits="userSpaceOnUse">
<stop stop-color="#889B26" stop-opacity="0"/>
<stop offset="1" stop-color="#454F1E"/>
</linearGradient>
<linearGradient id="paint15_linear" x1="84.4987" y1="80.3874" x2="84.4987" y2="90.726" gradientUnits="userSpaceOnUse">
<stop stop-color="#B3E800"/>
<stop offset="1" stop-color="#98BC00"/>
</linearGradient>
<clipPath id="clip0">
<rect width="169" height="169" fill="white" transform="translate(0 0.0600586)"/>
</clipPath>
</defs>
</svg>
