<svg width="169" height="170" viewBox="0 0 169 170" fill="none" xmlns="http://www.w3.org/2000/svg">
<g id="sweaters" clip-path="url(#clip0)">
<path id="Vector" d="M129.117 135.387H39.8844C35.4786 111.094 34.0409 85.4108 35.5714 61.0286C36.8208 41.1284 53.3906 25.6559 73.3308 25.6559H95.6705C115.611 25.6559 132.181 41.1284 133.43 61.0286C134.96 85.4108 133.523 111.094 129.117 135.387V135.387Z" fill="url(#paint0_linear)"/>
<path id="Vector_2" d="M37.4765 119.669C38.147 124.954 38.9438 130.204 39.8838 135.388H129.116C130.056 130.204 130.853 124.954 131.524 119.669H37.4765Z" fill="url(#paint1_linear)"/>
<path id="Vector_3" d="M119.649 155.449H49.3545C46.612 155.449 44.3892 153.226 44.3892 150.485V135.176C44.3892 132.435 46.612 130.212 49.3545 130.212H119.65C122.391 130.212 124.614 132.435 124.614 135.176V150.485C124.614 153.226 122.391 155.449 119.649 155.449V155.449Z" fill="url(#paint2_linear)"/>
<path id="Vector_4" d="M119.598 155.449C116.828 155.449 114.584 153.204 114.584 150.434V135.226C114.584 132.457 116.828 130.212 119.598 130.212C122.368 130.212 124.612 132.457 124.612 135.226V150.434C124.612 153.204 122.368 155.449 119.598 155.449V155.449Z" fill="url(#paint3_linear)"/>
<path id="Vector_5" d="M119.598 155.449C116.828 155.449 114.584 153.204 114.584 150.434V135.226C114.584 132.457 116.828 130.212 119.598 130.212C122.368 130.212 124.612 132.457 124.612 135.226V150.434C124.612 153.204 122.368 155.449 119.598 155.449V155.449Z" fill="url(#paint4_linear)"/>
<path id="Vector_6" d="M109.568 155.449C106.8 155.449 104.555 153.204 104.555 150.434V135.226C104.555 132.457 106.8 130.212 109.568 130.212C112.338 130.212 114.583 132.457 114.583 135.226V150.434C114.583 153.204 112.338 155.449 109.568 155.449V155.449Z" fill="url(#paint5_linear)"/>
<path id="Vector_7" d="M99.542 155.449C96.7724 155.449 94.5289 153.204 94.5289 150.434V135.226C94.5289 132.457 96.7724 130.212 99.542 130.212C102.312 130.212 104.556 132.457 104.556 135.226V150.434C104.556 153.204 102.312 155.449 99.542 155.449V155.449Z" fill="url(#paint6_linear)"/>
<path id="Vector_8" d="M89.515 155.449C86.7455 155.449 84.5007 153.204 84.5007 150.434V135.226C84.5007 132.457 86.7455 130.212 89.515 130.212C92.2846 130.212 94.5294 132.457 94.5294 135.226V150.434C94.5294 153.204 92.2833 155.449 89.515 155.449V155.449Z" fill="url(#paint7_linear)"/>
<path id="Vector_9" d="M79.4873 155.449C76.719 155.449 74.4742 153.204 74.4742 150.434V135.226C74.4742 132.457 76.719 130.212 79.4873 130.212C82.2569 130.212 84.5017 132.457 84.5017 135.226V150.434C84.5017 153.204 82.2569 155.449 79.4873 155.449V155.449Z" fill="url(#paint8_linear)"/>
<path id="Vector_10" d="M69.4604 155.449C66.6908 155.449 64.446 153.204 64.446 150.434V135.226C64.446 132.457 66.6908 130.212 69.4604 130.212C72.2299 130.212 74.4748 132.457 74.4748 135.226V150.434C74.4748 153.204 72.2299 155.449 69.4604 155.449V155.449Z" fill="url(#paint9_linear)"/>
<path id="Vector_11" d="M59.4319 155.449C56.6623 155.449 54.4175 153.204 54.4175 150.434V135.226C54.4175 132.457 56.6623 130.212 59.4319 130.212C62.2002 130.212 64.445 132.457 64.445 135.226V150.434C64.445 153.204 62.2002 155.449 59.4319 155.449V155.449Z" fill="url(#paint10_linear)"/>
<path id="Vector_12" d="M49.4035 155.449C46.634 155.449 44.3892 153.204 44.3892 150.434V135.226C44.3892 132.457 46.634 130.212 49.4035 130.212C52.1731 130.212 54.4179 132.457 54.4179 135.226V150.434C54.4179 153.204 52.1731 155.449 49.4035 155.449V155.449Z" fill="url(#paint11_linear)"/>
<path id="Vector_13" d="M35.5981 99.1779C36.0378 105.99 36.7057 112.8 37.6083 119.602H131.399C132.301 112.8 132.971 105.994 133.405 99.1779H35.5981Z" fill="url(#paint12_linear)"/>
<path id="Vector_14" d="M35.0424 86.0643C35.0927 88.5 35.1726 90.9408 35.281 93.3764H133.722C133.831 90.9408 133.911 88.5051 133.961 86.0643H35.0424Z" fill="url(#paint13_linear)"/>
<path id="Vector_15" d="M49.3545 155.452H81.6122L58.9978 132.836C57.8838 131.441 55.8556 131.182 54.4282 132.269L44.3892 139.909V150.488C44.3892 153.229 46.612 155.452 49.3545 155.452Z" fill="url(#paint14_linear)"/>
<path id="Vector_16" d="M29.4338 92.8631L66.6323 26.2101L40.1175 33.976C30.6612 36.7469 22.818 43.3872 18.5256 52.2568L2.52704 85.3112C-1.66214 94.2892 -0.585515 104.843 5.33015 112.789L34.2689 151.669L56.3895 135.204L30.1571 99.9611C28.6292 97.9084 28.3507 95.1827 29.4338 92.8631V92.8631Z" fill="url(#paint15_linear)"/>
<path id="Vector_17" d="M34.269 151.674L56.3896 135.209L45.7135 120.865L23.6652 137.428L34.269 151.674Z" fill="url(#paint16_linear)"/>
<path id="Vector_18" d="M64.5769 145.605L43.3267 161.777C41.8787 162.879 39.8093 162.598 38.7069 161.149L32.5514 153.061C31.449 151.611 31.7301 149.543 33.178 148.441L54.4282 132.269C55.8775 131.167 57.9457 131.448 59.0481 132.896L65.2036 140.986C66.306 142.435 66.0262 144.503 64.5769 145.605V145.605Z" fill="url(#paint17_linear)"/>
<path id="Vector_19" d="M64.5492 145.627C63.0857 146.741 60.9969 146.457 59.8829 144.994L53.7674 136.957C52.6534 135.494 52.937 133.405 54.4005 132.291C55.8639 131.178 57.9527 131.462 59.0667 132.924L65.1822 140.961C66.2963 142.425 66.0126 144.514 64.5492 145.627Z" fill="url(#paint18_linear)"/>
<path id="Vector_20" d="M59.2512 149.659C57.7878 150.773 55.699 150.49 54.585 149.026L48.4682 140.989C47.3554 139.526 47.6391 137.437 49.1025 136.323C50.566 135.209 52.6548 135.493 53.7675 136.956L59.8843 144.993C60.997 146.456 60.7147 148.545 59.2512 149.659Z" fill="url(#paint19_linear)"/>
<path id="Vector_21" d="M53.9511 153.691C52.4876 154.804 50.3988 154.52 49.2848 153.058L43.168 145.021C42.0553 143.558 42.3389 141.469 43.8024 140.355C45.2658 139.241 47.3546 139.524 48.4674 140.988L54.5842 149.025C55.6982 150.488 55.4145 152.577 53.9511 153.691Z" fill="url(#paint20_linear)"/>
<path id="Vector_22" d="M48.6529 157.721C47.1894 158.835 45.1007 158.551 43.9866 157.088L37.8698 149.051C36.7571 147.589 37.0408 145.499 38.5042 144.386C39.9676 143.272 42.0564 143.556 43.1692 145.019L49.286 153.056C50.4 154.518 50.1163 156.608 48.6529 157.721Z" fill="url(#paint21_linear)"/>
<path id="Vector_23" d="M43.3525 161.753C41.889 162.867 39.8002 162.583 38.6862 161.119L32.5707 153.083C31.4567 151.619 31.7403 149.531 33.2038 148.417C34.6672 147.304 36.756 147.587 37.87 149.05L43.9855 157.086C45.0996 158.55 44.8159 160.639 43.3525 161.753V161.753Z" fill="url(#paint22_linear)"/>
<path id="Vector_24" d="M35.0301 35.916C27.8715 39.2955 22.0203 45.0396 18.5261 52.2614L6.76056 76.5688L30.1576 99.9658C29.6805 99.325 29.3246 98.6171 29.0938 97.877C29.0023 97.5817 28.9301 97.28 28.8785 96.9757C28.7496 96.215 28.747 95.4336 28.8747 94.6664C28.9778 94.0527 29.1622 93.448 29.433 92.8678L34.9399 83.0027L35.0288 82.8416V35.916H35.0301Z" fill="url(#paint23_linear)"/>
<path id="Vector_25" d="M139.565 92.8631L102.367 26.2101L128.881 33.976C138.338 36.7469 146.181 43.3872 150.475 52.2568L166.472 85.3112C170.661 94.2892 169.584 104.843 163.669 112.789L134.73 151.669L112.609 135.204L138.842 99.9611C140.37 97.9084 140.648 95.1827 139.565 92.8631V92.8631Z" fill="url(#paint24_linear)"/>
<path id="Vector_26" d="M134.731 151.674L112.61 135.209L123.286 120.865L145.334 137.428L134.731 151.674Z" fill="url(#paint25_linear)"/>
<path id="Vector_27" d="M104.425 145.605L125.675 161.777C127.123 162.879 129.193 162.598 130.295 161.149L136.451 153.061C137.553 151.611 137.272 149.543 135.824 148.441L114.574 132.269C113.126 131.167 111.056 131.448 109.954 132.896L103.798 140.986C102.696 142.435 102.977 144.503 104.425 145.605V145.605Z" fill="url(#paint26_linear)"/>
<path id="Vector_28" d="M104.45 145.627C105.913 146.741 108.003 146.457 109.116 144.994L115.233 136.957C116.346 135.494 116.062 133.405 114.599 132.291C113.136 131.178 111.046 131.462 109.934 132.924L103.817 140.961C102.704 142.425 102.988 144.514 104.45 145.627Z" fill="url(#paint27_linear)"/>
<path id="Vector_29" d="M109.752 149.659C111.216 150.773 113.306 150.49 114.418 149.026L120.535 140.989C121.648 139.526 121.364 137.437 119.901 136.323C118.439 135.209 116.349 135.493 115.236 136.956L109.119 144.993C108.006 146.456 108.29 148.545 109.752 149.659Z" fill="url(#paint28_linear)"/>
<path id="Vector_30" d="M115.048 153.691C116.512 154.804 118.602 154.52 119.715 153.058L125.831 145.021C126.944 143.558 126.66 141.469 125.197 140.355C123.735 139.241 121.645 139.524 120.532 140.988L114.415 149.025C113.302 150.488 113.586 152.577 115.048 153.691V153.691Z" fill="url(#paint29_linear)"/>
<path id="Vector_31" d="M120.352 157.721C121.814 158.835 123.904 158.551 125.017 157.088L131.133 149.051C132.246 147.589 131.962 145.499 130.5 144.386C129.037 143.272 126.947 143.556 125.834 145.019L119.717 153.056C118.604 154.518 118.888 156.608 120.352 157.721Z" fill="url(#paint30_linear)"/>
<path id="Vector_32" d="M125.649 161.753C127.112 162.867 129.201 162.583 130.315 161.119L136.431 153.083C137.545 151.619 137.261 149.531 135.798 148.417C134.334 147.304 132.245 147.587 131.131 149.05L125.016 157.086C123.903 158.55 124.186 160.639 125.649 161.753V161.753Z" fill="url(#paint31_linear)"/>
<path id="Vector_33" d="M133.969 35.916C141.127 39.2955 146.979 45.0396 150.474 52.2614L162.238 76.5688L138.841 99.9658C139.318 99.325 139.674 98.6171 139.905 97.877C139.997 97.5817 140.069 97.28 140.12 96.9757C140.249 96.215 140.252 95.4336 140.124 94.6664C140.021 94.0527 139.837 93.448 139.566 92.8678L134.06 83.0027L133.97 82.8416V35.916H133.969Z" fill="url(#paint32_linear)"/>
<path id="Vector_34" d="M166.473 85.314L150.476 52.2596C146.182 43.39 138.339 36.7497 128.881 33.9788L109.86 28.4074C107.583 27.4868 105.198 26.7854 102.733 26.3199L102.368 26.2129L102.396 26.2619C100.209 25.8699 97.9632 25.6559 95.6694 25.6559C88.2232 25.6559 80.7771 25.6559 73.3296 25.6559C67.8111 25.6559 62.5518 26.8447 57.803 28.9825C58.0093 30.5671 58.9183 31.93 60.2051 32.7539L132.923 105.472C133.564 97.9486 133.924 90.42 134 82.8913L139.566 92.8672C140.649 95.1855 140.371 97.9112 138.843 99.9639L133.966 106.515L140.698 113.247C141.64 114.717 143.282 115.694 145.157 115.694H161.511L163.671 112.792C169.585 104.846 170.662 94.292 166.473 85.314V85.314Z" fill="url(#paint33_linear)"/>
<path id="Vector_35" d="M105.946 33.5885H63.0537C60.1294 33.5885 57.7582 31.2186 57.7582 28.2943V11.9656C57.7582 9.04133 60.1294 6.67017 63.0537 6.67017H105.946C108.87 6.67017 111.24 9.04133 111.24 11.9656V28.2943C111.242 31.2186 108.87 33.5885 105.946 33.5885Z" fill="url(#paint34_linear)"/>
<path id="Vector_36" d="M105.894 33.5885C102.94 33.5885 100.545 31.1941 100.545 28.2401V12.0185C100.545 9.06454 102.94 6.67017 105.894 6.67017C108.847 6.67017 111.242 9.06454 111.242 12.0185V28.2401C111.242 31.1941 108.847 33.5885 105.894 33.5885Z" fill="url(#paint35_linear)"/>
<path id="Vector_37" d="M95.1978 33.5885C92.2439 33.5885 89.8495 31.1941 89.8495 28.2401V12.0185C89.8495 9.06454 92.2439 6.67017 95.1978 6.67017C98.1518 6.67017 100.546 9.06454 100.546 12.0185V28.2401C100.546 31.1941 98.1518 33.5885 95.1978 33.5885Z" fill="url(#paint36_linear)"/>
<path id="Vector_38" d="M84.5021 33.5885C81.5482 33.5885 79.1538 31.1941 79.1538 28.2401V12.0185C79.1538 9.06454 81.5482 6.67017 84.5021 6.67017C87.4561 6.67017 89.8504 9.06454 89.8504 12.0185V28.2401C89.8504 31.1941 87.4561 33.5885 84.5021 33.5885Z" fill="url(#paint37_linear)"/>
<path id="Vector_39" d="M73.8044 33.5885C70.8505 33.5885 68.4561 31.1941 68.4561 28.2401V12.0185C68.4561 9.06454 70.8505 6.67017 73.8044 6.67017C76.7584 6.67017 79.1528 9.06454 79.1528 12.0185V28.2401C79.1528 31.1941 76.7584 33.5885 73.8044 33.5885Z" fill="url(#paint38_linear)"/>
<path id="Vector_40" d="M63.1066 33.5885C60.1526 33.5885 57.7582 31.1941 57.7582 28.2401V12.0185C57.7582 9.06454 60.1526 6.67017 63.1066 6.67017C66.0605 6.67017 68.4549 9.06454 68.4549 12.0185V28.2401C68.4549 31.1941 66.0605 33.5885 63.1066 33.5885Z" fill="url(#paint39_linear)"/>
<path id="Vector_41" d="M34.9842 81.7515H134.019C134.032 79.3159 134.019 76.879 133.972 74.4434H35.0307C34.9842 76.879 34.9713 79.3159 34.9842 81.7515Z" fill="url(#paint40_linear)"/>
<path id="Vector_42" d="M66.6348 26.2101L66.6141 26.2514C66.5133 26.2682 66.4086 26.285 66.304 26.3057L66.6348 26.2101Z" fill="url(#paint41_linear)"/>
<path id="Vector_43" d="M102.367 26.2101L102.697 26.3057C102.593 26.285 102.488 26.2682 102.387 26.2514L102.367 26.2101Z" fill="url(#paint42_linear)"/>
</g>
<defs>
<linearGradient id="paint0_linear" x1="91.972" y1="97.9697" x2="131.955" y2="142.162" gradientUnits="userSpaceOnUse">
<stop stop-color="#FFC738"/>
<stop offset="0.2447" stop-color="#FFC331"/>
<stop offset="0.5988" stop-color="#FFB81E"/>
<stop offset="1" stop-color="#FFA700"/>
</linearGradient>
<linearGradient id="paint1_linear" x1="84.5001" y1="123.012" x2="84.5001" y2="137.513" gradientUnits="userSpaceOnUse">
<stop stop-color="#E4003D" stop-opacity="0"/>
<stop offset="0.2334" stop-color="#E0053F" stop-opacity="0.235294"/>
<stop offset="0.496" stop-color="#D31243" stop-opacity="0.494118"/>
<stop offset="0.7717" stop-color="#BD294B" stop-opacity="0.772549"/>
<stop offset="1" stop-color="#A64153"/>
</linearGradient>
<linearGradient id="paint2_linear" x1="73.9222" y1="126.349" x2="92.8492" y2="155.835" gradientUnits="userSpaceOnUse">
<stop stop-color="#FF4974"/>
<stop offset="0.3262" stop-color="#FE4672"/>
<stop offset="0.5324" stop-color="#FB3E6C"/>
<stop offset="0.7054" stop-color="#F52F60"/>
<stop offset="0.8591" stop-color="#EE1A51"/>
<stop offset="1" stop-color="#E4003D"/>
</linearGradient>
<linearGradient id="paint3_linear" x1="110.265" y1="138.213" x2="126.477" y2="146.235" gradientUnits="userSpaceOnUse">
<stop stop-color="#FF4974"/>
<stop offset="0.3262" stop-color="#FE4672"/>
<stop offset="0.5324" stop-color="#FB3E6C"/>
<stop offset="0.7054" stop-color="#F52F60"/>
<stop offset="0.8591" stop-color="#EE1A51"/>
<stop offset="1" stop-color="#E4003D"/>
</linearGradient>
<linearGradient id="paint4_linear" x1="110.265" y1="138.213" x2="126.477" y2="146.235" gradientUnits="userSpaceOnUse">
<stop stop-color="#FF4974"/>
<stop offset="0.3262" stop-color="#FE4672"/>
<stop offset="0.5324" stop-color="#FB3E6C"/>
<stop offset="0.7054" stop-color="#F52F60"/>
<stop offset="0.8591" stop-color="#EE1A51"/>
<stop offset="1" stop-color="#E4003D"/>
</linearGradient>
<linearGradient id="paint5_linear" x1="100.237" y1="138.213" x2="116.448" y2="146.235" gradientUnits="userSpaceOnUse">
<stop stop-color="#FF4974"/>
<stop offset="0.3262" stop-color="#FE4672"/>
<stop offset="0.5324" stop-color="#FB3E6C"/>
<stop offset="0.7054" stop-color="#F52F60"/>
<stop offset="0.8591" stop-color="#EE1A51"/>
<stop offset="1" stop-color="#E4003D"/>
</linearGradient>
<linearGradient id="paint6_linear" x1="90.2098" y1="138.213" x2="106.421" y2="146.235" gradientUnits="userSpaceOnUse">
<stop stop-color="#FF4974"/>
<stop offset="0.3262" stop-color="#FE4672"/>
<stop offset="0.5324" stop-color="#FB3E6C"/>
<stop offset="0.7054" stop-color="#F52F60"/>
<stop offset="0.8591" stop-color="#EE1A51"/>
<stop offset="1" stop-color="#E4003D"/>
</linearGradient>
<linearGradient id="paint7_linear" x1="80.1823" y1="138.213" x2="96.3935" y2="146.235" gradientUnits="userSpaceOnUse">
<stop stop-color="#FF4974"/>
<stop offset="0.3262" stop-color="#FE4672"/>
<stop offset="0.5324" stop-color="#FB3E6C"/>
<stop offset="0.7054" stop-color="#F52F60"/>
<stop offset="0.8591" stop-color="#EE1A51"/>
<stop offset="1" stop-color="#E4003D"/>
</linearGradient>
<linearGradient id="paint8_linear" x1="70.1554" y1="138.213" x2="86.3666" y2="146.235" gradientUnits="userSpaceOnUse">
<stop stop-color="#FF4974"/>
<stop offset="0.3262" stop-color="#FE4672"/>
<stop offset="0.5324" stop-color="#FB3E6C"/>
<stop offset="0.7054" stop-color="#F52F60"/>
<stop offset="0.8591" stop-color="#EE1A51"/>
<stop offset="1" stop-color="#E4003D"/>
</linearGradient>
<linearGradient id="paint9_linear" x1="60.128" y1="138.213" x2="76.3392" y2="146.235" gradientUnits="userSpaceOnUse">
<stop stop-color="#FF4974"/>
<stop offset="0.3262" stop-color="#FE4672"/>
<stop offset="0.5324" stop-color="#FB3E6C"/>
<stop offset="0.7054" stop-color="#F52F60"/>
<stop offset="0.8591" stop-color="#EE1A51"/>
<stop offset="1" stop-color="#E4003D"/>
</linearGradient>
<linearGradient id="paint10_linear" x1="50.0991" y1="138.213" x2="66.3102" y2="146.235" gradientUnits="userSpaceOnUse">
<stop stop-color="#FF4974"/>
<stop offset="0.3262" stop-color="#FE4672"/>
<stop offset="0.5324" stop-color="#FB3E6C"/>
<stop offset="0.7054" stop-color="#F52F60"/>
<stop offset="0.8591" stop-color="#EE1A51"/>
<stop offset="1" stop-color="#E4003D"/>
</linearGradient>
<linearGradient id="paint11_linear" x1="40.0714" y1="138.213" x2="56.2826" y2="146.235" gradientUnits="userSpaceOnUse">
<stop stop-color="#FF4974"/>
<stop offset="0.3262" stop-color="#FE4672"/>
<stop offset="0.5324" stop-color="#FB3E6C"/>
<stop offset="0.7054" stop-color="#F52F60"/>
<stop offset="0.8591" stop-color="#EE1A51"/>
<stop offset="1" stop-color="#E4003D"/>
</linearGradient>
<linearGradient id="paint12_linear" x1="57.2146" y1="81.0986" x2="116.23" y2="140.114" gradientUnits="userSpaceOnUse">
<stop stop-color="#FF4974"/>
<stop offset="0.3262" stop-color="#FE4672"/>
<stop offset="0.5324" stop-color="#FB3E6C"/>
<stop offset="0.7054" stop-color="#F52F60"/>
<stop offset="0.8591" stop-color="#EE1A51"/>
<stop offset="1" stop-color="#E4003D"/>
</linearGradient>
<linearGradient id="paint13_linear" x1="59.6162" y1="64.7163" x2="113.435" y2="118.536" gradientUnits="userSpaceOnUse">
<stop stop-color="#ECF7FF"/>
<stop offset="1" stop-color="#C2E0FF"/>
</linearGradient>
<linearGradient id="paint14_linear" x1="81.2111" y1="172.193" x2="45.4858" y2="136.468" gradientUnits="userSpaceOnUse">
<stop stop-color="#E4003D" stop-opacity="0"/>
<stop offset="0.2058" stop-color="#D51042" stop-opacity="0.203922"/>
<stop offset="0.7229" stop-color="#B3334E" stop-opacity="0.721569"/>
<stop offset="1" stop-color="#A64153"/>
</linearGradient>
<linearGradient id="paint15_linear" x1="33.3161" y1="60.7588" x2="33.3161" y2="199.959" gradientUnits="userSpaceOnUse">
<stop stop-color="#FFC738"/>
<stop offset="0.2447" stop-color="#FFC331"/>
<stop offset="0.5988" stop-color="#FFB81E"/>
<stop offset="1" stop-color="#FFA700"/>
</linearGradient>
<linearGradient id="paint16_linear" x1="38.3161" y1="133.489" x2="47.5377" y2="148.731" gradientUnits="userSpaceOnUse">
<stop stop-color="#E4003D" stop-opacity="0"/>
<stop offset="0.2334" stop-color="#E0053F" stop-opacity="0.235294"/>
<stop offset="0.496" stop-color="#D31243" stop-opacity="0.494118"/>
<stop offset="0.7717" stop-color="#BD294B" stop-opacity="0.772549"/>
<stop offset="1" stop-color="#A64153"/>
</linearGradient>
<linearGradient id="paint17_linear" x1="39.9276" y1="143.756" x2="55.9435" y2="149.595" gradientUnits="userSpaceOnUse">
<stop stop-color="#FF4974"/>
<stop offset="0.3262" stop-color="#FE4672"/>
<stop offset="0.5324" stop-color="#FB3E6C"/>
<stop offset="0.7054" stop-color="#F52F60"/>
<stop offset="0.8591" stop-color="#EE1A51"/>
<stop offset="1" stop-color="#E4003D"/>
</linearGradient>
<linearGradient id="paint18_linear" x1="52.6891" y1="140.269" x2="64.4822" y2="137.989" gradientUnits="userSpaceOnUse">
<stop stop-color="#FF4974"/>
<stop offset="0.3262" stop-color="#FE4672"/>
<stop offset="0.5324" stop-color="#FB3E6C"/>
<stop offset="0.7054" stop-color="#F52F60"/>
<stop offset="0.8591" stop-color="#EE1A51"/>
<stop offset="1" stop-color="#E4003D"/>
</linearGradient>
<linearGradient id="paint19_linear" x1="47.3898" y1="144.301" x2="59.1829" y2="142.021" gradientUnits="userSpaceOnUse">
<stop stop-color="#FF4974"/>
<stop offset="0.3262" stop-color="#FE4672"/>
<stop offset="0.5324" stop-color="#FB3E6C"/>
<stop offset="0.7054" stop-color="#F52F60"/>
<stop offset="0.8591" stop-color="#EE1A51"/>
<stop offset="1" stop-color="#E4003D"/>
</linearGradient>
<linearGradient id="paint20_linear" x1="42.0895" y1="148.332" x2="53.8827" y2="146.052" gradientUnits="userSpaceOnUse">
<stop stop-color="#FF4974"/>
<stop offset="0.3262" stop-color="#FE4672"/>
<stop offset="0.5324" stop-color="#FB3E6C"/>
<stop offset="0.7054" stop-color="#F52F60"/>
<stop offset="0.8591" stop-color="#EE1A51"/>
<stop offset="1" stop-color="#E4003D"/>
</linearGradient>
<linearGradient id="paint21_linear" x1="36.7913" y1="152.363" x2="48.5844" y2="150.083" gradientUnits="userSpaceOnUse">
<stop stop-color="#FF4974"/>
<stop offset="0.3262" stop-color="#FE4672"/>
<stop offset="0.5324" stop-color="#FB3E6C"/>
<stop offset="0.7054" stop-color="#F52F60"/>
<stop offset="0.8591" stop-color="#EE1A51"/>
<stop offset="1" stop-color="#E4003D"/>
</linearGradient>
<linearGradient id="paint22_linear" x1="31.4908" y1="156.395" x2="43.2839" y2="154.114" gradientUnits="userSpaceOnUse">
<stop stop-color="#FF4974"/>
<stop offset="0.3262" stop-color="#FE4672"/>
<stop offset="0.5324" stop-color="#FB3E6C"/>
<stop offset="0.7054" stop-color="#F52F60"/>
<stop offset="0.8591" stop-color="#EE1A51"/>
<stop offset="1" stop-color="#E4003D"/>
</linearGradient>
<linearGradient id="paint23_linear" x1="26.234" y1="61.6445" x2="68.2261" y2="103.219" gradientUnits="userSpaceOnUse">
<stop stop-color="#E4003D" stop-opacity="0"/>
<stop offset="0.2334" stop-color="#E0053F" stop-opacity="0.235294"/>
<stop offset="0.496" stop-color="#D31243" stop-opacity="0.494118"/>
<stop offset="0.7717" stop-color="#BD294B" stop-opacity="0.772549"/>
<stop offset="1" stop-color="#A64153"/>
</linearGradient>
<linearGradient id="paint24_linear" x1="135.683" y1="60.7588" x2="135.683" y2="199.959" gradientUnits="userSpaceOnUse">
<stop stop-color="#FFC738"/>
<stop offset="0.2447" stop-color="#FFC331"/>
<stop offset="0.5988" stop-color="#FFB81E"/>
<stop offset="1" stop-color="#FFA700"/>
</linearGradient>
<linearGradient id="paint25_linear" x1="130.683" y1="133.489" x2="121.462" y2="148.731" gradientUnits="userSpaceOnUse">
<stop stop-color="#E4003D" stop-opacity="0"/>
<stop offset="0.2334" stop-color="#E0053F" stop-opacity="0.235294"/>
<stop offset="0.496" stop-color="#D31243" stop-opacity="0.494118"/>
<stop offset="0.7717" stop-color="#BD294B" stop-opacity="0.772549"/>
<stop offset="1" stop-color="#A64153"/>
</linearGradient>
<linearGradient id="paint26_linear" x1="129.059" y1="143.761" x2="113.043" y2="149.601" gradientUnits="userSpaceOnUse">
<stop stop-color="#FF4974"/>
<stop offset="0.3262" stop-color="#FE4672"/>
<stop offset="0.5324" stop-color="#FB3E6C"/>
<stop offset="0.7054" stop-color="#F52F60"/>
<stop offset="0.8591" stop-color="#EE1A51"/>
<stop offset="1" stop-color="#E4003D"/>
</linearGradient>
<linearGradient id="paint27_linear" x1="116.296" y1="140.275" x2="104.503" y2="137.994" gradientUnits="userSpaceOnUse">
<stop stop-color="#FF4974"/>
<stop offset="0.3262" stop-color="#FE4672"/>
<stop offset="0.5324" stop-color="#FB3E6C"/>
<stop offset="0.7054" stop-color="#F52F60"/>
<stop offset="0.8591" stop-color="#EE1A51"/>
<stop offset="1" stop-color="#E4003D"/>
</linearGradient>
<linearGradient id="paint28_linear" x1="121.598" y1="144.306" x2="109.805" y2="142.026" gradientUnits="userSpaceOnUse">
<stop stop-color="#FF4974"/>
<stop offset="0.3262" stop-color="#FE4672"/>
<stop offset="0.5324" stop-color="#FB3E6C"/>
<stop offset="0.7054" stop-color="#F52F60"/>
<stop offset="0.8591" stop-color="#EE1A51"/>
<stop offset="1" stop-color="#E4003D"/>
</linearGradient>
<linearGradient id="paint29_linear" x1="126.894" y1="148.338" x2="115.101" y2="146.058" gradientUnits="userSpaceOnUse">
<stop stop-color="#FF4974"/>
<stop offset="0.3262" stop-color="#FE4672"/>
<stop offset="0.5324" stop-color="#FB3E6C"/>
<stop offset="0.7054" stop-color="#F52F60"/>
<stop offset="0.8591" stop-color="#EE1A51"/>
<stop offset="1" stop-color="#E4003D"/>
</linearGradient>
<linearGradient id="paint30_linear" x1="132.197" y1="152.369" x2="120.403" y2="150.089" gradientUnits="userSpaceOnUse">
<stop stop-color="#FF4974"/>
<stop offset="0.3262" stop-color="#FE4672"/>
<stop offset="0.5324" stop-color="#FB3E6C"/>
<stop offset="0.7054" stop-color="#F52F60"/>
<stop offset="0.8591" stop-color="#EE1A51"/>
<stop offset="1" stop-color="#E4003D"/>
</linearGradient>
<linearGradient id="paint31_linear" x1="137.495" y1="156.4" x2="125.702" y2="154.12" gradientUnits="userSpaceOnUse">
<stop stop-color="#FF4974"/>
<stop offset="0.3262" stop-color="#FE4672"/>
<stop offset="0.5324" stop-color="#FB3E6C"/>
<stop offset="0.7054" stop-color="#F52F60"/>
<stop offset="0.8591" stop-color="#EE1A51"/>
<stop offset="1" stop-color="#E4003D"/>
</linearGradient>
<linearGradient id="paint32_linear" x1="142.765" y1="61.6445" x2="100.773" y2="103.219" gradientUnits="userSpaceOnUse">
<stop stop-color="#E4003D" stop-opacity="0"/>
<stop offset="0.2334" stop-color="#E0053F" stop-opacity="0.235294"/>
<stop offset="0.496" stop-color="#D31243" stop-opacity="0.494118"/>
<stop offset="0.7717" stop-color="#BD294B" stop-opacity="0.772549"/>
<stop offset="1" stop-color="#A64153"/>
</linearGradient>
<linearGradient id="paint33_linear" x1="112.324" y1="56.4489" x2="62.184" y2="-176.284" gradientUnits="userSpaceOnUse">
<stop stop-color="#E4003D" stop-opacity="0"/>
<stop offset="0.2058" stop-color="#D51042" stop-opacity="0.203922"/>
<stop offset="0.7229" stop-color="#B3334E" stop-opacity="0.721569"/>
<stop offset="1" stop-color="#A64153"/>
</linearGradient>
<linearGradient id="paint34_linear" x1="76.2322" y1="7.24925" x2="91.0234" y2="30.2924" gradientUnits="userSpaceOnUse">
<stop stop-color="#FF4974"/>
<stop offset="0.3262" stop-color="#FE4672"/>
<stop offset="0.5324" stop-color="#FB3E6C"/>
<stop offset="0.7054" stop-color="#F52F60"/>
<stop offset="0.8591" stop-color="#EE1A51"/>
<stop offset="1" stop-color="#E4003D"/>
</linearGradient>
<linearGradient id="paint35_linear" x1="95.9388" y1="15.2037" x2="113.231" y2="23.7605" gradientUnits="userSpaceOnUse">
<stop stop-color="#FF4974"/>
<stop offset="0.3262" stop-color="#FE4672"/>
<stop offset="0.5324" stop-color="#FB3E6C"/>
<stop offset="0.7054" stop-color="#F52F60"/>
<stop offset="0.8591" stop-color="#EE1A51"/>
<stop offset="1" stop-color="#E4003D"/>
</linearGradient>
<linearGradient id="paint36_linear" x1="85.2432" y1="15.2037" x2="102.535" y2="23.7605" gradientUnits="userSpaceOnUse">
<stop stop-color="#FF4974"/>
<stop offset="0.3262" stop-color="#FE4672"/>
<stop offset="0.5324" stop-color="#FB3E6C"/>
<stop offset="0.7054" stop-color="#F52F60"/>
<stop offset="0.8591" stop-color="#EE1A51"/>
<stop offset="1" stop-color="#E4003D"/>
</linearGradient>
<linearGradient id="paint37_linear" x1="74.5477" y1="15.2037" x2="91.8396" y2="23.7605" gradientUnits="userSpaceOnUse">
<stop stop-color="#FF4974"/>
<stop offset="0.3262" stop-color="#FE4672"/>
<stop offset="0.5324" stop-color="#FB3E6C"/>
<stop offset="0.7054" stop-color="#F52F60"/>
<stop offset="0.8591" stop-color="#EE1A51"/>
<stop offset="1" stop-color="#E4003D"/>
</linearGradient>
<linearGradient id="paint38_linear" x1="63.8502" y1="15.2037" x2="81.1421" y2="23.7605" gradientUnits="userSpaceOnUse">
<stop stop-color="#FF4974"/>
<stop offset="0.3262" stop-color="#FE4672"/>
<stop offset="0.5324" stop-color="#FB3E6C"/>
<stop offset="0.7054" stop-color="#F52F60"/>
<stop offset="0.8591" stop-color="#EE1A51"/>
<stop offset="1" stop-color="#E4003D"/>
</linearGradient>
<linearGradient id="paint39_linear" x1="53.1524" y1="15.2037" x2="70.4444" y2="23.7605" gradientUnits="userSpaceOnUse">
<stop stop-color="#FF4974"/>
<stop offset="0.3262" stop-color="#FE4672"/>
<stop offset="0.5324" stop-color="#FB3E6C"/>
<stop offset="0.7054" stop-color="#F52F60"/>
<stop offset="0.8591" stop-color="#EE1A51"/>
<stop offset="1" stop-color="#E4003D"/>
</linearGradient>
<linearGradient id="paint40_linear" x1="59.5444" y1="53.1636" x2="113.519" y2="107.138" gradientUnits="userSpaceOnUse">
<stop stop-color="#3B395F"/>
<stop offset="0.0633" stop-color="#37355A"/>
<stop offset="0.4033" stop-color="#232543"/>
<stop offset="0.7232" stop-color="#171B35"/>
<stop offset="1" stop-color="#131830"/>
</linearGradient>
<linearGradient id="paint41_linear" x1="66.4698" y1="26.2365" x2="66.4698" y2="26.3433" gradientUnits="userSpaceOnUse">
<stop stop-color="#FFC738"/>
<stop offset="0.2447" stop-color="#FFC331"/>
<stop offset="0.5988" stop-color="#FFB81E"/>
<stop offset="1" stop-color="#FFA700"/>
</linearGradient>
<linearGradient id="paint42_linear" x1="102.532" y1="26.2365" x2="102.532" y2="26.3433" gradientUnits="userSpaceOnUse">
<stop stop-color="#FFC738"/>
<stop offset="0.2447" stop-color="#FFC331"/>
<stop offset="0.5988" stop-color="#FFB81E"/>
<stop offset="1" stop-color="#FFA700"/>
</linearGradient>
<clipPath id="clip0">
<rect width="169" height="169" fill="white" transform="translate(0 0.0600586)"/>
</clipPath>
</defs>
</svg>
