<svg width="169" height="170" viewBox="0 0 169 170" fill="none" xmlns="http://www.w3.org/2000/svg">
<g id="swimsuit" clip-path="url(#clip0)">
<g id="Group">
<path id="Vector" d="M46.7631 127.913C46.7631 127.913 50.0403 132.251 60.2579 139.673C70.4754 147.095 76.7406 164.06 80.5001 167.048C80.5001 167.048 78.5721 129.937 46.7631 127.913V127.913Z" fill="url(#paint0_linear)"/>
<path id="Vector_2" d="M122.237 127.913C122.237 127.913 118.96 132.251 108.742 139.673C98.5248 147.095 92.2596 164.06 88.5002 167.048C88.5002 167.048 90.4281 129.937 122.237 127.913Z" fill="url(#paint1_linear)"/>
</g>
<path id="Vector_3" d="M127.878 50.9147H84.5018H41.1258C41.1258 50.9147 63.728 86.1912 45.2716 120.65C43.5458 123.872 45.096 127.892 48.5704 129.027C58.0702 132.131 73.9528 140.879 79.6332 165.178C80.1634 167.447 82.1725 169.06 84.5018 169.06C86.831 169.06 88.8401 167.447 89.3703 165.178C95.0506 140.878 110.933 132.131 120.433 129.027C123.908 127.892 125.458 123.872 123.732 120.65C105.275 86.1912 127.878 50.9147 127.878 50.9147V50.9147Z" fill="url(#paint2_linear)"/>
<path id="Vector_4" d="M127.878 50.9147H84.5018H41.1258C41.1258 50.9147 46.0901 58.6628 49.4658 70.4434L111.874 132.852C114.969 131.062 117.924 129.848 120.433 129.027C123.908 127.892 125.458 123.872 123.732 120.65C105.275 86.1912 127.878 50.9147 127.878 50.9147V50.9147Z" fill="url(#paint3_linear)"/>
<path id="Vector_5" d="M123.153 0.0723194C123.079 0.0650292 123.005 0.0600586 122.93 0.0600586C121.563 0.0600586 120.454 1.27454 120.454 2.77267V5.43127C120.454 25.14 105.87 41.1174 87.8799 41.1174H81.1208C63.1306 41.1174 48.5466 25.1403 48.5466 5.43127V2.77267C48.5466 1.27454 47.4382 0.0600586 46.0706 0.0600586C45.9954 0.0600586 45.9212 0.0650292 45.8476 0.0723194V55.6706H123.153V0.0723194H123.153Z" fill="url(#paint4_linear)"/>
<path id="Vector_6" d="M129.107 47.5358L126.882 36.9982C125.749 31.6332 125.177 26.1653 125.177 20.6821V2.55302C125.177 1.26962 124.209 0.148915 122.928 0.065741C121.525 -0.025055 120.358 1.08637 120.358 2.47018V24.6658C120.358 28.238 117.892 31.3334 114.411 32.1379C113.33 32.3878 112.124 32.6469 110.814 32.8984C101.718 34.6461 93.8985 40.4153 89.5005 48.5674L86.4055 54.3044C85.5876 55.8204 83.4128 55.8204 82.5947 54.3044L79.4997 48.5674C75.1017 40.4149 67.2826 34.6458 58.1861 32.8984C56.8762 32.6469 55.6704 32.3878 54.5888 32.1379C51.1084 31.3334 48.6423 28.238 48.6423 24.6658V2.55269C48.6423 1.26928 47.6737 0.148584 46.3929 0.065741C44.9896 -0.025055 43.8228 1.08637 43.8228 2.47018V20.6807C43.8228 26.1643 43.2515 31.6332 42.1186 36.9985L39.8931 47.5361C38.1474 55.8012 41.2795 64.4341 48.121 69.3891C51.4308 71.7863 55.4437 73.2645 59.8115 73.4309C60.0673 73.4405 60.3242 73.4471 60.582 73.4501C66.4015 73.5177 71.8012 71.7435 76.2343 68.6734C81.2033 65.2324 87.7972 65.2324 92.7662 68.6734C97.1996 71.7435 102.599 73.5177 108.419 73.4501C108.671 73.4471 108.922 73.4412 109.172 73.4315C113.543 73.2675 117.559 71.7906 120.872 69.3938C127.718 64.4404 130.853 55.8039 129.107 47.5358V47.5358Z" fill="url(#paint5_linear)"/>
<path id="Vector_7" d="M122.13 68.4087L96.878 43.1568C96.5728 42.4112 95.7775 42.2452 94.9551 42.399C94.8523 42.4182 94.3699 42.5116 93.6067 42.7042C92.0314 44.4777 90.6489 46.441 89.5013 48.5681L86.4063 54.3052C85.5885 55.8212 83.4134 55.8212 82.5955 54.3052L79.5005 48.5681C78.353 46.4407 76.9705 44.4777 75.3952 42.7042C74.6323 42.5116 74.1499 42.4182 74.0468 42.399C73.1054 42.2227 72.488 42.5557 72.3127 43.4978C72.1596 44.3206 72.3253 45.1159 73.0709 45.4207C73.0709 45.4207 78.1429 50.5656 78.1784 50.6283C76.0722 52.4376 74.1094 54.6167 72.5324 57.2338C72.0377 58.0546 72.0132 58.8317 72.8337 59.3261L80.2388 66.7313C84.4164 65.4505 89.0467 66.0977 92.7667 68.6735C97.2001 71.7436 102.6 73.5178 108.419 73.4502C108.671 73.4472 108.922 73.4413 109.172 73.4316C113.543 73.2676 117.56 71.7907 120.873 69.3939C121.307 69.0807 121.726 68.7513 122.13 68.4087V68.4087Z" fill="url(#paint6_linear)"/>
<g id="Group_2">
<path id="Vector_8" d="M95.2737 59.5761C94.6855 59.5761 94.1116 59.2769 93.7862 58.7364C87.4659 48.2475 73.5509 45.5478 73.4111 45.5217C72.469 45.346 71.8477 44.4401 72.023 43.4983C72.1983 42.5562 73.1049 41.9339 74.0463 42.1102C74.6796 42.2282 89.6424 45.1356 96.7579 56.9454C97.2527 57.7662 96.9883 58.8322 96.1674 59.3269C95.8874 59.4956 95.5786 59.5761 95.2737 59.5761V59.5761Z" fill="url(#paint7_linear)"/>
<path id="Vector_9" d="M73.7268 59.5761C74.315 59.5761 74.889 59.2769 75.2144 58.7364C81.5346 48.2475 95.4496 45.5478 95.5894 45.5217C96.5315 45.346 97.1529 44.4401 96.9776 43.4983C96.8023 42.5562 95.8956 41.9339 94.9542 42.1102C94.321 42.2282 79.3582 45.1356 72.2426 56.9454C71.7479 57.7662 72.0123 58.8322 72.8331 59.3269C73.1131 59.4956 73.4223 59.5761 73.7268 59.5761V59.5761Z" fill="url(#paint8_linear)"/>
</g>
</g>
<defs>
<linearGradient id="paint0_linear" x1="64.2098" y1="146.789" x2="69.1257" y2="140.909" gradientUnits="userSpaceOnUse">
<stop stop-color="#0B799D"/>
<stop offset="1" stop-color="#07485E"/>
</linearGradient>
<linearGradient id="paint1_linear" x1="104.779" y1="146.775" x2="99.8629" y2="140.895" gradientUnits="userSpaceOnUse">
<stop stop-color="#0B799D"/>
<stop offset="1" stop-color="#07485E"/>
</linearGradient>
<linearGradient id="paint2_linear" x1="71.2432" y1="89.0148" x2="136.404" y2="128.921" gradientUnits="userSpaceOnUse">
<stop stop-color="#48B2E3"/>
<stop offset="1" stop-color="#0095FF"/>
</linearGradient>
<linearGradient id="paint3_linear" x1="100.383" y1="111.964" x2="73.2013" y2="7.47608" gradientUnits="userSpaceOnUse">
<stop stop-color="#0095FF" stop-opacity="0"/>
<stop offset="1" stop-color="#03232E"/>
</linearGradient>
<linearGradient id="paint4_linear" x1="84.5002" y1="35.4602" x2="84.5002" y2="60.2416" gradientUnits="userSpaceOnUse">
<stop stop-color="#0B799D"/>
<stop offset="1" stop-color="#07485E"/>
</linearGradient>
<linearGradient id="paint5_linear" x1="83.8476" y1="36.5478" x2="92.5226" y2="83.201" gradientUnits="userSpaceOnUse">
<stop stop-color="#48B2E3"/>
<stop offset="1" stop-color="#0095FF"/>
</linearGradient>
<linearGradient id="paint6_linear" x1="98.7271" y1="69.4495" x2="86.7745" y2="23.5674" gradientUnits="userSpaceOnUse">
<stop stop-color="#0095FF" stop-opacity="0"/>
<stop offset="1" stop-color="#03232E"/>
</linearGradient>
<linearGradient id="paint7_linear" x1="86.8963" y1="47.1669" x2="83.0646" y2="53.0226" gradientUnits="userSpaceOnUse">
<stop stop-color="#B5DBFF"/>
<stop offset="1" stop-color="#48B2E3"/>
</linearGradient>
<linearGradient id="paint8_linear" x1="82.1046" y1="47.1669" x2="85.9359" y2="53.0226" gradientUnits="userSpaceOnUse">
<stop stop-color="#B5DBFF"/>
<stop offset="1" stop-color="#48B2E3"/>
</linearGradient>
<clipPath id="clip0">
<rect width="169" height="169" fill="white" transform="translate(0 0.0600586)"/>
</clipPath>
</defs>
</svg>
