<svg width="169" height="170" viewBox="0 0 169 170" fill="none" xmlns="http://www.w3.org/2000/svg">
<g id="t-shirt" clip-path="url(#clip0)">
<path id="Vector" d="M137.55 83.6262H31.4378L3.105 68.7744C2.2818 68.3429 1.96795 67.3977 2.38884 66.6184L27.3177 20.4828C27.6258 19.9127 28.0991 19.4314 28.686 19.0917L59.385 1.31907C61.9121 -0.143839 65.111 -0.258399 67.7339 1.05521C80.0755 7.23682 91.3681 7.31798 101.644 1.4864C104.329 -0.0376277 107.739 0.0174819 110.401 1.57591L140.314 19.0924C140.893 19.4314 141.36 19.9093 141.665 20.4741L166.599 66.6184C167.02 67.3977 166.706 68.3429 165.883 68.7744L137.55 83.6262Z" fill="url(#paint0_linear)"/>
<g id="Vector_2" filter="url(#filter0_i)">
<path d="M54.18 4.26294L28.686 19.0219C28.0994 19.3616 27.6261 19.8429 27.3177 20.413L2.38884 66.549C1.96795 67.3282 2.2818 68.2734 3.105 68.705L31.4378 83.5568H54.18V4.26294Z" fill="url(#paint1_linear)"/>
</g>
<g id="Vector_3" filter="url(#filter1_i)">
<path d="M114.607 4.11548L140.101 18.8745C140.687 19.2141 141.161 19.6954 141.469 20.2656L166.398 66.4016C166.819 67.1808 166.505 68.126 165.682 68.5575L137.349 83.4093H114.607V4.11548Z" fill="url(#paint2_linear)"/>
</g>
<g id="Vector_4" filter="url(#filter2_i)">
<path d="M108.069 6.89767C106.508 5.98385 107.019 0.183998 105.241 0.319267C103.987 0.41479 102.752 0.774839 101.641 1.40542C91.3656 7.23701 80.073 7.15618 67.7314 0.974235C66.4684 0.341645 65.0714 0.0400457 63.6802 0.0610875C62.1831 0.0837993 61.7014 4.66991 60.3914 5.42842L54.1771 4.25141L28.6835 19.0104L31.6883 53.9161C31.6883 53.9161 34.8537 71.9017 35.8029 83.5449C37.1653 100.257 36.8104 109.743 35.8029 126.48C34.9373 140.861 31.6883 163.14 31.6883 163.14C31.6883 163.969 32.4209 164.641 33.3249 164.641H135.659C136.562 164.641 137.295 163.969 137.295 163.14C137.295 163.14 131.918 139.05 131.123 123.342C130.337 107.8 131.612 99.0283 133.181 83.5449C134.358 71.9226 137.295 53.9161 137.295 53.9161L140.312 19.0111L114.832 4.09109L108.069 6.89767Z" fill="url(#paint3_linear)"/>
</g>
<path id="Vector_5" d="M108.068 6.89762C106.543 6.00493 106.996 0.449482 105.36 0.319223C105.321 0.316141 105.281 0.316096 105.24 0.319223C70.9427 2.93121 55.5151 1.64749 89.25 27.8098C89.25 27.8098 73.6309 57.9463 76.4641 83.5449C81.2521 126.807 77.3909 161.676 60.3907 163.14C60.3907 163.969 32.4198 164.641 33.3239 164.641H135.658C136.561 164.641 137.294 163.969 137.294 163.14C137.294 163.14 131.917 139.05 131.122 123.342C130.336 107.8 131.611 99.0282 133.18 83.5449C134.357 71.9226 137.294 53.916 137.294 53.916L140.311 19.011L108.068 6.89762Z" fill="url(#paint4_linear)"/>
<path id="Vector_6" d="M63.6807 0.0609882C65.0715 0.0409484 66.4696 0.344886 67.733 0.97614C80.072 7.15842 91.3661 7.23858 101.641 1.407C102.751 0.775741 103.985 0.415025 105.242 0.321506L105.289 0.805801C104.91 11.0428 95.7461 19.2357 84.4921 19.2357C78.8232 19.2357 73.6822 17.1549 69.9285 13.7816C66.1783 10.4082 63.8117 5.74227 63.6879 0.568663L63.6807 0.0609882Z" fill="url(#paint5_linear)"/>
<g id="Vector_7" filter="url(#filter3_d)">
<path d="M110.396 1.49625L114.83 4.0914C112.733 17.7285 99.9246 28.2527 84.4908 28.2527C69.1153 28.2527 56.3503 17.8087 54.1766 4.25172L59.3831 1.23907C60.6939 0.480895 62.183 0.0834384 63.6794 0.0600586L63.6867 0.567734C63.8105 5.74135 66.1771 10.4073 69.9272 13.7807C73.681 17.154 78.8219 19.2348 84.4908 19.2348C95.7448 19.2348 104.909 11.0419 105.288 0.804872L105.24 0.320576C107.017 0.183637 108.834 0.581094 110.396 1.49625V1.49625Z" fill="url(#paint6_linear)"/>
</g>
<g id="Line 2 (Stroke)" filter="url(#filter4_d)">
<path fill-rule="evenodd" clip-rule="evenodd" d="M35.6882 168.353L35.5309 164.242C35.3738 160.13 35.374 160.13 35.3743 160.13L36.7088 160.081C37.5698 160.05 38.8202 160.005 40.3805 159.953C43.5009 159.847 47.8618 159.708 52.8253 159.573C62.7392 159.304 75.1067 159.05 84.7966 159.12C94.3839 159.188 106.616 159.612 116.42 160.016C121.329 160.218 125.641 160.416 128.727 160.563C130.27 160.637 131.506 160.698 132.357 160.741L133.676 160.808C133.676 160.808 133.678 160.808 133.465 164.877L133.676 160.808C135.945 160.926 137.691 162.862 137.572 165.131C137.454 167.401 135.519 169.144 133.249 169.026L131.945 168.96C131.1 168.917 129.87 168.857 128.334 168.783C125.262 168.636 120.968 168.439 116.081 168.238C106.294 167.835 94.178 167.416 84.7374 167.348C75.1958 167.28 62.9453 167.53 53.0489 167.799C48.1074 167.933 43.7652 168.072 40.6587 168.177C39.1055 168.23 37.8616 168.274 37.0066 168.305L35.6882 168.353ZM31.4193 164.399C31.3326 162.128 33.1035 160.217 35.3743 160.13L35.5309 164.242L35.6882 168.353C33.4174 168.44 31.506 166.67 31.4193 164.399Z" fill="url(#paint7_linear)"/>
</g>
<g id="Line 1 (Stroke)" filter="url(#filter5_d)">
<path fill-rule="evenodd" clip-rule="evenodd" d="M1.97029 67.0349C2.4776 66.0183 3.71302 65.6053 4.72969 66.1127L34.5463 80.991C35.5629 81.4983 35.9759 82.7337 35.4685 83.7504C34.9612 84.7671 33.7258 85.18 32.7091 84.6727L2.89255 69.7943C1.87589 69.287 1.46298 68.0516 1.97029 67.0349Z" fill="url(#paint8_linear)"/>
</g>
<g id="Line 3 (Stroke)" filter="url(#filter6_d)">
<path fill-rule="evenodd" clip-rule="evenodd" d="M133.274 85.4589C132.73 84.4616 133.097 83.2118 134.095 82.6675L164.171 66.2517C165.168 65.7073 166.418 66.0745 166.963 67.0719C167.507 68.0692 167.14 69.319 166.142 69.8633L136.066 86.2791C135.069 86.8234 133.819 86.4562 133.274 85.4589Z" fill="url(#paint9_linear)"/>
</g>
</g>
<defs>
<filter id="filter0_i" x="2.20233" y="4.26294" width="51.9776" height="79.2939" filterUnits="userSpaceOnUse" color-interpolation-filters="sRGB">
<feFlood flood-opacity="0" result="BackgroundImageFix"/>
<feBlend mode="normal" in="SourceGraphic" in2="BackgroundImageFix" result="shape"/>
<feColorMatrix in="SourceAlpha" type="matrix" values="0 0 0 0 0 0 0 0 0 0 0 0 0 0 0 0 0 0 127 0" result="hardAlpha"/>
<feOffset/>
<feGaussianBlur stdDeviation="3"/>
<feComposite in2="hardAlpha" operator="arithmetic" k2="-1" k3="1"/>
<feColorMatrix type="matrix" values="0 0 0 0 0 0 0 0 0 0 0 0 0 0 0 0 0 0 0.1 0"/>
<feBlend mode="normal" in2="shape" result="effect1_innerShadow"/>
</filter>
<filter id="filter1_i" x="114.607" y="4.11548" width="51.9776" height="79.2939" filterUnits="userSpaceOnUse" color-interpolation-filters="sRGB">
<feFlood flood-opacity="0" result="BackgroundImageFix"/>
<feBlend mode="normal" in="SourceGraphic" in2="BackgroundImageFix" result="shape"/>
<feColorMatrix in="SourceAlpha" type="matrix" values="0 0 0 0 0 0 0 0 0 0 0 0 0 0 0 0 0 0 127 0" result="hardAlpha"/>
<feOffset/>
<feGaussianBlur stdDeviation="3"/>
<feComposite in2="hardAlpha" operator="arithmetic" k2="-1" k3="1"/>
<feColorMatrix type="matrix" values="0 0 0 0 0 0 0 0 0 0 0 0 0 0 0 0 0 0 0.1 0"/>
<feBlend mode="normal" in2="shape" result="effect1_innerShadow"/>
</filter>
<filter id="filter2_i" x="28.6835" y="0.0600586" width="111.628" height="164.581" filterUnits="userSpaceOnUse" color-interpolation-filters="sRGB">
<feFlood flood-opacity="0" result="BackgroundImageFix"/>
<feBlend mode="normal" in="SourceGraphic" in2="BackgroundImageFix" result="shape"/>
<feColorMatrix in="SourceAlpha" type="matrix" values="0 0 0 0 0 0 0 0 0 0 0 0 0 0 0 0 0 0 127 0" result="hardAlpha"/>
<feOffset/>
<feGaussianBlur stdDeviation="4.5"/>
<feComposite in2="hardAlpha" operator="arithmetic" k2="-1" k3="1"/>
<feColorMatrix type="matrix" values="0 0 0 0 0 0 0 0 0 0 0 0 0 0 0 0 0 0 0.15 0"/>
<feBlend mode="normal" in2="shape" result="effect1_innerShadow"/>
</filter>
<filter id="filter3_d" x="53.9766" y="-0.0399414" width="61.0538" height="28.5927" filterUnits="userSpaceOnUse" color-interpolation-filters="sRGB">
<feFlood flood-opacity="0" result="BackgroundImageFix"/>
<feColorMatrix in="SourceAlpha" type="matrix" values="0 0 0 0 0 0 0 0 0 0 0 0 0 0 0 0 0 0 127 0"/>
<feOffset dy="0.1"/>
<feGaussianBlur stdDeviation="0.1"/>
<feColorMatrix type="matrix" values="0 0 0 0 0 0 0 0 0 0 0 0 0 0 0 0 0 0 0.25 0"/>
<feBlend mode="normal" in2="BackgroundImageFix" result="effect1_dropShadow"/>
<feBlend mode="normal" in="SourceGraphic" in2="effect1_dropShadow" result="shape"/>
</filter>
<filter id="filter4_d" x="31.2879" y="158.552" width="106.428" height="10.5083" filterUnits="userSpaceOnUse" color-interpolation-filters="sRGB">
<feFlood flood-opacity="0" result="BackgroundImageFix"/>
<feColorMatrix in="SourceAlpha" type="matrix" values="0 0 0 0 0 0 0 0 0 0 0 0 0 0 0 0 0 0 127 0"/>
<feOffset dy="-0.1"/>
<feGaussianBlur stdDeviation="0.05"/>
<feColorMatrix type="matrix" values="0 0 0 0 0 0 0 0 0 0 0 0 0 0 0 0 0 0 0.1 0"/>
<feBlend mode="normal" in2="BackgroundImageFix" result="effect1_dropShadow"/>
<feBlend mode="normal" in="SourceGraphic" in2="effect1_dropShadow" result="shape"/>
</filter>
<filter id="filter5_d" x="0.951697" y="64.9941" width="35.5354" height="20.5971" filterUnits="userSpaceOnUse" color-interpolation-filters="sRGB">
<feFlood flood-opacity="0" result="BackgroundImageFix"/>
<feColorMatrix in="SourceAlpha" type="matrix" values="0 0 0 0 0 0 0 0 0 0 0 0 0 0 0 0 0 0 127 0"/>
<feOffset dy="-0.1"/>
<feGaussianBlur stdDeviation="0.05"/>
<feColorMatrix type="matrix" values="0 0 0 0 0 0 0 0 0 0 0 0 0 0 0 0 0 0 0.1 0"/>
<feBlend mode="normal" in2="BackgroundImageFix" result="effect1_dropShadow"/>
<feBlend mode="normal" in="SourceGraphic" in2="effect1_dropShadow" result="shape"/>
</filter>
<filter id="filter6_d" x="132.189" y="65.0661" width="35.8594" height="22.1987" filterUnits="userSpaceOnUse" color-interpolation-filters="sRGB">
<feFlood flood-opacity="0" result="BackgroundImageFix"/>
<feColorMatrix in="SourceAlpha" type="matrix" values="0 0 0 0 0 0 0 0 0 0 0 0 0 0 0 0 0 0 127 0"/>
<feOffset dy="-0.1"/>
<feGaussianBlur stdDeviation="0.05"/>
<feColorMatrix type="matrix" values="0 0 0 0 0 0 0 0 0 0 0 0 0 0 0 0 0 0 0.1 0"/>
<feBlend mode="normal" in2="BackgroundImageFix" result="effect1_dropShadow"/>
<feBlend mode="normal" in="SourceGraphic" in2="effect1_dropShadow" result="shape"/>
</filter>
<linearGradient id="paint0_linear" x1="50.3588" y1="68.3627" x2="51.8753" y2="150.753" gradientUnits="userSpaceOnUse">
<stop stop-color="#AD61D9"/>
<stop offset="0.535082" stop-color="#7A3A81"/>
</linearGradient>
<linearGradient id="paint1_linear" x1="2.20233" y1="59.6224" x2="43.3513" y2="83.5568" gradientUnits="userSpaceOnUse">
<stop stop-color="#C254E9" stop-opacity="0"/>
<stop offset="0.953209" stop-color="#7A3A81"/>
</linearGradient>
<linearGradient id="paint2_linear" x1="169.077" y1="60.2791" x2="122.135" y2="91.2901" gradientUnits="userSpaceOnUse">
<stop stop-color="#7A3A81" stop-opacity="0"/>
<stop offset="0.696028" stop-color="#7A3A81"/>
</linearGradient>
<linearGradient id="paint3_linear" x1="69.8134" y1="35.9031" x2="110.464" y2="134.045" gradientUnits="userSpaceOnUse">
<stop offset="0.144287" stop-color="#B063DE"/>
<stop offset="1" stop-color="#7A3A81"/>
</linearGradient>
<linearGradient id="paint4_linear" x1="200.816" y1="19.0538" x2="78.8446" y2="157.682" gradientUnits="userSpaceOnUse">
<stop offset="0.63436" stop-color="#B164DF" stop-opacity="0"/>
<stop offset="1" stop-color="#7A3A81"/>
</linearGradient>
<linearGradient id="paint5_linear" x1="84.4848" y1="0.0600586" x2="84.4848" y2="19.2357" gradientUnits="userSpaceOnUse">
<stop stop-color="#AF62DC"/>
<stop offset="1" stop-color="#652D6C"/>
</linearGradient>
<linearGradient id="paint6_linear" x1="69.7801" y1="12.8152" x2="106.811" y2="24.3874" gradientUnits="userSpaceOnUse">
<stop stop-color="#FFD92C"/>
<stop offset="1" stop-color="#FEC207"/>
</linearGradient>
<linearGradient id="paint7_linear" x1="35.7863" y1="168.358" x2="133.542" y2="169.033" gradientUnits="userSpaceOnUse">
<stop stop-color="#FFD92C"/>
<stop offset="1" stop-color="#FEC206"/>
</linearGradient>
<linearGradient id="paint8_linear" x1="2.43957" y1="69.5683" x2="33.2854" y2="84.9603" gradientUnits="userSpaceOnUse">
<stop stop-color="#FFD92D"/>
<stop offset="1" stop-color="#FFC207"/>
</linearGradient>
<linearGradient id="paint9_linear" x1="135.656" y1="86.503" x2="166.677" y2="69.5719" gradientUnits="userSpaceOnUse">
<stop stop-color="#FEC307"/>
<stop offset="0.843828" stop-color="#FFDB2E"/>
</linearGradient>
<clipPath id="clip0">
<rect width="169" height="169" fill="white" transform="translate(0 0.0600586)"/>
</clipPath>
</defs>
</svg>
