<svg xmlns="http://www.w3.org/2000/svg" fill="none" viewBox="0 0 527 469">
  <defs/>
  <g filter="url(#filter0_ii)">
    <path fill="#F7F7F7" d="M276 3.1a229.5 229.5 0 00-163.3 67.7A230.2 230.2 0 0045 234.2C54 290-12.3 303.7 6 347c15.6 37 74 0 106.7 50.5A229.7 229.7 0 00275.9 465a229.6 229.6 0 00163.3-67.6A229.6 229.6 0 00507 234.2C495 155 531 126.5 519 98c-11.6-27.5-58.7-5.9-79.8-27.1A229.6 229.6 0 00366 21.5a228.2 228.2 0 00-90-18.4z"/>
  </g>
  <path fill="#E72A6D" fill-rule="evenodd" d="M465 142.9A207 207 0 00277.4 20.5C163 20.5 70.1 116.1 70.3 233.8c0 33.1 7.4 64.4 20.4 92.4a49 49 0 01-6 1.2c-12.7 2.3-22 3.2-28.6 3.2-2 0-4-.2-5.5-.3-3.5-.3-5.5-4.4-3.4-7.4a141 141 0 0126-26.3c-2.3-8.2-4.2-16.8-5.8-25.5A231.2 231.2 0 0035 300.6c-4.9 5.6-19.5 22.6-12.4 38.4 6.2 13.9 23.8 15.2 33 15.2H59a203 203 0 0037-4.9l3-.7 3.1-.7a206 206 0 00175.3 99.5C392 447.4 484.9 352 484.9 234c0-23.7-3.8-46.5-10.8-67.9 1.5-1.2 3-2.5 4.3-3.8l.5-.4c5.2-4.8 9.7-9.3 13.4-13.6 4-4.5 14.4-16.4 14.4-29.3 0-3-.6-6-2-9-6.1-13.8-23.8-15.2-33-15.2h-3.3c-7 .2-15.1 1-24.1 2.5 5.3 7 10.4 14.2 14.9 21.9 4.8-.4 8.9-.7 12.2-.7 2.2 0 4 .1 5.6.3 3.5.2 5.3 4.3 3.3 7.4a93.5 93.5 0 01-15.2 16.8zm-126.6-24.5a351.4 351.4 0 01-121.9 0c2.6-8.5 5.7-16.6 8.8-24 14.5-34.2 33.5-53.6 52.1-53.6 18.8 0 37.7 19.6 52.2 53.5 3.3 7.5 6.2 15.6 8.8 24.1zm-131-32.3c-3.9 8.8-7.1 18.2-10.2 28.2A234.7 234.7 0 01144 94.7a188.4 188.4 0 0189-51A155 155 0 00207.4 86zm176.1 20.5c-8.2 2.9-16.8 5.5-25.7 7.7a308 308 0 00-10-28.2 155 155 0 00-25.6-42.4h.3c34 8.5 64.6 26.4 88.7 51-8.6 4.5-17.8 8.5-27.7 12zM181.2 224H87.6c2-41.4 16.6-79.5 40-110.2l.7-1 1.9-2.4.9.6 2.2 1.2A261.6 261.6 0 00192 134a469.3 469.3 0 00-10.8 90zm286.2 0h-93.6a447 447 0 00-10.7-89.8 261.2 261.2 0 0061.9-23.6 202.8 202.8 0 0126.4 44.3 441.5 441.5 0 01-23.7 17.8c-7.4 5.3-8.8 6.6-10.5 7.8-1.7 1.3-3.7 2.4-14 8.5a12.2 12.2 0 00-4.2 16.3c2.2 3.7 6 5.9 10 5.9 1.9 0 4-.6 5.7-1.7a167.2 167.2 0 0021.7-13.9c2.2-1.7 5.2-4 10.8-8l10.9-8.1 1.7-1.3a202 202 0 017.6 45.8zm-256-85.8a369.1 369.1 0 00132.2 0c6 25.3 9.4 53.8 10.2 83.4L298.3 211c-.5-.2-.9-.2-1.3-.2-4.6 0-8 5.2-5.7 9.7l1.6 3.3h-92c.7-30.5 4.3-59.7 10.4-85.8zM107.7 322.4a200.6 200.6 0 01-20.2-78h93.6a470 470 0 004.1 52.9 821.8 821.8 0 01-66.5 22.2l-11 3zm359.6-78.2c-2.2 43-17.8 82.2-42.5 113.6l-3.2-1.8a254.7 254.7 0 00-58.7-21.9c6.4-27.5 10.1-58 10.8-90h93.6zm-189 13.1c-25.2 12-50.2 23-74.2 32.6-1.8-14.8-2.8-30-3.1-45.6h102l.4.8c-8.3 4.2-16.6 8.3-25 12.2zm58.5 32.3l16.8-35.2a404 404 0 01-10.3 75.7 369 369 0 00-132.2 0l-3.4-16.2c25.7-10.3 52.7-22 80-35l25.6-12.6h.2l11.5 23.3a6.5 6.5 0 0011.8 0zM131.7 357l-1.5.9c-3.7-4.5-7-9.2-10.3-14.1 21-5.8 44.4-13.4 69.3-22.7.8 4.4 1.7 8.9 2.7 13.1-9.2 2.3-18 5-26.6 8a219.2 219.2 0 00-33.6 14.8zm197.9 17c-14.5 34-33.5 53.4-52.2 53.4-18.6 0-37.6-19.5-52.1-53.5a226 226 0 01-8.8-24 352 352 0 01121.9 0c-2.6 8.4-5.7 16.5-8.8 24zm81.4-.5a188.3 188.3 0 01-89 51c9.7-10.6 18.3-24.9 25.5-42.4 3.9-8.7 7.1-18.2 10.2-28.2a238.5 238.5 0 0153.3 19.6zM207.2 382a154.9 154.9 0 0025.6 42.5 189.4 189.4 0 01-89-51.1 241 241 0 0153.3-19.6c3 10 6.4 19.5 10.1 28.2z" clip-rule="evenodd"/>
  <defs>
    <filter id="filter0_ii" width="529.7" height="473" x="-2.2" y="-1.9" color-interpolation-filters="sRGB" filterUnits="userSpaceOnUse">
      <feFlood flood-opacity="0" result="BackgroundImageFix"/>
      <feBlend in="SourceGraphic" in2="BackgroundImageFix" result="shape"/>
      <feColorMatrix in="SourceAlpha" result="hardAlpha" values="0 0 0 0 0 0 0 0 0 0 0 0 0 0 0 0 0 0 127 0"/>
      <feOffset dx="-5" dy="-5"/>
      <feGaussianBlur stdDeviation="11"/>
      <feComposite in2="hardAlpha" k2="-1" k3="1" operator="arithmetic"/>
      <feColorMatrix values="0 0 0 0 0 0 0 0 0 0 0 0 0 0 0 0 0 0 0.16 0"/>
      <feBlend in2="shape" result="effect1_innerShadow"/>
      <feColorMatrix in="SourceAlpha" result="hardAlpha" values="0 0 0 0 0 0 0 0 0 0 0 0 0 0 0 0 0 0 127 0"/>
      <feOffset dx="8" dy="8"/>
      <feGaussianBlur stdDeviation="3"/>
      <feComposite in2="hardAlpha" k2="-1" k3="1" operator="arithmetic"/>
      <feColorMatrix values="0 0 0 0 1 0 0 0 0 1 0 0 0 0 1 0 0 0 1 0"/>
      <feBlend in2="effect1_innerShadow" result="effect2_innerShadow"/>
    </filter>
  </defs>
</svg>
