<svg width="169" height="170" viewBox="0 0 169 170" fill="none" xmlns="http://www.w3.org/2000/svg">
<g id="underpants" clip-path="url(#clip0)">
<g id="Vector" filter="url(#filter0_i)">
<path d="M0 49.6576V39.1151V31.4477C0 29.3303 3.28956 27.614 7.34787 27.614H161.652C165.71 27.614 169 29.3303 169 31.4477V39.1151V49.6576H0Z" fill="url(#paint0_linear)"/>
</g>
<g id="Vector_2">
<path d="M5.66435 48.362C3.24534 48.362 1.28458 46.6525 1.28458 44.5434V32.9614C1.28458 30.8524 3.24534 29.1428 5.66435 29.1428C8.08337 29.1428 10.0441 30.8524 10.0441 32.9614V44.5434C10.0441 46.6525 8.08337 48.362 5.66435 48.362Z" fill="url(#paint1_linear)"/>
<path d="M5.66435 48.362C3.24534 48.362 1.28458 46.6525 1.28458 44.5434V32.9614C1.28458 30.8524 3.24534 29.1428 5.66435 29.1428C8.08337 29.1428 10.0441 30.8524 10.0441 32.9614V44.5434C10.0441 46.6525 8.08337 48.362 5.66435 48.362Z" fill="url(#paint2_linear)" style="mix-blend-mode:color"/>
</g>
<g id="Vector_3">
<path d="M14.4245 48.362C12.0054 48.362 10.0447 46.6525 10.0447 44.5434V32.9614C10.0447 30.8524 12.0054 29.1428 14.4245 29.1428C16.8435 29.1428 18.8042 30.8524 18.8042 32.9614V44.5434C18.8042 46.6525 16.8435 48.362 14.4245 48.362Z" fill="url(#paint3_linear)"/>
<path d="M14.4245 48.362C12.0054 48.362 10.0447 46.6525 10.0447 44.5434V32.9614C10.0447 30.8524 12.0054 29.1428 14.4245 29.1428C16.8435 29.1428 18.8042 30.8524 18.8042 32.9614V44.5434C18.8042 46.6525 16.8435 48.362 14.4245 48.362Z" fill="url(#paint4_linear)" style="mix-blend-mode:color"/>
</g>
<g id="Vector_4">
<path d="M23.1839 48.362C20.7649 48.362 18.8042 46.6525 18.8042 44.5434V32.9614C18.8042 30.8524 20.7649 29.1428 23.1839 29.1428C25.603 29.1428 27.5637 30.8524 27.5637 32.9614V44.5434C27.5637 46.6525 25.603 48.362 23.1839 48.362Z" fill="url(#paint5_linear)"/>
<path d="M23.1839 48.362C20.7649 48.362 18.8042 46.6525 18.8042 44.5434V32.9614C18.8042 30.8524 20.7649 29.1428 23.1839 29.1428C25.603 29.1428 27.5637 30.8524 27.5637 32.9614V44.5434C27.5637 46.6525 25.603 48.362 23.1839 48.362Z" fill="url(#paint6_linear)" style="mix-blend-mode:color"/>
</g>
<g id="Vector_5">
<path d="M31.9447 48.3623C29.5257 48.3623 27.5649 46.6527 27.5649 44.5437V32.9617C27.5649 30.8526 29.5257 29.1431 31.9447 29.1431C34.3637 29.1431 36.3245 30.8526 36.3245 32.9617V44.5437C36.3245 46.6527 34.3637 48.3623 31.9447 48.3623Z" fill="url(#paint7_linear)"/>
<path d="M31.9447 48.3623C29.5257 48.3623 27.5649 46.6527 27.5649 44.5437V32.9617C27.5649 30.8526 29.5257 29.1431 31.9447 29.1431C34.3637 29.1431 36.3245 30.8526 36.3245 32.9617V44.5437C36.3245 46.6527 34.3637 48.3623 31.9447 48.3623Z" fill="url(#paint8_linear)" style="mix-blend-mode:color"/>
</g>
<g id="Vector_6">
<path d="M40.705 48.3623C38.286 48.3623 36.3252 46.6527 36.3252 44.5437V32.9617C36.3252 30.8526 38.286 29.1431 40.705 29.1431C43.124 29.1431 45.0847 30.8526 45.0847 32.9617V44.5437C45.0847 46.6527 43.124 48.3623 40.705 48.3623Z" fill="url(#paint9_linear)"/>
<path d="M40.705 48.3623C38.286 48.3623 36.3252 46.6527 36.3252 44.5437V32.9617C36.3252 30.8526 38.286 29.1431 40.705 29.1431C43.124 29.1431 45.0847 30.8526 45.0847 32.9617V44.5437C45.0847 46.6527 43.124 48.3623 40.705 48.3623Z" fill="url(#paint10_linear)" style="mix-blend-mode:color"/>
</g>
<g id="Vector_7">
<path d="M49.462 48.3623C47.043 48.3623 45.0822 46.6527 45.0822 44.5437V32.9617C45.0822 30.8526 47.043 29.1431 49.462 29.1431C51.881 29.1431 53.8418 30.8526 53.8418 32.9617V44.5437C53.8418 46.6527 51.881 48.3623 49.462 48.3623Z" fill="url(#paint11_linear)"/>
<path d="M49.462 48.3623C47.043 48.3623 45.0822 46.6527 45.0822 44.5437V32.9617C45.0822 30.8526 47.043 29.1431 49.462 29.1431C51.881 29.1431 53.8418 30.8526 53.8418 32.9617V44.5437C53.8418 46.6527 51.881 48.3623 49.462 48.3623Z" fill="url(#paint12_linear)" style="mix-blend-mode:color"/>
</g>
<g id="Vector_8">
<path d="M58.2225 48.362C55.8035 48.362 53.8428 46.6525 53.8428 44.5434V32.9614C53.8428 30.8524 55.8035 29.1428 58.2225 29.1428C60.6416 29.1428 62.6023 30.8524 62.6023 32.9614V44.5434C62.6023 46.6525 60.6416 48.362 58.2225 48.362Z" fill="url(#paint13_linear)"/>
<path d="M58.2225 48.362C55.8035 48.362 53.8428 46.6525 53.8428 44.5434V32.9614C53.8428 30.8524 55.8035 29.1428 58.2225 29.1428C60.6416 29.1428 62.6023 30.8524 62.6023 32.9614V44.5434C62.6023 46.6525 60.6416 48.362 58.2225 48.362Z" fill="url(#paint14_linear)" style="mix-blend-mode:color"/>
</g>
<g id="Vector_9">
<path d="M66.982 48.362C64.563 48.362 62.6023 46.6525 62.6023 44.5434V32.9614C62.6023 30.8524 64.563 29.1428 66.982 29.1428C69.4011 29.1428 71.3618 30.8524 71.3618 32.9614V44.5434C71.3618 46.6525 69.4011 48.362 66.982 48.362Z" fill="url(#paint15_linear)"/>
<path d="M66.982 48.362C64.563 48.362 62.6023 46.6525 62.6023 44.5434V32.9614C62.6023 30.8524 64.563 29.1428 66.982 29.1428C69.4011 29.1428 71.3618 30.8524 71.3618 32.9614V44.5434C71.3618 46.6525 69.4011 48.362 66.982 48.362Z" fill="url(#paint16_linear)" style="mix-blend-mode:color"/>
</g>
<g id="Vector_10">
<path d="M75.7399 48.362C73.3209 48.362 71.3601 46.6525 71.3601 44.5434V32.9614C71.3601 30.8524 73.3209 29.1428 75.7399 29.1428C78.1589 29.1428 80.1197 30.8524 80.1197 32.9614V44.5434C80.1197 46.6525 78.1589 48.362 75.7399 48.362Z" fill="url(#paint17_linear)"/>
<path d="M75.7399 48.362C73.3209 48.362 71.3601 46.6525 71.3601 44.5434V32.9614C71.3601 30.8524 73.3209 29.1428 75.7399 29.1428C78.1589 29.1428 80.1197 30.8524 80.1197 32.9614V44.5434C80.1197 46.6525 78.1589 48.362 75.7399 48.362Z" fill="url(#paint18_linear)" style="mix-blend-mode:color"/>
</g>
<g id="Vector_11">
<path d="M84.5 48.362C82.081 48.362 80.1202 46.6525 80.1202 44.5434V32.9614C80.1202 30.8524 82.081 29.1428 84.5 29.1428C86.919 29.1428 88.8798 30.8524 88.8798 32.9614V44.5434C88.8798 46.6525 86.919 48.362 84.5 48.362Z" fill="url(#paint19_linear)"/>
<path d="M84.5 48.362C82.081 48.362 80.1202 46.6525 80.1202 44.5434V32.9614C80.1202 30.8524 82.081 29.1428 84.5 29.1428C86.919 29.1428 88.8798 30.8524 88.8798 32.9614V44.5434C88.8798 46.6525 86.919 48.362 84.5 48.362Z" fill="url(#paint20_linear)" style="mix-blend-mode:color"/>
</g>
<g id="Vector_12">
<path d="M93.2603 48.3623C90.8413 48.3623 88.8805 46.6527 88.8805 44.5437V32.9617C88.8805 30.8526 90.8413 29.1431 93.2603 29.1431C95.6793 29.1431 97.6401 30.8526 97.6401 32.9617V44.5437C97.6401 46.6527 95.6793 48.3623 93.2603 48.3623Z" fill="url(#paint21_linear)"/>
<path d="M93.2603 48.3623C90.8413 48.3623 88.8805 46.6527 88.8805 44.5437V32.9617C88.8805 30.8526 90.8413 29.1431 93.2603 29.1431C95.6793 29.1431 97.6401 30.8526 97.6401 32.9617V44.5437C97.6401 46.6527 95.6793 48.3623 93.2603 48.3623Z" fill="url(#paint22_linear)" style="mix-blend-mode:color"/>
</g>
<g id="Vector_13">
<path d="M102.017 48.3623C99.5983 48.3623 97.6375 46.6527 97.6375 44.5437V32.9617C97.6375 30.8526 99.5983 29.1431 102.017 29.1431C104.436 29.1431 106.397 30.8526 106.397 32.9617V44.5437C106.397 46.6527 104.436 48.3623 102.017 48.3623Z" fill="url(#paint23_linear)"/>
<path d="M102.017 48.3623C99.5983 48.3623 97.6375 46.6527 97.6375 44.5437V32.9617C97.6375 30.8526 99.5983 29.1431 102.017 29.1431C104.436 29.1431 106.397 30.8526 106.397 32.9617V44.5437C106.397 46.6527 104.436 48.3623 102.017 48.3623Z" fill="url(#paint24_linear)" style="mix-blend-mode:color"/>
</g>
<g id="Vector_14">
<path d="M110.778 48.3623C108.359 48.3623 106.398 46.6527 106.398 44.5437V32.9617C106.398 30.8526 108.359 29.1431 110.778 29.1431C113.197 29.1431 115.157 30.8526 115.157 32.9617V44.5437C115.157 46.6527 113.197 48.3623 110.778 48.3623Z" fill="url(#paint25_linear)"/>
<path d="M110.778 48.3623C108.359 48.3623 106.398 46.6527 106.398 44.5437V32.9617C106.398 30.8526 108.359 29.1431 110.778 29.1431C113.197 29.1431 115.157 30.8526 115.157 32.9617V44.5437C115.157 46.6527 113.197 48.3623 110.778 48.3623Z" fill="url(#paint26_linear)" style="mix-blend-mode:color"/>
</g>
<g id="Vector_15">
<path d="M119.539 48.362C117.12 48.362 115.159 46.6525 115.159 44.5434V32.9614C115.159 30.8524 117.12 29.1428 119.539 29.1428C121.958 29.1428 123.918 30.8524 123.918 32.9614V44.5434C123.918 46.6525 121.958 48.362 119.539 48.362Z" fill="url(#paint27_linear)"/>
<path d="M119.539 48.362C117.12 48.362 115.159 46.6525 115.159 44.5434V32.9614C115.159 30.8524 117.12 29.1428 119.539 29.1428C121.958 29.1428 123.918 30.8524 123.918 32.9614V44.5434C123.918 46.6525 121.958 48.362 119.539 48.362Z" fill="url(#paint28_linear)" style="mix-blend-mode:color"/>
</g>
<g id="Vector_16">
<path d="M128.298 48.362C125.879 48.362 123.918 46.6525 123.918 44.5434V32.9614C123.918 30.8524 125.879 29.1428 128.298 29.1428C130.717 29.1428 132.678 30.8524 132.678 32.9614V44.5434C132.678 46.6525 130.717 48.362 128.298 48.362Z" fill="url(#paint29_linear)"/>
<path d="M128.298 48.362C125.879 48.362 123.918 46.6525 123.918 44.5434V32.9614C123.918 30.8524 125.879 29.1428 128.298 29.1428C130.717 29.1428 132.678 30.8524 132.678 32.9614V44.5434C132.678 46.6525 130.717 48.362 128.298 48.362Z" fill="url(#paint30_linear)" style="mix-blend-mode:color"/>
</g>
<g id="Vector_17">
<path d="M137.059 48.3623C134.64 48.3623 132.679 46.6527 132.679 44.5437V32.9617C132.679 30.8526 134.64 29.1431 137.059 29.1431C139.478 29.1431 141.438 30.8526 141.438 32.9617V44.5437C141.438 46.6527 139.478 48.3623 137.059 48.3623Z" fill="url(#paint31_linear)"/>
<path d="M137.059 48.3623C134.64 48.3623 132.679 46.6527 132.679 44.5437V32.9617C132.679 30.8526 134.64 29.1431 137.059 29.1431C139.478 29.1431 141.438 30.8526 141.438 32.9617V44.5437C141.438 46.6527 139.478 48.3623 137.059 48.3623Z" fill="url(#paint32_linear)" style="mix-blend-mode:color"/>
</g>
<g id="Vector_18">
<path d="M145.815 48.362C143.396 48.362 141.436 46.6525 141.436 44.5434V32.9614C141.436 30.8524 143.396 29.1428 145.815 29.1428C148.234 29.1428 150.195 30.8524 150.195 32.9614V44.5434C150.195 46.6525 148.234 48.362 145.815 48.362Z" fill="url(#paint33_linear)"/>
<path d="M145.815 48.362C143.396 48.362 141.436 46.6525 141.436 44.5434V32.9614C141.436 30.8524 143.396 29.1428 145.815 29.1428C148.234 29.1428 150.195 30.8524 150.195 32.9614V44.5434C150.195 46.6525 148.234 48.362 145.815 48.362Z" fill="url(#paint34_linear)" style="mix-blend-mode:color"/>
</g>
<g id="Vector_19">
<path d="M154.576 48.362C152.157 48.362 150.196 46.6525 150.196 44.5434V32.9614C150.196 30.8524 152.157 29.1428 154.576 29.1428C156.995 29.1428 158.955 30.8524 158.955 32.9614V44.5434C158.955 46.6525 156.995 48.362 154.576 48.362Z" fill="url(#paint35_linear)"/>
<path d="M154.576 48.362C152.157 48.362 150.196 46.6525 150.196 44.5434V32.9614C150.196 30.8524 152.157 29.1428 154.576 29.1428C156.995 29.1428 158.955 30.8524 158.955 32.9614V44.5434C158.955 46.6525 156.995 48.362 154.576 48.362Z" fill="url(#paint36_linear)" style="mix-blend-mode:color"/>
</g>
<g id="Vector_20">
<path d="M163.336 48.3623C160.917 48.3623 158.956 46.6527 158.956 44.5437V32.9617C158.956 30.8526 160.917 29.1431 163.336 29.1431C165.755 29.1431 167.716 30.8526 167.716 32.9617V44.5437C167.716 46.6527 165.755 48.3623 163.336 48.3623Z" fill="url(#paint37_linear)"/>
<path d="M163.336 48.3623C160.917 48.3623 158.956 46.6527 158.956 44.5437V32.9617C158.956 30.8526 160.917 29.1431 163.336 29.1431C165.755 29.1431 167.716 30.8526 167.716 32.9617V44.5437C167.716 46.6527 165.755 48.3623 163.336 48.3623Z" fill="url(#paint38_linear)" style="mix-blend-mode:color"/>
</g>
<g id="Vector_21" filter="url(#filter1_i)">
<path d="M169 74.9433C169 77.4948 167.676 79.8637 165.503 81.2009L121.239 108.44L104.969 137.726C103.673 140.059 101.214 141.506 98.5461 141.506H70.4538C67.7854 141.506 65.3264 140.059 64.0308 137.726L47.7609 108.44L3.49679 81.2009C1.32355 79.8637 -6.10352e-05 77.4948 -6.10352e-05 74.9433V49.658H169V74.9433Z" fill="url(#paint39_linear)"/>
</g>
<g id="Vector_22" filter="url(#filter2_f)">
<path d="M121.241 52.3052V103.391L104.971 126.742C103.675 129.075 101.216 130.522 98.5477 130.522H70.4554C67.787 130.522 65.328 129.075 64.0324 126.742L47.7625 103.391V52.3048L83.7997 56.8661L121.241 52.3052Z" fill="#72B8D7"/>
</g>
<g id="Vector_23" filter="url(#filter3_i)">
<path d="M121.241 49.6582V108.441L104.971 137.727C103.675 140.059 101.216 141.506 98.5477 141.506H70.4554C67.787 141.506 65.328 140.059 64.0324 137.727L47.7625 108.441V49.6582H121.241Z" fill="url(#paint40_linear)"/>
</g>
</g>
<defs>
<filter id="filter0_i" x="0" y="27.614" width="169" height="22.0436" filterUnits="userSpaceOnUse" color-interpolation-filters="sRGB">
<feFlood flood-opacity="0" result="BackgroundImageFix"/>
<feBlend mode="normal" in="SourceGraphic" in2="BackgroundImageFix" result="shape"/>
<feColorMatrix in="SourceAlpha" type="matrix" values="0 0 0 0 0 0 0 0 0 0 0 0 0 0 0 0 0 0 127 0" result="hardAlpha"/>
<feOffset/>
<feGaussianBlur stdDeviation="0.15"/>
<feComposite in2="hardAlpha" operator="arithmetic" k2="-1" k3="1"/>
<feColorMatrix type="matrix" values="0 0 0 0 0 0 0 0 0 0 0 0 0 0 0 0 0 0 0.25 0"/>
<feBlend mode="normal" in2="shape" result="effect1_innerShadow"/>
</filter>
<filter id="filter1_i" x="-6.10352e-05" y="49.658" width="169" height="91.8475" filterUnits="userSpaceOnUse" color-interpolation-filters="sRGB">
<feFlood flood-opacity="0" result="BackgroundImageFix"/>
<feBlend mode="normal" in="SourceGraphic" in2="BackgroundImageFix" result="shape"/>
<feColorMatrix in="SourceAlpha" type="matrix" values="0 0 0 0 0 0 0 0 0 0 0 0 0 0 0 0 0 0 127 0" result="hardAlpha"/>
<feOffset/>
<feGaussianBlur stdDeviation="0.25"/>
<feComposite in2="hardAlpha" operator="arithmetic" k2="-1" k3="1"/>
<feColorMatrix type="matrix" values="0 0 0 0 0 0 0 0 0 0 0 0 0 0 0 0 0 0 0.25 0"/>
<feBlend mode="normal" in2="shape" result="effect1_innerShadow"/>
</filter>
<filter id="filter2_f" x="38.2625" y="42.8048" width="92.478" height="97.2168" filterUnits="userSpaceOnUse" color-interpolation-filters="sRGB">
<feFlood flood-opacity="0" result="BackgroundImageFix"/>
<feBlend mode="normal" in="SourceGraphic" in2="BackgroundImageFix" result="shape"/>
<feGaussianBlur stdDeviation="4.75" result="effect1_foregroundBlur"/>
</filter>
<filter id="filter3_i" x="47.7625" y="49.6582" width="73.478" height="91.8479" filterUnits="userSpaceOnUse" color-interpolation-filters="sRGB">
<feFlood flood-opacity="0" result="BackgroundImageFix"/>
<feBlend mode="normal" in="SourceGraphic" in2="BackgroundImageFix" result="shape"/>
<feColorMatrix in="SourceAlpha" type="matrix" values="0 0 0 0 0 0 0 0 0 0 0 0 0 0 0 0 0 0 127 0" result="hardAlpha"/>
<feOffset/>
<feGaussianBlur stdDeviation="0.25"/>
<feComposite in2="hardAlpha" operator="arithmetic" k2="-1" k3="1"/>
<feColorMatrix type="matrix" values="0 0 0 0 0 0 0 0 0 0 0 0 0 0 0 0 0 0 0.25 0"/>
<feBlend mode="normal" in2="shape" result="effect1_innerShadow"/>
</filter>
<linearGradient id="paint0_linear" x1="84.5" y1="27.614" x2="84.5" y2="49.6576" gradientUnits="userSpaceOnUse">
<stop stop-color="#A2CCDB"/>
<stop offset="1" stop-color="#6DC1DF"/>
</linearGradient>
<linearGradient id="paint1_linear" x1="-2.48765" y1="35.2356" x2="10.8453" y2="42.803" gradientUnits="userSpaceOnUse">
<stop stop-color="#B1E0F4"/>
<stop offset="1" stop-color="#3AB2DE"/>
</linearGradient>
<linearGradient id="paint2_linear" x1="5.66435" y1="29.1428" x2="5.66435" y2="48.362" gradientUnits="userSpaceOnUse">
<stop stop-color="white" stop-opacity="0"/>
<stop offset="1" stop-color="#72C2DF"/>
</linearGradient>
<linearGradient id="paint3_linear" x1="6.27245" y1="35.2356" x2="19.6054" y2="42.803" gradientUnits="userSpaceOnUse">
<stop stop-color="#B1E0F4"/>
<stop offset="1" stop-color="#3AB2DE"/>
</linearGradient>
<linearGradient id="paint4_linear" x1="14.4245" y1="29.1428" x2="14.4245" y2="48.362" gradientUnits="userSpaceOnUse">
<stop stop-color="white" stop-opacity="0"/>
<stop offset="1" stop-color="#72C2DF"/>
</linearGradient>
<linearGradient id="paint5_linear" x1="15.0319" y1="35.2356" x2="28.3649" y2="42.803" gradientUnits="userSpaceOnUse">
<stop stop-color="#B1E0F4"/>
<stop offset="1" stop-color="#3AB2DE"/>
</linearGradient>
<linearGradient id="paint6_linear" x1="23.1839" y1="29.1428" x2="23.1839" y2="48.362" gradientUnits="userSpaceOnUse">
<stop stop-color="white" stop-opacity="0"/>
<stop offset="1" stop-color="#72C2DF"/>
</linearGradient>
<linearGradient id="paint7_linear" x1="23.7927" y1="35.2359" x2="37.1257" y2="42.8032" gradientUnits="userSpaceOnUse">
<stop stop-color="#B1E0F4"/>
<stop offset="1" stop-color="#3AB2DE"/>
</linearGradient>
<linearGradient id="paint8_linear" x1="31.9447" y1="29.1431" x2="31.9447" y2="48.3623" gradientUnits="userSpaceOnUse">
<stop stop-color="white" stop-opacity="0"/>
<stop offset="1" stop-color="#72C2DF"/>
</linearGradient>
<linearGradient id="paint9_linear" x1="32.553" y1="35.2359" x2="45.886" y2="42.8032" gradientUnits="userSpaceOnUse">
<stop stop-color="#B1E0F4"/>
<stop offset="1" stop-color="#3AB2DE"/>
</linearGradient>
<linearGradient id="paint10_linear" x1="40.705" y1="29.1431" x2="40.705" y2="48.3623" gradientUnits="userSpaceOnUse">
<stop stop-color="white" stop-opacity="0"/>
<stop offset="1" stop-color="#72C2DF"/>
</linearGradient>
<linearGradient id="paint11_linear" x1="41.31" y1="35.2359" x2="54.643" y2="42.8032" gradientUnits="userSpaceOnUse">
<stop stop-color="#B1E0F4"/>
<stop offset="1" stop-color="#3AB2DE"/>
</linearGradient>
<linearGradient id="paint12_linear" x1="49.462" y1="29.1431" x2="49.462" y2="48.3623" gradientUnits="userSpaceOnUse">
<stop stop-color="white" stop-opacity="0"/>
<stop offset="1" stop-color="#72C2DF"/>
</linearGradient>
<linearGradient id="paint13_linear" x1="50.0705" y1="35.2356" x2="63.4035" y2="42.803" gradientUnits="userSpaceOnUse">
<stop stop-color="#B1E0F4"/>
<stop offset="1" stop-color="#3AB2DE"/>
</linearGradient>
<linearGradient id="paint14_linear" x1="58.2225" y1="29.1428" x2="58.2225" y2="48.362" gradientUnits="userSpaceOnUse">
<stop stop-color="white" stop-opacity="0"/>
<stop offset="1" stop-color="#72C2DF"/>
</linearGradient>
<linearGradient id="paint15_linear" x1="58.83" y1="35.2356" x2="72.163" y2="42.803" gradientUnits="userSpaceOnUse">
<stop stop-color="#B1E0F4"/>
<stop offset="1" stop-color="#3AB2DE"/>
</linearGradient>
<linearGradient id="paint16_linear" x1="66.982" y1="29.1428" x2="66.982" y2="48.362" gradientUnits="userSpaceOnUse">
<stop stop-color="white" stop-opacity="0"/>
<stop offset="1" stop-color="#72C2DF"/>
</linearGradient>
<linearGradient id="paint17_linear" x1="67.5879" y1="35.2356" x2="80.9209" y2="42.803" gradientUnits="userSpaceOnUse">
<stop stop-color="#B1E0F4"/>
<stop offset="1" stop-color="#3AB2DE"/>
</linearGradient>
<linearGradient id="paint18_linear" x1="75.7399" y1="29.1428" x2="75.7399" y2="48.362" gradientUnits="userSpaceOnUse">
<stop stop-color="white" stop-opacity="0"/>
<stop offset="1" stop-color="#72C2DF"/>
</linearGradient>
<linearGradient id="paint19_linear" x1="76.348" y1="35.2356" x2="89.681" y2="42.803" gradientUnits="userSpaceOnUse">
<stop stop-color="#B1E0F4"/>
<stop offset="1" stop-color="#3AB2DE"/>
</linearGradient>
<linearGradient id="paint20_linear" x1="84.5" y1="29.1428" x2="84.5" y2="48.362" gradientUnits="userSpaceOnUse">
<stop stop-color="white" stop-opacity="0"/>
<stop offset="1" stop-color="#72C2DF"/>
</linearGradient>
<linearGradient id="paint21_linear" x1="85.1083" y1="35.2359" x2="98.4413" y2="42.8032" gradientUnits="userSpaceOnUse">
<stop stop-color="#B1E0F4"/>
<stop offset="1" stop-color="#3AB2DE"/>
</linearGradient>
<linearGradient id="paint22_linear" x1="93.2603" y1="29.1431" x2="93.2603" y2="48.3623" gradientUnits="userSpaceOnUse">
<stop stop-color="white" stop-opacity="0"/>
<stop offset="1" stop-color="#72C2DF"/>
</linearGradient>
<linearGradient id="paint23_linear" x1="93.8653" y1="35.2359" x2="107.198" y2="42.8032" gradientUnits="userSpaceOnUse">
<stop stop-color="#B1E0F4"/>
<stop offset="1" stop-color="#3AB2DE"/>
</linearGradient>
<linearGradient id="paint24_linear" x1="102.017" y1="29.1431" x2="102.017" y2="48.3623" gradientUnits="userSpaceOnUse">
<stop stop-color="white" stop-opacity="0"/>
<stop offset="1" stop-color="#72C2DF"/>
</linearGradient>
<linearGradient id="paint25_linear" x1="102.626" y1="35.2359" x2="115.959" y2="42.8032" gradientUnits="userSpaceOnUse">
<stop stop-color="#B1E0F4"/>
<stop offset="1" stop-color="#3AB2DE"/>
</linearGradient>
<linearGradient id="paint26_linear" x1="110.778" y1="29.1431" x2="110.778" y2="48.3623" gradientUnits="userSpaceOnUse">
<stop stop-color="white" stop-opacity="0"/>
<stop offset="1" stop-color="#72C2DF"/>
</linearGradient>
<linearGradient id="paint27_linear" x1="111.387" y1="35.2356" x2="124.72" y2="42.803" gradientUnits="userSpaceOnUse">
<stop stop-color="#B1E0F4"/>
<stop offset="1" stop-color="#3AB2DE"/>
</linearGradient>
<linearGradient id="paint28_linear" x1="119.539" y1="29.1428" x2="119.539" y2="48.362" gradientUnits="userSpaceOnUse">
<stop stop-color="white" stop-opacity="0"/>
<stop offset="1" stop-color="#72C2DF"/>
</linearGradient>
<linearGradient id="paint29_linear" x1="120.146" y1="35.2356" x2="133.479" y2="42.803" gradientUnits="userSpaceOnUse">
<stop stop-color="#B1E0F4"/>
<stop offset="1" stop-color="#3AB2DE"/>
</linearGradient>
<linearGradient id="paint30_linear" x1="128.298" y1="29.1428" x2="128.298" y2="48.362" gradientUnits="userSpaceOnUse">
<stop stop-color="white" stop-opacity="0"/>
<stop offset="1" stop-color="#72C2DF"/>
</linearGradient>
<linearGradient id="paint31_linear" x1="128.907" y1="35.2359" x2="142.24" y2="42.8032" gradientUnits="userSpaceOnUse">
<stop stop-color="#B1E0F4"/>
<stop offset="1" stop-color="#3AB2DE"/>
</linearGradient>
<linearGradient id="paint32_linear" x1="137.059" y1="29.1431" x2="137.059" y2="48.3623" gradientUnits="userSpaceOnUse">
<stop stop-color="white" stop-opacity="0"/>
<stop offset="1" stop-color="#72C2DF"/>
</linearGradient>
<linearGradient id="paint33_linear" x1="137.663" y1="35.2356" x2="150.996" y2="42.803" gradientUnits="userSpaceOnUse">
<stop stop-color="#B1E0F4"/>
<stop offset="1" stop-color="#3AB2DE"/>
</linearGradient>
<linearGradient id="paint34_linear" x1="145.815" y1="29.1428" x2="145.815" y2="48.362" gradientUnits="userSpaceOnUse">
<stop stop-color="white" stop-opacity="0"/>
<stop offset="1" stop-color="#72C2DF"/>
</linearGradient>
<linearGradient id="paint35_linear" x1="146.424" y1="35.2356" x2="159.757" y2="42.803" gradientUnits="userSpaceOnUse">
<stop stop-color="#B1E0F4"/>
<stop offset="1" stop-color="#3AB2DE"/>
</linearGradient>
<linearGradient id="paint36_linear" x1="154.576" y1="29.1428" x2="154.576" y2="48.362" gradientUnits="userSpaceOnUse">
<stop stop-color="white" stop-opacity="0"/>
<stop offset="1" stop-color="#72C2DF"/>
</linearGradient>
<linearGradient id="paint37_linear" x1="155.184" y1="35.2359" x2="168.517" y2="42.8032" gradientUnits="userSpaceOnUse">
<stop stop-color="#B1E0F4"/>
<stop offset="1" stop-color="#3AB2DE"/>
</linearGradient>
<linearGradient id="paint38_linear" x1="163.336" y1="29.1431" x2="163.336" y2="48.3623" gradientUnits="userSpaceOnUse">
<stop stop-color="white" stop-opacity="0"/>
<stop offset="1" stop-color="#72C2DF"/>
</linearGradient>
<linearGradient id="paint39_linear" x1="84.4999" y1="49.658" x2="84.4999" y2="141.506" gradientUnits="userSpaceOnUse">
<stop offset="0.118735" stop-color="#D7F3FF"/>
<stop offset="1" stop-color="#85DAFF"/>
</linearGradient>
<linearGradient id="paint40_linear" x1="84.5015" y1="49.6582" x2="84.5015" y2="141.506" gradientUnits="userSpaceOnUse">
<stop stop-color="#B5E1F4"/>
<stop offset="1" stop-color="#51C0F0"/>
</linearGradient>
<clipPath id="clip0">
<rect width="169" height="169" fill="white" transform="translate(0 0.0600586)"/>
</clipPath>
</defs>
</svg>
