<svg width="169" height="170" viewBox="0 0 169 170" fill="none" xmlns="http://www.w3.org/2000/svg">
<g id="wallet" clip-path="url(#clip0)">
<g id="Vector">
<mask id="path-1-outside-1" maskUnits="userSpaceOnUse" x="7.78326" y="21.7859" width="153" height="134" fill="black">
<rect fill="white" x="7.78326" y="21.7859" width="153" height="134"/>
<path d="M147.966 155.015H21.0327C14.2676 155.015 8.78326 149.445 8.78326 142.574V35.2268C8.78326 28.356 14.2676 22.7859 21.0327 22.7859H147.966C154.731 22.7859 160.215 28.356 160.215 35.2268V142.574C160.215 149.445 154.731 155.015 147.966 155.015Z"/>
</mask>
<path d="M147.966 155.015H21.0327C14.2676 155.015 8.78326 149.445 8.78326 142.574V35.2268C8.78326 28.356 14.2676 22.7859 21.0327 22.7859H147.966C154.731 22.7859 160.215 28.356 160.215 35.2268V142.574C160.215 149.445 154.731 155.015 147.966 155.015Z" fill="url(#paint0_linear)"/>
<path d="M147.966 155.015H21.0327C14.2676 155.015 8.78326 149.445 8.78326 142.574V35.2268C8.78326 28.356 14.2676 22.7859 21.0327 22.7859H147.966C154.731 22.7859 160.215 28.356 160.215 35.2268V142.574C160.215 149.445 154.731 155.015 147.966 155.015Z" stroke="#FFE36A" stroke-width="0.4" mask="url(#path-1-outside-1)"/>
</g>
<path id="Vector_2" d="M145.136 152.062H23.8643C17.4008 152.062 12.1609 146.741 12.1609 140.176V37.6172C12.1609 31.0527 17.4005 25.7309 23.8643 25.7309H145.136C151.599 25.7309 156.839 31.0524 156.839 37.6172V140.176C156.84 146.741 151.6 152.062 145.136 152.062Z" fill="url(#paint1_linear)"/>
<path id="Vector_3" d="M152.008 57.5098L121.477 3.80132C119.443 0.223642 114.938 -1.00226 111.416 1.06368L15.1523 57.5098H152.008Z" fill="url(#paint2_linear)"/>
<path id="Vector_4" d="M8.78326 100.739H160.215V60.0036C160.215 54.862 156.112 50.6942 151.049 50.6942H17.9495C12.887 50.6942 8.78326 54.862 8.78326 60.0036V100.739Z" fill="url(#paint3_linear)"/>
<path id="Vector_5" d="M8.78326 85.4189V142.578C8.78326 149.449 14.2676 155.019 21.033 155.019H147.966C154.731 155.019 160.215 149.449 160.215 142.578V85.4189C160.215 81.1752 156.828 77.7348 152.65 77.7348H16.3492C12.1707 77.7348 8.78326 81.1748 8.78326 85.4189Z" fill="url(#paint4_linear)"/>
<path id="Vector_6" d="M137.371 55.9331V155.015H147.967C154.732 155.015 160.217 149.445 160.217 142.574V79.136L137.371 55.9331Z" fill="url(#paint5_linear)"/>
<g id="Vector_7">
<mask id="path-7-inside-2" fill="white">
<path d="M127.04 168.961L20.7383 156.422C13.9237 155.618 8.78326 149.756 8.78326 142.789V34.2965C8.78326 36.6282 10.5035 38.5895 12.7833 38.8585L130.158 52.7038C136.973 53.5078 142.113 59.3696 142.113 66.3372V155.328C142.113 163.535 135.068 169.908 127.04 168.961Z"/>
</mask>
<path d="M127.04 168.961L20.7383 156.422C13.9237 155.618 8.78326 149.756 8.78326 142.789V34.2965C8.78326 36.6282 10.5035 38.5895 12.7833 38.8585L130.158 52.7038C136.973 53.5078 142.113 59.3696 142.113 66.3372V155.328C142.113 163.535 135.068 169.908 127.04 168.961Z" fill="url(#paint6_linear)" stroke="#FFE36A" stroke-width="0.4" stroke-linecap="round" stroke-linejoin="round" mask="url(#path-7-inside-2)"/>
</g>
<path id="Vector_8" d="M127.04 147.296L20.7383 134.757C13.9237 133.953 8.78326 128.091 8.78326 121.124V142.794C8.78326 149.762 13.9237 155.624 20.7383 156.428L127.04 168.967C135.068 169.914 142.113 163.541 142.113 155.333V133.662C142.113 141.87 135.068 148.243 127.04 147.296Z" fill="url(#paint7_linear)"/>
<g id="Vector_9" filter="url(#filter0_d)">
<path d="M18.315 51.2074C18.2259 51.2074 18.1356 51.2021 18.0449 51.1922L13.1804 50.6489C11.8368 50.4987 10.8674 49.2715 11.0152 47.9073C11.1631 46.5431 12.3724 45.5595 13.7147 45.7083L18.5792 46.2516C19.9227 46.4018 20.8922 47.629 20.7443 48.9932C20.6065 50.2657 19.5464 51.2074 18.315 51.2074Z" fill="url(#paint8_linear)"/>
</g>
<g id="Vector_10" filter="url(#filter1_d)">
<path d="M118.271 160.774C118.168 160.774 118.064 160.767 117.959 160.754L108.505 159.533C107.164 159.36 106.215 158.115 106.386 156.753C106.557 155.392 107.781 154.434 109.122 154.602L118.577 155.823C119.917 155.996 120.866 157.24 120.696 158.602C120.538 159.857 119.485 160.774 118.271 160.774ZM127.577 159.544C126.659 159.544 125.779 159.016 125.362 158.117C124.786 156.875 125.31 155.394 126.532 154.81C129.015 153.621 130.882 151.651 131.655 149.402C132.101 148.107 133.497 147.424 134.772 147.875C136.048 148.328 136.721 149.745 136.276 151.041C135.055 154.592 132.336 157.527 128.618 159.306C128.281 159.467 127.927 159.544 127.577 159.544ZM99.3624 158.332C99.2597 158.332 99.155 158.325 99.0504 158.312L89.5959 157.091C88.2556 156.918 87.3063 155.673 87.4773 154.312C87.6479 152.95 88.8728 151.992 90.2137 152.16L99.6682 153.381C101.009 153.554 101.958 154.798 101.787 156.16C101.629 157.415 100.576 158.332 99.3624 158.332ZM80.4538 155.89C80.3511 155.89 80.2467 155.883 80.1418 155.869L70.6873 154.649C69.347 154.476 68.3977 153.231 68.5686 151.869C68.7393 150.508 69.9645 149.545 71.3051 149.718L80.7596 150.938C82.0999 151.111 83.0492 152.356 82.8782 153.718C82.7206 154.972 81.667 155.89 80.4538 155.89ZM61.5445 153.447C61.4418 153.447 61.3375 153.44 61.2325 153.427L51.7777 152.206C50.4371 152.033 49.4881 150.789 49.659 149.427C49.8296 148.065 51.0552 147.107 52.3955 147.275L61.8503 148.496C63.1909 148.67 64.1399 149.914 63.969 151.275C63.812 152.531 62.7583 153.447 61.5445 153.447ZM42.6358 151.005C42.5331 151.005 42.4288 150.998 42.3238 150.985L32.869 149.764C31.5284 149.59 30.5794 148.346 30.7504 146.985C30.921 145.623 32.1466 144.664 33.4868 144.833L42.9417 146.054C44.2823 146.227 45.2313 147.471 45.0603 148.833C44.903 150.089 43.8497 151.005 42.6358 151.005ZM134.515 143.092C133.163 143.092 132.068 141.979 132.068 140.606V130.927C132.068 129.554 133.163 128.442 134.515 128.442C135.866 128.442 136.962 129.554 136.962 130.927V140.606C136.962 141.979 135.867 143.092 134.515 143.092ZM134.515 123.733C133.163 123.733 132.068 122.621 132.068 121.248V111.568C132.068 110.196 133.163 109.083 134.515 109.083C135.866 109.083 136.962 110.196 136.962 111.568V121.248C136.962 122.62 135.867 123.733 134.515 123.733ZM134.515 104.374C133.163 104.374 132.068 103.262 132.068 101.889V92.2096C132.068 90.8368 133.163 89.7245 134.515 89.7245C135.866 89.7245 136.962 90.8368 136.962 92.2096V101.889C136.962 103.261 135.867 104.374 134.515 104.374ZM134.515 85.0153C133.163 85.0153 132.068 83.9029 132.068 82.5301V72.8507C132.068 71.4779 133.163 70.3656 134.515 70.3656C135.866 70.3656 136.962 71.4779 136.962 72.8507V82.5301C136.962 83.9026 135.867 85.0153 134.515 85.0153ZM131.092 66.6483C130.488 66.6483 129.883 66.4222 129.41 65.967C127.596 64.2216 125.079 63.1095 122.321 62.8352L122.257 62.8283C120.913 62.6814 119.941 61.4559 120.086 60.0913C120.23 58.7265 121.437 57.7389 122.781 57.8864L122.822 57.8911C126.634 58.2703 130.177 59.858 132.776 62.3589C133.757 63.303 133.799 64.8761 132.87 65.8726C132.388 66.3878 131.741 66.6483 131.092 66.6483ZM113.048 61.7849C112.959 61.7849 112.868 61.7797 112.778 61.7698L103.304 60.7119C101.961 60.5617 100.991 59.3345 101.139 57.9703C101.287 56.6061 102.496 55.6241 103.839 55.7713L113.312 56.8292C114.655 56.9794 115.625 58.2066 115.477 59.5708C115.34 60.8429 114.279 61.7849 113.048 61.7849ZM94.1013 59.6692C94.0123 59.6692 93.922 59.6639 93.8313 59.654L84.3576 58.5961C83.0144 58.4459 82.0446 57.2187 82.1925 55.8545C82.34 54.49 83.5513 53.507 84.8919 53.6555L94.3656 54.7134C95.7088 54.8636 96.6786 56.0908 96.5307 57.455C96.3929 58.7275 95.3328 59.6692 94.1013 59.6692ZM75.154 57.5537C75.065 57.5537 74.9746 57.5484 74.884 57.5385L65.4106 56.4806C64.0674 56.3305 63.0976 55.1032 63.2455 53.739C63.3931 52.3748 64.6017 51.3919 65.9449 51.5401L75.4183 52.598C76.7615 52.7482 77.7313 53.9754 77.5834 55.3396C77.4459 56.6117 76.3858 57.5537 75.154 57.5537ZM56.2071 55.4383C56.118 55.4383 56.0277 55.433 55.937 55.4231L46.4636 54.3652C45.1201 54.215 44.1506 52.9878 44.2985 51.6236C44.4461 50.2597 45.6534 49.2771 46.9979 49.4246L56.4713 50.4825C57.8145 50.6327 58.7843 51.8599 58.6364 53.2241C58.4993 54.4962 57.4388 55.4383 56.2071 55.4383ZM37.2601 53.3225C37.171 53.3225 37.0807 53.3172 36.99 53.3073L27.5167 52.2494C26.1734 52.0992 25.2037 50.872 25.3515 49.5078C25.4994 48.1439 26.7071 47.1616 28.051 47.3089L37.5243 48.3667C38.8678 48.5169 39.8373 49.7441 39.6894 51.1083C39.5519 52.3805 38.4915 53.3225 37.2601 53.3225Z" fill="url(#paint9_linear)"/>
</g>
<g id="Vector_11" filter="url(#filter2_d)">
<path d="M23.7028 148.564C23.6001 148.564 23.4961 148.557 23.3912 148.543L18.536 147.917C17.1954 147.744 16.2461 146.499 16.417 145.138C16.5873 143.776 17.8126 142.813 19.1532 142.986L24.0083 143.612C25.3489 143.785 26.2983 145.03 26.1273 146.391C25.97 147.647 24.9164 148.564 23.7028 148.564Z" fill="url(#paint10_linear)"/>
</g>
<path id="Vector_12" d="M113.611 18.5628L97.9496 27.218C95.9096 28.3452 93.3561 27.5798 92.2459 25.5079C91.136 23.436 91.8897 20.8426 93.9297 19.7151L109.591 11.0602C111.631 9.93299 114.184 10.6984 115.295 12.7703C116.405 14.8419 115.651 17.4356 113.611 18.5628Z" fill="#61DB99"/>
<path id="Vector_13" d="M142.113 120.149L126.571 104.364C124.378 101.939 121.232 100.418 117.734 100.418C111.109 100.418 105.738 105.874 105.738 112.602C105.738 116.154 107.236 119.35 109.623 121.577L142.113 154.574V120.149H142.113Z" fill="url(#paint11_linear)"/>
<path id="Vector_14" d="M117.734 124.786C124.36 124.786 129.731 119.331 129.731 112.602C129.731 105.873 124.36 100.418 117.734 100.418C111.109 100.418 105.738 105.873 105.738 112.602C105.738 119.331 111.109 124.786 117.734 124.786Z" fill="url(#paint12_linear)"/>
<path id="Vector_15" d="M117.734 121.007C122.306 121.007 126.013 117.243 126.013 112.599C126.013 107.955 122.306 104.19 117.734 104.19C113.162 104.19 109.455 107.955 109.455 112.599C109.455 117.243 113.162 121.007 117.734 121.007Z" fill="url(#paint13_linear)"/>
<path id="Vector_16" d="M114.59 111.143C115.536 111.143 116.303 110.364 116.303 109.404C116.303 108.443 115.536 107.664 114.59 107.664C113.644 107.664 112.877 108.443 112.877 109.404C112.877 110.364 113.644 111.143 114.59 111.143Z" fill="url(#paint14_linear)"/>
<path id="Vector_17" d="M120.878 111.143C121.824 111.143 122.591 110.364 122.591 109.404C122.591 108.443 121.824 107.664 120.878 107.664C119.932 107.664 119.165 108.443 119.165 109.404C119.165 110.364 119.932 111.143 120.878 111.143Z" fill="url(#paint15_linear)"/>
<path id="Vector_18" d="M114.59 117.54C115.536 117.54 116.303 116.761 116.303 115.8C116.303 114.839 115.536 114.06 114.59 114.06C113.644 114.06 112.877 114.839 112.877 115.8C112.877 116.761 113.644 117.54 114.59 117.54Z" fill="url(#paint16_linear)"/>
<path id="Vector_19" d="M120.878 117.54C121.824 117.54 122.591 116.761 122.591 115.8C122.591 114.839 121.824 114.06 120.878 114.06C119.932 114.06 119.165 114.839 119.165 115.8C119.165 116.761 119.932 117.54 120.878 117.54Z" fill="url(#paint17_linear)"/>
</g>
<defs>
<filter id="filter0_d" x="10.8003" y="45.6934" width="10.1589" height="5.91394" filterUnits="userSpaceOnUse" color-interpolation-filters="sRGB">
<feFlood flood-opacity="0" result="BackgroundImageFix"/>
<feColorMatrix in="SourceAlpha" type="matrix" values="0 0 0 0 0 0 0 0 0 0 0 0 0 0 0 0 0 0 127 0"/>
<feOffset dy="0.2"/>
<feGaussianBlur stdDeviation="0.1"/>
<feColorMatrix type="matrix" values="0 0 0 0 0.342574 0 0 0 0 0 0 0 0 0 1.22514e-07 0 0 0 0.25 0"/>
<feBlend mode="normal" in2="BackgroundImageFix" result="effect1_dropShadow"/>
<feBlend mode="normal" in="SourceGraphic" in2="effect1_dropShadow" result="shape"/>
</filter>
<filter id="filter1_d" x="25.1366" y="47.2943" width="112.025" height="113.879" filterUnits="userSpaceOnUse" color-interpolation-filters="sRGB">
<feFlood flood-opacity="0" result="BackgroundImageFix"/>
<feColorMatrix in="SourceAlpha" type="matrix" values="0 0 0 0 0 0 0 0 0 0 0 0 0 0 0 0 0 0 127 0"/>
<feOffset dy="0.2"/>
<feGaussianBlur stdDeviation="0.1"/>
<feColorMatrix type="matrix" values="0 0 0 0 0.342574 0 0 0 0 0 0 0 0 0 1.22514e-07 0 0 0 0.25 0"/>
<feBlend mode="normal" in2="BackgroundImageFix" result="effect1_dropShadow"/>
<feBlend mode="normal" in="SourceGraphic" in2="effect1_dropShadow" result="shape"/>
</filter>
<filter id="filter2_d" x="16.1971" y="142.966" width="10.1501" height="5.99794" filterUnits="userSpaceOnUse" color-interpolation-filters="sRGB">
<feFlood flood-opacity="0" result="BackgroundImageFix"/>
<feColorMatrix in="SourceAlpha" type="matrix" values="0 0 0 0 0 0 0 0 0 0 0 0 0 0 0 0 0 0 127 0"/>
<feOffset dy="0.2"/>
<feGaussianBlur stdDeviation="0.1"/>
<feColorMatrix type="matrix" values="0 0 0 0 0.342574 0 0 0 0 0 0 0 0 0 1.22514e-07 0 0 0 0.25 0"/>
<feBlend mode="normal" in2="BackgroundImageFix" result="effect1_dropShadow"/>
<feBlend mode="normal" in="SourceGraphic" in2="effect1_dropShadow" result="shape"/>
</filter>
<linearGradient id="paint0_linear" x1="86.9739" y1="15.1643" x2="86.062" y2="41.492" gradientUnits="userSpaceOnUse">
<stop stop-color="#FFB92D"/>
<stop offset="1" stop-color="#F59500"/>
</linearGradient>
<linearGradient id="paint1_linear" x1="91.2141" y1="32.6425" x2="88.7316" y2="52.8033" gradientUnits="userSpaceOnUse">
<stop stop-color="#FFB92D"/>
<stop offset="1" stop-color="#F59500"/>
</linearGradient>
<linearGradient id="paint2_linear" x1="83.5785" y1="33.243" x2="83.5785" y2="48.6083" gradientUnits="userSpaceOnUse">
<stop stop-color="#A7F3CE"/>
<stop offset="1" stop-color="#61DB99"/>
</linearGradient>
<linearGradient id="paint3_linear" x1="84.4977" y1="59.8445" x2="84.4977" y2="102.961" gradientUnits="userSpaceOnUse">
<stop stop-color="#FF4C54"/>
<stop offset="1" stop-color="#BE3F45"/>
</linearGradient>
<linearGradient id="paint4_linear" x1="84.4977" y1="91.861" x2="84.4977" y2="158.452" gradientUnits="userSpaceOnUse">
<stop stop-color="#FF4C54"/>
<stop offset="1" stop-color="#BE3F45"/>
</linearGradient>
<linearGradient id="paint5_linear" x1="151.602" y1="105.475" x2="140.554" y2="105.475" gradientUnits="userSpaceOnUse">
<stop stop-color="#BE3F45" stop-opacity="0"/>
<stop offset="1" stop-color="#BE3F45"/>
</linearGradient>
<linearGradient id="paint6_linear" x1="52.7992" y1="93.9542" x2="109.301" y2="119.617" gradientUnits="userSpaceOnUse">
<stop stop-color="#FFB92D"/>
<stop offset="1" stop-color="#F59500"/>
</linearGradient>
<linearGradient id="paint7_linear" x1="73.6565" y1="152.582" x2="71.2616" y2="170.605" gradientUnits="userSpaceOnUse">
<stop stop-color="#BE3F45" stop-opacity="0"/>
<stop offset="1" stop-color="#BE3F45"/>
</linearGradient>
<linearGradient id="paint8_linear" x1="15.8793" y1="45.6957" x2="15.8793" y2="161.013" gradientUnits="userSpaceOnUse">
<stop stop-color="#FFF465"/>
<stop offset="1" stop-color="#FFE600"/>
</linearGradient>
<linearGradient id="paint9_linear" x1="81.1476" y1="45.699" x2="81.1476" y2="160.774" gradientUnits="userSpaceOnUse">
<stop stop-color="#FFF465"/>
<stop offset="1" stop-color="#FFE600"/>
</linearGradient>
<linearGradient id="paint10_linear" x1="21.2715" y1="45.6964" x2="21.2715" y2="161.01" gradientUnits="userSpaceOnUse">
<stop stop-color="#FFF465"/>
<stop offset="1" stop-color="#FFE600"/>
</linearGradient>
<linearGradient id="paint11_linear" x1="133.743" y1="128.865" x2="99.6038" y2="95.2511" gradientUnits="userSpaceOnUse">
<stop stop-color="#BE3F45" stop-opacity="0"/>
<stop offset="1" stop-color="#BE3F45"/>
</linearGradient>
<linearGradient id="paint12_linear" x1="117.732" y1="104.956" x2="117.732" y2="122.574" gradientUnits="userSpaceOnUse">
<stop stop-color="#FF4C54"/>
<stop offset="1" stop-color="#BE3F45"/>
</linearGradient>
<linearGradient id="paint13_linear" x1="117.731" y1="117.879" x2="117.731" y2="105.721" gradientUnits="userSpaceOnUse">
<stop stop-color="#FF4C54"/>
<stop offset="1" stop-color="#BE3F45"/>
</linearGradient>
<linearGradient id="paint14_linear" x1="98.3513" y1="36.5815" x2="101.88" y2="51.9232" gradientUnits="userSpaceOnUse">
<stop stop-color="#A7F3CE"/>
<stop offset="1" stop-color="#61DB99"/>
</linearGradient>
<linearGradient id="paint15_linear" x1="104.639" y1="36.5823" x2="108.167" y2="51.9239" gradientUnits="userSpaceOnUse">
<stop stop-color="#A7F3CE"/>
<stop offset="1" stop-color="#61DB99"/>
</linearGradient>
<linearGradient id="paint16_linear" x1="96.9957" y1="36.8975" x2="100.524" y2="52.2391" gradientUnits="userSpaceOnUse">
<stop stop-color="#A7F3CE"/>
<stop offset="1" stop-color="#61DB99"/>
</linearGradient>
<linearGradient id="paint17_linear" x1="103.283" y1="36.8982" x2="106.811" y2="52.2398" gradientUnits="userSpaceOnUse">
<stop stop-color="#A7F3CE"/>
<stop offset="1" stop-color="#61DB99"/>
</linearGradient>
<clipPath id="clip0">
<rect width="169" height="169" fill="white" transform="translate(0 0.0600586)"/>
</clipPath>
</defs>
</svg>
