<svg width="169" height="170" viewBox="0 0 169 170" fill="none" xmlns="http://www.w3.org/2000/svg">
<g id="watch" clip-path="url(#clip0)">
<path id="Vector" d="M117.432 169.06H51.5686C49.2102 169.06 47.2986 167.148 47.2986 164.79V4.33013C47.2986 1.97175 49.2102 0.0600586 51.5686 0.0600586H117.432C119.791 0.0600586 121.702 1.97175 121.702 4.33013V164.79C121.702 167.148 119.791 169.06 117.432 169.06Z" fill="url(#paint0_linear)"/>
<path id="Vector_2" d="M47.2986 140.541V150.266L66.0964 169.06H117.434C119.791 169.06 121.704 167.147 121.704 164.79V140.541H47.2986Z" fill="url(#paint1_linear)"/>
<g id="Group">
<path id="Vector_3" d="M124.967 44.9104H44.033V26.1023C44.033 20.7566 48.3667 16.4229 53.7124 16.4229H115.287C120.633 16.4229 124.967 20.7566 124.967 26.1023V44.9104Z" fill="url(#paint2_linear)"/>
<path id="Vector_4" d="M124.967 124.211H44.0334V143.019C44.0334 148.365 48.3671 152.698 53.7128 152.698H115.288C120.634 152.698 124.967 148.365 124.967 143.019V124.211Z" fill="url(#paint3_linear)"/>
</g>
<path id="Vector_5" d="M84.4988 146.597C118.764 146.597 146.541 118.82 146.541 84.5548C146.541 50.29 118.764 22.5128 84.4988 22.5128C50.234 22.5128 22.4568 50.29 22.4568 84.5548C22.4568 118.82 50.234 146.597 84.4988 146.597Z" fill="url(#paint4_linear)"/>
<g id="Group_2">
<g id="Group_3">
<g id="Group_4">
<path id="Vector_6" d="M84.4978 44.9681C86.3007 44.9681 87.7622 43.5066 87.7622 41.7037C87.7622 39.9009 86.3007 38.4394 84.4978 38.4394C82.695 38.4394 81.2335 39.9009 81.2335 41.7037C81.2335 43.5066 82.695 44.9681 84.4978 44.9681Z" fill="url(#paint5_linear)"/>
<path id="Vector_7" d="M84.4971 130.674C86.3 130.674 87.7615 129.212 87.7615 127.41C87.7615 125.607 86.3 124.145 84.4971 124.145C82.6943 124.145 81.2328 125.607 81.2328 127.41C81.2328 129.212 82.6943 130.674 84.4971 130.674Z" fill="url(#paint6_linear)"/>
</g>
<g id="Group_5">
<path id="Vector_8" d="M127.352 87.8228C129.155 87.8228 130.616 86.3613 130.616 84.5584C130.616 82.7556 129.155 81.2941 127.352 81.2941C125.549 81.2941 124.088 82.7556 124.088 84.5584C124.088 86.3613 125.549 87.8228 127.352 87.8228Z" fill="url(#paint7_linear)"/>
<path id="Vector_9" d="M41.6461 87.822C43.449 87.822 44.9105 86.3605 44.9105 84.5576C44.9105 82.7548 43.449 81.2933 41.6461 81.2933C39.8432 81.2933 38.3817 82.7548 38.3817 84.5576C38.3817 86.3605 39.8432 87.822 41.6461 87.822Z" fill="url(#paint8_linear)"/>
</g>
</g>
<g id="Group_6">
<g id="Group_7">
<path id="Vector_10" d="M105.769 50.6225C107.572 50.6225 109.033 49.161 109.033 47.3582C109.033 45.5553 107.572 44.0938 105.769 44.0938C103.966 44.0938 102.504 45.5553 102.504 47.3582C102.504 49.161 103.966 50.6225 105.769 50.6225Z" fill="url(#paint9_linear)"/>
<path id="Vector_11" d="M63.2304 125.03C65.0332 125.03 66.4947 123.569 66.4947 121.766C66.4947 119.963 65.0332 118.502 63.2304 118.502C61.4275 118.502 59.966 119.963 59.966 121.766C59.966 123.569 61.4275 125.03 63.2304 125.03Z" fill="url(#paint10_linear)"/>
</g>
<g id="Group_8">
<path id="Vector_12" d="M121.702 109.095C123.505 109.095 124.966 107.633 124.966 105.83C124.966 104.028 123.505 102.566 121.702 102.566C119.899 102.566 118.438 104.028 118.438 105.83C118.438 107.633 119.899 109.095 121.702 109.095Z" fill="url(#paint11_linear)"/>
<path id="Vector_13" d="M47.2986 66.5561C49.1015 66.5561 50.563 65.0946 50.563 63.2917C50.563 61.4888 49.1015 60.0273 47.2986 60.0273C45.4958 60.0273 44.0343 61.4888 44.0343 63.2917C44.0343 65.0946 45.4958 66.5561 47.2986 66.5561Z" fill="url(#paint12_linear)"/>
</g>
</g>
<g id="Group_9">
<g id="Group_10">
<path id="Vector_14" d="M63.2305 50.6221C65.0333 50.6221 66.4948 49.1606 66.4948 47.3577C66.4948 45.5549 65.0333 44.0934 63.2305 44.0934C61.4276 44.0934 59.9661 45.5549 59.9661 47.3577C59.9661 49.1606 61.4276 50.6221 63.2305 50.6221Z" fill="url(#paint13_linear)"/>
<path id="Vector_15" d="M105.769 125.03C107.572 125.03 109.033 123.569 109.033 121.766C109.033 119.963 107.572 118.502 105.769 118.502C103.966 118.502 102.504 119.963 102.504 121.766C102.504 123.569 103.966 125.03 105.769 125.03Z" fill="url(#paint14_linear)"/>
</g>
<g id="Group_11">
<path id="Vector_16" d="M47.2982 109.095C49.101 109.095 50.5625 107.633 50.5625 105.83C50.5625 104.027 49.101 102.566 47.2982 102.566C45.4953 102.566 44.0338 104.027 44.0338 105.83C44.0338 107.633 45.4953 109.095 47.2982 109.095Z" fill="url(#paint15_linear)"/>
<path id="Vector_17" d="M121.702 66.5562C123.505 66.5562 124.967 65.0947 124.967 63.2918C124.967 61.489 123.505 60.0275 121.702 60.0275C119.899 60.0275 118.438 61.489 118.438 63.2918C118.438 65.0947 119.899 66.5562 121.702 66.5562Z" fill="url(#paint16_linear)"/>
</g>
</g>
</g>
<path id="Vector_18" d="M145.221 97.3453L88.1584 40.2829C87.382 39.0843 86.0357 38.621 84.5014 38.621C82.095 38.621 80.4752 40.2405 80.4752 42.6472V74.849C76.6005 76.5334 73.8898 80.0619 73.8898 84.5563C73.8898 85.9749 74.1626 87.6603 74.654 88.9042L60.622 102.605C58.9204 104.306 58.589 107.065 60.2906 108.767L96.9796 145.343C121.129 140.412 140.169 121.45 145.221 97.3453Z" fill="url(#paint17_linear)"/>
<path id="Vector_19" d="M135.406 120.033L92.7636 77.3903C90.7572 75.0803 87.801 73.949 84.5012 73.949C78.4576 73.949 73.8896 78.517 73.8896 84.5606C73.8896 87.8604 75.0209 90.8169 77.3309 92.823L119.973 135.465C125.98 131.27 131.212 126.041 135.406 120.033V120.033Z" fill="url(#paint18_linear)"/>
<g id="Group_12">
<path id="Vector_20" d="M84.5001 21.6546C49.7563 21.6546 21.5919 49.819 21.5919 84.5625C21.5919 119.306 49.7563 147.471 84.5001 147.471C119.244 147.471 147.408 119.306 147.408 84.5628C147.408 49.8193 119.244 21.6546 84.5001 21.6546V21.6546ZM84.5001 135.722C56.2446 135.722 33.3408 112.818 33.3408 84.5625C33.3408 56.3069 56.2446 33.4034 84.5001 33.4034C112.756 33.4034 135.659 56.3073 135.659 84.5628C135.659 112.818 112.756 135.722 84.5001 135.722V135.722Z" fill="url(#paint19_linear)"/>
<path id="Vector_21" d="M84.4999 141.687C116.049 141.687 141.623 116.113 141.623 84.5644C141.623 53.0157 116.049 27.4413 84.4999 27.4413C52.9512 27.4413 27.3771 53.0153 27.3771 84.564C27.3771 116.113 52.9512 141.687 84.4999 141.687ZM84.4999 33.405C112.755 33.405 135.659 56.3089 135.659 84.5644C135.659 112.82 112.755 135.723 84.4999 135.723C56.2443 135.723 33.3405 112.82 33.3405 84.564C33.3405 56.3085 56.2443 33.405 84.4999 33.405V33.405Z" fill="url(#paint20_linear)"/>
</g>
<path id="Vector_22" d="M84.4989 84.5575C82.0925 84.5575 80.1413 82.6067 80.1413 80.2V42.6484C80.1413 40.242 82.0921 38.2909 84.4989 38.2909C86.9053 38.2909 88.8564 40.2417 88.8564 42.6484V80.2003C88.8564 82.6067 86.9053 84.5575 84.4989 84.5575V84.5575Z" fill="url(#paint21_linear)"/>
<path id="Vector_23" d="M84.5012 84.5574C82.7996 82.8558 80.0405 82.8558 78.3389 84.5574L60.2904 102.606C58.5888 104.308 58.5888 107.067 60.2904 108.768C61.992 110.47 64.751 110.47 66.4526 108.768L84.5012 90.7199C86.2028 89.018 86.2028 86.2593 84.5012 84.5574Z" fill="url(#paint22_linear)"/>
<path id="Vector_24" d="M84.5003 95.5049C90.5439 95.5049 95.4432 90.6056 95.4432 84.5619C95.4432 78.5183 90.5439 73.619 84.5003 73.619C78.4567 73.619 73.5574 78.5183 73.5574 84.5619C73.5574 90.6056 78.4567 95.5049 84.5003 95.5049Z" fill="url(#paint23_linear)"/>
</g>
<defs>
<linearGradient id="paint0_linear" x1="33.3024" y1="50.9374" x2="130.936" y2="115.055" gradientUnits="userSpaceOnUse">
<stop stop-color="#8A7889"/>
<stop offset="0.3344" stop-color="#867385"/>
<stop offset="0.7039" stop-color="#7B667B"/>
<stop offset="1" stop-color="#6E566E"/>
</linearGradient>
<linearGradient id="paint1_linear" x1="85.4383" y1="167.426" x2="84.7096" y2="150.304" gradientUnits="userSpaceOnUse">
<stop stop-color="#6E566E" stop-opacity="0"/>
<stop offset="0.2944" stop-color="#674D66" stop-opacity="0.294"/>
<stop offset="1" stop-color="#593B56"/>
</linearGradient>
<linearGradient id="paint2_linear" x1="76.699" y1="11.7015" x2="86.171" y2="39.6316" gradientUnits="userSpaceOnUse">
<stop stop-color="#18CEFB"/>
<stop offset="0.2969" stop-color="#2BB9F9"/>
<stop offset="0.7345" stop-color="#42A0F7"/>
<stop offset="1" stop-color="#4A97F6"/>
</linearGradient>
<linearGradient id="paint3_linear" x1="84.5003" y1="141.027" x2="84.5003" y2="158.783" gradientUnits="userSpaceOnUse">
<stop stop-color="#18CEFB"/>
<stop offset="0.2969" stop-color="#2BB9F9"/>
<stop offset="0.7345" stop-color="#42A0F7"/>
<stop offset="1" stop-color="#4A97F6"/>
</linearGradient>
<linearGradient id="paint4_linear" x1="52.5223" y1="52.5786" x2="155.101" y2="155.157" gradientUnits="userSpaceOnUse">
<stop stop-color="#F8F6FB"/>
<stop offset="1" stop-color="#EFDCFB"/>
</linearGradient>
<linearGradient id="paint5_linear" x1="83.2164" y1="40.4223" x2="85.9546" y2="43.1605" gradientUnits="userSpaceOnUse">
<stop stop-color="#8A7889"/>
<stop offset="0.3344" stop-color="#867385"/>
<stop offset="0.7039" stop-color="#7B667B"/>
<stop offset="1" stop-color="#6E566E"/>
</linearGradient>
<linearGradient id="paint6_linear" x1="83.2157" y1="126.128" x2="85.9539" y2="128.866" gradientUnits="userSpaceOnUse">
<stop stop-color="#8A7889"/>
<stop offset="0.3344" stop-color="#867385"/>
<stop offset="0.7039" stop-color="#7B667B"/>
<stop offset="1" stop-color="#6E566E"/>
</linearGradient>
<linearGradient id="paint7_linear" x1="128.634" y1="83.277" x2="125.895" y2="86.0151" gradientUnits="userSpaceOnUse">
<stop stop-color="#8A7889"/>
<stop offset="0.3344" stop-color="#867385"/>
<stop offset="0.7039" stop-color="#7B667B"/>
<stop offset="1" stop-color="#6E566E"/>
</linearGradient>
<linearGradient id="paint8_linear" x1="42.9275" y1="83.2762" x2="40.1894" y2="86.0143" gradientUnits="userSpaceOnUse">
<stop stop-color="#8A7889"/>
<stop offset="0.3344" stop-color="#867385"/>
<stop offset="0.7039" stop-color="#7B667B"/>
<stop offset="1" stop-color="#6E566E"/>
</linearGradient>
<linearGradient id="paint9_linear" x1="105.295" y1="45.5764" x2="106.314" y2="49.3114" gradientUnits="userSpaceOnUse">
<stop stop-color="#8A7889"/>
<stop offset="0.3344" stop-color="#867385"/>
<stop offset="0.7039" stop-color="#7B667B"/>
<stop offset="1" stop-color="#6E566E"/>
</linearGradient>
<linearGradient id="paint10_linear" x1="62.7846" y1="119.973" x2="63.8034" y2="123.708" gradientUnits="userSpaceOnUse">
<stop stop-color="#8A7889"/>
<stop offset="0.3344" stop-color="#867385"/>
<stop offset="0.7039" stop-color="#7B667B"/>
<stop offset="1" stop-color="#6E566E"/>
</linearGradient>
<linearGradient id="paint11_linear" x1="123.484" y1="105.356" x2="119.749" y2="106.375" gradientUnits="userSpaceOnUse">
<stop stop-color="#8A7889"/>
<stop offset="0.3344" stop-color="#867385"/>
<stop offset="0.7039" stop-color="#7B667B"/>
<stop offset="1" stop-color="#6E566E"/>
</linearGradient>
<linearGradient id="paint12_linear" x1="49.0918" y1="62.8461" x2="45.3565" y2="63.8648" gradientUnits="userSpaceOnUse">
<stop stop-color="#8A7889"/>
<stop offset="0.3344" stop-color="#867385"/>
<stop offset="0.7039" stop-color="#7B667B"/>
<stop offset="1" stop-color="#6E566E"/>
</linearGradient>
<linearGradient id="paint13_linear" x1="63.7046" y1="45.576" x2="62.6857" y2="49.311" gradientUnits="userSpaceOnUse">
<stop stop-color="#8A7889"/>
<stop offset="0.3344" stop-color="#867385"/>
<stop offset="0.7039" stop-color="#7B667B"/>
<stop offset="1" stop-color="#6E566E"/>
</linearGradient>
<linearGradient id="paint14_linear" x1="106.214" y1="119.973" x2="105.196" y2="123.708" gradientUnits="userSpaceOnUse">
<stop stop-color="#8A7889"/>
<stop offset="0.3344" stop-color="#867385"/>
<stop offset="0.7039" stop-color="#7B667B"/>
<stop offset="1" stop-color="#6E566E"/>
</linearGradient>
<linearGradient id="paint15_linear" x1="45.5164" y1="105.356" x2="49.2514" y2="106.375" gradientUnits="userSpaceOnUse">
<stop stop-color="#8A7889"/>
<stop offset="0.3344" stop-color="#867385"/>
<stop offset="0.7039" stop-color="#7B667B"/>
<stop offset="1" stop-color="#6E566E"/>
</linearGradient>
<linearGradient id="paint16_linear" x1="119.909" y1="62.8463" x2="123.644" y2="63.865" gradientUnits="userSpaceOnUse">
<stop stop-color="#8A7889"/>
<stop offset="0.3344" stop-color="#867385"/>
<stop offset="0.7039" stop-color="#7B667B"/>
<stop offset="1" stop-color="#6E566E"/>
</linearGradient>
<linearGradient id="paint17_linear" x1="107.185" y1="101.294" x2="-15.111" y2="28.6434" gradientUnits="userSpaceOnUse">
<stop stop-color="#EFDCFB" stop-opacity="0"/>
<stop offset="0.0287" stop-color="#E9D6F7" stop-opacity="0.029"/>
<stop offset="0.2203" stop-color="#C5B5DE" stop-opacity="0.22"/>
<stop offset="0.4138" stop-color="#AA9BCB" stop-opacity="0.414"/>
<stop offset="0.6078" stop-color="#9688BD" stop-opacity="0.608"/>
<stop offset="0.8028" stop-color="#8A7DB5" stop-opacity="0.803"/>
<stop offset="1" stop-color="#8679B2"/>
</linearGradient>
<linearGradient id="paint18_linear" x1="105.561" y1="105.621" x2="38.665" y2="38.7244" gradientUnits="userSpaceOnUse">
<stop stop-color="#EFDCFB" stop-opacity="0"/>
<stop offset="0.0287" stop-color="#E9D6F7" stop-opacity="0.029"/>
<stop offset="0.2203" stop-color="#C5B5DE" stop-opacity="0.22"/>
<stop offset="0.4138" stop-color="#AA9BCB" stop-opacity="0.414"/>
<stop offset="0.6078" stop-color="#9688BD" stop-opacity="0.608"/>
<stop offset="0.8028" stop-color="#8A7DB5" stop-opacity="0.803"/>
<stop offset="1" stop-color="#8679B2"/>
</linearGradient>
<linearGradient id="paint19_linear" x1="52.0773" y1="52.1396" x2="156.088" y2="156.151" gradientUnits="userSpaceOnUse">
<stop stop-color="#18CEFB"/>
<stop offset="0.2969" stop-color="#2BB9F9"/>
<stop offset="0.7345" stop-color="#42A0F7"/>
<stop offset="1" stop-color="#4A97F6"/>
</linearGradient>
<linearGradient id="paint20_linear" x1="139.198" y1="139.262" x2="19.7701" y2="19.8343" gradientUnits="userSpaceOnUse">
<stop stop-color="#4A97F6" stop-opacity="0"/>
<stop offset="1" stop-color="#0469BB"/>
</linearGradient>
<linearGradient id="paint21_linear" x1="75.6284" y1="61.4244" x2="94.3291" y2="61.4244" gradientUnits="userSpaceOnUse">
<stop stop-color="#FFD945"/>
<stop offset="0.3043" stop-color="#FFCD3E"/>
<stop offset="0.8558" stop-color="#FFAD2B"/>
<stop offset="1" stop-color="#FFA325"/>
</linearGradient>
<linearGradient id="paint22_linear" x1="66.1081" y1="90.3897" x2="79.3292" y2="103.611" gradientUnits="userSpaceOnUse">
<stop stop-color="#FFD945"/>
<stop offset="0.3043" stop-color="#FFCD3E"/>
<stop offset="0.8558" stop-color="#FFAD2B"/>
<stop offset="1" stop-color="#FFA325"/>
</linearGradient>
<linearGradient id="paint23_linear" x1="78.8603" y1="78.922" x2="96.953" y2="97.0146" gradientUnits="userSpaceOnUse">
<stop stop-color="#FFA936"/>
<stop offset="0.4112" stop-color="#FF8548"/>
<stop offset="0.7781" stop-color="#FF6C54"/>
<stop offset="1" stop-color="#FF6359"/>
</linearGradient>
<clipPath id="clip0">
<rect width="169" height="169" fill="white" transform="translate(0 0.0600586)"/>
</clipPath>
</defs>
</svg>
