<svg width="272" height="272" viewBox="0 0 272 272" fill="none" xmlns="http://www.w3.org/2000/svg">
<path d="M215.051 271.614H57.5198C26.2768 271.614 0.949219 246.287 0.949219 215.044V57.512C0.949219 26.2689 26.2768 0.941406 57.5198 0.941406H215.051C246.294 0.941406 271.622 26.2689 271.622 57.512V215.044C271.622 246.287 246.294 271.614 215.051 271.614Z" fill="url(#paint0_linear)"/>
<path d="M230.958 269.345C254.455 262.472 271.619 240.765 271.619 215.046V142.295L140.883 11.5586V143.534L183.872 186.523L166.004 204.391L230.958 269.345Z" fill="url(#paint1_linear)"/>
<path d="M0.949219 183.848V215.045C0.949219 246.288 26.2768 271.616 57.5198 271.616H215.051C246.294 271.616 271.622 246.288 271.622 215.045V183.848H0.949219Z" fill="url(#paint2_linear)"/>
<path d="M202.65 250.303H69.9183C43.5941 250.303 22.2539 228.962 22.2539 202.638V69.9066C22.2539 43.5823 43.5941 22.2422 69.9183 22.2422H202.65C228.974 22.2422 250.314 43.5823 250.314 69.9066V202.638C250.314 228.962 228.974 250.303 202.65 250.303Z" fill="url(#paint3_linear)"/>
<path d="M250.313 138.928H46.457L157.834 250.304H202.649C228.973 250.304 250.313 228.964 250.313 202.639V138.928Z" fill="url(#paint4_linear)"/>
<path d="M151.574 22.2422H140.883V143.526L183.872 186.515L166.004 204.383L211.165 249.543C233.426 245.528 250.314 226.056 250.314 202.638V120.981L151.574 22.2422Z" fill="url(#paint5_linear)"/>
<path d="M66.3999 136.289C66.3999 131.562 62.5685 127.73 57.8418 127.73H37.9877C33.2616 127.73 29.4297 131.562 29.4297 136.289C29.4297 141.015 33.261 144.847 37.9877 144.847H57.8418C62.5685 144.847 66.3999 141.015 66.3999 136.289Z" fill="url(#paint6_linear)"/>
<path d="M234.576 127.73H214.722C209.996 127.73 206.164 131.562 206.164 136.289C206.164 141.015 209.995 144.847 214.722 144.847H234.576C239.302 144.847 243.134 141.015 243.134 136.289C243.134 131.562 239.302 127.73 234.576 127.73Z" fill="url(#paint7_linear)"/>
<path d="M136.285 29.4355C131.558 29.4355 127.727 33.2669 127.727 37.9936V57.8477C127.727 62.5739 131.558 66.4057 136.285 66.4057C141.011 66.4057 144.843 62.5744 144.843 57.8477V37.9931C144.843 33.2669 141.011 29.4355 136.285 29.4355Z" fill="url(#paint8_linear)"/>
<path d="M136.285 206.17C131.558 206.17 127.727 210.001 127.727 214.728V234.582C127.727 239.308 131.558 243.14 136.285 243.14C141.011 243.14 144.843 239.309 144.843 234.582V214.728C144.843 210.001 141.011 206.17 136.285 206.17Z" fill="url(#paint9_linear)"/>
<path d="M196.393 100.656C198.803 104.722 204.053 106.064 208.118 103.653L225.197 93.5279C229.262 91.1173 230.604 85.8679 228.194 81.8025C225.783 77.7365 220.534 76.3949 216.468 78.8054L199.39 88.9307C195.325 91.3408 193.983 96.5902 196.393 100.656Z" fill="url(#paint10_linear)"/>
<path d="M64.4413 168.927L47.3629 179.052C43.2975 181.463 41.9553 186.712 44.3659 190.777C46.7764 194.843 52.0259 196.185 56.0913 193.774L73.1697 183.649C77.2351 181.239 78.5773 175.989 76.1667 171.923C73.7562 167.857 68.5067 166.516 64.4413 168.927Z" fill="url(#paint11_linear)"/>
<path d="M93.5141 47.3688C91.1035 43.3034 85.8541 41.9611 81.7887 44.3717C77.7233 46.7823 76.3811 52.0318 78.7916 56.0972L88.9169 73.1755C91.327 77.2409 96.577 78.5826 100.642 76.1726C104.708 73.7625 106.05 68.5125 103.639 64.4471L93.5141 47.3688Z" fill="url(#paint12_linear)"/>
<path d="M183.643 199.396C181.233 195.33 175.983 193.989 171.918 196.399C167.852 198.809 166.51 204.059 168.921 208.124L179.046 225.203C181.456 229.268 186.706 230.61 190.771 228.2C194.837 225.789 196.179 220.54 193.768 216.474L183.643 199.396Z" fill="url(#paint13_linear)"/>
<path d="M100.642 196.399C96.5767 193.988 91.3267 195.331 88.9167 199.396L78.7914 216.475C76.3814 220.54 77.7231 225.79 81.7884 228.2C85.8538 230.611 91.1038 229.268 93.5139 225.203L103.639 208.125C106.05 204.059 104.708 198.81 100.642 196.399Z" fill="url(#paint14_linear)"/>
<path d="M190.772 44.3717C186.706 41.9611 181.456 43.3034 179.046 47.3688L168.921 64.4471C166.51 68.5125 167.852 73.7625 171.918 76.1726C175.983 78.5826 181.233 77.2409 183.643 73.1755L193.768 56.0972C196.179 52.0318 194.837 46.7823 190.772 44.3717Z" fill="url(#paint15_linear)"/>
<path d="M73.1773 88.9306L56.0989 78.8053C52.0335 76.3947 46.7835 77.737 44.3734 81.8024C41.9634 85.8678 43.3051 91.1178 47.3705 93.5278L64.4489 103.653C68.5143 106.064 73.7643 104.721 76.1743 100.656C78.5844 96.5907 77.2427 91.3412 73.1773 88.9306Z" fill="url(#paint16_linear)"/>
<path d="M225.197 179.052L208.118 168.926C204.053 166.516 198.803 167.858 196.393 171.923C193.983 175.989 195.325 181.239 199.39 183.649L216.468 193.775C220.534 196.185 225.784 194.843 228.194 190.778C230.604 186.712 229.262 181.462 225.197 179.052Z" fill="url(#paint17_linear)"/>
<path d="M202.65 250.313H69.9183C43.5941 250.313 22.2539 228.972 22.2539 202.648V197.316H250.315V202.648C250.314 228.972 228.974 250.313 202.65 250.313Z" fill="url(#paint18_linear)"/>
<path d="M151.671 130.441V68.5526H165.183C171.083 68.5526 174.614 61.9912 171.364 57.067L142.464 13.2796C139.537 8.8443 133.029 8.8443 130.102 13.2796L101.202 57.0676C97.9524 61.9917 101.483 68.5531 107.383 68.5531H120.895V130.441C120.895 134.378 124.087 137.57 128.025 137.57H144.541C148.479 137.57 151.671 134.378 151.671 130.441Z" fill="url(#paint19_linear)"/>
<path d="M151.674 130.445V68.5566H120.898V130.445C120.898 134.382 124.09 137.574 128.028 137.574H144.544C148.482 137.574 151.674 134.382 151.674 130.445Z" fill="url(#paint20_linear)"/>
<path d="M120.895 40.2652V68.5553H107.383C101.484 68.5526 97.951 61.9933 101.203 57.0681L113.715 38.1093C114.439 37.0118 115.666 36.3516 116.981 36.3516C119.143 36.3516 120.895 38.1035 120.895 40.2652Z" fill="url(#paint21_linear)"/>
<path d="M165.18 68.5553H151.668V40.2652C151.668 38.1035 153.42 36.3516 155.582 36.3516C156.897 36.3516 158.124 37.0118 158.848 38.1093L171.36 57.0681C174.612 61.9928 171.079 68.5526 165.18 68.5553Z" fill="url(#paint22_linear)"/>
<path d="M249.51 211.398L158.123 120.011C153.178 114.181 145.803 110.477 137.56 110.477C122.671 110.477 110.602 122.546 110.602 137.435C110.602 145.678 114.306 153.053 120.136 157.998L211.601 249.464C230.812 245.814 245.937 230.637 249.51 211.398Z" fill="url(#paint23_linear)"/>
<path d="M128.446 144.642L173.905 190.101L166.791 197.215C163.685 200.321 165.281 205.635 169.584 206.516L207.853 214.355C211.729 215.149 215.155 211.722 214.361 207.846L206.523 169.578C205.641 165.274 200.327 163.679 197.222 166.785L190.108 173.899L144.648 128.44C142.575 126.367 139.214 126.367 137.141 128.44L128.446 137.135C126.372 139.208 126.372 142.569 128.446 144.642Z" fill="url(#paint24_linear)"/>
<path d="M128.446 144.642L173.905 190.101L190.108 173.899L144.648 128.44C142.575 126.367 139.214 126.367 137.141 128.44L128.446 137.135C126.372 139.208 126.372 142.569 128.446 144.642Z" fill="url(#paint25_linear)"/>
<path d="M205 188.795L190.105 173.901L197.219 166.787C200.326 163.683 205.64 165.276 206.52 169.581L209.915 186.15C210.111 187.109 209.813 188.103 209.121 188.795C207.983 189.933 206.138 189.933 205 188.795Z" fill="url(#paint26_linear)"/>
<path d="M166.795 197.212L173.909 190.098L188.803 204.992C189.941 206.13 189.941 207.975 188.803 209.113C188.11 209.806 187.117 210.104 186.158 209.907L169.589 206.513C165.284 205.632 163.69 200.319 166.795 197.212Z" fill="url(#paint27_linear)"/>
<path d="M136.461 140.258H49.5977C47.3989 140.258 45.6172 138.476 45.6172 136.277C45.6172 134.079 47.3989 132.297 49.5977 132.297H136.461C138.66 132.297 140.441 134.079 140.441 136.277C140.441 138.476 138.66 140.258 136.461 140.258Z" fill="url(#paint28_linear)"/>
<path d="M136.287 163.229C151.175 163.229 163.245 151.16 163.245 136.271C163.245 121.382 151.175 109.312 136.287 109.312C121.398 109.312 109.328 121.382 109.328 136.271C109.328 151.16 121.398 163.229 136.287 163.229Z" fill="url(#paint29_linear)"/>
<path d="M136.287 163.229C151.175 163.229 163.245 151.16 163.245 136.271C163.245 121.382 151.175 109.312 136.287 109.312C121.398 109.312 109.328 121.382 109.328 136.271C109.328 151.16 121.398 163.229 136.287 163.229Z" fill="url(#paint30_linear)"/>
<defs>
<linearGradient id="paint0_linear" x1="36.7422" y1="36.7344" x2="233.56" y2="233.552" gradientUnits="userSpaceOnUse">
<stop stop-color="#5A5A5A"/>
<stop offset="1" stop-color="#464646"/>
</linearGradient>
<linearGradient id="paint1_linear" x1="274.538" y1="229.07" x2="69.7303" y2="24.2617" gradientUnits="userSpaceOnUse">
<stop stop-color="#464646" stop-opacity="0"/>
<stop offset="0.1772" stop-color="#3D3D3D" stop-opacity="0.177"/>
<stop offset="0.6736" stop-color="#282828" stop-opacity="0.674"/>
<stop offset="1" stop-color="#202020"/>
</linearGradient>
<linearGradient id="paint2_linear" x1="136.286" y1="217.481" x2="136.286" y2="271.626" gradientUnits="userSpaceOnUse">
<stop stop-color="#464646" stop-opacity="0"/>
<stop offset="0.1772" stop-color="#3D3D3D" stop-opacity="0.177"/>
<stop offset="0.6736" stop-color="#282828" stop-opacity="0.674"/>
<stop offset="1" stop-color="#202020"/>
</linearGradient>
<linearGradient id="paint3_linear" x1="52.4116" y1="52.3999" x2="218.244" y2="218.233" gradientUnits="userSpaceOnUse">
<stop stop-color="#EEF4FF"/>
<stop offset="1" stop-color="#CFE7FD"/>
</linearGradient>
<linearGradient id="paint4_linear" x1="158.603" y1="152.649" x2="109.068" y2="86.1306" gradientUnits="userSpaceOnUse">
<stop stop-color="#8AAADC" stop-opacity="0"/>
<stop offset="1" stop-color="#8AAADC"/>
</linearGradient>
<linearGradient id="paint5_linear" x1="236.238" y1="135.893" x2="151.271" y2="135.893" gradientUnits="userSpaceOnUse">
<stop stop-color="#8AAADC" stop-opacity="0"/>
<stop offset="1" stop-color="#8AAADC"/>
</linearGradient>
<linearGradient id="paint6_linear" x1="47.915" y1="-48.9367" x2="47.915" y2="279.217" gradientUnits="userSpaceOnUse">
<stop stop-color="#8AAADC" stop-opacity="0"/>
<stop offset="1" stop-color="#8AAADC"/>
</linearGradient>
<linearGradient id="paint7_linear" x1="224.649" y1="-48.9367" x2="224.649" y2="279.217" gradientUnits="userSpaceOnUse">
<stop stop-color="#8AAADC" stop-opacity="0"/>
<stop offset="1" stop-color="#8AAADC"/>
</linearGradient>
<linearGradient id="paint8_linear" x1="136.285" y1="-48.938" x2="136.285" y2="279.216" gradientUnits="userSpaceOnUse">
<stop stop-color="#8AAADC" stop-opacity="0"/>
<stop offset="1" stop-color="#8AAADC"/>
</linearGradient>
<linearGradient id="paint9_linear" x1="136.285" y1="-48.937" x2="136.285" y2="279.217" gradientUnits="userSpaceOnUse">
<stop stop-color="#8AAADC" stop-opacity="0"/>
<stop offset="1" stop-color="#8AAADC"/>
</linearGradient>
<linearGradient id="paint10_linear" x1="212.294" y1="-48.9314" x2="212.294" y2="279.222" gradientUnits="userSpaceOnUse">
<stop stop-color="#8AAADC" stop-opacity="0"/>
<stop offset="1" stop-color="#8AAADC"/>
</linearGradient>
<linearGradient id="paint11_linear" x1="60.266" y1="-48.9387" x2="60.266" y2="279.215" gradientUnits="userSpaceOnUse">
<stop stop-color="#8AAADC" stop-opacity="0"/>
<stop offset="1" stop-color="#8AAADC"/>
</linearGradient>
<linearGradient id="paint12_linear" x1="91.2155" y1="-48.9403" x2="91.2155" y2="279.213" gradientUnits="userSpaceOnUse">
<stop stop-color="#8AAADC" stop-opacity="0"/>
<stop offset="1" stop-color="#8AAADC"/>
</linearGradient>
<linearGradient id="paint13_linear" x1="181.344" y1="-48.938" x2="181.344" y2="279.216" gradientUnits="userSpaceOnUse">
<stop stop-color="#8AAADC" stop-opacity="0"/>
<stop offset="1" stop-color="#8AAADC"/>
</linearGradient>
<linearGradient id="paint14_linear" x1="91.2153" y1="-48.938" x2="91.2153" y2="279.216" gradientUnits="userSpaceOnUse">
<stop stop-color="#8AAADC" stop-opacity="0"/>
<stop offset="1" stop-color="#8AAADC"/>
</linearGradient>
<linearGradient id="paint15_linear" x1="181.345" y1="-48.9403" x2="181.345" y2="279.213" gradientUnits="userSpaceOnUse">
<stop stop-color="#8AAADC" stop-opacity="0"/>
<stop offset="1" stop-color="#8AAADC"/>
</linearGradient>
<linearGradient id="paint16_linear" x1="60.2736" y1="-48.931" x2="60.2736" y2="279.223" gradientUnits="userSpaceOnUse">
<stop stop-color="#8AAADC" stop-opacity="0"/>
<stop offset="1" stop-color="#8AAADC"/>
</linearGradient>
<linearGradient id="paint17_linear" x1="212.293" y1="-48.939" x2="212.293" y2="279.214" gradientUnits="userSpaceOnUse">
<stop stop-color="#8AAADC" stop-opacity="0"/>
<stop offset="1" stop-color="#8AAADC"/>
</linearGradient>
<linearGradient id="paint18_linear" x1="136.284" y1="218.763" x2="136.284" y2="254.664" gradientUnits="userSpaceOnUse">
<stop stop-color="#8AAADC" stop-opacity="0"/>
<stop offset="1" stop-color="#8AAADC"/>
</linearGradient>
<linearGradient id="paint19_linear" x1="136.294" y1="46.8171" x2="136.294" y2="118.282" gradientUnits="userSpaceOnUse">
<stop stop-color="#76CCF8"/>
<stop offset="0.833" stop-color="#518EF8"/>
<stop offset="1" stop-color="#4981F8"/>
</linearGradient>
<linearGradient id="paint20_linear" x1="136.297" y1="117.748" x2="136.297" y2="138.569" gradientUnits="userSpaceOnUse">
<stop stop-color="#4071F7" stop-opacity="0"/>
<stop offset="1" stop-color="#30569F"/>
</linearGradient>
<linearGradient id="paint21_linear" x1="110.444" y1="59.2941" x2="110.444" y2="69.0087" gradientUnits="userSpaceOnUse">
<stop stop-color="#4071F7" stop-opacity="0"/>
<stop offset="1" stop-color="#30569F"/>
</linearGradient>
<linearGradient id="paint22_linear" x1="162.139" y1="59.2937" x2="162.139" y2="69.0091" gradientUnits="userSpaceOnUse">
<stop stop-color="#4071F7" stop-opacity="0"/>
<stop offset="1" stop-color="#30569F"/>
</linearGradient>
<linearGradient id="paint23_linear" x1="203.481" y1="203.356" x2="103.584" y2="103.46" gradientUnits="userSpaceOnUse">
<stop stop-color="#8AAADC" stop-opacity="0"/>
<stop offset="1" stop-color="#8AAADC"/>
</linearGradient>
<linearGradient id="paint24_linear" x1="134.012" y1="134.006" x2="219.515" y2="219.509" gradientUnits="userSpaceOnUse">
<stop stop-color="#76CCF8"/>
<stop offset="0.833" stop-color="#518EF8"/>
<stop offset="1" stop-color="#4981F8"/>
</linearGradient>
<linearGradient id="paint25_linear" x1="146.905" y1="146.899" x2="132.056" y2="132.05" gradientUnits="userSpaceOnUse">
<stop stop-color="#4071F7" stop-opacity="0"/>
<stop offset="1" stop-color="#30569F"/>
</linearGradient>
<linearGradient id="paint26_linear" x1="200.477" y1="173.253" x2="195.361" y2="168.138" gradientUnits="userSpaceOnUse">
<stop stop-color="#4071F7" stop-opacity="0"/>
<stop offset="1" stop-color="#30569F"/>
</linearGradient>
<linearGradient id="paint27_linear" x1="173.261" y1="200.469" x2="168.145" y2="195.354" gradientUnits="userSpaceOnUse">
<stop stop-color="#4071F7" stop-opacity="0"/>
<stop offset="1" stop-color="#30569F"/>
</linearGradient>
<linearGradient id="paint28_linear" x1="93.0295" y1="132.297" x2="93.0295" y2="140.258" gradientUnits="userSpaceOnUse">
<stop stop-color="#F7E07D"/>
<stop offset="1" stop-color="#E69642"/>
</linearGradient>
<linearGradient id="paint29_linear" x1="121.309" y1="121.294" x2="144.485" y2="144.47" gradientUnits="userSpaceOnUse">
<stop stop-color="#5A5A5A"/>
<stop offset="1" stop-color="#464646"/>
</linearGradient>
<linearGradient id="paint30_linear" x1="136.287" y1="132.322" x2="136.287" y2="157.8" gradientUnits="userSpaceOnUse">
<stop stop-color="#464646" stop-opacity="0"/>
<stop offset="0.1772" stop-color="#3D3D3D" stop-opacity="0.177"/>
<stop offset="0.6736" stop-color="#282828" stop-opacity="0.674"/>
<stop offset="1" stop-color="#202020"/>
</linearGradient>
</defs>
</svg>
