<svg width="245" height="279" viewBox="0 0 245 279" fill="none" xmlns="http://www.w3.org/2000/svg">
<path d="M122.364 0.650391C55.1983 0.650391 0.554688 53.2272 0.554688 117.854V198.087C0.554688 210.099 10.2954 219.837 22.3117 219.837H222.418C234.435 219.837 244.175 210.099 244.175 198.087V117.854C244.174 53.2272 189.531 0.650391 122.364 0.650391Z" fill="url(#paint0_radial)"/>
<path d="M84.8592 179.398H67.5024C67.5024 179.398 18.5952 212.789 25.6922 278.893H50.7239L54.924 274.576L59.124 278.893H84.8598L122.369 229.146L84.8592 179.398Z" fill="#46505A"/>
<path d="M177.238 179.4H159.881L122.371 229.148L159.881 278.895H185.616L189.816 274.204L194.016 278.895H219.048C226.145 212.791 177.238 179.4 177.238 179.4Z" fill="#46505A"/>
<path d="M159.873 179.4H84.8516V278.897H159.873V179.4Z" fill="#EEECED"/>
<path d="M50.7305 278.898V240.421C50.7305 238.102 52.6109 236.223 54.9305 236.223C57.2502 236.223 59.1306 238.102 59.1306 240.421V278.898H50.7305Z" fill="#3D474E"/>
<path d="M185.625 278.898V240.421C185.625 238.102 187.505 236.223 189.825 236.223C192.145 236.223 194.025 238.102 194.025 240.421V278.898H185.625Z" fill="#3D474E"/>
<path d="M94.7913 65.9277C72.2254 107.877 15.8857 118.026 15.7852 118.044C15.8923 174.281 63.5682 219.838 122.367 219.838C181.165 219.838 228.841 174.281 228.948 118.045C133.041 111.379 94.7913 65.9277 94.7913 65.9277Z" fill="url(#paint1_radial)"/>
<path d="M135.197 147.931C133.335 146.549 130.703 146.939 129.321 148.801C127.663 151.035 125.13 152.317 122.371 152.317C119.613 152.317 117.08 151.035 115.422 148.801C114.04 146.939 111.409 146.548 109.546 147.931C107.683 149.312 107.293 151.942 108.675 153.805C111.885 158.132 117.006 160.715 122.371 160.715C127.736 160.715 132.856 158.132 136.067 153.805C137.45 151.942 137.06 149.313 135.197 147.931Z" fill="#3A484A"/>
<path d="M74.1468 152.312H57.5907C55.271 152.312 53.3906 154.192 53.3906 156.511C53.3906 158.83 55.271 160.71 57.5907 160.71H74.1468C76.4664 160.71 78.3468 158.83 78.3468 156.511C78.3468 154.192 76.4664 152.312 74.1468 152.312Z" fill="#FF8087"/>
<path d="M65.8758 143.693C68.1955 143.693 70.0759 141.813 70.0759 139.495V127.181C70.0759 124.862 68.1955 122.982 65.8758 122.982C63.5562 122.982 61.6758 124.862 61.6758 127.181V139.494C61.6752 141.813 63.5562 143.693 65.8758 143.693Z" fill="#3A484A"/>
<path d="M179.868 143.695C182.188 143.695 184.068 141.815 184.068 139.496V127.183C184.068 124.864 182.188 122.984 179.868 122.984C177.548 122.984 175.668 124.864 175.668 127.183V139.496C175.667 141.815 177.548 143.695 179.868 143.695Z" fill="#3A484A"/>
<path d="M188.123 152.312H171.567C169.248 152.312 167.367 154.192 167.367 156.511C167.367 158.83 169.248 160.71 171.567 160.71H188.123C190.443 160.71 192.323 158.83 192.323 156.511C192.323 154.192 190.443 152.312 188.123 152.312Z" fill="#FF8087"/>
<defs>
<radialGradient id="paint0_radial" cx="0" cy="0" r="1" gradientUnits="userSpaceOnUse" gradientTransform="translate(244.175 96) rotate(180) scale(228.675 254.168)">
<stop offset="0.44968" stop-color="#C36E5C"/>
<stop offset="1" stop-color="#864031"/>
</radialGradient>
<radialGradient id="paint1_radial" cx="0" cy="0" r="1" gradientUnits="userSpaceOnUse" gradientTransform="translate(228.948 120) rotate(166.066) scale(197.253 273.192)">
<stop offset="0.583113" stop-color="#FBC4AC"/>
<stop offset="1" stop-color="#FAB394"/>
</radialGradient>
</defs>
</svg>
