<svg xmlns="http://www.w3.org/2000/svg" fill="none" viewBox="0 0 394 400">
  <defs/>
  <g id="girl">
    <g id="Group">
      <path id="Vector" fill="url(#paint0_linear)" d="M262.8 257H238l-53.4 71.5L238 400h84.2c10.1-95-59.5-143-59.5-143z"/>
      <path id="Vector_2" fill="url(#paint1_linear)" d="M131.3 257h-24.7S36.9 305 47 400H131.3l53.4-71.5-53.4-71.5z"/>
    </g>
    <path id="Vector_3" fill="url(#paint2_linear)" d="M238 257H131.4v143H238V257z"/>
    <g id="Group_2">
      <path id="Vector_4" fill="#AF3186" d="M82.7 400l3-55.3c0-3.3 1.7-6 3.8-6 .7 0 .8 2.7.8 6V400h-7.6z"/>
      <path id="Vector_5" fill="#AF3186" d="M276.9 400v-55.3c0-3.3-.5-6 .8-6 2.1 0 3.8 2.7 3.8 6l3 55.3H277z"/>
      <path id="Vector_6" fill="#DA62B3" d="M234.3 400v-94c0-5.6 1.7-10.2 3.8-10.2 2 0 3.8 4.6 3.8 10.2v94h-7.7z"/>
      <path id="Vector_7" fill="#DA62B3" d="M127.4 400v-94c0-5.6 1.8-10.2 3.9-10.2 2 0 3.8 4.6 3.8 10.2v94h-7.7z"/>
    </g>
    <path id="Vector_8" fill="url(#paint3_linear)" d="M287.8 33.1c39.6-39.1 76.3-26 91.4 0 15.2 26 .8 50.2 0 76.8-.8 26.5 14.4 29 14.4 29s.8 29.6-26.4 29.6L287.9 33z"/>
    <path id="Vector_9" fill="url(#paint4_linear)" d="M11.2 168.5C11.2 75.5 89 0 184.7 0 280.3 0 358 75.6 358 168.5H11.2z"/>
    <path id="Vector_10" fill="url(#paint5_linear)" d="M334.7 211.8a34 34 0 0033.8-34.1 34 34 0 00-33.8-34.2 34 34 0 00-33.8 34.2 34 34 0 0033.8 34.1z"/>
    <path id="Vector_11" fill="url(#paint6_linear)" d="M34.7 212A34 34 0 0068.5 178a34 34 0 00-33.8-34.2A34 34 0 00.8 178 34 34 0 0034.7 212z"/>
    <path id="Vector_12" fill="url(#paint7_radial)" d="M336.4 168.2c0-17.6-5.8-34.8-16-49-21.2-29.2-65.8-69.4-135.7-27C114.7 49.8 70 90 49 119.2a84.2 84.2 0 00-16 49v.3c0 81 67.9 146.6 151.7 146.6 83.8 0 151.7-65.6 151.7-146.6v-.3z"/>
    <path id="Vector_13" fill="#FF8087" d="M111.6 188H86a6 6 0 00-6 6 6 6 0 006 6h25.7a6 6 0 006-6 6 6 0 00-6-6z"/>
    <g id="Group_3" fill="#3A484A">
      <path id="Vector_14" d="M98.8 143.2a21.3 21.3 0 00-21.2 21.4 6 6 0 006 6 6 6 0 006-6c0-5.1 4.1-9.3 9.2-9.3 5 0 9.2 4.2 9.2 9.3a6 6 0 006 6 6 6 0 006-6c0-11.8-9.5-21.4-21.2-21.4z"/>
      <path id="Vector_15" d="M269.7 143.2a21.3 21.3 0 00-21.1 21.4 6 6 0 006 6 6 6 0 006-6c0-5.1 4-9.3 9.1-9.3 5 0 9.2 4.2 9.2 9.3a6 6 0 006 6 6 6 0 006-6c0-11.8-9.5-21.4-21.2-21.4z"/>
      <path id="Vector_16" d="M203.8 183a6 6 0 00-8.3 1.2 13.8 13.8 0 01-22.5 0 6 6 0 00-8.3-1.3 6 6 0 00-1.3 8.5 26 26 0 0020.8 10.6c8.2 0 16-4 20.9-10.6a6 6 0 00-1.3-8.5z"/>
    </g>
    <path id="Vector_17" fill="#FF8087" d="M282.5 188h-25.7a6 6 0 00-6 6 6 6 0 006 6h25.7a6 6 0 006-6 6 6 0 00-6-6z"/>
  </g>
  <defs>
    <linearGradient id="paint0_linear" x1="238.8" x2="285.7" y1="288.6" y2="400" gradientUnits="userSpaceOnUse">
      <stop stop-color="#8C296C"/>
      <stop offset=".4" stop-color="#D63AA4"/>
    </linearGradient>
    <linearGradient id="paint1_linear" x1="115.3" x2="63.5" y1="257" y2="387.4" gradientUnits="userSpaceOnUse">
      <stop offset=".1" stop-color="#8C296C"/>
      <stop offset=".5" stop-color="#D93BA6"/>
    </linearGradient>
    <linearGradient id="paint2_linear" x1="184.7" x2="184.7" y1="257" y2="400" gradientUnits="userSpaceOnUse">
      <stop offset=".3" stop-color="#D6D1D4"/>
      <stop offset=".6" stop-color="#EEECED"/>
    </linearGradient>
    <linearGradient id="paint3_linear" x1="384.6" x2="305.9" y1="4.1" y2="156.9" gradientUnits="userSpaceOnUse">
      <stop stop-color="#AB4F3F"/>
      <stop offset="1" stop-color="#863E31"/>
    </linearGradient>
    <linearGradient id="paint4_linear" x1="155.3" x2="94.4" y1="62.5" y2="-13" gradientUnits="userSpaceOnUse">
      <stop stop-color="#C36E5C"/>
      <stop offset="1" stop-color="#864032"/>
    </linearGradient>
    <linearGradient id="paint5_linear" x1="368.5" x2="328.4" y1="177.7" y2="192.3" gradientUnits="userSpaceOnUse">
      <stop stop-color="#FCC4AD"/>
      <stop offset="1" stop-color="#D8906F"/>
    </linearGradient>
    <linearGradient id="paint6_linear" x1="-4.6" x2="40" y1="152.3" y2="198.6" gradientUnits="userSpaceOnUse">
      <stop offset=".1" stop-color="#FCC4AD"/>
      <stop offset="1" stop-color="#DDA083"/>
    </linearGradient>
    <radialGradient id="paint7_radial" cx="0" cy="0" r="1" gradientTransform="rotate(145.8 113.2 88.2) scale(260.711 195.882)" gradientUnits="userSpaceOnUse">
      <stop offset=".4" stop-color="#FBC4AC"/>
      <stop offset="1" stop-color="#EAAB90"/>
    </radialGradient>
  </defs>
</svg>
