<svg xmlns="http://www.w3.org/2000/svg" fill="none" viewBox="0 0 391 400">
  <defs/>
  <g id="hipster">
    <path id="Vector" fill="url(#paint0_linear)" d="M368 215.3c9 46.5-19.3 45.7-16.8 83.4 2.4 37.8-24.2 49.9-24.2 49.9H64.3s-26.6-12.1-24-49.9c2.4-37.7-25.9-36.9-16.9-83.4v-41.8h341l3.6 41.8z"/>
    <path id="Vector_2" fill="url(#paint1_linear)" d="M120 298.7c2.5-37.7-25.8-36.9-16.8-83.4v-41.8H23.4v41.8c-9 46.5 19.3 45.7 16.8 83.4-2.5 37.8 24.1 49.9 24.1 49.9h79.8s-26.6-12.1-24.1-49.9z"/>
    <g id="Group">
      <path id="Vector_3" fill="url(#paint2_linear)" d="M309.1 298.5c-9.3-7-16.2-9.5-16.2-9.5h-15l-31 49 31 62h79.9c0-66.7-29.5-87.2-48.7-101.5z"/>
      <path id="Vector_4" fill="url(#paint3_radial)" d="M113.5 289h-15s-7 2.5-16.2 9.5C63 312.8 33.6 333.3 33.6 400h79.9l30.9-62-31-49z"/>
    </g>
    <path id="Vector_5" fill="url(#paint4_linear)" d="M277.9 289H113.5v111h164.4V289z"/>
    <g id="Group_2" fill="#008FC7">
      <path id="Vector_6" d="M70.4 400L62 363.7c0-3.3 10-6 11.8-6 1.8 0 3.3 2.7 3.3 6V400h-6.7z"/>
      <path id="Vector_7" d="M314 400v-36.3c0-3.3 1.6-6 3.4-6 1.9 0 11.8 2.7 11.8 6l-8.4 36.3h-6.7z"/>
    </g>
    <path id="Vector_8" fill="url(#paint5_linear)" d="M247 318s-10.9 40.2-51.3 52.8c-40.4-12.6-51.3-52.8-51.3-52.8H247z"/>
    <path id="Vector_9" fill="url(#paint6_linear)" d="M15 173.5a169 169 0 0153.4-123C102.4 17.8 147.7 0 195.7 0S288.9 17.9 323 50.4a169 169 0 0153.3 123.1H15.1z"/>
    <path id="Vector_10" fill="url(#paint7_linear)" d="M355.5 217.6c19.5 0 35.3-16 35.3-35.6a35.4 35.4 0 00-35.3-35.5c-19.4 0-35.2 15.9-35.2 35.5a35.4 35.4 0 0035.2 35.6z"/>
    <path id="Vector_11" fill="url(#paint8_linear)" d="M35.8 217.6C16.4 217.6.6 201.6.6 182a35.4 35.4 0 0135.2-35.5c19.5 0 35.3 15.9 35.3 35.5a35.4 35.4 0 01-35.3 35.6z"/>
    <path id="Vector_12" fill="url(#paint9_radial)" d="M164.6 69.8S125.9 126.4 40 138.2a146.3 146.3 0 00-4.3 35.3c0 84.3 71.6 152.5 159.9 152.5 88.3 0 159.8-68.2 159.8-152.5 0-12.1-1.5-24-4.3-35.3-116.2-15-186.6-68.4-186.6-68.4z"/>
    <path id="Vector_13" fill="#F98084" d="M133.3 224.5h-23.8a6.5 6.5 0 110-13h23.8a6.5 6.5 0 010 13z"/>
    <path id="Vector_14" fill="#F98084" d="M281 224.5h-23.8a6.5 6.5 0 110-13H281a6.5 6.5 0 110 13z"/>
    <g id="Group_3" fill="#3A484A">
      <path id="Vector_15" d="M121.8 195.6a6 6 0 01-6-6v-14.5a6 6 0 016-6 6 6 0 016 6v14.5a6 6 0 01-6 6z"/>
      <path id="Vector_16" d="M269.5 195.6a6 6 0 01-6-6v-14.5a6 6 0 016-6 6 6 0 016 6v14.5a6 6 0 01-6 6z"/>
      <path id="Vector_17" d="M195.7 228.9c-7.2 0-14-3-18.6-8.4a6 6 0 01.5-8.5 6 6 0 018.5.6c2.3 2.7 5.8 4.2 9.6 4.2s7.3-1.5 9.6-4.2a6 6 0 018.4-.6 6 6 0 01.6 8.5 24.6 24.6 0 01-18.6 8.4z"/>
    </g>
    <g id="Group_4">
      <path id="Vector_18" fill="url(#paint10_radial)" d="M31.6 233.3c8.5 0 15.5-7 15.5-15.6s-7-15.6-15.5-15.6-15.5 7-15.5 15.6 7 15.6 15.5 15.6z"/>
      <path id="Vector_19" fill="url(#paint11_radial)" d="M359.8 233.3c8.5 0 15.4-7 15.4-15.6s-6.9-15.6-15.4-15.6c-8.6 0-15.5 7-15.5 15.6s7 15.6 15.5 15.6z"/>
    </g>
    <g id="Group_5">
      <path id="Vector_20" fill="url(#paint12_linear)" d="M57.4 78.1c-6 36.4-18 52.4-42.6 27.6-24.6-24.9-8.7-37 27.3-43L57.4 78z"/>
      <path id="Vector_21" fill="url(#paint13_linear)" d="M74.3 61c36-6 52-18.2 27.3-43C77-6.8 65 9.2 59 45.6L74.3 61z"/>
    </g>
    <path id="Vector_22" fill="url(#paint14_radial)" d="M94.9 23.3a6 6 0 00-8.3-1.8c-14 9.1-25.1 36.9-28.5 41.9-5 3.4-30.8 13-40 27.1a6 6 0 005.1 9.3c2 0 4-1 5-2.7 8.7-13.7 33-30 33.3-30.2l.3-.2a6.2 6.2 0 00.8-.8l.2-.2.4-.5c.4-.6 16.5-24.9 29.9-33.6a6 6 0 001.8-8.3z"/>
    <path id="Vector_23" fill="url(#paint15_radial)" d="M50 49.8l-3.8 3.8a14.5 14.5 0 000 20.3 14.2 14.2 0 0020.2 0l3.8-3.8a14.5 14.5 0 000-20.3 14.2 14.2 0 00-20.2 0z"/>
  </g>
  <defs>
    <linearGradient id="paint0_linear" x1="195.7" x2="195.7" y1="173.5" y2="348.6" gradientUnits="userSpaceOnUse">
      <stop offset=".6" stop-color="#644644"/>
      <stop offset=".8" stop-color="#403331"/>
    </linearGradient>
    <linearGradient id="paint1_linear" x1="82.9" x2="82.9" y1="173.5" y2="348.6" gradientUnits="userSpaceOnUse">
      <stop offset=".6" stop-color="#644644"/>
      <stop offset="1" stop-color="#403331"/>
    </linearGradient>
    <linearGradient id="paint2_linear" x1="285.7" x2="320.6" y1="301.6" y2="383.2" gradientUnits="userSpaceOnUse">
      <stop stop-color="#008FC7"/>
      <stop offset=".4" stop-color="#00A1E0"/>
    </linearGradient>
    <linearGradient id="paint4_linear" x1="195.7" x2="195.7" y1="288.9" y2="400" gradientUnits="userSpaceOnUse">
      <stop stop-color="#C8C1C4"/>
      <stop offset=".6" stop-color="#EFEDEE"/>
    </linearGradient>
    <linearGradient id="paint5_linear" x1="195.7" x2="195.7" y1="318" y2="370.8" gradientUnits="userSpaceOnUse">
      <stop stop-color="#CA9C87"/>
      <stop offset=".4" stop-color="#E3B198"/>
    </linearGradient>
    <linearGradient id="paint6_linear" x1="207.4" x2="123.5" y1="124.2" y2="51.6" gradientUnits="userSpaceOnUse">
      <stop offset=".4" stop-color="#644644"/>
      <stop offset="1" stop-color="#403331"/>
    </linearGradient>
    <linearGradient id="paint7_linear" x1="349.3" x2="380.7" y1="173.2" y2="164.7" gradientUnits="userSpaceOnUse">
      <stop stop-color="#C99C87"/>
      <stop offset=".6" stop-color="#E3B199"/>
    </linearGradient>
    <linearGradient id="paint8_linear" x1="56.5" x2=".6" y1="221.1" y2="182" gradientUnits="userSpaceOnUse">
      <stop offset=".2" stop-color="#C99C87"/>
      <stop offset=".8" stop-color="#E3B199"/>
    </linearGradient>
    <linearGradient id="paint12_linear" x1="31.8" x2="48.4" y1="77.2" y2="67.2" gradientUnits="userSpaceOnUse">
      <stop stop-color="#F98084"/>
      <stop offset="1" stop-color="#DD5B65"/>
    </linearGradient>
    <linearGradient id="paint13_linear" x1="107.6" x2="64.1" y1="16.1" y2="49.7" gradientUnits="userSpaceOnUse">
      <stop offset=".6" stop-color="#F98084"/>
      <stop offset="1" stop-color="#DD5B65"/>
    </linearGradient>
    <radialGradient id="paint3_radial" cx="0" cy="0" r="1" gradientTransform="rotate(112.1 -41 187.5) scale(103.293 103.105)" gradientUnits="userSpaceOnUse">
      <stop offset=".1" stop-color="#008FC7"/>
      <stop offset=".6" stop-color="#00A1E0"/>
    </radialGradient>
    <radialGradient id="paint9_radial" cx="0" cy="0" r="1" gradientTransform="matrix(-86.526 153.65924 -191.71287 -107.95413 222.7 149.7)" gradientUnits="userSpaceOnUse">
      <stop offset=".8" stop-color="#E3B098"/>
      <stop offset="1" stop-color="#C99C87"/>
    </radialGradient>
    <radialGradient id="paint10_radial" cx="0" cy="0" r="1" gradientTransform="matrix(0 15.6054 -15.4661 0 31.6 217.7)" gradientUnits="userSpaceOnUse">
      <stop offset=".5" stop-color="#EFEDEE"/>
      <stop offset="1" stop-color="#E8D4DE"/>
    </radialGradient>
    <radialGradient id="paint11_radial" cx="0" cy="0" r="1" gradientTransform="matrix(0 15.6054 -15.4661 0 359.8 217.7)" gradientUnits="userSpaceOnUse">
      <stop offset=".5" stop-color="#EFEDEE"/>
      <stop offset="1" stop-color="#E8D4DE"/>
    </radialGradient>
    <radialGradient id="paint14_radial" cx="0" cy="0" r="1" gradientTransform="matrix(0 39.6557 -39.3018 0 56.5 60.2)" gradientUnits="userSpaceOnUse">
      <stop offset=".2" stop-color="#BF4E57"/>
      <stop offset="1" stop-color="#E2626B"/>
    </radialGradient>
    <radialGradient id="paint15_radial" cx="0" cy="0" r="1" gradientTransform="matrix(0 16.3032 -16.1573 0 58.2 61.8)" gradientUnits="userSpaceOnUse">
      <stop stop-color="#F98084"/>
      <stop offset="1" stop-color="#DC5A64"/>
    </radialGradient>
  </defs>
</svg>
